<?xml version="1.0" standalone="no"?>
<!DOCTYPE svg PUBLIC "-//W3C//DTD SVG 1.1//EN" "http://www.w3.org/Graphics/SVG/1.1/DTD/svg11.dtd" >
<svg xmlns="http://www.w3.org/2000/svg" xmlns:xlink="http://www.w3.org/1999/xlink" version="1.1">
<metadata>
Created by FontForge 20201107 at Fri Feb 21 06:44:59 2025
 By 
Copyright (c) 2022 by Rene Bieder. All rights reserved. Viet hoa boi STYLEno.1 Fonts
</metadata>
<defs>
<font id="SVN-RBVitruvDisplay-Bold" horiz-adv-x="1228" >
  <font-face 
    font-family="SVN-RB Vitruv Display"
    font-weight="700"
    font-stretch="semi-condensed"
    units-per-em="2048"
    panose-1="0 0 8 6 0 0 0 0 0 0"
    ascent="1638"
    descent="-410"
    x-height="1130"
    cap-height="1434"
    bbox="-328 -840 2673 2349"
    underline-thickness="102"
    underline-position="-204"
    unicode-range="U+000D-2715"
  />
<missing-glyph horiz-adv-x="1718" 
d="M1077 248q75 0 121.5 48.5t46.5 127.5v104q0 23 -22 23h-725q-23 0 -23 -23v-41q0 -22 23 -22h389q22 0 22 -23v-18q0 -79 46.5 -127.5t121.5 -48.5zM436 760l27 -27q15 -19 31 0l100 101q18 15 33 0l100 -101q17 -17 33 0l26 27q16 16 0 31l-100 100q-16 17 0 33
l100 100q15 18 0 33l-26 26q-16 17 -33 0l-100 -100q-15 -18 -33 0l-100 100q-16 15 -31 0l-27 -26q-16 -17 0 -33l101 -100q12 -16 0 -31l-101 -102q-16 -15 0 -31zM932 760l26 -27q16 -17 33 0l101 101q15 15 32 0l101 -101q15 -18 30 0l27 27q19 16 0 31l-100 100
q-16 17 0 33l100 100q16 16 0 33l-27 26q-15 15 -30 0l-101 -100q-17 -17 -32 0l-101 100q-17 17 -33 0l-26 -26q-15 -15 0 -33l100 -100q16 -16 0 -31l-100 -102q-16 -15 0 -31zM858 1497q350 0 564 -215.5t214 -568.5q0 -350 -214 -564.5t-564 -214.5q-229 0 -405.5 97
t-273.5 274t-97 408q0 171 55 316t154.5 248.5t245.5 161.5t321 58zM1077 344q-69 0 -69 82v39h139v-39q0 -41 -15.5 -61.5t-54.5 -20.5z" />
    <glyph glyph-name="f_b" unicode="fb" horiz-adv-x="1949" 
d="M1282 12q123 0 194.5 143t71.5 400q0 236 -62 343.5t-186 107.5q-77 0 -157 -60v-895q79 -39 139 -39zM485 1130h332v388q-83 53 -172 53q-83 0 -141 -49q-63 -52 -70.5 -147t51.5 -245zM1493 1151q179 0 290 -132t111 -378q0 -305 -163.5 -483t-448.5 -178
q-213 0 -465 114v996h-325v-943q0 -53 19.5 -75t63.5 -27l54 -8v-37h-594v37l41 6q48 8 70 30t22 74v943h-141v40l143 17q7 105 73.5 202.5t164 164t212.5 106t220 39.5q120 0 184 -55l117 34h2v-657q144 170 350 170z" />
    <glyph glyph-name="f_f" unicode="ff" horiz-adv-x="1357" 
d="M485 1130h342q9 149 107 277q-58 80 -134.5 122t-152.5 42q-85 0 -143 -49q-63 -52 -70.5 -147t51.5 -245zM1399 1638q115 0 168 -43t53 -110q0 -46 -38 -95t-97 -71q-24 106 -99 177t-149 71q-67 0 -99 -46.5t-29.5 -143.5t40.5 -247h211v-40h-207v-943q0 -52 27 -74
t86 -30l53 -6v-37h-623v37l41 6q47 6 68.5 28.5t21.5 75.5v943h-335v-943q0 -53 19.5 -75t63.5 -27l54 -8v-37h-594v37l41 6q48 8 70 30t22 74v943h-141v40l143 17q7 107 74.5 205t165.5 164t212.5 104.5t217.5 38.5q90 0 151.5 -33t81.5 -90q155 102 326 102z" />
    <glyph glyph-name="f_f_b" unicode="ffb" horiz-adv-x="2609" 
d="M1942 12q123 0 194.5 143t71.5 400q0 236 -62 343.5t-186 107.5q-80 0 -160 -60v-893q77 -41 142 -41zM645 1571q-63 0 -111.5 -28t-76.5 -81t-22 -139.5t50 -192.5h340q9 149 113 269q-56 83 -134.5 127.5t-158.5 44.5zM1145 1130h332v388q-83 53 -172 53
q-84 0 -142 -49q-63 -52 -70 -147t52 -245zM2152 1151q179 0 290.5 -132t111.5 -378q0 -305 -163.5 -483t-448.5 -178q-213 0 -465 114v996h-326v-943q0 -53 20 -75t64 -27l53 -8v-37h-594v37l41 6q48 8 69 29.5t21 74.5v943h-333v-943q0 -53 19.5 -75t63.5 -27l54 -8v-37
h-594v37l41 6q48 8 70 30t22 74v943h-141v40l143 17q7 107 74.5 205t165.5 164t212.5 104.5t217.5 38.5q95 0 157.5 -37t81.5 -100q98 65 211 101t209 36q117 0 184 -55l115 34h2v-659q146 172 352 172z" />
    <glyph glyph-name="f_f_h" unicode="ffh" horiz-adv-x="2648" 
d="M645 1571q-63 0 -111.5 -28t-76.5 -81t-22 -139.5t50 -192.5h340q9 149 113 269q-56 83 -134.5 127.5t-158.5 44.5zM1145 1130h346v377q-88 64 -182 64q-85 0 -146 -49q-63 -52 -70 -147t52 -245zM2591 43l41 -6v-37h-574v37l37 6q41 6 59.5 28.5t18.5 75.5v656
q0 87 -40.5 135.5t-115.5 48.5q-114 0 -200 -92v-748q0 -52 18.5 -74t58.5 -30l39 -6v-37h-557v37l37 6q41 6 59.5 28.5t18.5 75.5v943h-340v-943q0 -53 20 -75t64 -27l53 -8v-37h-594v37l41 6q48 8 69 29.5t21 74.5v943h-333v-943q0 -53 19.5 -75t63.5 -27l54 -8v-37h-594
v37l41 6q48 8 70 30t22 74v943h-141v40l143 17q7 107 74.5 205t165.5 164t212.5 104.5t217.5 38.5q95 0 157.5 -37t81.5 -100q98 65 211 101t209 36q123 0 189 -60l127 39h2v-700q137 213 366 213q156 0 236 -97.5t80 -271.5v-635q0 -52 22 -74t70 -30z" />
    <glyph glyph-name="f_f_i" unicode="ffi" horiz-adv-x="2009" 
d="M645 1571q-63 0 -111.5 -28t-76.5 -81t-22 -139.5t50 -192.5h363q9 140 100 254q-55 89 -137.5 138t-165.5 49zM1944 43l41 -6v-37h-590v37l41 6q48 8 70 30t22 74v943h-354v-943q0 -54 19 -75.5t64 -26.5l52 -8v-37h-592v37l41 6q48 8 69 29.5t21 74.5v943h-356v-943
q0 -53 19.5 -75t63.5 -27l54 -8v-37h-594v37l41 6q48 8 70 30t22 74v943h-141v40l143 17q9 109 76 207t165 163.5t211.5 103.5t217.5 38q101 0 165 -40.5t76 -109.5q101 71 220 110.5t225 39.5q130 0 186.5 -44.5t56.5 -115.5q0 -63 -41.5 -118t-125.5 -89
q-42 127 -121.5 201t-163.5 74q-72 0 -117.5 -45t-58 -142t27.5 -250h684v-983q0 -52 21.5 -74t69.5 -30z" />
    <glyph glyph-name="f_f_j" unicode="ffj" horiz-adv-x="1927" 
d="M645 1571q-63 0 -111.5 -28t-76.5 -81t-22 -139.5t50 -192.5h363q9 140 100 254q-55 89 -137.5 138t-165.5 49zM1169 1130h639v-921q0 -89 -46 -194.5t-118 -194.5t-169 -149t-189 -60q-73 0 -116.5 40t-43.5 99q0 40 22 81.5t64 72.5q49 -100 100 -153.5t95 -53.5
q39 0 57.5 38t18.5 138v1217h-309v-943q0 -54 19 -75.5t64 -26.5l52 -8v-37h-592v37l41 6q48 8 69 29.5t21 74.5v943h-356v-943q0 -53 19.5 -75t63.5 -27l54 -8v-37h-594v37l41 6q48 8 70 30t22 74v943h-141v40l143 17q9 109 76 207t165 163.5t211.5 103.5t217.5 38
q101 0 165 -40.5t76 -109.5q101 71 220 110.5t225 39.5q130 0 186.5 -44.5t56.5 -115.5q0 -63 -41.5 -118t-125.5 -89q-42 127 -121.5 201t-163.5 74q-72 0 -117.5 -45t-58 -142t27.5 -250z" />
    <glyph glyph-name="f_f_k" unicode="ffk" horiz-adv-x="2603" 
d="M645 1571q-63 0 -111.5 -28t-76.5 -81t-22 -139.5t50 -192.5h340q9 149 113 269q-56 83 -134.5 127.5t-158.5 44.5zM1145 1130h346v377q-88 64 -182 64q-85 0 -146 -49q-63 -52 -70 -147t52 -245zM1815 1638h2v-1491q0 -53 21 -74.5t69 -29.5l41 -6v-37h-588v37l41 6
q48 8 69 29.5t21 74.5v943h-340v-943q0 -53 20 -75t64 -27l53 -8v-37h-594v37l41 6q48 8 69 29.5t21 74.5v943h-333v-943q0 -53 19.5 -75t63.5 -27l54 -8v-37h-594v37l41 6q48 8 70 30t22 74v943h-141v40l143 17q7 107 74.5 205t165.5 164t212.5 104.5t217.5 38.5
q95 0 157.5 -37t81.5 -100q98 65 211 101t209 36q123 0 189 -60zM2355 1010l-217 -211l496 -783v-16h-373l-375 627l416 393q37 32 32 46t-63 21l-51 7v36h350v-36l-39 -7q-114 -17 -176 -77z" />
    <glyph glyph-name="f_f_l" unicode="ffl" horiz-adv-x="1972" 
d="M645 1571q-63 0 -111.5 -28t-76.5 -81t-22 -139.5t50 -192.5h340q9 149 113 269q-56 83 -134.5 127.5t-158.5 44.5zM1145 1130h346v377q-88 64 -182 64q-85 0 -146 -49q-63 -52 -70 -147t52 -245zM1907 43l41 -6v-37h-588v37l41 6q47 6 68.5 28.5t21.5 75.5v943h-340
v-943q0 -53 20 -75t64 -27l53 -8v-37h-594v37l41 6q48 8 69 29.5t21 74.5v943h-333v-943q0 -53 19.5 -75t63.5 -27l54 -8v-37h-594v37l41 6q48 8 70 30t22 74v943h-141v40l143 17q7 107 74.5 205t165.5 164t212.5 104.5t217.5 38.5q95 0 157.5 -37t81.5 -100q98 65 211 101
t209 36q123 0 189 -60l127 39h2v-1491q0 -53 21 -74.5t69 -29.5z" />
    <glyph glyph-name="f_h" unicode="fh" horiz-adv-x="1990" 
d="M485 1130h346v377q-88 64 -182 64q-84 0 -145 -49q-63 -52 -70.5 -147t51.5 -245zM1931 43l41 -6v-37h-573v37l37 6q41 6 60.5 28.5t19.5 75.5v656q0 87 -41.5 135.5t-116.5 48.5q-109 0 -201 -92v-748q0 -52 19 -74t61 -30l37 -6v-37h-557v37l39 6q39 6 57 28.5t18 75.5
v943h-339v-943q0 -53 19.5 -75t63.5 -27l54 -8v-37h-594v37l41 6q48 8 70 30t22 74v943h-141v40l143 17q7 105 73.5 202.5t163.5 164t211 106t218 39.5q123 0 192 -60l127 39h2v-702q138 215 367 215q156 0 235.5 -97t79.5 -272v-635q0 -52 22 -74t70 -30z" />
    <glyph glyph-name="f_i" unicode="fi" horiz-adv-x="1327" 
d="M1264 43l41 -6v-37h-590v37l41 6q48 8 69 29.5t21 74.5v943h-354v-943q0 -53 19.5 -75t63.5 -27l54 -8v-37h-594v37l41 6q48 8 70 30t22 74v943h-141v40l143 17q8 109 77.5 207.5t169 163.5t213.5 103t216 38q127 0 184 -45t57 -115q0 -63 -41 -118t-124 -89
q-42 127 -122 201t-165 74q-72 0 -117.5 -45t-58 -142t27.5 -250h684v-983q0 -52 22.5 -74t70.5 -30z" />
    <glyph glyph-name="f_j" unicode="fj" horiz-adv-x="1247" 
d="M487 1130h639v-921q0 -88 -46 -193.5t-118 -195t-168.5 -149.5t-187.5 -60q-75 0 -118.5 40t-43.5 99q0 40 22.5 81.5t65.5 72.5q49 -100 100 -153.5t95 -53.5q38 0 56 38.5t18 137.5v1217h-309v-943q0 -53 19.5 -75t63.5 -27l54 -8v-37h-594v37l41 6q48 8 70 30t22 74
v943h-141v40l143 17q8 109 77.5 207.5t169 163.5t213.5 103t216 38q127 0 184 -45t57 -115q0 -63 -41 -118t-124 -89q-42 127 -122 201t-165 74q-72 0 -117.5 -45t-58 -142t27.5 -250z" />
    <glyph glyph-name="f_k" unicode="fk" horiz-adv-x="1945" 
d="M485 1130h346v377q-88 64 -182 64q-84 0 -145 -49q-63 -52 -70.5 -147t51.5 -245zM1155 1638h2v-1491q0 -52 22 -74t70 -30l41 -6v-37h-590v37l41 6q48 8 69 29.5t21 74.5v943h-339v-943q0 -53 19.5 -75t63.5 -27l54 -8v-37h-594v37l41 6q48 8 70 30t22 74v943h-141v40
l143 17q7 105 73.5 202.5t163.5 164t211 106t218 39.5q123 0 192 -60zM1698 1010l-219 -211l495 -783v-16h-372l-375 627l415 393q37 32 32.5 46t-62.5 21l-51 7v36h350v-36l-39 -7q-115 -18 -174 -77z" />
    <glyph glyph-name="f_l" unicode="fl" horiz-adv-x="1312" 
d="M485 1130h346v377q-88 64 -182 64q-84 0 -145 -49q-63 -52 -70.5 -147t51.5 -245zM1249 43l41 -6v-37h-590v37l41 6q47 6 68.5 28.5t21.5 75.5v943h-339v-943q0 -53 19.5 -75t63.5 -27l54 -8v-37h-594v37l41 6q48 8 70 30t22 74v943h-141v40l143 17q7 105 73.5 202.5
t163.5 164t211 106t218 39.5q123 0 192 -60l127 39h2v-1491q0 -52 22 -74t70 -30z" />
    <glyph glyph-name=".notdef" horiz-adv-x="1718" 
d="M1077 248q75 0 121.5 48.5t46.5 127.5v104q0 23 -22 23h-725q-23 0 -23 -23v-41q0 -22 23 -22h389q22 0 22 -23v-18q0 -79 46.5 -127.5t121.5 -48.5zM436 760l27 -27q15 -19 31 0l100 101q18 15 33 0l100 -101q17 -17 33 0l26 27q16 16 0 31l-100 100q-16 17 0 33
l100 100q15 18 0 33l-26 26q-16 17 -33 0l-100 -100q-15 -18 -33 0l-100 100q-16 15 -31 0l-27 -26q-16 -17 0 -33l101 -100q12 -16 0 -31l-101 -102q-16 -15 0 -31zM932 760l26 -27q16 -17 33 0l101 101q15 15 32 0l101 -101q15 -18 30 0l27 27q19 16 0 31l-100 100
q-16 17 0 33l100 100q16 16 0 33l-27 26q-15 15 -30 0l-101 -100q-17 -17 -32 0l-101 100q-17 17 -33 0l-26 -26q-15 -15 0 -33l100 -100q16 -16 0 -31l-100 -102q-16 -15 0 -31zM858 1497q350 0 564 -215.5t214 -568.5q0 -350 -214 -564.5t-564 -214.5q-229 0 -405.5 97
t-273.5 274t-97 408q0 171 55 316t154.5 248.5t245.5 161.5t321 58zM1077 344q-69 0 -69 82v39h139v-39q0 -41 -15.5 -61.5t-54.5 -20.5z" />
    <glyph glyph-name="uni0000" horiz-adv-x="0" 
 />
    <glyph glyph-name="uni0000" horiz-adv-x="0" 
 />
    <glyph glyph-name="uni000D" unicode="&#xd;" horiz-adv-x="512" 
 />
    <glyph glyph-name="space" unicode=" " horiz-adv-x="407" 
 />
    <glyph glyph-name="exclam" unicode="!" horiz-adv-x="522" 
d="M270 520h-12l-147 623q-23 87 -20 146.5t31 96t62 52.5t72 16t72.5 -16t62.5 -52.5t32.5 -96t-17.5 -146.5zM262 -12q-74 0 -125 51t-51 123q0 74 51 127t125 53q77 0 127.5 -52.5t50.5 -127.5q0 -73 -50.5 -123.5t-127.5 -50.5z" />
    <glyph glyph-name="quotedbl" unicode="&#x22;" horiz-adv-x="704" 
d="M174 1026h-4l-115 369q-37 115 -1.5 179t118.5 64t118.5 -64t-1.5 -179zM535 1026h-5l-114 369q-36 115 0 179t116 64q83 0 118.5 -64t-1.5 -179z" />
    <glyph glyph-name="numbersign" unicode="#" horiz-adv-x="1206" 
d="M762 864h-225l-93 -291h224zM1051 573v-145h-265l-143 -448l-147 53l127 395h-226l-143 -448l-148 53l127 395h-131v145h177l94 291h-217v146h264l143 448l148 -53l-127 -395h225l143 448l148 -53l-127 -395h131v-146h-178l-92 -291h217z" />
    <glyph glyph-name="dollar" unicode="$" horiz-adv-x="1155" 
d="M608 524v-508q98 5 157.5 64.5t59.5 157.5q0 103 -57 169.5t-160 116.5zM342 1214q0 -96 58.5 -157.5t166.5 -112.5v473q-101 -1 -163 -59t-62 -144zM1085 453q0 -201 -133 -326.5t-344 -144.5v-283h-41v281h-20q-116 0 -235.5 29t-213.5 83l-39 342h21q95 -178 228 -291
t259 -125v525q-29 13 -81.5 35.5t-85.5 37t-80 39t-77 46.5t-64 54.5t-53.5 67.5t-32.5 82t-13 101q0 195 138 316t349 130v283h41v-281h2q211 0 396 -90l28 -340h-22q-74 177 -180 278t-224 113v-489q21 -9 64.5 -27t67.5 -28.5t64.5 -29.5t64 -33.5t57 -38t53.5 -45
t42.5 -52t35 -62.5t20.5 -72t8 -85z" />
    <glyph glyph-name="percent" unicode="%" horiz-adv-x="1904" 
d="M336 1071q0 -129 32 -208t91 -79q57 0 89 79t32 208q0 131 -32 210t-89 79q-59 0 -91 -79t-32 -210zM414 -39l917 1518h160l-922 -1518h-155zM72 1071q0 94 31.5 169t85.5 122t123 71.5t147 24.5q162 0 273.5 -101.5t111.5 -285.5q0 -93 -31.5 -167.5t-85 -121.5
t-122.5 -71.5t-146 -24.5q-105 0 -191 41.5t-141 131t-55 212.5zM1569 367q0 129 -32 207.5t-91 78.5q-57 0 -89 -78.5t-32 -207.5q0 -131 32 -210t89 -79q59 0 91 79t32 210zM1833 367q0 -94 -31.5 -169t-85.5 -122t-123 -71.5t-147 -24.5q-162 0 -273.5 101.5
t-111.5 285.5q0 93 31.5 167.5t85 121.5t122.5 71.5t146 24.5q105 0 191 -41.5t141 -131t55 -212.5z" />
    <glyph glyph-name="ampersand" unicode="&#x26;" horiz-adv-x="1613" 
d="M698 121q146 0 271 94l-463 463q-53 53 -64 67q-102 -132 -102 -288q0 -155 96 -245.5t262 -90.5zM653 1425q-66 0 -106.5 -47.5t-40.5 -122.5q0 -140 172 -327q127 104 127 284q0 98 -40.5 155.5t-111.5 57.5zM1595 879v-31l-63 -21q-53 -18 -100 -63.5t-115 -140.5
l-135 -195l409 -405v-23h-409l-189 190q-223 -210 -512 -210q-204 0 -325 96t-121 262q0 137 101 250.5t278 187.5q-160 186 -160 340q0 146 106.5 242t288.5 96q154 0 246 -66t92 -180q0 -96 -78.5 -172.5t-212.5 -126.5l451 -446l72 151q44 94 26.5 152.5t-80.5 71.5
l-45 10v31h475z" />
    <glyph glyph-name="quotesingle" unicode="'" horiz-adv-x="342" 
d="M174 1026h-4l-115 369q-37 115 -1.5 179t118.5 64t118.5 -64t-1.5 -179z" />
    <glyph glyph-name="parenleft" unicode="(" horiz-adv-x="794" 
d="M123 643q0 256 117 508t317 426h197q-328 -352 -328 -934q0 -580 328 -932h-197q-201 174 -317.5 425.5t-116.5 506.5z" />
    <glyph glyph-name="parenright" unicode=")" horiz-adv-x="794" 
d="M672 643q0 -255 -116.5 -506.5t-317.5 -425.5h-197q328 352 328 932q0 582 -328 934h197q200 -174 317 -426t117 -508z" />
    <glyph glyph-name="asterisk" unicode="*" horiz-adv-x="987" 
d="M948 1290q12 -45 -11.5 -83.5t-76.5 -51.5q-36 -10 -88 -10q-32 0 -118.5 8.5t-135.5 5.5q33 -32 89.5 -70t103 -74t73.5 -75q31 -44 26 -87.5t-46 -72.5q-28 -22 -62 -22q-57 0 -96 57q-33 49 -63.5 163t-48.5 155q-12 -30 -44 -148.5t-69 -169.5q-39 -57 -94 -57
q-33 0 -64 22q-39 30 -44.5 72.5t24.5 87.5q37 51 135.5 119.5t130.5 99.5q-47 3 -134 -5.5t-120 -8.5q-52 0 -88 10q-51 13 -75.5 51.5t-12.5 83.5q9 38 38 60t66 22q21 0 39 -6q61 -17 162 -87t133 -87q-9 40 -50.5 153t-41.5 173q0 54 30 87t79 33t78.5 -33t29.5 -87
q0 -63 -41 -175.5t-49 -148.5q39 21 94.5 60.5t104 69.5t94.5 42q21 6 39 6q40 0 67.5 -22t36.5 -60z" />
    <glyph glyph-name="plus" unicode="+" horiz-adv-x="1236" 
d="M522 1217h191v-375h374v-191h-374v-377h-191v377h-375v191h375v375z" />
    <glyph glyph-name="comma" unicode="," horiz-adv-x="458" 
d="M45 -256l-6 12q95 46 143.5 102.5t48.5 114.5q0 56 -52.5 111t-137.5 80q0 76 53 127t123 51q83 0 134.5 -56.5t51.5 -142.5q0 -128 -94.5 -236.5t-263.5 -162.5z" />
    <glyph glyph-name="hyphen" unicode="-" horiz-adv-x="737" 
d="M635 506h-533v237h533v-237z" />
    <glyph glyph-name="period" unicode="." horiz-adv-x="458" 
d="M227 -12q-75 0 -125.5 51t-50.5 123q0 74 51 127t125 53q77 0 128 -52.5t51 -127.5q0 -73 -51 -123.5t-128 -50.5z" />
    <glyph glyph-name="slash" unicode="/" horiz-adv-x="905" 
d="M827 1577l-557 -1825h-219l557 1825h219z" />
    <glyph glyph-name="zero" unicode="0" horiz-adv-x="1370" 
d="M684 -20q-120 0 -232.5 56t-197.5 152t-136.5 234.5t-51.5 294.5t51.5 294.5t136.5 234.5t197.5 152t232.5 56t233 -56t198.5 -152t137.5 -235t52 -294t-52 -294t-137.5 -235t-198.5 -152t-233 -56zM684 14q248 0 248 703q0 702 -248 702t-248 -702q0 -703 248 -703z" />
    <glyph glyph-name="one" unicode="1" horiz-adv-x="792" 
d="M778 0h-731v37l64 6q70 6 102.5 28.5t32.5 75.5v975q0 65 -22 84t-95 19h-119v26l551 203h19v-1307q0 -52 33 -74t102 -30l63 -6v-37z" />
    <glyph glyph-name="two" unicode="2" horiz-adv-x="1105" 
d="M946 0h-954v20q366 371 504 605q120 200 120 368q0 133 -66 200t-169 67q-94 0 -178 -55.5t-127 -155.5l-17 6q34 98 95.5 175.5t136 125t156 72t163.5 24.5q160 0 268.5 -91.5t108.5 -248.5q0 -195 -179 -395t-515 -420v-4h379q135 0 229.5 46.5t138.5 137.5h21z" />
    <glyph glyph-name="three" unicode="3" horiz-adv-x="1097" 
d="M451 -20q-121 0 -214 29t-145 81q-60 61 -50 131t83 133q66 -125 187 -225t229 -100q85 0 133.5 64.5t48.5 176.5q0 176 -136.5 272t-369.5 85l-10 26q383 219 383 443q0 88 -52 134t-137 46q-94 0 -181 -61t-134 -164l-18 8q37 110 130 202t211.5 142.5t233.5 50.5
q127 0 205 -62.5t78 -179.5q0 -66 -31 -123.5t-93 -107.5t-136.5 -91.5t-178.5 -86.5l2 -6q177 6 301.5 -42t190.5 -137q66 -95 62 -197.5t-70 -201.5q-73 -110 -207.5 -174.5t-314.5 -64.5z" />
    <glyph glyph-name="four" unicode="4" horiz-adv-x="1161" 
d="M1145 412v-43h-193v-222q0 -53 26.5 -74.5t86.5 -29.5l51 -6v-37h-661v37l51 6q59 6 87 28.5t28 75.5v222h-596l-19 37l553 1028h340v-4l-836 -1018h558v508l331 94v-602h193z" />
    <glyph glyph-name="five" unicode="5" horiz-adv-x="1077" 
d="M266 1141l-37 -223q401 3 586 -119q182 -120 182 -322q0 -120 -63 -237q-69 -121 -204 -190.5t-331 -69.5q-175 0 -276 61q-103 62 -102 147t102 158q62 -120 175.5 -213.5t233.5 -93.5q93 0 153 66.5t60 177.5q0 50 -18 94t-62 86t-112 72.5t-176 48.5t-246 18l143 832
h537q174 0 209 71h16l-53 -364h-717z" />
    <glyph glyph-name="six" unicode="6" horiz-adv-x="1206" 
d="M621 18q90 0 143 110.5t53 289.5q0 162 -59.5 257t-169.5 95q-93 0 -174 -72q-11 -101 -11 -180q0 -500 218 -500zM780 881q175 0 280 -105.5t105 -286.5q0 -106 -40.5 -200t-112 -162t-172.5 -107.5t-217 -39.5q-247 0 -404.5 164t-157.5 427q0 136 42 258t115.5 215.5
t172.5 169.5t215.5 126t241.5 78.5t252 33.5v-14q-282 -29 -460 -202.5t-222 -502.5q154 148 362 148z" />
    <glyph glyph-name="seven" unicode="7" horiz-adv-x="1042" 
d="M29 985l61 449h957v-9l-158 -284l-402 -1141h-383v6l754 1135h-555q-105 0 -165 -37t-89 -119h-20z" />
    <glyph glyph-name="eight" unicode="8" horiz-adv-x="1189" 
d="M621 18q111 0 185.5 61.5t74.5 153.5q0 137 -150 222q-40 23 -89.5 47t-117 55t-100.5 47q-62 -46 -94.5 -115.5t-32.5 -146.5q0 -141 91.5 -232.5t232.5 -91.5zM602 1415q-109 0 -174.5 -57.5t-65.5 -149.5q0 -56 23 -101t84 -88t96.5 -63t129.5 -65q25 -13 38 -19
q139 95 139 269q0 121 -77 197.5t-193 76.5zM754 862q65 -31 112 -57.5t100 -67t85.5 -82.5t54.5 -101t22 -126q0 -193 -155 -319.5t-406 -126.5q-222 0 -367 89.5t-145 227.5q0 112 88.5 192.5t249.5 129.5q-59 32 -103 66t-83 80t-59.5 106t-20.5 131q0 199 137 323.5
t365 124.5q190 0 314 -80.5t124 -210.5q0 -97 -76.5 -169t-236.5 -130z" />
    <glyph glyph-name="nine" unicode="9" horiz-adv-x="1202" 
d="M614 664q98 0 177 73q10 92 10 178q0 500 -217 500q-88 0 -143.5 -111t-55.5 -288q0 -162 59.5 -257t169.5 -95zM582 1454q247 0 403 -164.5t156 -427.5q0 -162 -60 -303t-161 -242.5t-235 -176t-281.5 -113.5t-299.5 -45l-2 14q286 29 464.5 202t219.5 502
q-153 -147 -364 -147q-173 0 -279 106t-106 285q0 144 70 260.5t195 183t280 66.5z" />
    <glyph glyph-name="colon" unicode=":" horiz-adv-x="520" 
d="M258 1143q77 0 128.5 -50.5t51.5 -123.5q0 -75 -51.5 -128t-128.5 -53q-74 0 -125 53.5t-51 127.5q0 73 51 123.5t125 50.5zM258 -12q-74 0 -125 51t-51 123q0 74 51 127t125 53q77 0 128.5 -52.5t51.5 -127.5q0 -73 -51.5 -123.5t-128.5 -50.5z" />
    <glyph glyph-name="semicolon" unicode=";" horiz-adv-x="528" 
d="M82 -256l-4 12q94 46 142 102t48 115q0 56 -52 110.5t-136 80.5q0 76 52.5 127t123.5 51q83 0 134.5 -56.5t51.5 -142.5q0 -127 -95 -236t-265 -163zM262 1143q77 0 127.5 -50.5t50.5 -123.5q0 -75 -50.5 -128t-127.5 -53q-74 0 -125 53.5t-51 127.5q0 73 51 123.5
t125 50.5z" />
    <glyph glyph-name="less" unicode="&#x3c;" horiz-adv-x="948" 
d="M111 731v21l690 428v-222l-373 -215l373 -221v-221z" />
    <glyph glyph-name="equal" unicode="=" horiz-adv-x="1259" 
d="M160 483v181h942v-181h-942zM160 831v179h942v-179h-942z" />
    <glyph glyph-name="greater" unicode="&#x3e;" horiz-adv-x="948" 
d="M838 752v-21l-691 -430v221l371 221l-371 215v222z" />
    <glyph glyph-name="question" unicode="?" horiz-adv-x="802" 
d="M315 1454q199 0 330 -102t131 -256q0 -143 -122 -268t-351 -187l-16 -139h-21l-49 428q104 24 187 65t131 87t73 92t25 86q0 52 -35.5 85t-101.5 33q-85 0 -200.5 -59t-223.5 -158q-33 62 -33 119q0 85 70 129.5t206 44.5zM303 342q77 0 127.5 -52.5t50.5 -127.5
q0 -73 -50.5 -123.5t-127.5 -50.5q-75 0 -125.5 51t-50.5 123q0 74 51 127t125 53z" />
    <glyph glyph-name="at" unicode="@" horiz-adv-x="2174" 
d="M872 211q27 0 61 20.5t82 78.5t98 147t111 242t119 348q-68 65 -133 65q-75 0 -153 -93.5t-133 -222.5t-90 -261t-35 -213q0 -111 73 -111zM2126 831q0 -99 -25.5 -194t-77 -186t-137.5 -168.5t-199 -138t-269 -98.5t-341 -46l217 799q-69 -195 -139.5 -342.5
t-132.5 -236.5t-127 -144.5t-119 -75.5t-112 -20q-56 0 -97.5 21.5t-64 59.5t-33 84t-10.5 103q0 136 42.5 270t120.5 246.5t180.5 200t229.5 137t260 49.5q105 0 215 -37l199 37h4l-266 -999q95 3 173.5 26t135 60t100 88.5t71 109t44.5 125.5t24 133t7 137
q0 314 -199.5 501.5t-548.5 187.5q-233 0 -435.5 -88.5t-343 -240t-220.5 -357.5t-80 -437q0 -382 210 -596.5t599 -214.5q188 0 372 51t330 148l21 -29q-141 -98 -333 -153.5t-394 -55.5q-277 0 -485.5 100t-325.5 295.5t-117 463.5q0 194 62 372.5t174 319t260.5 245
t329 160.5t372.5 56q258 0 459 -93t310.5 -258.5t109.5 -376.5z" />
    <glyph glyph-name="A" unicode="A" horiz-adv-x="1394" 
d="M766 518l-238 647l-206 -647h444zM1409 43l41 -6v-37h-662v37l48 6q58 7 72 29t-5 69l-123 336h-471l-106 -334q-14 -50 8.5 -71.5t99.5 -28.5l64 -6v-37h-385v37l39 6q55 8 82.5 29.5t40.5 70.5l409 1291h227l496 -1295q17 -43 45 -64t80 -32z" />
    <glyph glyph-name="B" unicode="B" horiz-adv-x="1400" 
d="M559 719v-676h162q150 0 215 81.5t65 256.5q0 179 -60.5 258.5t-199.5 79.5h-182zM952 1094q0 157 -63 227t-199 70h-131v-631h125q139 0 203.5 81.5t64.5 252.5zM897 748q199 -19 327 -113.5t128 -235.5q0 -174 -150 -286.5t-393 -112.5h-768v37l53 6q58 6 85.5 28.5
t27.5 75.5v1139q0 53 -27.5 76t-85.5 29l-53 6v37h702q258 0 404.5 -86.5t146.5 -249.5q0 -125 -115 -225t-282 -125z" />
    <glyph glyph-name="C" unicode="C" horiz-adv-x="1390" 
d="M840 -18q-165 0 -307.5 50t-248 142.5t-165.5 233t-60 311.5q0 136 41 254t114 205.5t172.5 150t218.5 94t249 31.5q234 0 446 -108l21 -367h-21q-23 81 -62 155t-93.5 139t-130.5 103.5t-162 38.5q-121 0 -217 -90q-95 -93 -148 -249.5t-53 -352.5q0 -314 123 -509.5
t322 -195.5q155 0 273 119.5t151 317.5h18v-365q-243 -108 -481 -108z" />
    <glyph glyph-name="D" unicode="D" horiz-adv-x="1554" 
d="M567 1393v-1352h138q187 0 301 185.5t114 490.5q0 307 -113.5 491.5t-301.5 184.5h-138zM41 1397v37h647q373 0 590 -191.5t217 -525.5q0 -331 -217.5 -524t-589.5 -193h-647v37l53 6q58 6 85.5 28.5t27.5 75.5v1139q0 53 -27.5 76t-85.5 29z" />
    <glyph glyph-name="E" unicode="E" horiz-adv-x="1292" 
d="M1235 471h27l-66 -471h-1155v37l53 6q58 6 85.5 28.5t27.5 75.5v1139q0 53 -27.5 76t-85.5 29l-53 6v37h1067l72 -449l-23 -6q-30 83 -70.5 152t-98.5 130.5t-138 96.5t-174 35h-117v-650h90q91 0 146 68t88 213h20v-602h-20q-23 147 -78.5 213.5t-155.5 66.5h-90v-661
h125q112 0 197 21t156 69.5t120 132.5t78 207z" />
    <glyph glyph-name="F" unicode="F" horiz-adv-x="1208" 
d="M41 1434h1081l66 -449l-25 -6q-63 200 -182.5 307t-292.5 107h-129v-668h105q94 0 152 64t89 217h21v-603h-21q-23 155 -79.5 218t-161.5 63h-105v-537q0 -52 36 -74t114 -30l65 -6v-37h-733v37l53 6q58 6 85.5 28.5t27.5 75.5v1139q0 53 -27.5 76t-85.5 29l-53 6v37z
" />
    <glyph glyph-name="G" unicode="G" horiz-adv-x="1474" 
d="M836 651v37h634v-37l-47 -8q-53 -6 -77.5 -28.5t-24.5 -73.5v-451q-243 -108 -481 -108q-165 0 -307.5 50t-248 142.5t-165.5 233t-60 311.5q0 136 41 254t114 205.5t172.5 150t218.5 94t249 31.5q234 0 446 -108l21 -367h-21q-23 81 -62 155t-93.5 139t-130.5 103.5
t-162 38.5q-121 0 -217 -90q-95 -93 -148 -249.5t-53 -352.5q0 -314 123 -509.5t322 -195.5q59 0 122 29v494q0 51 -27 73.5t-85 28.5z" />
    <glyph glyph-name="H" unicode="H" horiz-adv-x="1671" 
d="M1628 1397l-51 -6q-60 -8 -86.5 -30t-26.5 -75v-1139q0 -53 26.5 -74.5t86.5 -29.5l51 -6v-37h-682v37l51 6q59 6 86 28.5t27 75.5v578h-551v-578q0 -52 27 -74t86 -30l53 -6v-37h-684v37l53 6q58 6 85.5 28.5t27.5 75.5v1139q0 53 -27.5 76t-85.5 29l-53 6v37h684v-37
l-53 -6q-59 -8 -86 -30.5t-27 -74.5v-520h551v520q0 53 -27 76t-86 29l-51 6v37h682v-37z" />
    <glyph glyph-name="I" unicode="I" horiz-adv-x="765" 
d="M725 0h-684v37l53 6q59 8 86 30t27 74v1139q0 52 -27 74.5t-86 30.5l-53 6v37h684v-37l-53 -6q-59 -8 -86 -30.5t-27 -74.5v-1139q0 -52 27 -74t86 -30l53 -6v-37z" />
    <glyph glyph-name="J" unicode="J" horiz-adv-x="743" 
d="M-33 -389q-87 0 -134.5 53.5t-35 127t81.5 126.5q90 -120 145.5 -169.5t94.5 -49.5q33 0 54.5 34t21.5 87v1466q0 53 -27 76t-86 29l-51 6v37h684v-37l-51 -6q-60 -8 -86.5 -30t-26.5 -75v-1083q0 -101 -52.5 -208.5t-134.5 -191.5t-188.5 -138t-208.5 -54z" />
    <glyph glyph-name="K" unicode="K" horiz-adv-x="1542" 
d="M559 1286v-1139q0 -52 27 -74t86 -30l53 -6v-37h-684v37l53 6q59 8 86 30t27 74v1139q0 52 -27 74.5t-86 30.5l-53 6v37h684v-37l-53 -6q-59 -8 -86 -30.5t-27 -74.5zM1251 1317l-338 -354l643 -949v-14h-411l-498 760l543 559q41 41 -3 58q-24 9 -73 14l-70 6v37h463
v-37l-55 -6q-146 -16 -201 -74z" />
    <glyph glyph-name="L" unicode="L" horiz-adv-x="1247" 
d="M1202 483l25 -6l-66 -477h-1120v37l53 6q58 6 85.5 28.5t27.5 75.5v1139q0 53 -27.5 76t-85.5 29l-53 6v37h684v-37l-53 -6q-59 -8 -86 -30.5t-27 -74.5v-1243h152q102 0 183.5 31t139.5 91t98.5 138t69.5 180z" />
    <glyph glyph-name="M" unicode="M" horiz-adv-x="1843" 
d="M1812 43l52 -6v-37h-686v37l53 6q58 8 82 29.5t18 74.5l-112 1084l-334 -1231h-226l-323 1227l-111 -1080q-6 -53 23.5 -74.5t101.5 -29.5l62 -6v-37h-432v37l55 6q67 8 99 30t38 74l121 1139q4 53 -23 75t-92 30l-55 6v37h516l291 -1053l291 1053h501v-37l-51 -6
q-59 -8 -83.5 -30t-18.5 -75l119 -1139q6 -52 35 -74t89 -30z" />
    <glyph glyph-name="N" unicode="N" horiz-adv-x="1490" 
d="M1055 1397v37h411v-37l-57 -6q-65 -8 -94 -30t-29 -75v-1286h-250l-778 1231v-1084q0 -52 30 -74t95 -30l57 -6v-37h-411v37l57 6q64 6 93.5 28.5t29.5 75.5v1139q0 53 -26 76t-83 29l-51 6v37h483l705 -1069v921q0 53 -30.5 76t-94.5 29z" />
    <glyph glyph-name="O" unicode="O" horiz-adv-x="1531" 
d="M766 18q160 0 246 178t86 521q0 345 -86 521.5t-246 176.5q-158 0 -245 -177.5t-87 -520.5q0 -341 87.5 -520t244.5 -179zM766 1454q152 0 282.5 -54t223.5 -150t145.5 -233.5t52.5 -299.5t-52.5 -299.5t-145.5 -233.5t-223.5 -150t-282.5 -54q-207 0 -368.5 96
t-249 263.5t-87.5 377.5q0 206 85 373t247 265.5t373 98.5z" />
    <glyph glyph-name="P" unicode="P" horiz-adv-x="1349" 
d="M973 1016q0 194 -78.5 288.5t-214.5 94.5h-121v-791h103q151 0 231 102t80 306zM705 571h-146v-424q0 -52 36 -74t114 -30l69 -6v-37h-737v37l53 6q58 6 85.5 28.5t27.5 75.5v1139q0 53 -27.5 76t-85.5 29l-53 6v37h676q292 0 451 -110t159 -308q0 -206 -163 -325.5
t-459 -119.5z" />
    <glyph glyph-name="Q" unicode="Q" horiz-adv-x="1531" 
d="M432 717q0 -341 87.5 -520t244.5 -179q160 0 246 178t86 521q0 345 -86 521.5t-246 176.5q-158 0 -245 -177.5t-87 -520.5zM2028 -213l8 -10q-105 -80 -248.5 -123t-357.5 -43q-145 0 -303.5 38t-310.5 106.5t-289.5 170t-241.5 221t-165 268t-61 302.5q0 206 85.5 373
t247.5 265.5t372 98.5q208 0 369.5 -95t249 -262.5t87.5 -379.5q0 -264 -135.5 -453.5t-359.5 -251.5q82 -135 283.5 -218t427.5 -83q208 0 342 76z" />
    <glyph glyph-name="R" unicode="R" horiz-adv-x="1470" 
d="M664 1393h-105v-736h113q145 0 219 94t74 275q0 367 -301 367zM1036 672l465 -656v-16h-403l-404 616h-135v-469q0 -52 27 -74t86 -30l53 -6v-37h-684v37l53 6q59 8 86 30t27 74v1139q0 52 -27 74.5t-86 30.5l-53 6v37h623q308 0 482.5 -100.5t174.5 -278.5
q0 -125 -74.5 -226.5t-210.5 -156.5z" />
    <glyph glyph-name="S" unicode="S" horiz-adv-x="1161" 
d="M557 -20q-116 0 -236.5 29t-214.5 83l-36 342h20q98 -187 239.5 -302.5t270.5 -115.5q106 0 170 59.5t64 162.5q0 156 -146 247q-47 29 -121 62t-134.5 57t-127 62.5t-112 80.5t-75.5 109t-30 150q0 136 71 239t191 156t268 53q211 0 396 -90l28 -340h-22
q-77 188 -191.5 290.5t-240.5 102.5q-106 0 -171 -58t-65 -145q0 -40 11.5 -75t29 -61.5t47.5 -51t59 -42t70.5 -37.5t75 -33t81 -32.5t79.5 -33.5q65 -31 112.5 -63t90.5 -78.5t65.5 -110t22.5 -143.5q0 -216 -153 -344.5t-386 -128.5z" />
    <glyph glyph-name="T" unicode="T" horiz-adv-x="1413" 
d="M90 1434h1231l65 -469l-22 -2q-60 199 -178.5 314.5t-245.5 115.5h-57v-1246q0 -52 38.5 -74t120.5 -30l72 -6v-37h-815v37l72 6q83 6 121 28.5t38 75.5v1246h-57q-127 0 -245 -115t-181 -315l-22 2z" />
    <glyph glyph-name="U" unicode="U" horiz-adv-x="1449" 
d="M739 -20q-257 0 -409 144t-152 394v768q0 53 -24.5 76t-77.5 29l-47 6v37h667v-37l-51 -6q-60 -8 -86.5 -30t-26.5 -75v-786q0 -202 91 -313t262 -111q161 0 249.5 110t88.5 306v794q0 53 -29.5 76t-93.5 29l-56 6v37h410v-37l-57 -6q-65 -8 -95 -30.5t-30 -74.5v-794
q0 -241 -141 -376.5t-392 -135.5z" />
    <glyph glyph-name="V" unicode="V" horiz-adv-x="1335" 
d="M991 1397v37h375v-37l-37 -6q-41 -7 -68 -28t-44 -71l-435 -1292h-196l-496 1292q-19 50 -41.5 71t-52.5 28l-27 6v37h613v-37l-52 -6q-59 -8 -76 -27.5t1 -71.5l366 -993l342 993q18 51 -7 71t-99 28z" />
    <glyph glyph-name="W" unicode="W" horiz-adv-x="2027" 
d="M1673 1397v37h391v-37l-39 -6q-46 -8 -74 -29.5t-44 -71.5l-367 -1290h-205l-354 1110l-248 -1110h-223l-414 1292q-16 49 -36.5 69.5t-51.5 29.5l-24 6v37h610v-37l-51 -6q-58 -8 -76.5 -28.5t-5.5 -72.5l284 -987l252 1131h250l328 -1139l278 995q16 52 -10 72.5
t-102 28.5z" />
    <glyph glyph-name="X" unicode="X" horiz-adv-x="1470" 
d="M1470 43l37 -6v-37h-694v37l51 6q57 6 68.5 23.5t-17.5 64.5l-299 473l-333 -477q-16 -22 -18 -36.5t12.5 -24t38.5 -14.5t67 -9l78 -6v-37h-471v37l53 6q133 15 180 84l365 520l-414 656q-44 73 -143 88l-37 6v37h694v-37l-53 -6q-56 -8 -67 -24t16 -64l247 -392
l283 396q24 29 18 46.5t-31.5 25.5t-80.5 12l-76 6v37h469v-37l-53 -6q-71 -8 -115.5 -27.5t-73.5 -56.5l-311 -441l467 -735q40 -66 143 -88z" />
    <glyph glyph-name="Y" unicode="Y" horiz-adv-x="1392" 
d="M1014 1397v37h395v-37l-39 -6q-54 -8 -87 -29t-56 -64l-340 -657v-494q0 -52 30 -74t95 -30l57 -6v-37h-715v37l56 6q66 8 95.5 29.5t29.5 74.5v486l-420 670q-46 72 -113 88l-25 6v37h652v-37l-54 -6q-57 -8 -68.5 -24t15.5 -64l352 -576l302 571q24 47 1.5 66t-98.5 27
z" />
    <glyph glyph-name="Z" unicode="Z" horiz-adv-x="1255" 
d="M1184 518h24l-80 -518h-1116v25l797 1366h-197q-178 0 -306 -102t-214 -316l-22 4l65 457h1071v-25l-776 -1366h193q100 0 180.5 22.5t139 61.5t105 100.5t78 130.5t58.5 160z" />
    <glyph glyph-name="bracketleft" unicode="[" horiz-adv-x="731" 
d="M428 1348v-1407q0 -32 9.5 -53t23.5 -33.5t47 -19.5t62.5 -10t88.5 -7v-107h-485v1866h485v-107q-37 -2 -57.5 -3.5t-47.5 -4.5t-40.5 -7t-31 -10t-25 -14.5t-16 -20t-11 -27t-2.5 -35.5z" />
    <glyph glyph-name="backslash" unicode="\" horiz-adv-x="905" 
d="M635 -248l-557 1825h219l557 -1825h-219z" />
    <glyph glyph-name="bracketright" unicode="]" horiz-adv-x="731" 
d="M303 -59v1407q0 20 -2.5 35.5t-11 27t-16 20t-25 14.5t-31 10t-40.5 7t-47.5 4.5t-57.5 3.5v107h485v-1866h-485v107q59 4 88.5 7t62.5 10t47 19.5t23.5 33.5t9.5 53z" />
    <glyph glyph-name="asciicircum" unicode="^" horiz-adv-x="1003" 
d="M379 1577h246l297 -594h-240l-180 385l-180 -385h-240z" />
    <glyph glyph-name="underscore" unicode="_" horiz-adv-x="901" 
d="M860 -346h-819v211h819v-211z" />
    <glyph glyph-name="grave" unicode="`" 
d="M160 1575v4h426l71 -342h-8z" />
    <glyph glyph-name="a" unicode="a" horiz-adv-x="1075" 
d="M451 139q80 0 157 84v244q-45 10 -73 10q-86 0 -141.5 -56t-55.5 -142q0 -66 29.5 -103t83.5 -37zM1087 152l7 -9q-19 -54 -65.5 -92.5t-97 -54.5t-100.5 -16q-102 0 -162.5 53.5t-60.5 150.5v9q-125 -213 -332 -213q-111 0 -179 65.5t-68 165.5q0 127 142.5 207
t436.5 104v264q0 57 -14 102t-36 72.5t-51 45.5t-56.5 25t-55.5 7q-84 0 -108.5 -88t-3.5 -288q-94 -11 -154.5 30.5t-60.5 102.5q0 75 88.5 159t226 140.5t266.5 56.5q284 0 281 -346l-8 -621q0 -27 11 -39t42 -12t112 19z" />
    <glyph glyph-name="b" unicode="b" horiz-adv-x="1251" 
d="M584 12q123 0 194.5 143t71.5 400q0 236 -62 343.5t-186 107.5q-80 0 -160 -60v-893q77 -41 142 -41zM795 1151q179 0 290 -132t111 -378q0 -305 -163.5 -483t-448.5 -178q-213 0 -465 114v1319l-133 113v4l452 129h4v-680q146 172 353 172z" />
    <glyph glyph-name="c" unicode="c" horiz-adv-x="1036" 
d="M549 -20q-222 0 -359 152t-137 400q0 180 75 321.5t206.5 219.5t296.5 78q171 0 268.5 -73t97.5 -167q0 -67 -57 -112.5t-162 -46.5q-6 54 -11.5 94t-14 81.5t-20.5 70t-27.5 51.5t-37.5 34t-49 11q-101 0 -165 -124.5t-64 -318.5q0 -213 87.5 -338t244.5 -125
q84 0 157 36.5t121 107.5l13 -6q-42 -157 -171.5 -251.5t-291.5 -94.5z" />
    <glyph glyph-name="d" unicode="d" horiz-adv-x="1282" 
d="M649 125q79 0 160 59v895q-79 39 -139 39q-124 0 -196.5 -142.5t-72.5 -400.5q0 -235 63 -342.5t185 -107.5zM1223 78h41l6 -37l-461 -61v172q-144 -172 -350 -172q-179 0 -291.5 132.5t-112.5 376.5q0 308 163.5 485t449.5 177q64 0 141 -12v274l-133 113v4l452 129h5
v-1491q0 -53 21.5 -71.5t68.5 -18.5z" />
    <glyph glyph-name="e" unicode="e" horiz-adv-x="1058" 
d="M594 1110q-83 0 -133.5 -97t-61.5 -257h349q-1 184 -38.5 269t-115.5 85zM1020 309l12 -8q-51 -146 -176 -233.5t-283 -87.5q-231 0 -375.5 158t-144.5 415q0 258 152.5 428t382.5 170q198 0 309 -120.5t111 -315.5h-613v-51q0 -234 97.5 -357t257.5 -123q76 0 149 32.5
t121 92.5z" />
    <glyph glyph-name="f" unicode="f" horiz-adv-x="696" 
d="M737 1638q116 0 170 -43t54 -110q0 -46 -38.5 -95t-99.5 -71q-24 106 -97.5 177t-147.5 71q-101 0 -124 -105.5t33 -331.5h213v-40h-208v-943q0 -52 27 -74t87 -30l51 -6v-37h-622v37l41 6q47 6 69.5 28.5t22.5 75.5v943h-141v40l143 17q8 128 89 242t209.5 181.5
t268.5 67.5z" />
    <glyph glyph-name="g" unicode="g" horiz-adv-x="1130" 
d="M553 1120q-154 0 -154 -297q0 -305 154 -305t154 305q0 297 -154 297zM526 -346q165 0 269 69.5t104 174.5q0 59 -40 90.5t-132 31.5h-360q-7 0 -64 5q-86 -59 -86 -164q0 -94 82.5 -150.5t226.5 -56.5zM360 324h398q180 0 265 -73t85 -198q0 -126 -82.5 -226.5
t-232 -158t-338.5 -57.5q-203 0 -337 60.5t-134 164.5q0 74 70.5 126t191.5 73q-87 24 -136 82t-49 131q0 89 66 163t180 119q-102 42 -161.5 118t-59.5 173q0 151 130.5 240.5t336.5 89.5q84 0 166 -16q24 74 55 124.5t66 76t67.5 36t69.5 10.5q63 0 99 -34t36 -80
q0 -39 -19.5 -81.5t-54.5 -74.5q-124 80 -180 80q-53 0 -100 -68q123 -36 192.5 -114t69.5 -187q0 -154 -130.5 -245t-336.5 -91q-113 0 -211 31q-104 -58 -104 -125q0 -69 122 -69z" />
    <glyph glyph-name="h" unicode="h" horiz-adv-x="1312" 
d="M1253 43l41 -6v-37h-573v37l39 6q40 6 59 29t19 75v656q0 87 -40.5 135.5t-117.5 48.5q-109 0 -199 -90v-750q0 -52 19 -74t59 -30l39 -6v-37h-573v37l41 6q47 6 68.5 28.5t21.5 75.5v1266l-131 113v4l452 129h4v-721q131 213 367 213q156 0 235.5 -97t79.5 -272v-635
q0 -53 21 -74.5t69 -29.5z" />
    <glyph glyph-name="i" unicode="i" horiz-adv-x="641" 
d="M618 0h-589v37l41 6q48 8 69 29.5t21 74.5v758l-131 113v4l452 129h4v-1004q0 -52 22.5 -74t70.5 -30l40 -6v-37zM324 1247q-78 0 -129.5 48.5t-51.5 121.5q0 75 51.5 124.5t129.5 49.5t127 -49.5t49 -124.5q0 -74 -49 -122t-127 -48z" />
    <glyph glyph-name="j" unicode="j" horiz-adv-x="591" 
d="M-35 -389q-84 0 -129 39.5t-45 99.5q0 40 22 81.5t64 72.5q51 -100 102 -153.5t95 -53.5q37 0 55 38t18 138v1032l-131 113v4l453 129h4v-942q0 -115 -74 -255t-195 -241.5t-239 -101.5zM328 1247q-75 0 -126.5 48.5t-51.5 121.5q0 75 51.5 124.5t126.5 49.5
q78 0 128 -49.5t50 -124.5q0 -74 -50 -122t-128 -48z" />
    <glyph glyph-name="k" unicode="k" horiz-adv-x="1263" 
d="M481 1659v-1512q0 -53 21 -74.5t69 -29.5l41 -6v-37h-587v37l41 6q47 6 68.5 28.5t21.5 75.5v1266l-131 113v4l452 129h4zM1016 1010l-219 -213l497 -781v-16h-372l-375 627l414 393q26 23 32 35t-7.5 19.5t-53.5 12.5l-53 7v36h350v-36l-39 -7q-115 -18 -174 -77z" />
    <glyph glyph-name="l" unicode="l" horiz-adv-x="636" 
d="M612 0h-587v37l41 6q47 6 68.5 28.5t21.5 75.5v1266l-131 113v4l452 129h4v-1512q0 -53 21 -74.5t69 -29.5l41 -6v-37z" />
    <glyph glyph-name="m" unicode="m" horiz-adv-x="2000" 
d="M1942 43l40 -6v-37h-569v37l37 6q39 6 57.5 28.5t18.5 75.5v656q0 87 -41.5 135.5t-116.5 48.5q-99 0 -209 -96q8 -44 8 -109v-635q0 -52 19 -74t59 -30l37 -6v-37h-551v37l37 6q38 7 57 29.5t19 74.5v656q0 87 -41.5 135.5t-116.5 48.5q-97 0 -201 -88v-752
q0 -52 18 -74t58 -30l37 -6v-37h-569v37l41 6q47 6 68.5 28.5t21.5 75.5v758l-131 113v4l452 129h4v-209q151 209 367 209q123 0 198.5 -59t102.5 -170q152 229 381 229q157 0 237 -97.5t80 -271.5v-635q0 -52 21.5 -74t69.5 -30z" />
    <glyph glyph-name="n" unicode="n" horiz-adv-x="1318" 
d="M1260 43l40 -6v-37h-573v37l37 6q41 6 60.5 28.5t19.5 75.5v656q0 87 -41.5 135.5t-116.5 48.5q-109 0 -201 -92v-748q0 -52 19 -74t61 -30l37 -6v-37h-573v37l41 6q47 6 68.5 28.5t21.5 75.5v758l-131 113v4l452 129h4v-215q138 215 367 215q156 0 235.5 -97t79.5 -272
v-635q0 -52 22.5 -74t70.5 -30z" />
    <glyph glyph-name="o" unicode="o" horiz-adv-x="1222" 
d="M610 1151q244 0 401.5 -163.5t157.5 -420.5q0 -260 -157.5 -423.5t-401.5 -163.5t-400.5 163.5t-156.5 423.5q0 257 156.5 420.5t400.5 163.5zM610 14q203 0 203 553q0 549 -203 549q-202 0 -202 -549q0 -553 202 -553z" />
    <glyph glyph-name="p" unicode="p" horiz-adv-x="1280" 
d="M633 1006q-78 0 -160 -60v-895q79 -39 139 -39q123 0 196 143.5t73 399.5q0 235 -63 343t-185 108zM612 -20q-66 0 -139 12v-213q0 -53 29 -75t94 -30l57 -6v-37h-637v37l41 6q47 6 68.5 29t21.5 76v1126l-131 113v4l453 129h4v-170q144 170 350 170q182 0 293 -131.5
t111 -378.5q0 -305 -165 -483t-450 -178z" />
    <glyph glyph-name="q" unicode="q" horiz-adv-x="1257" 
d="M649 125q79 0 160 59v895q-79 39 -139 39q-124 0 -196.5 -142.5t-72.5 -400.5q0 -235 63 -342.5t185 -107.5zM1212 -326l35 -6v-37h-604v37l53 6q58 6 85.5 29t27.5 76v373q-144 -172 -350 -172q-179 0 -291.5 132.5t-112.5 376.5q0 308 163.5 485t449.5 177
q121 0 250 -35l186 35h29v-1372q0 -53 19 -75t60 -30z" />
    <glyph glyph-name="r" unicode="r" horiz-adv-x="948" 
d="M797 1151q74 0 111.5 -39t37.5 -100q0 -100 -82 -170q-137 90 -209 90q-48 0 -93.5 -64t-76.5 -163v-558q0 -53 31.5 -75.5t99.5 -28.5l60 -6v-37h-647v37l41 6q48 8 69 29.5t21 74.5v758l-131 113v4l452 129h4v-346q95 346 312 346z" />
    <glyph glyph-name="s" unicode="s" horiz-adv-x="966" 
d="M457 -20q-96 0 -197.5 27t-179.5 79l-12 299h20q69 -155 178.5 -257.5t231.5 -102.5q78 0 128 48.5t50 123.5q0 49 -27.5 88t-76.5 67t-101 50.5t-119 52.5t-112 59q-154 94 -154 270q0 87 36 158t98 116t143.5 69t173.5 24q170 0 313 -70l6 -299h-20q-57 160 -144.5 245
t-193.5 85q-74 0 -122 -46t-48 -118q0 -54 32 -94.5t83 -66t112.5 -49t123.5 -53t113 -67.5t83 -102t32 -149q0 -176 -126.5 -281.5t-323.5 -105.5z" />
    <glyph glyph-name="t" unicode="t" horiz-adv-x="731" 
d="M735 164l8 -12q-44 -77 -123 -123.5t-174 -46.5q-142 0 -220.5 78t-78.5 221v809h-139v20l436 246h29v-226h232v-40h-232v-826q0 -70 36.5 -103.5t92.5 -33.5q74 0 133 37z" />
    <glyph glyph-name="u" unicode="u" horiz-adv-x="1308" 
d="M1284 78l6 -37l-463 -61v213q-144 -213 -364 -213q-156 0 -236 97t-80 271v615q0 53 -21.5 71.5t-68.5 18.5h-41l-6 37l461 61v-823q0 -87 41.5 -136t116.5 -49q94 0 198 90v730q0 53 -20.5 71.5t-67.5 18.5h-43l-4 37l461 61v-983q0 -53 21.5 -71.5t68.5 -18.5h41z" />
    <glyph glyph-name="v" unicode="v" horiz-adv-x="1122" 
d="M793 1094v36h350v-36l-35 -7q-43 -9 -70 -29t-43 -69l-331 -989h-166l-404 991q-19 47 -41.5 68t-52.5 28l-25 7v36h588v-36l-51 -7q-61 -8 -75.5 -26.5t3.5 -69.5l269 -706l237 704q19 52 -4.5 71.5t-89.5 26.5z" />
    <glyph glyph-name="w" unicode="w" horiz-adv-x="1699" 
d="M1372 1094v36h354v-36l-34 -7q-42 -7 -68.5 -28t-42.5 -72l-301 -987h-166l-283 860l-210 -860h-183l-338 989q-17 49 -38 69t-52 29l-24 7v36h528v-36l-33 -7q-38 -8 -47 -27t4 -73l207 -678l199 821h237l240 -825l209 682q17 52 -5.5 72t-92.5 28z" />
    <glyph glyph-name="x" unicode="x" horiz-adv-x="1140" 
d="M1145 43l35 -6v-37h-648v37l52 6q61 7 71.5 25.5t-16.5 62.5l-174 305l-203 -307q-27 -44 -19.5 -62t56.5 -24l45 -6v-37h-326v37l41 6q103 16 148 86l229 356l-295 514q-47 72 -127 88l-30 7v36h594v-36l-43 -7q-48 -7 -54 -27t21 -61l172 -292l182 292q29 47 21.5 64.5
t-56.5 23.5l-41 7v36h299v-36l-37 -7q-91 -16 -135 -88l-209 -335l314 -533q45 -71 133 -88z" />
    <glyph glyph-name="y" unicode="y" horiz-adv-x="1126" 
d="M795 1094v36h352v-36l-35 -7q-42 -9 -70 -29t-47 -67l-379 -1005q-42 -110 -84.5 -184.5t-84.5 -113t-79.5 -54t-80.5 -15.5q-74 0 -130.5 44.5t-56.5 121.5q0 62 41 127q128 -69 187 -95t90 -26q46 0 77 42.5t68 146.5l-467 1013q-35 76 -100 94l-25 7v36h590v-36
l-51 -7q-57 -8 -70.5 -25.5t4.5 -68.5l261 -631l239 629q18 49 -2 68.5t-88 27.5z" />
    <glyph glyph-name="z" unicode="z" horiz-adv-x="1048" 
d="M100 1130h910v-26l-607 -1063h150q185 0 271.5 80.5t142.5 298.5h20l-49 -420h-909v25l614 1067h-172q-144 0 -229.5 -80t-159.5 -281l-21 4z" />
    <glyph glyph-name="braceleft" unicode="{" horiz-adv-x="804" 
d="M102 608v74q170 35 170 205v428q0 262 461 262v-84q-53 -7 -94 -26.5t-70.5 -64.5t-29.5 -110v-418q0 -102 -40.5 -149.5t-146.5 -79.5q106 -32 146.5 -79.5t40.5 -149.5v-418q0 -65 29.5 -110t70.5 -64.5t94 -26.5v-86q-461 0 -461 262v430q0 170 -170 205z" />
    <glyph glyph-name="bar" unicode="|" horiz-adv-x="618" 
d="M414 1577v-1866h-209v1866h209z" />
    <glyph glyph-name="braceright" unicode="}" horiz-adv-x="804" 
d="M702 682v-74q-170 -35 -170 -205v-430q0 -262 -460 -262v86q53 7 94 26.5t70.5 64.5t29.5 110v418q0 102 40.5 149.5t146.5 79.5q-106 32 -146.5 79.5t-40.5 149.5v418q0 65 -29.5 110t-70.5 64.5t-94 26.5v84q460 0 460 -262v-428q0 -170 170 -205z" />
    <glyph glyph-name="asciitilde" unicode="~" horiz-adv-x="1046" 
d="M729 539q-48 0 -94 19t-83 46.5t-71.5 55t-74 46.5t-76.5 19q-51 0 -91 -19.5t-66.5 -49t-57.5 -78.5l-33 24q95 164 248 164q47 0 92 -19t80.5 -46.5t70.5 -55t75.5 -46.5t80.5 -19q65 0 113 37t96 112l31 -27q-95 -163 -240 -163z" />
    <glyph glyph-name="uni00A0" unicode="&#xa0;" horiz-adv-x="407" 
 />
    <glyph glyph-name="exclamdown" unicode="&#xa1;" horiz-adv-x="503" 
d="M102 -12l148 622h12l135 -622q22 -87 18 -147t-32.5 -96.5t-62.5 -52.5t-72 -16t-72 16t-62.5 52.5t-31.5 96.5t20 147zM254 1143q77 0 127.5 -50.5t50.5 -123.5q0 -75 -50.5 -128t-127.5 -53q-74 0 -125 53.5t-51 127.5q0 73 51 123.5t125 50.5z" />
    <glyph glyph-name="cent" unicode="&#xa2;" horiz-adv-x="1083" 
d="M412 811q0 -159 48.5 -270t139.5 -158v864q-85 -26 -136.5 -145.5t-51.5 -290.5zM1022 492l12 -7q-38 -140 -144.5 -231.5t-248.5 -110.5v-303h-41v299h-27q-222 0 -359.5 152.5t-137.5 400.5q0 256 147.5 427t376.5 190v299h41v-297h14q170 0 267.5 -72.5t97.5 -167.5
q0 -67 -56.5 -113t-160.5 -47q-7 58 -13 94.5t-15 81t-20 70.5t-26.5 50.5t-37 35t-48.5 10.5h-2v-888q56 -17 102 -17q87 0 160 36t119 108z" />
    <glyph glyph-name="sterling" unicode="&#xa3;" horiz-adv-x="1284" 
d="M1233 477h22l-133 -477h-1003v20q301 240 301 377q0 80 -66 176h-278v41h252q-71 104 -105 168h-147v41h131q-29 79 -29 156q0 90 30.5 167t84 133t126 96t157.5 59.5t178 19.5q185 0 358 -78v-350h-20q-44 160 -158 272.5t-248 112.5q-96 0 -156.5 -65.5t-60.5 -178.5
q0 -43 15.5 -92t32.5 -81.5t49.5 -88.5t45.5 -82h408v-41h-387q45 -85 45 -168h342v-41h-344q-16 -174 -244 -280h404q140 0 247 47.5t150 136.5z" />
    <glyph glyph-name="currency" unicode="&#xa4;" horiz-adv-x="1101" 
d="M242 719q0 -136 85 -220.5t222 -84.5q139 0 223 84t82 221q0 137 -84 221t-221 84t-222 -84.5t-85 -220.5zM895 719q0 -145 -82 -236l238 -235l-31 -29l-236 236q-91 -82 -235 -82q-142 0 -234 80l-233 -234l-31 29l234 231q-84 104 -84 240q0 141 84 237l-234 232l31 29
l231 -232q92 80 236 80q142 0 237 -82l234 234l31 -29l-236 -234q80 -92 80 -235z" />
    <glyph glyph-name="yen" unicode="&#xa5;" horiz-adv-x="1419" 
d="M979 1397v37h420v-37l-47 -6q-60 -8 -96.5 -28.5t-59.5 -66.5l-287 -610h346v-41h-364l-4 -8v-205h368v-41h-368v-244q0 -52 29 -74t94 -30l57 -6v-37h-715v37l58 6q64 6 93 28.5t29 75.5v244h-368v41h368v213h-368v41h350l-358 614q-39 73 -111 91l-25 6v37h639v-37
l-53 -6q-56 -8 -68.5 -25.5t11.5 -65.5l321 -573l275 569q23 48 0 68.5t-98 26.5z" />
    <glyph glyph-name="brokenbar" unicode="&#xa6;" horiz-adv-x="376" 
d="M213 -240h-49v744h49v-744zM213 854h-49v743h49v-743z" />
    <glyph glyph-name="section" unicode="&#xa7;" horiz-adv-x="1433" 
d="M1055 6q88 76 88 172q0 51 -24 102.5t-65.5 97t-95.5 92t-115 91.5t-122 90.5t-118.5 94t-104 97t-78.5 104.5t-41 112q-79 -70 -87 -159t50 -165q46 -65 121 -130.5t197.5 -155t170.5 -127.5q96 -78 153.5 -154.5t70.5 -161.5zM1372 387q0 -112 -83 -222.5t-230 -197.5
v-8q0 -142 -123.5 -245t-327.5 -103q-138 0 -190 49q-53 47 -53 100q0 54 38.5 101.5t100.5 70.5q37 -124 93.5 -197t127.5 -73q106 0 106 115q0 42 -28.5 89t-82.5 96.5t-113 95.5t-137 103q-16 11 -24 17q-83 60 -145 113.5t-120 118t-89 132.5t-31 136q0 111 84.5 221.5
t229.5 198.5v8q0 142 123 245t327 103q140 0 193 -47q51 -48 51 -102q0 -51 -39 -100t-100 -72q-37 124 -93.5 197t-127.5 73q-107 0 -107 -115q0 -43 29.5 -90.5t85 -97.5t115 -96t139.5 -104q11 -7 16 -11q66 -49 116.5 -90t103.5 -93.5t87 -100.5t56 -105t22 -113z" />
    <glyph glyph-name="dieresis" unicode="&#xa8;" 
d="M389 1266q-72 0 -120 45t-48 112q0 72 48 119t120 47q73 0 120.5 -47t47.5 -119q0 -68 -47.5 -112.5t-120.5 -44.5zM842 1266q-73 0 -121.5 44.5t-48.5 112.5q0 72 48 119t122 47q72 0 119 -47t47 -119q0 -68 -47 -112.5t-119 -44.5z" />
    <glyph glyph-name="copyright" unicode="&#xa9;" horiz-adv-x="1794" 
d="M897 -57q167 0 311 56.5t247 157.5t161.5 246.5t58.5 317.5q0 230 -100.5 408.5t-277.5 275t-400 96.5t-399.5 -96.5t-276.5 -274.5t-100 -409q0 -172 58.5 -317.5t161 -246.5t246 -157.5t310.5 -56.5zM942 279q-137 0 -250.5 53.5t-181.5 155.5t-68 233
q0 132 66.5 233.5t180.5 155t255 53.5q156 0 287 -61l4 -234h-16q-27 108 -99 180t-147 72q-91 0 -138 -101.5t-47 -293.5q0 -403 207 -403q80 0 146.5 71.5t83.5 181.5h16v-233q-154 -63 -299 -63zM897 -94q-233 0 -418 100t-291 286.5t-106 428.5q0 179 61.5 331
t169.5 257t259 164t325 59q236 0 421.5 -101t290.5 -286t105 -424q0 -242 -105 -428t-290.5 -286.5t-421.5 -100.5z" />
    <glyph glyph-name="ordfeminine" unicode="&#xaa;" horiz-adv-x="872" 
d="M373 649q55 0 106 51v201q-27 6 -49 6q-63 0 -102 -41.5t-39 -107.5q0 -51 22.5 -80t61.5 -29zM883 653l4 -10q-27 -67 -91 -100t-130 -33q-84 0 -135.5 44t-51.5 124q-99 -168 -258 -168q-86 0 -142 54.5t-56 133.5q0 99 111 164.5t345 83.5v203q0 57 -16.5 99.5
t-42 64.5t-52 32.5t-51.5 10.5q-65 0 -83.5 -72.5t2.5 -236.5q-79 -10 -132 25t-53 87q0 64 73.5 132.5t185.5 113.5t216 45q117 0 177.5 -72t56.5 -213l-8 -491q0 -16 7.5 -24.5t28.5 -8.5q43 0 95 12z" />
    <glyph glyph-name="guillemotleft" unicode="&#xab;" horiz-adv-x="983" 
d="M485 119l-2 -2l-417 434v4l417 434l2 -2l-131 -434zM883 119l-2 -2l-418 434v4l418 434l2 -2l-131 -434z" />
    <glyph glyph-name="uni00AD" unicode="&#xad;" horiz-adv-x="622" 
d="M578 696h-533v41h533v-41z" />
    <glyph glyph-name="registered" unicode="&#xae;" horiz-adv-x="1097" 
d="M549 592q185 0 310.5 121t125.5 311t-126.5 310t-311.5 120q-119 0 -217.5 -53t-157.5 -152t-59 -225q0 -190 125.5 -311t310.5 -121zM535 1243h-23v-207h29q75 0 75 107q0 100 -81 100zM549 1485q200 0 334.5 -127.5t134.5 -333.5t-134.5 -334.5t-334.5 -128.5
q-198 0 -333.5 129t-135.5 334q0 136 63.5 242.5t170 162.5t235.5 56zM758 1149q0 -84 -92 -119l135 -188v-23h-156l-110 193h-23v-135q0 -30 35 -33h14v-25h-233v25h14q37 3 37 33v333q0 31 -37 31l-14 2v23h207q106 0 164.5 -31t58.5 -86z" />
    <glyph glyph-name="macron" unicode="&#xaf;" 
d="M915 1331h-600v41h600v-41z" />
    <glyph glyph-name="degree" unicode="&#xb0;" horiz-adv-x="688" 
d="M344 909q-108 0 -188 76t-80 193q0 122 79.5 199t188.5 77q111 0 189.5 -77t78.5 -199q0 -117 -79 -193t-189 -76zM344 950q90 0 157.5 64t67.5 164q0 103 -67.5 169t-157.5 66t-157.5 -66t-67.5 -169q0 -100 67.5 -164t157.5 -64z" />
    <glyph glyph-name="plusminus" unicode="&#xb1;" horiz-adv-x="1044" 
d="M541 397h-43v324h-404v45h404v328h43v-328h411v-45h-411v-324zM72 156v41h901v-41h-901z" />
    <glyph glyph-name="twosuperior" unicode="&#xb2;" horiz-adv-x="710" 
d="M590 573h-592v31q201 215 277.5 340t76.5 219q0 70 -34.5 107t-88.5 37q-55 0 -103 -33.5t-77 -95.5l-18 10q27 82 87.5 142.5t130.5 88t142 27.5q100 0 165 -55t65 -150q0 -116 -108.5 -228t-311.5 -227v-2h202q185 0 238 105h25z" />
    <glyph glyph-name="threesuperior" unicode="&#xb3;" horiz-adv-x="684" 
d="M254 561q-108 0 -171 38.5t-63 92.5q0 57 58 101q46 -77 114.5 -133t124.5 -56q86 0 86 121q0 101 -79 160t-215 49l-9 24q115 62 173.5 131t58.5 136q0 46 -29.5 72t-73.5 26q-52 0 -99.5 -34.5t-76.5 -96.5l-20 10q25 73 87.5 130t137 85.5t145.5 28.5q77 0 127 -36.5
t50 -106.5q0 -147 -283 -250l2 -6q159 8 248.5 -52t89.5 -147q0 -52 -25.5 -102t-72 -92t-121 -67.5t-164.5 -25.5z" />
    <glyph glyph-name="acute" unicode="&#xb4;" 
d="M643 1579h426v-4l-489 -338h-9z" />
    <glyph glyph-name="paragraph" unicode="&#xb6;" horiz-adv-x="1343" 
d="M711 1434h600v-43h-191v-1735h-55v1735h-303v-1735h-55v795q-319 1 -498.5 134.5t-179.5 368.5q0 226 180.5 353t501.5 127z" />
    <glyph glyph-name="periodcentered" unicode="&#xb7;" horiz-adv-x="475" 
d="M236 565q-74 0 -124.5 50.5t-50.5 123.5q0 74 50.5 127.5t124.5 53.5q77 0 128.5 -53t51.5 -128q0 -73 -51.5 -123.5t-128.5 -50.5z" />
    <glyph glyph-name="cedilla" unicode="&#xb8;" 
d="M651 10l-53 -88q102 -24 161.5 -66.5t59.5 -119.5q0 -57 -35.5 -102t-93 -70t-121.5 -38t-129 -13q-50 0 -73 4l-19 80q115 -41 178 -41q54 0 86.5 25t32.5 69q0 47 -45 79.5t-149 51.5l145 229h55z" />
    <glyph glyph-name="onesuperior" unicode="&#xb9;" horiz-adv-x="526" 
d="M500 573h-475v35l55 4q61 3 61 50v573q0 33 -11.5 41t-47.5 8h-72v29l352 133h19v-784q0 -44 63 -50l56 -4v-35z" />
    <glyph glyph-name="ordmasculine" unicode="&#xba;" horiz-adv-x="989" 
d="M494 1450q198 0 327 -130.5t129 -338.5t-128 -339.5t-328 -131.5q-198 0 -326.5 131.5t-128.5 339.5t128.5 338.5t326.5 130.5zM494 537q77 0 112 109t35 335q0 228 -35 335t-112 107t-110.5 -106.5t-33.5 -335.5q0 -231 33.5 -337.5t110.5 -106.5z" />
    <glyph glyph-name="guillemotright" unicode="&#xbb;" horiz-adv-x="983" 
d="M520 551l-418 -434l-2 2l131 434l-131 434l2 2l418 -434v-4zM918 551l-418 -434l-2 2l131 434l-131 434l2 2l418 -434v-4z" />
    <glyph glyph-name="onequarter" unicode="&#xbc;" horiz-adv-x="1566" 
d="M1430 260h102v-39h-102v-133q0 -43 53 -49l41 -4v-35h-428v35l41 4q53 3 53 49v133h-342l-17 33l343 606h227v-14l-520 -586h309v275l240 63v-338zM25 573v35l55 4q61 3 61 50v573q0 33 -11.5 41t-47.5 8h-72v29l352 133h19v-784q0 -44 63 -50l56 -4v-35h-475zM344 -23
l-35 23l879 1456l33 -22z" />
    <glyph glyph-name="onehalf" unicode="&#xbd;" horiz-adv-x="1626" 
d="M1581 315l-76 -315h-592v31q201 216 278 340.5t77 218.5q0 70 -34.5 106.5t-88.5 36.5q-55 0 -103 -33.5t-77 -95.5l-19 10q27 82 87.5 142.5t131 88t142.5 27.5q100 0 164.5 -54.5t64.5 -149.5q0 -116 -108.5 -228t-311.5 -227v-2h203q185 0 237 104h25zM500 608v-35
h-475v35l55 4q61 3 61 50v573q0 33 -11.5 41t-47.5 8h-72v29l352 133h19v-784q0 -44 63 -50zM1188 1456l33 -22l-877 -1457l-35 23z" />
    <glyph glyph-name="threequarters" unicode="&#xbe;" horiz-adv-x="1658" 
d="M637 844q0 -52 -25.5 -102t-72 -92t-121 -67.5t-164.5 -25.5q-107 0 -170.5 39.5t-63.5 93.5t58 98q45 -77 114 -131.5t125 -54.5q86 0 86 119q0 101 -79 160t-215 49l-9 24q115 62 173.5 131t58.5 138q0 46 -29 71t-74 25q-52 0 -99.5 -34.5t-76.5 -96.5l-20 12
q38 108 148 175t222 67q77 0 127 -37t50 -107q0 -81 -75 -140t-208 -109l2 -7q174 9 254 -53q84 -66 84 -145zM436 -23l-35 23l879 1456l33 -22zM1522 260h102v-39h-102v-133q0 -43 53 -49l41 -4v-35h-428v35l41 4q53 3 53 49v133h-342l-16 33l342 606h227v-14l-520 -586
h309v275l240 63v-338z" />
    <glyph glyph-name="questiondown" unicode="&#xbf;" horiz-adv-x="796" 
d="M731 -31q31 -58 31 -119q0 -83 -71 -128.5t-206 -45.5q-199 0 -328.5 102.5t-129.5 256.5q0 143 121 267.5t350 186.5l18 140h21l49 -428q-104 -24 -187 -64t-132 -86t-74 -92.5t-25 -87.5q0 -52 36 -85.5t101 -33.5q85 0 200.5 58.5t225.5 158.5zM500 788
q-75 0 -128 53.5t-53 127.5q0 72 53 123t128 51q74 0 125 -50.5t51 -123.5q0 -74 -51 -127.5t-125 -53.5z" />
    <glyph glyph-name="Agrave" unicode="&#xc0;" horiz-adv-x="1394" 
d="M766 518l-238 647l-206 -647h444zM1409 43l41 -6v-37h-662v37l48 6q58 7 72 29t-5 69l-123 336h-471l-106 -334q-14 -50 8.5 -71.5t99.5 -28.5l64 -6v-37h-385v37l39 6q55 8 82.5 29.5t40.5 70.5l409 1291h227l496 -1295q17 -43 45 -64t80 -32zM250 1858h426l72 -342h-9
l-489 337v5z" />
    <glyph glyph-name="Aacute" unicode="&#xc1;" horiz-adv-x="1394" 
d="M766 518l-238 647l-206 -647h444zM1409 43l41 -6v-37h-662v37l48 6q58 7 72 29t-5 69l-123 336h-471l-106 -334q-14 -50 8.5 -71.5t99.5 -28.5l64 -6v-37h-385v37l39 6q55 8 82.5 29.5t40.5 70.5l409 1291h227l496 -1295q17 -43 45 -64t80 -32zM692 1860h426v-5
l-487 -337h-8z" />
    <glyph glyph-name="Acircumflex" unicode="&#xc2;" horiz-adv-x="1394" 
d="M766 518l-238 647l-206 -647h444zM1409 43l41 -6v-37h-662v37l48 6q58 7 72 29t-5 69l-123 336h-471l-106 -334q-14 -50 8.5 -71.5t99.5 -28.5l64 -6v-37h-385v37l39 6q55 8 82.5 29.5t40.5 70.5l409 1291h227l496 -1295q17 -43 45 -64t80 -32zM1020 1522l-6 -11
l-328 119l-330 -119l-6 7l334 358h4z" />
    <glyph glyph-name="Atilde" unicode="&#xc3;" horiz-adv-x="1394" 
d="M766 518l-238 647l-206 -647h444zM1409 43l41 -6v-37h-662v37l48 6q58 7 72 29t-5 69l-123 336h-471l-106 -334q-14 -50 8.5 -71.5t99.5 -28.5l64 -6v-37h-385v37l39 6q55 8 82.5 29.5t40.5 70.5l409 1291h227l496 -1295q17 -43 45 -64t80 -32zM467 1634
q-40 0 -66.5 -16.5t-52.5 -50.5l-10 2q18 128 73.5 201t151.5 73q55 0 125.5 -30t135 -59.5t106.5 -29.5q44 0 70 18.5t49 55.5l10 -2q-11 -117 -71.5 -194.5t-158.5 -77.5q-56 0 -125.5 27.5t-133 55t-103.5 27.5z" />
    <glyph glyph-name="Adieresis" unicode="&#xc4;" horiz-adv-x="1394" 
d="M766 518l-238 647l-206 -647h444zM1409 43l41 -6v-37h-662v37l48 6q58 7 72 29t-5 69l-123 336h-471l-106 -334q-14 -50 8.5 -71.5t99.5 -28.5l64 -6v-37h-385v37l39 6q55 8 82.5 29.5t40.5 70.5l409 1291h227l496 -1295q17 -43 45 -64t80 -32zM461 1565
q-73 0 -120.5 44.5t-47.5 112.5q0 72 47.5 119t120.5 47q72 0 119 -47t47 -119q0 -68 -47 -112.5t-119 -44.5zM911 1565q-72 0 -120 45t-48 112q0 72 48 119t120 47q73 0 120.5 -47t47.5 -119q0 -68 -47.5 -112.5t-120.5 -44.5z" />
    <glyph glyph-name="Aring" unicode="&#xc5;" horiz-adv-x="1394" 
d="M766 518l-238 647l-206 -647h444zM684 1878q-70 0 -114 -43.5t-44 -114.5q0 -69 44.5 -112t113.5 -43q72 0 117 43t45 112q0 72 -45 115t-117 43zM1409 43l41 -6v-37h-662v37l48 6q58 7 72 29t-5 69l-123 336h-471l-106 -334q-14 -50 8.5 -71.5t99.5 -28.5l64 -6v-37
h-385v37l39 6q55 8 82.5 29.5t40.5 70.5l409 1291h227l496 -1295q17 -43 45 -64t80 -32zM684 1518q-92 0 -149.5 55.5t-57.5 146.5q0 92 57.5 148.5t149.5 56.5q97 0 155 -56.5t58 -148.5q0 -91 -58.5 -146.5t-154.5 -55.5z" />
    <glyph glyph-name="AE" unicode="&#xc6;" horiz-adv-x="2027" 
d="M940 731v572l-360 -572h360zM1970 471h25l-66 -471h-1153v37l51 6q59 6 86 28.5t27 75.5v543h-385l-352 -559q-28 -43 -11.5 -62t93.5 -26l63 -6v-37h-393v37l41 6q58 11 90 29t57 57l779 1225q-26 34 -95 37l-51 6v37h1065l72 -449l-23 -6q-28 82 -68.5 152t-98 131
t-138 96t-174.5 35h-117v-650h88q92 0 147.5 68t88.5 213h20v-602h-20q-23 147 -78.5 213.5t-157.5 66.5h-88v-661h123q112 0 197.5 21t157 69.5t120.5 133t78 206.5z" />
    <glyph glyph-name="Ccedilla" unicode="&#xc7;" horiz-adv-x="1390" 
d="M879 18q155 0 273 119.5t151 317.5h18v-365q-243 -108 -481 -108h-43l-37 -60q102 -24 161.5 -66.5t59.5 -119.5q0 -57 -35.5 -102t-93 -70t-121.5 -38t-129 -13q-51 0 -74 4l-18 80q115 -41 178 -41q54 0 86.5 25t32.5 69q0 95 -195 131l129 205q-313 31 -497.5 229.5
t-184.5 503.5q0 136 41 254t114 205.5t172.5 150t218.5 94t249 31.5q234 0 446 -108l21 -367h-21q-23 81 -62 155t-93.5 139t-130.5 103.5t-162 38.5q-121 0 -217 -90q-95 -93 -148 -249.5t-53 -352.5q0 -314 123 -509.5t322 -195.5z" />
    <glyph glyph-name="Egrave" unicode="&#xc8;" horiz-adv-x="1292" 
d="M1235 471h27l-66 -471h-1155v37l53 6q58 6 85.5 28.5t27.5 75.5v1139q0 53 -27.5 76t-85.5 29l-53 6v37h1067l72 -449l-23 -6q-30 83 -70.5 152t-98.5 130.5t-138 96.5t-174 35h-117v-650h90q91 0 146 68t88 213h20v-602h-20q-23 147 -78.5 213.5t-155.5 66.5h-90v-661
h125q112 0 197 21t156 69.5t120 132.5t78 207zM651 1858l70 -342h-8l-488 337v5h426z" />
    <glyph glyph-name="Eacute" unicode="&#xc9;" horiz-adv-x="1292" 
d="M1235 471h27l-66 -471h-1155v37l53 6q58 6 85.5 28.5t27.5 75.5v1139q0 53 -27.5 76t-85.5 29l-53 6v37h1067l72 -449l-23 -6q-30 83 -70.5 152t-98.5 130.5t-138 96.5t-174 35h-117v-650h90q91 0 146 68t88 213h20v-602h-20q-23 147 -78.5 213.5t-155.5 66.5h-90v-661
h125q112 0 197 21t156 69.5t120 132.5t78 207zM1114 1860v-5l-489 -337h-9l72 342h426z" />
    <glyph glyph-name="Ecircumflex" unicode="&#xca;" horiz-adv-x="1292" 
d="M1235 471h27l-66 -471h-1155v37l53 6q58 6 85.5 28.5t27.5 75.5v1139q0 53 -27.5 76t-85.5 29l-53 6v37h1067l72 -449l-23 -6q-30 83 -70.5 152t-98.5 130.5t-138 96.5t-174 35h-117v-650h90q91 0 146 68t88 213h20v-602h-20q-23 147 -78.5 213.5t-155.5 66.5h-90v-661
h125q112 0 197 21t156 69.5t120 132.5t78 207zM987 1511l-328 119l-327 -119l-6 7l331 358h5l331 -354z" />
    <glyph glyph-name="Edieresis" unicode="&#xcb;" horiz-adv-x="1292" 
d="M1235 471h27l-66 -471h-1155v37l53 6q58 6 85.5 28.5t27.5 75.5v1139q0 53 -27.5 76t-85.5 29l-53 6v37h1067l72 -449l-23 -6q-30 83 -70.5 152t-98.5 130.5t-138 96.5t-174 35h-117v-650h90q91 0 146 68t88 213h20v-602h-20q-23 147 -78.5 213.5t-155.5 66.5h-90v-661
h125q112 0 197 21t156 69.5t120 132.5t78 207zM436 1565q-73 0 -121.5 44.5t-48.5 112.5q0 72 48 119t122 47q72 0 119 -47t47 -119q0 -68 -47 -112.5t-119 -44.5zM887 1565q-73 0 -120.5 44.5t-47.5 112.5q0 72 47.5 119t120.5 47q72 0 119 -47t47 -119q0 -68 -47 -112.5
t-119 -44.5z" />
    <glyph glyph-name="Igrave" unicode="&#xcc;" horiz-adv-x="765" 
d="M725 0h-684v37l53 6q59 8 86 30t27 74v1139q0 52 -27 74.5t-86 30.5l-53 6v37h684v-37l-53 -6q-59 -8 -86 -30.5t-27 -74.5v-1139q0 -52 27 -74t86 -30l53 -6v-37zM-10 1853v5h426l71 -342h-8z" />
    <glyph glyph-name="Iacute" unicode="&#xcd;" horiz-adv-x="765" 
d="M725 0h-684v37l53 6q59 8 86 30t27 74v1139q0 52 -27 74.5t-86 30.5l-53 6v37h684v-37l-53 -6q-59 -8 -86 -30.5t-27 -74.5v-1139q0 -52 27 -74t86 -30l53 -6v-37zM391 1860h426v-5l-487 -337h-8z" />
    <glyph glyph-name="Icircumflex" unicode="&#xce;" horiz-adv-x="765" 
d="M725 0h-684v37l53 6q59 8 86 30t27 74v1139q0 52 -27 74.5t-86 30.5l-53 6v37h684v-37l-53 -6q-59 -8 -86 -30.5t-27 -74.5v-1139q0 -52 27 -74t86 -30l53 -6v-37zM385 1630l-330 -119l-6 7l334 358h4l332 -354l-6 -11z" />
    <glyph glyph-name="Idieresis" unicode="&#xcf;" horiz-adv-x="765" 
d="M725 0h-684v37l53 6q59 8 86 30t27 74v1139q0 52 -27 74.5t-86 30.5l-53 6v37h684v-37l-53 -6q-59 -8 -86 -30.5t-27 -74.5v-1139q0 -52 27 -74t86 -30l53 -6v-37zM610 1565q-72 0 -120 45t-48 112q0 72 48 119t120 47q73 0 120.5 -47t47.5 -119q0 -68 -47.5 -112.5
t-120.5 -44.5zM160 1565q-73 0 -120.5 44.5t-47.5 112.5q0 72 47.5 119t120.5 47q72 0 119 -47t47 -119q0 -68 -47 -112.5t-119 -44.5z" />
    <glyph glyph-name="Eth" unicode="&#xd0;" horiz-adv-x="1556" 
d="M567 694v-653h138q187 0 301 185.5t114 490.5q0 307 -113.5 491.5t-301.5 184.5h-138v-654h250v-45h-250zM43 1397v37h647q373 0 589 -191.5t216 -525.5q0 -331 -216.5 -524t-588.5 -193h-647v37l51 6q59 6 86 28.5t27 75.5v547h-146v45h146v547q0 53 -27 76t-86 29z" />
    <glyph glyph-name="Ntilde" unicode="&#xd1;" horiz-adv-x="1490" 
d="M1055 1397v37h411v-37l-57 -6q-65 -8 -94 -30t-29 -75v-1286h-250l-778 1231v-1084q0 -52 30 -74t95 -30l57 -6v-37h-411v37l57 6q64 6 93.5 28.5t29.5 75.5v1139q0 53 -26 76t-83 29l-51 6v37h483l705 -1069v921q0 53 -30.5 76t-94.5 29zM557 1634q-40 0 -66.5 -16.5
t-52.5 -50.5l-10 2q18 128 73.5 201t151.5 73q55 0 125.5 -30t135 -59.5t106.5 -29.5q44 0 71 19t48 55l10 -2q-11 -117 -71 -194.5t-158 -77.5q-56 0 -126 27.5t-133.5 55t-103.5 27.5z" />
    <glyph glyph-name="Ograve" unicode="&#xd2;" horiz-adv-x="1531" 
d="M766 18q160 0 246 178t86 521q0 345 -86 521.5t-246 176.5q-158 0 -245 -177.5t-87 -520.5q0 -341 87.5 -520t244.5 -179zM766 1454q152 0 282.5 -54t223.5 -150t145.5 -233.5t52.5 -299.5t-52.5 -299.5t-145.5 -233.5t-223.5 -150t-282.5 -54q-207 0 -368.5 96
t-249 263.5t-87.5 377.5q0 206 85 373t247 265.5t373 98.5zM840 1516l-488 337v5h426l70 -342h-8z" />
    <glyph glyph-name="Oacute" unicode="&#xd3;" horiz-adv-x="1531" 
d="M766 18q160 0 246 178t86 521q0 345 -86 521.5t-246 176.5q-158 0 -245 -177.5t-87 -520.5q0 -341 87.5 -520t244.5 -179zM766 1454q152 0 282.5 -54t223.5 -150t145.5 -233.5t52.5 -299.5t-52.5 -299.5t-145.5 -233.5t-223.5 -150t-282.5 -54q-207 0 -368.5 96
t-249 263.5t-87.5 377.5q0 206 85 373t247 265.5t373 98.5zM702 1518l72 342h426v-5l-489 -337h-9z" />
    <glyph glyph-name="Ocircumflex" unicode="&#xd4;" horiz-adv-x="1531" 
d="M766 18q160 0 246 178t86 521q0 345 -86 521.5t-246 176.5q-158 0 -245 -177.5t-87 -520.5q0 -341 87.5 -520t244.5 -179zM766 1454q152 0 282.5 -54t223.5 -150t145.5 -233.5t52.5 -299.5t-52.5 -299.5t-145.5 -233.5t-223.5 -150t-282.5 -54q-207 0 -368.5 96
t-249 263.5t-87.5 377.5q0 206 85 373t247 265.5t373 98.5zM1094 1511l-328 119l-330 -119l-6 7l334 358h4l332 -354z" />
    <glyph glyph-name="Otilde" unicode="&#xd5;" horiz-adv-x="1531" 
d="M766 18q160 0 246 178t86 521q0 345 -86 521.5t-246 176.5q-158 0 -245 -177.5t-87 -520.5q0 -341 87.5 -520t244.5 -179zM766 1454q152 0 282.5 -54t223.5 -150t145.5 -233.5t52.5 -299.5t-52.5 -299.5t-145.5 -233.5t-223.5 -150t-282.5 -54q-207 0 -368.5 96
t-249 263.5t-87.5 377.5q0 206 85 373t247 265.5t373 98.5zM909 1524q-56 0 -125.5 27.5t-133 55t-103.5 27.5t-66.5 -16.5t-52.5 -50.5l-10 2q18 128 73.5 201t151.5 73q55 0 126 -30t136 -59.5t107 -29.5q73 0 116 74l11 -2q-11 -117 -71.5 -194.5t-158.5 -77.5z" />
    <glyph glyph-name="Odieresis" unicode="&#xd6;" horiz-adv-x="1531" 
d="M766 18q160 0 246 178t86 521q0 345 -86 521.5t-246 176.5q-158 0 -245 -177.5t-87 -520.5q0 -341 87.5 -520t244.5 -179zM766 1454q152 0 282.5 -54t223.5 -150t145.5 -233.5t52.5 -299.5t-52.5 -299.5t-145.5 -233.5t-223.5 -150t-282.5 -54q-207 0 -368.5 96
t-249 263.5t-87.5 377.5q0 206 85 373t247 265.5t373 98.5zM541 1565q-72 0 -120 45t-48 112q0 72 48 119t120 47q73 0 120.5 -47t47.5 -119q0 -68 -47.5 -112.5t-120.5 -44.5zM993 1565q-73 0 -121.5 44.5t-48.5 112.5q0 72 48 119t122 47q72 0 119 -47t47 -119
q0 -68 -47 -112.5t-119 -44.5z" />
    <glyph glyph-name="multiply" unicode="&#xd7;" horiz-adv-x="927" 
d="M496 664l374 -375l-32 -33l-375 375l-375 -377l-31 35l373 375l-373 372l33 35l375 -375l373 375l30 -35z" />
    <glyph glyph-name="Oslash" unicode="&#xd8;" horiz-adv-x="1568" 
d="M1116 717q0 161 -18 284l-619 -616q71 -367 305 -367q160 0 246 178t86 521zM453 717q0 -158 18 -281l616 619q-35 179 -112.5 269.5t-190.5 90.5q-158 0 -244.5 -177t-86.5 -521zM1286 1253l178 179l31 -31l-180 -180q174 -192 174 -504q0 -155 -49.5 -290t-139.5 -234
t-223.5 -156t-292.5 -57q-303 0 -505 202l-179 -178l-28 31l178 180q-172 204 -172 502q0 162 53.5 299.5t147 233.5t224 150t281.5 54q307 0 502 -201z" />
    <glyph glyph-name="Ugrave" unicode="&#xd9;" horiz-adv-x="1449" 
d="M739 -20q-257 0 -409 144t-152 394v768q0 53 -24.5 76t-77.5 29l-47 6v37h667v-37l-51 -6q-60 -8 -86.5 -30t-26.5 -75v-786q0 -202 91 -313t262 -111q161 0 249.5 110t88.5 306v794q0 53 -29.5 76t-93.5 29l-56 6v37h410v-37l-57 -6q-65 -8 -95 -30.5t-30 -74.5v-794
q0 -241 -141 -376.5t-392 -135.5zM403 1853v5h426l70 -342h-8z" />
    <glyph glyph-name="Uacute" unicode="&#xda;" horiz-adv-x="1449" 
d="M739 -20q-257 0 -409 144t-152 394v768q0 53 -24.5 76t-77.5 29l-47 6v37h667v-37l-51 -6q-60 -8 -86.5 -30t-26.5 -75v-786q0 -202 91 -313t262 -111q161 0 249.5 110t88.5 306v794q0 53 -29.5 76t-93.5 29l-56 6v37h410v-37l-57 -6q-65 -8 -95 -30.5t-30 -74.5v-794
q0 -241 -141 -376.5t-392 -135.5zM805 1860h426v-5l-490 -337h-8z" />
    <glyph glyph-name="Ucircumflex" unicode="&#xdb;" horiz-adv-x="1449" 
d="M739 -20q-257 0 -409 144t-152 394v768q0 53 -24.5 76t-77.5 29l-47 6v37h667v-37l-51 -6q-60 -8 -86.5 -30t-26.5 -75v-786q0 -202 91 -313t262 -111q161 0 249.5 110t88.5 306v794q0 53 -29.5 76t-93.5 29l-56 6v37h410v-37l-57 -6q-65 -8 -95 -30.5t-30 -74.5v-794
q0 -241 -141 -376.5t-392 -135.5zM838 1630l-330 -119l-6 7l334 358h4l331 -354l-6 -11z" />
    <glyph glyph-name="Udieresis" unicode="&#xdc;" horiz-adv-x="1449" 
d="M739 -20q-257 0 -409 144t-152 394v768q0 53 -24.5 76t-77.5 29l-47 6v37h667v-37l-51 -6q-60 -8 -86.5 -30t-26.5 -75v-786q0 -202 91 -313t262 -111q161 0 249.5 110t88.5 306v794q0 53 -29.5 76t-93.5 29l-56 6v37h410v-37l-57 -6q-65 -8 -95 -30.5t-30 -74.5v-794
q0 -241 -141 -376.5t-392 -135.5zM612 1565q-72 0 -120 45t-48 112q0 72 48 119t120 47q73 0 120.5 -47t47.5 -119q0 -68 -47.5 -112.5t-120.5 -44.5zM1065 1565q-73 0 -121.5 44.5t-48.5 112.5q0 72 48 119t122 47q72 0 119 -47t47 -119q0 -68 -47 -112.5t-119 -44.5z" />
    <glyph glyph-name="Yacute" unicode="&#xdd;" horiz-adv-x="1392" 
d="M1014 1397v37h395v-37l-39 -6q-54 -8 -87 -29t-56 -64l-340 -657v-494q0 -52 30 -74t95 -30l57 -6v-37h-715v37l56 6q66 8 95.5 29.5t29.5 74.5v486l-420 670q-46 72 -113 88l-25 6v37h652v-37l-54 -6q-57 -8 -68.5 -24t15.5 -64l352 -576l302 571q24 47 1.5 66t-98.5 27
zM1208 1860v-5l-487 -337h-8l69 342h426z" />
    <glyph glyph-name="Thorn" unicode="&#xde;" horiz-adv-x="1374" 
d="M680 1112h-121v-790h139q126 0 200.5 104t74.5 305q0 194 -78 287.5t-215 93.5zM705 287h-146v-140q0 -52 36 -74t114 -30l69 -6v-37h-737v37l53 6q58 6 85.5 28.5t27.5 75.5v1139q0 53 -27.5 76t-85.5 29l-53 6v37h737v-37l-69 -6q-78 -8 -114 -30.5t-36 -74.5v-137h158
q292 0 451 -110t159 -308q0 -206 -163 -325t-459 -119z" />
    <glyph glyph-name="germandbls" unicode="&#xdf;" horiz-adv-x="1439" 
d="M1026 995q0 -40 21 -80.5t54.5 -77t74 -75t81.5 -80.5t74.5 -87t54.5 -102t21 -118q0 -173 -117 -284t-293 -111q-139 0 -213.5 47t-74.5 114q0 73 82 125q135 -239 256 -239q57 0 99 42.5t42 114.5q0 43 -21.5 84.5t-55.5 77t-75 72t-82.5 75.5t-75.5 80t-55.5 92.5
t-21.5 106.5q0 88 64 176.5t169 161.5q-19 129 -52 225.5t-73.5 151.5t-83.5 81.5t-90 26.5q-107 0 -171 -125.5t-64 -349.5v-973q0 -52 22 -74t70 -30l41 -6v-37h-623v37l51 6q59 6 86 28.5t27 75.5v920q0 17 2 27h-139v45l145 10q31 225 178.5 357t378.5 132
q201 0 349.5 -110t197.5 -299q-260 -120 -260 -234z" />
    <glyph glyph-name="agrave" unicode="&#xe0;" horiz-adv-x="1075" 
d="M451 139q80 0 157 84v244q-45 10 -73 10q-86 0 -141.5 -56t-55.5 -142q0 -66 29.5 -103t83.5 -37zM1087 152l7 -9q-19 -54 -65.5 -92.5t-97 -54.5t-100.5 -16q-102 0 -162.5 53.5t-60.5 150.5v9q-125 -213 -332 -213q-111 0 -179 65.5t-68 165.5q0 127 142.5 207
t436.5 104v264q0 57 -14 102t-36 72.5t-51 45.5t-56.5 25t-55.5 7q-84 0 -108.5 -88t-3.5 -288q-94 -11 -154.5 30.5t-60.5 102.5q0 75 88.5 159t226 140.5t266.5 56.5q284 0 281 -346l-8 -621q0 -27 11 -39t42 -12t112 19zM172 1579h426l70 -342h-9l-487 338v4z" />
    <glyph glyph-name="aacute" unicode="&#xe1;" horiz-adv-x="1075" 
d="M451 139q80 0 157 84v244q-45 10 -73 10q-86 0 -141.5 -56t-55.5 -142q0 -66 29.5 -103t83.5 -37zM1087 152l7 -9q-19 -54 -65.5 -92.5t-97 -54.5t-100.5 -16q-102 0 -162.5 53.5t-60.5 150.5v9q-125 -213 -332 -213q-111 0 -179 65.5t-68 165.5q0 127 142.5 207
t436.5 104v264q0 57 -14 102t-36 72.5t-51 45.5t-56.5 25t-55.5 7q-84 0 -108.5 -88t-3.5 -288q-94 -11 -154.5 30.5t-60.5 102.5q0 75 88.5 159t226 140.5t266.5 56.5q284 0 281 -346l-8 -621q0 -27 11 -39t42 -12t112 19zM551 1579h426v-4l-490 -338h-6z" />
    <glyph glyph-name="acircumflex" unicode="&#xe2;" horiz-adv-x="1075" 
d="M451 139q80 0 157 84v244q-45 10 -73 10q-86 0 -141.5 -56t-55.5 -142q0 -66 29.5 -103t83.5 -37zM1087 152l7 -9q-19 -54 -65.5 -92.5t-97 -54.5t-100.5 -16q-102 0 -162.5 53.5t-60.5 150.5v9q-125 -213 -332 -213q-111 0 -179 65.5t-68 165.5q0 127 142.5 207
t436.5 104v264q0 57 -14 102t-36 72.5t-51 45.5t-56.5 25t-55.5 7q-84 0 -108.5 -88t-3.5 -288q-94 -11 -154.5 30.5t-60.5 102.5q0 75 88.5 159t226 140.5t266.5 56.5q284 0 281 -346l-8 -621q0 -27 11 -39t42 -12t112 19zM858 1243l-6 -10l-330 119l-327 -119l-7 6
l332 358h4z" />
    <glyph glyph-name="atilde" unicode="&#xe3;" horiz-adv-x="1075" 
d="M451 139q80 0 157 84v244q-45 10 -73 10q-86 0 -141.5 -56t-55.5 -142q0 -66 29.5 -103t83.5 -37zM1087 152l7 -9q-19 -54 -65.5 -92.5t-97 -54.5t-100.5 -16q-102 0 -162.5 53.5t-60.5 150.5v9q-125 -213 -332 -213q-111 0 -179 65.5t-68 165.5q0 127 142.5 207
t436.5 104v264q0 57 -14 102t-36 72.5t-51 45.5t-56.5 25t-55.5 7q-84 0 -108.5 -88t-3.5 -288q-94 -11 -154.5 30.5t-60.5 102.5q0 75 88.5 159t226 140.5t266.5 56.5q284 0 281 -346l-8 -621q0 -27 11 -39t42 -12t112 19zM305 1372q-39 0 -65 -16.5t-52 -50.5l-10 2
q18 128 73.5 201t149.5 73q55 0 126 -30t136 -59.5t107 -29.5q73 0 119 74l8 -2q-8 -115 -69.5 -193.5t-157.5 -78.5q-56 0 -126.5 27.5t-134.5 55t-104 27.5z" />
    <glyph glyph-name="adieresis" unicode="&#xe4;" horiz-adv-x="1075" 
d="M451 139q80 0 157 84v244q-45 10 -73 10q-86 0 -141.5 -56t-55.5 -142q0 -66 29.5 -103t83.5 -37zM1087 152l7 -9q-19 -54 -65.5 -92.5t-97 -54.5t-100.5 -16q-102 0 -162.5 53.5t-60.5 150.5v9q-125 -213 -332 -213q-111 0 -179 65.5t-68 165.5q0 127 142.5 207
t436.5 104v264q0 57 -14 102t-36 72.5t-51 45.5t-56.5 25t-55.5 7q-84 0 -108.5 -88t-3.5 -288q-94 -11 -154.5 30.5t-60.5 102.5q0 75 88.5 159t226 140.5t266.5 56.5q284 0 281 -346l-8 -621q0 -27 11 -39t42 -12t112 19zM299 1266q-73 0 -121.5 44.5t-48.5 112.5
q0 72 48 119t122 47q72 0 119 -47t47 -119q0 -68 -47 -112.5t-119 -44.5zM750 1266q-72 0 -120 45t-48 112q0 72 48 119t120 47t118.5 -47t46.5 -119q0 -68 -46.5 -112.5t-118.5 -44.5z" />
    <glyph glyph-name="aring" unicode="&#xe5;" horiz-adv-x="1075" 
d="M451 139q80 0 157 84v244q-45 10 -73 10q-86 0 -141.5 -56t-55.5 -142q0 -66 29.5 -103t83.5 -37zM522 1608q-70 0 -113.5 -43.5t-43.5 -114.5q0 -69 44 -112.5t113 -43.5q72 0 117 43.5t45 112.5q0 72 -45 115t-117 43zM1087 152l7 -9q-19 -54 -65.5 -92.5t-97 -54.5
t-100.5 -16q-102 0 -162.5 53.5t-60.5 150.5v9q-125 -213 -332 -213q-111 0 -179 65.5t-68 165.5q0 127 142.5 207t436.5 104v264q0 57 -14 102t-36 72.5t-51 45.5t-56.5 25t-55.5 7q-84 0 -108.5 -88t-3.5 -288q-94 -11 -154.5 30.5t-60.5 102.5q0 75 88.5 159t226 140.5
t266.5 56.5q284 0 281 -346l-8 -621q0 -27 11 -39t42 -12t112 19zM522 1247q-92 0 -149.5 56t-57.5 147q0 92 57.5 148.5t149.5 56.5q94 0 152.5 -56.5t58.5 -148.5q0 -91 -58.5 -147t-152.5 -56z" />
    <glyph glyph-name="ae" unicode="&#xe6;" horiz-adv-x="1613" 
d="M475 139q54 0 107 27t96 80q-51 95 -66 219q-62 12 -84 12q-84 0 -137 -56t-53 -140q0 -65 40 -103.5t97 -38.5zM1149 1110q-83 0 -133.5 -97t-61.5 -257h351q-1 183 -39.5 268.5t-116.5 85.5zM1575 309l12 -8q-51 -146 -176 -233.5t-283 -87.5q-141 0 -255 63.5
t-181 177.5q-69 -110 -182 -175.5t-234 -65.5q-109 0 -178 65t-69 156q0 136 141 216.5t438 104.5v264q0 57 -14 102t-36 72.5t-51 45.5t-56.5 25t-55.5 7q-84 0 -108.5 -88t-3.5 -288q-94 -11 -154.5 30.5t-60.5 102.5q0 75 88.5 159t226 140.5t266.5 56.5q139 0 211 -84
q122 84 283 84q198 0 310 -120.5t112 -315.5h-615v-51q0 -234 97.5 -357t257.5 -123q76 0 149 32.5t121 92.5z" />
    <glyph glyph-name="ccedilla" unicode="&#xe7;" horiz-adv-x="1036" 
d="M549 -20h-4l-35 -58q102 -24 161.5 -66.5t59.5 -119.5q0 -66 -44 -113.5t-120 -73.5q-143 -49 -288 -32l-19 80q115 -41 178 -41q55 0 88 25t33 69q0 94 -197 131l127 201q-197 22 -316.5 171.5t-119.5 378.5q0 180 75 321.5t206.5 219.5t296.5 78q171 0 268.5 -73
t97.5 -167q0 -67 -57 -112.5t-162 -46.5q-6 54 -11.5 94t-14 81.5t-20.5 70t-27.5 51.5t-37.5 34t-49 11q-101 0 -165 -124.5t-64 -318.5q0 -213 87.5 -338t244.5 -125q84 0 157 36.5t121 107.5l13 -6q-42 -157 -171.5 -251.5t-291.5 -94.5z" />
    <glyph glyph-name="egrave" unicode="&#xe8;" horiz-adv-x="1058" 
d="M594 1110q-83 0 -133.5 -97t-61.5 -257h349q-1 184 -38.5 269t-115.5 85zM1020 309l12 -8q-51 -146 -176 -233.5t-283 -87.5q-231 0 -375.5 158t-144.5 415q0 258 152.5 428t382.5 170q198 0 309 -120.5t111 -315.5h-613v-51q0 -234 97.5 -357t257.5 -123q76 0 149 32.5
t121 92.5zM170 1579h426l70 -342h-7l-489 338v4z" />
    <glyph glyph-name="eacute" unicode="&#xe9;" horiz-adv-x="1058" 
d="M594 1110q-83 0 -133.5 -97t-61.5 -257h349q-1 184 -38.5 269t-115.5 85zM750 184q76 0 149 32.5t121 92.5l12 -8q-51 -146 -176 -233.5t-283 -87.5q-231 0 -375.5 158t-144.5 415q0 258 152.5 428t382.5 170q198 0 309 -120.5t111 -315.5h-613v-51q0 -234 97.5 -357
t257.5 -123zM549 1237h-8l69 342h426v-4z" />
    <glyph glyph-name="ecircumflex" unicode="&#xea;" horiz-adv-x="1058" 
d="M594 1110q-83 0 -133.5 -97t-61.5 -257h349q-1 184 -38.5 269t-115.5 85zM1020 309l12 -8q-51 -146 -176 -233.5t-283 -87.5q-231 0 -375.5 158t-144.5 415q0 258 152.5 428t382.5 170q198 0 309 -120.5t111 -315.5h-613v-51q0 -234 97.5 -357t257.5 -123q76 0 149 32.5
t121 92.5zM918 1243l-7 -10l-327 119l-330 -119l-6 6l334 358h4z" />
    <glyph glyph-name="edieresis" unicode="&#xeb;" horiz-adv-x="1058" 
d="M594 1110q-83 0 -133.5 -97t-61.5 -257h349q-1 184 -38.5 269t-115.5 85zM1020 309l12 -8q-51 -146 -176 -233.5t-283 -87.5q-231 0 -375.5 158t-144.5 415q0 258 152.5 428t382.5 170q198 0 309 -120.5t111 -315.5h-613v-51q0 -234 97.5 -357t257.5 -123q76 0 149 32.5
t121 92.5zM358 1266q-73 0 -120.5 44.5t-47.5 112.5q0 72 47.5 119t120.5 47q72 0 119 -47t47 -119q0 -68 -47 -112.5t-119 -44.5zM809 1266q-72 0 -120 45t-48 112q0 72 48 119t120 47q73 0 120.5 -47t47.5 -119q0 -68 -47.5 -112.5t-120.5 -44.5z" />
    <glyph glyph-name="igrave" unicode="&#xec;" horiz-adv-x="641" 
d="M618 0h-589v37l41 6q48 8 69 29.5t21 74.5v758l-131 113v4l452 129h4v-1004q0 -52 22.5 -74t70.5 -30l40 -6v-37zM-49 1575v4h426l69 -342h-8z" />
    <glyph glyph-name="iacute" unicode="&#xed;" horiz-adv-x="641" 
d="M618 0h-589v37l41 6q48 8 69 29.5t21 74.5v758l-131 113v4l452 129h4v-1004q0 -52 22.5 -74t70.5 -30l40 -6v-37zM289 1579h426v-4l-490 -338h-8z" />
    <glyph glyph-name="icircumflex" unicode="&#xee;" horiz-adv-x="641" 
d="M618 0h-589v37l41 6q48 8 69 29.5t21 74.5v758l-131 113v4l452 129h4v-1004q0 -52 22.5 -74t70.5 -30l40 -6v-37zM322 1352l-328 -119l-6 6l331 358h5l331 -354l-6 -10z" />
    <glyph glyph-name="idieresis" unicode="&#xef;" horiz-adv-x="641" 
d="M618 0h-589v37l41 6q48 8 69 29.5t21 74.5v758l-131 113v4l452 129h4v-1004q0 -52 22.5 -74t70.5 -30l40 -6v-37zM98 1266q-73 0 -121.5 44.5t-48.5 112.5q0 72 48 119t122 47q72 0 119 -47t47 -119q0 -68 -47 -112.5t-119 -44.5zM549 1266q-73 0 -120.5 44.5
t-47.5 112.5q0 72 47.5 119t120.5 47q72 0 119 -47t47 -119q0 -68 -47 -112.5t-119 -44.5z" />
    <glyph glyph-name="eth" unicode="&#xf0;" horiz-adv-x="1224" 
d="M610 12q105 0 152 132.5t47 418.5q0 288 -47 417.5t-152 129.5q-104 0 -149 -129t-45 -418q0 -287 45.5 -419t148.5 -132zM887 1569l14 -37l-248 -102q241 -150 379.5 -363.5t138.5 -448.5q0 -127 -37 -241t-105.5 -203t-177 -141.5t-241.5 -52.5q-244 0 -400.5 163
t-156.5 420q0 259 149 419.5t384 160.5q101 0 170 -39q-76 165 -205 282l-332 -137l-14 37l313 129q-126 109 -356 203l4 14q250 -60 446 -178z" />
    <glyph glyph-name="ntilde" unicode="&#xf1;" horiz-adv-x="1318" 
d="M1260 43l40 -6v-37h-573v37l37 6q41 6 60.5 28.5t19.5 75.5v656q0 87 -41.5 135.5t-116.5 48.5q-109 0 -201 -92v-748q0 -52 19 -74t61 -30l37 -6v-37h-573v37l41 6q47 6 68.5 28.5t21.5 75.5v758l-131 113v4l452 129h4v-215q138 215 367 215q156 0 235.5 -97t79.5 -272
v-635q0 -52 22.5 -74t70.5 -30zM444 1372q-39 0 -64.5 -16.5t-51.5 -50.5l-11 2q18 128 74 201t150 73q44 0 98.5 -18.5t96.5 -41t90.5 -41t82.5 -18.5q73 0 119 74l8 -2q-8 -115 -69.5 -193.5t-157.5 -78.5q-56 0 -126.5 27.5t-134.5 55t-104 27.5z" />
    <glyph glyph-name="ograve" unicode="&#xf2;" horiz-adv-x="1222" 
d="M610 14q203 0 203 553q0 549 -203 549q-202 0 -202 -549q0 -553 202 -553zM610 1151q244 0 401.5 -163.5t157.5 -420.5q0 -260 -157.5 -423.5t-401.5 -163.5t-400.5 163.5t-156.5 423.5q0 257 156.5 420.5t400.5 163.5zM688 1237l-489 338v4h426l69 -342h-6z" />
    <glyph glyph-name="oacute" unicode="&#xf3;" horiz-adv-x="1222" 
d="M610 14q203 0 203 553q0 549 -203 549q-202 0 -202 -549q0 -553 202 -553zM610 1151q244 0 401.5 -163.5t157.5 -420.5q0 -260 -157.5 -423.5t-401.5 -163.5t-400.5 163.5t-156.5 423.5q0 257 156.5 420.5t400.5 163.5zM549 1237l69 342h426v-4l-487 -338h-8z" />
    <glyph glyph-name="ocircumflex" unicode="&#xf4;" horiz-adv-x="1222" 
d="M610 14q203 0 203 553q0 549 -203 549q-202 0 -202 -549q0 -553 202 -553zM610 1151q244 0 401.5 -163.5t157.5 -420.5q0 -260 -157.5 -423.5t-401.5 -163.5t-400.5 163.5t-156.5 423.5q0 257 156.5 420.5t400.5 163.5zM940 1233l-328 119l-329 -119l-7 6l334 358h4
l332 -354z" />
    <glyph glyph-name="otilde" unicode="&#xf5;" horiz-adv-x="1222" 
d="M610 14q203 0 203 553q0 549 -203 549q-202 0 -202 -549q0 -553 202 -553zM610 1151q244 0 401.5 -163.5t157.5 -420.5q0 -260 -157.5 -423.5t-401.5 -163.5t-400.5 163.5t-156.5 423.5q0 257 156.5 420.5t400.5 163.5zM758 1262q-56 0 -126 27.5t-133.5 55t-103.5 27.5
t-66.5 -16.5t-52.5 -50.5l-10 2q18 128 74 201t152 73q44 0 98 -18.5t96 -41t90 -41t82 -18.5q44 0 70 18.5t49 55.5l10 -2q-11 -117 -71 -194.5t-158 -77.5z" />
    <glyph glyph-name="odieresis" unicode="&#xf6;" horiz-adv-x="1222" 
d="M610 1151q244 0 401.5 -163.5t157.5 -420.5q0 -260 -157.5 -423.5t-401.5 -163.5t-400.5 163.5t-156.5 423.5q0 257 156.5 420.5t400.5 163.5zM610 14q203 0 203 553q0 549 -203 549q-202 0 -202 -549q0 -553 202 -553zM838 1266q-72 0 -120 45t-48 112q0 72 48 119
t120 47q73 0 120.5 -47t47.5 -119q0 -68 -47.5 -112.5t-120.5 -44.5zM387 1266q-73 0 -120.5 44.5t-47.5 112.5q0 72 47.5 119t120.5 47q72 0 119 -47t47 -119q0 -68 -47 -112.5t-119 -44.5z" />
    <glyph glyph-name="divide" unicode="&#xf7;" horiz-adv-x="1044" 
d="M520 111q-75 0 -125.5 51t-50.5 125t51 126t125 52q77 0 128.5 -52t51.5 -126t-51.5 -125t-128.5 -51zM520 862q-75 0 -125.5 51t-50.5 125t51 126.5t125 52.5q77 0 128.5 -52.5t51.5 -126.5t-51.5 -125t-128.5 -51zM973 641h-901v41h901v-41z" />
    <glyph glyph-name="oslash" unicode="&#xf8;" horiz-adv-x="1265" 
d="M432 567q0 -66 4 -168l391 392q-34 325 -194 325q-104 0 -152.5 -135t-48.5 -414zM838 567q0 66 -4 164l-392 -391q35 -326 191 -326q105 0 155 136.5t50 416.5zM1028 993l154 154l32 -33l-153 -156q133 -158 133 -391q0 -259 -158 -423t-403 -164q-238 0 -393 155
l-154 -153l-33 32l156 156q-133 165 -133 397q0 257 156.5 420.5t400.5 163.5q117 0 219 -41t176 -117z" />
    <glyph glyph-name="ugrave" unicode="&#xf9;" horiz-adv-x="1308" 
d="M1284 78l6 -37l-463 -61v213q-144 -213 -364 -213q-156 0 -236 97t-80 271v615q0 53 -21.5 71.5t-68.5 18.5h-41l-6 37l461 61v-823q0 -87 41.5 -136t116.5 -49q94 0 198 90v730q0 53 -20.5 71.5t-67.5 18.5h-43l-4 37l461 61v-983q0 -53 21.5 -71.5t68.5 -18.5h41z
M680 1579l72 -342h-9l-489 338v4h426z" />
    <glyph glyph-name="uacute" unicode="&#xfa;" horiz-adv-x="1308" 
d="M1284 78l6 -37l-463 -61v213q-144 -213 -364 -213q-156 0 -236 97t-80 271v615q0 53 -21.5 71.5t-68.5 18.5h-41l-6 37l461 61v-823q0 -87 41.5 -136t116.5 -49q94 0 198 90v730q0 53 -20.5 71.5t-67.5 18.5h-43l-4 37l461 61v-983q0 -53 21.5 -71.5t68.5 -18.5h41z
M1079 1579v-4l-487 -338h-8l69 342h426z" />
    <glyph glyph-name="ucircumflex" unicode="&#xfb;" horiz-adv-x="1308" 
d="M1284 78l6 -37l-463 -61v213q-144 -213 -364 -213q-156 0 -236 97t-80 271v615q0 53 -21.5 71.5t-68.5 18.5h-41l-6 37l461 61v-823q0 -87 41.5 -136t116.5 -49q94 0 198 90v730q0 53 -20.5 71.5t-67.5 18.5h-43l-4 37l461 61v-983q0 -53 21.5 -71.5t68.5 -18.5h41z
M975 1233l-328 119l-330 -119l-6 6l334 358h4l332 -354z" />
    <glyph glyph-name="udieresis" unicode="&#xfc;" horiz-adv-x="1308" 
d="M1284 78l6 -37l-463 -61v213q-144 -213 -364 -213q-156 0 -236 97t-80 271v615q0 53 -21.5 71.5t-68.5 18.5h-41l-6 37l461 61v-823q0 -87 41.5 -136t116.5 -49q94 0 198 90v730q0 53 -20.5 71.5t-67.5 18.5h-43l-4 37l461 61v-983q0 -53 21.5 -71.5t68.5 -18.5h41z
M874 1266q-73 0 -121 44.5t-48 112.5q0 72 48 119t121 47q72 0 119 -47t47 -119q0 -68 -47 -112.5t-119 -44.5zM422 1266q-72 0 -120 45t-48 112q0 72 48 119t120 47t119 -47t47 -119q0 -68 -47 -112.5t-119 -44.5z" />
    <glyph glyph-name="yacute" unicode="&#xfd;" horiz-adv-x="1126" 
d="M795 1094v36h352v-36l-35 -7q-42 -9 -70 -29t-47 -67l-379 -1005q-42 -110 -84.5 -184.5t-84.5 -113t-79.5 -54t-80.5 -15.5q-74 0 -130.5 44.5t-56.5 121.5q0 62 41 127q128 -69 187 -95t90 -26q46 0 77 42.5t68 146.5l-467 1013q-35 76 -100 94l-25 7v36h590v-36
l-51 -7q-57 -8 -70.5 -25.5t4.5 -68.5l261 -631l239 629q18 49 -2 68.5t-88 27.5zM1042 1579v-4l-489 -338h-6l69 342h426z" />
    <glyph glyph-name="thorn" unicode="&#xfe;" horiz-adv-x="1257" 
d="M608 1006q-79 0 -159 -60v-893q77 -41 141 -41q123 0 194.5 143t71.5 400q0 236 -62 343.5t-186 107.5zM590 -20q-64 0 -141 12v-213q0 -53 29.5 -75t94.5 -30l58 -6v-37h-639v37l41 6q47 6 69.5 29t22.5 76v1634l-133 113v4l452 129h5v-680q146 172 352 172
q179 0 290 -132t111 -378q0 -305 -163.5 -483t-448.5 -178z" />
    <glyph glyph-name="ydieresis" unicode="&#xff;" horiz-adv-x="1126" 
d="M795 1094v36h352v-36l-35 -7q-42 -9 -70 -29t-47 -67l-379 -1005q-42 -110 -84.5 -184.5t-84.5 -113t-79.5 -54t-80.5 -15.5q-74 0 -130.5 44.5t-56.5 121.5q0 62 41 127q128 -69 187 -95t90 -26q46 0 77 42.5t68 146.5l-467 1013q-35 76 -100 94l-25 7v36h590v-36
l-51 -7q-57 -8 -70.5 -25.5t4.5 -68.5l261 -631l239 629q18 49 -2 68.5t-88 27.5zM426 1266q-73 0 -121.5 44.5t-48.5 112.5q0 72 48 119t122 47q72 0 119 -47t47 -119q0 -68 -47 -112.5t-119 -44.5zM877 1266q-72 0 -120 45t-48 112q0 72 48 119t120 47t118.5 -47
t46.5 -119q0 -68 -46.5 -112.5t-118.5 -44.5z" />
    <glyph glyph-name="Amacron" unicode="&#x100;" horiz-adv-x="1394" 
d="M766 518l-238 647l-206 -647h444zM1409 43l41 -6v-37h-662v37l48 6q58 7 72 29t-5 69l-123 336h-471l-106 -334q-14 -50 8.5 -71.5t99.5 -28.5l64 -6v-37h-385v37l39 6q55 8 82.5 29.5t40.5 70.5l409 1291h227l496 -1295q17 -43 45 -64t80 -32zM385 1602v40h600v-40h-600
z" />
    <glyph glyph-name="amacron" unicode="&#x101;" horiz-adv-x="1075" 
d="M451 139q80 0 157 84v244q-45 10 -73 10q-86 0 -141.5 -56t-55.5 -142q0 -66 29.5 -103t83.5 -37zM1087 152l7 -9q-19 -54 -65.5 -92.5t-97 -54.5t-100.5 -16q-102 0 -162.5 53.5t-60.5 150.5v9q-125 -213 -332 -213q-111 0 -179 65.5t-68 165.5q0 127 142.5 207
t436.5 104v264q0 57 -14 102t-36 72.5t-51 45.5t-56.5 25t-55.5 7q-84 0 -108.5 -88t-3.5 -288q-94 -11 -154.5 30.5t-60.5 102.5q0 75 88.5 159t226 140.5t266.5 56.5q284 0 281 -346l-8 -621q0 -27 11 -39t42 -12t112 19zM223 1331v41h600v-41h-600z" />
    <glyph glyph-name="Abreve" unicode="&#x102;" horiz-adv-x="1394" 
d="M766 518l-238 647l-206 -647h444zM1409 43l41 -6v-37h-662v37l48 6q58 7 72 29t-5 69l-123 336h-471l-106 -334q-14 -50 8.5 -71.5t99.5 -28.5l64 -6v-37h-385v37l39 6q55 8 82.5 29.5t40.5 70.5l409 1291h227l496 -1295q17 -43 45 -64t80 -32zM684 1540
q-130 0 -216.5 89.5t-96.5 236.5h6q88 -117 307 -117q218 0 307 125h6q-6 -147 -90 -240.5t-223 -93.5z" />
    <glyph glyph-name="abreve" unicode="&#x103;" horiz-adv-x="1075" 
d="M451 139q80 0 157 84v244q-45 10 -73 10q-86 0 -141.5 -56t-55.5 -142q0 -66 29.5 -103t83.5 -37zM1087 152l7 -9q-19 -54 -65.5 -92.5t-97 -54.5t-100.5 -16q-102 0 -162.5 53.5t-60.5 150.5v9q-125 -213 -332 -213q-111 0 -179 65.5t-68 165.5q0 127 142.5 207
t436.5 104v264q0 57 -14 102t-36 72.5t-51 45.5t-56.5 25t-55.5 7q-84 0 -108.5 -88t-3.5 -288q-94 -11 -154.5 30.5t-60.5 102.5q0 75 88.5 159t226 140.5t266.5 56.5q284 0 281 -346l-8 -621q0 -27 11 -39t42 -12t112 19zM522 1257q-128 0 -214.5 89.5t-96.5 236.5h6
q88 -117 305 -117q220 0 309 125h7q-6 -146 -91.5 -240t-224.5 -94z" />
    <glyph glyph-name="Aogonek" unicode="&#x104;" horiz-adv-x="1394" 
d="M766 518l-238 647l-206 -647h444zM1409 43l41 -6v-37h-485q-76 -89 -107 -140.5t-31 -92.5q0 -43 23.5 -68t71.5 -25q40 0 84 23l4 -4q-42 -67 -109 -104.5t-141 -37.5q-76 0 -121 38.5t-45 97.5q0 74 81 146.5t251 166.5h-138v37l48 6q58 7 72 29t-5 69l-123 336h-471
l-106 -334q-14 -50 8.5 -71.5t99.5 -28.5l64 -6v-37h-385v37l39 6q55 8 82.5 29.5t40.5 70.5l409 1291h227l496 -1295q17 -43 45 -64t80 -32z" />
    <glyph glyph-name="aogonek" unicode="&#x105;" horiz-adv-x="1077" 
d="M451 139q80 0 157 84v244q-45 10 -73 10q-86 0 -141.5 -56t-55.5 -142q0 -66 29.5 -103t83.5 -37zM999 -326q42 0 86 23l2 -4q-41 -67 -107 -104.5t-140 -37.5q-76 0 -121 38.5t-45 97.5q0 61 61 134.5t187 170.5q-50 -12 -91 -12q-102 0 -162.5 53.5t-60.5 150.5v6
q-59 -98 -144.5 -154t-187.5 -56q-111 0 -179 65.5t-68 165.5q0 127 142.5 207t436.5 104v264q0 57 -14 102t-36 72.5t-51 45.5t-56.5 25t-55.5 7q-84 0 -108.5 -88t-3.5 -288q-94 -11 -154.5 30.5t-60.5 102.5q0 75 88.5 159t226 140.5t266.5 56.5q284 0 281 -346l-8 -621
q0 -27 11 -39t42 -12t112 19l7 -9q-8 -15 -60 -98t-89.5 -158.5t-37.5 -119.5q0 -43 23 -68t69 -25z" />
    <glyph glyph-name="Cacute" unicode="&#x106;" horiz-adv-x="1390" 
d="M840 -18q-165 0 -307.5 50t-248 142.5t-165.5 233t-60 311.5q0 136 41 254t114 205.5t172.5 150t218.5 94t249 31.5q234 0 446 -108l21 -367h-21q-23 81 -62 155t-93.5 139t-130.5 103.5t-162 38.5q-121 0 -217 -90q-95 -93 -148 -249.5t-53 -352.5q0 -314 123 -509.5
t322 -195.5q155 0 273 119.5t151 317.5h18v-365q-243 -108 -481 -108zM842 1860h426v-5l-490 -337h-8z" />
    <glyph glyph-name="cacute" unicode="&#x107;" horiz-adv-x="1036" 
d="M549 -20q-222 0 -359 152t-137 400q0 180 75 321.5t206.5 219.5t296.5 78q171 0 268.5 -73t97.5 -167q0 -67 -57 -112.5t-162 -46.5q-6 54 -11.5 94t-14 81.5t-20.5 70t-27.5 51.5t-37.5 34t-49 11q-101 0 -165 -124.5t-64 -318.5q0 -213 87.5 -338t244.5 -125
q84 0 157 36.5t121 107.5l13 -6q-42 -157 -171.5 -251.5t-291.5 -94.5zM641 1579h426v-4l-487 -338h-9z" />
    <glyph glyph-name="Cdotaccent" unicode="&#x10a;" horiz-adv-x="1390" 
d="M840 -18q-165 0 -307.5 50t-248 142.5t-165.5 233t-60 311.5q0 136 41 254t114 205.5t172.5 150t218.5 94t249 31.5q234 0 446 -108l21 -367h-21q-23 81 -62 155t-93.5 139t-130.5 103.5t-162 38.5q-121 0 -217 -90q-95 -93 -148 -249.5t-53 -352.5q0 -314 123 -509.5
t322 -195.5q155 0 273 119.5t151 317.5h18v-365q-243 -108 -481 -108zM815 1559q-78 0 -129 48t-51 122q0 75 51 124.5t129 49.5q77 0 126.5 -49.5t49.5 -124.5q0 -74 -49 -122t-127 -48z" />
    <glyph glyph-name="cdotaccent" unicode="&#x10b;" horiz-adv-x="1036" 
d="M549 -20q-222 0 -359 152t-137 400q0 180 75 321.5t206.5 219.5t296.5 78q171 0 268.5 -73t97.5 -167q0 -67 -57 -112.5t-162 -46.5q-6 54 -11.5 94t-14 81.5t-20.5 70t-27.5 51.5t-37.5 34t-49 11q-101 0 -165 -124.5t-64 -318.5q0 -213 87.5 -338t244.5 -125
q84 0 157 36.5t121 107.5l13 -6q-42 -157 -171.5 -251.5t-291.5 -94.5zM614 1247q-75 0 -126.5 48.5t-51.5 121.5q0 75 51.5 124.5t126.5 49.5q78 0 128.5 -49.5t50.5 -124.5q0 -74 -50.5 -122t-128.5 -48z" />
    <glyph glyph-name="Ccaron" unicode="&#x10c;" horiz-adv-x="1390" 
d="M840 -18q-165 0 -307.5 50t-248 142.5t-165.5 233t-60 311.5q0 136 41 254t114 205.5t172.5 150t218.5 94t249 31.5q234 0 446 -108l21 -367h-21q-23 81 -62 155t-93.5 139t-130.5 103.5t-162 38.5q-121 0 -217 -90q-95 -93 -148 -249.5t-53 -352.5q0 -314 123 -509.5
t322 -195.5q155 0 273 119.5t151 317.5h18v-365q-243 -108 -481 -108zM477 1872l6 6l330 -119l328 119l6 -10l-332 -355h-4z" />
    <glyph glyph-name="ccaron" unicode="&#x10d;" horiz-adv-x="1036" 
d="M549 -20q-222 0 -359 152t-137 400q0 180 75 321.5t206.5 219.5t296.5 78q171 0 268.5 -73t97.5 -167q0 -67 -57 -112.5t-162 -46.5q-6 54 -11.5 94t-14 81.5t-20.5 70t-27.5 51.5t-37.5 34t-49 11q-101 0 -165 -124.5t-64 -318.5q0 -213 87.5 -338t244.5 -125
q84 0 157 36.5t121 107.5l13 -6q-42 -157 -171.5 -251.5t-291.5 -94.5zM279 1589l6 6l329 -118l328 118l6 -10l-332 -354h-4z" />
    <glyph glyph-name="Dcaron" unicode="&#x10e;" horiz-adv-x="1554" 
d="M567 1393v-1352h138q187 0 301 185.5t114 490.5q0 307 -113.5 491.5t-301.5 184.5h-138zM41 1397v37h647q373 0 590 -191.5t217 -525.5q0 -331 -217.5 -524t-589.5 -193h-647v37l53 6q58 6 85.5 28.5t27.5 75.5v1139q0 53 -27.5 76t-85.5 29zM1110 1878l6 -10l-332 -355
h-4l-331 359l6 6l327 -119z" />
    <glyph glyph-name="dcaron" unicode="&#x10f;" horiz-adv-x="1292" 
d="M649 125q79 0 160 59v895q-79 39 -139 39q-124 0 -196.5 -142.5t-72.5 -400.5q0 -235 63 -342.5t185 -107.5zM1223 78h41l6 -37l-461 -61v172q-144 -172 -350 -172q-179 0 -291.5 132.5t-112.5 376.5q0 308 163.5 485t449.5 177q64 0 141 -12v274l-133 113v4l452 129h5
v-1491q0 -53 21.5 -71.5t68.5 -18.5zM1276 1171h-12v447h299v-12z" />
    <glyph glyph-name="Dcroat" unicode="&#x110;" horiz-adv-x="1556" 
d="M567 694v-653h138q187 0 301 185.5t114 490.5q0 307 -113.5 491.5t-301.5 184.5h-138v-654h250v-45h-250zM43 1397v37h647q373 0 589 -191.5t216 -525.5q0 -331 -216.5 -524t-588.5 -193h-647v37l51 6q59 6 86 28.5t27 75.5v547h-146v45h146v547q0 53 -27 76t-86 29z" />
    <glyph glyph-name="dcroat" unicode="&#x111;" horiz-adv-x="1282" 
d="M649 125q79 0 160 59v895q-79 39 -139 39q-124 0 -196.5 -142.5t-72.5 -400.5q0 -235 63 -342.5t185 -107.5zM1223 78h41l6 -37l-461 -61v172q-144 -172 -350 -172q-179 0 -291.5 132.5t-112.5 376.5q0 308 163.5 485t449.5 177q64 0 141 -12v178h-268v43h268v53
l-133 113v4l452 129h5v-299h133v-43h-133v-1149q0 -53 21.5 -71.5t68.5 -18.5z" />
    <glyph glyph-name="Emacron" unicode="&#x112;" horiz-adv-x="1292" 
d="M1235 471h27l-66 -471h-1155v37l53 6q58 6 85.5 28.5t27.5 75.5v1139q0 53 -27.5 76t-85.5 29l-53 6v37h1067l72 -449l-23 -6q-30 83 -70.5 152t-98.5 130.5t-138 96.5t-174 35h-117v-650h90q91 0 146 68t88 213h20v-602h-20q-23 147 -78.5 213.5t-155.5 66.5h-90v-661
h125q112 0 197 21t156 69.5t120 132.5t78 207zM360 1642h601v-40h-601v40z" />
    <glyph glyph-name="emacron" unicode="&#x113;" horiz-adv-x="1058" 
d="M594 1110q-83 0 -133.5 -97t-61.5 -257h349q-1 184 -38.5 269t-115.5 85zM1020 309l12 -8q-51 -146 -176 -233.5t-283 -87.5q-231 0 -375.5 158t-144.5 415q0 258 152.5 428t382.5 170q198 0 309 -120.5t111 -315.5h-613v-51q0 -234 97.5 -357t257.5 -123q76 0 149 32.5
t121 92.5zM283 1331v41h600v-41h-600z" />
    <glyph glyph-name="Edotaccent" unicode="&#x116;" horiz-adv-x="1292" 
d="M1235 471h27l-66 -471h-1155v37l53 6q58 6 85.5 28.5t27.5 75.5v1139q0 53 -27.5 76t-85.5 29l-53 6v37h1067l72 -449l-23 -6q-30 83 -70.5 152t-98.5 130.5t-138 96.5t-174 35h-117v-650h90q91 0 146 68t88 213h20v-602h-20q-23 147 -78.5 213.5t-155.5 66.5h-90v-661
h125q112 0 197 21t156 69.5t120 132.5t78 207zM662 1559q-78 0 -129.5 48.5t-51.5 121.5q0 75 51.5 124.5t129.5 49.5t127 -49.5t49 -124.5q0 -74 -49 -122t-127 -48z" />
    <glyph glyph-name="edotaccent" unicode="&#x117;" horiz-adv-x="1058" 
d="M594 1110q-83 0 -133.5 -97t-61.5 -257h349q-1 184 -38.5 269t-115.5 85zM1020 309l12 -8q-51 -146 -176 -233.5t-283 -87.5q-231 0 -375.5 158t-144.5 415q0 258 152.5 428t382.5 170q198 0 309 -120.5t111 -315.5h-613v-51q0 -234 97.5 -357t257.5 -123q76 0 149 32.5
t121 92.5zM584 1247q-78 0 -129.5 48.5t-51.5 121.5q0 75 51.5 124.5t129.5 49.5t128 -49.5t50 -124.5q0 -74 -50 -122t-128 -48z" />
    <glyph glyph-name="Eogonek" unicode="&#x118;" horiz-adv-x="1292" 
d="M1151 -326q40 0 84 23l4 -4q-43 -67 -108.5 -104.5t-139.5 -37.5q-77 0 -122.5 38.5t-45.5 97.5q0 74 81 146.5t251 166.5h-1114v37l53 6q58 6 85.5 28.5t27.5 75.5v1139q0 53 -27.5 76t-85.5 29l-53 6v37h1067l72 -449l-23 -6q-30 83 -70.5 152t-98.5 130.5t-138 96.5
t-174 35h-117v-650h90q91 0 146 68t88 213h20v-602h-20q-23 147 -78.5 213.5t-155.5 66.5h-90v-661h125q112 0 197 21t156 69.5t120 132.5t78 207h27l-66 -471q-77 -90 -108 -141.5t-31 -91.5q0 -43 23 -68t71 -25z" />
    <glyph glyph-name="eogonek" unicode="&#x119;" horiz-adv-x="1058" 
d="M594 1110q-83 0 -133.5 -97t-61.5 -257h349q-1 184 -38.5 269t-115.5 85zM881 -326q42 0 86 23l2 -2q-41 -67 -107.5 -105.5t-140.5 -38.5q-77 0 -122.5 38t-45.5 100q0 67 56.5 140.5t205.5 213.5q-105 -63 -250 -63q-226 0 -369 158.5t-143 414.5q0 258 152.5 428
t382.5 170q198 0 309 -120.5t111 -315.5h-613v-51q0 -234 97.5 -357t257.5 -123q76 0 149 32.5t121 92.5l12 -8q-16 -47 -79.5 -157t-114 -211t-50.5 -154q0 -105 93 -105z" />
    <glyph glyph-name="Ecaron" unicode="&#x11a;" horiz-adv-x="1292" 
d="M1235 471h27l-66 -471h-1155v37l53 6q58 6 85.5 28.5t27.5 75.5v1139q0 53 -27.5 76t-85.5 29l-53 6v37h1067l72 -449l-23 -6q-30 83 -70.5 152t-98.5 130.5t-138 96.5t-174 35h-117v-650h90q91 0 146 68t88 213h20v-602h-20q-23 147 -78.5 213.5t-155.5 66.5h-90v-661
h125q112 0 197 21t156 69.5t120 132.5t78 207zM993 1868l-331 -355h-5l-331 359l6 6l327 -119l328 119z" />
    <glyph glyph-name="ecaron" unicode="&#x11b;" horiz-adv-x="1058" 
d="M594 1110q-83 0 -133.5 -97t-61.5 -257h349q-1 184 -38.5 269t-115.5 85zM1020 309l12 -8q-51 -146 -176 -233.5t-283 -87.5q-231 0 -375.5 158t-144.5 415q0 258 152.5 428t382.5 170q198 0 309 -120.5t111 -315.5h-613v-51q0 -234 97.5 -357t257.5 -123q76 0 149 32.5
t121 92.5zM911 1595l7 -10l-332 -354h-4l-334 358l6 6l330 -118z" />
    <glyph glyph-name="Gbreve" unicode="&#x11e;" horiz-adv-x="1474" 
d="M836 651v37h634v-37l-47 -8q-53 -6 -77.5 -28.5t-24.5 -73.5v-451q-243 -108 -481 -108q-165 0 -307.5 50t-248 142.5t-165.5 233t-60 311.5q0 136 41 254t114 205.5t172.5 150t218.5 94t249 31.5q234 0 446 -108l21 -367h-21q-23 81 -62 155t-93.5 139t-130.5 103.5
t-162 38.5q-121 0 -217 -90q-95 -93 -148 -249.5t-53 -352.5q0 -314 123 -509.5t322 -195.5q59 0 122 29v494q0 51 -27 73.5t-85 28.5zM844 1540q-129 0 -215.5 89.5t-96.5 236.5h5q95 -117 307 -117q220 0 309 125h4q-6 -147 -90 -240.5t-223 -93.5z" />
    <glyph glyph-name="gbreve" unicode="&#x11f;" horiz-adv-x="1130" 
d="M553 1120q-154 0 -154 -297q0 -305 154 -305t154 305q0 297 -154 297zM526 -346q165 0 269 69.5t104 174.5q0 59 -40 90.5t-132 31.5h-360q-7 0 -64 5q-86 -59 -86 -164q0 -94 82.5 -150.5t226.5 -56.5zM360 324h398q180 0 265 -73t85 -198q0 -126 -82.5 -226.5
t-232 -158t-338.5 -57.5q-203 0 -337 60.5t-134 164.5q0 74 70.5 126t191.5 73q-87 24 -136 82t-49 131q0 89 66 163t180 119q-102 42 -161.5 118t-59.5 173q0 151 130.5 240.5t336.5 89.5q84 0 166 -16q24 74 55 124.5t66 76t67.5 36t69.5 10.5q63 0 99 -34t36 -80
q0 -39 -19.5 -81.5t-54.5 -74.5q-124 80 -180 80q-53 0 -100 -68q123 -36 192.5 -114t69.5 -187q0 -154 -130.5 -245t-336.5 -91q-113 0 -211 31q-104 -58 -104 -125q0 -69 122 -69zM565 1257q-128 0 -214.5 89.5t-96.5 236.5h6q88 -117 305 -117q220 0 309 125h7
q-6 -146 -91.5 -240t-224.5 -94z" />
    <glyph glyph-name="Gdotaccent" unicode="&#x120;" horiz-adv-x="1474" 
d="M836 651v37h634v-37l-47 -8q-53 -6 -77.5 -28.5t-24.5 -73.5v-451q-243 -108 -481 -108q-165 0 -307.5 50t-248 142.5t-165.5 233t-60 311.5q0 136 41 254t114 205.5t172.5 150t218.5 94t249 31.5q234 0 446 -108l21 -367h-21q-23 81 -62 155t-93.5 139t-130.5 103.5
t-162 38.5q-121 0 -217 -90q-95 -93 -148 -249.5t-53 -352.5q0 -314 123 -509.5t322 -195.5q59 0 122 29v494q0 51 -27 73.5t-85 28.5zM846 1559q-75 0 -126.5 48.5t-51.5 121.5q0 75 51.5 124.5t126.5 49.5q78 0 128 -49.5t50 -124.5q0 -74 -50 -122t-128 -48z" />
    <glyph glyph-name="gdotaccent" unicode="&#x121;" horiz-adv-x="1130" 
d="M553 1120q-154 0 -154 -297q0 -305 154 -305t154 305q0 297 -154 297zM526 -346q165 0 269 69.5t104 174.5q0 59 -40 90.5t-132 31.5h-360q-7 0 -64 5q-86 -59 -86 -164q0 -94 82.5 -150.5t226.5 -56.5zM360 324h398q180 0 265 -73t85 -198q0 -126 -82.5 -226.5
t-232 -158t-338.5 -57.5q-203 0 -337 60.5t-134 164.5q0 74 70.5 126t191.5 73q-87 24 -136 82t-49 131q0 89 66 163t180 119q-102 42 -161.5 118t-59.5 173q0 151 130.5 240.5t336.5 89.5q84 0 166 -16q24 74 55 124.5t66 76t67.5 36t69.5 10.5q63 0 99 -34t36 -80
q0 -39 -19.5 -81.5t-54.5 -74.5q-124 80 -180 80q-53 0 -100 -68q123 -36 192.5 -114t69.5 -187q0 -154 -130.5 -245t-336.5 -91q-113 0 -211 31q-104 -58 -104 -125q0 -69 122 -69zM559 1247q-78 0 -129 48t-51 122q0 75 51 124.5t129 49.5t128 -49.5t50 -124.5
q0 -74 -50 -122t-128 -48z" />
    <glyph glyph-name="uni0122" unicode="&#x122;" horiz-adv-x="1474" 
d="M836 651v37h634v-37l-47 -8q-53 -6 -77.5 -28.5t-24.5 -73.5v-451q-243 -108 -481 -108q-165 0 -307.5 50t-248 142.5t-165.5 233t-60 311.5q0 136 41 254t114 205.5t172.5 150t218.5 94t249 31.5q234 0 446 -108l21 -367h-21q-23 81 -62 155t-93.5 139t-130.5 103.5
t-162 38.5q-121 0 -217 -90q-95 -93 -148 -249.5t-53 -352.5q0 -314 123 -509.5t322 -195.5q59 0 122 29v494q0 51 -27 73.5t-85 28.5zM762 -102q68 0 114 -47t46 -119q0 -100 -80 -170.5t-209 -108.5l-8 17q60 23 89 60t29 77q0 51 -39 90t-98 45q0 66 46 111t110 45z" />
    <glyph glyph-name="uni0123" unicode="&#x123;" horiz-adv-x="1130" 
d="M553 1120q-154 0 -154 -297q0 -305 154 -305t154 305q0 297 -154 297zM526 -346q165 0 269 69.5t104 174.5q0 59 -40 90.5t-132 31.5h-360q-7 0 -64 5q-86 -59 -86 -164q0 -94 82.5 -150.5t226.5 -56.5zM360 324h398q180 0 265 -73t85 -198q0 -126 -82.5 -226.5
t-232 -158t-338.5 -57.5q-203 0 -337 60.5t-134 164.5q0 74 70.5 126t191.5 73q-87 24 -136 82t-49 131q0 89 66 163t180 119q-102 42 -161.5 118t-59.5 173q0 151 130.5 240.5t336.5 89.5q84 0 166 -16q24 74 55 124.5t66 76t67.5 36t69.5 10.5q63 0 99 -34t36 -80
q0 -39 -19.5 -81.5t-54.5 -74.5q-124 80 -180 80q-53 0 -100 -68q123 -36 192.5 -114t69.5 -187q0 -154 -130.5 -245t-336.5 -91q-113 0 -211 31q-104 -58 -104 -125q0 -69 122 -69zM555 1245q-68 0 -114 47t-46 119q0 102 79.5 171t209.5 108l8 -17q-60 -23 -89.5 -60
t-29.5 -77q0 -51 39 -90t99 -45q0 -67 -45 -111.5t-111 -44.5z" />
    <glyph glyph-name="Hbar" unicode="&#x126;" horiz-adv-x="1671" 
d="M559 1044v-278h551v278h-551zM1628 1434v-37l-51 -6q-60 -8 -86.5 -30t-26.5 -75v-201h160v-41h-160v-897q0 -53 26.5 -74.5t86.5 -29.5l51 -6v-37h-682v37l51 6q59 6 86 28.5t27 75.5v578h-551v-578q0 -52 27 -74t86 -30l53 -6v-37h-684v37l53 6q58 6 85.5 28.5
t27.5 75.5v897h-158v41h158v201q0 53 -27.5 76t-85.5 29l-53 6v37h684v-37l-53 -6q-59 -8 -86 -30.5t-27 -74.5v-201h551v201q0 53 -27 76t-86 29l-51 6v37h682z" />
    <glyph glyph-name="hbar" unicode="&#x127;" horiz-adv-x="1312" 
d="M1253 43l41 -6v-37h-573v37l39 6q40 6 59 29t19 75v656q0 87 -40.5 135.5t-117.5 48.5q-109 0 -199 -90v-750q0 -52 19 -74t59 -30l39 -6v-37h-573v37l41 6q47 6 68.5 28.5t21.5 75.5v1170h-136v43h136v53l-131 113v4l452 129h4v-299h267v-43h-267v-379q131 213 367 213
q156 0 235.5 -97t79.5 -272v-635q0 -53 21 -74.5t69 -29.5z" />
    <glyph glyph-name="Itilde" unicode="&#x128;" horiz-adv-x="765" 
d="M154 1634q-40 0 -66.5 -16.5t-52.5 -50.5l-10 2q18 128 73.5 201t151.5 73q44 0 98 -18.5t96 -41t90 -41t82 -18.5q44 0 70 18.5t49 55.5l10 -2q-11 -117 -71 -194.5t-158 -77.5q-56 0 -125.5 27.5t-133 55t-103.5 27.5zM725 0h-684v37l53 6q59 8 86 30t27 74v1139
q0 52 -27 74.5t-86 30.5l-53 6v37h684v-37l-53 -6q-59 -8 -86 -30.5t-27 -74.5v-1139q0 -52 27 -74t86 -30l53 -6v-37z" />
    <glyph glyph-name="itilde" unicode="&#x129;" horiz-adv-x="641" 
d="M618 0h-589v37l41 6q48 8 69 29.5t21 74.5v758l-131 113v4l452 129h4v-1004q0 -52 22.5 -74t70.5 -30l40 -6v-37zM453 1262q-56 0 -126 27.5t-133.5 55t-103.5 27.5t-66.5 -16.5t-52.5 -50.5l-10 2q18 128 73.5 201t151.5 73q55 0 126 -30t136 -59.5t107 -29.5
q74 0 117 74l10 -2q-11 -117 -71 -194.5t-158 -77.5z" />
    <glyph glyph-name="Imacron" unicode="&#x12a;" horiz-adv-x="765" 
d="M725 0h-684v37l53 6q59 8 86 30t27 74v1139q0 52 -27 74.5t-86 30.5l-53 6v37h684v-37l-53 -6q-59 -8 -86 -30.5t-27 -74.5v-1139q0 -52 27 -74t86 -30l53 -6v-37zM684 1602h-600v40h600v-40z" />
    <glyph glyph-name="imacron" unicode="&#x12b;" horiz-adv-x="641" 
d="M618 0h-589v37l41 6q48 8 69 29.5t21 74.5v758l-131 113v4l452 129h4v-1004q0 -52 22.5 -74t70.5 -30l40 -6v-37zM623 1331h-600v41h600v-41z" />
    <glyph glyph-name="Iogonek" unicode="&#x12e;" horiz-adv-x="765" 
d="M725 1397l-53 -6q-59 -8 -86 -30.5t-27 -74.5v-1139q0 -52 27 -74t86 -30l53 -6v-37h-182q-76 -89 -106.5 -140.5t-30.5 -92.5q0 -43 23 -68t71 -25q40 0 84 23l4 -4q-42 -67 -109 -104.5t-141 -37.5q-76 0 -121 38.5t-45 97.5q0 74 81 146.5t251 166.5h-463v37l53 6
q59 8 86 30t27 74v1139q0 52 -27 74.5t-86 30.5l-53 6v37h684v-37z" />
    <glyph glyph-name="iogonek" unicode="&#x12f;" horiz-adv-x="641" 
d="M618 37v-37h-137q-78 -91 -106 -139q-30 -51 -31 -94t23 -66q24 -27 73 -27q41 0 82 23l2 -4q-43 -67 -108.5 -104.5t-139.5 -37.5q-76 0 -121.5 38.5t-45.5 97.5q0 74 81 146.5t252 166.5h-413v37l41 6q48 8 69 29.5t21 74.5v758l-131 113v4l452 129h4v-1004
q0 -52 22.5 -74t70.5 -30zM324 1247q-78 0 -129.5 48.5t-51.5 121.5q0 75 51.5 124.5t129.5 49.5t127 -49.5t49 -124.5q0 -74 -49 -122t-127 -48z" />
    <glyph glyph-name="Idotaccent" unicode="&#x130;" horiz-adv-x="765" 
d="M725 0h-684v37l53 6q59 8 86 30t27 74v1139q0 52 -27 74.5t-86 30.5l-53 6v37h684v-37l-53 -6q-59 -8 -86 -30.5t-27 -74.5v-1139q0 -52 27 -74t86 -30l53 -6v-37zM385 1559q-78 0 -129 48t-51 122q0 75 51 124.5t129 49.5t128 -49.5t50 -124.5q0 -74 -50 -122t-128 -48z
" />
    <glyph glyph-name="dotlessi" unicode="&#x131;" horiz-adv-x="641" 
d="M618 0h-589v37l41 6q48 8 69 29.5t21 74.5v758l-131 113v4l452 129h4v-1004q0 -52 22.5 -74t70.5 -30l40 -6v-37z" />
    <glyph glyph-name="uni0136" unicode="&#x136;" horiz-adv-x="1542" 
d="M672 43l53 -6v-37h-684v37l53 6q59 8 86 30t27 74v1139q0 52 -27 74.5t-86 30.5l-53 6v37h684v-37l-53 -6q-59 -8 -86 -30.5t-27 -74.5v-1139q0 -52 27 -74t86 -30zM1251 1317l-338 -354l643 -949v-14h-411l-498 760l543 559q41 41 -3 58q-24 9 -73 14l-70 6v37h463v-37
l-55 -6q-146 -16 -201 -74zM813 -102q69 0 114.5 -47t45.5 -119q0 -100 -79.5 -170.5t-207.5 -108.5l-8 17q58 23 87.5 60.5t29.5 76.5q0 52 -38.5 90.5t-99.5 44.5q0 66 46 111t110 45z" />
    <glyph glyph-name="uni0137" unicode="&#x137;" horiz-adv-x="1263" 
d="M571 43l41 -6v-37h-587v37l41 6q47 6 68.5 28.5t21.5 75.5v1266l-131 113v4l452 129h4v-1512q0 -53 21 -74.5t69 -29.5zM1016 1010l-219 -213l497 -781v-16h-372l-375 627l414 393q26 23 32 35t-7.5 19.5t-53.5 12.5l-53 7v36h350v-36l-39 -7q-115 -18 -174 -77z
M696 -102q69 0 114.5 -47t45.5 -119q0 -100 -80 -170.5t-209 -108.5l-6 17q58 23 87.5 60.5t29.5 76.5q0 52 -38 90.5t-99 44.5q0 67 45.5 111.5t109.5 44.5z" />
    <glyph glyph-name="Lacute" unicode="&#x139;" horiz-adv-x="1247" 
d="M1202 483l25 -6l-66 -477h-1120v37l53 6q58 6 85.5 28.5t27.5 75.5v1139q0 53 -27.5 76t-85.5 29l-53 6v37h684v-37l-53 -6q-59 -8 -86 -30.5t-27 -74.5v-1243h152q102 0 183.5 31t139.5 91t98.5 138t69.5 180zM834 1860v-5l-490 -337h-6l70 342h426z" />
    <glyph glyph-name="lacute" unicode="&#x13a;" horiz-adv-x="636" 
d="M612 0h-587v37l41 6q47 6 68.5 28.5t21.5 75.5v1266l-131 113v4l452 129h4v-1512q0 -53 21 -74.5t69 -29.5l41 -6v-37zM346 2044h426v-4l-489 -338h-7z" />
    <glyph glyph-name="uni013B" unicode="&#x13b;" horiz-adv-x="1247" 
d="M1202 483l25 -6l-66 -477h-1120v37l53 6q58 6 85.5 28.5t27.5 75.5v1139q0 53 -27.5 76t-85.5 29l-53 6v37h684v-37l-53 -6q-59 -8 -86 -30.5t-27 -74.5v-1243h152q102 0 183.5 31t139.5 91t98.5 138t69.5 180zM614 -102q69 0 114.5 -47t45.5 -119q0 -100 -80 -170.5
t-209 -108.5l-6 17q58 23 87.5 60.5t29.5 76.5q0 52 -38 90.5t-99 44.5q0 67 45.5 111.5t109.5 44.5z" />
    <glyph glyph-name="uni013C" unicode="&#x13c;" horiz-adv-x="636" 
d="M612 0h-587v37l41 6q47 6 68.5 28.5t21.5 75.5v1266l-131 113v4l452 129h4v-1512q0 -53 21 -74.5t69 -29.5l41 -6v-37zM317 -102q68 0 113 -47t45 -119q0 -100 -79.5 -170.5t-207.5 -108.5l-8 17q60 23 89.5 60t29.5 77q0 52 -39 90.5t-100 44.5q0 66 46.5 111t110.5 45z
" />
    <glyph glyph-name="Lcaron" unicode="&#x13d;" horiz-adv-x="1251" 
d="M1202 483l25 -6l-66 -477h-1120v37l53 6q58 6 85.5 28.5t27.5 75.5v1139q0 53 -27.5 76t-85.5 29l-53 6v37h684v-37l-53 -6q-59 -8 -86 -30.5t-27 -74.5v-1243h152q102 0 183.5 31t139.5 91t98.5 138t69.5 180zM1149 1434v-13l-287 -434h-12v447h299z" />
    <glyph glyph-name="lcaron" unicode="&#x13e;" horiz-adv-x="641" 
d="M612 0h-587v37l41 6q47 6 68.5 28.5t21.5 75.5v1266l-131 113v4l452 129h4v-1512q0 -53 21 -74.5t69 -29.5l41 -6v-37zM625 1171h-13v447h299v-12z" />
    <glyph glyph-name="Lslash" unicode="&#x141;" horiz-adv-x="1261" 
d="M1217 483l24 -6l-65 -477h-1119v37l52 6q59 6 85.5 28.5t26.5 75.5v345l-160 -82l-18 39l178 92v745q0 53 -26.5 76t-85.5 29l-52 6v37h682v-37l-51 -6q-60 -8 -87.5 -30.5t-27.5 -74.5v-565l297 153l21 -40l-318 -162v-629h152q199 0 315.5 114.5t176.5 325.5z" />
    <glyph glyph-name="lslash" unicode="&#x142;" horiz-adv-x="704" 
d="M522 872v-725q0 -52 22 -74t70 -30l41 -6v-37h-589v37l40 6q47 6 69 28.5t22 75.5v500l-168 -117l-25 35l193 135v713l-131 113v4l452 129h4v-731l154 108l26 -39z" />
    <glyph glyph-name="Nacute" unicode="&#x143;" horiz-adv-x="1490" 
d="M1055 1397v37h411v-37l-57 -6q-65 -8 -94 -30t-29 -75v-1286h-250l-778 1231v-1084q0 -52 30 -74t95 -30l57 -6v-37h-411v37l57 6q64 6 93.5 28.5t29.5 75.5v1139q0 53 -26 76t-83 29l-51 6v37h483l705 -1069v921q0 53 -30.5 76t-94.5 29zM1229 1860v-5l-488 -337h-8
l70 342h426z" />
    <glyph glyph-name="nacute" unicode="&#x144;" horiz-adv-x="1318" 
d="M1260 43l40 -6v-37h-573v37l37 6q41 6 60.5 28.5t19.5 75.5v656q0 87 -41.5 135.5t-116.5 48.5q-109 0 -201 -92v-748q0 -52 19 -74t61 -30l37 -6v-37h-573v37l41 6q47 6 68.5 28.5t21.5 75.5v758l-131 113v4l452 129h4v-215q138 215 367 215q156 0 235.5 -97t79.5 -272
v-635q0 -52 22.5 -74t70.5 -30zM1100 1579v-4l-488 -338h-8l70 342h426z" />
    <glyph glyph-name="uni0145" unicode="&#x145;" horiz-adv-x="1490" 
d="M1055 1397v37h411v-37l-57 -6q-65 -8 -94 -30t-29 -75v-1286h-250l-778 1231v-1084q0 -52 30 -74t95 -30l57 -6v-37h-411v37l57 6q64 6 93.5 28.5t29.5 75.5v1139q0 53 -26 76t-83 29l-51 6v37h483l705 -1069v921q0 53 -30.5 76t-94.5 29zM750 -102q69 0 114 -47t45 -119
q0 -100 -79.5 -170.5t-208.5 -108.5l-7 17q58 23 87.5 60.5t29.5 76.5q0 52 -38 90.5t-99 44.5q0 66 46 111t110 45z" />
    <glyph glyph-name="uni0146" unicode="&#x146;" horiz-adv-x="1318" 
d="M1260 43l40 -6v-37h-573v37l37 6q41 6 60.5 28.5t19.5 75.5v656q0 87 -41.5 135.5t-116.5 48.5q-109 0 -201 -92v-748q0 -52 19 -74t61 -30l37 -6v-37h-573v37l41 6q47 6 68.5 28.5t21.5 75.5v758l-131 113v4l452 129h4v-215q138 215 367 215q156 0 235.5 -97t79.5 -272
v-635q0 -52 22.5 -74t70.5 -30zM645 -102q69 0 114.5 -47t45.5 -119q0 -100 -80 -170.5t-209 -108.5l-6 17q58 23 87.5 60.5t29.5 76.5q0 52 -38.5 90.5t-99.5 44.5q0 66 46 111t110 45z" />
    <glyph glyph-name="Ncaron" unicode="&#x147;" horiz-adv-x="1490" 
d="M1055 1397v37h411v-37l-57 -6q-65 -8 -94 -30t-29 -75v-1286h-250l-778 1231v-1084q0 -52 30 -74t95 -30l57 -6v-37h-411v37l57 6q64 6 93.5 28.5t29.5 75.5v1139q0 53 -26 76t-83 29l-51 6v37h483l705 -1069v921q0 53 -30.5 76t-94.5 29zM1110 1868l-332 -355h-4
l-334 359l6 6l330 -119l328 119z" />
    <glyph glyph-name="ncaron" unicode="&#x148;" horiz-adv-x="1318" 
d="M1260 43l40 -6v-37h-573v37l37 6q41 6 60.5 28.5t19.5 75.5v656q0 87 -41.5 135.5t-116.5 48.5q-109 0 -201 -92v-748q0 -52 19 -74t61 -30l37 -6v-37h-573v37l41 6q47 6 68.5 28.5t21.5 75.5v758l-131 113v4l452 129h4v-215q138 215 367 215q156 0 235.5 -97t79.5 -272
v-635q0 -52 22.5 -74t70.5 -30zM981 1585l-332 -354h-4l-334 358l6 6l330 -118l328 118z" />
    <glyph glyph-name="Eng" unicode="&#x14a;" horiz-adv-x="1490" 
d="M1055 1397v37h411v-37l-57 -6q-65 -8 -94 -30t-29 -75v-1096q0 -177 -74 -307q-73 -128 -189.5 -199t-250.5 -71q-102 0 -150.5 39.5t-48.5 97.5q0 43 33.5 86.5t85.5 63.5q21 -80 85.5 -149.5t140.5 -69.5q59 0 101 49.5t42 128.5q0 105 -76 221l-727 1151v-1084
q0 -52 30 -74t95 -30l57 -6v-37h-411v37l57 6q64 6 93.5 28.5t29.5 75.5v1139q0 53 -26 76t-83 29l-51 6v37h483l705 -1069v921q0 53 -30.5 76t-94.5 29z" />
    <glyph glyph-name="eng" unicode="&#x14b;" horiz-adv-x="1273" 
d="M852 1151q156 0 235.5 -97t79.5 -272v-573q0 -88 -46 -193.5t-118 -195t-168.5 -149.5t-187.5 -60q-75 0 -117.5 39.5t-42.5 99.5q0 40 22 81.5t64 72.5q49 -100 100 -153.5t95 -53.5q39 0 57.5 38t18.5 138v930q0 87 -41.5 135.5t-116.5 48.5q-112 0 -201 -92v-748
q0 -52 19 -74t61 -30l37 -6v-37h-573v37l41 6q48 8 69 29.5t21 74.5v758l-131 113v4l452 129h4v-215q132 215 367 215z" />
    <glyph glyph-name="Omacron" unicode="&#x14c;" horiz-adv-x="1531" 
d="M766 18q160 0 246 178t86 521q0 345 -86 521.5t-246 176.5q-158 0 -245 -177.5t-87 -520.5q0 -341 87.5 -520t244.5 -179zM766 1454q152 0 282.5 -54t223.5 -150t145.5 -233.5t52.5 -299.5t-52.5 -299.5t-145.5 -233.5t-223.5 -150t-282.5 -54q-207 0 -368.5 96
t-249 263.5t-87.5 377.5q0 206 85 373t247 265.5t373 98.5zM1067 1642v-40h-600v40h600z" />
    <glyph glyph-name="omacron" unicode="&#x14d;" horiz-adv-x="1222" 
d="M610 1151q244 0 401.5 -163.5t157.5 -420.5q0 -260 -157.5 -423.5t-401.5 -163.5t-400.5 163.5t-156.5 423.5q0 257 156.5 420.5t400.5 163.5zM610 14q203 0 203 553q0 549 -203 549q-202 0 -202 -549q0 -553 202 -553zM911 1331h-600v41h600v-41z" />
    <glyph glyph-name="Ohungarumlaut" unicode="&#x150;" horiz-adv-x="1531" 
d="M766 18q160 0 246 178t86 521q0 345 -86 521.5t-246 176.5q-158 0 -245 -177.5t-87 -520.5q0 -341 87.5 -520t244.5 -179zM766 1454q152 0 282.5 -54t223.5 -150t145.5 -233.5t52.5 -299.5t-52.5 -299.5t-145.5 -233.5t-223.5 -150t-282.5 -54q-207 0 -368.5 96
t-249 263.5t-87.5 377.5q0 206 85 373t247 265.5t373 98.5zM963 1853l-369 -337h-8l57 342h320v-5zM1298 1853l-368 -337h-8l57 342h319v-5z" />
    <glyph glyph-name="ohungarumlaut" unicode="&#x151;" horiz-adv-x="1222" 
d="M610 14q203 0 203 553q0 549 -203 549q-202 0 -202 -549q0 -553 202 -553zM610 1151q244 0 401.5 -163.5t157.5 -420.5q0 -260 -157.5 -423.5t-401.5 -163.5t-400.5 163.5t-156.5 423.5q0 257 156.5 420.5t400.5 163.5zM809 1575l-371 -338h-6l57 342h320v-4zM1145 1575
l-371 -338h-6l57 342h320v-4z" />
    <glyph glyph-name="OE" unicode="&#x152;" horiz-adv-x="2091" 
d="M1006 195v1044q0 91 -39.5 121.5t-155.5 30.5q-192 0 -283.5 -178t-91.5 -496t91.5 -496t283.5 -178q115 0 155 32t40 120zM2036 471h24l-65 -471h-1213q-222 0 -386 90.5t-249.5 252t-85.5 374.5t85.5 374.5t249.5 252t386 90.5h1125l71 -449l-22 -6q-24 65 -53 122
t-72 112t-93.5 93.5t-117.5 62.5t-143 24h-119v-650h90q91 0 145.5 68t87.5 213h21v-602h-21q-23 147 -78.5 213.5t-154.5 66.5h-90v-661h125q115 0 201 21t157.5 69.5t119.5 132.5t75 207z" />
    <glyph glyph-name="oe" unicode="&#x153;" horiz-adv-x="1839" 
d="M610 14q203 0 203 553q0 549 -203 549q-202 0 -202 -549q0 -553 202 -553zM1374 1110q-83 0 -133 -97t-61 -257h350q-1 183 -39.5 268.5t-116.5 85.5zM1800 309l12 -8q-51 -146 -175.5 -233.5t-282.5 -87.5q-226 0 -363 143q-156 -143 -381 -143q-244 0 -400.5 163.5
t-156.5 423.5q0 257 156.5 420.5t400.5 163.5q231 0 391 -154q70 73 165 113.5t202 40.5q198 0 310 -120.5t112 -315.5h-614v-51q0 -234 97 -357t257 -123q76 0 149 32.5t121 92.5z" />
    <glyph glyph-name="Racute" unicode="&#x154;" horiz-adv-x="1470" 
d="M664 1393h-105v-736h113q145 0 219 94t74 275q0 367 -301 367zM1036 672l465 -656v-16h-403l-404 616h-135v-469q0 -52 27 -74t86 -30l53 -6v-37h-684v37l53 6q59 8 86 30t27 74v1139q0 52 -27 74.5t-86 30.5l-53 6v37h623q308 0 482.5 -100.5t174.5 -278.5
q0 -125 -74.5 -226.5t-210.5 -156.5zM739 1860h426v-5l-489 -337h-6z" />
    <glyph glyph-name="racute" unicode="&#x155;" horiz-adv-x="948" 
d="M797 1151q74 0 111.5 -39t37.5 -100q0 -100 -82 -170q-137 90 -209 90q-48 0 -93.5 -64t-76.5 -163v-558q0 -53 31.5 -75.5t99.5 -28.5l60 -6v-37h-647v37l41 6q48 8 69 29.5t21 74.5v758l-131 113v4l452 129h4v-346q95 346 312 346zM913 1579v-4l-487 -338h-8l69 342
h426z" />
    <glyph glyph-name="uni0156" unicode="&#x156;" horiz-adv-x="1470" 
d="M664 1393h-105v-736h113q145 0 219 94t74 275q0 367 -301 367zM1036 672l465 -656v-16h-403l-404 616h-135v-469q0 -52 27 -74t86 -30l53 -6v-37h-684v37l53 6q59 8 86 30t27 74v1139q0 52 -27 74.5t-86 30.5l-53 6v37h623q308 0 482.5 -100.5t174.5 -278.5
q0 -125 -74.5 -226.5t-210.5 -156.5zM809 -102q68 0 113 -47t45 -119q0 -100 -79.5 -170.5t-207.5 -108.5l-8 17q60 23 89.5 60t29.5 77q0 52 -39.5 90.5t-100.5 44.5q0 66 47 111t111 45z" />
    <glyph glyph-name="uni0157" unicode="&#x157;" horiz-adv-x="948" 
d="M797 1151q74 0 111.5 -39t37.5 -100q0 -100 -82 -170q-137 90 -209 90q-48 0 -93.5 -64t-76.5 -163v-558q0 -53 31.5 -75.5t99.5 -28.5l60 -6v-37h-647v37l41 6q48 8 69 29.5t21 74.5v758l-131 113v4l452 129h4v-346q95 346 312 346zM322 -102q69 0 114 -47t45 -119
q0 -100 -79.5 -170.5t-208.5 -108.5l-7 17q58 23 87.5 60.5t29.5 76.5q0 52 -38 90.5t-99 44.5q0 66 46 111t110 45z" />
    <glyph glyph-name="Rcaron" unicode="&#x158;" horiz-adv-x="1470" 
d="M664 1393h-105v-736h113q145 0 219 94t74 275q0 367 -301 367zM1036 672l465 -656v-16h-403l-404 616h-135v-469q0 -52 27 -74t86 -30l53 -6v-37h-684v37l53 6q59 8 86 30t27 74v1139q0 52 -27 74.5t-86 30.5l-53 6v37h623q308 0 482.5 -100.5t174.5 -278.5
q0 -125 -74.5 -226.5t-210.5 -156.5zM1040 1878l7 -10l-334 -355h-4l-332 359l6 6l328 -119z" />
    <glyph glyph-name="rcaron" unicode="&#x159;" horiz-adv-x="948" 
d="M797 1151q74 0 111.5 -39t37.5 -100q0 -100 -82 -170q-137 90 -209 90q-48 0 -93.5 -64t-76.5 -163v-558q0 -53 31.5 -75.5t99.5 -28.5l60 -6v-37h-647v37l41 6q48 8 69 29.5t21 74.5v758l-131 113v4l452 129h4v-346q95 346 312 346zM795 1585l-332 -354h-4l-334 358l6 6
l330 -118l327 118z" />
    <glyph glyph-name="Sacute" unicode="&#x15a;" horiz-adv-x="1161" 
d="M557 -20q-116 0 -236.5 29t-214.5 83l-36 342h20q98 -187 239.5 -302.5t270.5 -115.5q106 0 170 59.5t64 162.5q0 156 -146 247q-47 29 -121 62t-134.5 57t-127 62.5t-112 80.5t-75.5 109t-30 150q0 136 71 239t191 156t268 53q211 0 396 -90l28 -340h-22
q-77 188 -191.5 290.5t-240.5 102.5q-106 0 -171 -58t-65 -145q0 -40 11.5 -75t29 -61.5t47.5 -51t59 -42t70.5 -37.5t75 -33t81 -32.5t79.5 -33.5q65 -31 112.5 -63t90.5 -78.5t65.5 -110t22.5 -143.5q0 -216 -153 -344.5t-386 -128.5zM618 1860h426v-5l-489 -337h-6z" />
    <glyph glyph-name="sacute" unicode="&#x15b;" horiz-adv-x="966" 
d="M457 -20q-96 0 -197.5 27t-179.5 79l-12 299h20q69 -155 178.5 -257.5t231.5 -102.5q78 0 128 48.5t50 123.5q0 49 -27.5 88t-76.5 67t-101 50.5t-119 52.5t-112 59q-154 94 -154 270q0 87 36 158t98 116t143.5 69t173.5 24q170 0 313 -70l6 -299h-20q-57 160 -144.5 245
t-193.5 85q-74 0 -122 -46t-48 -118q0 -54 32 -94.5t83 -66t112.5 -49t123.5 -53t113 -67.5t83 -102t32 -149q0 -176 -126.5 -281.5t-323.5 -105.5zM524 1579h426v-4l-487 -338h-8z" />
    <glyph glyph-name="Scedilla" unicode="&#x15e;" horiz-adv-x="1161" 
d="M1096 453q0 -142 -69.5 -249t-187 -163.5t-266.5 -60.5l-34 -58q102 -24 161.5 -66.5t59.5 -119.5q0 -57 -35.5 -102t-93 -70t-121.5 -38t-129 -13q-51 0 -74 4l-18 80q115 -41 178 -41q54 0 86.5 25t32.5 69q0 95 -195 131l127 199q-237 10 -412 112l-36 342h20
q98 -187 239.5 -302.5t270.5 -115.5q106 0 170 59.5t64 162.5q0 156 -146 247q-47 29 -121 62t-134.5 57t-127 62.5t-112 80.5t-75.5 109t-30 150q0 136 71 239t191 156t268 53q211 0 396 -90l28 -340h-22q-77 188 -191.5 290.5t-240.5 102.5q-106 0 -171 -58t-65 -145
q0 -40 11.5 -75t29 -61.5t47.5 -51t59 -42t70.5 -37.5t75 -33t81 -32.5t79.5 -33.5q65 -31 112.5 -63t90.5 -78.5t65.5 -110t22.5 -143.5z" />
    <glyph glyph-name="scedilla" unicode="&#x15f;" horiz-adv-x="966" 
d="M907 367q0 -173 -124 -278.5t-320 -108.5l-35 -58q102 -24 161.5 -66.5t59.5 -119.5q0 -57 -35.5 -102t-93 -70t-121.5 -38t-129 -13q-50 0 -73 4l-19 80q115 -41 178 -41q54 0 86.5 25t32.5 69q0 47 -45 79.5t-149 51.5l127 201q-180 13 -328 104l-12 299h20
q69 -155 178.5 -257.5t231.5 -102.5q78 0 128 48.5t50 123.5q0 49 -27.5 88t-76.5 67t-101 50.5t-119 52.5t-112 59q-154 94 -154 270q0 87 36 158t98 116t143.5 69t173.5 24q170 0 313 -70l6 -299h-20q-57 160 -144.5 245t-193.5 85q-74 0 -122 -46t-48 -118
q0 -54 32 -94.5t83 -66t112.5 -49t123.5 -53t113 -67.5t83 -102t32 -149z" />
    <glyph glyph-name="Scaron" unicode="&#x160;" horiz-adv-x="1161" 
d="M557 -20q-116 0 -236.5 29t-214.5 83l-36 342h20q98 -187 239.5 -302.5t270.5 -115.5q106 0 170 59.5t64 162.5q0 156 -146 247q-47 29 -121 62t-134.5 57t-127 62.5t-112 80.5t-75.5 109t-30 150q0 136 71 239t191 156t268 53q211 0 396 -90l28 -340h-22
q-77 188 -191.5 290.5t-240.5 102.5q-106 0 -171 -58t-65 -145q0 -40 11.5 -75t29 -61.5t47.5 -51t59 -42t70.5 -37.5t75 -33t81 -32.5t79.5 -33.5q65 -31 112.5 -63t90.5 -78.5t65.5 -110t22.5 -143.5q0 -216 -153 -344.5t-386 -128.5zM256 1872l6 6l328 -119l330 119
l6 -10l-334 -355h-4z" />
    <glyph glyph-name="scaron" unicode="&#x161;" horiz-adv-x="966" 
d="M457 -20q-96 0 -197.5 27t-179.5 79l-12 299h20q69 -155 178.5 -257.5t231.5 -102.5q78 0 128 48.5t50 123.5q0 49 -27.5 88t-76.5 67t-101 50.5t-119 52.5t-112 59q-154 94 -154 270q0 87 36 158t98 116t143.5 69t173.5 24q170 0 313 -70l6 -299h-20q-57 160 -144.5 245
t-193.5 85q-74 0 -122 -46t-48 -118q0 -54 32 -94.5t83 -66t112.5 -49t123.5 -53t113 -67.5t83 -102t32 -149q0 -176 -126.5 -281.5t-323.5 -105.5zM162 1589l6 6l330 -118l327 118l6 -10l-331 -354h-4z" />
    <glyph glyph-name="uni0162" unicode="&#x162;" horiz-adv-x="1413" 
d="M90 1434h1231l65 -469l-22 -2q-60 199 -178.5 314.5t-245.5 115.5h-57v-1246q0 -52 38.5 -74t120.5 -30l72 -6v-37h-379l-47 -78q102 -24 161.5 -66.5t59.5 -119.5q0 -57 -35.5 -102t-93 -70t-121.5 -38t-129 -13q-50 0 -73 4l-19 80q115 -41 178 -41q54 0 86.5 25
t32.5 69q0 47 -45 79.5t-149 51.5l139 219h-381v37l72 6q83 6 121 28.5t38 75.5v1246h-57q-127 0 -245 -115t-181 -315l-22 2z" />
    <glyph glyph-name="uni0163" unicode="&#x163;" horiz-adv-x="731" 
d="M446 -18h-16q-10 0 -16 2l-37 -62q102 -24 161.5 -66.5t59.5 -119.5q0 -57 -35.5 -102t-93 -70t-121.5 -38t-129 -13q-51 0 -74 4l-18 80q115 -41 178 -41q54 0 86.5 25t32.5 69q0 95 -195 131l133 209q-104 23 -159.5 98t-55.5 193v809h-139v20l436 246h29v-226h232v-40
h-232v-826q0 -70 36.5 -103.5t92.5 -33.5q74 0 133 37l8 -12q-44 -77 -123 -123.5t-174 -46.5z" />
    <glyph glyph-name="Tcaron" unicode="&#x164;" horiz-adv-x="1413" 
d="M90 1434h1231l65 -469l-22 -2q-60 199 -178.5 314.5t-245.5 115.5h-57v-1246q0 -52 38.5 -74t120.5 -30l72 -6v-37h-815v37l72 6q83 6 121 28.5t38 75.5v1246h-57q-127 0 -245 -115t-181 -315l-22 2zM1040 1868l-331 -355h-4l-334 359l6 6l330 -119l327 119z" />
    <glyph glyph-name="tcaron" unicode="&#x165;" horiz-adv-x="731" 
d="M602 127q74 0 133 37l8 -12q-44 -77 -123 -123.5t-174 -46.5q-142 0 -220.5 78t-78.5 221v809h-139v20l436 246h29v-226h232v-40h-232v-826q0 -70 36.5 -103.5t92.5 -33.5zM582 1182v252h299v-7l-287 -245h-12z" />
    <glyph glyph-name="Tbar" unicode="&#x166;" horiz-adv-x="1404" 
d="M88 1434h1231l65 -469l-22 -2q-60 199 -179 314.5t-247 115.5h-55v-654h239v-45h-239v-547q0 -52 37.5 -74t119.5 -30l74 -6v-37h-817v37l74 6q83 6 120 28.5t37 75.5v547h-241v45h241v654h-57q-127 0 -244 -115t-180 -315l-22 2z" />
    <glyph glyph-name="tbar" unicode="&#x167;" horiz-adv-x="731" 
d="M735 164l8 -12q-42 -77 -120.5 -123.5t-173.5 -46.5q-146 0 -224 78t-78 221v469h-114v43h114v297h-139v20l438 246h27v-226h232v-40h-232v-297h199v-43h-199v-486q0 -70 37 -103.5t92 -33.5q75 0 133 37z" />
    <glyph glyph-name="Utilde" unicode="&#x168;" horiz-adv-x="1449" 
d="M549 1634q-40 0 -66.5 -16.5t-52.5 -50.5l-10 2q18 128 73.5 201t151.5 73q55 0 125.5 -30t135 -59.5t106.5 -29.5q43 0 69 18.5t49 55.5l11 -2q-11 -117 -71.5 -194.5t-158.5 -77.5q-56 0 -125.5 27.5t-133 55t-103.5 27.5zM739 -20q-257 0 -409 144t-152 394v768
q0 53 -24.5 76t-77.5 29l-47 6v37h667v-37l-51 -6q-60 -8 -86.5 -30t-26.5 -75v-786q0 -202 91 -313t262 -111q161 0 249.5 110t88.5 306v794q0 53 -29.5 76t-93.5 29l-56 6v37h410v-37l-57 -6q-65 -8 -95 -30.5t-30 -74.5v-794q0 -241 -141 -376.5t-392 -135.5z" />
    <glyph glyph-name="utilde" unicode="&#x169;" horiz-adv-x="1308" 
d="M1284 78l6 -37l-463 -61v213q-144 -213 -364 -213q-156 0 -236 97t-80 271v615q0 53 -21.5 71.5t-68.5 18.5h-41l-6 37l461 61v-823q0 -87 41.5 -136t116.5 -49q94 0 198 90v730q0 53 -20.5 71.5t-67.5 18.5h-43l-4 37l461 61v-983q0 -53 21.5 -71.5t68.5 -18.5h41z
M784 1262q-56 0 -125.5 27.5t-133 55t-103.5 27.5t-66.5 -16.5t-52.5 -50.5l-10 2q18 128 73.5 201t151.5 73q55 0 126 -30t136 -59.5t107 -29.5q74 0 117 74l10 -2q-11 -117 -71.5 -194.5t-158.5 -77.5z" />
    <glyph glyph-name="Umacron" unicode="&#x16a;" horiz-adv-x="1449" 
d="M739 -20q-257 0 -409 144t-152 394v768q0 53 -24.5 76t-77.5 29l-47 6v37h667v-37l-51 -6q-60 -8 -86.5 -30t-26.5 -75v-786q0 -202 91 -313t262 -111q161 0 249.5 110t88.5 306v794q0 53 -29.5 76t-93.5 29l-56 6v37h410v-37l-57 -6q-65 -8 -95 -30.5t-30 -74.5v-794
q0 -241 -141 -376.5t-392 -135.5zM1139 1602h-600v40h600v-40z" />
    <glyph glyph-name="umacron" unicode="&#x16b;" horiz-adv-x="1308" 
d="M1284 78l6 -37l-463 -61v213q-144 -213 -364 -213q-156 0 -236 97t-80 271v615q0 53 -21.5 71.5t-68.5 18.5h-41l-6 37l461 61v-823q0 -87 41.5 -136t116.5 -49q94 0 198 90v730q0 53 -20.5 71.5t-67.5 18.5h-43l-4 37l461 61v-983q0 -53 21.5 -71.5t68.5 -18.5h41z
M346 1372h602v-41h-602v41z" />
    <glyph glyph-name="Uring" unicode="&#x16e;" horiz-adv-x="1449" 
d="M838 1565q72 0 115.5 43t43.5 112q0 72 -43.5 115t-115.5 43q-70 0 -114 -43.5t-44 -114.5q0 -69 44.5 -112t113.5 -43zM739 -20q-257 0 -409 144t-152 394v768q0 53 -24.5 76t-77.5 29l-47 6v37h667v-37l-51 -6q-60 -8 -86.5 -30t-26.5 -75v-786q0 -202 91 -313
t262 -111q161 0 249.5 110t88.5 306v794q0 53 -29.5 76t-93.5 29l-56 6v37h410v-37l-57 -6q-65 -8 -95 -30.5t-30 -74.5v-794q0 -241 -141 -376.5t-392 -135.5zM838 1518q-93 0 -151 56t-58 146q0 92 58 148.5t151 56.5q94 0 152.5 -56.5t58.5 -148.5q0 -91 -58.5 -146.5
t-152.5 -55.5z" />
    <glyph glyph-name="uring" unicode="&#x16f;" horiz-adv-x="1308" 
d="M647 1608q-70 0 -114 -43.5t-44 -114.5q0 -69 44.5 -112.5t113.5 -43.5q72 0 116 43.5t44 112.5q0 72 -44 115t-116 43zM1243 78h41l6 -37l-463 -61v213q-144 -213 -364 -213q-156 0 -236 97t-80 271v615q0 53 -21.5 71.5t-68.5 18.5h-41l-6 37l461 61v-823
q0 -87 41.5 -136t116.5 -49q94 0 198 90v730q0 53 -20.5 71.5t-67.5 18.5h-43l-4 37l461 61v-983q0 -53 21.5 -71.5t68.5 -18.5zM647 1247q-94 0 -151.5 56t-57.5 147q0 92 57.5 148.5t151.5 56.5t152.5 -56.5t58.5 -148.5q0 -91 -58.5 -147t-152.5 -56z" />
    <glyph glyph-name="Uhungarumlaut" unicode="&#x170;" horiz-adv-x="1449" 
d="M739 -20q-257 0 -409 144t-152 394v768q0 53 -24.5 76t-77.5 29l-47 6v37h667v-37l-51 -6q-60 -8 -86.5 -30t-26.5 -75v-786q0 -202 91 -313t262 -111q161 0 249.5 110t88.5 306v794q0 53 -29.5 76t-93.5 29l-56 6v37h410v-37l-57 -6q-65 -8 -95 -30.5t-30 -74.5v-794
q0 -241 -141 -376.5t-392 -135.5zM666 1516h-9l58 342h319v-5zM1001 1516h-8l58 342h319v-5z" />
    <glyph glyph-name="uhungarumlaut" unicode="&#x171;" horiz-adv-x="1308" 
d="M1284 78l6 -37l-463 -61v213q-144 -213 -364 -213q-156 0 -236 97t-80 271v615q0 53 -21.5 71.5t-68.5 18.5h-41l-6 37l461 61v-823q0 -87 41.5 -136t116.5 -49q94 0 198 90v730q0 53 -20.5 71.5t-67.5 18.5h-43l-4 37l461 61v-983q0 -53 21.5 -71.5t68.5 -18.5h41z
M844 1579v-4l-369 -338h-8l57 342h320zM1180 1575l-369 -338h-8l57 342h320v-4z" />
    <glyph glyph-name="Uogonek" unicode="&#x172;" horiz-adv-x="1456" 
d="M1044 1397v37h410v-37l-57 -6q-65 -8 -95 -30.5t-30 -74.5v-794q0 -222 -125 -359q-189 -223 -227 -303q-38 -81 6 -129q24 -27 73 -27q41 0 82 23l2 -4q-41 -67 -107 -104.5t-140 -37.5q-76 0 -121 38.5t-45 97.5q0 36 18.5 70.5t63.5 77.5t102.5 87t153.5 111
q-118 -53 -269 -53q-257 0 -409 144t-152 394v768q0 53 -24.5 76t-77.5 29l-47 6v37h667v-37l-51 -6q-60 -8 -86.5 -30t-26.5 -75v-786q0 -202 91 -313t262 -111q161 0 249.5 110t88.5 306v794q0 53 -29.5 76t-93.5 29z" />
    <glyph glyph-name="uogonek" unicode="&#x173;" horiz-adv-x="1308" 
d="M799 -326q42 0 86 23l2 -4q-43 -67 -108.5 -104.5t-139.5 -37.5q-77 0 -122.5 38.5t-45.5 97.5q0 76 87 151t269 174v181q-144 -213 -364 -213q-156 0 -236 97t-80 271v615q0 53 -21.5 71.5t-68.5 18.5h-41l-6 37l461 61v-823q0 -87 41.5 -136t116.5 -49q94 0 198 90v730
q0 53 -20.5 71.5t-67.5 18.5h-43l-4 37l461 61v-983q0 -53 21.5 -71.5t68.5 -18.5h41l6 -37l-463 -61q-66 -78 -93 -126.5t-27 -86.5q0 -43 23 -68t69 -25z" />
    <glyph glyph-name="Wcircumflex" unicode="&#x174;" horiz-adv-x="2101" 
d="M1673 1397v37h391v-37l-39 -6q-46 -8 -74 -29.5t-44 -71.5l-367 -1290h-205l-354 1110l-248 -1110h-223l-414 1292q-16 49 -36.5 69.5t-51.5 29.5l-24 6v37h610v-37l-51 -6q-58 -8 -76.5 -28.5t-5.5 -72.5l284 -987l252 1131h250l328 -1139l278 995q16 52 -10 72.5
t-102 28.5zM1507 1511l-327 119l-328 -119l-6 7l332 358h4l331 -354z" />
    <glyph glyph-name="wcircumflex" unicode="&#x175;" horiz-adv-x="1724" 
d="M1372 1094v36h354v-36l-34 -7q-42 -7 -68.5 -28t-42.5 -72l-301 -987h-166l-283 860l-210 -860h-183l-338 989q-17 49 -38 69t-52 29l-24 7v36h528v-36l-33 -7q-38 -8 -47 -27t4 -73l207 -678l199 821h237l240 -825l209 682q17 52 -5.5 72t-92.5 28zM1286 1233l-328 119
l-327 -119l-6 6l331 358h5l331 -354z" />
    <glyph glyph-name="Ycircumflex" unicode="&#x176;" horiz-adv-x="1392" 
d="M1014 1397v37h395v-37l-39 -6q-54 -8 -87 -29t-56 -64l-340 -657v-494q0 -52 30 -74t95 -30l57 -6v-37h-715v37l56 6q66 8 95.5 29.5t29.5 74.5v486l-420 670q-46 72 -113 88l-25 6v37h652v-37l-54 -6q-57 -8 -68.5 -24t15.5 -64l352 -576l302 571q24 47 1.5 66t-98.5 27
zM1145 1511l-328 119l-330 -119l-6 7l334 358h4l332 -354z" />
    <glyph glyph-name="ycircumflex" unicode="&#x177;" horiz-adv-x="1126" 
d="M795 1094v36h352v-36l-35 -7q-42 -9 -70 -29t-47 -67l-379 -1005q-42 -110 -84.5 -184.5t-84.5 -113t-79.5 -54t-80.5 -15.5q-74 0 -130.5 44.5t-56.5 121.5q0 62 41 127q128 -69 187 -95t90 -26q46 0 77 42.5t68 146.5l-467 1013q-35 76 -100 94l-25 7v36h590v-36
l-51 -7q-57 -8 -70.5 -25.5t4.5 -68.5l261 -631l239 629q18 49 -2 68.5t-88 27.5zM979 1233l-330 119l-327 -119l-7 6l332 358h4l334 -354z" />
    <glyph glyph-name="Ydieresis" unicode="&#x178;" horiz-adv-x="1392" 
d="M1014 1397v37h395v-37l-39 -6q-54 -8 -87 -29t-56 -64l-340 -657v-494q0 -52 30 -74t95 -30l57 -6v-37h-715v37l56 6q66 8 95.5 29.5t29.5 74.5v486l-420 670q-46 72 -113 88l-25 6v37h652v-37l-54 -6q-57 -8 -68.5 -24t15.5 -64l352 -576l302 571q24 47 1.5 66t-98.5 27
zM1042 1565q-72 0 -120 45t-48 112q0 72 48 119t120 47q73 0 120.5 -47t47.5 -119q0 -68 -47.5 -112.5t-120.5 -44.5zM592 1565q-73 0 -120.5 44.5t-47.5 112.5q0 72 47.5 119t120.5 47q72 0 119 -47t47 -119q0 -68 -47 -112.5t-119 -44.5z" />
    <glyph glyph-name="Zacute" unicode="&#x179;" horiz-adv-x="1255" 
d="M1184 518h24l-80 -518h-1116v25l797 1366h-197q-178 0 -306 -102t-214 -316l-22 4l65 457h1071v-25l-776 -1366h193q100 0 180.5 22.5t139 61.5t105 100.5t78 130.5t58.5 160zM1114 1860v-5l-489 -337h-7l70 342h426z" />
    <glyph glyph-name="zacute" unicode="&#x17a;" horiz-adv-x="1048" 
d="M100 1130h910v-26l-607 -1063h150q185 0 271.5 80.5t142.5 298.5h20l-49 -420h-909v25l614 1067h-172q-144 0 -229.5 -80t-159.5 -281l-21 4zM993 1579v-4l-489 -338h-6l69 342h426z" />
    <glyph glyph-name="Zdotaccent" unicode="&#x17b;" horiz-adv-x="1255" 
d="M1184 518h24l-80 -518h-1116v25l797 1366h-197q-178 0 -306 -102t-214 -316l-22 4l65 457h1071v-25l-776 -1366h193q100 0 180.5 22.5t139 61.5t105 100.5t78 130.5t58.5 160zM662 1559q-78 0 -129.5 48.5t-51.5 121.5q0 75 51.5 124.5t129.5 49.5t128 -49.5t50 -124.5
q0 -74 -50 -122t-128 -48z" />
    <glyph glyph-name="zdotaccent" unicode="&#x17c;" horiz-adv-x="1048" 
d="M100 1130h910v-26l-607 -1063h150q185 0 271.5 80.5t142.5 298.5h20l-49 -420h-909v25l614 1067h-172q-144 0 -229.5 -80t-159.5 -281l-21 4zM541 1247q-78 0 -129.5 48.5t-51.5 121.5q0 75 51.5 124.5t129.5 49.5t128 -49.5t50 -124.5q0 -74 -50 -122t-128 -48z" />
    <glyph glyph-name="Zcaron" unicode="&#x17d;" horiz-adv-x="1255" 
d="M1184 518h24l-80 -518h-1116v25l797 1366h-197q-178 0 -306 -102t-214 -316l-22 4l65 457h1071v-25l-776 -1366h193q100 0 180.5 22.5t139 61.5t105 100.5t78 130.5t58.5 160zM995 1868l-333 -355h-5l-331 359l6 6l327 -119l330 119z" />
    <glyph glyph-name="zcaron" unicode="&#x17e;" horiz-adv-x="1048" 
d="M100 1130h910v-26l-607 -1063h150q185 0 271.5 80.5t142.5 298.5h20l-49 -420h-909v25l614 1067h-172q-144 0 -229.5 -80t-159.5 -281l-21 4zM874 1585l-333 -354h-4l-332 358l6 6l328 -118l329 118z" />
    <glyph glyph-name="florin" unicode="&#x192;" horiz-adv-x="1220" 
d="M993 1454q98 0 151.5 -47t53.5 -115q0 -87 -84 -147q-53 97 -135.5 166t-134.5 69q-30 0 -40.5 -74t-15.5 -255.5t-14 -288.5h297v-41h-301q-9 -83 -21.5 -155t-34.5 -149t-50.5 -139t-70.5 -119t-93.5 -95.5t-121 -61t-151.5 -22.5q-102 0 -151 49q-61 56 -53.5 130.5
t83.5 129.5q57 -96 138.5 -166t132.5 -70q24 0 32 87t15.5 268.5t24.5 312.5h-273v41h277q97 692 540 692z" />
    <glyph glyph-name="Ohorn" unicode="&#x1a0;" horiz-adv-x="1531" 
d="M766 18q160 0 246 178t86 521q0 345 -86 521.5t-246 176.5q-158 0 -245 -177.5t-87 -520.5q0 -341 87.5 -520t244.5 -179zM766 1454q292 0 489 -188q91 59 91 120q0 45 -43.5 88.5t-114.5 63.5q0 61 43 102t100 41q70 0 113 -45t43 -114q0 -83 -54 -158t-153 -125
q190 -206 190 -522q0 -162 -52.5 -299.5t-145.5 -233.5t-223.5 -150t-282.5 -54q-207 0 -368.5 96t-249 263.5t-87.5 377.5q0 206 85 373t247 265.5t373 98.5z" />
    <glyph glyph-name="ohorn" unicode="&#x1a1;" horiz-adv-x="1222" 
d="M610 14q203 0 203 553q0 549 -203 549q-202 0 -202 -549q0 -553 202 -553zM610 1151q124 0 230 -45.5t182 -128.5q98 61 98 127q0 45 -43 88t-114 63q0 61 43 102.5t100 41.5q69 0 112.5 -45.5t43.5 -114.5q0 -86 -57.5 -162t-162.5 -127q127 -156 127 -383
q0 -260 -157.5 -423.5t-401.5 -163.5t-400.5 163.5t-156.5 423.5q0 257 156.5 420.5t400.5 163.5z" />
    <glyph glyph-name="Uhorn" unicode="&#x1af;" horiz-adv-x="1449" 
d="M1272 1204v-712q0 -241 -141 -376.5t-392 -135.5q-257 0 -409 144t-152 394v768q0 53 -24.5 76t-77.5 29l-47 6v37h667v-37l-51 -6q-60 -8 -86.5 -30t-26.5 -75v-786q0 -202 91 -313t262 -111q161 0 249.5 110t88.5 306v794q0 53 -29.5 76t-93.5 29l-56 6v37h295v-37
q-41 -12 -54 -33.5t-13 -77.5v-57q155 77 155 157q0 45 -43 88.5t-114 63.5q0 61 43 102t100 41q70 0 113 -45t43 -114q0 -101 -79 -188t-218 -130z" />
    <glyph glyph-name="uhorn" unicode="&#x1b0;" horiz-adv-x="1308" 
d="M1284 78l6 -37l-463 -61v213q-144 -213 -364 -213q-156 0 -236 97t-80 271v615q0 53 -21.5 71.5t-68.5 18.5h-41l-6 37l461 61v-823q0 -87 41.5 -136t116.5 -49q94 0 198 90v730q0 53 -20.5 71.5t-67.5 18.5h-43l-4 37l461 61v-195q135 71 135 148q0 44 -43.5 87.5
t-114.5 63.5q0 61 43.5 102.5t100.5 41.5q69 0 112.5 -45.5t43.5 -114.5q0 -97 -73.5 -181.5t-203.5 -129.5v-760q0 -53 21.5 -71.5t68.5 -18.5h41z" />
    <glyph glyph-name="uni01CD" unicode="&#x1cd;" horiz-adv-x="1394" 
d="M766 518l-238 647l-206 -647h444zM1409 43l41 -6v-37h-662v37l48 6q58 7 72 29t-5 69l-123 336h-471l-106 -334q-14 -50 8.5 -71.5t99.5 -28.5l64 -6v-37h-385v37l39 6q55 8 82.5 29.5t40.5 70.5l409 1291h227l496 -1295q17 -43 45 -64t80 -32zM1014 1878l6 -10
l-332 -355h-4l-334 359l6 6l330 -119z" />
    <glyph glyph-name="uni01CE" unicode="&#x1ce;" horiz-adv-x="1075" 
d="M451 139q80 0 157 84v244q-45 10 -73 10q-86 0 -141.5 -56t-55.5 -142q0 -66 29.5 -103t83.5 -37zM1087 152l7 -9q-19 -54 -65.5 -92.5t-97 -54.5t-100.5 -16q-102 0 -162.5 53.5t-60.5 150.5v9q-125 -213 -332 -213q-111 0 -179 65.5t-68 165.5q0 127 142.5 207
t436.5 104v264q0 57 -14 102t-36 72.5t-51 45.5t-56.5 25t-55.5 7q-84 0 -108.5 -88t-3.5 -288q-94 -11 -154.5 30.5t-60.5 102.5q0 75 88.5 159t226 140.5t266.5 56.5q284 0 281 -346l-8 -621q0 -27 11 -39t42 -12t112 19zM852 1595l6 -10l-334 -354h-4l-332 358l7 6
l327 -118z" />
    <glyph glyph-name="uni0218" unicode="&#x218;" horiz-adv-x="1161" 
d="M557 -20q-116 0 -236.5 29t-214.5 83l-36 342h20q98 -187 239.5 -302.5t270.5 -115.5q106 0 170 59.5t64 162.5q0 156 -146 247q-47 29 -121 62t-134.5 57t-127 62.5t-112 80.5t-75.5 109t-30 150q0 136 71 239t191 156t268 53q211 0 396 -90l28 -340h-22
q-77 188 -191.5 290.5t-240.5 102.5q-106 0 -171 -58t-65 -145q0 -40 11.5 -75t29 -61.5t47.5 -51t59 -42t70.5 -37.5t75 -33t81 -32.5t79.5 -33.5q65 -31 112.5 -63t90.5 -78.5t65.5 -110t22.5 -143.5q0 -216 -153 -344.5t-386 -128.5zM555 -102q69 0 114.5 -47t45.5 -119
q0 -100 -80 -170.5t-209 -108.5l-6 17q58 23 87.5 60.5t29.5 76.5q0 52 -38.5 90.5t-99.5 44.5q0 66 46 111t110 45z" />
    <glyph glyph-name="uni0219" unicode="&#x219;" horiz-adv-x="966" 
d="M457 -20q-96 0 -197.5 27t-179.5 79l-12 299h20q69 -155 178.5 -257.5t231.5 -102.5q78 0 128 48.5t50 123.5q0 49 -27.5 88t-76.5 67t-101 50.5t-119 52.5t-112 59q-154 94 -154 270q0 87 36 158t98 116t143.5 69t173.5 24q170 0 313 -70l6 -299h-20q-57 160 -144.5 245
t-193.5 85q-74 0 -122 -46t-48 -118q0 -54 32 -94.5t83 -66t112.5 -49t123.5 -53t113 -67.5t83 -102t32 -149q0 -176 -126.5 -281.5t-323.5 -105.5zM444 -102q69 0 114.5 -47t45.5 -119q0 -100 -79.5 -170.5t-207.5 -108.5l-8 17q58 23 87.5 60.5t29.5 76.5q0 52 -38 90.5
t-99 44.5q0 67 45.5 111.5t109.5 44.5z" />
    <glyph glyph-name="uni021A" unicode="&#x21a;" horiz-adv-x="1413" 
d="M90 1434h1231l65 -469l-22 -2q-60 199 -178.5 314.5t-245.5 115.5h-57v-1246q0 -52 38.5 -74t120.5 -30l72 -6v-37h-815v37l72 6q83 6 121 28.5t38 75.5v1246h-57q-127 0 -245 -115t-181 -315l-22 2zM705 -102q69 0 114 -47t45 -119q0 -100 -80 -170.5t-209 -108.5l-6 17
q58 23 87.5 60.5t29.5 76.5q0 52 -38 90.5t-99 44.5q0 66 46 111t110 45z" />
    <glyph glyph-name="uni021B" unicode="&#x21b;" horiz-adv-x="731" 
d="M735 164l8 -12q-44 -77 -123 -123.5t-174 -46.5q-142 0 -220.5 78t-78.5 221v809h-139v20l436 246h29v-226h232v-40h-232v-826q0 -70 36.5 -103.5t92.5 -33.5q74 0 133 37zM393 -102q69 0 114.5 -47t45.5 -119q0 -100 -80 -170.5t-209 -108.5l-6 17q58 23 87.5 60.5
t29.5 76.5q0 52 -38 90.5t-99 44.5q0 67 45.5 111.5t109.5 44.5z" />
    <glyph glyph-name="uni0237" unicode="&#x237;" horiz-adv-x="591" 
d="M-35 -389q-84 0 -129 39.5t-45 99.5q0 40 22 81.5t64 72.5q51 -100 102 -153.5t95 -53.5q37 0 55 38t18 138v1032l-131 113v4l453 129h4v-942q0 -115 -74 -255t-195 -241.5t-239 -101.5z" />
    <glyph glyph-name="circumflex" unicode="&#x2c6;" 
d="M614 1352l-329 -119l-6 6l333 358h4l332 -354l-6 -10z" />
    <glyph glyph-name="caron" unicode="&#x2c7;" 
d="M279 1589l6 6l329 -118l328 118l6 -10l-332 -354h-4z" />
    <glyph glyph-name="breve" unicode="&#x2d8;" 
d="M614 1257q-128 0 -214.5 89.5t-96.5 236.5h4q95 -117 307 -117q221 0 310 125h4q-6 -146 -90.5 -240t-223.5 -94z" />
    <glyph glyph-name="dotaccent" unicode="&#x2d9;" 
d="M616 1247q-78 0 -129 48t-51 122q0 75 51 124.5t129 49.5t127.5 -49.5t49.5 -124.5q0 -74 -49.5 -122t-127.5 -48z" />
    <glyph glyph-name="ring" unicode="&#x2da;" 
d="M614 1247q-92 0 -150 56t-58 147q0 92 57.5 148.5t150.5 56.5q94 0 152.5 -56.5t58.5 -148.5q0 -91 -58.5 -147t-152.5 -56zM614 1294q72 0 116 43.5t44 112.5q0 72 -44 115t-116 43q-70 0 -113.5 -43.5t-43.5 -114.5q0 -69 44 -112.5t113 -43.5z" />
    <glyph glyph-name="ogonek" unicode="&#x2db;" 
d="M410 -449q-76 0 -122 39t-46 97q0 77 89 153t277 178l6 -18q-76 -89 -106.5 -140.5t-30.5 -92.5q0 -44 25.5 -68.5t70.5 -24.5q41 0 82 23l2 -4q-43 -67 -108 -104.5t-139 -37.5z" />
    <glyph glyph-name="tilde" unicode="&#x2dc;" 
d="M760 1262q-56 0 -126 27.5t-133.5 55t-103.5 27.5t-66 -16.5t-52 -50.5l-11 2q18 128 74 201t152 73q44 0 98.5 -18.5t96.5 -41t90.5 -41t82.5 -18.5q74 0 117 74l10 -2q-11 -117 -71 -194.5t-158 -77.5z" />
    <glyph glyph-name="hungarumlaut" unicode="&#x2dd;" 
d="M442 1237h-8l58 342h319v-4zM778 1237h-8l57 342h320v-4z" />
    <glyph glyph-name="gravecomb" unicode="&#x300;" 
d="M160 1575v4h426l71 -342h-8z" />
    <glyph glyph-name="acutecomb" unicode="&#x301;" 
d="M643 1579h426v-4l-489 -338h-9z" />
    <glyph glyph-name="uni0302" unicode="&#x302;" 
d="M614 1352l-329 -119l-6 6l333 358h4l332 -354l-6 -10z" />
    <glyph glyph-name="tildecomb" unicode="&#x303;" 
d="M760 1262q-56 0 -126 27.5t-133.5 55t-103.5 27.5t-66 -16.5t-52 -50.5l-11 2q18 128 74 201t152 73q44 0 98.5 -18.5t96.5 -41t90.5 -41t82.5 -18.5q74 0 117 74l10 -2q-11 -117 -71 -194.5t-158 -77.5z" />
    <glyph glyph-name="uni0306" unicode="&#x306;" 
d="M614 1257q-128 0 -214.5 89.5t-96.5 236.5h4q95 -117 307 -117q221 0 310 125h4q-6 -146 -90.5 -240t-223.5 -94z" />
    <glyph glyph-name="hookabovecomb" unicode="&#x309;" horiz-adv-x="700" 
d="M293 1751q132 0 204 -53.5t72 -145.5q0 -80 -70.5 -145t-205.5 -90l-23 -82h-12l-35 197q124 30 171.5 78t47.5 110q0 24 -17 40.5t-50 16.5q-41 0 -89.5 -26t-129.5 -82q-11 18 -23 49t-12 43q0 42 44 66t128 24z" />
    <glyph glyph-name="uni031B" unicode="&#x31b;" horiz-adv-x="679" 
d="M211 922l-10 20q166 77 166 162q0 44 -43.5 87.5t-114.5 63.5q0 61 43 102.5t100 41.5q69 0 112.5 -45.5t43.5 -114.5q0 -101 -78.5 -187.5t-218.5 -129.5z" />
    <glyph glyph-name="dotbelowcomb" unicode="&#x323;" horiz-adv-x="649" 
d="M330 -487q-72 0 -120 47t-48 116q0 71 48 118.5t120 47.5t121 -48t49 -118q0 -69 -49 -116t-121 -47z" />
    <glyph glyph-name="Wgrave" unicode="&#x1e80;" horiz-adv-x="2101" 
d="M1673 1397v37h391v-37l-39 -6q-46 -8 -74 -29.5t-44 -71.5l-367 -1290h-205l-354 1110l-248 -1110h-223l-414 1292q-16 49 -36.5 69.5t-51.5 29.5l-24 6v37h610v-37l-51 -6q-58 -8 -76.5 -28.5t-5.5 -72.5l284 -987l252 1131h250l328 -1139l278 995q16 52 -10 72.5
t-102 28.5zM1171 1858l70 -342h-8l-488 337v5h426z" />
    <glyph glyph-name="wgrave" unicode="&#x1e81;" horiz-adv-x="1724" 
d="M1372 1094v36h354v-36l-34 -7q-42 -7 -68.5 -28t-42.5 -72l-301 -987h-166l-283 860l-210 -860h-183l-338 989q-17 49 -38 69t-52 29l-24 7v36h528v-36l-33 -7q-38 -8 -47 -27t4 -73l207 -678l199 821h237l240 -825l209 682q17 52 -5.5 72t-92.5 28zM932 1579l69 -342h-8
l-487 338v4h426z" />
    <glyph glyph-name="Wacute" unicode="&#x1e82;" horiz-adv-x="2101" 
d="M1673 1397v37h391v-37l-39 -6q-46 -8 -74 -29.5t-44 -71.5l-367 -1290h-205l-354 1110l-248 -1110h-223l-414 1292q-16 49 -36.5 69.5t-51.5 29.5l-24 6v37h610v-37l-51 -6q-58 -8 -76.5 -28.5t-5.5 -72.5l284 -987l252 1131h250l328 -1139l278 995q16 52 -10 72.5
t-102 28.5zM1634 1860v-5l-489 -337h-8l71 342h426z" />
    <glyph glyph-name="wacute" unicode="&#x1e83;" horiz-adv-x="1724" 
d="M1372 1094v36h354v-36l-34 -7q-42 -7 -68.5 -28t-42.5 -72l-301 -987h-166l-283 860l-210 -860h-183l-338 989q-17 49 -38 69t-52 29l-24 7v36h528v-36l-33 -7q-38 -8 -47 -27t4 -73l207 -678l199 821h237l240 -825l209 682q17 52 -5.5 72t-92.5 28zM1413 1579v-4
l-489 -338h-9l72 342h426z" />
    <glyph glyph-name="Wdieresis" unicode="&#x1e84;" horiz-adv-x="2101" 
d="M1673 1397v37h391v-37l-39 -6q-46 -8 -74 -29.5t-44 -71.5l-367 -1290h-205l-354 1110l-248 -1110h-223l-414 1292q-16 49 -36.5 69.5t-51.5 29.5l-24 6v37h610v-37l-51 -6q-58 -8 -76.5 -28.5t-5.5 -72.5l284 -987l252 1131h250l328 -1139l278 995q16 52 -10 72.5
t-102 28.5zM956 1565q-73 0 -121.5 44.5t-48.5 112.5q0 72 48 119t122 47q72 0 119 -47t47 -119q0 -68 -47 -112.5t-119 -44.5zM1407 1565q-73 0 -120.5 44.5t-47.5 112.5q0 72 47.5 119t120.5 47q72 0 119 -47t47 -119q0 -68 -47 -112.5t-119 -44.5z" />
    <glyph glyph-name="wdieresis" unicode="&#x1e85;" horiz-adv-x="1724" 
d="M1372 1094v36h354v-36l-34 -7q-42 -7 -68.5 -28t-42.5 -72l-301 -987h-166l-283 860l-210 -860h-183l-338 989q-17 49 -38 69t-52 29l-24 7v36h528v-36l-33 -7q-38 -8 -47 -27t4 -73l207 -678l199 821h237l240 -825l209 682q17 52 -5.5 72t-92.5 28zM735 1266
q-73 0 -121.5 44.5t-48.5 112.5q0 72 48 119t122 47q72 0 119 -47t47 -119q0 -68 -47 -112.5t-119 -44.5zM1186 1266q-73 0 -120.5 44.5t-47.5 112.5q0 72 47.5 119t120.5 47q72 0 119 -47t47 -119q0 -68 -47 -112.5t-119 -44.5z" />
    <glyph glyph-name="Germandbls" unicode="&#x1e9e;" horiz-adv-x="1552" 
d="M1171 989q0 -137 123 -248q8 -8 38.5 -34.5t41.5 -37t36.5 -36.5t36.5 -41.5t28.5 -43t25 -51t13.5 -54.5t6 -64q0 -164 -120 -281.5t-306 -117.5q-85 0 -187.5 18t-179.5 47l-20 262h20q64 -128 163 -212.5t200 -84.5q73 0 119 42.5t46 113.5q0 43 -18 83.5t-46.5 74
t-63.5 67t-69.5 68.5t-63 72t-46.5 84t-18 98q0 103 59.5 211t192.5 235q-98 119 -206.5 184.5t-201.5 65.5q-121 0 -192.5 -101t-71.5 -272v-889q0 -52 21.5 -74.5t66.5 -29.5l43 -6v-37h-623v37l43 6q51 8 74 30t23 74v631q0 199 92 354t253 238.5t363 83.5
q272 0 496 -149l8 -11q-86 -69 -142.5 -148t-56.5 -157z" />
    <glyph glyph-name="uni1EA0" unicode="&#x1ea0;" horiz-adv-x="1394" 
d="M766 518l-238 647l-206 -647h444zM1409 43l41 -6v-37h-662v37l48 6q58 7 72 29t-5 69l-123 336h-471l-106 -334q-14 -50 8.5 -71.5t99.5 -28.5l64 -6v-37h-385v37l39 6q55 8 82.5 29.5t40.5 70.5l409 1291h227l496 -1295q17 -43 45 -64t80 -32zM596 -467q-72 0 -120 47.5
t-48 116.5q0 71 48 118.5t120 47.5t121 -48t49 -118q0 -69 -49 -116.5t-121 -47.5z" />
    <glyph glyph-name="uni1EA1" unicode="&#x1ea1;" horiz-adv-x="1075" 
d="M451 139q80 0 157 84v244q-45 10 -73 10q-86 0 -141.5 -56t-55.5 -142q0 -66 29.5 -103t83.5 -37zM1087 152l7 -9q-19 -54 -65.5 -92.5t-97 -54.5t-100.5 -16q-102 0 -162.5 53.5t-60.5 150.5v9q-125 -213 -332 -213q-111 0 -179 65.5t-68 165.5q0 127 142.5 207
t436.5 104v264q0 57 -14 102t-36 72.5t-51 45.5t-56.5 25t-55.5 7q-84 0 -108.5 -88t-3.5 -288q-94 -11 -154.5 30.5t-60.5 102.5q0 75 88.5 159t226 140.5t266.5 56.5q284 0 281 -346l-8 -621q0 -27 11 -39t42 -12t112 19zM508 -467q-72 0 -120 47.5t-48 116.5
q0 71 48 118.5t120 47.5t121 -48t49 -118q0 -69 -49 -116.5t-121 -47.5z" />
    <glyph glyph-name="uni1EA2" unicode="&#x1ea2;" horiz-adv-x="1394" 
d="M766 518l-238 647l-206 -647h444zM1409 43l41 -6v-37h-662v37l48 6q58 7 72 29t-5 69l-123 336h-471l-106 -334q-14 -50 8.5 -71.5t99.5 -28.5l64 -6v-37h-385v37l39 6q55 8 82.5 29.5t40.5 70.5l409 1291h227l496 -1295q17 -43 45 -64t80 -32zM705 2030q132 0 204 -53.5
t72 -145.5q0 -80 -71 -145.5t-205 -90.5l-23 -82h-12l-35 197q124 30 171.5 78t47.5 110q0 24 -17.5 41t-50.5 17q-29 0 -67 -16.5t-67 -35t-85 -57.5q-11 18 -23 49t-12 43q0 42 44.5 66.5t128.5 24.5z" />
    <glyph glyph-name="uni1EA3" unicode="&#x1ea3;" horiz-adv-x="1075" 
d="M451 139q80 0 157 84v244q-45 10 -73 10q-86 0 -141.5 -56t-55.5 -142q0 -66 29.5 -103t83.5 -37zM1087 152l7 -9q-19 -54 -65.5 -92.5t-97 -54.5t-100.5 -16q-102 0 -162.5 53.5t-60.5 150.5v9q-125 -213 -332 -213q-111 0 -179 65.5t-68 165.5q0 127 142.5 207
t436.5 104v264q0 57 -14 102t-36 72.5t-51 45.5t-56.5 25t-55.5 7q-84 0 -108.5 -88t-3.5 -288q-94 -11 -154.5 30.5t-60.5 102.5q0 75 88.5 159t226 140.5t266.5 56.5q284 0 281 -346l-8 -621q0 -27 11 -39t42 -12t112 19zM621 1751q132 0 204 -53.5t72 -145.5
q0 -80 -70.5 -145t-205.5 -90l-23 -82h-12l-35 197q124 30 171.5 78t47.5 110q0 24 -17.5 40.5t-50.5 16.5q-41 0 -89.5 -26t-129.5 -82q-11 18 -22.5 49t-11.5 43q0 42 44 66t128 24z" />
    <glyph glyph-name="uni1EA4" unicode="&#x1ea4;" horiz-adv-x="1394" 
d="M766 518l-238 647l-206 -647h444zM1409 43l41 -6v-37h-662v37l48 6q58 7 72 29t-5 69l-123 336h-471l-106 -334q-14 -50 8.5 -71.5t99.5 -28.5l64 -6v-37h-385v37l39 6q55 8 82.5 29.5t40.5 70.5l409 1291h227l496 -1295q17 -43 45 -64t80 -32zM1020 1522l-6 -11
l-328 119l-330 -119l-6 7l334 358h4zM944 1700l72 342h426v-4l-490 -338h-8z" />
    <glyph glyph-name="uni1EA5" unicode="&#x1ea5;" horiz-adv-x="1075" 
d="M451 139q80 0 157 84v244q-45 10 -73 10q-86 0 -141.5 -56t-55.5 -142q0 -66 29.5 -103t83.5 -37zM1087 152l7 -9q-19 -54 -65.5 -92.5t-97 -54.5t-100.5 -16q-102 0 -162.5 53.5t-60.5 150.5v9q-125 -213 -332 -213q-111 0 -179 65.5t-68 165.5q0 127 142.5 207
t436.5 104v264q0 57 -14 102t-36 72.5t-51 45.5t-56.5 25t-55.5 7q-84 0 -108.5 -88t-3.5 -288q-94 -11 -154.5 30.5t-60.5 102.5q0 75 88.5 159t226 140.5t266.5 56.5q284 0 281 -346l-8 -621q0 -27 11 -39t42 -12t112 19zM858 1243l-6 -10l-330 119l-327 -119l-7 6
l332 358h4zM780 1421l72 342h426v-4l-490 -338h-8z" />
    <glyph glyph-name="uni1EA6" unicode="&#x1ea6;" horiz-adv-x="1394" 
d="M766 518l-238 647l-206 -647h444zM1409 43l41 -6v-37h-662v37l48 6q58 7 72 29t-5 69l-123 336h-471l-106 -334q-14 -50 8.5 -71.5t99.5 -28.5l64 -6v-37h-385v37l39 6q55 8 82.5 29.5t40.5 70.5l409 1291h227l496 -1295q17 -43 45 -64t80 -32zM1020 1522l-6 -11
l-328 119l-330 -119l-6 7l334 358h4zM643 2038v4h426l72 -342h-8z" />
    <glyph glyph-name="uni1EA7" unicode="&#x1ea7;" horiz-adv-x="1075" 
d="M451 139q80 0 157 84v244q-45 10 -73 10q-86 0 -141.5 -56t-55.5 -142q0 -66 29.5 -103t83.5 -37zM1087 152l7 -9q-19 -54 -65.5 -92.5t-97 -54.5t-100.5 -16q-102 0 -162.5 53.5t-60.5 150.5v9q-125 -213 -332 -213q-111 0 -179 65.5t-68 165.5q0 127 142.5 207
t436.5 104v264q0 57 -14 102t-36 72.5t-51 45.5t-56.5 25t-55.5 7q-84 0 -108.5 -88t-3.5 -288q-94 -11 -154.5 30.5t-60.5 102.5q0 75 88.5 159t226 140.5t266.5 56.5q284 0 281 -346l-8 -621q0 -27 11 -39t42 -12t112 19zM858 1243l-6 -10l-330 119l-327 -119l-7 6
l332 358h4zM479 1759v4h426l72 -342h-8z" />
    <glyph glyph-name="uni1EA8" unicode="&#x1ea8;" horiz-adv-x="1394" 
d="M766 518l-238 647l-206 -647h444zM1409 43l41 -6v-37h-662v37l48 6q58 7 72 29t-5 69l-123 336h-471l-106 -334q-14 -50 8.5 -71.5t99.5 -28.5l64 -6v-37h-385v37l39 6q55 8 82.5 29.5t40.5 70.5l409 1291h227l496 -1295q17 -43 45 -64t80 -32zM1020 1522l-6 -11
l-328 119l-330 -119l-6 7l334 358h4zM1004 2216q132 0 204 -53.5t72 -145.5q0 -80 -70.5 -145t-205.5 -90l-23 -82h-12l-35 196q124 30 171.5 78t47.5 111q0 24 -17.5 40.5t-50.5 16.5q-41 0 -89.5 -26t-129.5 -82q-11 18 -23 49t-12 43q0 42 44 66t129 24z" />
    <glyph glyph-name="uni1EA9" unicode="&#x1ea9;" horiz-adv-x="1075" 
d="M451 139q80 0 157 84v244q-45 10 -73 10q-86 0 -141.5 -56t-55.5 -142q0 -66 29.5 -103t83.5 -37zM1087 152l7 -9q-19 -54 -65.5 -92.5t-97 -54.5t-100.5 -16q-102 0 -162.5 53.5t-60.5 150.5v9q-125 -213 -332 -213q-111 0 -179 65.5t-68 165.5q0 127 142.5 207
t436.5 104v264q0 57 -14 102t-36 72.5t-51 45.5t-56.5 25t-55.5 7q-84 0 -108.5 -88t-3.5 -288q-94 -11 -154.5 30.5t-60.5 102.5q0 75 88.5 159t226 140.5t266.5 56.5q284 0 281 -346l-8 -621q0 -27 11 -39t42 -12t112 19zM858 1243l-6 -10l-330 119l-327 -119l-7 6
l332 358h4zM840 1937q132 0 204 -53t72 -145q0 -80 -71 -145.5t-205 -90.5l-23 -82h-12l-35 197q124 30 171.5 78t47.5 110q0 24 -17 41t-50 17q-41 0 -89.5 -26t-130.5 -83q-11 18 -22.5 49t-11.5 43q0 42 44 66t128 24z" />
    <glyph glyph-name="uni1EAA" unicode="&#x1eaa;" horiz-adv-x="1394" 
d="M766 518l-238 647l-206 -647h444zM1409 43l41 -6v-37h-662v37l48 6q58 7 72 29t-5 69l-123 336h-471l-106 -334q-14 -50 8.5 -71.5t99.5 -28.5l64 -6v-37h-385v37l39 6q55 8 82.5 29.5t40.5 70.5l409 1291h227l496 -1295q17 -43 45 -64t80 -32zM1020 1522l-6 -11
l-328 119l-330 -119l-6 7l334 358h4zM856 1935q-55 0 -125 27.5t-133.5 55.5t-103.5 28t-66.5 -17t-52.5 -51l-10 2q18 128 73.5 201.5t151.5 73.5q55 0 125.5 -29.5t135.5 -59.5t107 -30q74 0 117 74l10 -2q-11 -117 -71 -195t-158 -78z" />
    <glyph glyph-name="uni1EAB" unicode="&#x1eab;" horiz-adv-x="1075" 
d="M451 139q80 0 157 84v244q-45 10 -73 10q-86 0 -141.5 -56t-55.5 -142q0 -66 29.5 -103t83.5 -37zM1087 152l7 -9q-19 -54 -65.5 -92.5t-97 -54.5t-100.5 -16q-102 0 -162.5 53.5t-60.5 150.5v9q-125 -213 -332 -213q-111 0 -179 65.5t-68 165.5q0 127 142.5 207
t436.5 104v264q0 57 -14 102t-36 72.5t-51 45.5t-56.5 25t-55.5 7q-84 0 -108.5 -88t-3.5 -288q-94 -11 -154.5 30.5t-60.5 102.5q0 75 88.5 159t226 140.5t266.5 56.5q284 0 281 -346l-8 -621q0 -27 11 -39t42 -12t112 19zM858 1243l-6 -10l-330 119l-327 -119l-7 6
l332 358h4zM692 1657q-56 0 -125.5 27.5t-133 55t-103.5 27.5t-66.5 -16.5t-52.5 -50.5l-10 2q18 128 73.5 201t151.5 73q55 0 126 -29.5t136 -59t107 -29.5q74 0 116 73l11 -2q-11 -117 -71.5 -194.5t-158.5 -77.5z" />
    <glyph glyph-name="uni1EAC" unicode="&#x1eac;" horiz-adv-x="1394" 
d="M766 518l-238 647l-206 -647h444zM1409 43l41 -6v-37h-662v37l48 6q58 7 72 29t-5 69l-123 336h-471l-106 -334q-14 -50 8.5 -71.5t99.5 -28.5l64 -6v-37h-385v37l39 6q55 8 82.5 29.5t40.5 70.5l409 1291h227l496 -1295q17 -43 45 -64t80 -32zM1020 1522l-6 -11
l-328 119l-330 -119l-6 7l334 358h4zM596 -467q-72 0 -120 47.5t-48 116.5q0 71 48 118.5t120 47.5t121 -48t49 -118q0 -69 -49 -116.5t-121 -47.5z" />
    <glyph glyph-name="uni1EAD" unicode="&#x1ead;" horiz-adv-x="1075" 
d="M451 139q80 0 157 84v244q-45 10 -73 10q-86 0 -141.5 -56t-55.5 -142q0 -66 29.5 -103t83.5 -37zM1087 152l7 -9q-19 -54 -65.5 -92.5t-97 -54.5t-100.5 -16q-102 0 -162.5 53.5t-60.5 150.5v9q-125 -213 -332 -213q-111 0 -179 65.5t-68 165.5q0 127 142.5 207
t436.5 104v264q0 57 -14 102t-36 72.5t-51 45.5t-56.5 25t-55.5 7q-84 0 -108.5 -88t-3.5 -288q-94 -11 -154.5 30.5t-60.5 102.5q0 75 88.5 159t226 140.5t266.5 56.5q284 0 281 -346l-8 -621q0 -27 11 -39t42 -12t112 19zM858 1243l-6 -10l-330 119l-327 -119l-7 6
l332 358h4zM508 -467q-72 0 -120 47.5t-48 116.5q0 71 48 118.5t120 47.5t121 -48t49 -118q0 -69 -49 -116.5t-121 -47.5z" />
    <glyph glyph-name="uni1EAE" unicode="&#x1eae;" horiz-adv-x="1394" 
d="M766 518l-238 647l-206 -647h444zM1409 43l41 -6v-37h-662v37l48 6q58 7 72 29t-5 69l-123 336h-471l-106 -334q-14 -50 8.5 -71.5t99.5 -28.5l64 -6v-37h-385v37l39 6q55 8 82.5 29.5t40.5 70.5l409 1291h227l496 -1295q17 -43 45 -64t80 -32zM684 1540
q-130 0 -216.5 89.5t-96.5 236.5h6q88 -117 307 -117q218 0 307 125h6q-6 -147 -90 -240.5t-223 -93.5zM616 1833l72 342h426v-4l-489 -338h-9z" />
    <glyph glyph-name="uni1EAF" unicode="&#x1eaf;" horiz-adv-x="1075" 
d="M451 139q80 0 157 84v244q-45 10 -73 10q-86 0 -141.5 -56t-55.5 -142q0 -66 29.5 -103t83.5 -37zM1087 152l7 -9q-19 -54 -65.5 -92.5t-97 -54.5t-100.5 -16q-102 0 -162.5 53.5t-60.5 150.5v9q-125 -213 -332 -213q-111 0 -179 65.5t-68 165.5q0 127 142.5 207
t436.5 104v264q0 57 -14 102t-36 72.5t-51 45.5t-56.5 25t-55.5 7q-84 0 -108.5 -88t-3.5 -288q-94 -11 -154.5 30.5t-60.5 102.5q0 75 88.5 159t226 140.5t266.5 56.5q284 0 281 -346l-8 -621q0 -27 11 -39t42 -12t112 19zM522 1257q-128 0 -214.5 89.5t-96.5 236.5h6
q88 -117 305 -117q220 0 309 125h7q-6 -146 -91.5 -240t-224.5 -94zM457 1550l71 342h426v-4l-489 -338h-8z" />
    <glyph glyph-name="uni1EB0" unicode="&#x1eb0;" horiz-adv-x="1394" 
d="M766 518l-238 647l-206 -647h444zM1409 43l41 -6v-37h-662v37l48 6q58 7 72 29t-5 69l-123 336h-471l-106 -334q-14 -50 8.5 -71.5t99.5 -28.5l64 -6v-37h-385v37l39 6q55 8 82.5 29.5t40.5 70.5l409 1291h227l496 -1295q17 -43 45 -64t80 -32zM754 1833l-488 338v4h426
l70 -342h-8zM684 1540q-130 0 -216.5 89.5t-96.5 236.5h6q88 -117 307 -117q218 0 307 125h6q-6 -147 -90 -240.5t-223 -93.5z" />
    <glyph glyph-name="uni1EB1" unicode="&#x1eb1;" horiz-adv-x="1075" 
d="M451 139q80 0 157 84v244q-45 10 -73 10q-86 0 -141.5 -56t-55.5 -142q0 -66 29.5 -103t83.5 -37zM1087 152l7 -9q-19 -54 -65.5 -92.5t-97 -54.5t-100.5 -16q-102 0 -162.5 53.5t-60.5 150.5v9q-125 -213 -332 -213q-111 0 -179 65.5t-68 165.5q0 127 142.5 207
t436.5 104v264q0 57 -14 102t-36 72.5t-51 45.5t-56.5 25t-55.5 7q-84 0 -108.5 -88t-3.5 -288q-94 -11 -154.5 30.5t-60.5 102.5q0 75 88.5 159t226 140.5t266.5 56.5q284 0 281 -346l-8 -621q0 -27 11 -39t42 -12t112 19zM594 1550l-488 338v4h426l70 -342h-8zM522 1257
q-128 0 -214.5 89.5t-96.5 236.5h6q88 -117 305 -117q220 0 309 125h7q-6 -146 -91.5 -240t-224.5 -94z" />
    <glyph glyph-name="uni1EB2" unicode="&#x1eb2;" horiz-adv-x="1394" 
d="M766 518l-238 647l-206 -647h444zM1409 43l41 -6v-37h-662v37l48 6q58 7 72 29t-5 69l-123 336h-471l-106 -334q-14 -50 8.5 -71.5t99.5 -28.5l64 -6v-37h-385v37l39 6q55 8 82.5 29.5t40.5 70.5l409 1291h227l496 -1295q17 -43 45 -64t80 -32zM684 1540
q-130 0 -216.5 89.5t-96.5 236.5h6q88 -117 307 -117q218 0 307 125h6q-6 -147 -90 -240.5t-223 -93.5zM713 2349q132 0 204 -53.5t72 -145.5q0 -80 -70.5 -145t-205.5 -90l-23 -82h-12l-35 197q124 30 171.5 78t47.5 110q0 24 -17 40.5t-50 16.5q-41 0 -90.5 -26
t-129.5 -82q-11 18 -22.5 49t-11.5 43q0 42 44 66t128 24z" />
    <glyph glyph-name="uni1EB3" unicode="&#x1eb3;" horiz-adv-x="1075" 
d="M451 139q80 0 157 84v244q-45 10 -73 10q-86 0 -141.5 -56t-55.5 -142q0 -66 29.5 -103t83.5 -37zM1087 152l7 -9q-19 -54 -65.5 -92.5t-97 -54.5t-100.5 -16q-102 0 -162.5 53.5t-60.5 150.5v9q-125 -213 -332 -213q-111 0 -179 65.5t-68 165.5q0 127 142.5 207
t436.5 104v264q0 57 -14 102t-36 72.5t-51 45.5t-56.5 25t-55.5 7q-84 0 -108.5 -88t-3.5 -288q-94 -11 -154.5 30.5t-60.5 102.5q0 75 88.5 159t226 140.5t266.5 56.5q284 0 281 -346l-8 -621q0 -27 11 -39t42 -12t112 19zM522 1257q-128 0 -214.5 89.5t-96.5 236.5h6
q88 -117 305 -117q220 0 309 125h7q-6 -146 -91.5 -240t-224.5 -94zM553 2066q132 0 204 -53t72 -145q0 -80 -71 -145.5t-205 -90.5l-23 -82h-12l-35 197q124 30 171.5 78t47.5 110q0 24 -17 41t-50 17q-29 0 -67 -16.5t-67 -35t-85 -57.5q-11 18 -23 49t-12 43q0 42 44 66
t128 24z" />
    <glyph glyph-name="uni1EB4" unicode="&#x1eb4;" horiz-adv-x="1394" 
d="M766 518l-238 647l-206 -647h444zM1409 43l41 -6v-37h-662v37l48 6q58 7 72 29t-5 69l-123 336h-471l-106 -334q-14 -50 8.5 -71.5t99.5 -28.5l64 -6v-37h-385v37l39 6q55 8 82.5 29.5t40.5 70.5l409 1291h227l496 -1295q17 -43 45 -64t80 -32zM684 1540
q-130 0 -216.5 89.5t-96.5 236.5h6q88 -117 307 -117q218 0 307 125h6q-6 -147 -90 -240.5t-223 -93.5zM852 1917q-44 0 -98 17.5t-96 38t-89.5 38t-79.5 17.5q-40 0 -66 -16.5t-52 -51.5l-11 2q18 128 74 201t152 73q55 0 125.5 -29.5t135.5 -59t107 -29.5q75 0 117 73
l10 -2q-11 -117 -71 -194.5t-158 -77.5z" />
    <glyph glyph-name="uni1EB5" unicode="&#x1eb5;" horiz-adv-x="1075" 
d="M451 139q80 0 157 84v244q-45 10 -73 10q-86 0 -141.5 -56t-55.5 -142q0 -66 29.5 -103t83.5 -37zM1087 152l7 -9q-19 -54 -65.5 -92.5t-97 -54.5t-100.5 -16q-102 0 -162.5 53.5t-60.5 150.5v9q-125 -213 -332 -213q-111 0 -179 65.5t-68 165.5q0 127 142.5 207
t436.5 104v264q0 57 -14 102t-36 72.5t-51 45.5t-56.5 25t-55.5 7q-84 0 -108.5 -88t-3.5 -288q-94 -11 -154.5 30.5t-60.5 102.5q0 75 88.5 159t226 140.5t266.5 56.5q284 0 281 -346l-8 -621q0 -27 11 -39t42 -12t112 19zM522 1257q-128 0 -214.5 89.5t-96.5 236.5h6
q88 -117 305 -117q220 0 309 125h7q-6 -146 -91.5 -240t-224.5 -94zM692 1634q-55 0 -125 28t-133.5 55.5t-103.5 27.5t-66.5 -17t-52.5 -51l-10 2q18 128 73.5 201.5t151.5 73.5q55 0 126 -30t136 -59.5t107 -29.5q73 0 116 74l11 -2q-11 -117 -71.5 -195t-158.5 -78z" />
    <glyph glyph-name="uni1EB6" unicode="&#x1eb6;" horiz-adv-x="1394" 
d="M766 518l-238 647l-206 -647h444zM1409 43l41 -6v-37h-662v37l48 6q58 7 72 29t-5 69l-123 336h-471l-106 -334q-14 -50 8.5 -71.5t99.5 -28.5l64 -6v-37h-385v37l39 6q55 8 82.5 29.5t40.5 70.5l409 1291h227l496 -1295q17 -43 45 -64t80 -32zM696 1561
q-128 0 -214.5 89t-96.5 236h4q95 -117 307 -117q221 0 310 125h4q-6 -146 -90.5 -239.5t-223.5 -93.5zM596 -467q-72 0 -120 47.5t-48 116.5q0 71 48 118.5t120 47.5t121 -48t49 -118q0 -69 -49 -116.5t-121 -47.5z" />
    <glyph glyph-name="uni1EB7" unicode="&#x1eb7;" horiz-adv-x="1075" 
d="M451 139q80 0 157 84v244q-45 10 -73 10q-86 0 -141.5 -56t-55.5 -142q0 -66 29.5 -103t83.5 -37zM1087 152l7 -9q-19 -54 -65.5 -92.5t-97 -54.5t-100.5 -16q-102 0 -162.5 53.5t-60.5 150.5v9q-125 -213 -332 -213q-111 0 -179 65.5t-68 165.5q0 127 142.5 207
t436.5 104v264q0 57 -14 102t-36 72.5t-51 45.5t-56.5 25t-55.5 7q-84 0 -108.5 -88t-3.5 -288q-94 -11 -154.5 30.5t-60.5 102.5q0 75 88.5 159t226 140.5t266.5 56.5q284 0 281 -346l-8 -621q0 -27 11 -39t42 -12t112 19zM537 1257q-128 0 -215 89.5t-97 236.5h4
q95 -117 308 -117q220 0 309 125h4q-6 -147 -90 -240.5t-223 -93.5zM508 -467q-72 0 -120 47.5t-48 116.5q0 71 48 118.5t120 47.5t121 -48t49 -118q0 -69 -49 -116.5t-121 -47.5z" />
    <glyph glyph-name="uni1EB8" unicode="&#x1eb8;" horiz-adv-x="1292" 
d="M713 -467q-72 0 -120 47.5t-48 116.5q0 71 48 118.5t120 47.5t121 -48t49 -118q0 -69 -49 -116.5t-121 -47.5zM1235 471h27l-66 -471h-1155v37l53 6q58 6 85.5 28.5t27.5 75.5v1139q0 53 -27.5 76t-85.5 29l-53 6v37h1067l72 -449l-23 -6q-30 83 -70.5 152t-98.5 130.5
t-138 96.5t-174 35h-117v-650h90q91 0 146 68t88 213h20v-602h-20q-23 147 -78.5 213.5t-155.5 66.5h-90v-661h125q112 0 197 21t156 69.5t120 132.5t78 207z" />
    <glyph glyph-name="uni1EB9" unicode="&#x1eb9;" horiz-adv-x="1058" 
d="M594 1110q-83 0 -133.5 -97t-61.5 -257h349q-1 184 -38.5 269t-115.5 85zM1020 309l12 -8q-51 -146 -176 -233.5t-283 -87.5q-231 0 -375.5 158t-144.5 415q0 258 152.5 428t382.5 170q198 0 309 -120.5t111 -315.5h-613v-51q0 -234 97.5 -357t257.5 -123q76 0 149 32.5
t121 92.5zM569 -487q-72 0 -120 47t-48 116q0 71 48 118.5t120 47.5t121 -48t49 -118q0 -69 -49 -116t-121 -47z" />
    <glyph glyph-name="uni1EBA" unicode="&#x1eba;" horiz-adv-x="1292" 
d="M725 2030q132 0 204 -53.5t72 -145.5q0 -80 -71 -145.5t-205 -90.5l-23 -82h-12l-35 197q124 30 171.5 78t47.5 110q0 24 -17 41t-50 17q-29 0 -67 -16.5t-67 -35t-85 -57.5q-11 18 -23 49t-12 43q0 42 44 66.5t128 24.5zM1235 471h27l-66 -471h-1155v37l53 6
q58 6 85.5 28.5t27.5 75.5v1139q0 53 -27.5 76t-85.5 29l-53 6v37h1067l72 -449l-23 -6q-30 83 -70.5 152t-98.5 130.5t-138 96.5t-174 35h-117v-650h90q91 0 146 68t88 213h20v-602h-20q-23 147 -78.5 213.5t-155.5 66.5h-90v-661h125q112 0 197 21t156 69.5t120 132.5
t78 207z" />
    <glyph glyph-name="uni1EBB" unicode="&#x1ebb;" horiz-adv-x="1058" 
d="M594 1110q-83 0 -133.5 -97t-61.5 -257h349q-1 184 -38.5 269t-115.5 85zM1020 309l12 -8q-51 -146 -176 -233.5t-283 -87.5q-231 0 -375.5 158t-144.5 415q0 258 152.5 428t382.5 170q198 0 309 -120.5t111 -315.5h-613v-51q0 -234 97.5 -357t257.5 -123q76 0 149 32.5
t121 92.5zM621 1751q132 0 204 -53.5t72 -145.5q0 -80 -70.5 -145t-205.5 -90l-23 -82h-12l-35 197q124 30 171.5 78t47.5 110q0 24 -17.5 40.5t-50.5 16.5q-41 0 -89.5 -26t-129.5 -82q-11 18 -22.5 49t-11.5 43q0 42 44 66t128 24z" />
    <glyph glyph-name="uni1EBC" unicode="&#x1ebc;" horiz-adv-x="1292" 
d="M426 1634q-40 0 -66.5 -16.5t-52.5 -50.5l-10 2q18 128 73.5 201t151.5 73q55 0 125.5 -30t135 -59.5t106.5 -29.5q44 0 70 18.5t49 55.5l10 -2q-11 -117 -71.5 -194.5t-158.5 -77.5q-56 0 -125.5 27.5t-133 55t-103.5 27.5zM1235 471h27l-66 -471h-1155v37l53 6
q58 6 85.5 28.5t27.5 75.5v1139q0 53 -27.5 76t-85.5 29l-53 6v37h1067l72 -449l-23 -6q-30 83 -70.5 152t-98.5 130.5t-138 96.5t-174 35h-117v-650h90q91 0 146 68t88 213h20v-602h-20q-23 147 -78.5 213.5t-155.5 66.5h-90v-661h125q112 0 197 21t156 69.5t120 132.5
t78 207z" />
    <glyph glyph-name="uni1EBD" unicode="&#x1ebd;" horiz-adv-x="1058" 
d="M594 1110q-83 0 -133.5 -97t-61.5 -257h349q-1 184 -38.5 269t-115.5 85zM1020 309l12 -8q-51 -146 -176 -233.5t-283 -87.5q-231 0 -375.5 158t-144.5 415q0 258 152.5 428t382.5 170q198 0 309 -120.5t111 -315.5h-613v-51q0 -234 97.5 -357t257.5 -123q76 0 149 32.5
t121 92.5zM723 1262q-56 0 -126 27.5t-133.5 55t-103.5 27.5t-66 -16.5t-52 -50.5l-11 2q18 128 74 201t152 73q44 0 98.5 -18.5t96.5 -41t90.5 -41t82.5 -18.5q74 0 117 74l10 -2q-11 -117 -71 -194.5t-158 -77.5z" />
    <glyph glyph-name="uni1EBE" unicode="&#x1ebe;" horiz-adv-x="1292" 
d="M989 2042h426v-4l-489 -338h-8zM1235 471h27l-66 -471h-1155v37l53 6q58 6 85.5 28.5t27.5 75.5v1139q0 53 -27.5 76t-85.5 29l-53 6v37h1067l72 -449l-23 -6q-30 83 -70.5 152t-98.5 130.5t-138 96.5t-174 35h-117v-650h90q91 0 146 68t88 213h20v-602h-20
q-23 147 -78.5 213.5t-155.5 66.5h-90v-661h125q112 0 197 21t156 69.5t120 132.5t78 207zM987 1511l-328 119l-327 -119l-6 7l331 358h5l331 -354z" />
    <glyph glyph-name="uni1EBF" unicode="&#x1ebf;" horiz-adv-x="1058" 
d="M594 1110q-83 0 -133.5 -97t-61.5 -257h349q-1 184 -38.5 269t-115.5 85zM1020 309l12 -8q-51 -146 -176 -233.5t-283 -87.5q-231 0 -375.5 158t-144.5 415q0 258 152.5 428t382.5 170q198 0 309 -120.5t111 -315.5h-613v-51q0 -234 97.5 -357t257.5 -123q76 0 149 32.5
t121 92.5zM918 1243l-7 -10l-327 119l-330 -119l-6 6l334 358h4zM842 1421l71 342h426v-4l-489 -338h-8z" />
    <glyph glyph-name="uni1EC0" unicode="&#x1ec0;" horiz-adv-x="1292" 
d="M616 2042h426l72 -342h-8l-490 338v4zM1235 471h27l-66 -471h-1155v37l53 6q58 6 85.5 28.5t27.5 75.5v1139q0 53 -27.5 76t-85.5 29l-53 6v37h1067l72 -449l-23 -6q-30 83 -70.5 152t-98.5 130.5t-138 96.5t-174 35h-117v-650h90q91 0 146 68t88 213h20v-602h-20
q-23 147 -78.5 213.5t-155.5 66.5h-90v-661h125q112 0 197 21t156 69.5t120 132.5t78 207zM987 1511l-328 119l-327 -119l-6 7l331 358h5l331 -354z" />
    <glyph glyph-name="uni1EC1" unicode="&#x1ec1;" horiz-adv-x="1058" 
d="M594 1110q-83 0 -133.5 -97t-61.5 -257h349q-1 184 -38.5 269t-115.5 85zM1020 309l12 -8q-51 -146 -176 -233.5t-283 -87.5q-231 0 -375.5 158t-144.5 415q0 258 152.5 428t382.5 170q198 0 309 -120.5t111 -315.5h-613v-51q0 -234 97.5 -357t257.5 -123q76 0 149 32.5
t121 92.5zM918 1243l-7 -10l-327 119l-330 -119l-6 6l334 358h4zM541 1759v4h426l71 -342h-8z" />
    <glyph glyph-name="uni1EC2" unicode="&#x1ec2;" horiz-adv-x="1292" 
d="M977 2216q132 0 204 -53.5t72 -145.5q0 -80 -70.5 -145t-205.5 -90l-23 -82h-12l-35 196q124 30 171.5 78t47.5 111q0 24 -17 40.5t-50 16.5q-41 0 -89.5 -26t-129.5 -82q-11 18 -23 49t-12 43q0 42 44 66t128 24zM1235 471h27l-66 -471h-1155v37l53 6q58 6 85.5 28.5
t27.5 75.5v1139q0 53 -27.5 76t-85.5 29l-53 6v37h1067l72 -449l-23 -6q-30 83 -70.5 152t-98.5 130.5t-138 96.5t-174 35h-117v-650h90q91 0 146 68t88 213h20v-602h-20q-23 147 -78.5 213.5t-155.5 66.5h-90v-661h125q112 0 197 21t156 69.5t120 132.5t78 207zM987 1511
l-328 119l-327 -119l-6 7l331 358h5l331 -354z" />
    <glyph glyph-name="uni1EC3" unicode="&#x1ec3;" horiz-adv-x="1058" 
d="M594 1110q-83 0 -133.5 -97t-61.5 -257h349q-1 184 -38.5 269t-115.5 85zM1020 309l12 -8q-51 -146 -176 -233.5t-283 -87.5q-231 0 -375.5 158t-144.5 415q0 258 152.5 428t382.5 170q198 0 309 -120.5t111 -315.5h-613v-51q0 -234 97.5 -357t257.5 -123q76 0 149 32.5
t121 92.5zM918 1243l-7 -10l-327 119l-330 -119l-6 6l334 358h4zM901 1937q132 0 204.5 -53t72.5 -145q0 -80 -71 -145.5t-206 -90.5l-22 -82h-13l-35 197q124 30 172 78t48 110q0 24 -17.5 41t-50.5 17q-29 0 -67 -16.5t-67 -35t-85 -57.5q-11 18 -23 49t-12 43q0 42 44 66
t128 24z" />
    <glyph glyph-name="uni1EC4" unicode="&#x1ec4;" horiz-adv-x="1292" 
d="M829 1935q-55 0 -125 27.5t-133.5 55.5t-103.5 28t-66.5 -17t-52.5 -51l-10 2q18 128 73.5 201.5t151.5 73.5q44 0 98.5 -18.5t97 -41t91 -41t82.5 -18.5q74 0 117 74l10 -2q-11 -117 -71.5 -195t-158.5 -78zM1235 471h27l-66 -471h-1155v37l53 6q58 6 85.5 28.5
t27.5 75.5v1139q0 53 -27.5 76t-85.5 29l-53 6v37h1067l72 -449l-23 -6q-30 83 -70.5 152t-98.5 130.5t-138 96.5t-174 35h-117v-650h90q91 0 146 68t88 213h20v-602h-20q-23 147 -78.5 213.5t-155.5 66.5h-90v-661h125q112 0 197 21t156 69.5t120 132.5t78 207zM987 1511
l-328 119l-327 -119l-6 7l331 358h5l331 -354z" />
    <glyph glyph-name="uni1EC5" unicode="&#x1ec5;" horiz-adv-x="1058" 
d="M594 1110q-83 0 -133.5 -97t-61.5 -257h349q-1 184 -38.5 269t-115.5 85zM1020 309l12 -8q-51 -146 -176 -233.5t-283 -87.5q-231 0 -375.5 158t-144.5 415q0 258 152.5 428t382.5 170q198 0 309 -120.5t111 -315.5h-613v-51q0 -234 97.5 -357t257.5 -123q76 0 149 32.5
t121 92.5zM918 1243l-7 -10l-327 119l-330 -119l-6 6l334 358h4zM754 1657q-56 0 -126 27.5t-133.5 55t-103.5 27.5t-66.5 -16.5t-52.5 -50.5l-10 2q18 128 73.5 201t151.5 73q55 0 126 -29.5t136 -59t107 -29.5q75 0 117 73l10 -2q-11 -117 -71 -194.5t-158 -77.5z" />
    <glyph glyph-name="uni1EC6" unicode="&#x1ec6;" horiz-adv-x="1292" 
d="M713 -467q-72 0 -120 47.5t-48 116.5q0 71 48 118.5t120 47.5t121 -48t49 -118q0 -69 -49 -116.5t-121 -47.5zM1235 471h27l-66 -471h-1155v37l53 6q58 6 85.5 28.5t27.5 75.5v1139q0 53 -27.5 76t-85.5 29l-53 6v37h1067l72 -449l-23 -6q-30 83 -70.5 152t-98.5 130.5
t-138 96.5t-174 35h-117v-650h90q91 0 146 68t88 213h20v-602h-20q-23 147 -78.5 213.5t-155.5 66.5h-90v-661h125q112 0 197 21t156 69.5t120 132.5t78 207zM987 1511l-328 119l-327 -119l-6 7l331 358h5l331 -354z" />
    <glyph glyph-name="uni1EC7" unicode="&#x1ec7;" horiz-adv-x="1058" 
d="M594 1110q-83 0 -133.5 -97t-61.5 -257h349q-1 184 -38.5 269t-115.5 85zM1020 309l12 -8q-51 -146 -176 -233.5t-283 -87.5q-231 0 -375.5 158t-144.5 415q0 258 152.5 428t382.5 170q198 0 309 -120.5t111 -315.5h-613v-51q0 -234 97.5 -357t257.5 -123q76 0 149 32.5
t121 92.5zM918 1243l-7 -10l-327 119l-330 -119l-6 6l334 358h4zM569 -487q-72 0 -120 47t-48 116q0 71 48 118.5t120 47.5t121 -48t49 -118q0 -69 -49 -116t-121 -47z" />
    <glyph glyph-name="uni1EC8" unicode="&#x1ec8;" horiz-adv-x="765" 
d="M412 2030q132 0 204 -53.5t72 -145.5q0 -80 -71 -145.5t-205 -90.5l-23 -82h-12l-35 197q124 30 171.5 78t47.5 110q0 24 -17 41t-50 17q-41 0 -89.5 -26t-130.5 -83q-11 18 -22.5 49t-11.5 43q0 42 44 66.5t128 24.5zM725 0h-684v37l53 6q59 8 86 30t27 74v1139
q0 52 -27 74.5t-86 30.5l-53 6v37h684v-37l-53 -6q-59 -8 -86 -30.5t-27 -74.5v-1139q0 -52 27 -74t86 -30l53 -6v-37z" />
    <glyph glyph-name="uni1EC9" unicode="&#x1ec9;" horiz-adv-x="641" 
d="M369 1751q132 0 204 -53.5t72 -145.5q0 -80 -70.5 -145t-205.5 -90l-23 -82h-12l-35 197q124 30 171.5 78t47.5 110q0 24 -17 40.5t-50 16.5q-41 0 -90.5 -26t-129.5 -82q-11 18 -22.5 49t-11.5 43q0 42 44 66t128 24zM618 0h-589v37l41 6q48 8 69 29.5t21 74.5v758
l-131 113v4l452 129h4v-1004q0 -52 22.5 -74t70.5 -30l40 -6v-37z" />
    <glyph glyph-name="uni1ECA" unicode="&#x1eca;" horiz-adv-x="765" 
d="M383 -467q-72 0 -120 47.5t-48 116.5q0 71 48 118.5t120 47.5t121 -48t49 -118q0 -69 -49 -116.5t-121 -47.5zM725 0h-684v37l53 6q59 8 86 30t27 74v1139q0 52 -27 74.5t-86 30.5l-53 6v37h684v-37l-53 -6q-59 -8 -86 -30.5t-27 -74.5v-1139q0 -52 27 -74t86 -30l53 -6
v-37z" />
    <glyph glyph-name="uni1ECB" unicode="&#x1ecb;" horiz-adv-x="641" 
d="M324 -467q-72 0 -120 47.5t-48 116.5q0 71 48 118.5t120 47.5t121 -48t49 -118q0 -69 -49 -116.5t-121 -47.5zM618 0h-589v37l41 6q48 8 69 29.5t21 74.5v758l-131 113v4l452 129h4v-1004q0 -52 22.5 -74t70.5 -30l40 -6v-37zM324 1247q-78 0 -129.5 48.5t-51.5 121.5
q0 75 51.5 124.5t129.5 49.5t127 -49.5t49 -124.5q0 -74 -49 -122t-127 -48z" />
    <glyph glyph-name="uni1ECC" unicode="&#x1ecc;" horiz-adv-x="1531" 
d="M766 18q160 0 246 178t86 521q0 345 -86 521.5t-246 176.5q-158 0 -245 -177.5t-87 -520.5q0 -341 87.5 -520t244.5 -179zM766 1454q152 0 282.5 -54t223.5 -150t145.5 -233.5t52.5 -299.5t-52.5 -299.5t-145.5 -233.5t-223.5 -150t-282.5 -54q-207 0 -368.5 96
t-249 263.5t-87.5 377.5q0 206 85 373t247 265.5t373 98.5zM766 -487q-72 0 -120 47t-48 116q0 71 48 118.5t120 47.5t121 -48t49 -118q0 -69 -49 -116t-121 -47z" />
    <glyph glyph-name="uni1ECD" unicode="&#x1ecd;" horiz-adv-x="1222" 
d="M610 -487q-72 0 -120 47t-48 116q0 71 48 118.5t120 47.5t121 -48t49 -118q0 -69 -49 -116t-121 -47zM610 1151q244 0 401.5 -163.5t157.5 -420.5q0 -260 -157.5 -423.5t-401.5 -163.5t-400.5 163.5t-156.5 423.5q0 257 156.5 420.5t400.5 163.5zM610 14q203 0 203 553
q0 549 -203 549q-202 0 -202 -549q0 -553 202 -553z" />
    <glyph glyph-name="uni1ECE" unicode="&#x1ece;" horiz-adv-x="1531" 
d="M766 18q160 0 246 178t86 521q0 345 -86 521.5t-246 176.5q-158 0 -245 -177.5t-87 -520.5q0 -341 87.5 -520t244.5 -179zM766 1454q152 0 282.5 -54t223.5 -150t145.5 -233.5t52.5 -299.5t-52.5 -299.5t-145.5 -233.5t-223.5 -150t-282.5 -54q-207 0 -368.5 96
t-249 263.5t-87.5 377.5q0 206 85 373t247 265.5t373 98.5zM795 2030q132 0 204 -53.5t72 -145.5q0 -80 -71 -145.5t-205 -90.5l-23 -82h-12l-35 197q124 30 171.5 78t47.5 110q0 24 -17 41t-50 17q-41 0 -89.5 -26t-130.5 -83q-11 18 -22.5 49t-11.5 43q0 42 44 66.5
t128 24.5z" />
    <glyph glyph-name="uni1ECF" unicode="&#x1ecf;" horiz-adv-x="1222" 
d="M610 14q203 0 203 553q0 549 -203 549q-202 0 -202 -549q0 -553 202 -553zM610 1151q244 0 401.5 -163.5t157.5 -420.5q0 -260 -157.5 -423.5t-401.5 -163.5t-400.5 163.5t-156.5 423.5q0 257 156.5 420.5t400.5 163.5zM641 1751q132 0 204.5 -53.5t72.5 -145.5
q0 -80 -71 -145t-206 -90l-23 -82h-12l-35 197q124 30 172 78t48 110q0 24 -17.5 40.5t-50.5 16.5q-41 0 -89.5 -26t-129.5 -82q-11 18 -23 49t-12 43q0 42 44 66t128 24z" />
    <glyph glyph-name="uni1ED0" unicode="&#x1ed0;" horiz-adv-x="1531" 
d="M766 18q160 0 246 178t86 521q0 345 -86 521.5t-246 176.5q-158 0 -245 -177.5t-87 -520.5q0 -341 87.5 -520t244.5 -179zM766 1454q152 0 282.5 -54t223.5 -150t145.5 -233.5t52.5 -299.5t-52.5 -299.5t-145.5 -233.5t-223.5 -150t-282.5 -54q-207 0 -368.5 96
t-249 263.5t-87.5 377.5q0 206 85 373t247 265.5t373 98.5zM1094 1511l-328 119l-330 -119l-6 7l334 358h4l332 -354zM1024 1700l72 342h426v-4l-490 -338h-8z" />
    <glyph glyph-name="uni1ED1" unicode="&#x1ed1;" horiz-adv-x="1222" 
d="M610 14q203 0 203 553q0 549 -203 549q-202 0 -202 -549q0 -553 202 -553zM610 1151q244 0 401.5 -163.5t157.5 -420.5q0 -260 -157.5 -423.5t-401.5 -163.5t-400.5 163.5t-156.5 423.5q0 257 156.5 420.5t400.5 163.5zM940 1233l-328 119l-329 -119l-7 6l334 358h4
l332 -354zM870 1421l72 342h426v-4l-489 -338h-9z" />
    <glyph glyph-name="uni1ED2" unicode="&#x1ed2;" horiz-adv-x="1531" 
d="M766 18q160 0 246 178t86 521q0 345 -86 521.5t-246 176.5q-158 0 -245 -177.5t-87 -520.5q0 -341 87.5 -520t244.5 -179zM766 1454q152 0 282.5 -54t223.5 -150t145.5 -233.5t52.5 -299.5t-52.5 -299.5t-145.5 -233.5t-223.5 -150t-282.5 -54q-207 0 -368.5 96
t-249 263.5t-87.5 377.5q0 206 85 373t247 265.5t373 98.5zM1094 1511l-328 119l-330 -119l-6 7l334 358h4l332 -354zM723 2038v4h426l72 -342h-9z" />
    <glyph glyph-name="uni1ED3" unicode="&#x1ed3;" horiz-adv-x="1222" 
d="M610 14q203 0 203 553q0 549 -203 549q-202 0 -202 -549q0 -553 202 -553zM610 1151q244 0 401.5 -163.5t157.5 -420.5q0 -260 -157.5 -423.5t-401.5 -163.5t-400.5 163.5t-156.5 423.5q0 257 156.5 420.5t400.5 163.5zM940 1233l-328 119l-329 -119l-7 6l334 358h4
l332 -354zM569 1759v4h426l72 -342h-8z" />
    <glyph glyph-name="uni1ED4" unicode="&#x1ed4;" horiz-adv-x="1531" 
d="M766 18q160 0 246 178t86 521q0 345 -86 521.5t-246 176.5q-158 0 -245 -177.5t-87 -520.5q0 -341 87.5 -520t244.5 -179zM766 1454q152 0 282.5 -54t223.5 -150t145.5 -233.5t52.5 -299.5t-52.5 -299.5t-145.5 -233.5t-223.5 -150t-282.5 -54q-207 0 -368.5 96
t-249 263.5t-87.5 377.5q0 206 85 373t247 265.5t373 98.5zM1094 1511l-328 119l-330 -119l-6 7l334 358h4l332 -354zM1083 2216q132 0 204.5 -53.5t72.5 -145.5q0 -80 -71 -145t-206 -90l-22 -82h-12l-35 196q124 30 171.5 78t47.5 111q0 24 -17.5 40.5t-50.5 16.5
q-41 0 -89.5 -26t-129.5 -82q-11 18 -23 49t-12 43q0 42 44 66t128 24z" />
    <glyph glyph-name="uni1ED5" unicode="&#x1ed5;" horiz-adv-x="1222" 
d="M610 14q203 0 203 553q0 549 -203 549q-202 0 -202 -549q0 -553 202 -553zM610 1151q244 0 401.5 -163.5t157.5 -420.5q0 -260 -157.5 -423.5t-401.5 -163.5t-400.5 163.5t-156.5 423.5q0 257 156.5 420.5t400.5 163.5zM940 1233l-328 119l-329 -119l-7 6l334 358h4
l332 -354zM930 1937q132 0 204 -53t72 -145q0 -80 -71 -145.5t-205 -90.5l-23 -82h-12l-35 197q124 30 171.5 78t47.5 110q0 24 -17 41t-50 17q-29 0 -67 -16.5t-67 -35t-85 -57.5q-11 18 -23 49t-12 43q0 42 44 66t128 24z" />
    <glyph glyph-name="uni1ED6" unicode="&#x1ed6;" horiz-adv-x="1531" 
d="M766 18q160 0 246 178t86 521q0 345 -86 521.5t-246 176.5q-158 0 -245 -177.5t-87 -520.5q0 -341 87.5 -520t244.5 -179zM766 1454q152 0 282.5 -54t223.5 -150t145.5 -233.5t52.5 -299.5t-52.5 -299.5t-145.5 -233.5t-223.5 -150t-282.5 -54q-207 0 -368.5 96
t-249 263.5t-87.5 377.5q0 206 85 373t247 265.5t373 98.5zM1094 1511l-328 119l-330 -119l-6 7l334 358h4l332 -354zM936 1935q-44 0 -98 17.5t-96 38t-89.5 38t-79.5 17.5q-40 0 -66 -16.5t-52 -51.5l-11 2q18 128 74 201.5t152 73.5q55 0 125.5 -29.5t135.5 -59.5
t107 -30q74 0 117 74l10 -2q-11 -117 -71 -195t-158 -78z" />
    <glyph glyph-name="uni1ED7" unicode="&#x1ed7;" horiz-adv-x="1222" 
d="M610 14q203 0 203 553q0 549 -203 549q-202 0 -202 -549q0 -553 202 -553zM610 1151q244 0 401.5 -163.5t157.5 -420.5q0 -260 -157.5 -423.5t-401.5 -163.5t-400.5 163.5t-156.5 423.5q0 257 156.5 420.5t400.5 163.5zM940 1233l-328 119l-329 -119l-7 6l334 358h4
l332 -354zM782 1657q-56 0 -125.5 27.5t-133 55t-103.5 27.5t-66.5 -16.5t-52.5 -50.5l-10 2q18 128 73.5 201t151.5 73q55 0 126 -29.5t136 -59t107 -29.5q74 0 116 73l11 -2q-11 -117 -71.5 -194.5t-158.5 -77.5z" />
    <glyph glyph-name="uni1ED8" unicode="&#x1ed8;" horiz-adv-x="1531" 
d="M766 18q160 0 246 178t86 521q0 345 -86 521.5t-246 176.5q-158 0 -245 -177.5t-87 -520.5q0 -341 87.5 -520t244.5 -179zM766 1454q152 0 282.5 -54t223.5 -150t145.5 -233.5t52.5 -299.5t-52.5 -299.5t-145.5 -233.5t-223.5 -150t-282.5 -54q-207 0 -368.5 96
t-249 263.5t-87.5 377.5q0 206 85 373t247 265.5t373 98.5zM1094 1511l-328 119l-330 -119l-6 7l334 358h4l332 -354zM766 -487q-72 0 -120 47t-48 116q0 71 48 118.5t120 47.5t121 -48t49 -118q0 -69 -49 -116t-121 -47z" />
    <glyph glyph-name="uni1ED9" unicode="&#x1ed9;" horiz-adv-x="1222" 
d="M610 14q203 0 203 553q0 549 -203 549q-202 0 -202 -549q0 -553 202 -553zM610 1151q244 0 401.5 -163.5t157.5 -420.5q0 -260 -157.5 -423.5t-401.5 -163.5t-400.5 163.5t-156.5 423.5q0 257 156.5 420.5t400.5 163.5zM940 1233l-328 119l-329 -119l-7 6l334 358h4
l332 -354zM610 -487q-72 0 -120 47t-48 116q0 71 48 118.5t120 47.5t121 -48t49 -118q0 -69 -49 -116t-121 -47z" />
    <glyph glyph-name="uni1EDA" unicode="&#x1eda;" horiz-adv-x="1531" 
d="M766 18q160 0 246 178t86 521q0 345 -86 521.5t-246 176.5q-158 0 -245 -177.5t-87 -520.5q0 -341 87.5 -520t244.5 -179zM766 1454q292 0 489 -188q91 59 91 120q0 45 -43.5 88.5t-114.5 63.5q0 61 43 102t100 41q70 0 113 -45t43 -114q0 -83 -54 -158t-153 -125
q190 -206 190 -522q0 -162 -52.5 -299.5t-145.5 -233.5t-223.5 -150t-282.5 -54q-207 0 -368.5 96t-249 263.5t-87.5 377.5q0 206 85 373t247 265.5t373 98.5zM702 1518l72 342h426v-5l-489 -337h-9z" />
    <glyph glyph-name="uni1EDB" unicode="&#x1edb;" horiz-adv-x="1222" 
d="M610 14q203 0 203 553q0 549 -203 549q-202 0 -202 -549q0 -553 202 -553zM610 1151q124 0 230 -45.5t182 -128.5q98 61 98 127q0 45 -43 88t-114 63q0 61 43 102.5t100 41.5q69 0 112.5 -45.5t43.5 -114.5q0 -86 -57.5 -162t-162.5 -127q127 -156 127 -383
q0 -260 -157.5 -423.5t-401.5 -163.5t-400.5 163.5t-156.5 423.5q0 257 156.5 420.5t400.5 163.5zM549 1237l69 342h426v-4l-487 -338h-8z" />
    <glyph glyph-name="uni1EDC" unicode="&#x1edc;" horiz-adv-x="1531" 
d="M766 18q160 0 246 178t86 521q0 345 -86 521.5t-246 176.5q-158 0 -245 -177.5t-87 -520.5q0 -341 87.5 -520t244.5 -179zM766 1454q292 0 489 -188q91 59 91 120q0 45 -43.5 88.5t-114.5 63.5q0 61 43 102t100 41q70 0 113 -45t43 -114q0 -83 -54 -158t-153 -125
q190 -206 190 -522q0 -162 -52.5 -299.5t-145.5 -233.5t-223.5 -150t-282.5 -54q-207 0 -368.5 96t-249 263.5t-87.5 377.5q0 206 85 373t247 265.5t373 98.5zM840 1516l-488 337v5h426l70 -342h-8z" />
    <glyph glyph-name="uni1EDD" unicode="&#x1edd;" horiz-adv-x="1222" 
d="M610 14q203 0 203 553q0 549 -203 549q-202 0 -202 -549q0 -553 202 -553zM610 1151q124 0 230 -45.5t182 -128.5q98 61 98 127q0 45 -43 88t-114 63q0 61 43 102.5t100 41.5q69 0 112.5 -45.5t43.5 -114.5q0 -86 -57.5 -162t-162.5 -127q127 -156 127 -383
q0 -260 -157.5 -423.5t-401.5 -163.5t-400.5 163.5t-156.5 423.5q0 257 156.5 420.5t400.5 163.5zM688 1237l-489 338v4h426l69 -342h-6z" />
    <glyph glyph-name="uni1EDE" unicode="&#x1ede;" horiz-adv-x="1531" 
d="M766 18q160 0 246 178t86 521q0 345 -86 521.5t-246 176.5q-158 0 -245 -177.5t-87 -520.5q0 -341 87.5 -520t244.5 -179zM766 1454q292 0 489 -188q91 59 91 120q0 45 -43.5 88.5t-114.5 63.5q0 61 43 102t100 41q70 0 113 -45t43 -114q0 -83 -54 -158t-153 -125
q190 -206 190 -522q0 -162 -52.5 -299.5t-145.5 -233.5t-223.5 -150t-282.5 -54q-207 0 -368.5 96t-249 263.5t-87.5 377.5q0 206 85 373t247 265.5t373 98.5zM795 2030q132 0 204 -53.5t72 -145.5q0 -80 -71 -145.5t-205 -90.5l-23 -82h-12l-35 197q124 30 171.5 78
t47.5 110q0 24 -17 41t-50 17q-41 0 -89.5 -26t-130.5 -83q-11 18 -22.5 49t-11.5 43q0 42 44 66.5t128 24.5z" />
    <glyph glyph-name="uni1EDF" unicode="&#x1edf;" horiz-adv-x="1222" 
d="M610 14q203 0 203 553q0 549 -203 549q-202 0 -202 -549q0 -553 202 -553zM610 1151q124 0 230 -45.5t182 -128.5q98 61 98 127q0 45 -43 88t-114 63q0 61 43 102.5t100 41.5q69 0 112.5 -45.5t43.5 -114.5q0 -86 -57.5 -162t-162.5 -127q127 -156 127 -383
q0 -260 -157.5 -423.5t-401.5 -163.5t-400.5 163.5t-156.5 423.5q0 257 156.5 420.5t400.5 163.5zM641 1751q132 0 204.5 -53.5t72.5 -145.5q0 -80 -71 -145t-206 -90l-23 -82h-12l-35 197q124 30 172 78t48 110q0 24 -17.5 40.5t-50.5 16.5q-41 0 -89.5 -26t-129.5 -82
q-11 18 -23 49t-12 43q0 42 44 66t128 24z" />
    <glyph glyph-name="uni1EE0" unicode="&#x1ee0;" horiz-adv-x="1531" 
d="M766 18q160 0 246 178t86 521q0 345 -86 521.5t-246 176.5q-158 0 -245 -177.5t-87 -520.5q0 -341 87.5 -520t244.5 -179zM766 1454q292 0 489 -188q91 59 91 120q0 45 -43.5 88.5t-114.5 63.5q0 61 43 102t100 41q70 0 113 -45t43 -114q0 -83 -54 -158t-153 -125
q190 -206 190 -522q0 -162 -52.5 -299.5t-145.5 -233.5t-223.5 -150t-282.5 -54q-207 0 -368.5 96t-249 263.5t-87.5 377.5q0 206 85 373t247 265.5t373 98.5zM909 1524q-56 0 -125.5 27.5t-133 55t-103.5 27.5t-66.5 -16.5t-52.5 -50.5l-10 2q18 128 73.5 201t151.5 73
q55 0 126 -30t136 -59.5t107 -29.5q73 0 116 74l11 -2q-11 -117 -71.5 -194.5t-158.5 -77.5z" />
    <glyph glyph-name="uni1EE1" unicode="&#x1ee1;" horiz-adv-x="1222" 
d="M610 14q203 0 203 553q0 549 -203 549q-202 0 -202 -549q0 -553 202 -553zM610 1151q124 0 230 -45.5t182 -128.5q98 61 98 127q0 45 -43 88t-114 63q0 61 43 102.5t100 41.5q69 0 112.5 -45.5t43.5 -114.5q0 -86 -57.5 -162t-162.5 -127q127 -156 127 -383
q0 -260 -157.5 -423.5t-401.5 -163.5t-400.5 163.5t-156.5 423.5q0 257 156.5 420.5t400.5 163.5zM758 1303q-56 0 -126 27.5t-133.5 55t-103.5 27.5t-66.5 -16.5t-52.5 -50.5l-10 2q18 128 74 201t152 73q44 0 98 -18.5t96 -41t90 -41t82 -18.5q44 0 70 18.5t49 55.5l10 -2
q-11 -117 -71 -194.5t-158 -77.5z" />
    <glyph glyph-name="uni1EE2" unicode="&#x1ee2;" horiz-adv-x="1531" 
d="M766 18q160 0 246 178t86 521q0 345 -86 521.5t-246 176.5q-158 0 -245 -177.5t-87 -520.5q0 -341 87.5 -520t244.5 -179zM766 1454q292 0 489 -188q91 59 91 120q0 45 -43.5 88.5t-114.5 63.5q0 61 43 102t100 41q70 0 113 -45t43 -114q0 -83 -54 -158t-153 -125
q190 -206 190 -522q0 -162 -52.5 -299.5t-145.5 -233.5t-223.5 -150t-282.5 -54q-207 0 -368.5 96t-249 263.5t-87.5 377.5q0 206 85 373t247 265.5t373 98.5zM766 -487q-72 0 -120 47t-48 116q0 71 48 118.5t120 47.5t121 -48t49 -118q0 -69 -49 -116t-121 -47z" />
    <glyph glyph-name="uni1EE3" unicode="&#x1ee3;" horiz-adv-x="1222" 
d="M610 14q203 0 203 553q0 549 -203 549q-202 0 -202 -549q0 -553 202 -553zM610 1151q124 0 230 -45.5t182 -128.5q98 61 98 127q0 45 -43 88t-114 63q0 61 43 102.5t100 41.5q69 0 112.5 -45.5t43.5 -114.5q0 -86 -57.5 -162t-162.5 -127q127 -156 127 -383
q0 -260 -157.5 -423.5t-401.5 -163.5t-400.5 163.5t-156.5 423.5q0 257 156.5 420.5t400.5 163.5zM610 -487q-72 0 -120 47t-48 116q0 71 48 118.5t120 47.5t121 -48t49 -118q0 -69 -49 -116t-121 -47z" />
    <glyph glyph-name="uni1EE4" unicode="&#x1ee4;" horiz-adv-x="1449" 
d="M743 -487q-72 0 -120 47t-48 116q0 71 48 118.5t120 47.5t121 -48t49 -118q0 -69 -49 -116t-121 -47zM739 -20q-257 0 -409 144t-152 394v768q0 53 -24.5 76t-77.5 29l-47 6v37h667v-37l-51 -6q-60 -8 -86.5 -30t-26.5 -75v-786q0 -202 91 -313t262 -111q161 0 249.5 110
t88.5 306v794q0 53 -29.5 76t-93.5 29l-56 6v37h410v-37l-57 -6q-65 -8 -95 -30.5t-30 -74.5v-794q0 -241 -141 -376.5t-392 -135.5z" />
    <glyph glyph-name="uni1EE5" unicode="&#x1ee5;" horiz-adv-x="1308" 
d="M657 -487q-72 0 -120 47t-48 116q0 71 48 118.5t120 47.5t121 -48t49 -118q0 -69 -49 -116t-121 -47zM1284 78l6 -37l-463 -61v213q-144 -213 -364 -213q-156 0 -236 97t-80 271v615q0 53 -21.5 71.5t-68.5 18.5h-41l-6 37l461 61v-823q0 -87 41.5 -136t116.5 -49
q94 0 198 90v730q0 53 -20.5 71.5t-67.5 18.5h-43l-4 37l461 61v-983q0 -53 21.5 -71.5t68.5 -18.5h41z" />
    <glyph glyph-name="uni1EE6" unicode="&#x1ee6;" horiz-adv-x="1449" 
d="M856 2030q132 0 204.5 -53.5t72.5 -145.5q0 -80 -71 -145.5t-206 -90.5l-22 -82h-13l-35 197q124 30 172 78t48 110q0 24 -17.5 41t-50.5 17q-29 0 -67 -16.5t-67 -35t-85 -57.5q-11 18 -23 49t-12 43q0 42 44 66.5t128 24.5zM739 -20q-257 0 -409 144t-152 394v768
q0 53 -24.5 76t-77.5 29l-47 6v37h667v-37l-51 -6q-60 -8 -86.5 -30t-26.5 -75v-786q0 -202 91 -313t262 -111q161 0 249.5 110t88.5 306v794q0 53 -29.5 76t-93.5 29l-56 6v37h410v-37l-57 -6q-65 -8 -95 -30.5t-30 -74.5v-794q0 -241 -141 -376.5t-392 -135.5z" />
    <glyph glyph-name="uni1EE7" unicode="&#x1ee7;" horiz-adv-x="1308" 
d="M662 1751q132 0 204 -53.5t72 -145.5q0 -80 -70.5 -145t-205.5 -90l-23 -82h-12l-35 197q124 30 171.5 78t47.5 110q0 24 -17.5 40.5t-50.5 16.5q-41 0 -89.5 -26t-129.5 -82q-11 18 -23 49t-12 43q0 42 44 66t129 24zM1284 78l6 -37l-463 -61v213q-144 -213 -364 -213
q-156 0 -236 97t-80 271v615q0 53 -21.5 71.5t-68.5 18.5h-41l-6 37l461 61v-823q0 -87 41.5 -136t116.5 -49q94 0 198 90v730q0 53 -20.5 71.5t-67.5 18.5h-43l-4 37l461 61v-983q0 -53 21.5 -71.5t68.5 -18.5h41z" />
    <glyph glyph-name="uni1EE8" unicode="&#x1ee8;" horiz-adv-x="1449" 
d="M805 1860h426v-5l-490 -337h-8zM1272 1204v-712q0 -241 -141 -376.5t-392 -135.5q-257 0 -409 144t-152 394v768q0 53 -24.5 76t-77.5 29l-47 6v37h667v-37l-51 -6q-60 -8 -86.5 -30t-26.5 -75v-786q0 -202 91 -313t262 -111q161 0 249.5 110t88.5 306v794q0 53 -29.5 76
t-93.5 29l-56 6v37h295v-37q-41 -12 -54 -33.5t-13 -77.5v-57q155 77 155 157q0 45 -43 88.5t-114 63.5q0 61 43 102t100 41q70 0 113 -45t43 -114q0 -101 -79 -188t-218 -130z" />
    <glyph glyph-name="uni1EE9" unicode="&#x1ee9;" horiz-adv-x="1308" 
d="M1079 1579v-4l-487 -338h-8l69 342h426zM1284 78l6 -37l-463 -61v213q-144 -213 -364 -213q-156 0 -236 97t-80 271v615q0 53 -21.5 71.5t-68.5 18.5h-41l-6 37l461 61v-823q0 -87 41.5 -136t116.5 -49q94 0 198 90v730q0 53 -20.5 71.5t-67.5 18.5h-43l-4 37l461 61
v-195q135 71 135 148q0 44 -43.5 87.5t-114.5 63.5q0 61 43.5 102.5t100.5 41.5q69 0 112.5 -45.5t43.5 -114.5q0 -97 -73.5 -181.5t-203.5 -129.5v-760q0 -53 21.5 -71.5t68.5 -18.5h41z" />
    <glyph glyph-name="uni1EEA" unicode="&#x1eea;" horiz-adv-x="1449" 
d="M403 1853v5h426l70 -342h-8zM1272 1204v-712q0 -241 -141 -376.5t-392 -135.5q-257 0 -409 144t-152 394v768q0 53 -24.5 76t-77.5 29l-47 6v37h667v-37l-51 -6q-60 -8 -86.5 -30t-26.5 -75v-786q0 -202 91 -313t262 -111q161 0 249.5 110t88.5 306v794q0 53 -29.5 76
t-93.5 29l-56 6v37h295v-37q-41 -12 -54 -33.5t-13 -77.5v-57q155 77 155 157q0 45 -43 88.5t-114 63.5q0 61 43 102t100 41q70 0 113 -45t43 -114q0 -101 -79 -188t-218 -130z" />
    <glyph glyph-name="uni1EEB" unicode="&#x1eeb;" horiz-adv-x="1308" 
d="M680 1579l72 -342h-9l-489 338v4h426zM1284 78l6 -37l-463 -61v213q-144 -213 -364 -213q-156 0 -236 97t-80 271v615q0 53 -21.5 71.5t-68.5 18.5h-41l-6 37l461 61v-823q0 -87 41.5 -136t116.5 -49q94 0 198 90v730q0 53 -20.5 71.5t-67.5 18.5h-43l-4 37l461 61v-195
q135 71 135 148q0 44 -43.5 87.5t-114.5 63.5q0 61 43.5 102.5t100.5 41.5q69 0 112.5 -45.5t43.5 -114.5q0 -97 -73.5 -181.5t-203.5 -129.5v-760q0 -53 21.5 -71.5t68.5 -18.5h41z" />
    <glyph glyph-name="uni1EEC" unicode="&#x1eec;" horiz-adv-x="1449" 
d="M856 2030q132 0 204.5 -53.5t72.5 -145.5q0 -80 -71 -145.5t-206 -90.5l-22 -82h-13l-35 197q124 30 172 78t48 110q0 24 -17.5 41t-50.5 17q-29 0 -67 -16.5t-67 -35t-85 -57.5q-11 18 -23 49t-12 43q0 42 44 66.5t128 24.5zM1272 1204v-712q0 -241 -141 -376.5
t-392 -135.5q-257 0 -409 144t-152 394v768q0 53 -24.5 76t-77.5 29l-47 6v37h667v-37l-51 -6q-60 -8 -86.5 -30t-26.5 -75v-786q0 -202 91 -313t262 -111q161 0 249.5 110t88.5 306v794q0 53 -29.5 76t-93.5 29l-56 6v37h295v-37q-41 -12 -54 -33.5t-13 -77.5v-57
q155 77 155 157q0 45 -43 88.5t-114 63.5q0 61 43 102t100 41q70 0 113 -45t43 -114q0 -101 -79 -188t-218 -130z" />
    <glyph glyph-name="uni1EED" unicode="&#x1eed;" horiz-adv-x="1308" 
d="M662 1751q132 0 204 -53.5t72 -145.5q0 -80 -70.5 -145t-205.5 -90l-23 -82h-12l-35 197q124 30 171.5 78t47.5 110q0 24 -17.5 40.5t-50.5 16.5q-41 0 -89.5 -26t-129.5 -82q-11 18 -23 49t-12 43q0 42 44 66t129 24zM1284 78l6 -37l-463 -61v213q-144 -213 -364 -213
q-156 0 -236 97t-80 271v615q0 53 -21.5 71.5t-68.5 18.5h-41l-6 37l461 61v-823q0 -87 41.5 -136t116.5 -49q94 0 198 90v730q0 53 -20.5 71.5t-67.5 18.5h-43l-4 37l461 61v-195q135 71 135 148q0 44 -43.5 87.5t-114.5 63.5q0 61 43.5 102.5t100.5 41.5q69 0 112.5 -45.5
t43.5 -114.5q0 -97 -73.5 -181.5t-203.5 -129.5v-760q0 -53 21.5 -71.5t68.5 -18.5h41z" />
    <glyph glyph-name="uni1EEE" unicode="&#x1eee;" horiz-adv-x="1449" 
d="M549 1634q-40 0 -66.5 -16.5t-52.5 -50.5l-10 2q18 128 73.5 201t151.5 73q55 0 125.5 -30t135 -59.5t106.5 -29.5q43 0 69 18.5t49 55.5l11 -2q-11 -117 -71.5 -194.5t-158.5 -77.5q-56 0 -125.5 27.5t-133 55t-103.5 27.5zM1272 1204v-712q0 -241 -141 -376.5
t-392 -135.5q-257 0 -409 144t-152 394v768q0 53 -24.5 76t-77.5 29l-47 6v37h667v-37l-51 -6q-60 -8 -86.5 -30t-26.5 -75v-786q0 -202 91 -313t262 -111q161 0 249.5 110t88.5 306v794q0 53 -29.5 76t-93.5 29l-56 6v37h295v-37q-41 -12 -54 -33.5t-13 -77.5v-57
q155 77 155 157q0 45 -43 88.5t-114 63.5q0 61 43 102t100 41q70 0 113 -45t43 -114q0 -101 -79 -188t-218 -130z" />
    <glyph glyph-name="uni1EEF" unicode="&#x1eef;" horiz-adv-x="1308" 
d="M1284 78l6 -37l-463 -61v213q-144 -213 -364 -213q-156 0 -236 97t-80 271v615q0 53 -21.5 71.5t-68.5 18.5h-41l-6 37l461 61v-823q0 -87 41.5 -136t116.5 -49q94 0 198 90v730q0 53 -20.5 71.5t-67.5 18.5h-43l-4 37l461 61v-195q135 71 135 148q0 44 -43.5 87.5
t-114.5 63.5q0 61 43.5 102.5t100.5 41.5q69 0 112.5 -45.5t43.5 -114.5q0 -97 -73.5 -181.5t-203.5 -129.5v-760q0 -53 21.5 -71.5t68.5 -18.5h41zM784 1262q-56 0 -125.5 27.5t-133 55t-103.5 27.5t-66.5 -16.5t-52.5 -50.5l-10 2q18 128 73.5 201t151.5 73q55 0 126 -30
t136 -59.5t107 -29.5q74 0 117 74l10 -2q-11 -117 -71.5 -194.5t-158.5 -77.5z" />
    <glyph glyph-name="uni1EF0" unicode="&#x1ef0;" horiz-adv-x="1449" 
d="M743 -487q-72 0 -120 47t-48 116q0 71 48 118.5t120 47.5t121 -48t49 -118q0 -69 -49 -116t-121 -47zM1272 1204v-712q0 -241 -141 -376.5t-392 -135.5q-257 0 -409 144t-152 394v768q0 53 -24.5 76t-77.5 29l-47 6v37h667v-37l-51 -6q-60 -8 -86.5 -30t-26.5 -75v-786
q0 -202 91 -313t262 -111q161 0 249.5 110t88.5 306v794q0 53 -29.5 76t-93.5 29l-56 6v37h295v-37q-41 -12 -54 -33.5t-13 -77.5v-57q155 77 155 157q0 45 -43 88.5t-114 63.5q0 61 43 102t100 41q70 0 113 -45t43 -114q0 -101 -79 -188t-218 -130z" />
    <glyph glyph-name="uni1EF1" unicode="&#x1ef1;" horiz-adv-x="1308" 
d="M657 -487q-72 0 -120 47t-48 116q0 71 48 118.5t120 47.5t121 -48t49 -118q0 -69 -49 -116t-121 -47zM1284 78l6 -37l-463 -61v213q-144 -213 -364 -213q-156 0 -236 97t-80 271v615q0 53 -21.5 71.5t-68.5 18.5h-41l-6 37l461 61v-823q0 -87 41.5 -136t116.5 -49
q94 0 198 90v730q0 53 -20.5 71.5t-67.5 18.5h-43l-4 37l461 61v-195q135 71 135 148q0 44 -43.5 87.5t-114.5 63.5q0 61 43.5 102.5t100.5 41.5q69 0 112.5 -45.5t43.5 -114.5q0 -97 -73.5 -181.5t-203.5 -129.5v-760q0 -53 21.5 -71.5t68.5 -18.5h41z" />
    <glyph glyph-name="Ygrave" unicode="&#x1ef2;" horiz-adv-x="1392" 
d="M1014 1397v37h395v-37l-39 -6q-54 -8 -87 -29t-56 -64l-340 -657v-494q0 -52 30 -74t95 -30l57 -6v-37h-715v37l56 6q66 8 95.5 29.5t29.5 74.5v486l-420 670q-46 72 -113 88l-25 6v37h652v-37l-54 -6q-57 -8 -68.5 -24t15.5 -64l352 -576l302 571q24 47 1.5 66t-98.5 27
zM807 1858l72 -342h-9l-489 337v5h426z" />
    <glyph glyph-name="ygrave" unicode="&#x1ef3;" horiz-adv-x="1126" 
d="M795 1094v36h352v-36l-35 -7q-42 -9 -70 -29t-47 -67l-379 -1005q-42 -110 -84.5 -184.5t-84.5 -113t-79.5 -54t-80.5 -15.5q-74 0 -130.5 44.5t-56.5 121.5q0 62 41 127q128 -69 187 -95t90 -26q46 0 77 42.5t68 146.5l-467 1013q-35 76 -100 94l-25 7v36h590v-36
l-51 -7q-57 -8 -70.5 -25.5t4.5 -68.5l261 -631l239 629q18 49 -2 68.5t-88 27.5zM623 1579l69 -342h-8l-487 338v4h426z" />
    <glyph glyph-name="uni1EF4" unicode="&#x1ef4;" horiz-adv-x="1392" 
d="M711 -467q-72 0 -120 47.5t-48 116.5q0 71 48 118.5t120 47.5t121 -48t49 -118q0 -69 -49 -116.5t-121 -47.5zM1014 1397v37h395v-37l-39 -6q-54 -8 -87 -29t-56 -64l-340 -657v-494q0 -52 30 -74t95 -30l57 -6v-37h-715v37l56 6q66 8 95.5 29.5t29.5 74.5v486l-420 670
q-46 72 -113 88l-25 6v37h652v-37l-54 -6q-57 -8 -68.5 -24t15.5 -64l352 -576l302 571q24 47 1.5 66t-98.5 27z" />
    <glyph glyph-name="uni1EF5" unicode="&#x1ef5;" horiz-adv-x="1126" 
d="M840 -487q-72 0 -120 47t-48 116q0 71 48 118.5t120 47.5t121 -48t49 -118q0 -69 -49 -116t-121 -47zM795 1094v36h352v-36l-35 -7q-42 -9 -70 -29t-47 -67l-379 -1005q-42 -110 -84.5 -184.5t-84.5 -113t-79.5 -54t-80.5 -15.5q-74 0 -130.5 44.5t-56.5 121.5
q0 62 41 127q128 -69 187 -95t90 -26q46 0 77 42.5t68 146.5l-467 1013q-35 76 -100 94l-25 7v36h590v-36l-51 -7q-57 -8 -70.5 -25.5t4.5 -68.5l261 -631l239 629q18 49 -2 68.5t-88 27.5z" />
    <glyph glyph-name="uni1EF6" unicode="&#x1ef6;" horiz-adv-x="1392" 
d="M836 2030q132 0 204 -53.5t72 -145.5q0 -80 -71 -145.5t-205 -90.5l-23 -82h-12l-35 197q124 30 171.5 78t47.5 110q0 24 -17 41t-50 17q-41 0 -89.5 -26t-130.5 -83q-11 18 -22.5 49t-11.5 43q0 42 44 66.5t128 24.5zM1014 1397v37h395v-37l-39 -6q-54 -8 -87 -29
t-56 -64l-340 -657v-494q0 -52 30 -74t95 -30l57 -6v-37h-715v37l56 6q66 8 95.5 29.5t29.5 74.5v486l-420 670q-46 72 -113 88l-25 6v37h652v-37l-54 -6q-57 -8 -68.5 -24t15.5 -64l352 -576l302 571q24 47 1.5 66t-98.5 27z" />
    <glyph glyph-name="uni1EF7" unicode="&#x1ef7;" horiz-adv-x="1126" 
d="M662 1751q132 0 204 -53.5t72 -145.5q0 -80 -70.5 -145t-205.5 -90l-23 -82h-12l-35 197q124 30 171.5 78t47.5 110q0 24 -17.5 40.5t-50.5 16.5q-41 0 -89.5 -26t-129.5 -82q-11 18 -23 49t-12 43q0 42 44 66t129 24zM795 1094v36h352v-36l-35 -7q-42 -9 -70 -29
t-47 -67l-379 -1005q-42 -110 -84.5 -184.5t-84.5 -113t-79.5 -54t-80.5 -15.5q-74 0 -130.5 44.5t-56.5 121.5q0 62 41 127q128 -69 187 -95t90 -26q46 0 77 42.5t68 146.5l-467 1013q-35 76 -100 94l-25 7v36h590v-36l-51 -7q-57 -8 -70.5 -25.5t4.5 -68.5l261 -631
l239 629q18 49 -2 68.5t-88 27.5z" />
    <glyph glyph-name="uni1EF8" unicode="&#x1ef8;" horiz-adv-x="1392" 
d="M508 1634q-40 0 -66.5 -16.5t-52.5 -50.5l-10 2q18 128 73.5 201t151.5 73q55 0 125.5 -30t135 -59.5t106.5 -29.5q44 0 70 18.5t49 55.5l10 -2q-11 -117 -71.5 -194.5t-158.5 -77.5q-56 0 -125.5 27.5t-133 55t-103.5 27.5zM1014 1397v37h395v-37l-39 -6q-54 -8 -87 -29
t-56 -64l-340 -657v-494q0 -52 30 -74t95 -30l57 -6v-37h-715v37l56 6q66 8 95.5 29.5t29.5 74.5v486l-420 670q-46 72 -113 88l-25 6v37h652v-37l-54 -6q-57 -8 -68.5 -24t15.5 -64l352 -576l302 571q24 47 1.5 66t-98.5 27z" />
    <glyph glyph-name="uni1EF9" unicode="&#x1ef9;" horiz-adv-x="1126" 
d="M795 1094v36h352v-36l-35 -7q-42 -9 -70 -29t-47 -67l-379 -1005q-42 -110 -84.5 -184.5t-84.5 -113t-79.5 -54t-80.5 -15.5q-74 0 -130.5 44.5t-56.5 121.5q0 62 41 127q128 -69 187 -95t90 -26q46 0 77 42.5t68 146.5l-467 1013q-35 76 -100 94l-25 7v36h590v-36
l-51 -7q-57 -8 -70.5 -25.5t4.5 -68.5l261 -631l239 629q18 49 -2 68.5t-88 27.5zM723 1262q-56 0 -126 27.5t-133.5 55t-103.5 27.5t-66 -16.5t-52 -50.5l-11 2q18 128 74 201t152 73q44 0 98.5 -18.5t96.5 -41t90.5 -41t82.5 -18.5q74 0 117 74l10 -2q-11 -117 -71 -194.5
t-158 -77.5z" />
    <glyph glyph-name="uni2007" unicode="&#x2007;" 
 />
    <glyph glyph-name="uni2008" unicode="&#x2008;" horiz-adv-x="458" 
 />
    <glyph glyph-name="uni2009" unicode="&#x2009;" horiz-adv-x="256" 
 />
    <glyph glyph-name="uni200A" unicode="&#x200a;" horiz-adv-x="86" 
 />
    <glyph glyph-name="uni200B" unicode="&#x200b;" horiz-adv-x="0" 
 />
    <glyph glyph-name="endash" unicode="&#x2013;" horiz-adv-x="1187" 
d="M1085 537h-983v176h983v-176z" />
    <glyph glyph-name="emdash" unicode="&#x2014;" horiz-adv-x="2048" 
d="M1946 713v-176h-1844v176h1844z" />
    <glyph glyph-name="quoteleft" unicode="&#x2018;" horiz-adv-x="438" 
d="M395 1640l4 -12q-93 -47 -141.5 -103t-48.5 -114q0 -57 52 -110.5t136 -79.5q0 -78 -52.5 -129.5t-123.5 -51.5q-81 0 -133.5 58t-52.5 141q0 130 95 238t265 163z" />
    <glyph glyph-name="quoteright" unicode="&#x2019;" horiz-adv-x="448" 
d="M61 1040l-6 13q95 46 144 102.5t49 114.5q0 56 -53 110t-138 80q0 76 53 127t123 51q84 0 135.5 -56t51.5 -142q0 -128 -95 -237t-264 -163z" />
    <glyph glyph-name="quotesinglbase" unicode="&#x201a;" horiz-adv-x="458" 
d="M45 -256l-6 12q95 46 143.5 102.5t48.5 114.5q0 56 -52.5 111t-137.5 80q0 76 53 127t123 51q83 0 134.5 -56.5t51.5 -142.5q0 -128 -94.5 -236.5t-263.5 -162.5z" />
    <glyph glyph-name="quotedblleft" unicode="&#x201c;" horiz-adv-x="858" 
d="M395 1640l4 -12q-93 -44 -141.5 -100t-48.5 -117q0 -55 51.5 -108t136.5 -82q0 -76 -52.5 -127.5t-123.5 -51.5q-81 0 -133.5 58t-52.5 141q0 127 95 236t265 163zM813 1640l6 -12q-95 -43 -143.5 -99.5t-48.5 -117.5q0 -55 51.5 -108t136.5 -82q0 -76 -52.5 -127.5
t-123.5 -51.5q-80 0 -132 58t-52 141q0 128 94.5 236.5t263.5 162.5z" />
    <glyph glyph-name="quotedblright" unicode="&#x201d;" horiz-adv-x="866" 
d="M479 1040l-6 13q95 46 144 102.5t49 114.5q0 56 -52.5 110t-136.5 80q0 76 52.5 127t123.5 51q84 0 135.5 -56t51.5 -142q0 -127 -95.5 -236.5t-265.5 -163.5zM61 1040l-6 13q95 46 144 102.5t49 114.5q0 56 -53 110t-138 80q0 76 53 127t123 51q84 0 135.5 -56
t51.5 -142q0 -128 -95 -237t-264 -163z" />
    <glyph glyph-name="quotedblbase" unicode="&#x201e;" horiz-adv-x="876" 
d="M463 -256l-6 12q95 46 143.5 102.5t48.5 114.5q0 56 -52 110.5t-136 80.5q0 76 52.5 127t123.5 51q83 0 134.5 -56.5t51.5 -142.5q0 -127 -95 -236t-265 -163zM45 -256l-6 12q95 46 143.5 102.5t48.5 114.5q0 56 -52.5 111t-137.5 80q0 76 53 127t123 51
q83 0 134.5 -56.5t51.5 -142.5q0 -128 -94.5 -236.5t-263.5 -162.5z" />
    <glyph glyph-name="dagger" unicode="&#x2020;" horiz-adv-x="710" 
d="M377 1350h311v-45h-311v-598h-43v598h-309v45h309v268h43v-268z" />
    <glyph glyph-name="daggerdbl" unicode="&#x2021;" horiz-adv-x="790" 
d="M727 1350v-45h-311v-285h311v-45h-311v-268h-43v268h-310v45h310v285h-310v45h310v268h43v-268h311z" />
    <glyph glyph-name="bullet" unicode="&#x2022;" horiz-adv-x="659" 
d="M330 518q-105 0 -178.5 71.5t-73.5 176.5q0 108 72.5 183t179.5 75q109 0 181.5 -75t72.5 -183q0 -105 -74 -176.5t-180 -71.5z" />
    <glyph glyph-name="ellipsis" unicode="&#x2026;" horiz-adv-x="1492" 
d="M227 -12q-75 0 -125.5 51t-50.5 123q0 74 51 127t125 53q77 0 128 -52.5t51 -127.5q0 -73 -51 -123.5t-128 -50.5zM743 -12q-75 0 -125.5 51t-50.5 123q0 74 51 127t125 53q77 0 128 -52.5t51 -127.5q0 -73 -51 -123.5t-128 -50.5zM1262 -12q-75 0 -126 51t-51 123
q0 74 51.5 127t125.5 53q77 0 127.5 -52.5t50.5 -127.5q0 -73 -50.5 -123.5t-127.5 -50.5z" />
    <glyph glyph-name="perthousand" unicode="&#x2030;" horiz-adv-x="2744" 
d="M336 1071q0 -129 32 -208t91 -79q57 0 89 79t32 208q0 131 -32 210t-89 79q-59 0 -91 -79t-32 -210zM414 -39l917 1518h160l-922 -1518h-155zM72 1071q0 94 31.5 169t85.5 122t123 71.5t147 24.5q162 0 273.5 -101.5t111.5 -285.5q0 -93 -31.5 -167.5t-85 -121.5
t-122.5 -71.5t-146 -24.5q-105 0 -191 41.5t-141 131t-55 212.5zM1569 367q0 129 -32 207.5t-91 78.5q-57 0 -89 -78.5t-32 -207.5q0 -131 32 -210t89 -79q59 0 91 79t32 210zM1833 367q0 -94 -31.5 -169t-85.5 -122t-123 -71.5t-147 -24.5q-162 0 -273.5 101.5
t-111.5 285.5q0 93 31.5 167.5t85 121.5t122.5 71.5t146 24.5q105 0 191 -41.5t141 -131t55 -212.5zM2408 367q0 130 -31.5 208t-90.5 78q-57 0 -89 -78.5t-32 -207.5q0 -131 32 -210t89 -79q59 0 90.5 79t31.5 210zM2673 367q0 -94 -31.5 -169t-85.5 -122t-123 -71.5
t-147 -24.5q-162 0 -273.5 101.5t-111.5 285.5q0 93 31.5 167.5t85 121.5t122.5 71.5t146 24.5q105 0 191 -41.5t141 -131t55 -212.5z" />
    <glyph glyph-name="guilsinglleft" unicode="&#x2039;" horiz-adv-x="585" 
d="M485 119l-2 -2l-417 434v4l417 434l2 -2l-131 -434z" />
    <glyph glyph-name="guilsinglright" unicode="&#x203a;" horiz-adv-x="585" 
d="M520 551l-418 -434l-2 2l131 434l-131 434l2 2l418 -434v-4z" />
    <glyph glyph-name="fraction" unicode="&#x2044;" horiz-adv-x="256" 
d="M584 1434l-877 -1457l-35 23l879 1456z" />
    <glyph glyph-name="uni2070" unicode="&#x2070;" horiz-adv-x="864" 
d="M432 561q-72 0 -142 34t-124 92t-87.5 141.5t-33.5 175.5t33.5 175.5t87.5 141t124 91.5t142 34q152 0 270.5 -128.5t118.5 -313.5q0 -123 -56 -226t-145.5 -160t-187.5 -57zM432 594q65 0 93 100.5t28 309.5q0 211 -28 310t-93 99q-121 0 -121 -409q0 -410 121 -410z
" />
    <glyph glyph-name="uni2074" unicode="&#x2074;" horiz-adv-x="737" 
d="M700 834v-39h-100v-133q0 -44 51 -50l43 -4v-35h-428v35l41 4q51 3 51 50v133h-342l-14 32l342 607h227v-15l-520 -585h307v274l242 63v-337h100z" />
    <glyph glyph-name="uni2075" unicode="&#x2075;" horiz-adv-x="679" 
d="M172 1225l-14 -103q230 4 347.5 -63t117.5 -193q0 -57 -22.5 -110t-66.5 -97.5t-119 -71t-171 -26.5q-105 0 -163 34.5t-58 86.5q0 60 71 106q40 -79 100.5 -130.5t129.5 -51.5q52 0 83 35t31 88q0 74 -90.5 122t-263.5 44l86 539h330q59 0 88.5 9t40.5 34h18l-35 -252
h-440z" />
    <glyph glyph-name="uni2076" unicode="&#x2076;" horiz-adv-x="763" 
d="M387 598q44 0 72 63.5t28 167.5q0 97 -30.5 148t-87.5 51q-35 0 -78 -29q-6 -55 -6 -120q0 -144 23.5 -212.5t78.5 -68.5zM500 1108q109 0 172 -63.5t63 -172.5q0 -133 -97.5 -222t-244.5 -89q-152 0 -251 99t-99 255q0 102 39 188.5t103 146t150 102.5t177 65t186 27
v-21q-166 -20 -270 -112t-133 -283q83 80 205 80z" />
    <glyph glyph-name="uni2077" unicode="&#x2077;" horiz-adv-x="663" 
d="M18 1126l37 308h596v-9l-110 -200l-207 -652h-277v13l455 639h-326q-56 0 -90 -24t-55 -75h-23z" />
    <glyph glyph-name="uni2078" unicode="&#x2078;" horiz-adv-x="741" 
d="M387 596q59 0 97 33t38 78q0 27 -11.5 50.5t-27 39.5t-45.5 34.5t-51.5 29t-61.5 29t-61 28.5q-53 -47 -53 -136q0 -81 50 -133.5t126 -52.5zM373 1411q-57 0 -91 -28.5t-34 -75.5q0 -15 3 -28t12.5 -26t16 -23t24 -22.5t26 -19t32 -19.5t32.5 -17.5t37 -19t36 -18.5
q57 57 57 141q0 66 -44 111t-107 45zM485 1106q48 -24 81.5 -46.5t66 -54.5t49 -73.5t16.5 -91.5q0 -121 -94.5 -199t-251.5 -78q-45 0 -95.5 10t-101 30t-83.5 58.5t-33 88.5q0 124 199 182q-74 43 -116 97.5t-42 137.5q0 123 86 200t227 77q116 0 193.5 -48t77.5 -122
q0 -107 -179 -168z" />
    <glyph glyph-name="uni2079" unicode="&#x2079;" horiz-adv-x="765" 
d="M397 979q34 0 78 29q6 56 6 120q0 145 -23 213t-79 68q-44 0 -72 -63.5t-28 -167.5q0 -94 31 -146.5t87 -52.5zM373 1446q155 0 253.5 -97.5t98.5 -256.5q0 -102 -39 -189t-104 -146t-151 -102t-177 -65t-186 -27v21q81 11 144.5 36.5t118 70.5t90 117t50.5 171
q-86 -80 -205 -80q-106 0 -170.5 64t-64.5 172q0 134 98 222.5t244 88.5z" />
    <glyph glyph-name="uni2080" unicode="&#x2080;" horiz-adv-x="864" 
d="M432 -217q-72 0 -142 34t-124 91.5t-87.5 141t-33.5 175.5t33.5 175.5t87.5 141.5t124 92t142 34q98 0 187.5 -57t145.5 -160t56 -226q0 -185 -118.5 -313.5t-270.5 -128.5zM432 -184q65 0 93 100t28 309q0 211 -28 310.5t-93 99.5q-121 0 -121 -410q0 -409 121 -409z
" />
    <glyph glyph-name="uni2081" unicode="&#x2081;" horiz-adv-x="526" 
d="M500 -205h-475v35l55 4q61 3 61 49v574q0 33 -11.5 41t-47.5 8h-72v29l352 133h19v-785q0 -43 63 -49l56 -4v-35z" />
    <glyph glyph-name="uni2082" unicode="&#x2082;" horiz-adv-x="710" 
d="M590 -205h-592v31q201 215 277.5 340t76.5 219q0 70 -34.5 106.5t-88.5 36.5q-55 0 -103 -33.5t-77 -95.5l-18 11q27 82 87.5 142.5t130.5 88t142 27.5q100 0 165 -55t65 -150q0 -116 -108.5 -228t-311.5 -227v-2h202q185 0 238 105h25z" />
    <glyph glyph-name="uni2083" unicode="&#x2083;" horiz-adv-x="684" 
d="M254 -217q-108 0 -171 38.5t-63 92.5q0 56 58 100q45 -77 114 -132.5t125 -55.5q86 0 86 121q0 101 -79 160t-215 49l-9 24q115 62 173.5 130.5t58.5 135.5q0 46 -29.5 72.5t-73.5 26.5q-52 0 -99.5 -34.5t-76.5 -96.5l-20 10q25 73 87.5 130t137 85.5t145.5 28.5
q77 0 127 -37t50 -107q0 -147 -283 -250l2 -6q159 8 248.5 -51.5t89.5 -146.5q0 -52 -25.5 -102t-72 -92t-121 -67.5t-164.5 -25.5z" />
    <glyph glyph-name="uni2084" unicode="&#x2084;" horiz-adv-x="737" 
d="M700 55v-39h-100v-133q0 -43 51 -49l43 -4v-35h-428v35l41 4q51 3 51 49v133h-342l-14 33l342 606h227v-14l-520 -586h307v275l242 63v-338h100z" />
    <glyph glyph-name="uni2085" unicode="&#x2085;" horiz-adv-x="679" 
d="M172 446l-14 -102q230 4 347.5 -63t117.5 -193q0 -57 -22.5 -110t-66.5 -97.5t-119 -71t-171 -26.5q-105 0 -163 34.5t-58 86.5q0 60 71 106q40 -79 100.5 -130.5t129.5 -51.5q52 0 83 35t31 88q0 74 -90.5 122t-263.5 44l86 538h330q59 0 88.5 9t40.5 34h18l-35 -252
h-440z" />
    <glyph glyph-name="uni2086" unicode="&#x2086;" horiz-adv-x="763" 
d="M387 -180q44 0 72 63.5t28 167.5q0 97 -30.5 148t-87.5 51q-35 0 -78 -29q-6 -56 -6 -121q0 -144 23.5 -212t78.5 -68zM500 330q109 0 172 -63.5t63 -172.5q0 -133 -97.5 -222t-244.5 -89q-152 0 -251 99t-99 255q0 102 39 188.5t103 146t150 102.5t177 65t186 27v-21
q-166 -20 -270 -112t-133 -283q83 80 205 80z" />
    <glyph glyph-name="uni2087" unicode="&#x2087;" horiz-adv-x="663" 
d="M18 348l37 307h596v-8l-110 -201l-207 -651h-277v12l455 639h-326q-56 0 -90 -24t-55 -74h-23z" />
    <glyph glyph-name="uni2088" unicode="&#x2088;" horiz-adv-x="741" 
d="M373 633q-57 0 -91 -29t-34 -76q0 -15 3.5 -28.5t12 -26t16 -22.5t24 -22t26 -19t32 -19t32.5 -17.5t36.5 -19t36.5 -18.5q57 57 57 141q0 66 -44 111t-107 45zM387 -182q59 0 97 32.5t38 77.5q0 27 -11.5 50.5t-27 39.5t-45.5 34.5t-51.5 29t-61.5 29t-61 28.5
q-53 -47 -53 -135q0 -81 50 -133.5t126 -52.5zM485 328q47 -24 81 -47t66.5 -55t49 -73.5t16.5 -91.5q0 -121 -94.5 -198.5t-251.5 -77.5q-45 0 -95.5 10t-101 30t-83.5 58t-33 88q0 125 199 183q-74 43 -116 97.5t-42 137.5q0 123 86 200t227 77q116 0 193.5 -48t77.5 -122
q0 -107 -179 -168z" />
    <glyph glyph-name="uni2089" unicode="&#x2089;" horiz-adv-x="765" 
d="M397 201q36 0 78 28q6 56 6 121q0 145 -23 213t-79 68q-44 0 -72 -64t-28 -168q0 -94 31 -146t87 -52zM373 668q155 0 253.5 -98t98.5 -257q0 -102 -39 -188.5t-103.5 -146t-150.5 -102.5t-177.5 -64.5t-186.5 -26.5v20q81 11 144.5 36.5t118 70.5t90 117.5t50.5 171.5
q-86 -80 -205 -80q-106 0 -170.5 63.5t-64.5 171.5q0 134 98 223t244 89z" />
    <glyph glyph-name="Euro" unicode="&#x20ac;" horiz-adv-x="1431" 
d="M924 1411q-64 0 -117 -29t-98 -91t-74.5 -171t-40.5 -258h563v-41h-565q-2 -16 -2 -49v-106q0 -34 2 -50h565v-41h-563q7 -120 28 -214.5t51.5 -157t71 -104t84.5 -59t95 -17.5q134 0 240 115.5t147 307.5h20v-364q-98 -47 -213 -73.5t-221 -26.5q-170 0 -311 69.5
t-235 205t-122 318.5h-153v41h149q-13 99 0 205h-149v41h155q44 270 242 430t471 160q195 0 387 -88v-377h-20q-52 196 -153.5 310t-233.5 114z" />
    <glyph glyph-name="uni20B9" unicode="&#x20b9;" horiz-adv-x="1187" 
d="M59 1434h1092v-41h-471q137 -43 212 -133.5t83 -210.5h176v-45h-176q-9 -161 -146.5 -272t-365.5 -126l600 -592v-14h-463l-541 604v41h215q169 0 247 88t83 271h-545v45h545q-6 175 -89 259.5t-255 84.5h-201v41z" />
    <glyph glyph-name="uni20BA" unicode="&#x20ba;" horiz-adv-x="1271" 
d="M1217 535h20v-414q-98 -54 -239 -87.5t-255 -33.5h-645v37l54 6q58 6 85 28.5t27 75.5v340l-207 -86v45l207 86v189l-207 -86v45l207 86v520q0 53 -27 76t-85 29l-54 6v37h686v-37l-57 -6q-65 -8 -95 -30.5t-30 -74.5v-381l293 121v-45l-293 -121v-188l293 121v-45
l-293 -121v-584h100q101 0 187.5 38.5t149 107t107 155t71.5 191.5z" />
    <glyph glyph-name="uni2116" unicode="&#x2116;" horiz-adv-x="2490" 
d="M1812 981q0 -231 33.5 -337.5t110.5 -106.5t112 109t35 335q0 228 -35 335t-112 107t-110.5 -106.5t-33.5 -335.5zM1126 1391l-57 6v37h412v-37l-58 -6q-65 -8 -94 -30t-29 -75v-1286h-249l-779 1231v-1084q0 -52 30 -74t95 -30l58 -6v-37h-412v37l57 6q64 6 93.5 28.5
t29.5 75.5v1139q0 53 -25.5 76t-82.5 29l-52 6v37h484l704 -1069v921q0 53 -30.5 76t-94.5 29zM2316 387v-41h-667v41h667zM2413 981q0 -208 -128.5 -339.5t-328.5 -131.5q-198 0 -326.5 131.5t-128.5 339.5t128.5 338.5t326.5 130.5t327.5 -131t129.5 -338z" />
    <glyph glyph-name="uni2117" unicode="&#x2117;" horiz-adv-x="1794" 
d="M897 -59q167 0 311 56.5t247 157.5t161.5 246.5t58.5 317.5q0 230 -100.5 408.5t-277.5 275t-400 96.5t-399.5 -96.5t-276.5 -274.5t-100 -409q0 -172 58.5 -317.5t161 -246.5t246 -157.5t310.5 -56.5zM850 1124v-473h86q79 0 123.5 60t44.5 184q0 229 -180 229h-74z
M897 1530q236 0 421.5 -101t290.5 -286t105 -424q0 -242 -105 -428t-290.5 -286.5t-421.5 -100.5q-233 0 -418 100t-291 286.5t-106 428.5q0 179 61.5 331t169.5 257t259 164t325 59zM528 1128v25h418q183 0 286 -68.5t103 -189.5q0 -128 -105.5 -201t-289.5 -73h-90v-250
q0 -36 22.5 -52.5t69.5 -21.5l43 -4v-27h-457v27l33 4q37 5 53.5 21t16.5 53v680q0 37 -16.5 52.5t-53.5 20.5z" />
    <glyph glyph-name="trademark" unicode="&#x2122;" horiz-adv-x="1943" 
d="M1868 711l33 -6v-31h-455v31l33 6q38 5 53.5 23t11.5 61l-55 505l-164 -626h-158l-155 631l-54 -504q-4 -46 11 -65t55 -25l33 -4v-33h-260v31l34 6q39 5 59.5 23.5t24.5 60.5l56 518q4 43 -12 62.5t-54 21.5l-33 6v31h355l121 -478l131 478h342v-31l-31 -6
q-34 -5 -48.5 -23.5t-10.5 -60.5l59 -518q4 -42 23.5 -60.5t54.5 -23.5zM76 1434h700l37 -254l-29 -2q-26 97 -92 161t-135 64h-12v-608q0 -42 22.5 -60.5t69.5 -23.5l41 -6v-31h-502v31l41 6q47 5 69.5 23.5t22.5 60.5v608h-14q-68 0 -133.5 -62.5t-93.5 -162.5l-29 2z" />
    <glyph glyph-name="estimated" unicode="&#x212e;" horiz-adv-x="1542" 
d="M324 1063v-309h907v301q0 70 -25 128.5t-67 98.5t-98 68.5t-117.5 41.5t-126.5 13q-81 0 -161 -20.5t-151.5 -60t-116 -107.5t-44.5 -154zM797 1454q141 0 267 -59t216 -159t142.5 -236t52.5 -285v-8h-1153v-336q0 -82 47 -149.5t121 -108t159 -62.5t168 -22
q202 0 365 111t219 286h55q-58 -199 -236 -322.5t-403 -123.5q-141 0 -276 59t-236.5 157t-163 235t-61.5 284q0 119 36.5 231.5t103 203.5t155 159.5t197.5 106.5t225 38z" />
    <glyph glyph-name="onethird" unicode="&#x2153;" horiz-adv-x="1609" 
d="M1180 -12q-108 0 -171 38.5t-63 92.5q0 56 58 100q45 -77 114 -132.5t125 -55.5q86 0 86 121q0 101 -79.5 159.5t-215.5 48.5l-8 25q115 62 174.5 130.5t59.5 135.5q0 46 -29.5 72.5t-73.5 26.5q-52 0 -100.5 -35t-77.5 -97l-21 11q38 108 149.5 174.5t223.5 66.5
q77 0 125.5 -35.5t48.5 -105.5q0 -82 -75.5 -142t-206.5 -108l2 -6q159 8 248.5 -52t89.5 -147q0 -52 -25.5 -102t-72 -91.5t-121 -67t-164.5 -25.5zM500 608v-35h-475v35l55 4q61 3 61 50v573q0 33 -11.5 41t-47.5 8h-72v29l352 133h19v-784q0 -44 63 -50zM1188 1456
l33 -22l-877 -1457l-35 23z" />
    <glyph glyph-name="twothirds" unicode="&#x2154;" horiz-adv-x="1740" 
d="M666 889l-76 -316h-592v31q201 215 277.5 340t76.5 219q0 70 -34.5 107t-88.5 37q-55 0 -103 -33.5t-77 -95.5l-18 10q27 82 87.5 142.5t130.5 88t142 27.5q100 0 165 -55t65 -150q0 -116 -108.5 -228t-311.5 -227v-2h202q185 0 238 105h25zM1319 1456l33 -22l-877 -1457
l-35 23zM1311 -12q-108 0 -171 38.5t-63 92.5q0 56 58 100q45 -77 114 -132.5t125 -55.5q86 0 86 121q0 101 -79.5 159.5t-215.5 48.5l-8 25q115 62 173.5 130.5t58.5 135.5q0 46 -29.5 72.5t-73.5 26.5q-52 0 -99.5 -35t-76.5 -97l-20 11q38 108 148.5 175.5t221.5 67.5
q77 0 126.5 -36.5t49.5 -106.5q0 -82 -75.5 -142t-206.5 -108l2 -6q159 8 248.5 -52t89.5 -147q0 -52 -25.5 -102t-72 -91.5t-121 -67t-164.5 -25.5z" />
    <glyph glyph-name="uni2155" unicode="&#x2155;" horiz-adv-x="1581" 
d="M1513 651h-440l-14 -102q230 4 347.5 -63t117.5 -193q0 -57 -22.5 -110t-66.5 -97.5t-119 -71t-171 -26.5q-102 0 -160.5 34.5t-58.5 86.5q0 60 71 106q38 -78 98.5 -130t129.5 -52q52 0 83 35t31 88q0 74 -90.5 122t-263.5 44l86 538h330q59 0 88.5 9t40.5 34h18z
M25 573v35l55 4q61 3 61 50v573q0 33 -11.5 41t-47.5 8h-72v29l352 133h19v-784q0 -44 63 -50l56 -4v-35h-475zM344 -23l-35 23l879 1456l33 -22z" />
    <glyph glyph-name="uni2156" unicode="&#x2156;" horiz-adv-x="1699" 
d="M1632 651h-440l-14 -102q230 4 347 -63t117 -193q0 -57 -22.5 -110t-66.5 -97.5t-118.5 -71t-170.5 -26.5q-105 0 -163.5 34.5t-58.5 86.5q0 59 72 106q40 -79 100 -130.5t129 -51.5q53 0 84 35t31 88q0 74 -90.5 122t-263.5 44l86 538h330q59 0 88.5 9t40.5 34h18z
M641 889h25l-76 -316h-592v31q201 215 277.5 340t76.5 219q0 70 -34.5 107t-88.5 37q-55 0 -103 -33.5t-77 -95.5l-18 10q27 82 87.5 142.5t130.5 88t142 27.5q100 0 165 -55t65 -150q0 -116 -108.5 -228t-311.5 -227v-2h202q185 0 238 105zM475 -23l-35 23l879 1456l33 -22
z" />
    </font>
</defs>
</svg>
