<?xml version="1.0" standalone="no"?>
<!DOCTYPE svg PUBLIC "-//W3C//DTD SVG 1.1//EN" "http://www.w3.org/Graphics/SVG/1.1/DTD/svg11.dtd" >
<svg xmlns="http://www.w3.org/2000/svg" xmlns:xlink="http://www.w3.org/1999/xlink" version="1.1">
<metadata>
Created by FontForge 20201107 at Fri Feb 21 06:44:59 2025
 By 
Copyright (c) 2022 by Rene Bieder. All rights reserved. Viet hoa boi STYLEno.1 Fonts
</metadata>
<defs>
<font id="SVN-RBVitruvDisplay-Medium" horiz-adv-x="1228" >
  <font-face 
    font-family="SVN-RB Vitruv Display Med"
    font-weight="500"
    font-stretch="semi-condensed"
    units-per-em="2048"
    panose-1="0 0 6 6 0 0 0 0 0 0"
    ascent="1638"
    descent="-410"
    x-height="1114"
    cap-height="1434"
    bbox="-328 -807 2542 2300"
    underline-thickness="102"
    underline-position="-204"
    unicode-range="U+000D-2715"
  />
<missing-glyph horiz-adv-x="1740" 
d="M1087 248q75 0 121.5 48.5t46.5 127.5v104q0 23 -22 23h-725q-23 0 -23 -23v-41q0 -22 23 -22h389q23 0 23 -23v-18q0 -79 46 -127.5t121 -48.5zM446 760l27 -27q15 -19 31 0l100 101q18 15 33 0l100 -101q17 -17 33 0l27 27q15 16 0 31l-101 100q-16 17 0 33l101 100
q15 18 0 33l-27 26q-16 17 -33 0l-100 -100q-15 -18 -33 0l-100 100q-16 15 -31 0l-27 -26q-16 -17 0 -33l101 -100q12 -16 0 -31l-101 -102q-16 -15 0 -31zM942 760l27 -27q16 -16 32 0l101 101q15 15 33 0l100 -101q15 -19 31 0l26 27q19 16 0 31l-100 100q-16 17 0 33
l100 100q16 16 0 33l-26 26q-16 15 -31 0l-100 -100q-18 -18 -33 0l-101 100q-16 16 -32 0l-27 -26q-15 -15 0 -33l100 -100q16 -16 0 -31l-100 -102q-16 -15 0 -31zM868 1497q350 0 564.5 -215.5t214.5 -568.5q0 -350 -214.5 -564.5t-564.5 -214.5q-229 0 -405.5 97
t-273.5 274t-97 408q0 171 55 316t154.5 248.5t245.5 161.5t321 58zM1087 344q-69 0 -69 82v39h139v-39q0 -41 -15.5 -61.5t-54.5 -20.5z" />
    <glyph glyph-name="f_b" unicode="fb" horiz-adv-x="1888" 
d="M1253 10q142 0 228 151.5t86 405.5q0 445 -281 445q-121 0 -231 -94v-832q104 -76 198 -76zM418 1114h401v402q-82 61 -180 61q-88 0 -154 -51q-72 -54 -91.5 -154t24.5 -258zM1411 1135q85 0 159.5 -34t131 -97t89 -161.5t32.5 -219.5q0 -300 -159 -471.5t-421 -171.5
q-206 0 -424 106v987h-395v-921q0 -57 25.5 -79.5t70.5 -29.5l62 -10v-33h-541v33l49 8q48 9 72 31t24 80v921h-153v41l155 19q9 146 98 268t224 189t281 67q108 0 170 -47l92 28h2v-677q150 174 356 174z" />
    <glyph glyph-name="f_f" unicode="ff" horiz-adv-x="1288" 
d="M418 1114h395q9 178 100 305q-113 158 -274 158q-88 0 -154 -51q-72 -54 -91.5 -154t24.5 -258zM1315 1638q97 0 142.5 -37.5t45.5 -93.5q0 -40 -26 -76.5t-66 -48.5q-29 76 -100 125t-146 49q-103 0 -132.5 -99t14.5 -343h233v-41h-229v-921q0 -58 29 -80t89 -31l62 -8
v-33h-561v33l49 8q48 9 71 31t23 80v921h-389v-921q0 -57 25.5 -79.5t70.5 -29.5l62 -10v-33h-541v33l49 8q48 9 72 31t24 80v921h-153v41l155 19q7 110 61 209t137.5 167t189.5 108t215 40q90 0 151 -33.5t74 -93.5q132 108 299 108z" />
    <glyph glyph-name="f_f_b" unicode="ffb" horiz-adv-x="2512" 
d="M1878 10q61 0 111.5 27.5t83 75t56.5 104t36.5 122t18 121t5.5 107.5q0 445 -280 445q-120 0 -230 -94v-832q101 -76 199 -76zM639 1577q-88 0 -154 -51q-72 -54 -91.5 -154t24.5 -258h393q8 165 107 299q-114 164 -279 164zM1040 1114h402v402q-82 61 -180 61
q-88 0 -154 -51q-73 -54 -92.5 -154t24.5 -258zM2036 1135q84 0 157.5 -34t130 -97t89 -161.5t32.5 -219.5q0 -300 -157.5 -471.5t-419.5 -171.5q-206 0 -426 106v987h-395v-921q0 -57 26 -79t70 -30l61 -10v-33h-538v33l49 8q48 9 72 31t24 80v921h-387v-921
q0 -57 25.5 -79.5t70.5 -29.5l62 -10v-33h-541v33l49 8q48 9 72 31t24 80v921h-153v41l155 19q7 99 48.5 186t104.5 147.5t140.5 104.5t156 65t150.5 21q96 0 159.5 -38t70.5 -106q88 69 194 106.5t201 37.5q107 0 172 -47l92 28h2v-677q75 88 168 131t189 43z" />
    <glyph glyph-name="f_f_h" unicode="ffh" horiz-adv-x="2535" 
d="M639 1577q-88 0 -154 -51q-72 -54 -91.5 -154t24.5 -258h393q8 165 107 299q-114 164 -279 164zM1040 1114h408v397q-91 66 -186 66q-88 0 -154 -51q-73 -54 -92.5 -154t24.5 -258zM2466 41l49 -8v-33h-516v33l47 8q44 9 66 31.5t22 79.5v636q0 104 -50 164t-142 60
q-69 0 -136 -34t-120 -99v-727q0 -57 22 -79.5t66 -31.5l47 -8v-33h-512v33l49 8q45 9 67.5 31t22.5 80v921h-401v-921q0 -57 26 -79t70 -30l61 -10v-33h-538v33l49 8q48 9 72 31t24 80v921h-387v-921q0 -57 25.5 -79.5t70.5 -29.5l62 -10v-33h-541v33l49 8q48 9 72 31
t24 80v921h-153v41l155 19q7 99 48.5 186t104.5 147.5t140.5 104.5t156 65t150.5 21q96 0 159.5 -38t70.5 -106q88 69 194 106.5t201 37.5q110 0 174 -49l96 30h3v-708q67 98 162 151.5t206 53.5q152 0 234 -95t82 -260v-628q0 -58 24 -80t72 -31z" />
    <glyph glyph-name="f_f_i" unicode="ffi" horiz-adv-x="1892" 
d="M639 1577q-88 0 -154 -51q-72 -54 -91.5 -154t24.5 -258h418q9 159 94 283q-55 88 -132 134t-159 46zM1817 41l49 -8v-33h-527v33l50 8q48 9 72 31t24 80v921h-412v-921q0 -57 25.5 -79.5t70.5 -29.5l60 -10v-33h-539v33l49 8q49 9 73 31t24 80v921h-412v-921
q0 -57 25.5 -79.5t70.5 -29.5l62 -10v-33h-541v33l49 8q48 9 72 31t24 80v921h-153v41l155 19q7 110 60.5 208.5t136 167t188 108.5t213.5 40q103 0 168 -43t66 -119q89 78 203 121t225 43q122 0 177.5 -41t55.5 -105q0 -53 -31 -97t-89 -70q-38 101 -114 160t-165 59
q-67 0 -114.5 -24t-79.5 -77t-36 -139.5t17 -210.5h651v-962q0 -58 24 -80t73 -31z" />
    <glyph glyph-name="f_f_j" unicode="ffj" horiz-adv-x="1800" 
d="M639 1577q-88 0 -154 -51q-72 -54 -91.5 -154t24.5 -258h418q9 159 94 283q-55 88 -132 134t-159 46zM1282 1565q-67 0 -114.5 -24t-79.5 -77t-36 -139.5t17 -210.5h598v-936q0 -77 -41 -176t-103.5 -185.5t-146.5 -146t-162 -59.5q-74 0 -113 40.5t-30 101.5t64 116
q108 -156 196 -156q51 0 76 50t25 178v1132h-359v-921q0 -57 25.5 -79.5t70.5 -29.5l60 -10v-33h-539v33l49 8q49 9 73 31t24 80v921h-412v-921q0 -57 25.5 -79.5t70.5 -29.5l62 -10v-33h-541v33l49 8q48 9 72 31t24 80v921h-153v41l155 19q7 110 60.5 208.5t136 167
t188 108.5t213.5 40q103 0 168 -43t66 -119q89 78 203 121t225 43q122 0 177.5 -41t55.5 -105q0 -53 -31 -97t-89 -70q-38 101 -114 160t-165 59z" />
    <glyph glyph-name="f_f_k" unicode="ffk" horiz-adv-x="2445" 
d="M639 1577q-88 0 -154 -51q-72 -54 -91.5 -154t24.5 -258h393q8 165 107 299q-114 164 -279 164zM1040 1114h408v397q-91 66 -186 66q-88 0 -154 -51q-73 -54 -92.5 -154t24.5 -258zM1683 1638h3v-1486q0 -58 24 -80t72 -31l49 -8v-33h-526v33l49 8q48 9 71 31t23 80v921
h-401v-921q0 -57 26 -79t70 -30l61 -10v-33h-538v33l49 8q48 9 72 31t24 80v921h-387v-921q0 -57 25.5 -79.5t70.5 -29.5l62 -10v-33h-541v33l49 8q48 9 72 31t24 80v921h-153v41l155 19q7 99 48.5 186t104.5 147.5t140.5 104.5t156 65t150.5 21q96 0 159.5 -38t70.5 -106
q88 69 194 106.5t201 37.5q110 0 174 -49zM2210 979l-260 -256l522 -711v-12h-287l-428 602l412 395q36 35 28.5 52t-67.5 24l-59 8v33h358v-33l-39 -8q-109 -23 -180 -94z" />
    <glyph glyph-name="f_f_l" unicode="ffl" horiz-adv-x="1857" 
d="M639 1577q-88 0 -154 -51q-72 -54 -91.5 -154t24.5 -258h393q8 165 107 299q-114 164 -279 164zM1040 1114h408v397q-91 66 -186 66q-88 0 -154 -51q-73 -54 -92.5 -154t24.5 -258zM1782 41l49 -8v-33h-526v33l49 8q48 9 71 31t23 80v921h-401v-921q0 -57 26 -79t70 -30
l61 -10v-33h-538v33l49 8q48 9 72 31t24 80v921h-387v-921q0 -57 25.5 -79.5t70.5 -29.5l62 -10v-33h-541v33l49 8q48 9 72 31t24 80v921h-153v41l155 19q7 99 48.5 186t104.5 147.5t140.5 104.5t156 65t150.5 21q96 0 159.5 -38t70.5 -106q88 69 194 106.5t201 37.5
q110 0 174 -49l96 30h3v-1486q0 -58 24 -80t72 -31z" />
    <glyph glyph-name="f_h" unicode="fh" horiz-adv-x="1910" 
d="M418 1114h407v397q-91 66 -186 66q-88 0 -154 -51q-72 -54 -91.5 -154t24.5 -258zM1843 41l49 -8v-33h-516v33l45 8q45 9 66.5 31t21.5 80v636q0 104 -49.5 164t-140.5 60q-70 0 -137.5 -35t-120.5 -100v-725q0 -57 22 -79.5t66 -31.5l47 -8v-33h-510v33l47 8
q47 9 69.5 31t22.5 80v921h-401v-921q0 -57 25.5 -79.5t70.5 -29.5l62 -10v-33h-541v33l49 8q48 9 72 31t24 80v921h-153v41l155 19q7 110 61 209t138 167t190 108t214 40q111 0 172 -49l96 30h2v-708q67 98 162.5 151.5t206.5 53.5q153 0 235 -95.5t82 -259.5v-628
q0 -58 24 -80t72 -31z" />
    <glyph glyph-name="f_i" unicode="fi" horiz-adv-x="1243" 
d="M1167 41l50 -8v-33h-527v33l49 8q49 9 73 31t24 80v921h-412v-921q0 -57 25.5 -79.5t70.5 -29.5l62 -10v-33h-541v33l49 8q48 9 72 31t24 80v921h-153v41l155 19q8 120 67 222t147 167t191.5 101t205.5 36q122 0 177.5 -41t55.5 -105q0 -52 -31 -96.5t-90 -70.5
q-38 102 -113.5 160.5t-164.5 58.5q-67 0 -114.5 -24t-79.5 -77t-36 -139.5t17 -210.5h651v-962q0 -58 24 -80t72 -31z" />
    <glyph glyph-name="f_j" unicode="fj" horiz-adv-x="1150" 
d="M633 1565q-67 0 -114.5 -24t-79.5 -77t-36 -139.5t17 -210.5h598v-936q0 -77 -41 -176t-103.5 -185.5t-146.5 -146t-162 -59.5q-74 0 -113 40.5t-30.5 101.5t63.5 116q108 -156 197 -156q51 0 75.5 50t24.5 178v1132h-358v-921q0 -57 25.5 -79.5t70.5 -29.5l62 -10v-33
h-541v33l49 8q48 9 72 31t24 80v921h-153v41l155 19q8 120 67 222t147 167t191.5 101t205.5 36q122 0 177.5 -41t55.5 -105q0 -52 -31 -96.5t-90 -70.5q-38 102 -113.5 160.5t-164.5 58.5z" />
    <glyph glyph-name="f_k" unicode="fk" horiz-adv-x="1820" 
d="M418 1114h407v397q-91 66 -186 66q-88 0 -154 -51q-72 -54 -91.5 -154t24.5 -258zM1059 1638h2v-1486q0 -58 24 -80t72 -31l49 -8v-33h-526v33l49 8q48 9 72 31t24 80v921h-401v-921q0 -57 25.5 -79.5t70.5 -29.5l62 -10v-33h-541v33l49 8q48 9 72 31t24 80v921h-153v41
l155 19q7 110 61 209t138 167t190 108t214 40q111 0 172 -49zM1585 979l-260 -256l524 -711v-12h-286l-428 602l409 395q37 35 29.5 52t-66.5 24l-61 8v33h360v-33l-41 -8q-109 -23 -180 -94z" />
    <glyph glyph-name="f_l" unicode="fl" horiz-adv-x="1232" 
d="M418 1114h407v397q-91 66 -186 66q-88 0 -154 -51q-72 -54 -91.5 -154t24.5 -258zM1157 41l49 -8v-33h-526v33l49 8q48 9 72 31t24 80v921h-401v-921q0 -57 25.5 -79.5t70.5 -29.5l62 -10v-33h-541v33l49 8q48 9 72 31t24 80v921h-153v41l155 19q7 110 61 209t138 167
t190 108t214 40q111 0 172 -49l96 30h2v-1486q0 -58 24 -80t72 -31z" />
    <glyph glyph-name=".notdef" horiz-adv-x="1740" 
d="M1087 248q75 0 121.5 48.5t46.5 127.5v104q0 23 -22 23h-725q-23 0 -23 -23v-41q0 -22 23 -22h389q23 0 23 -23v-18q0 -79 46 -127.5t121 -48.5zM446 760l27 -27q15 -19 31 0l100 101q18 15 33 0l100 -101q17 -17 33 0l27 27q15 16 0 31l-101 100q-16 17 0 33l101 100
q15 18 0 33l-27 26q-16 17 -33 0l-100 -100q-15 -18 -33 0l-100 100q-16 15 -31 0l-27 -26q-16 -17 0 -33l101 -100q12 -16 0 -31l-101 -102q-16 -15 0 -31zM942 760l27 -27q16 -16 32 0l101 101q15 15 33 0l100 -101q15 -19 31 0l26 27q19 16 0 31l-100 100q-16 17 0 33
l100 100q16 16 0 33l-26 26q-16 15 -31 0l-100 -100q-18 -18 -33 0l-101 100q-16 16 -32 0l-27 -26q-15 -15 0 -33l100 -100q16 -16 0 -31l-100 -102q-16 -15 0 -31zM868 1497q350 0 564.5 -215.5t214.5 -568.5q0 -350 -214.5 -564.5t-564.5 -214.5q-229 0 -405.5 97
t-273.5 274t-97 408q0 171 55 316t154.5 248.5t245.5 161.5t321 58zM1087 344q-69 0 -69 82v39h139v-39q0 -41 -15.5 -61.5t-54.5 -20.5z" />
    <glyph glyph-name="uni0000" horiz-adv-x="0" 
 />
    <glyph glyph-name="uni0000" horiz-adv-x="0" 
 />
    <glyph glyph-name="uni000D" unicode="&#xd;" horiz-adv-x="512" 
 />
    <glyph glyph-name="space" unicode=" " horiz-adv-x="428" 
 />
    <glyph glyph-name="exclam" unicode="!" horiz-adv-x="516" 
d="M270 487h-20l-121 738q-25 109 13.5 169t111.5 60t112 -60t17 -169zM258 -12q-60 0 -100.5 41t-40.5 98q0 62 40.5 103.5t100.5 41.5q61 0 102 -41.5t41 -103.5q0 -58 -41 -98.5t-102 -40.5z" />
    <glyph glyph-name="quotedbl" unicode="&#x22;" horiz-adv-x="636" 
d="M164 1090h-4l-99 360q-25 88 7 138t94 50q63 0 95 -50t5 -138zM477 1090h-4l-98 360q-25 89 6.5 138.5t93.5 49.5q63 0 95 -50t5 -138z" />
    <glyph glyph-name="numbersign" unicode="#" horiz-adv-x="1200" 
d="M778 891h-250l-108 -342h250zM1008 549v-119h-246l-144 -450l-116 40l129 410h-250l-143 -450l-117 40l129 410h-176v119h215l108 342h-204v119h243l144 450l118 -43l-131 -407h250l144 450l118 -43l-131 -407h178v-119h-217l-108 -342h207z" />
    <glyph glyph-name="dollar" unicode="$" horiz-adv-x="1124" 
d="M600 586v-574q116 2 190 79t74 198q0 61 -19.5 108.5t-58.5 82.5t-82 58.5t-104 47.5zM283 1165q0 -56 21 -100t63.5 -77t85 -54.5t106.5 -46.5v534q-121 -1 -198.5 -74t-77.5 -182zM1055 434q0 -187 -127.5 -310t-327.5 -142v-283h-41v281h-14q-113 0 -233 30t-208 84
l-38 328h20q33 -71 80 -137.5t107 -126t135 -98.5t151 -46v586q-21 8 -65 24q-79 29 -119.5 46t-103.5 53t-95 73.5t-57 97.5t-25 134q0 179 131.5 297t333.5 127v283h41v-281q203 0 369 -84l22 -330h-20q-136 352 -371 379v-547q167 -60 228 -91q163 -83 208 -219
q19 -58 19 -128z" />
    <glyph glyph-name="percent" unicode="%" horiz-adv-x="1812" 
d="M274 1081q0 -82 16.5 -144.5t56 -103t97.5 -40.5q87 0 129.5 80.5t42.5 207.5q0 128 -42.5 208.5t-129.5 80.5q-86 0 -128 -80.5t-42 -208.5zM379 -39l921 1518h132l-922 -1518h-131zM80 1081q0 173 106 275t258 102t259.5 -102t107.5 -275t-107.5 -274.5t-259.5 -101.5
t-258 101.5t-106 274.5zM1538 358q0 82 -16.5 145t-56 103.5t-97.5 40.5q-87 0 -129.5 -81t-42.5 -208q0 -128 42.5 -208t129.5 -80q86 0 128 80t42 208zM1733 358q0 -116 -52 -203t-134 -130t-179 -43q-153 0 -260 101.5t-107 274.5q0 172 107 274.5t260 102.5
q150 0 257.5 -103t107.5 -274z" />
    <glyph glyph-name="ampersand" unicode="&#x26;" horiz-adv-x="1570" 
d="M643 102q190 0 338 142l-489 497q-17 17 -23 25q-88 -80 -130 -161.5t-42 -182.5q0 -149 91.5 -234.5t254.5 -85.5zM635 1427q-76 0 -124 -54t-48 -144q0 -74 41.5 -152t134.5 -174q90 67 124 139t34 160q0 105 -44 165t-118 60zM1565 854v-29l-56 -16
q-56 -13 -106 -61.5t-133 -167.5l-127 -181l373 -374v-25h-295l-215 219q-106 -122 -230.5 -180.5t-279.5 -58.5q-195 0 -311.5 91t-116.5 253q0 138 95 250.5t286 213.5q-99 112 -139 188t-40 150q0 138 98.5 233t266.5 95q143 0 228 -66t85 -176q0 -96 -70.5 -173
t-220.5 -154l457 -459l82 152q38 67 43 120t-17 82.5t-63 36.5l-49 8v29h455z" />
    <glyph glyph-name="quotesingle" unicode="'" horiz-adv-x="323" 
d="M164 1090h-4l-99 360q-25 88 7 138t94 50q63 0 95 -50t5 -138z" />
    <glyph glyph-name="parenleft" unicode="(" horiz-adv-x="722" 
d="M123 643q0 261 108.5 512t305.5 422h131q-126 -135 -202.5 -296t-104 -312t-27.5 -326t27.5 -325.5t104 -311t202.5 -295.5h-131q-197 171 -305.5 421t-108.5 511z" />
    <glyph glyph-name="parenright" unicode=")" horiz-adv-x="722" 
d="M600 643q0 -261 -108.5 -511t-305.5 -421h-131q126 135 202.5 295.5t104 311t27.5 325.5t-27.5 326t-104 312t-202.5 296h131q197 -171 305.5 -422t108.5 -512z" />
    <glyph glyph-name="asterisk" unicode="*" horiz-adv-x="1005" 
d="M956 1290q12 -42 -12.5 -77t-77.5 -48q-52 -12 -108 -12q-25 0 -106 4.5t-126 1.5q28 -27 125 -100t133 -125q31 -44 28 -86.5t-40 -67.5q-24 -18 -53 -18q-55 0 -96 59q-34 50 -69.5 164t-51.5 150q-7 -18 -45.5 -140t-75.5 -174q-41 -59 -94 -59q-30 0 -54 18
q-37 25 -40 67.5t28 86.5q36 51 130.5 122.5t125.5 102.5q-45 3 -125.5 -1.5t-105.5 -4.5q-56 0 -109 12q-51 13 -76 48t-14 77q9 34 36 53t64 19q20 0 41 -6q61 -16 166 -83.5t131 -80.5q-6 27 -42.5 144.5t-36.5 181.5q0 54 27 87t71 33q43 0 69.5 -33t26.5 -87
q0 -64 -37 -181t-43 -145q20 10 128 79t169 85q21 6 41 6q37 0 63 -19t35 -53z" />
    <glyph glyph-name="plus" unicode="+" horiz-adv-x="1179" 
d="M516 1210h146v-381h382v-147h-382v-381h-146v381h-381v147h381v381z" />
    <glyph glyph-name="comma" unicode="," horiz-adv-x="432" 
d="M35 -254l-4 12q90 38 140 91t50 110q0 50 -42 95.5t-116 74.5q0 61 43.5 102t100.5 41q68 0 110.5 -49.5t42.5 -122.5q0 -116 -84 -211t-241 -143z" />
    <glyph glyph-name="hyphen" unicode="-" horiz-adv-x="737" 
d="M635 535h-533v180h533v-180z" />
    <glyph glyph-name="period" unicode="." horiz-adv-x="423" 
d="M211 -12q-59 0 -100 41t-41 98q0 62 40.5 103.5t100.5 41.5q61 0 102 -41.5t41 -103.5q0 -58 -41 -98.5t-102 -40.5z" />
    <glyph glyph-name="slash" unicode="/" horiz-adv-x="841" 
d="M764 1577l-565 -1853h-154l563 1853h156z" />
    <glyph glyph-name="zero" unicode="0" horiz-adv-x="1318" 
d="M659 -20q-162 0 -294.5 94.5t-208.5 264t-76 378.5t76 378.5t208.5 264t294.5 94.5q121 0 229 -55.5t185.5 -152.5t122.5 -234.5t45 -294.5t-45 -294.5t-122.5 -234.5t-185.5 -152.5t-229 -55.5zM659 16q154 0 231 179t77 522t-77 521.5t-231 178.5t-232.5 -179
t-78.5 -521t78.5 -521.5t232.5 -179.5z" />
    <glyph glyph-name="one" unicode="1" horiz-adv-x="757" 
d="M735 0h-674v33l72 8q72 9 107.5 31t35.5 80v993q0 66 -21 88t-87 22h-148v23l482 176h18v-1302q0 -58 36 -80t108 -31l71 -8v-33z" />
    <glyph glyph-name="two" unicode="2" horiz-adv-x="1077" 
d="M924 0h-918v20q167 156 289.5 289t195.5 232t116.5 188t58 153.5t14.5 131.5q0 137 -74.5 210.5t-189.5 73.5q-102 0 -194.5 -58t-133.5 -157l-14 7q59 162 196.5 261t307.5 99q156 0 261 -92.5t105 -249.5q0 -102 -47.5 -207.5t-144.5 -219t-213 -220.5t-285 -244v-4
h436q112 0 184 53.5t127 159.5h21z" />
    <glyph glyph-name="three" unicode="3" horiz-adv-x="1087" 
d="M481 -20q-110 0 -206.5 29.5t-156 81.5t-59.5 114q0 71 76 141q66 -121 186.5 -220t237.5 -99q102 0 167 79t65 199q0 169 -140 264t-375 95l-10 24q210 119 300.5 214t90.5 208q0 96 -57 150.5t-147 54.5q-103 0 -203 -69t-146 -169l-14 6q59 163 201.5 267t308.5 104
q130 0 209.5 -66.5t79.5 -185.5q0 -113 -88 -199t-283 -186l2 -6q238 -12 370 -119t132 -270q0 -183 -152 -312.5t-389 -129.5z" />
    <glyph glyph-name="four" unicode="4" horiz-adv-x="1142" 
d="M1122 410v-41h-225v-217q0 -58 29.5 -80t89.5 -31l61 -8v-33h-602v33l62 8q60 9 89 31t29 80v217h-616l-23 34l590 1031h254v-4l-790 -1020h585v524l242 70v-594h225z" />
    <glyph glyph-name="five" unicode="5" horiz-adv-x="1067" 
d="M289 1217l-51 -297q195 -4 339.5 -39t231.5 -95.5t128.5 -138.5t41.5 -176q0 -101 -39.5 -190.5t-109.5 -156t-173 -105.5t-225 -39q-110 0 -202 28.5t-148 79.5q-63 54 -56 122t83 134q55 -116 182 -211.5t246 -95.5q101 0 172 77t71 212q0 55 -17.5 104t-62 97
t-113.5 82.5t-178.5 57t-250.5 25.5l127 742h503q170 0 205 71h17l-45 -288h-676z" />
    <glyph glyph-name="six" unicode="6" horiz-adv-x="1167" 
d="M614 16q110 0 175 104t65 277q0 175 -70.5 279t-201.5 104q-139 0 -244 -108q-6 -64 -6 -131q0 -280 82 -402q82 -123 200 -123zM731 879q169 0 276 -112.5t107 -293.5q0 -213 -144.5 -353t-365.5 -140q-236 0 -383 164.5t-147 428.5q0 186 78 348.5t210.5 276t309.5 181
t372 73.5v-16q-307 -20 -487 -207.5t-217 -521.5q81 81 182.5 126.5t208.5 45.5z" />
    <glyph glyph-name="seven" unicode="7" horiz-adv-x="1007" 
d="M35 1044l61 390h908v-9l-115 -206l-481 -1219h-275v4l725 1213h-524q-128 0 -189 -38t-90 -135h-20z" />
    <glyph glyph-name="eight" unicode="8" horiz-adv-x="1183" 
d="M606 18q135 0 224.5 69.5t89.5 180.5q0 53 -22 97t-53.5 74t-85.5 60t-99 48.5t-113.5 47t-110.5 48.5q-87 -54 -133.5 -133t-46.5 -170q0 -141 98 -231.5t252 -90.5zM328 1167q0 -38 12 -72t27 -59t48 -52.5t56 -43.5t71.5 -40t72.5 -35t81 -36q195 109 195 301
q0 129 -77.5 207t-205.5 78q-124 0 -202 -69.5t-78 -178.5zM719 819q48 -20 82 -35.5t78 -39t74.5 -46t62 -54.5t50.5 -66t31.5 -78t12.5 -94q0 -188 -150.5 -306t-392.5 -118q-217 0 -358 91.5t-141 237.5q0 114 86.5 202t248.5 146q-58 30 -101.5 62t-81.5 76t-57.5 101.5
t-19.5 127.5q0 188 133 307t347 119q182 0 303 -84.5t121 -222.5q0 -107 -81 -186t-247 -140z" />
    <glyph glyph-name="nine" unicode="9" horiz-adv-x="1163" 
d="M582 653q137 0 245 111q4 82 4 129q0 266 -76.5 395t-205.5 129q-110 0 -175 -104t-65 -277q0 -171 72.5 -277t200.5 -106zM559 1454q236 0 383.5 -165t147.5 -429q0 -186 -78 -348.5t-210.5 -275.5t-310 -180.5t-372.5 -73.5v16q307 20 487 207.5t217 521.5
q-81 -81 -182.5 -126.5t-208.5 -45.5q-169 0 -276 113.5t-107 292.5q0 213 144.5 353t365.5 140z" />
    <glyph glyph-name="colon" unicode=":" horiz-adv-x="491" 
d="M244 -12q-59 0 -99.5 40.5t-40.5 98.5q0 62 40 103.5t100 41.5q61 0 102 -41.5t41 -103.5q0 -58 -41 -98.5t-102 -40.5zM244 1126q61 0 102 -40.5t41 -98.5q0 -62 -41 -103.5t-102 -41.5q-60 0 -100 41.5t-40 103.5q0 58 40.5 98.5t99.5 40.5z" />
    <glyph glyph-name="semicolon" unicode=";" horiz-adv-x="509" 
d="M76 -254l-4 12q90 38 140 91t50 110q0 50 -42 95.5t-116 74.5q0 61 43.5 102t100.5 41q68 0 111.5 -49.5t43.5 -122.5q0 -116 -85 -211t-242 -143zM258 1126q61 0 102 -40.5t41 -98.5q0 -62 -41 -103.5t-102 -41.5q-60 0 -100.5 41.5t-40.5 103.5q0 57 40.5 98t100.5 41z
" />
    <glyph glyph-name="less" unicode="&#x3c;" horiz-adv-x="876" 
d="M90 741v21l651 399v-176l-397 -231l397 -238v-174z" />
    <glyph glyph-name="equal" unicode="=" horiz-adv-x="1200" 
d="M145 535v141h912v-141h-912zM145 836v143h912v-143h-912z" />
    <glyph glyph-name="greater" unicode="&#x3e;" horiz-adv-x="876" 
d="M786 762v-21l-651 -399v174l397 238l-397 231v176z" />
    <glyph glyph-name="question" unicode="?" horiz-adv-x="784" 
d="M309 1454q117 0 217 -38t164 -114.5t64 -177.5q0 -129 -115.5 -243.5t-329.5 -178.5l-24 -217h-21l-37 422q101 28 181 71.5t126 90.5t69.5 92t23.5 84q0 57 -41 96t-113 39q-84 0 -193 -51.5t-194 -136.5q-39 56 -39 111q0 73 66.5 112t195.5 39zM285 272
q61 0 102 -41.5t41 -103.5q0 -58 -41 -98.5t-102 -40.5q-59 0 -99.5 40.5t-40.5 98.5q0 62 40 103.5t100 41.5z" />
    <glyph glyph-name="at" unicode="@" horiz-adv-x="2144" 
d="M838 152q47 0 106.5 47.5t129 144.5t146.5 269.5t146 396.5q-85 88 -170 88q-78 0 -163.5 -85.5t-149.5 -208.5t-106 -262t-42 -243q0 -147 103 -147zM2083 842q0 -206 -101 -383q-103 -186 -320 -304.5t-550 -154.5l221 815q-81 -225 -166 -390t-167.5 -260.5
t-159.5 -140t-154 -44.5q-105 0 -153 70.5t-48 191.5q0 120 37.5 246.5t108 241.5t163 206t212.5 145t247 54q115 0 224 -50l170 50h4l-262 -996q131 11 231.5 55t164 109.5t103.5 158t56 192t16 220.5q0 294 -197.5 471t-523.5 177q-189 0 -357 -59t-294.5 -165
t-218.5 -247t-139.5 -310t-47.5 -350q0 -386 207.5 -597.5t597.5 -211.5q189 0 374 51.5t331 149.5l18 -29q-142 -99 -334 -154t-391 -55q-276 0 -483.5 97.5t-325 291.5t-117.5 463q0 240 92.5 455t249.5 369t375.5 244.5t460.5 90.5q247 0 438.5 -87t299.5 -250t108 -377z
" />
    <glyph glyph-name="A" unicode="A" horiz-adv-x="1384" 
d="M827 565l-252 686l-231 -686h483zM1389 41l47 -8v-33h-584v33l55 8q62 11 77 32t-3 72l-139 379h-512l-127 -379q-17 -51 6 -72.5t108 -31.5l76 -8v-33h-416v33l46 8q59 10 86.5 32t44.5 72l430 1289h184l489 -1291q19 -47 47 -68.5t85 -33.5z" />
    <glyph glyph-name="B" unicode="B" horiz-adv-x="1349" 
d="M485 719v-678h193q340 0 340 350q0 170 -79 249t-245 79h-209zM958 1087q0 157 -75.5 231.5t-229.5 74.5h-168v-633h164q309 0 309 327zM831 743q212 -14 334.5 -105t122.5 -241q0 -175 -148 -286t-399 -111h-694v33l62 8q60 9 90 31t30 80v1130q0 58 -30 80t-90 31
l-62 8v33h641q250 0 390.5 -87.5t140.5 -250.5q0 -135 -105.5 -232.5t-282.5 -120.5z" />
    <glyph glyph-name="C" unicode="C" horiz-adv-x="1409" 
d="M844 -20q-233 0 -408.5 92t-269.5 259t-94 386q0 166 60 305.5t164 233.5t245.5 146t302.5 52q246 0 463 -111l20 -350h-20q-61 198 -188.5 313t-295.5 115q-135 0 -243.5 -90.5t-169 -251t-60.5 -360.5q0 -320 132.5 -513.5t353.5 -193.5q170 0 302 118t171 310h18v-344
q-238 -116 -483 -116z" />
    <glyph glyph-name="D" unicode="D" horiz-adv-x="1527" 
d="M492 1393v-1352h190q223 0 360.5 185t137.5 491t-137.5 491t-360.5 185h-190zM47 1401v33h627q227 0 404.5 -87t278.5 -251t101 -379t-101 -379t-278.5 -251t-404.5 -87h-627v33l62 8q60 9 90 31t30 80v1130q0 58 -30 80t-90 31z" />
    <glyph glyph-name="E" unicode="E" horiz-adv-x="1275" 
d="M1204 465h23l-66 -465h-1114v33l62 8q60 9 90 31t30 80v1130q0 58 -30 80t-90 31l-62 8v33h1034l68 -443l-23 -6q-27 89 -65 161t-89.5 128.5t-120.5 87.5t-149 31h-217v-641h162q87 0 128 53t65 205h20v-557h-20q-18 154 -58.5 206t-134.5 52h-162v-670h242
q96 0 167.5 20t132 67.5t104 130.5t73.5 206z" />
    <glyph glyph-name="F" unicode="F" horiz-adv-x="1177" 
d="M47 1434h1036l66 -443l-21 -6q-125 408 -417 408h-226v-656h170q59 0 94 20t61 76t44 162h20v-557h-20q-18 155 -60.5 206.5t-138.5 51.5h-170v-544q0 -58 37 -80t111 -31l74 -8v-33h-660v33l62 8q60 9 90 31t30 80v1130q0 58 -30 80t-90 31l-62 8v33z" />
    <glyph glyph-name="G" unicode="G" horiz-adv-x="1503" 
d="M911 637v33h580v-33l-55 -8q-53 -9 -81 -31.5t-28 -79.5v-422q-238 -116 -483 -116q-233 0 -408.5 92t-269.5 259t-94 386q0 166 60 305.5t164 233.5t245.5 146t302.5 52q246 0 463 -111l20 -350h-20q-61 198 -188.5 313t-295.5 115q-135 0 -243.5 -90.5t-169 -251
t-60.5 -360.5q0 -320 132.5 -513.5t353.5 -193.5q141 0 258 90v416q0 58 -30.5 80t-90.5 31z" />
    <glyph glyph-name="H" unicode="H" horiz-adv-x="1632" 
d="M1585 1401l-61 -8q-60 -9 -89.5 -31t-29.5 -80v-1130q0 -58 29.5 -80t89.5 -31l61 -8v-33h-620v33l61 8q60 9 89.5 31t29.5 80v573h-660v-573q0 -58 29.5 -80t89.5 -31l62 -8v-33h-619v33l62 8q60 9 90 31t30 80v1130q0 58 -30 80t-90 31l-62 8v33h619v-33l-62 -8
q-60 -9 -89.5 -31t-29.5 -80v-516h660v516q0 58 -29.5 80t-89.5 31l-61 8v33h620v-33z" />
    <glyph glyph-name="I" unicode="I" horiz-adv-x="714" 
d="M666 0h-619v33l62 8q60 9 90 31t30 80v1130q0 58 -30 80t-90 31l-62 8v33h619v-33l-62 -8q-60 -9 -89.5 -31t-29.5 -80v-1130q0 -58 29.5 -80t89.5 -31l62 -8v-33z" />
    <glyph glyph-name="J" unicode="J" horiz-adv-x="690" 
d="M-29 -389q-76 0 -121 42.5t-45 104.5q0 75 70 142q141 -191 242 -191q41 0 70.5 37.5t29.5 101.5v1434q0 58 -29.5 80t-91.5 31l-59 8v33h618v-33l-59 -8q-60 -9 -90.5 -31t-30.5 -80v-1114q0 -115 -73.5 -245.5t-193 -221t-237.5 -90.5z" />
    <glyph glyph-name="K" unicode="K" horiz-adv-x="1466" 
d="M485 1282v-1130q0 -58 29.5 -80t89.5 -31l62 -8v-33h-619v33l62 8q60 9 90 31t30 80v1130q0 58 -30 80t-90 31l-62 8v33h619v-33l-62 -8q-60 -9 -89.5 -31t-29.5 -80zM1194 1313l-406 -432l672 -869v-12h-313l-559 741l549 574q60 63 -70 78l-74 8v33h459v-33l-59 -8
q-153 -25 -199 -80z" />
    <glyph glyph-name="L" unicode="L" horiz-adv-x="1202" 
d="M1153 481l23 -4l-66 -477h-1063v33l62 8q60 9 90 31t30 80v1130q0 58 -30 80t-90 31l-62 8v33h619v-33l-62 -8q-60 -9 -89.5 -31t-29.5 -80v-1241h260q161 0 255 107t153 333z" />
    <glyph glyph-name="M" unicode="M" horiz-adv-x="1837" 
d="M1792 41l61 -8v-33h-620v33l61 8q60 9 87 31t22 80l-121 1116l-387 -1268h-160l-379 1245l-112 -1093q-5 -58 26.5 -80t98.5 -31l67 -8v-33h-454v33l67 8q66 9 101.5 31.5t42.5 79.5l118 1130q7 58 -23 80t-95 31l-68 8v33h438l361 -1162l360 1162h426v-33l-61 -8
q-60 -9 -87 -31t-20 -80l119 -1130q5 -57 37.5 -79.5t93.5 -31.5z" />
    <glyph glyph-name="N" unicode="N" horiz-adv-x="1533" 
d="M1061 1401v33h444v-33l-65 -8q-66 -9 -98.5 -31t-32.5 -80v-1282h-189l-839 1255v-1103q0 -58 33 -80t98 -31l67 -8v-33h-444v33l65 8q66 9 98.5 31t32.5 80v1130q0 58 -28 80t-86 31l-60 8v33h404l799 -1155v1003q0 57 -33 79.5t-99 31.5z" />
    <glyph glyph-name="O" unicode="O" horiz-adv-x="1507" 
d="M754 12q189 0 297 182.5t108 522.5t-108 522t-297 182q-188 0 -297 -182t-109 -522t109 -522.5t297 -182.5zM754 1454q156 0 286.5 -59t216 -160t132.5 -234.5t47 -283.5t-47.5 -283.5t-133 -234.5t-215.5 -160t-286 -59q-203 0 -360 99.5t-239.5 266.5t-82.5 371
q0 149 47.5 282.5t133.5 234.5t216 160.5t285 59.5z" />
    <glyph glyph-name="P" unicode="P" horiz-adv-x="1277" 
d="M981 1022q0 185 -91.5 280t-248.5 95h-156v-770h158q157 0 247.5 103t90.5 292zM662 590h-177v-438q0 -58 39.5 -80t120.5 -31l80 -8v-33h-678v33l62 8q60 9 90 31t30 80v1130q0 58 -30 80t-90 31l-62 8v33h625q269 0 422 -109t153 -303q0 -196 -157 -314t-428 -118z" />
    <glyph glyph-name="Q" unicode="Q" horiz-adv-x="1509" 
d="M348 717q0 -340 109 -522.5t297 -182.5q189 0 297 182.5t108 522.5t-108 522t-297 182q-188 0 -297 -182t-109 -522zM2021 -211l9 -14q-213 -162 -594 -162q-285 0 -573 122.5t-494 330.5q-297 300 -297 651q0 149 47.5 282.5t133.5 234.5t216 160.5t285 59.5
q153 0 282 -57.5t216 -157t135.5 -234.5t48.5 -288q0 -288 -156 -488t-406 -237q93 -133 299.5 -216t448.5 -83q254 0 399 96z" />
    <glyph glyph-name="R" unicode="R" horiz-adv-x="1406" 
d="M627 1393h-142v-736h156q163 0 250.5 99t87.5 272q0 177 -91 271t-261 94zM924 653l510 -641v-12h-293l-463 616h-193v-464q0 -58 29.5 -80t89.5 -31l62 -8v-33h-619v33l62 8q60 9 90 31t30 80v1130q0 58 -30 80t-90 31l-62 8v33h580q288 0 454 -106t166 -288
q0 -130 -84.5 -233.5t-238.5 -153.5z" />
    <glyph glyph-name="S" unicode="S" horiz-adv-x="1138" 
d="M555 -20q-113 0 -234 30t-206 84l-39 328h20q80 -173 220 -291.5t286 -118.5q121 0 196.5 77t75.5 200q0 67 -26.5 119t-71 86.5t-102 62t-121.5 50t-128 46.5t-121.5 56t-102 73t-71 103.5t-26.5 142.5q0 188 144 307t362 119q203 0 369 -84l22 -330h-20
q-144 381 -408 381q-124 0 -202 -72.5t-78 -183.5q0 -80 39.5 -133.5t113.5 -91.5q47 -24 124 -52.5t138.5 -49t131 -57t116.5 -78.5t78 -111.5t31 -157.5q0 -201 -145 -327.5t-365 -126.5z" />
    <glyph glyph-name="T" unicode="T" horiz-adv-x="1378" 
d="M96 1434h1186l66 -459l-23 -2q-136 420 -405 420h-101v-1241q0 -58 42 -80t126 -31l84 -8v-33h-764v33l86 8q84 9 126 31t42 80v1241h-102q-272 0 -406 -420l-22 2z" />
    <glyph glyph-name="U" unicode="U" horiz-adv-x="1468" 
d="M743 -20q-250 0 -398 143t-148 391v768q0 58 -27 80t-82 31l-55 8v33h604v-33l-62 -8q-60 -9 -89 -31t-29 -80v-782q0 -210 101 -326.5t286 -116.5q181 0 280 117.5t99 323.5v784q0 58 -32 80t-97 31l-66 8v33h440v-33l-65 -8q-67 -9 -100 -31t-33 -80v-784
q0 -242 -140.5 -380t-386.5 -138z" />
    <glyph glyph-name="V" unicode="V" horiz-adv-x="1329" 
d="M973 1401v33h391v-33l-37 -8q-19 -5 -31 -9.5t-28.5 -15.5t-29.5 -30t-24 -48l-462 -1290h-148l-512 1290q-14 37 -33 60t-31.5 29.5t-33.5 13.5l-31 8v33h545v-33l-62 -8q-23 -3 -37 -6.5t-27.5 -11t-18.5 -18t-4.5 -27t8.5 -40.5l411 -1065l387 1065q21 55 -8 74.5
t-106 28.5z" />
    <glyph glyph-name="W" unicode="W" horiz-adv-x="2033" 
d="M1663 1401v33h420v-33l-47 -8q-31 -6 -50.5 -14t-40.5 -31t-32 -62l-369 -1286h-178l-387 1182l-301 -1182h-182l-387 1286q-17 55 -38.5 76.5t-52.5 30.5l-28 8v33h545v-33l-62 -8q-59 -9 -82 -30.5t-6 -76.5l293 -1075l315 1223h183l380 -1233l308 1085q16 55 -15 76.5
t-106 30.5z" />
    <glyph glyph-name="X" unicode="X" horiz-adv-x="1439" 
d="M1425 41l43 -8v-33h-616v33l61 8q29 4 45 9t26.5 15t7 26.5t-20.5 41.5l-334 510l-365 -514q-13 -16 -17 -28.5t1 -21.5t14 -15t27.5 -10.5t37 -7t46.5 -5.5l90 -8v-33h-479v33l53 8q120 21 168 88l397 555l-405 616q-39 67 -150 93l-43 8v33h617v-33l-62 -8
q-29 -4 -44 -8.5t-25.5 -14.5t-7 -27t19.5 -43l278 -426l312 431q17 24 18 40t-16.5 25.5t-40.5 14t-64 8.5l-88 8v33h477v-33l-53 -8q-123 -18 -178 -88l-340 -471l461 -701q38 -66 149 -92z" />
    <glyph glyph-name="Y" unicode="Y" horiz-adv-x="1325" 
d="M938 1401v33h410v-33l-41 -8q-55 -12 -86 -33.5t-54 -63.5l-364 -661v-483q0 -58 33 -80t100 -31l65 -8v-33h-653v33l68 8q65 9 98 31t33 80v473l-426 675q-46 71 -117 93l-29 8v33h566v-33l-62 -8q-29 -4 -44.5 -8.5t-26 -14.5t-7.5 -27t19 -43l371 -591l325 587
q28 51 2 69.5t-102 27.5z" />
    <glyph glyph-name="Z" unicode="Z" horiz-adv-x="1253" 
d="M1178 518h20l-88 -518h-1081v25l856 1368h-320q-155 0 -262.5 -95t-204.5 -323l-20 2l67 457h1043v-25l-844 -1368h318q136 0 231 50.5t160 151.5t125 275z" />
    <glyph glyph-name="bracketleft" unicode="[" horiz-adv-x="667" 
d="M350 1376v-1464q0 -26 5 -45t19.5 -32t29 -20.5t46 -12.5t57.5 -7.5t75 -5.5v-78h-408v1866h408v-78q-49 -3 -75 -5.5t-57.5 -7.5t-46 -12.5t-29 -20.5t-19.5 -32t-5 -45z" />
    <glyph glyph-name="backslash" unicode="\" horiz-adv-x="841" 
d="M643 -276l-565 1853h155l566 -1853h-156z" />
    <glyph glyph-name="bracketright" unicode="]" horiz-adv-x="667" 
d="M317 -88v1464q0 32 -9.5 53t-23.5 33.5t-47 19.5t-62.5 10t-88.5 7v78h408v-1866h-408v78q59 4 88.5 7t62.5 10t47 19.5t23.5 33.5t9.5 53z" />
    <glyph glyph-name="asciicircum" unicode="^" horiz-adv-x="962" 
d="M393 1577h176l312 -594h-168l-232 453l-231 -453h-168z" />
    <glyph glyph-name="underscore" unicode="_" horiz-adv-x="901" 
d="M860 -276h-819v141h819v-141z" />
    <glyph glyph-name="grave" unicode="`" 
d="M236 1532v4h307l108 -326h-10z" />
    <glyph glyph-name="a" unicode="a" horiz-adv-x="1040" 
d="M408 100q64 0 124.5 39t106.5 105v207q-78 12 -111 12q-110 0 -184 -58t-74 -157q0 -69 36 -108.5t102 -39.5zM1053 131l6 -8q-26 -60 -91 -101.5t-134 -41.5q-92 0 -143.5 50t-51.5 138v31q-66 -101 -158 -160t-200 -59q-109 0 -175.5 60t-66.5 157q0 135 145.5 214
t454.5 103v295q0 80 -36 132.5t-88 72.5t-118 20q-43 0 -70 -20.5t-41.5 -65.5t-19 -105t-2.5 -151q-84 -7 -133 26t-49 87q0 62 81 139.5t212 134t256 56.5q246 0 243 -308l-2 -649q0 -69 64 -69q34 0 117 22z" />
    <glyph glyph-name="b" unicode="b" horiz-adv-x="1204" 
d="M569 10q73 0 130.5 40.5t90.5 100.5t54.5 138.5t29 146t7.5 131.5q0 445 -281 445q-119 0 -229 -94v-832q101 -76 198 -76zM727 1135q174 0 292 -136.5t118 -375.5q0 -300 -158 -471.5t-420 -171.5q-206 0 -426 106v1344l-145 104v4l379 121h4v-698q150 174 356 174z" />
    <glyph glyph-name="c" unicode="c" horiz-adv-x="1009" 
d="M541 -20q-213 0 -345.5 149t-132.5 381q0 139 43.5 256.5t119 198t179 125.5t222.5 45q152 0 239.5 -69t87.5 -157q0 -57 -43.5 -98.5t-124.5 -48.5q-27 159 -75.5 240t-124.5 81q-115 0 -196 -133t-81 -350q0 -205 94 -336t259 -131q200 0 303 172l12 -6
q-50 -156 -165 -237.5t-271 -81.5z" />
    <glyph glyph-name="d" unicode="d" horiz-adv-x="1234" 
d="M602 102q115 0 232 95v831q-104 76 -199 76q-91 0 -162 -68q-73 -68 -112 -193.5t-39 -295.5q0 -445 280 -445zM1163 80l49 2l7 -33l-385 -69v174q-70 -81 -163 -127.5t-196 -46.5q-83 0 -156.5 34t-130 97t-89.5 161.5t-33 219.5q0 303 160 473t425 170q86 0 183 -23
v318l-146 104v4l377 121h4v-1487q0 -58 23 -75t71 -17z" />
    <glyph glyph-name="e" unicode="e" horiz-adv-x="1038" 
d="M571 1100q-102 0 -165.5 -95t-81.5 -251h450q-9 346 -203 346zM983 274l12 -8q-54 -131 -169 -208.5t-257 -77.5q-221 0 -363.5 155.5t-142.5 407.5q0 113 35.5 218.5t99.5 189t163.5 134t218.5 50.5q98 0 175 -33t125 -91t72.5 -133.5t24.5 -164.5h-658q-2 -14 -2 -39
v-41q0 -245 104.5 -376.5t272.5 -131.5q80 0 159 40.5t130 108.5z" />
    <glyph glyph-name="f" unicode="f" horiz-adv-x="661" 
d="M686 1638q98 0 144.5 -37.5t46.5 -93.5q0 -39 -26.5 -76t-66.5 -49q-29 76 -99.5 125t-145.5 49q-103 0 -133 -99t14 -343h233v-41h-229v-921q0 -58 29.5 -80t89.5 -31l61 -8v-33h-563v33l49 8q48 9 72 31t24 80v921h-153v41l153 19q8 132 74 247t179 186.5t247 71.5z
" />
    <glyph glyph-name="g" unicode="g" horiz-adv-x="1079" 
d="M530 1106q-94 0 -148 -74.5t-54 -218.5q0 -145 54.5 -223t147.5 -78t146 77.5t53 223.5q0 144 -53 218.5t-146 74.5zM502 -348q175 0 285 76.5t110 189.5q0 141 -192 141h-332q-41 0 -88 9q-107 -64 -107 -185q0 -106 87.5 -168.5t236.5 -62.5zM395 285h336
q158 0 239 -65.5t81 -188.5q0 -180 -166.5 -300t-427.5 -120q-204 0 -335.5 65t-131.5 181q0 159 256 221q-76 23 -119 73t-43 115q0 77 59.5 144t165.5 112q-96 39 -151.5 114t-55.5 175q0 150 119.5 237t308.5 87q85 0 172 -23q36 100 90.5 163.5t141.5 63.5
q52 0 83.5 -29t31.5 -73q0 -68 -50 -115q-112 64 -163 64q-61 0 -107 -82q107 -36 167 -110.5t60 -180.5q0 -154 -118.5 -242t-307.5 -88q-95 0 -188 27q-60 -30 -89.5 -68t-29.5 -73q0 -84 172 -84z" />
    <glyph glyph-name="h" unicode="h" horiz-adv-x="1257" 
d="M1190 41l49 -8v-33h-516v33l47 8q43 9 64.5 31t21.5 80v636q0 104 -49.5 164t-140.5 60q-69 0 -136 -34t-120 -99v-727q0 -58 21.5 -80t64.5 -31l47 -8v-33h-516v33l49 8q48 9 72 31t24 80v1278l-145 104v4l379 121h4v-729q67 98 161 151.5t205 53.5q155 0 236.5 -95
t81.5 -260v-628q0 -58 24 -80t72 -31z" />
    <glyph glyph-name="i" unicode="i" horiz-adv-x="589" 
d="M563 0h-526v33l49 8q48 9 72 31t24 80v753l-145 105v4l377 121h4v-983q0 -58 24 -80t72 -31l49 -8v-33zM301 1253q-61 0 -101 40t-40 98q0 60 40 99.5t101 39.5q60 0 99.5 -39.5t39.5 -99.5q0 -58 -40 -98t-99 -40z" />
    <glyph glyph-name="j" unicode="j" horiz-adv-x="536" 
d="M-45 -389q-76 0 -116.5 40.5t-31.5 101.5t64 116q108 -156 197 -156q51 0 75.5 50t24.5 178v964l-145 105v4l378 121h5v-957q0 -78 -41.5 -177.5t-104.5 -185.5t-146 -145t-159 -59zM301 1253q-61 0 -101 40t-40 98q0 60 40 99.5t101 39.5q60 0 99.5 -39.5t39.5 -99.5
q0 -58 -40 -98t-99 -40z" />
    <glyph glyph-name="k" unicode="k" horiz-adv-x="1157" 
d="M410 1659v-1507q0 -58 23 -80t71 -31l49 -8v-33h-526v33l49 8q48 9 72 31t24 80v1278l-145 104v4l379 121h4zM922 979l-260 -256l524 -711v-12h-287l-428 602l410 395q37 35 29.5 52t-66.5 24l-62 8v33h359v-33l-39 -8q-109 -23 -180 -94z" />
    <glyph glyph-name="l" unicode="l" horiz-adv-x="581" 
d="M553 0h-526v33l49 8q48 9 72 31t24 80v1278l-145 104v4l379 121h4v-1507q0 -58 23 -80t71 -31l49 -8v-33z" />
    <glyph glyph-name="m" unicode="m" horiz-adv-x="1953" 
d="M1884 41l49 -8v-33h-514v33l45 8q44 9 66 31.5t22 79.5v636q0 104 -50.5 164t-141.5 60q-136 0 -262 -144q6 -40 6 -88v-628q0 -58 22.5 -80t67.5 -31l49 -8v-33h-510v33l47 8q43 9 64.5 31t21.5 80v636q0 104 -49.5 164t-140.5 60q-132 0 -258 -138v-722q0 -57 22 -79.5
t66 -31.5l45 -8v-33h-514v33l49 8q48 9 72 31t24 80v753l-145 105v4l377 121h4v-211q152 211 366 211q123 0 201 -60t105 -170q155 230 380 230q155 0 236.5 -95t81.5 -260v-628q0 -58 24 -80t72 -31z" />
    <glyph glyph-name="n" unicode="n" horiz-adv-x="1267" 
d="M1200 41l49 -8v-33h-516v33l45 8q45 9 66.5 31t21.5 80v636q0 104 -49.5 164t-140.5 60q-70 0 -137.5 -35t-120.5 -100v-725q0 -57 22 -79.5t66 -31.5l47 -8v-33h-516v33l49 8q48 9 72 31t24 80v753l-145 105v4l377 121h4v-205q67 98 162 151.5t206 53.5
q153 0 235.5 -95.5t82.5 -259.5v-628q0 -58 24 -80t72 -31z" />
    <glyph glyph-name="o" unicode="o" horiz-adv-x="1179" 
d="M588 1135q230 0 378 -162t148 -414t-148 -415.5t-378 -163.5q-112 0 -209.5 43.5t-167 119.5t-109 184t-39.5 232q0 251 148.5 413.5t376.5 162.5zM588 12q127 0 195.5 142t68.5 405q0 260 -68.5 401.5t-195.5 141.5q-124 0 -192 -141.5t-68 -401.5q0 -262 67.5 -404.5
t192.5 -142.5z" />
    <glyph glyph-name="p" unicode="p" horiz-adv-x="1236" 
d="M635 1012q-114 0 -229 -94v-832q101 -76 196 -76q142 0 227.5 151t85.5 406q0 445 -280 445zM594 -20q-94 0 -188 22v-219q0 -58 32.5 -80t98.5 -31l65 -8v-33h-579v33l49 8q48 9 72 31t24 80v1122l-145 105v4l378 121h5v-174q150 174 354 174q176 0 293.5 -136
t117.5 -376q0 -300 -157.5 -471.5t-419.5 -171.5z" />
    <glyph glyph-name="q" unicode="q" horiz-adv-x="1210" 
d="M602 102q115 0 232 95v831q-104 76 -199 76q-91 0 -162 -68q-73 -68 -112 -193.5t-39 -295.5q0 -445 280 -445zM1153 -328l43 -8v-33h-543v33l62 8q60 9 89.5 31t29.5 80v371q-70 -81 -163 -127.5t-196 -46.5q-83 0 -156.5 34t-130 97t-89.5 161.5t-33 219.5
q0 303 158 473t421 170q138 0 266 -43l131 43h27v-1352q0 -57 21 -79.5t63 -31.5z" />
    <glyph glyph-name="r" unicode="r" horiz-adv-x="864" 
d="M725 1133q67 0 100 -33t33 -82q0 -38 -16 -73.5t-43 -59.5q-138 78 -207 78q-49 0 -95.5 -73.5t-78.5 -189.5v-548q0 -58 34 -80t101 -31l68 -8v-33h-584v33l49 8q48 9 72 31t24 80v753l-145 105v4l377 121h4v-330q111 328 307 328z" />
    <glyph glyph-name="s" unicode="s" horiz-adv-x="942" 
d="M455 -20q-95 0 -196.5 31t-176.5 89l-4 283h20q57 -158 167 -259t239 -101q86 0 142 57.5t56 148.5q0 50 -25.5 89.5t-67.5 64.5t-96 50t-110 45t-110 50t-96 64t-67.5 88t-25.5 121q0 148 116.5 241t291.5 93q164 0 299 -72l2 -291h-20q-56 161 -140 242.5t-186 81.5
q-81 0 -133.5 -52.5t-52.5 -132.5q0 -43 20 -77.5t54.5 -58t79 -44t93 -39t97.5 -39t93.5 -48t79 -62t54.5 -85.5t20 -114q0 -159 -117.5 -261.5t-299.5 -102.5z" />
    <glyph glyph-name="t" unicode="t" horiz-adv-x="704" 
d="M705 137l8 -12q-46 -66 -116.5 -105.5t-152.5 -39.5q-128 0 -201 72t-73 220v801h-172v21l383 239h27v-219h268v-41h-268v-807q0 -87 40.5 -125.5t104.5 -38.5q86 0 152 35z" />
    <glyph glyph-name="u" unicode="u" horiz-adv-x="1253" 
d="M1225 82l6 -33l-385 -69v210q-145 -210 -365 -210q-153 0 -236 95t-83 259v608q0 58 -23 75t-71 17l-50 -2l-6 33l387 70v-809q0 -104 50 -164t141 -60q132 0 256 136v704q0 58 -23 75t-71 17l-50 -2l-6 33l385 70v-963q0 -58 23 -75t72 -17z" />
    <glyph glyph-name="v" unicode="v" horiz-adv-x="1073" 
d="M745 1081v33h342v-33l-34 -8q-19 -5 -31.5 -10t-28 -15.5t-27.5 -30t-22 -48.5l-323 -969h-134l-387 971q-14 37 -33 59.5t-31.5 29t-33.5 13.5l-29 8v33h527v-33l-62 -8q-65 -11 -80 -29.5t2 -72.5l283 -756l252 754q19 53 -3.5 74.5t-84.5 29.5z" />
    <glyph glyph-name="w" unicode="w" horiz-adv-x="1665" 
d="M1337 1081v33h351v-33l-39 -8q-19 -5 -31 -10t-27.5 -16t-27 -31t-19.5 -49l-297 -967h-133l-307 895l-225 -895h-142l-336 969q-10 29 -21 48.5t-24.5 30t-23.5 15.5t-25 10l-28 8v33h452v-33l-37 -8q-24 -6 -34 -14t-15 -30t10 -60l232 -725l219 870h176l281 -878
l225 731q16 57 -7 77t-85 29z" />
    <glyph glyph-name="x" unicode="x" horiz-adv-x="1118" 
d="M1104 41l41 -8v-33h-578v33l60 8q44 8 61.5 16t18 25.5t-20.5 50.5l-203 336l-227 -338q-29 -48 -19.5 -65t60.5 -25l53 -8v-33h-350v33l49 8q110 23 154 90l254 381l-285 469q-50 71 -131 92l-37 8v33h524v-33l-49 -8q-49 -7 -56.5 -28t19.5 -64l191 -309l198 309
q30 48 21.5 66t-57.5 26l-50 8v33h320v-33l-41 -8q-99 -23 -143 -92l-224 -348l308 -500q20 -31 58.5 -56t80.5 -36z" />
    <glyph glyph-name="y" unicode="y" horiz-adv-x="1067" 
d="M739 1081v33h348v-33l-34 -8q-26 -6 -42 -13.5t-36 -30.5t-35 -60l-350 -940q-15 -39 -25 -64.5t-30.5 -71.5t-39 -78t-46 -70.5t-55 -62t-62.5 -39.5t-72 -16q-73 0 -123.5 43t-50.5 115q0 53 29 109q106 -55 162 -78t92 -23q53 0 84.5 46t72.5 165l-424 969
q-15 35 -34.5 57.5t-32.5 29t-33 13.5l-29 8v33h529v-33l-62 -8q-24 -3 -37.5 -6.5t-27 -10.5t-18 -17.5t-3.5 -27t11 -40.5l272 -676l248 674q9 23 9.5 40.5t-4.5 28t-19.5 17.5t-30 11t-39.5 7z" />
    <glyph glyph-name="z" unicode="z" horiz-adv-x="1001" 
d="M111 1114h839v-24l-635 -1051h260q140 0 213 80t123 282h21l-41 -401h-856v25l633 1048h-252q-120 0 -192 -74t-130 -249l-20 2z" />
    <glyph glyph-name="braceleft" unicode="{" horiz-adv-x="731" 
d="M102 623v45q80 16 125 64t45 140v443q0 122 99.5 192t273.5 70v-64q-38 -5 -70.5 -17.5t-60 -35t-43.5 -60.5t-16 -87v-439q0 -102 -40.5 -149.5t-146.5 -79.5q106 -32 146.5 -79.5t40.5 -149.5v-439q0 -49 16 -87t43.5 -60.5t60 -35t70.5 -17.5v-64q-174 0 -273.5 70
t-99.5 192v443q0 170 -170 205z" />
    <glyph glyph-name="bar" unicode="|" horiz-adv-x="555" 
d="M350 1577v-1866h-145v1866h145z" />
    <glyph glyph-name="braceright" unicode="}" horiz-adv-x="731" 
d="M629 668v-45q-170 -35 -170 -205v-443q0 -122 -99.5 -192t-273.5 -70v64q82 10 135 57.5t53 142.5v439q0 102 40.5 149.5t146.5 79.5q-106 32 -146.5 79.5t-40.5 149.5v439q0 95 -53 142.5t-135 57.5v64q174 0 273.5 -70t99.5 -192v-443q0 -92 45 -140t125 -64z" />
    <glyph glyph-name="asciitilde" unicode="~" horiz-adv-x="1077" 
d="M745 539q-48 0 -94 19t-83 46.5t-71.5 55t-74 46.5t-76.5 19q-51 0 -91 -19.5t-66.5 -49t-57.5 -78.5l-33 24q95 164 248 164q47 0 92 -19t80.5 -46.5t70.5 -55t75.5 -46.5t80.5 -19q65 0 113 37t96 112l31 -27q-95 -163 -240 -163z" />
    <glyph glyph-name="uni00A0" unicode="&#xa0;" horiz-adv-x="428" 
 />
    <glyph glyph-name="exclamdown" unicode="&#xa1;" horiz-adv-x="489" 
d="M117 -111l121 738h20l113 -738q22 -109 -17 -169t-112 -60t-111.5 60t-13.5 169zM246 1126q61 0 102 -40.5t41 -98.5q0 -62 -41 -103.5t-102 -41.5q-60 0 -101 42t-41 103q0 57 41 98t101 41z" />
    <glyph glyph-name="cent" unicode="&#xa2;" horiz-adv-x="1052" 
d="M332 768q0 -170 65 -291t185 -162v934q-106 -16 -178 -146t-72 -335zM987 473l12 -6q-46 -140 -144.5 -220.5t-231.5 -94.5v-297h-41v292h-19q-213 0 -345 149.5t-132 381.5q0 256 139.5 425.5t356.5 194.5v304h41v-299h26q152 0 240 -69t88 -157q0 -57 -43.5 -98.5
t-124.5 -48.5q-28 153 -71.5 233.5t-114.5 87.5v-944q30 -6 61 -6q200 0 303 172z" />
    <glyph glyph-name="sterling" unicode="&#xa3;" horiz-adv-x="1290" 
d="M1231 426h22l-131 -426h-977v20q131 79 219.5 175.5t88.5 187.5q0 72 -58 172h-309v41h283q-4 7 -25 39t-29.5 45.5t-23 40t-25.5 49.5h-180v41h164q-35 107 -35 186q0 202 151.5 329.5t376.5 127.5q193 0 369 -84v-344h-20q-25 78 -65 145.5t-92.5 122t-120.5 86
t-142 31.5q-112 0 -179 -74t-67 -196q0 -28 6 -58.5t12.5 -52.5t23.5 -58t25 -51t31.5 -57.5t28.5 -52.5h469v-41h-447q56 -103 68 -174h379v-41h-373q2 -6 2 -16v-17q0 -185 -225 -309h465q116 0 204 56.5t136 156.5z" />
    <glyph glyph-name="currency" unicode="&#xa4;" horiz-adv-x="1124" 
d="M252 719q0 -136 85 -220.5t222 -84.5q139 0 223 84t82 221q0 137 -84 221t-221 84t-222 -84.5t-85 -220.5zM905 719q0 -145 -82 -236l238 -235l-31 -29l-235 236q-91 -82 -236 -82q-141 0 -233 80l-234 -234l-31 29l234 231q-84 104 -84 240q0 141 84 237l-234 232l31 29
l232 -232q92 80 235 80t238 -82l233 234l31 -29l-236 -234q80 -92 80 -235z" />
    <glyph glyph-name="yen" unicode="&#xa5;" horiz-adv-x="1368" 
d="M909 1401v33h430v-33l-47 -8q-54 -9 -89 -29t-62 -70l-310 -620h373v-41h-393v-221h393v-41h-393v-219q0 -58 33 -80t98 -31l68 -8v-33h-654v33l68 8q65 9 98 31t33 80v219h-393v41h393v221h-393v41h370l-364 624q-18 32 -50 58t-63 37l-28 8v33h557v-33l-62 -8
q-29 -4 -45 -9t-27 -15t-8.5 -27.5t17.5 -43.5l336 -587l297 583q27 51 -0.5 70.5t-104.5 28.5z" />
    <glyph glyph-name="brokenbar" unicode="&#xa6;" horiz-adv-x="413" 
d="M231 -240h-49v744h49v-744zM231 854h-49v743h49v-743z" />
    <glyph glyph-name="section" unicode="&#xa7;" horiz-adv-x="1372" 
d="M1004 -16q131 97 131 213q0 127 -187 292q-51 43 -138.5 110.5t-150.5 118t-130 112.5t-108 125.5t-52 125.5q-131 -97 -131 -213q0 -44 21 -90.5t51 -85.5t82.5 -87.5t96 -83t111.5 -85.5q90 -68 142 -110t117.5 -104.5t100.5 -120.5t44 -117zM1311 352
q0 -106 -84.5 -216t-218.5 -187v-4q0 -129 -121.5 -231.5t-304.5 -102.5q-109 0 -160 38.5t-51 90.5q0 41 29.5 78t72.5 55q78 -205 217 -205q135 0 135 135q0 45 -25 91t-87.5 105.5t-103 93t-137.5 108.5q-19 15 -28 22q-83 62 -144.5 115.5t-119.5 117t-88.5 129
t-30.5 128.5q0 106 85 216t219 187v4q0 63 31.5 123t86 107t135.5 75.5t173 28.5q112 0 161 -37t49 -92q0 -41 -29.5 -78t-72.5 -55q-37 96 -88 150.5t-129 54.5q-135 0 -135 -135q0 -53 42 -113.5t109.5 -119t149 -121.5t163 -130t149 -133.5t109.5 -143t42 -149.5z" />
    <glyph glyph-name="dieresis" unicode="&#xa8;" 
d="M406 1260q-58 0 -97 37t-39 94q0 59 39 96t97 37t95.5 -37t37.5 -96q0 -57 -38 -94t-95 -37zM825 1260q-57 0 -96 37t-39 94q0 59 38.5 96t96.5 37t95.5 -37t37.5 -96q0 -57 -38 -94t-95 -37z" />
    <glyph glyph-name="copyright" unicode="&#xa9;" horiz-adv-x="1816" 
d="M907 -55q223 0 400 96.5t278 274.5t101 407q0 230 -101 408.5t-278 275t-400 96.5t-399.5 -96.5t-276.5 -274.5t-100 -409q0 -172 58.5 -317.5t161 -246.5t246 -157.5t310.5 -56.5zM952 281q-134 0 -244 52.5t-176.5 154.5t-66.5 235q0 134 66 235.5t176.5 154
t248.5 52.5q157 0 281 -65l8 -223h-16q-26 109 -100.5 181t-161.5 72q-108 0 -169 -107.5t-61 -297.5q0 -193 64 -301.5t182 -108.5q91 0 161.5 71t90.5 183h14v-223q-151 -65 -297 -65zM907 -92q-233 0 -418 100t-291 286.5t-106 428.5q0 179 61.5 331t169.5 257t259 164
t325 59q236 0 421.5 -101t290.5 -286t105 -424q0 -242 -105 -428t-290.5 -286.5t-421.5 -100.5z" />
    <glyph glyph-name="ordfeminine" unicode="&#xaa;" horiz-adv-x="854" 
d="M346 635q41 0 83.5 24.5t74.5 67.5v172q-41 6 -76 6q-81 0 -132.5 -42.5t-51.5 -114.5q0 -54 27 -83.5t75 -29.5zM860 651l4 -14q-22 -52 -79.5 -84.5t-116.5 -32.5q-75 0 -119.5 42.5t-44.5 117.5v14q-50 -79 -121.5 -126.5t-155.5 -47.5q-87 0 -140.5 50.5t-53.5 129.5
q0 220 471 254v222q0 96 -53 141t-127 45q-65 0 -87.5 -64.5t-11.5 -218.5q-72 -7 -115.5 22.5t-43.5 76.5q0 56 68.5 120.5t174 108t203.5 43.5q104 0 158 -64t53 -192l-2 -516q-3 -43 37 -43q33 0 102 16z" />
    <glyph glyph-name="guillemotleft" unicode="&#xab;" horiz-adv-x="944" 
d="M467 137l-2 -2l-381 416v4l381 416l2 -2l-148 -416zM831 137l-2 -2l-380 416v4l380 416l2 -2l-147 -416z" />
    <glyph glyph-name="uni00AD" unicode="&#xad;" horiz-adv-x="669" 
d="M600 696h-532v41h532v-41z" />
    <glyph glyph-name="registered" unicode="&#xae;" horiz-adv-x="1116" 
d="M559 592q185 0 310.5 121t125.5 311t-126.5 310t-311.5 120q-119 0 -217.5 -53t-157.5 -152t-59 -225q0 -190 125.5 -311t310.5 -121zM545 1237h-31v-203h35q82 0 82 105q0 98 -86 98zM559 1485q200 0 334.5 -127.5t134.5 -333.5t-134.5 -334.5t-334.5 -128.5
q-198 0 -333.5 129t-135.5 334q0 136 63.5 242.5t170 162.5t235.5 56zM752 1143q0 -77 -90 -115l137 -184v-21h-131l-113 187h-41v-131q0 -30 35 -33h18v-23h-219v23h17q14 2 25 11t11 22v325q0 31 -36 31l-17 2v23h197q96 0 151.5 -31.5t55.5 -85.5z" />
    <glyph glyph-name="macron" unicode="&#xaf;" 
d="M926 1305h-621v41h621v-41z" />
    <glyph glyph-name="degree" unicode="&#xb0;" horiz-adv-x="712" 
d="M356 909q-108 0 -188 76t-80 193q0 122 79.5 199t188.5 77q111 0 190 -77t79 -199q0 -117 -79.5 -193t-189.5 -76zM356 950q90 0 158 64t68 164q0 103 -68 169t-158 66t-157.5 -66t-67.5 -169q0 -100 67.5 -164t157.5 -64z" />
    <glyph glyph-name="plusminus" unicode="&#xb1;" horiz-adv-x="1079" 
d="M559 397h-43v326h-403v41h403v330h43v-330h412v-41h-412v-326zM90 156v41h901v-41h-901z" />
    <glyph glyph-name="twosuperior" unicode="&#xb2;" horiz-adv-x="696" 
d="M580 573h-576v29q216 216 296.5 345t80.5 227q0 74 -38.5 112.5t-98.5 38.5q-58 0 -109 -33.5t-80 -95.5l-18 10q40 113 137.5 175.5t200.5 62.5q97 0 161 -55t64 -150q0 -117 -105.5 -233.5t-312.5 -253.5v-4h228q151 0 213 114h24z" />
    <glyph glyph-name="threesuperior" unicode="&#xb3;" horiz-adv-x="681" 
d="M268 561q-104 0 -172.5 39t-68.5 94q0 50 53 97q43 -77 113 -133t131 -56q51 0 80.5 38t29.5 101q0 100 -82 156.5t-217 50.5l-8 25q235 128 235 258q0 52 -30.5 79t-79.5 27q-57 0 -110.5 -37.5t-82.5 -97.5l-16 10q36 100 136 167t208 67q77 0 125.5 -38.5t48.5 -109.5
q0 -76 -65.5 -132.5t-190.5 -108.5l2 -4q151 0 235.5 -61.5t84.5 -151.5q0 -109 -99.5 -194t-259.5 -85z" />
    <glyph glyph-name="acute" unicode="&#xb4;" 
d="M686 1536h307v-4l-405 -322h-10z" />
    <glyph glyph-name="paragraph" unicode="&#xb6;" horiz-adv-x="1345" 
d="M713 1434h592v-41h-199v-1753h-47v1753h-295v-1753h-47v811h-4q-313 0 -497.5 136.5t-184.5 366.5q0 221 184 350.5t498 129.5z" />
    <glyph glyph-name="periodcentered" unicode="&#xb7;" horiz-adv-x="452" 
d="M225 582q-59 0 -100 41t-41 98q0 62 40.5 103.5t100.5 41.5q61 0 102.5 -41.5t41.5 -103.5q0 -58 -41.5 -98.5t-102.5 -40.5z" />
    <glyph glyph-name="cedilla" unicode="&#xb8;" 
d="M653 8l-49 -92q96 -26 148.5 -68t52.5 -114q0 -59 -39.5 -103.5t-108.5 -70.5q-122 -49 -272 -45l-18 75q95 -28 153 -28q67 0 107.5 28t40.5 78q0 93 -195 131l125 209h55z" />
    <glyph glyph-name="onesuperior" unicode="&#xb9;" horiz-adv-x="516" 
d="M481 573h-450v33l59 4q66 3 66 52v587q0 30 -11.5 39.5t-44.5 9.5h-84v27l320 119h18v-782q0 -25 16.5 -36t51.5 -16l59 -4v-33z" />
    <glyph glyph-name="ordmasculine" unicode="&#xba;" horiz-adv-x="958" 
d="M479 1450q188 0 310 -130.5t122 -332.5q0 -205 -122 -336t-310 -131t-310 131t-122 336q0 202 122 332.5t310 130.5zM479 547q93 0 141 112t48 328q0 215 -48 326.5t-141 111.5q-188 0 -188 -438q0 -440 188 -440z" />
    <glyph glyph-name="guillemotright" unicode="&#xbb;" horiz-adv-x="944" 
d="M498 551l-381 -416l-2 2l147 416l-147 416l2 2l381 -416v-4zM862 551l-381 -416l-2 2l148 416l-148 416l2 2l381 -416v-4z" />
    <glyph glyph-name="onequarter" unicode="&#xbc;" horiz-adv-x="1568" 
d="M1415 258h115v-37h-115v-133q0 -25 13 -35.5t40 -15.5l48 -4v-33h-402v33l47 4q56 3 56 51v133h-355l-16 31l354 608h191v-12l-496 -590h322v283l198 55v-338zM31 573v33l59 4q66 3 66 52v587q0 30 -11.5 39.5t-44.5 9.5h-84v27l320 119h18v-782q0 -25 16.5 -36t51.5 -16
l59 -4v-33h-450zM338 -23l-35 23l879 1456l32 -22z" />
    <glyph glyph-name="onehalf" unicode="&#xbd;" horiz-adv-x="1611" 
d="M1563 289l-68 -289h-575v29q216 216 296 344.5t80 226.5q0 75 -38.5 113.5t-98.5 38.5q-58 0 -108.5 -33.5t-79.5 -95.5l-19 10q40 113 137 175t201 62q97 0 161.5 -54.5t64.5 -149.5q0 -117 -106 -234t-312 -254v-4h227q151 0 213 115h25zM481 606v-33h-450v33l59 4
q66 3 66 52v587q0 30 -11.5 39.5t-44.5 9.5h-84v27l320 119h18v-782q0 -25 16.5 -36t51.5 -16zM1182 1456l32 -22l-876 -1457l-35 23z" />
    <glyph glyph-name="threequarters" unicode="&#xbe;" horiz-adv-x="1685" 
d="M627 838q0 -111 -99 -195t-260 -84q-104 0 -172.5 39t-68.5 94q0 47 53 94q40 -69 109 -127.5t135 -58.5q51 0 80.5 38t29.5 101q0 100 -82 156.5t-217 50.5l-8 23q235 128 235 260q0 52 -30.5 79t-79.5 27q-57 0 -110.5 -37.5t-82.5 -97.5l-16 10q36 100 136 167t208 67
q77 0 125.5 -38.5t48.5 -109.5q0 -76 -65.5 -132.5t-190.5 -108.5l2 -6q151 1 235.5 -60t84.5 -151zM455 -23l-35 23l878 1456l33 -22zM1532 258h115v-37h-115v-133q0 -25 13 -35.5t40 -15.5l47 -4v-33h-401v33l47 4q55 3 55 51v133h-354l-16 31l354 608h190v-12l-495 -590
h321v283l199 55v-338z" />
    <glyph glyph-name="questiondown" unicode="&#xbf;" horiz-adv-x="774" 
d="M696 -78q39 -56 39 -110q0 -71 -68 -111.5t-196 -40.5q-114 0 -214 39t-164 115.5t-64 175.5q0 128 114 242t328 178l27 219h20l37 -422q-195 -54 -297 -152t-102 -186q0 -55 41 -95t112 -40q87 0 194 51t193 137zM498 842q-61 0 -102.5 41.5t-41.5 103.5q0 58 41.5 98.5
t102.5 40.5q59 0 99 -40.5t40 -98.5q0 -62 -39.5 -103.5t-99.5 -41.5z" />
    <glyph glyph-name="Agrave" unicode="&#xc0;" horiz-adv-x="1384" 
d="M827 565l-252 686l-231 -686h483zM1389 41l47 -8v-33h-584v33l55 8q62 11 77 32t-3 72l-139 379h-512l-127 -379q-17 -51 6 -72.5t108 -31.5l76 -8v-33h-416v33l46 8q59 10 86.5 32t44.5 72l430 1289h184l489 -1291q19 -47 47 -68.5t85 -33.5zM338 1847h307l109 -325h-9
l-407 321v4z" />
    <glyph glyph-name="Aacute" unicode="&#xc1;" horiz-adv-x="1384" 
d="M827 565l-252 686l-231 -686h483zM1389 41l47 -8v-33h-584v33l55 8q62 11 77 32t-3 72l-139 379h-512l-127 -379q-17 -51 6 -72.5t108 -31.5l76 -8v-33h-416v33l46 8q59 10 86.5 32t44.5 72l430 1289h184l489 -1291q19 -47 47 -68.5t85 -33.5zM752 1849h307v-4l-406 -321
h-8z" />
    <glyph glyph-name="Acircumflex" unicode="&#xc2;" horiz-adv-x="1384" 
d="M827 565l-252 686l-231 -686h483zM1389 41l47 -8v-33h-584v33l55 8q62 11 77 32t-3 72l-139 379h-512l-127 -379q-17 -51 6 -72.5t108 -31.5l76 -8v-33h-416v33l46 8q59 10 86.5 32t44.5 72l430 1289h184l489 -1291q19 -47 47 -68.5t85 -33.5zM989 1536l-6 -8l-303 135
l-303 -135l-6 6l307 332h4z" />
    <glyph glyph-name="Atilde" unicode="&#xc3;" horiz-adv-x="1384" 
d="M827 565l-252 686l-231 -686h483zM1389 41l47 -8v-33h-584v33l55 8q62 11 77 32t-3 72l-139 379h-512l-127 -379q-17 -51 6 -72.5t108 -31.5l76 -8v-33h-416v33l46 8q59 10 86.5 32t44.5 72l430 1289h184l489 -1291q19 -47 47 -68.5t85 -33.5zM481 1653q-69 0 -112 -84
l-13 2q22 106 72.5 171.5t124.5 65.5q42 0 90.5 -21t84.5 -46.5t80.5 -46.5t78.5 -21q40 0 66 22.5t46 67.5l13 -2q-18 -104 -71.5 -171.5t-129.5 -67.5q-44 0 -93 20.5t-84.5 45t-78 45t-74.5 20.5z" />
    <glyph glyph-name="Adieresis" unicode="&#xc4;" horiz-adv-x="1384" 
d="M827 565l-252 686l-231 -686h483zM1389 41l47 -8v-33h-584v33l55 8q62 11 77 32t-3 72l-139 379h-512l-127 -379q-17 -51 6 -72.5t108 -31.5l76 -8v-33h-416v33l46 8q59 10 86.5 32t44.5 72l430 1289h184l489 -1291q19 -47 47 -68.5t85 -33.5zM471 1591q-57 0 -96 37
t-39 94q0 59 38.5 96t96.5 37t95.5 -37t37.5 -96q0 -57 -38 -94t-95 -37zM891 1591q-57 0 -96 37t-39 94q0 59 38.5 96t96.5 37t95.5 -37t37.5 -96q0 -57 -38 -94t-95 -37z" />
    <glyph glyph-name="Aring" unicode="&#xc5;" horiz-adv-x="1384" 
d="M827 565l-252 686l-231 -686h483zM682 1855q-63 0 -102 -39.5t-39 -101.5t39 -100.5t102 -38.5t103 39t40 100q0 62 -40 101.5t-103 39.5zM1389 41l47 -8v-33h-584v33l55 8q62 11 77 32t-3 72l-139 379h-512l-127 -379q-17 -51 6 -72.5t108 -31.5l76 -8v-33h-416v33l46 8
q59 10 86.5 32t44.5 72l430 1289h184l489 -1291q19 -47 47 -68.5t85 -33.5zM682 1524q-86 0 -140.5 52.5t-54.5 137.5t54.5 139t140.5 54t141.5 -54t55.5 -139q0 -84 -55 -137t-142 -53z" />
    <glyph glyph-name="AE" unicode="&#xc6;" horiz-adv-x="2004" 
d="M956 1313l-358 -565h360v552q0 9 -2 13zM1933 465h23l-66 -465h-1112v33l60 8q62 9 91 31t29 80v555h-387l-362 -574q-27 -43 -9 -62.5t99 -29.5l76 -8v-33h-422v33l47 8q63 12 95.5 31t58.5 61l780 1225q-25 25 -96 35l-60 8v33h1032l68 -443l-23 -6q-57 186 -162 297
t-261 111h-218v-641h162q87 0 127 52.5t68 205.5h20v-557h-20q-18 154 -59.5 206t-135.5 52h-162v-670h242q96 0 167.5 20t132 67.5t104 130.5t73.5 206z" />
    <glyph glyph-name="Ccedilla" unicode="&#xc7;" horiz-adv-x="1409" 
d="M836 12q170 0 302 118t171 310h18v-344q-238 -116 -483 -116h-39l-35 -64q96 -26 148.5 -68t52.5 -114q0 -59 -39.5 -103.5t-108.5 -70.5q-122 -49 -272 -45l-19 75q95 -28 154 -28q67 0 107.5 28t40.5 78q0 93 -195 131l111 185q-313 28 -495.5 225t-182.5 508
q0 166 60 305.5t164 233.5t245.5 146t302.5 52q246 0 463 -111l20 -350h-20q-61 198 -188.5 313t-295.5 115q-135 0 -243.5 -90.5t-169 -251t-60.5 -360.5q0 -320 132.5 -513.5t353.5 -193.5z" />
    <glyph glyph-name="Egrave" unicode="&#xc8;" horiz-adv-x="1275" 
d="M1204 465h23l-66 -465h-1114v33l62 8q60 9 90 31t30 80v1130q0 58 -30 80t-90 31l-62 8v33h1034l68 -443l-23 -6q-27 89 -65 161t-89.5 128.5t-120.5 87.5t-149 31h-217v-641h162q87 0 128 53t65 205h20v-557h-20q-18 154 -58.5 206t-134.5 52h-162v-670h242
q96 0 167.5 20t132 67.5t104 130.5t73.5 206zM612 1847l107 -325h-8l-406 321v4h307z" />
    <glyph glyph-name="Eacute" unicode="&#xc9;" horiz-adv-x="1275" 
d="M1204 465h23l-66 -465h-1114v33l62 8q60 9 90 31t30 80v1130q0 58 -30 80t-90 31l-62 8v33h1034l68 -443l-23 -6q-27 89 -65 161t-89.5 128.5t-120.5 87.5t-149 31h-217v-641h162q87 0 128 53t65 205h20v-557h-20q-18 154 -58.5 206t-134.5 52h-162v-670h242
q96 0 167.5 20t132 67.5t104 130.5t73.5 206zM1026 1849v-4l-408 -321h-8l109 325h307z" />
    <glyph glyph-name="Ecircumflex" unicode="&#xca;" horiz-adv-x="1275" 
d="M1204 465h23l-66 -465h-1114v33l62 8q60 9 90 31t30 80v1130q0 58 -30 80t-90 31l-62 8v33h1034l68 -443l-23 -6q-27 89 -65 161t-89.5 128.5t-120.5 87.5t-149 31h-217v-641h162q87 0 128 53t65 205h20v-557h-20q-18 154 -58.5 206t-134.5 52h-162v-670h242
q96 0 167.5 20t132 67.5t104 130.5t73.5 206zM948 1528l-303 135l-303 -135l-6 6l307 332h4l307 -330z" />
    <glyph glyph-name="Edieresis" unicode="&#xcb;" horiz-adv-x="1275" 
d="M1204 465h23l-66 -465h-1114v33l62 8q60 9 90 31t30 80v1130q0 58 -30 80t-90 31l-62 8v33h1034l68 -443l-23 -6q-27 89 -65 161t-89.5 128.5t-120.5 87.5t-149 31h-217v-641h162q87 0 128 53t65 205h20v-557h-20q-18 154 -58.5 206t-134.5 52h-162v-670h242
q96 0 167.5 20t132 67.5t104 130.5t73.5 206zM856 1591q-57 0 -96 37t-39 94q0 59 38.5 96t96.5 37t95.5 -37t37.5 -96q0 -57 -38 -94t-95 -37zM436 1591q-57 0 -95 37t-38 94q0 59 37.5 96t95.5 37q60 0 96.5 -36.5t36.5 -96.5q0 -58 -36.5 -94.5t-96.5 -36.5z" />
    <glyph glyph-name="Igrave" unicode="&#xcc;" horiz-adv-x="714" 
d="M666 0h-619v33l62 8q60 9 90 31t30 80v1130q0 58 -30 80t-90 31l-62 8v33h619v-33l-62 -8q-60 -9 -89.5 -31t-29.5 -80v-1130q0 -58 29.5 -80t89.5 -31l62 -8v-33zM16 1843v4h308l108 -325h-8z" />
    <glyph glyph-name="Iacute" unicode="&#xcd;" horiz-adv-x="714" 
d="M666 0h-619v33l62 8q60 9 90 31t30 80v1130q0 58 -30 80t-90 31l-62 8v33h619v-33l-62 -8q-60 -9 -89.5 -31t-29.5 -80v-1130q0 -58 29.5 -80t89.5 -31l62 -8v-33zM430 1849h307v-4l-405 -321h-8z" />
    <glyph glyph-name="Icircumflex" unicode="&#xce;" horiz-adv-x="714" 
d="M666 0h-619v33l62 8q60 9 90 31t30 80v1130q0 58 -30 80t-90 31l-62 8v33h619v-33l-62 -8q-60 -9 -89.5 -31t-29.5 -80v-1130q0 -58 29.5 -80t89.5 -31l62 -8v-33zM358 1663l-303 -135l-6 6l307 332h4l308 -330l-6 -8z" />
    <glyph glyph-name="Idieresis" unicode="&#xcf;" horiz-adv-x="714" 
d="M666 0h-619v33l62 8q60 9 90 31t30 80v1130q0 58 -30 80t-90 31l-62 8v33h619v-33l-62 -8q-60 -9 -89.5 -31t-29.5 -80v-1130q0 -58 29.5 -80t89.5 -31l62 -8v-33zM150 1591q-58 0 -97 37t-39 94q0 59 39 96t97 37t95.5 -37t37.5 -96q0 -57 -38 -94t-95 -37zM569 1591
q-57 0 -96 37t-39 94q0 59 38.5 96t96.5 37t95.5 -37t37.5 -96q0 -57 -38 -94t-95 -37z" />
    <glyph glyph-name="Eth" unicode="&#xd0;" horiz-adv-x="1529" 
d="M492 696v-655h192q222 0 359 185t137 491t-137 491t-359 185h-192v-656h299v-41h-299zM49 1401v33h627q227 0 404.5 -87t278.5 -251t101 -379t-101 -379t-278.5 -251t-404.5 -87h-627v33l62 8q60 9 89 31t29 80v544h-159v41h159v545q0 58 -29 80t-89 31z" />
    <glyph glyph-name="Ntilde" unicode="&#xd1;" horiz-adv-x="1533" 
d="M1061 1401v33h444v-33l-65 -8q-66 -9 -98.5 -31t-32.5 -80v-1282h-189l-839 1255v-1103q0 -58 33 -80t98 -31l67 -8v-33h-444v33l65 8q66 9 98.5 31t32.5 80v1130q0 58 -28 80t-86 31l-60 8v33h404l799 -1155v1003q0 57 -33 79.5t-99 31.5zM600 1653q-72 0 -115 -84
l-12 2q25 108 74.5 172.5t124.5 64.5q42 0 89.5 -21t83.5 -46.5t80.5 -46.5t80.5 -21q40 0 64.5 22.5t45.5 67.5l14 -2q-20 -105 -72 -172t-130 -67q-44 0 -92.5 20.5t-84 45t-77.5 45t-74 20.5z" />
    <glyph glyph-name="Ograve" unicode="&#xd2;" horiz-adv-x="1507" 
d="M754 12q189 0 297 182.5t108 522.5t-108 522t-297 182q-188 0 -297 -182t-109 -522t109 -522.5t297 -182.5zM754 1454q156 0 286.5 -59t216 -160t132.5 -234.5t47 -283.5t-47.5 -283.5t-133 -234.5t-215.5 -160t-286 -59q-203 0 -360 99.5t-239.5 266.5t-82.5 371
q0 149 47.5 282.5t133.5 234.5t216 160.5t285 59.5zM817 1522l-405 321v4h307l108 -325h-10z" />
    <glyph glyph-name="Oacute" unicode="&#xd3;" horiz-adv-x="1507" 
d="M754 12q189 0 297 182.5t108 522.5t-108 522t-297 182q-188 0 -297 -182t-109 -522t109 -522.5t297 -182.5zM754 1454q156 0 286.5 -59t216 -160t132.5 -234.5t47 -283.5t-47.5 -283.5t-133 -234.5t-215.5 -160t-286 -59q-203 0 -360 99.5t-239.5 266.5t-82.5 371
q0 149 47.5 282.5t133.5 234.5t216 160.5t285 59.5zM717 1524l108 325h308v-4l-406 -321h-10z" />
    <glyph glyph-name="Ocircumflex" unicode="&#xd4;" horiz-adv-x="1507" 
d="M754 12q189 0 297 182.5t108 522.5t-108 522t-297 182q-188 0 -297 -182t-109 -522t109 -522.5t297 -182.5zM754 1454q156 0 286.5 -59t216 -160t132.5 -234.5t47 -283.5t-47.5 -283.5t-133 -234.5t-215.5 -160t-286 -59q-203 0 -360 99.5t-239.5 266.5t-82.5 371
q0 149 47.5 282.5t133.5 234.5t216 160.5t285 59.5zM1055 1528l-301 135l-303 -135l-7 6l308 332h4l305 -330z" />
    <glyph glyph-name="Otilde" unicode="&#xd5;" horiz-adv-x="1507" 
d="M754 12q189 0 297 182.5t108 522.5t-108 522t-297 182q-188 0 -297 -182t-109 -522t109 -522.5t297 -182.5zM754 1454q156 0 286.5 -59t216 -160t132.5 -234.5t47 -283.5t-47.5 -283.5t-133 -234.5t-215.5 -160t-286 -59q-203 0 -360 99.5t-239.5 266.5t-82.5 371
q0 149 47.5 282.5t133.5 234.5t216 160.5t285 59.5zM883 1522q-44 0 -92.5 20.5t-84 45t-77.5 45t-74 20.5q-74 0 -113 -84l-14 2q25 108 74.5 172.5t124.5 64.5q42 0 89.5 -21t83.5 -46.5t80.5 -46.5t80.5 -21q40 0 66 22.5t46 67.5l12 -2q-20 -105 -72 -172t-130 -67z" />
    <glyph glyph-name="Odieresis" unicode="&#xd6;" horiz-adv-x="1507" 
d="M754 12q189 0 297 182.5t108 522.5t-108 522t-297 182q-188 0 -297 -182t-109 -522t109 -522.5t297 -182.5zM754 1454q156 0 286.5 -59t216 -160t132.5 -234.5t47 -283.5t-47.5 -283.5t-133 -234.5t-215.5 -160t-286 -59q-203 0 -360 99.5t-239.5 266.5t-82.5 371
q0 149 47.5 282.5t133.5 234.5t216 160.5t285 59.5zM545 1591q-57 0 -96 37t-39 94q0 59 38.5 96t96.5 37t95.5 -37t37.5 -96q0 -57 -38 -94t-95 -37zM965 1591q-58 0 -97 37t-39 94q0 59 39 96t97 37t95.5 -37t37.5 -96q0 -57 -38 -94t-95 -37z" />
    <glyph glyph-name="multiply" unicode="&#xd7;" horiz-adv-x="958" 
d="M512 664l375 -375l-33 -33l-375 375l-375 -377l-30 35l372 375l-372 372l32 35l375 -375l373 375l31 -35z" />
    <glyph glyph-name="Oslash" unicode="&#xd8;" horiz-adv-x="1562" 
d="M377 717q0 -196 37 -338l723 727q-49 155 -140 235t-215 80q-188 0 -296.5 -182t-108.5 -522zM1188 717q0 200 -37 342l-725 -727q49 -157 140.5 -238.5t215.5 -81.5q188 0 297 182.5t109 522.5zM1274 1243l188 189l31 -31l-190 -191q159 -199 159 -493
q0 -149 -47.5 -282.5t-133 -234.5t-215 -160.5t-284.5 -59.5q-147 0 -275 56t-220 157l-189 -189l-28 31l190 190q-160 206 -160 492q0 150 47 283.5t132.5 234.5t216 160t286.5 59q147 0 273.5 -55t218.5 -156z" />
    <glyph glyph-name="Ugrave" unicode="&#xd9;" horiz-adv-x="1468" 
d="M743 -20q-250 0 -398 143t-148 391v768q0 58 -27 80t-82 31l-55 8v33h604v-33l-62 -8q-60 -9 -89 -31t-29 -80v-782q0 -210 101 -326.5t286 -116.5q181 0 280 117.5t99 323.5v784q0 58 -32 80t-97 31l-66 8v33h440v-33l-65 -8q-67 -9 -100 -31t-33 -80v-784
q0 -242 -140.5 -380t-386.5 -138zM467 1843v4h307l109 -325h-11z" />
    <glyph glyph-name="Uacute" unicode="&#xda;" horiz-adv-x="1468" 
d="M743 -20q-250 0 -398 143t-148 391v768q0 58 -27 80t-82 31l-55 8v33h604v-33l-62 -8q-60 -9 -89 -31t-29 -80v-782q0 -210 101 -326.5t286 -116.5q181 0 280 117.5t99 323.5v784q0 58 -32 80t-97 31l-66 8v33h440v-33l-65 -8q-67 -9 -100 -31t-33 -80v-784
q0 -242 -140.5 -380t-386.5 -138zM860 1849h307v-4l-405 -321h-10z" />
    <glyph glyph-name="Ucircumflex" unicode="&#xdb;" horiz-adv-x="1468" 
d="M743 -20q-250 0 -398 143t-148 391v768q0 58 -27 80t-82 31l-55 8v33h604v-33l-62 -8q-60 -9 -89 -31t-29 -80v-782q0 -210 101 -326.5t286 -116.5q181 0 280 117.5t99 323.5v784q0 58 -32 80t-97 31l-66 8v33h440v-33l-65 -8q-67 -9 -100 -31t-33 -80v-784
q0 -242 -140.5 -380t-386.5 -138zM809 1663l-303 -135l-6 6l307 332h4l305 -330l-6 -8z" />
    <glyph glyph-name="Udieresis" unicode="&#xdc;" horiz-adv-x="1468" 
d="M743 -20q-250 0 -398 143t-148 391v768q0 58 -27 80t-82 31l-55 8v33h604v-33l-62 -8q-60 -9 -89 -31t-29 -80v-782q0 -210 101 -326.5t286 -116.5q181 0 280 117.5t99 323.5v784q0 58 -32 80t-97 31l-66 8v33h440v-33l-65 -8q-67 -9 -100 -31t-33 -80v-784
q0 -242 -140.5 -380t-386.5 -138zM600 1591q-57 0 -96 37t-39 94q0 59 38.5 96t96.5 37t95.5 -37t37.5 -96q0 -57 -38 -94t-95 -37zM1020 1591q-57 0 -96 37t-39 94q0 59 38.5 96t96.5 37t95.5 -37t37.5 -96q0 -57 -38 -94t-95 -37z" />
    <glyph glyph-name="Yacute" unicode="&#xdd;" horiz-adv-x="1325" 
d="M938 1401v33h410v-33l-41 -8q-55 -12 -86 -33.5t-54 -63.5l-364 -661v-483q0 -58 33 -80t100 -31l65 -8v-33h-653v33l68 8q65 9 98 31t33 80v473l-426 675q-46 71 -117 93l-29 8v33h566v-33l-62 -8q-29 -4 -44.5 -8.5t-26 -14.5t-7.5 -27t19 -43l371 -591l325 587
q28 51 2 69.5t-102 27.5zM1071 1849v-4l-405 -321h-9l107 325h307z" />
    <glyph glyph-name="Thorn" unicode="&#xde;" horiz-adv-x="1304" 
d="M641 1102h-156v-770h170q149 0 237.5 104.5t88.5 292.5q0 186 -91 279.5t-249 93.5zM662 297h-177v-145q0 -58 39.5 -80t120.5 -31l80 -8v-33h-678v33l62 8q60 9 90 31t30 80v1130q0 58 -30 80t-90 31l-62 8v33h678v-33l-80 -8q-81 -9 -120.5 -31t-39.5 -80v-143h187
q269 0 422 -108t153 -298q0 -198 -157 -317t-428 -119z" />
    <glyph glyph-name="germandbls" unicode="&#xdf;" horiz-adv-x="1396" 
d="M981 969q0 -46 27.5 -96t68.5 -92t89.5 -93t89.5 -99t68.5 -109.5t27.5 -123.5q0 -162 -116.5 -269t-291.5 -107q-134 0 -204 44.5t-70 106.5q0 72 86 131q30 -51 54 -86t57 -74t67.5 -59t69.5 -20q69 0 119.5 57t50.5 151q0 55 -33 105.5t-97 114.5q-109 101 -148 147
q-93 111 -93 219q0 145 241 303q-39 237 -132.5 357t-206.5 120q-125 0 -199 -127t-74 -348v-970q0 -58 24 -80t72 -31l50 -8v-33h-562v33l60 8q62 9 91.5 31t29.5 80v923h-160v41l162 12q15 235 157 372.5t365 137.5q197 0 336 -117.5t180 -322.5q-132 -64 -194 -118.5
t-62 -110.5z" />
    <glyph glyph-name="agrave" unicode="&#xe0;" horiz-adv-x="1040" 
d="M408 100q64 0 124.5 39t106.5 105v207q-78 12 -111 12q-110 0 -184 -58t-74 -157q0 -69 36 -108.5t102 -39.5zM1053 131l6 -8q-26 -60 -91 -101.5t-134 -41.5q-92 0 -143.5 50t-51.5 138v31q-66 -101 -158 -160t-200 -59q-109 0 -175.5 60t-66.5 157q0 135 145.5 214
t454.5 103v295q0 80 -36 132.5t-88 72.5t-118 20q-43 0 -70 -20.5t-41.5 -65.5t-19 -105t-2.5 -151q-84 -7 -133 26t-49 87q0 62 81 139.5t212 134t256 56.5q246 0 243 -308l-2 -649q0 -69 64 -69q34 0 117 22zM223 1536h307l107 -326h-8l-406 322v4z" />
    <glyph glyph-name="aacute" unicode="&#xe1;" horiz-adv-x="1040" 
d="M408 100q64 0 124.5 39t106.5 105v207q-78 12 -111 12q-110 0 -184 -58t-74 -157q0 -69 36 -108.5t102 -39.5zM1053 131l6 -8q-26 -60 -91 -101.5t-134 -41.5q-92 0 -143.5 50t-51.5 138v31q-66 -101 -158 -160t-200 -59q-109 0 -175.5 60t-66.5 157q0 135 145.5 214
t454.5 103v295q0 80 -36 132.5t-88 72.5t-118 20q-43 0 -70 -20.5t-41.5 -65.5t-19 -105t-2.5 -151q-84 -7 -133 26t-49 87q0 62 81 139.5t212 134t256 56.5q246 0 243 -308l-2 -649q0 -69 64 -69q34 0 117 22zM571 1536h308v-4l-406 -322h-10z" />
    <glyph glyph-name="acircumflex" unicode="&#xe2;" horiz-adv-x="1040" 
d="M408 100q64 0 124.5 39t106.5 105v207q-78 12 -111 12q-110 0 -184 -58t-74 -157q0 -69 36 -108.5t102 -39.5zM1053 131l6 -8q-26 -60 -91 -101.5t-134 -41.5q-92 0 -143.5 50t-51.5 138v31q-66 -101 -158 -160t-200 -59q-109 0 -175.5 60t-66.5 157q0 135 145.5 214
t454.5 103v295q0 80 -36 132.5t-88 72.5t-118 20q-43 0 -70 -20.5t-41.5 -65.5t-19 -105t-2.5 -151q-84 -7 -133 26t-49 87q0 62 81 139.5t212 134t256 56.5q246 0 243 -308l-2 -649q0 -69 64 -69q34 0 117 22zM807 1225l-6 -8l-301 135l-303 -135l-7 6l308 331h4z" />
    <glyph glyph-name="atilde" unicode="&#xe3;" horiz-adv-x="1040" 
d="M408 100q64 0 124.5 39t106.5 105v207q-78 12 -111 12q-110 0 -184 -58t-74 -157q0 -69 36 -108.5t102 -39.5zM1053 131l6 -8q-26 -60 -91 -101.5t-134 -41.5q-92 0 -143.5 50t-51.5 138v31q-66 -101 -158 -160t-200 -59q-109 0 -175.5 60t-66.5 157q0 135 145.5 214
t454.5 103v295q0 80 -36 132.5t-88 72.5t-118 20q-43 0 -70 -20.5t-41.5 -65.5t-19 -105t-2.5 -151q-84 -7 -133 26t-49 87q0 62 81 139.5t212 134t256 56.5q246 0 243 -308l-2 -649q0 -69 64 -69q34 0 117 22zM303 1374q-74 0 -113 -84l-14 2q25 108 74.5 173t124.5 65
q42 0 89.5 -21t83.5 -46.5t80.5 -46.5t80.5 -21q40 0 65 22t47 68l13 -2q-20 -105 -72.5 -172.5t-130.5 -67.5q-44 0 -92.5 20.5t-84 45t-77.5 45t-74 20.5z" />
    <glyph glyph-name="adieresis" unicode="&#xe4;" horiz-adv-x="1040" 
d="M408 100q64 0 124.5 39t106.5 105v207q-78 12 -111 12q-110 0 -184 -58t-74 -157q0 -69 36 -108.5t102 -39.5zM1053 131l6 -8q-26 -60 -91 -101.5t-134 -41.5q-92 0 -143.5 50t-51.5 138v31q-66 -101 -158 -160t-200 -59q-109 0 -175.5 60t-66.5 157q0 135 145.5 214
t454.5 103v295q0 80 -36 132.5t-88 72.5t-118 20q-43 0 -70 -20.5t-41.5 -65.5t-19 -105t-2.5 -151q-84 -7 -133 26t-49 87q0 62 81 139.5t212 134t256 56.5q246 0 243 -308l-2 -649q0 -69 64 -69q34 0 117 22zM291 1260q-57 0 -96 37t-39 94q0 59 38.5 96t96.5 37t95.5 -37
t37.5 -96q0 -57 -38 -94t-95 -37zM709 1260q-57 0 -95.5 37t-38.5 94q0 59 38 96t96 37q60 0 96.5 -36.5t36.5 -96.5q0 -57 -37 -94t-96 -37z" />
    <glyph glyph-name="aring" unicode="&#xe5;" horiz-adv-x="1040" 
d="M408 100q64 0 124.5 39t106.5 105v207q-78 12 -111 12q-110 0 -184 -58t-74 -157q0 -69 36 -108.5t102 -39.5zM500 1561q-62 0 -102 -40.5t-40 -101.5t40 -100t102 -39q63 0 104 39t41 100q0 62 -41 102t-104 40zM1053 131l6 -8q-26 -60 -91 -101.5t-134 -41.5
q-92 0 -143.5 50t-51.5 138v31q-66 -101 -158 -160t-200 -59q-109 0 -175.5 60t-66.5 157q0 135 145.5 214t454.5 103v295q0 80 -36 132.5t-88 72.5t-118 20q-43 0 -70 -20.5t-41.5 -65.5t-19 -105t-2.5 -151q-84 -7 -133 26t-49 87q0 62 81 139.5t212 134t256 56.5
q246 0 243 -308l-2 -649q0 -69 64 -69q34 0 117 22zM500 1229q-85 0 -140 53t-55 137q0 85 55 139t140 54q88 0 143 -54t55 -139t-55 -137.5t-143 -52.5z" />
    <glyph glyph-name="ae" unicode="&#xe6;" horiz-adv-x="1615" 
d="M416 100q74 0 152 46.5t128 125.5q-34 75 -47 177q-69 16 -121 16q-101 0 -179.5 -56.5t-78.5 -154.5q0 -73 39.5 -113.5t106.5 -40.5zM1151 1100q-105 0 -168.5 -94.5t-81.5 -251.5h451q-6 346 -201 346zM1561 274l12 -8q-54 -131 -169 -208.5t-257 -77.5
q-143 0 -258 70t-178 194q-75 -120 -190.5 -192t-241.5 -72q-106 0 -173 59t-67 151q0 139 145.5 219.5t454.5 104.5v295q0 80 -36 132.5t-88 72.5t-118 20q-43 0 -70 -20.5t-41.5 -65.5t-19 -105t-2.5 -151q-84 -7 -133 26t-49 87q0 62 81 139.5t212 134t256 56.5
q153 0 211 -117q139 117 315 117q98 0 175 -33t125 -91t72.5 -133.5t24.5 -164.5h-657q-2 -14 -2 -39v-41q0 -245 104.5 -376.5t272.5 -131.5q82 0 160 40t129 109z" />
    <glyph glyph-name="ccedilla" unicode="&#xe7;" horiz-adv-x="1009" 
d="M541 -20l-35 -64q96 -26 149.5 -68t53.5 -114q0 -59 -40.5 -103.5t-109.5 -70.5q-122 -49 -272 -45l-19 75q95 -28 156 -28q67 0 106 28t39 78q0 93 -194 131l108 183q-190 22 -305 167t-115 361q0 139 43.5 256.5t119 198t179 125.5t222.5 45q152 0 239.5 -69t87.5 -157
q0 -57 -43.5 -98.5t-124.5 -48.5q-27 159 -75.5 240t-124.5 81q-115 0 -196 -133t-81 -350q0 -205 94 -336t259 -131q200 0 303 172l12 -6q-50 -156 -165 -237.5t-271 -81.5z" />
    <glyph glyph-name="egrave" unicode="&#xe8;" horiz-adv-x="1038" 
d="M571 1100q-102 0 -165.5 -95t-81.5 -251h450q-9 346 -203 346zM983 274l12 -8q-54 -131 -169 -208.5t-257 -77.5q-221 0 -363.5 155.5t-142.5 407.5q0 113 35.5 218.5t99.5 189t163.5 134t218.5 50.5q98 0 175 -33t125 -91t72.5 -133.5t24.5 -164.5h-658q-2 -14 -2 -39
v-41q0 -245 104.5 -376.5t272.5 -131.5q80 0 159 40.5t130 108.5zM240 1536h307l108 -326h-10l-405 322v4z" />
    <glyph glyph-name="eacute" unicode="&#xe9;" horiz-adv-x="1038" 
d="M571 1100q-102 0 -165.5 -95t-81.5 -251h450q-9 346 -203 346zM983 274l12 -8q-54 -131 -169 -208.5t-257 -77.5q-221 0 -363.5 155.5t-142.5 407.5q0 113 35.5 218.5t99.5 189t163.5 134t218.5 50.5q98 0 175 -33t125 -91t72.5 -133.5t24.5 -164.5h-658q-2 -14 -2 -39
v-41q0 -245 104.5 -376.5t272.5 -131.5q80 0 159 40.5t130 108.5zM641 1536h307v-4l-405 -322h-8z" />
    <glyph glyph-name="ecircumflex" unicode="&#xea;" horiz-adv-x="1038" 
d="M571 1100q-102 0 -165.5 -95t-81.5 -251h450q-9 346 -203 346zM983 274l12 -8q-54 -131 -169 -208.5t-257 -77.5q-221 0 -363.5 155.5t-142.5 407.5q0 113 35.5 218.5t99.5 189t163.5 134t218.5 50.5q98 0 175 -33t125 -91t72.5 -133.5t24.5 -164.5h-658q-2 -14 -2 -39
v-41q0 -245 104.5 -376.5t272.5 -131.5q80 0 159 40.5t130 108.5zM879 1225l-7 -8l-303 135l-303 -135l-6 6l307 331h4z" />
    <glyph glyph-name="edieresis" unicode="&#xeb;" horiz-adv-x="1038" 
d="M571 1100q-102 0 -165.5 -95t-81.5 -251h450q-9 346 -203 346zM983 274l12 -8q-54 -131 -169 -208.5t-257 -77.5q-221 0 -363.5 155.5t-142.5 407.5q0 113 35.5 218.5t99.5 189t163.5 134t218.5 50.5q98 0 175 -33t125 -91t72.5 -133.5t24.5 -164.5h-658q-2 -14 -2 -39
v-41q0 -245 104.5 -376.5t272.5 -131.5q80 0 159 40.5t130 108.5zM360 1260q-57 0 -96 37t-39 94q0 59 38.5 96t96.5 37t96 -37t38 -96q0 -57 -38.5 -94t-95.5 -37zM780 1260q-57 0 -96 37t-39 94q0 59 38.5 96t96.5 37t95.5 -37t37.5 -96q0 -57 -38 -94t-95 -37z" />
    <glyph glyph-name="igrave" unicode="&#xec;" horiz-adv-x="589" 
d="M563 0h-526v33l49 8q48 9 72 31t24 80v753l-145 105v4l377 121h4v-983q0 -58 24 -80t72 -31l49 -8v-33zM-80 1532v4h307l109 -326h-10z" />
    <glyph glyph-name="iacute" unicode="&#xed;" horiz-adv-x="589" 
d="M563 0h-526v33l49 8q48 9 72 31t24 80v753l-145 105v4l377 121h4v-983q0 -58 24 -80t72 -31l49 -8v-33zM373 1536h307v-4l-408 -322h-8z" />
    <glyph glyph-name="icircumflex" unicode="&#xee;" horiz-adv-x="589" 
d="M563 0h-526v33l49 8q48 9 72 31t24 80v753l-145 105v4l377 121h4v-983q0 -58 24 -80t72 -31l49 -8v-33zM299 1352l-303 -135l-6 6l307 331h4l307 -329l-6 -8z" />
    <glyph glyph-name="idieresis" unicode="&#xef;" horiz-adv-x="589" 
d="M563 0h-526v33l49 8q48 9 72 31t24 80v753l-145 105v4l377 121h4v-983q0 -58 24 -80t72 -31l49 -8v-33zM510 1260q-57 0 -96 37t-39 94q0 59 38.5 96t96.5 37t95.5 -37t37.5 -96q0 -57 -38 -94t-95 -37zM90 1260q-57 0 -95 37t-38 94q0 59 37.5 96t95.5 37
q60 0 96.5 -36.5t36.5 -96.5q0 -57 -36.5 -94t-96.5 -37z" />
    <glyph glyph-name="eth" unicode="&#xf0;" horiz-adv-x="1181" 
d="M590 14q129 0 195.5 138.5t66.5 404.5q0 541 -262 541q-258 0 -258 -541q0 -266 65.5 -404.5t192.5 -138.5zM872 1571l15 -33l-256 -119q229 -158 357 -369.5t128 -445.5q0 -178 -67 -320.5t-187.5 -223t-271.5 -80.5q-232 0 -378 159t-146 418q0 262 143.5 419
t372.5 157q117 0 211 -60q-81 190 -230 316l-323 -150l-17 33l309 143q-140 110 -348 201l9 14q225 -71 403 -186z" />
    <glyph glyph-name="ntilde" unicode="&#xf1;" horiz-adv-x="1267" 
d="M1200 41l49 -8v-33h-516v33l45 8q45 9 66.5 31t21.5 80v636q0 104 -49.5 164t-140.5 60q-70 0 -137.5 -35t-120.5 -100v-725q0 -57 22 -79.5t66 -31.5l47 -8v-33h-516v33l49 8q48 9 72 31t24 80v753l-145 105v4l377 121h4v-205q67 98 162 151.5t206 53.5
q153 0 235.5 -95.5t82.5 -259.5v-628q0 -58 24 -80t72 -31zM459 1374q-74 0 -113 -84l-14 2q25 109 74 173.5t124 64.5q42 0 89.5 -21t83.5 -46.5t80.5 -46.5t80.5 -21q40 0 65.5 22.5t47.5 67.5l12 -2q-20 -105 -72.5 -172.5t-130.5 -67.5q-44 0 -92.5 20.5t-83.5 45
t-77 45t-74 20.5z" />
    <glyph glyph-name="ograve" unicode="&#xf2;" horiz-adv-x="1179" 
d="M588 12q127 0 195.5 142t68.5 405q0 260 -68.5 401.5t-195.5 141.5q-124 0 -192 -141.5t-68 -401.5q0 -262 67.5 -404.5t192.5 -142.5zM588 1135q230 0 378 -162t148 -414t-148 -415.5t-378 -163.5q-112 0 -209.5 43.5t-167 119.5t-109 184t-39.5 232q0 251 148.5 413.5
t376.5 162.5zM637 1210l-406 322v4h308l108 -326h-10z" />
    <glyph glyph-name="oacute" unicode="&#xf3;" horiz-adv-x="1179" 
d="M588 12q127 0 195.5 142t68.5 405q0 260 -68.5 401.5t-195.5 141.5q-124 0 -192 -141.5t-68 -401.5q0 -262 67.5 -404.5t192.5 -142.5zM588 1135q230 0 378 -162t148 -414t-148 -415.5t-378 -163.5q-112 0 -209.5 43.5t-167 119.5t-109 184t-39.5 232q0 251 148.5 413.5
t376.5 162.5zM535 1210l106 326h307v-4l-405 -322h-8z" />
    <glyph glyph-name="ocircumflex" unicode="&#xf4;" horiz-adv-x="1179" 
d="M588 12q127 0 195.5 142t68.5 405q0 260 -68.5 401.5t-195.5 141.5q-124 0 -192 -141.5t-68 -401.5q0 -262 67.5 -404.5t192.5 -142.5zM588 1135q230 0 378 -162t148 -414t-148 -415.5t-378 -163.5q-112 0 -209.5 43.5t-167 119.5t-109 184t-39.5 232q0 251 148.5 413.5
t376.5 162.5zM893 1217l-303 135l-303 -135l-6 6l307 331h4l307 -329z" />
    <glyph glyph-name="otilde" unicode="&#xf5;" horiz-adv-x="1179" 
d="M588 12q127 0 195.5 142t68.5 405q0 260 -68.5 401.5t-195.5 141.5q-124 0 -192 -141.5t-68 -401.5q0 -262 67.5 -404.5t192.5 -142.5zM588 1135q230 0 378 -162t148 -414t-148 -415.5t-378 -163.5q-112 0 -209.5 43.5t-167 119.5t-109 184t-39.5 232q0 251 148.5 413.5
t376.5 162.5zM723 1243q-44 0 -93 20.5t-84.5 45t-78 45t-74.5 20.5q-69 0 -112 -84l-13 2q22 106 72.5 172t124.5 66q42 0 90.5 -21t84.5 -46.5t80.5 -46.5t78.5 -21q40 0 66 22.5t46 67.5l13 -2q-18 -104 -71.5 -172t-129.5 -68z" />
    <glyph glyph-name="odieresis" unicode="&#xf6;" horiz-adv-x="1179" 
d="M588 1135q230 0 378 -162t148 -414t-148 -415.5t-378 -163.5q-112 0 -209.5 43.5t-167 119.5t-109 184t-39.5 232q0 251 148.5 413.5t376.5 162.5zM588 12q127 0 195.5 142t68.5 405q0 260 -68.5 401.5t-195.5 141.5q-124 0 -192 -141.5t-68 -401.5q0 -262 67.5 -404.5
t192.5 -142.5zM381 1260q-57 0 -96 37t-39 94q0 59 38.5 96t96.5 37t95.5 -37t37.5 -96q0 -57 -38 -94t-95 -37zM801 1260q-57 0 -96 37t-39 94q0 59 38.5 96t96.5 37t95.5 -37t37.5 -96q0 -57 -38 -94t-95 -37z" />
    <glyph glyph-name="divide" unicode="&#xf7;" horiz-adv-x="1079" 
d="M539 162q-59 0 -99.5 40.5t-40.5 98.5q0 62 40 103.5t100 41.5q61 0 102 -41.5t41 -103.5q0 -58 -41 -98.5t-102 -40.5zM539 881q-59 0 -99.5 40.5t-40.5 98.5q0 62 40 103.5t100 41.5q61 0 102 -41.5t41 -103.5q0 -58 -41 -98.5t-102 -40.5zM991 641h-901v41h901v-41z
" />
    <glyph glyph-name="oslash" unicode="&#xf8;" horiz-adv-x="1243" 
d="M362 559q0 -120 15 -219l485 489q-60 273 -239 273q-125 0 -193 -142t-68 -401zM887 559q0 99 -15 217l-485 -487q30 -135 89.5 -206t146.5 -71q127 0 195.5 142t68.5 405zM1004 971l167 170l31 -33l-170 -172q119 -153 119 -377q0 -252 -149 -415.5t-379 -163.5
q-227 0 -379 165l-172 -172l-29 31l174 174q-119 157 -119 381q0 251 148.5 413.5t376.5 162.5q115 0 213 -42.5t168 -121.5z" />
    <glyph glyph-name="ugrave" unicode="&#xf9;" horiz-adv-x="1253" 
d="M1225 82l6 -33l-385 -69v210q-145 -210 -365 -210q-153 0 -236 95t-83 259v608q0 58 -23 75t-71 17l-50 -2l-6 33l387 70v-809q0 -104 50 -164t141 -60q132 0 256 136v704q0 58 -23 75t-71 17l-50 -2l-6 33l385 70v-963q0 -58 23 -75t72 -17zM575 1536l109 -326h-8
l-408 322v4h307z" />
    <glyph glyph-name="uacute" unicode="&#xfa;" horiz-adv-x="1253" 
d="M1225 82l6 -33l-385 -69v210q-145 -210 -365 -210q-153 0 -236 95t-83 259v608q0 58 -23 75t-71 17l-50 -2l-6 33l387 70v-809q0 -104 50 -164t141 -60q132 0 256 136v704q0 58 -23 75t-71 17l-50 -2l-6 33l385 70v-963q0 -58 23 -75t72 -17zM987 1536v-4l-405 -322h-11
l109 326h307z" />
    <glyph glyph-name="ucircumflex" unicode="&#xfb;" horiz-adv-x="1253" 
d="M1225 82l6 -33l-385 -69v210q-145 -210 -365 -210q-153 0 -236 95t-83 259v608q0 58 -23 75t-71 17l-50 -2l-6 33l387 70v-809q0 -104 50 -164t141 -60q132 0 256 136v704q0 58 -23 75t-71 17l-50 -2l-6 33l385 70v-963q0 -58 23 -75t72 -17zM909 1217l-301 135
l-305 -135l-6 6l309 331h4l305 -329z" />
    <glyph glyph-name="udieresis" unicode="&#xfc;" horiz-adv-x="1253" 
d="M1225 82l6 -33l-385 -69v210q-145 -210 -365 -210q-153 0 -236 95t-83 259v608q0 58 -23 75t-71 17l-50 -2l-6 33l387 70v-809q0 -104 50 -164t141 -60q132 0 256 136v704q0 58 -23 75t-71 17l-50 -2l-6 33l385 70v-963q0 -58 23 -75t72 -17zM397 1260q-57 0 -95 37
t-38 94q0 59 37.5 96t95.5 37q60 0 96.5 -36.5t36.5 -96.5q0 -57 -37 -94t-96 -37zM817 1260q-57 0 -95 37t-38 94q0 59 37.5 96t95.5 37q60 0 96.5 -36.5t36.5 -96.5q0 -57 -37 -94t-96 -37z" />
    <glyph glyph-name="yacute" unicode="&#xfd;" horiz-adv-x="1067" 
d="M739 1081v33h348v-33l-34 -8q-26 -6 -42 -13.5t-36 -30.5t-35 -60l-350 -940q-15 -39 -25 -64.5t-30.5 -71.5t-39 -78t-46 -70.5t-55 -62t-62.5 -39.5t-72 -16q-73 0 -123.5 43t-50.5 115q0 53 29 109q106 -55 162 -78t92 -23q53 0 84.5 46t72.5 165l-424 969
q-15 35 -34.5 57.5t-32.5 29t-33 13.5l-29 8v33h529v-33l-62 -8q-24 -3 -37.5 -6.5t-27 -10.5t-18 -17.5t-3.5 -27t11 -40.5l272 -676l248 674q9 23 9.5 40.5t-4.5 28t-19.5 17.5t-30 11t-39.5 7zM961 1536v-4l-406 -322h-10l108 326h308z" />
    <glyph glyph-name="thorn" unicode="&#xfe;" horiz-adv-x="1210" 
d="M606 1012q-119 0 -229 -94v-832q101 -76 198 -76q73 0 130.5 40.5t90.5 100.5t54.5 138.5t29 146t7.5 131.5q0 445 -281 445zM565 -20q-95 0 -188 22v-219q0 -58 33 -80t98 -31l67 -8v-33h-581v33l49 8q48 9 72 31t24 80v1647l-145 104v4l379 121h4v-698q150 174 356 174
q174 0 292 -136.5t118 -375.5q0 -300 -158 -471.5t-420 -171.5z" />
    <glyph glyph-name="ydieresis" unicode="&#xff;" horiz-adv-x="1067" 
d="M739 1081v33h348v-33l-34 -8q-26 -6 -42 -13.5t-36 -30.5t-35 -60l-350 -940q-15 -39 -25 -64.5t-30.5 -71.5t-39 -78t-46 -70.5t-55 -62t-62.5 -39.5t-72 -16q-73 0 -123.5 43t-50.5 115q0 53 29 109q106 -55 162 -78t92 -23q53 0 84.5 46t72.5 165l-424 969
q-15 35 -34.5 57.5t-32.5 29t-33 13.5l-29 8v33h529v-33l-62 -8q-24 -3 -37.5 -6.5t-27 -10.5t-18 -17.5t-3.5 -27t11 -40.5l272 -676l248 674q9 23 9.5 40.5t-4.5 28t-19.5 17.5t-30 11t-39.5 7zM393 1260q-57 0 -96 37t-39 94q0 59 38.5 96t96.5 37t95.5 -37t37.5 -96
q0 -57 -38 -94t-95 -37zM811 1260q-57 0 -95 37t-38 94q0 59 37.5 96t95.5 37q60 0 96.5 -36.5t36.5 -96.5q0 -57 -37 -94t-96 -37z" />
    <glyph glyph-name="Amacron" unicode="&#x100;" horiz-adv-x="1384" 
d="M827 565l-252 686l-231 -686h483zM1389 41l47 -8v-33h-584v33l55 8q62 11 77 32t-3 72l-139 379h-512l-127 -379q-17 -51 6 -72.5t108 -31.5l76 -8v-33h-416v33l46 8q59 10 86.5 32t44.5 72l430 1289h184l489 -1291q19 -47 47 -68.5t85 -33.5zM371 1599v41h620v-41h-620z
" />
    <glyph glyph-name="amacron" unicode="&#x101;" horiz-adv-x="1040" 
d="M408 100q64 0 124.5 39t106.5 105v207q-78 12 -111 12q-110 0 -184 -58t-74 -157q0 -69 36 -108.5t102 -39.5zM1053 131l6 -8q-26 -60 -91 -101.5t-134 -41.5q-92 0 -143.5 50t-51.5 138v31q-66 -101 -158 -160t-200 -59q-109 0 -175.5 60t-66.5 157q0 135 145.5 214
t454.5 103v295q0 80 -36 132.5t-88 72.5t-118 20q-43 0 -70 -20.5t-41.5 -65.5t-19 -105t-2.5 -151q-84 -7 -133 26t-49 87q0 62 81 139.5t212 134t256 56.5q246 0 243 -308l-2 -649q0 -69 64 -69q34 0 117 22zM190 1305v41h619v-41h-619z" />
    <glyph glyph-name="Abreve" unicode="&#x102;" horiz-adv-x="1384" 
d="M827 565l-252 686l-231 -686h483zM1389 41l47 -8v-33h-584v33l55 8q62 11 77 32t-3 72l-139 379h-512l-127 -379q-17 -51 6 -72.5t108 -31.5l76 -8v-33h-416v33l46 8q59 10 86.5 32t44.5 72l430 1289h184l489 -1291q19 -47 47 -68.5t85 -33.5zM678 1540q-122 0 -201.5 87
t-87.5 224h6q64 -149 283 -149q218 0 287 153h6q-6 -139 -85.5 -227t-207.5 -88z" />
    <glyph glyph-name="abreve" unicode="&#x103;" horiz-adv-x="1040" 
d="M408 100q64 0 124.5 39t106.5 105v207q-78 12 -111 12q-110 0 -184 -58t-74 -157q0 -69 36 -108.5t102 -39.5zM1053 131l6 -8q-26 -60 -91 -101.5t-134 -41.5q-92 0 -143.5 50t-51.5 138v31q-66 -101 -158 -160t-200 -59q-109 0 -175.5 60t-66.5 157q0 135 145.5 214
t454.5 103v295q0 80 -36 132.5t-88 72.5t-118 20q-43 0 -70 -20.5t-41.5 -65.5t-19 -105t-2.5 -151q-84 -7 -133 26t-49 87q0 62 81 139.5t212 134t256 56.5q246 0 243 -308l-2 -649q0 -69 64 -69q34 0 117 22zM500 1241q-122 0 -201 86.5t-90 224.5h6q64 -149 285 -149
q215 0 284 153h7q-6 -139 -84.5 -227t-206.5 -88z" />
    <glyph glyph-name="Aogonek" unicode="&#x104;" horiz-adv-x="1384" 
d="M827 565l-252 686l-231 -686h483zM1389 41l47 -8v-33h-404q-93 -105 -127.5 -158t-34.5 -90q0 -39 24 -63.5t67 -24.5q44 0 92 31l4 -4q-32 -57 -89.5 -91t-123.5 -34q-72 0 -113 35t-41 92q0 70 74.5 139.5t232.5 167.5h-145v33l55 8q62 11 77 32t-3 72l-139 379h-512
l-127 -379q-17 -51 6 -72.5t108 -31.5l76 -8v-33h-416v33l46 8q59 10 86.5 32t44.5 72l430 1289h184l489 -1291q19 -47 47 -68.5t85 -33.5z" />
    <glyph glyph-name="aogonek" unicode="&#x105;" horiz-adv-x="1042" 
d="M408 100q64 0 124.5 39t106.5 105v207q-78 12 -111 12q-110 0 -184 -58t-74 -157q0 -69 36 -108.5t102 -39.5zM956 -336q45 0 93 31l4 -4q-36 -58 -93 -91.5t-122 -33.5q-71 0 -112.5 35.5t-41.5 91.5q0 58 63 137t171 164q-38 -14 -84 -14q-92 0 -143.5 50t-51.5 138v31
q-64 -101 -156.5 -160t-201.5 -59t-175.5 60t-66.5 157q0 135 145.5 214t454.5 103v295q0 80 -36 132.5t-88 72.5t-118 20q-43 0 -70 -20.5t-41.5 -65.5t-19 -105t-2.5 -151q-84 -7 -133 26t-49 87q0 62 81 139.5t212 134t256 56.5q246 0 243 -308l-2 -649q0 -69 64 -69
q34 0 117 22l6 -8q-35 -48 -71.5 -103t-79 -139.5t-42.5 -128.5q0 -39 23.5 -63.5t66.5 -24.5z" />
    <glyph glyph-name="Cacute" unicode="&#x106;" horiz-adv-x="1409" 
d="M844 -20q-233 0 -408.5 92t-269.5 259t-94 386q0 166 60 305.5t164 233.5t245.5 146t302.5 52q246 0 463 -111l20 -350h-20q-61 198 -188.5 313t-295.5 115q-135 0 -243.5 -90.5t-169 -251t-60.5 -360.5q0 -320 132.5 -513.5t353.5 -193.5q170 0 302 118t171 310h18v-344
q-238 -116 -483 -116zM881 1849h307v-4l-406 -321h-10z" />
    <glyph glyph-name="cacute" unicode="&#x107;" horiz-adv-x="1009" 
d="M541 -20q-213 0 -345.5 149t-132.5 381q0 139 43.5 256.5t119 198t179 125.5t222.5 45q152 0 239.5 -69t87.5 -157q0 -57 -43.5 -98.5t-124.5 -48.5q-27 159 -75.5 240t-124.5 81q-115 0 -196 -133t-81 -350q0 -205 94 -336t259 -131q200 0 303 172l12 -6
q-50 -156 -165 -237.5t-271 -81.5zM676 1536h307v-4l-405 -322h-11z" />
    <glyph glyph-name="Cdotaccent" unicode="&#x10a;" horiz-adv-x="1409" 
d="M844 -20q-233 0 -408.5 92t-269.5 259t-94 386q0 166 60 305.5t164 233.5t245.5 146t302.5 52q246 0 463 -111l20 -350h-20q-61 198 -188.5 313t-295.5 115q-135 0 -243.5 -90.5t-169 -251t-60.5 -360.5q0 -320 132.5 -513.5t353.5 -193.5q170 0 302 118t171 310h18v-344
q-238 -116 -483 -116zM809 1589q-59 0 -99 39.5t-40 97.5q0 60 39.5 100t99.5 40q61 0 100 -40t39 -100q0 -58 -39 -97.5t-100 -39.5z" />
    <glyph glyph-name="cdotaccent" unicode="&#x10b;" horiz-adv-x="1009" 
d="M541 -20q-213 0 -345.5 149t-132.5 381q0 139 43.5 256.5t119 198t179 125.5t222.5 45q152 0 239.5 -69t87.5 -157q0 -57 -43.5 -98.5t-124.5 -48.5q-27 159 -75.5 240t-124.5 81q-115 0 -196 -133t-81 -350q0 -205 94 -336t259 -131q200 0 303 172l12 -6
q-50 -156 -165 -237.5t-271 -81.5zM604 1253q-61 0 -101 40t-40 98q0 60 40 99.5t101 39.5q60 0 99.5 -39.5t39.5 -99.5q0 -58 -40 -98t-99 -40z" />
    <glyph glyph-name="Ccaron" unicode="&#x10c;" horiz-adv-x="1409" 
d="M844 -20q-233 0 -408.5 92t-269.5 259t-94 386q0 166 60 305.5t164 233.5t245.5 146t302.5 52q246 0 463 -111l20 -350h-20q-61 198 -188.5 313t-295.5 115q-135 0 -243.5 -90.5t-169 -251t-60.5 -360.5q0 -320 132.5 -513.5t353.5 -193.5q170 0 302 118t171 310h18v-344
q-238 -116 -483 -116zM500 1864l6 6l303 -135l301 135l6 -8l-305 -330h-4z" />
    <glyph glyph-name="ccaron" unicode="&#x10d;" horiz-adv-x="1009" 
d="M541 -20q-213 0 -345.5 149t-132.5 381q0 139 43.5 256.5t119 198t179 125.5t222.5 45q152 0 239.5 -69t87.5 -157q0 -57 -43.5 -98.5t-124.5 -48.5q-27 159 -75.5 240t-124.5 81q-115 0 -196 -133t-81 -350q0 -205 94 -336t259 -131q200 0 303 172l12 -6
q-50 -156 -165 -237.5t-271 -81.5zM293 1544l6 6l305 -135l301 135l6 -8l-305 -330h-4z" />
    <glyph glyph-name="Dcaron" unicode="&#x10e;" horiz-adv-x="1527" 
d="M492 1393v-1352h190q223 0 360.5 185t137.5 491t-137.5 491t-360.5 185h-190zM47 1401v33h627q227 0 404.5 -87t278.5 -251t101 -379t-101 -379t-278.5 -251t-404.5 -87h-627v33l62 8q60 9 90 31t30 80v1130q0 58 -30 80t-90 31zM1030 1870l6 -8l-307 -330h-4l-307 332
l6 6l303 -135z" />
    <glyph glyph-name="dcaron" unicode="&#x10f;" horiz-adv-x="1243" 
d="M602 102q115 0 232 95v831q-104 76 -199 76q-91 0 -162 -68q-73 -68 -112 -193.5t-39 -295.5q0 -445 280 -445zM1163 80l49 2l7 -33l-385 -69v174q-70 -81 -163 -127.5t-196 -46.5q-83 0 -156.5 34t-130 97t-89.5 161.5t-33 219.5q0 303 160 473t425 170q86 0 183 -23
v318l-146 104v4l377 121h4v-1487q0 -58 23 -75t71 -17zM1221 1204h-13v414h222v-16z" />
    <glyph glyph-name="Dcroat" unicode="&#x110;" horiz-adv-x="1529" 
d="M492 696v-655h192q222 0 359 185t137 491t-137 491t-359 185h-192v-656h299v-41h-299zM49 1401v33h627q227 0 404.5 -87t278.5 -251t101 -379t-101 -379t-278.5 -251t-404.5 -87h-627v33l62 8q60 9 89 31t29 80v544h-159v41h159v545q0 58 -29 80t-89 31z" />
    <glyph glyph-name="dcroat" unicode="&#x111;" horiz-adv-x="1234" 
d="M602 102q115 0 232 95v831q-104 76 -199 76q-91 0 -162 -68q-73 -68 -112 -193.5t-39 -295.5q0 -445 280 -445zM1163 80l49 2l7 -33l-385 -69v174q-70 -81 -163 -127.5t-196 -46.5q-83 0 -156.5 34t-130 97t-89.5 161.5t-33 219.5q0 303 160 473t425 170q86 0 183 -23
v193h-283v41h283v84l-146 104v4l377 121h4v-313h143v-41h-143v-1133q0 -58 23 -75t71 -17z" />
    <glyph glyph-name="Emacron" unicode="&#x112;" horiz-adv-x="1275" 
d="M1204 465h23l-66 -465h-1114v33l62 8q60 9 90 31t30 80v1130q0 58 -30 80t-90 31l-62 8v33h1034l68 -443l-23 -6q-27 89 -65 161t-89.5 128.5t-120.5 87.5t-149 31h-217v-641h162q87 0 128 53t65 205h20v-557h-20q-18 154 -58.5 206t-134.5 52h-162v-670h242
q96 0 167.5 20t132 67.5t104 130.5t73.5 206zM338 1640h618v-41h-618v41z" />
    <glyph glyph-name="emacron" unicode="&#x113;" horiz-adv-x="1038" 
d="M571 1100q-102 0 -165.5 -95t-81.5 -251h450q-9 346 -203 346zM983 274l12 -8q-54 -131 -169 -208.5t-257 -77.5q-221 0 -363.5 155.5t-142.5 407.5q0 113 35.5 218.5t99.5 189t163.5 134t218.5 50.5q98 0 175 -33t125 -91t72.5 -133.5t24.5 -164.5h-658q-2 -14 -2 -39
v-41q0 -245 104.5 -376.5t272.5 -131.5q80 0 159 40.5t130 108.5zM260 1305v41h621v-41h-621z" />
    <glyph glyph-name="Edotaccent" unicode="&#x116;" horiz-adv-x="1275" 
d="M1204 465h23l-66 -465h-1114v33l62 8q60 9 90 31t30 80v1130q0 58 -30 80t-90 31l-62 8v33h1034l68 -443l-23 -6q-27 89 -65 161t-89.5 128.5t-120.5 87.5t-149 31h-217v-641h162q87 0 128 53t65 205h20v-557h-20q-18 154 -58.5 206t-134.5 52h-162v-670h242
q96 0 167.5 20t132 67.5t104 130.5t73.5 206zM647 1589q-61 0 -101 39.5t-40 97.5q0 60 40 100t101 40q60 0 99.5 -40t39.5 -100q0 -58 -40 -97.5t-99 -39.5z" />
    <glyph glyph-name="edotaccent" unicode="&#x117;" horiz-adv-x="1038" 
d="M571 1100q-102 0 -165.5 -95t-81.5 -251h450q-9 346 -203 346zM983 274l12 -8q-54 -131 -169 -208.5t-257 -77.5q-221 0 -363.5 155.5t-142.5 407.5q0 113 35.5 218.5t99.5 189t163.5 134t218.5 50.5q98 0 175 -33t125 -91t72.5 -133.5t24.5 -164.5h-658q-2 -14 -2 -39
v-41q0 -245 104.5 -376.5t272.5 -131.5q80 0 159 40.5t130 108.5zM569 1253q-59 0 -99 40t-40 98q0 60 39.5 99.5t99.5 39.5q61 0 101.5 -39.5t40.5 -99.5q0 -58 -40.5 -98t-101.5 -40z" />
    <glyph glyph-name="Eogonek" unicode="&#x118;" horiz-adv-x="1275" 
d="M1092 -336q46 0 92 31l4 -4q-36 -58 -93 -91.5t-122 -33.5q-72 0 -113 35t-41 92q0 70 75 139.5t234 167.5h-1081v33l62 8q60 9 90 31t30 80v1130q0 58 -30 80t-90 31l-62 8v33h1034l68 -443l-23 -6q-27 89 -65 161t-89.5 128.5t-120.5 87.5t-149 31h-217v-641h162
q87 0 128 53t65 205h20v-557h-20q-18 154 -58.5 206t-134.5 52h-162v-670h242q96 0 167.5 20t132 67.5t104 130.5t73.5 206h23l-66 -465q-92 -105 -126 -158t-34 -90q0 -39 24 -63.5t67 -24.5z" />
    <glyph glyph-name="eogonek" unicode="&#x119;" horiz-adv-x="1038" 
d="M571 1100q-102 0 -165.5 -95t-81.5 -251h450q-9 346 -203 346zM844 -336q46 0 94 31l2 -2q-33 -58 -90.5 -92.5t-122.5 -34.5q-71 0 -113.5 35.5t-42.5 93.5q0 68 49.5 140.5t180.5 203.5q-115 -59 -248 -59q-209 0 -349.5 156t-140.5 407q0 113 35.5 218.5t99.5 189
t163.5 134t218.5 50.5q98 0 175 -33t125 -91t72.5 -133.5t24.5 -164.5h-658q-2 -14 -2 -39v-41q0 -245 104.5 -376.5t272.5 -131.5q80 0 159 40.5t130 108.5l12 -8q-17 -47 -60 -118t-81.5 -129t-69 -127t-30.5 -119t24.5 -79.5t65.5 -29.5z" />
    <glyph glyph-name="Ecaron" unicode="&#x11a;" horiz-adv-x="1275" 
d="M1204 465h23l-66 -465h-1114v33l62 8q60 9 90 31t30 80v1130q0 58 -30 80t-90 31l-62 8v33h1034l68 -443l-23 -6q-27 89 -65 161t-89.5 128.5t-120.5 87.5t-149 31h-217v-641h162q87 0 128 53t65 205h20v-557h-20q-18 154 -58.5 206t-134.5 52h-162v-670h242
q96 0 167.5 20t132 67.5t104 130.5t73.5 206zM954 1862l-307 -330h-4l-307 332l6 6l303 -135l303 135z" />
    <glyph glyph-name="ecaron" unicode="&#x11b;" horiz-adv-x="1038" 
d="M571 1100q-102 0 -165.5 -95t-81.5 -251h450q-9 346 -203 346zM983 274l12 -8q-54 -131 -169 -208.5t-257 -77.5q-221 0 -363.5 155.5t-142.5 407.5q0 113 35.5 218.5t99.5 189t163.5 134t218.5 50.5q98 0 175 -33t125 -91t72.5 -133.5t24.5 -164.5h-658q-2 -14 -2 -39
v-41q0 -245 104.5 -376.5t272.5 -131.5q80 0 159 40.5t130 108.5zM872 1550l7 -8l-308 -330h-4l-307 332l6 6l303 -135z" />
    <glyph glyph-name="Gbreve" unicode="&#x11e;" horiz-adv-x="1503" 
d="M911 637v33h580v-33l-55 -8q-53 -9 -81 -31.5t-28 -79.5v-422q-238 -116 -483 -116q-233 0 -408.5 92t-269.5 259t-94 386q0 166 60 305.5t164 233.5t245.5 146t302.5 52q246 0 463 -111l20 -350h-20q-61 198 -188.5 313t-295.5 115q-135 0 -243.5 -90.5t-169 -251
t-60.5 -360.5q0 -320 132.5 -513.5t353.5 -193.5q141 0 258 90v416q0 58 -30.5 80t-90.5 31zM813 1540q-122 0 -201 86.5t-90 224.5h6q64 -149 285 -149q216 0 285 153h6q-6 -139 -84.5 -227t-206.5 -88z" />
    <glyph glyph-name="gbreve" unicode="&#x11f;" horiz-adv-x="1079" 
d="M530 1106q-94 0 -148 -74.5t-54 -218.5q0 -145 54.5 -223t147.5 -78t146 77.5t53 223.5q0 144 -53 218.5t-146 74.5zM502 -348q175 0 285 76.5t110 189.5q0 141 -192 141h-332q-41 0 -88 9q-107 -64 -107 -185q0 -106 87.5 -168.5t236.5 -62.5zM395 285h336
q158 0 239 -65.5t81 -188.5q0 -180 -166.5 -300t-427.5 -120q-204 0 -335.5 65t-131.5 181q0 159 256 221q-76 23 -119 73t-43 115q0 77 59.5 144t165.5 112q-96 39 -151.5 114t-55.5 175q0 150 119.5 237t308.5 87q85 0 172 -23q36 100 90.5 163.5t141.5 63.5
q52 0 83.5 -29t31.5 -73q0 -68 -50 -115q-112 64 -163 64q-61 0 -107 -82q107 -36 167 -110.5t60 -180.5q0 -154 -118.5 -242t-307.5 -88q-95 0 -188 27q-60 -30 -89.5 -68t-29.5 -73q0 -84 172 -84zM555 1241q-122 0 -201 86.5t-90 224.5h6q64 -149 285 -149q216 0 285 153
h6q-6 -139 -84.5 -227t-206.5 -88z" />
    <glyph glyph-name="Gdotaccent" unicode="&#x120;" horiz-adv-x="1503" 
d="M911 637v33h580v-33l-55 -8q-53 -9 -81 -31.5t-28 -79.5v-422q-238 -116 -483 -116q-233 0 -408.5 92t-269.5 259t-94 386q0 166 60 305.5t164 233.5t245.5 146t302.5 52q246 0 463 -111l20 -350h-20q-61 198 -188.5 313t-295.5 115q-135 0 -243.5 -90.5t-169 -251
t-60.5 -360.5q0 -320 132.5 -513.5t353.5 -193.5q141 0 258 90v416q0 58 -30.5 80t-90.5 31zM815 1589q-61 0 -101 39.5t-40 97.5q0 60 40 100t101 40q60 0 99.5 -40t39.5 -100q0 -58 -40 -97.5t-99 -39.5z" />
    <glyph glyph-name="gdotaccent" unicode="&#x121;" horiz-adv-x="1079" 
d="M530 1106q-94 0 -148 -74.5t-54 -218.5q0 -145 54.5 -223t147.5 -78t146 77.5t53 223.5q0 144 -53 218.5t-146 74.5zM502 -348q175 0 285 76.5t110 189.5q0 141 -192 141h-332q-41 0 -88 9q-107 -64 -107 -185q0 -106 87.5 -168.5t236.5 -62.5zM395 285h336
q158 0 239 -65.5t81 -188.5q0 -180 -166.5 -300t-427.5 -120q-204 0 -335.5 65t-131.5 181q0 159 256 221q-76 23 -119 73t-43 115q0 77 59.5 144t165.5 112q-96 39 -151.5 114t-55.5 175q0 150 119.5 237t308.5 87q85 0 172 -23q36 100 90.5 163.5t141.5 63.5
q52 0 83.5 -29t31.5 -73q0 -68 -50 -115q-112 64 -163 64q-61 0 -107 -82q107 -36 167 -110.5t60 -180.5q0 -154 -118.5 -242t-307.5 -88q-95 0 -188 27q-60 -30 -89.5 -68t-29.5 -73q0 -84 172 -84zM539 1253q-61 0 -101.5 40t-40.5 98q0 60 40.5 99.5t101.5 39.5
q60 0 99.5 -39.5t39.5 -99.5q0 -58 -40 -98t-99 -40z" />
    <glyph glyph-name="uni0122" unicode="&#x122;" horiz-adv-x="1503" 
d="M911 637v33h580v-33l-55 -8q-53 -9 -81 -31.5t-28 -79.5v-422q-238 -116 -483 -116q-233 0 -408.5 92t-269.5 259t-94 386q0 166 60 305.5t164 233.5t245.5 146t302.5 52q246 0 463 -111l20 -350h-20q-61 198 -188.5 313t-295.5 115q-135 0 -243.5 -90.5t-169 -251
t-60.5 -360.5q0 -320 132.5 -513.5t353.5 -193.5q141 0 258 90v416q0 58 -30.5 80t-90.5 31zM764 -115q61 0 100 -43.5t39 -109.5q0 -96 -68.5 -161t-197.5 -95l-6 16q67 21 99 62.5t26.5 82t-39.5 74.5t-88 41q0 58 41 95.5t94 37.5z" />
    <glyph glyph-name="uni0123" unicode="&#x123;" horiz-adv-x="1079" 
d="M530 1106q-94 0 -148 -74.5t-54 -218.5q0 -145 54.5 -223t147.5 -78t146 77.5t53 223.5q0 144 -53 218.5t-146 74.5zM502 -348q175 0 285 76.5t110 189.5q0 141 -192 141h-332q-41 0 -88 9q-107 -64 -107 -185q0 -106 87.5 -168.5t236.5 -62.5zM395 285h336
q158 0 239 -65.5t81 -188.5q0 -180 -166.5 -300t-427.5 -120q-204 0 -335.5 65t-131.5 181q0 159 256 221q-76 23 -119 73t-43 115q0 77 59.5 144t165.5 112q-96 39 -151.5 114t-55.5 175q0 150 119.5 237t308.5 87q85 0 172 -23q36 100 90.5 163.5t141.5 63.5
q52 0 83.5 -29t31.5 -73q0 -68 -50 -115q-112 64 -163 64q-61 0 -107 -82q107 -36 167 -110.5t60 -180.5q0 -154 -118.5 -242t-307.5 -88q-95 0 -188 27q-60 -30 -89.5 -68t-29.5 -73q0 -84 172 -84zM553 1233q-61 0 -100 43.5t-39 109.5q0 95 69.5 160.5t196.5 95.5l6 -16
q-64 -20 -95.5 -55t-31.5 -78q0 -45 35 -81t94 -46q0 -56 -40 -94.5t-95 -38.5z" />
    <glyph glyph-name="Hbar" unicode="&#x126;" horiz-adv-x="1632" 
d="M485 1044v-278h660v278h-660zM1585 1434v-33l-61 -8q-60 -9 -89.5 -31t-29.5 -80v-197h164v-41h-164v-892q0 -58 29.5 -80t89.5 -31l61 -8v-33h-620v33l61 8q60 9 89.5 31t29.5 80v573h-660v-573q0 -58 29.5 -80t89.5 -31l62 -8v-33h-619v33l62 8q60 9 90 31t30 80v892
h-161v41h161v197q0 58 -30 80t-90 31l-62 8v33h619v-33l-62 -8q-60 -9 -89.5 -31t-29.5 -80v-197h660v197q0 58 -29.5 80t-89.5 31l-61 8v33h620z" />
    <glyph glyph-name="hbar" unicode="&#x127;" horiz-adv-x="1257" 
d="M1190 41l49 -8v-33h-516v33l47 8q43 9 64.5 31t21.5 80v636q0 104 -49.5 164t-140.5 60q-69 0 -136 -34t-120 -99v-727q0 -58 21.5 -80t64.5 -31l47 -8v-33h-516v33l49 8q48 9 72 31t24 80v1153h-143v41h143v84l-145 104v4l379 121h4v-313h280v-41h-280v-375
q67 98 161 151.5t205 53.5q155 0 236.5 -95t81.5 -260v-628q0 -58 24 -80t72 -31z" />
    <glyph glyph-name="Itilde" unicode="&#x128;" horiz-adv-x="714" 
d="M154 1653q-70 0 -113 -84l-12 2q22 106 72 171.5t124 65.5q42 0 90.5 -21t84.5 -46.5t80.5 -46.5t78.5 -21q40 0 66.5 22.5t46.5 67.5l12 -2q-18 -104 -71.5 -171.5t-129.5 -67.5q-44 0 -93 20.5t-84 45t-77.5 45t-74.5 20.5zM666 0h-619v33l62 8q60 9 90 31t30 80v1130
q0 58 -30 80t-90 31l-62 8v33h619v-33l-62 -8q-60 -9 -89.5 -31t-29.5 -80v-1130q0 -58 29.5 -80t89.5 -31l62 -8v-33z" />
    <glyph glyph-name="itilde" unicode="&#x129;" horiz-adv-x="589" 
d="M563 0h-526v33l49 8q48 9 72 31t24 80v753l-145 105v4l377 121h4v-983q0 -58 24 -80t72 -31l49 -8v-33zM422 1243q-44 0 -92.5 20.5t-84 45t-77.5 45t-74 20.5q-73 0 -112 -84l-15 2q25 108 74.5 173t124.5 65q42 0 89.5 -21t83.5 -46.5t80.5 -46.5t80.5 -21
q40 0 66 22.5t46 67.5l13 -2q-20 -105 -72.5 -172.5t-130.5 -67.5z" />
    <glyph glyph-name="Imacron" unicode="&#x12a;" horiz-adv-x="714" 
d="M666 0h-619v33l62 8q60 9 90 31t30 80v1130q0 58 -30 80t-90 31l-62 8v33h619v-33l-62 -8q-60 -9 -89.5 -31t-29.5 -80v-1130q0 -58 29.5 -80t89.5 -31l62 -8v-33zM670 1599h-621v41h621v-41z" />
    <glyph glyph-name="imacron" unicode="&#x12b;" horiz-adv-x="589" 
d="M563 0h-526v33l49 8q48 9 72 31t24 80v753l-145 105v4l377 121h4v-983q0 -58 24 -80t72 -31l49 -8v-33zM610 1305h-618v41h618v-41z" />
    <glyph glyph-name="Iogonek" unicode="&#x12e;" horiz-adv-x="714" 
d="M666 1401l-62 -8q-60 -9 -89.5 -31t-29.5 -80v-1130q0 -58 29.5 -80t89.5 -31l62 -8v-33h-191q-93 -105 -127.5 -158t-34.5 -90q0 -39 23.5 -63.5t66.5 -24.5q45 0 93 31l4 -4q-32 -57 -89.5 -91t-123.5 -34q-72 0 -113 35t-41 92q0 70 74.5 139.5t232.5 167.5h-393v33
l62 8q60 9 90 31t30 80v1130q0 58 -30 80t-90 31l-62 8v33h619v-33z" />
    <glyph glyph-name="iogonek" unicode="&#x12f;" horiz-adv-x="589" 
d="M563 33v-33h-147q-92 -105 -126 -158t-34 -90q0 -40 22.5 -64t65.5 -24q48 0 94 31l2 -4q-32 -57 -89.5 -91t-123.5 -34q-72 0 -112.5 35t-40.5 92q0 70 75 139.5t234 167.5h-346v33l49 8q48 9 72 31t24 80v753l-145 105v4l377 121h4v-983q0 -58 24 -80t72 -31zM301 1253
q-61 0 -101 40t-40 98q0 60 40 99.5t101 39.5q60 0 99.5 -39.5t39.5 -99.5q0 -58 -40 -98t-99 -40z" />
    <glyph glyph-name="Idotaccent" unicode="&#x130;" horiz-adv-x="714" 
d="M666 0h-619v33l62 8q60 9 90 31t30 80v1130q0 58 -30 80t-90 31l-62 8v33h619v-33l-62 -8q-60 -9 -89.5 -31t-29.5 -80v-1130q0 -58 29.5 -80t89.5 -31l62 -8v-33zM358 1589q-60 0 -99.5 39.5t-39.5 97.5q0 60 39.5 100t99.5 40q61 0 101.5 -40t40.5 -100
q0 -58 -40.5 -97.5t-101.5 -39.5z" />
    <glyph glyph-name="dotlessi" unicode="&#x131;" horiz-adv-x="589" 
d="M563 0h-526v33l49 8q48 9 72 31t24 80v753l-145 105v4l377 121h4v-983q0 -58 24 -80t72 -31l49 -8v-33z" />
    <glyph glyph-name="uni0136" unicode="&#x136;" horiz-adv-x="1466" 
d="M604 41l62 -8v-33h-619v33l62 8q60 9 90 31t30 80v1130q0 58 -30 80t-90 31l-62 8v33h619v-33l-62 -8q-60 -9 -89.5 -31t-29.5 -80v-1130q0 -58 29.5 -80t89.5 -31zM1194 1313l-406 -432l672 -869v-12h-313l-559 741l549 574q60 63 -70 78l-74 8v33h459v-33l-59 -8
q-153 -25 -199 -80zM795 -115q61 0 100 -43.5t39 -109.5q0 -96 -68.5 -161t-197.5 -95l-6 16q67 21 98.5 62.5t26.5 82t-39.5 74.5t-88.5 41q0 58 41.5 95.5t94.5 37.5z" />
    <glyph glyph-name="uni0137" unicode="&#x137;" horiz-adv-x="1157" 
d="M504 41l49 -8v-33h-526v33l49 8q48 9 72 31t24 80v1278l-145 104v4l379 121h4v-1507q0 -58 23 -80t71 -31zM922 979l-260 -256l524 -711v-12h-287l-428 602l410 395q37 35 29.5 52t-66.5 24l-62 8v33h359v-33l-39 -8q-109 -23 -180 -94zM659 -115q61 0 101.5 -43.5
t40.5 -109.5q0 -96 -70 -161t-199 -95l-6 16q67 21 99 62.5t27.5 82t-38.5 74.5t-88 41q0 58 40 95.5t93 37.5z" />
    <glyph glyph-name="Lacute" unicode="&#x139;" horiz-adv-x="1202" 
d="M1153 481l23 -4l-66 -477h-1063v33l62 8q60 9 90 31t30 80v1130q0 58 -30 80t-90 31l-62 8v33h619v-33l-62 -8q-60 -9 -89.5 -31t-29.5 -80v-1241h260q161 0 255 107t153 333zM731 1849v-4l-405 -321h-11l109 325h307z" />
    <glyph glyph-name="lacute" unicode="&#x13a;" horiz-adv-x="581" 
d="M553 0h-526v33l49 8q48 9 72 31t24 80v1278l-145 104v4l379 121h4v-1507q0 -58 23 -80t71 -31l49 -8v-33zM362 2034h308v-4l-406 -322h-10z" />
    <glyph glyph-name="uni013B" unicode="&#x13b;" horiz-adv-x="1202" 
d="M1153 481l23 -4l-66 -477h-1063v33l62 8q60 9 90 31t30 80v1130q0 58 -30 80t-90 31l-62 8v33h619v-33l-62 -8q-60 -9 -89.5 -31t-29.5 -80v-1241h260q161 0 255 107t153 333zM596 -115q62 0 101.5 -43t39.5 -110q0 -96 -68.5 -161t-197.5 -95l-6 16q67 21 99 62.5
t26.5 82t-39.5 74.5t-88 41q0 58 40 95.5t93 37.5z" />
    <glyph glyph-name="uni013C" unicode="&#x13c;" horiz-adv-x="581" 
d="M553 0h-526v33l49 8q48 9 72 31t24 80v1278l-145 104v4l379 121h4v-1507q0 -58 23 -80t71 -31l49 -8v-33zM287 -115q61 0 101 -43.5t40 -109.5q0 -96 -68.5 -161t-197.5 -95l-8 16q67 21 99 62.5t27.5 82t-38.5 74.5t-88 41q0 58 40 95.5t93 37.5z" />
    <glyph glyph-name="Lcaron" unicode="&#x13d;" horiz-adv-x="1204" 
d="M1153 481l23 -4l-66 -477h-1063v33l62 8q60 9 90 31t30 80v1130q0 58 -30 80t-90 31l-62 8v33h619v-33l-62 -8q-60 -9 -89.5 -31t-29.5 -80v-1241h260q161 0 255 107t153 333zM1038 1434v-17l-209 -397h-12v414h221z" />
    <glyph glyph-name="lcaron" unicode="&#x13e;" horiz-adv-x="581" 
d="M553 0h-526v33l49 8q48 9 72 31t24 80v1278l-145 104v4l379 121h4v-1507q0 -58 23 -80t71 -31l49 -8v-33zM561 1204h-12v414h221v-16z" />
    <glyph glyph-name="Lslash" unicode="&#x141;" horiz-adv-x="1218" 
d="M1169 481l21 -4l-66 -477h-1061v33l62 8q60 9 89.5 31t29.5 80v346l-168 -86l-19 37l187 96v737q0 58 -29.5 80t-89.5 31l-62 8v33h619v-33l-61 -8q-60 -9 -89.5 -31t-29.5 -80v-604l346 178l18 -41l-364 -186v-588h258q164 0 256.5 106.5t152.5 333.5z" />
    <glyph glyph-name="lslash" unicode="&#x142;" horiz-adv-x="665" 
d="M459 823v-671q0 -58 24 -80t72 -31l49 -8v-33h-526v33l49 8q48 9 72 31t24 80v516l-192 -127l-25 34l217 146v709l-145 104v4l377 121h4v-778l178 118l25 -41z" />
    <glyph glyph-name="Nacute" unicode="&#x143;" horiz-adv-x="1533" 
d="M1061 1401v33h444v-33l-65 -8q-66 -9 -98.5 -31t-32.5 -80v-1282h-189l-839 1255v-1103q0 -58 33 -80t98 -31l67 -8v-33h-444v33l65 8q66 9 98.5 31t32.5 80v1130q0 58 -28 80t-86 31l-60 8v33h404l799 -1155v1003q0 57 -33 79.5t-99 31.5zM1178 1849v-4l-406 -321h-10
l108 325h308z" />
    <glyph glyph-name="nacute" unicode="&#x144;" horiz-adv-x="1267" 
d="M1200 41l49 -8v-33h-516v33l45 8q45 9 66.5 31t21.5 80v636q0 104 -49.5 164t-140.5 60q-70 0 -137.5 -35t-120.5 -100v-725q0 -57 22 -79.5t66 -31.5l47 -8v-33h-516v33l49 8q48 9 72 31t24 80v753l-145 105v4l377 121h4v-205q67 98 162 151.5t206 53.5
q153 0 235.5 -95.5t82.5 -259.5v-628q0 -58 24 -80t72 -31zM1004 1536v-4l-406 -322h-10l108 326h308z" />
    <glyph glyph-name="uni0145" unicode="&#x145;" horiz-adv-x="1533" 
d="M1061 1401v33h444v-33l-65 -8q-66 -9 -98.5 -31t-32.5 -80v-1282h-189l-839 1255v-1103q0 -58 33 -80t98 -31l67 -8v-33h-444v33l65 8q66 9 98.5 31t32.5 80v1130q0 58 -28 80t-86 31l-60 8v33h404l799 -1155v1003q0 57 -33 79.5t-99 31.5zM786 -115q61 0 101.5 -43.5
t40.5 -109.5q0 -96 -70 -161t-199 -95l-6 16q67 21 99 62.5t27.5 82t-38.5 74.5t-88 41q0 58 40 95.5t93 37.5z" />
    <glyph glyph-name="uni0146" unicode="&#x146;" horiz-adv-x="1267" 
d="M1200 41l49 -8v-33h-516v33l45 8q45 9 66.5 31t21.5 80v636q0 104 -49.5 164t-140.5 60q-70 0 -137.5 -35t-120.5 -100v-725q0 -57 22 -79.5t66 -31.5l47 -8v-33h-516v33l49 8q48 9 72 31t24 80v753l-145 105v4l377 121h4v-205q67 98 162 151.5t206 53.5
q153 0 235.5 -95.5t82.5 -259.5v-628q0 -58 24 -80t72 -31zM621 -115q61 0 101 -43.5t40 -109.5q0 -96 -69.5 -161t-198.5 -95l-7 16q67 21 99 62.5t27.5 82t-38.5 74.5t-88 41q0 58 40.5 95.5t93.5 37.5z" />
    <glyph glyph-name="Ncaron" unicode="&#x147;" horiz-adv-x="1533" 
d="M1061 1401v33h444v-33l-65 -8q-66 -9 -98.5 -31t-32.5 -80v-1282h-189l-839 1255v-1103q0 -58 33 -80t98 -31l67 -8v-33h-444v33l65 8q66 9 98.5 31t32.5 80v1130q0 58 -28 80t-86 31l-60 8v33h404l799 -1155v1003q0 57 -33 79.5t-99 31.5zM1106 1862l-305 -330h-4
l-310 332l7 6l305 -135l301 135z" />
    <glyph glyph-name="ncaron" unicode="&#x148;" horiz-adv-x="1267" 
d="M1200 41l49 -8v-33h-516v33l45 8q45 9 66.5 31t21.5 80v636q0 104 -49.5 164t-140.5 60q-70 0 -137.5 -35t-120.5 -100v-725q0 -57 22 -79.5t66 -31.5l47 -8v-33h-516v33l49 8q48 9 72 31t24 80v753l-145 105v4l377 121h4v-205q67 98 162 151.5t206 53.5
q153 0 235.5 -95.5t82.5 -259.5v-628q0 -58 24 -80t72 -31zM932 1542l-305 -330h-4l-310 332l6 6l306 -135l301 135z" />
    <glyph glyph-name="Eng" unicode="&#x14a;" horiz-adv-x="1533" 
d="M1061 1401v33h444v-33l-65 -8q-66 -9 -98.5 -31t-32.5 -80v-1110q0 -174 -70 -299q-69 -122 -180 -190t-232 -68q-92 0 -137 37t-45 88q0 39 24 74t62 47q28 -73 97.5 -119.5t140.5 -46.5q66 0 112.5 52.5t46.5 137.5q0 107 -73 213l-774 1159v-1105q0 -58 33 -80t98 -31
l67 -8v-33h-444v33l65 8q66 9 98.5 31t32.5 80v1130q0 58 -28 80t-86 31l-60 8v33h404l799 -1158v1006q0 57 -33 79.5t-99 31.5z" />
    <glyph glyph-name="eng" unicode="&#x14b;" horiz-adv-x="1222" 
d="M784 1135q155 0 237.5 -95t82.5 -260v-602q0 -78 -41 -177.5t-104 -185.5t-147.5 -145t-162.5 -59q-74 0 -112.5 40.5t-29.5 101.5t64 116q108 -156 195 -156q51 0 75.5 50t24.5 178v847q0 104 -49.5 164t-140.5 60q-70 0 -137.5 -34t-120.5 -99v-727q0 -57 22 -79.5
t66 -31.5l47 -8v-33h-516v33l49 8q48 9 72 31t24 80v753l-145 105v4l377 121h4v-207q67 99 161 153t205 54z" />
    <glyph glyph-name="Omacron" unicode="&#x14c;" horiz-adv-x="1507" 
d="M754 12q189 0 297 182.5t108 522.5t-108 522t-297 182q-188 0 -297 -182t-109 -522t109 -522.5t297 -182.5zM754 1454q156 0 286.5 -59t216 -160t132.5 -234.5t47 -283.5t-47.5 -283.5t-133 -234.5t-215.5 -160t-286 -59q-203 0 -360 99.5t-239.5 266.5t-82.5 371
q0 149 47.5 282.5t133.5 234.5t216 160.5t285 59.5zM1065 1640v-41h-621v41h621z" />
    <glyph glyph-name="omacron" unicode="&#x14d;" horiz-adv-x="1179" 
d="M588 1135q230 0 378 -162t148 -414t-148 -415.5t-378 -163.5q-112 0 -209.5 43.5t-167 119.5t-109 184t-39.5 232q0 251 148.5 413.5t376.5 162.5zM588 12q127 0 195.5 142t68.5 405q0 260 -68.5 401.5t-195.5 141.5q-124 0 -192 -141.5t-68 -401.5q0 -262 67.5 -404.5
t192.5 -142.5zM901 1305h-620v41h620v-41z" />
    <glyph glyph-name="Ohungarumlaut" unicode="&#x150;" horiz-adv-x="1507" 
d="M754 12q189 0 297 182.5t108 522.5t-108 522t-297 182q-188 0 -297 -182t-109 -522t109 -522.5t297 -182.5zM754 1454q156 0 286.5 -59t216 -160t132.5 -234.5t47 -283.5t-47.5 -283.5t-133 -234.5t-215.5 -160t-286 -59q-203 0 -360 99.5t-239.5 266.5t-82.5 371
q0 149 47.5 282.5t133.5 234.5t216 160.5t285 59.5zM952 1843l-352 -321h-10l104 325h258v-4zM1255 1843l-352 -321h-10l104 325h258v-4z" />
    <glyph glyph-name="ohungarumlaut" unicode="&#x151;" horiz-adv-x="1179" 
d="M588 12q127 0 195.5 142t68.5 405q0 260 -68.5 401.5t-195.5 141.5q-124 0 -192 -141.5t-68 -401.5q0 -262 67.5 -404.5t192.5 -142.5zM588 1135q230 0 378 -162t148 -414t-148 -415.5t-378 -163.5q-112 0 -209.5 43.5t-167 119.5t-109 184t-39.5 232q0 251 148.5 413.5
t376.5 162.5zM788 1532l-352 -322h-10l104 326h258v-4zM1092 1532l-353 -322h-10l105 326h258v-4z" />
    <glyph glyph-name="OE" unicode="&#x152;" horiz-adv-x="2064" 
d="M1018 203v1028q0 94 -48 127t-182 33q-215 0 -325.5 -180t-110.5 -494t110.5 -494t325.5 -180q134 0 182 33t48 127zM1993 465h24l-65 -465h-1180q-203 0 -362.5 89t-248.5 252.5t-89 375.5t89 375.5t248.5 252.5t362.5 89h1098l67 -443l-20 -6q-132 408 -426 408h-217
v-641h164q84 0 124.5 53t67.5 205h21v-557h-21q-18 154 -58 206t-134 52h-164v-670h244q102 0 176 19.5t134.5 67.5t100 131t64.5 206z" />
    <glyph glyph-name="oe" unicode="&#x153;" horiz-adv-x="1841" 
d="M588 12q127 0 195.5 142t68.5 405q0 260 -68.5 401.5t-195.5 141.5q-124 0 -192 -141.5t-68 -401.5q0 -262 67.5 -404.5t192.5 -142.5zM1376 1100q-105 0 -168.5 -94.5t-81.5 -251.5h451q-6 346 -201 346zM1786 274l12 -8q-54 -131 -169 -208.5t-257 -77.5
q-118 0 -218.5 48t-168.5 136q-70 -87 -172.5 -135.5t-224.5 -48.5q-112 0 -209.5 43.5t-167 119.5t-109 184t-39.5 232q0 251 148.5 413.5t376.5 162.5q126 0 230.5 -51.5t174.5 -145.5q70 93 171 145t218 52q98 0 175.5 -33t125.5 -91t72.5 -133.5t24.5 -164.5h-658
q-2 -14 -2 -39v-41q0 -245 104.5 -376.5t272.5 -131.5q82 0 160 40t129 109z" />
    <glyph glyph-name="Racute" unicode="&#x154;" horiz-adv-x="1406" 
d="M627 1393h-142v-736h156q163 0 250.5 99t87.5 272q0 177 -91 271t-261 94zM924 653l510 -641v-12h-293l-463 616h-193v-464q0 -58 29.5 -80t89.5 -31l62 -8v-33h-619v33l62 8q60 9 90 31t30 80v1130q0 58 -30 80t-90 31l-62 8v33h580q288 0 454 -106t166 -288
q0 -130 -84.5 -233.5t-238.5 -153.5zM743 1849h308v-4l-406 -321h-10z" />
    <glyph glyph-name="racute" unicode="&#x155;" horiz-adv-x="864" 
d="M725 1133q67 0 100 -33t33 -82q0 -38 -16 -73.5t-43 -59.5q-138 78 -207 78q-49 0 -95.5 -73.5t-78.5 -189.5v-548q0 -58 34 -80t101 -31l68 -8v-33h-584v33l49 8q48 9 72 31t24 80v753l-145 105v4l377 121h4v-330q111 328 307 328zM813 1536v-4l-405 -322h-9l107 326
h307z" />
    <glyph glyph-name="uni0156" unicode="&#x156;" horiz-adv-x="1406" 
d="M627 1393h-142v-736h156q163 0 250.5 99t87.5 272q0 177 -91 271t-261 94zM924 653l510 -641v-12h-293l-463 616h-193v-464q0 -58 29.5 -80t89.5 -31l62 -8v-33h-619v33l62 8q60 9 90 31t30 80v1130q0 58 -30 80t-90 31l-62 8v33h580q288 0 454 -106t166 -288
q0 -130 -84.5 -233.5t-238.5 -153.5zM782 -115q61 0 101.5 -43.5t40.5 -109.5q0 -96 -69 -161t-198 -95l-8 16q67 21 99 62.5t27.5 82t-38.5 74.5t-88 41q0 58 40 95.5t93 37.5z" />
    <glyph glyph-name="uni0157" unicode="&#x157;" horiz-adv-x="864" 
d="M725 1133q67 0 100 -33t33 -82q0 -38 -16 -73.5t-43 -59.5q-138 78 -207 78q-49 0 -95.5 -73.5t-78.5 -189.5v-548q0 -58 34 -80t101 -31l68 -8v-33h-584v33l49 8q48 9 72 31t24 80v753l-145 105v4l377 121h4v-330q111 328 307 328zM297 -115q61 0 101 -43.5t40 -109.5
q0 -96 -69.5 -161t-198.5 -95l-6 16q67 21 99 62.5t27.5 82t-38.5 74.5t-88 41q0 58 40 95.5t93 37.5z" />
    <glyph glyph-name="Rcaron" unicode="&#x158;" horiz-adv-x="1406" 
d="M627 1393h-142v-736h156q163 0 250.5 99t87.5 272q0 177 -91 271t-261 94zM924 653l510 -641v-12h-293l-463 616h-193v-464q0 -58 29.5 -80t89.5 -31l62 -8v-33h-619v33l62 8q60 9 90 31t30 80v1130q0 58 -30 80t-90 31l-62 8v33h580q288 0 454 -106t166 -288
q0 -130 -84.5 -233.5t-238.5 -153.5zM973 1870l6 -8l-305 -330h-4l-308 332l7 6l303 -135z" />
    <glyph glyph-name="rcaron" unicode="&#x159;" horiz-adv-x="864" 
d="M725 1133q67 0 100 -33t33 -82q0 -38 -16 -73.5t-43 -59.5q-138 78 -207 78q-49 0 -95.5 -73.5t-78.5 -189.5v-548q0 -58 34 -80t101 -31l68 -8v-33h-584v33l49 8q48 9 72 31t24 80v753l-145 105v4l377 121h4v-330q111 328 307 328zM743 1542l-307 -330h-4l-307 332l6 6
l303 -135l303 135z" />
    <glyph glyph-name="Sacute" unicode="&#x15a;" horiz-adv-x="1138" 
d="M555 -20q-113 0 -234 30t-206 84l-39 328h20q80 -173 220 -291.5t286 -118.5q121 0 196.5 77t75.5 200q0 67 -26.5 119t-71 86.5t-102 62t-121.5 50t-128 46.5t-121.5 56t-102 73t-71 103.5t-26.5 142.5q0 188 144 307t362 119q203 0 369 -84l22 -330h-20
q-144 381 -408 381q-124 0 -202 -72.5t-78 -183.5q0 -80 39.5 -133.5t113.5 -91.5q47 -24 124 -52.5t138.5 -49t131 -57t116.5 -78.5t78 -111.5t31 -157.5q0 -201 -145 -327.5t-365 -126.5zM655 1849h308v-4l-406 -321h-10z" />
    <glyph glyph-name="sacute" unicode="&#x15b;" horiz-adv-x="942" 
d="M455 -20q-95 0 -196.5 31t-176.5 89l-4 283h20q57 -158 167 -259t239 -101q86 0 142 57.5t56 148.5q0 50 -25.5 89.5t-67.5 64.5t-96 50t-110 45t-110 50t-96 64t-67.5 88t-25.5 121q0 148 116.5 241t291.5 93q164 0 299 -72l2 -291h-20q-56 161 -140 242.5t-186 81.5
q-81 0 -133.5 -52.5t-52.5 -132.5q0 -43 20 -77.5t54.5 -58t79 -44t93 -39t97.5 -39t93.5 -48t79 -62t54.5 -85.5t20 -114q0 -159 -117.5 -261.5t-299.5 -102.5zM559 1536h307v-4l-405 -322h-8z" />
    <glyph glyph-name="Scedilla" unicode="&#x15e;" horiz-adv-x="1138" 
d="M1065 434q0 -200 -142.5 -325.5t-363.5 -128.5l-35 -64q96 -26 149.5 -68t53.5 -114q0 -59 -40 -103.5t-109 -70.5q-122 -49 -273 -45l-18 75q98 -28 155 -28q67 0 106.5 28t39.5 78q0 94 -195 131l109 183q-104 6 -208 35t-179 77l-39 328h20q80 -173 220 -291.5
t286 -118.5q121 0 196.5 77t75.5 200q0 67 -26.5 119t-71 86.5t-102 62t-121.5 50t-128 46.5t-121.5 56t-102 73t-71 103.5t-26.5 142.5q0 188 144 307t362 119q203 0 369 -84l22 -330h-20q-144 381 -408 381q-124 0 -202 -72.5t-78 -183.5q0 -80 39.5 -133.5t113.5 -91.5
q47 -24 124 -52.5t138.5 -49t131 -57t116.5 -78.5t78 -111.5t31 -157.5z" />
    <glyph glyph-name="scedilla" unicode="&#x15f;" horiz-adv-x="942" 
d="M872 344q0 -158 -113 -258t-290 -106l-35 -64q96 -26 148.5 -68t52.5 -114q0 -59 -39.5 -103.5t-108.5 -70.5q-122 -49 -272 -45l-18 75q95 -28 153 -28q67 0 107.5 28t40.5 78q0 93 -195 131l109 183q-84 6 -173.5 37t-156.5 81l-4 283h20q57 -158 167 -259t239 -101
q86 0 142 57.5t56 148.5q0 50 -25.5 89.5t-67.5 64.5t-96 50t-110 45t-110 50t-96 64t-67.5 88t-25.5 121q0 148 116.5 241t291.5 93q164 0 299 -72l2 -291h-20q-56 161 -140 242.5t-186 81.5q-81 0 -133.5 -52.5t-52.5 -132.5q0 -43 20 -77.5t54.5 -58t79 -44t93 -39
t97.5 -39t93.5 -48t79 -62t54.5 -85.5t20 -114z" />
    <glyph glyph-name="Scaron" unicode="&#x160;" horiz-adv-x="1138" 
d="M555 -20q-113 0 -234 30t-206 84l-39 328h20q80 -173 220 -291.5t286 -118.5q121 0 196.5 77t75.5 200q0 67 -26.5 119t-71 86.5t-102 62t-121.5 50t-128 46.5t-121.5 56t-102 73t-71 103.5t-26.5 142.5q0 188 144 307t362 119q203 0 369 -84l22 -330h-20
q-144 381 -408 381q-124 0 -202 -72.5t-78 -183.5q0 -80 39.5 -133.5t113.5 -91.5q47 -24 124 -52.5t138.5 -49t131 -57t116.5 -78.5t78 -111.5t31 -157.5q0 -201 -145 -327.5t-365 -126.5zM274 1864l7 6l303 -135l301 135l6 -8l-305 -330h-4z" />
    <glyph glyph-name="scaron" unicode="&#x161;" horiz-adv-x="942" 
d="M455 -20q-95 0 -196.5 31t-176.5 89l-4 283h20q57 -158 167 -259t239 -101q86 0 142 57.5t56 148.5q0 50 -25.5 89.5t-67.5 64.5t-96 50t-110 45t-110 50t-96 64t-67.5 88t-25.5 121q0 148 116.5 241t291.5 93q164 0 299 -72l2 -291h-20q-56 161 -140 242.5t-186 81.5
q-81 0 -133.5 -52.5t-52.5 -132.5q0 -43 20 -77.5t54.5 -58t79 -44t93 -39t97.5 -39t93.5 -48t79 -62t54.5 -85.5t20 -114q0 -159 -117.5 -261.5t-299.5 -102.5zM178 1544l6 6l303 -135l304 135l6 -8l-308 -330h-4z" />
    <glyph glyph-name="uni0162" unicode="&#x162;" horiz-adv-x="1378" 
d="M96 1434h1186l66 -459l-23 -2q-136 420 -405 420h-101v-1241q0 -58 42 -80t126 -31l84 -8v-33h-348l-45 -84q96 -26 149.5 -68t53.5 -114q0 -59 -40.5 -103.5t-109.5 -70.5q-122 -49 -272 -45l-19 75q98 -28 156 -28q67 0 106 28t39 78q0 94 -194 131l121 201h-361v33
l86 8q84 9 126 31t42 80v1241h-102q-272 0 -406 -420l-22 2z" />
    <glyph glyph-name="uni0163" unicode="&#x163;" horiz-adv-x="704" 
d="M444 -20h-18q-14 0 -20 2l-35 -66q96 -26 149 -68t53 -114q0 -59 -40 -103.5t-109 -70.5q-122 -49 -272 -45l-19 75q98 -28 156 -28q67 0 106 28t39 78q0 94 -194 131l114 191q-184 50 -184 282v801h-172v21l383 239h27v-219h268v-41h-268v-807q0 -87 40.5 -125.5
t104.5 -38.5q86 0 152 35l8 -12q-46 -66 -116.5 -105.5t-152.5 -39.5z" />
    <glyph glyph-name="Tcaron" unicode="&#x164;" horiz-adv-x="1378" 
d="M96 1434h1186l66 -459l-23 -2q-136 420 -405 420h-101v-1241q0 -58 42 -80t126 -31l84 -8v-33h-764v33l86 8q84 9 126 31t42 80v1241h-102q-272 0 -406 -420l-22 2zM997 1862l-305 -330h-4l-307 332l6 6l303 -135l301 135z" />
    <glyph glyph-name="tcaron" unicode="&#x165;" horiz-adv-x="704" 
d="M553 102q86 0 152 35l8 -12q-46 -66 -116.5 -105.5t-152.5 -39.5q-128 0 -201 72t-73 220v801h-172v21l383 239h27v-219h268v-41h-268v-807q0 -87 40.5 -125.5t104.5 -38.5zM518 1171v263h221v-11l-209 -252h-12z" />
    <glyph glyph-name="Tbar" unicode="&#x166;" horiz-adv-x="1366" 
d="M90 1434h1186l65 -459l-22 -2q-136 420 -406 420h-100v-656h272v-41h-272v-544q0 -57 42 -79.5t124 -31.5l86 -8v-33h-764v33l86 8q84 9 125 31t41 80v544h-272v41h272v656h-100q-272 0 -406 -420l-22 2z" />
    <glyph glyph-name="tbar" unicode="&#x167;" horiz-adv-x="702" 
d="M707 137l6 -12q-46 -66 -115.5 -105.5t-151.5 -39.5q-130 0 -203 72t-73 220v469h-131v41h131v291h-170v21l383 239h27v-219h268v-41h-268v-291h227v-41h-227v-475q0 -87 40.5 -125.5t104.5 -38.5q86 0 152 35z" />
    <glyph glyph-name="Utilde" unicode="&#x168;" horiz-adv-x="1468" 
d="M565 1653q-69 0 -112 -84l-13 2q22 106 72.5 171.5t124.5 65.5q42 0 90.5 -21t84.5 -46.5t80.5 -46.5t78.5 -21q40 0 66 22.5t46 67.5l13 -2q-18 -104 -71.5 -171.5t-129.5 -67.5q-44 0 -93 20.5t-84.5 45t-78 45t-74.5 20.5zM743 -20q-250 0 -398 143t-148 391v768
q0 58 -27 80t-82 31l-55 8v33h604v-33l-62 -8q-60 -9 -89 -31t-29 -80v-782q0 -210 101 -326.5t286 -116.5q181 0 280 117.5t99 323.5v784q0 58 -32 80t-97 31l-66 8v33h440v-33l-65 -8q-67 -9 -100 -31t-33 -80v-784q0 -242 -140.5 -380t-386.5 -138z" />
    <glyph glyph-name="utilde" unicode="&#x169;" horiz-adv-x="1253" 
d="M1225 82l6 -33l-385 -69v210q-145 -210 -365 -210q-153 0 -236 95t-83 259v608q0 58 -23 75t-71 17l-50 -2l-6 33l387 70v-809q0 -104 50 -164t141 -60q132 0 256 136v704q0 58 -23 75t-71 17l-50 -2l-6 33l385 70v-963q0 -58 23 -75t72 -17zM752 1243q-44 0 -92.5 20.5
t-84 45t-77.5 45t-74 20.5q-74 0 -113 -84l-14 2q25 108 74.5 173t124.5 65q42 0 89.5 -21t83 -46.5t80 -46.5t80.5 -21q40 0 66.5 22.5t46.5 67.5l12 -2q-20 -105 -72 -172.5t-130 -67.5z" />
    <glyph glyph-name="Umacron" unicode="&#x16a;" horiz-adv-x="1468" 
d="M743 -20q-250 0 -398 143t-148 391v768q0 58 -27 80t-82 31l-55 8v33h604v-33l-62 -8q-60 -9 -89 -31t-29 -80v-782q0 -210 101 -326.5t286 -116.5q181 0 280 117.5t99 323.5v784q0 58 -32 80t-97 31l-66 8v33h440v-33l-65 -8q-67 -9 -100 -31t-33 -80v-784
q0 -242 -140.5 -380t-386.5 -138zM1120 1599h-620v41h620v-41z" />
    <glyph glyph-name="umacron" unicode="&#x16b;" horiz-adv-x="1253" 
d="M1225 82l6 -33l-385 -69v210q-145 -210 -365 -210q-153 0 -236 95t-83 259v608q0 58 -23 75t-71 17l-50 -2l-6 33l387 70v-809q0 -104 50 -164t141 -60q132 0 256 136v704q0 58 -23 75t-71 17l-50 -2l-6 33l385 70v-963q0 -58 23 -75t72 -17zM299 1346h619v-41h-619v41z
" />
    <glyph glyph-name="Uring" unicode="&#x16e;" horiz-adv-x="1468" 
d="M811 1575q62 0 102.5 39t40.5 100t-40.5 101t-102.5 40q-63 0 -102 -39.5t-39 -101.5t39 -100.5t102 -38.5zM743 -20q-250 0 -398 143t-148 391v768q0 58 -27 80t-82 31l-55 8v33h604v-33l-62 -8q-60 -9 -89 -31t-29 -80v-782q0 -210 101 -326.5t286 -116.5
q181 0 280 117.5t99 323.5v784q0 58 -32 80t-97 31l-66 8v33h440v-33l-65 -8q-67 -9 -100 -31t-33 -80v-784q0 -242 -140.5 -380t-386.5 -138zM811 1524q-87 0 -142 53t-55 137q0 85 55.5 139t141.5 54t141.5 -54t55.5 -139q0 -84 -55 -137t-142 -53z" />
    <glyph glyph-name="uring" unicode="&#x16f;" horiz-adv-x="1253" 
d="M608 1561q-61 0 -101 -40t-40 -102q0 -61 39.5 -100t101.5 -39q63 0 103.5 39t40.5 100q0 62 -40.5 102t-103.5 40zM1176 80l49 2l6 -33l-385 -69v210q-145 -210 -365 -210q-153 0 -236 95t-83 259v608q0 58 -23 75t-71 17l-50 -2l-6 33l387 70v-809q0 -104 50 -164
t141 -60q132 0 256 136v704q0 58 -23 75t-71 17l-50 -2l-6 33l385 70v-963q0 -58 23 -75t72 -17zM608 1229q-85 0 -139.5 53t-54.5 137q0 85 54.5 139t139.5 54q88 0 143.5 -54t55.5 -139t-55.5 -137.5t-143.5 -52.5z" />
    <glyph glyph-name="Uhungarumlaut" unicode="&#x170;" horiz-adv-x="1468" 
d="M743 -20q-250 0 -398 143t-148 391v768q0 58 -27 80t-82 31l-55 8v33h604v-33l-62 -8q-60 -9 -89 -31t-29 -80v-782q0 -210 101 -326.5t286 -116.5q181 0 280 117.5t99 323.5v784q0 58 -32 80t-97 31l-66 8v33h440v-33l-65 -8q-67 -9 -100 -31t-33 -80v-784
q0 -242 -140.5 -380t-386.5 -138zM655 1522h-10l105 325h258v-4zM958 1522h-10l105 325h258v-4z" />
    <glyph glyph-name="uhungarumlaut" unicode="&#x171;" horiz-adv-x="1253" 
d="M1225 82l6 -33l-385 -69v210q-145 -210 -365 -210q-153 0 -236 95t-83 259v608q0 58 -23 75t-71 17l-50 -2l-6 33l387 70v-809q0 -104 50 -164t141 -60q132 0 256 136v704q0 58 -23 75t-71 17l-50 -2l-6 33l385 70v-963q0 -58 23 -75t72 -17zM805 1536v-4l-352 -322h-9
l103 326h258zM1108 1532l-352 -322h-8l102 326h258v-4z" />
    <glyph glyph-name="Uogonek" unicode="&#x172;" horiz-adv-x="1472" 
d="M1028 1401v33h440v-33l-65 -8q-67 -9 -100 -31t-33 -80v-784q0 -231 -137 -377q-214 -232 -250 -307q-36 -79 6 -125q22 -25 67 -25t93 31l4 -4q-36 -58 -93 -91.5t-122 -33.5q-71 0 -112.5 35.5t-41.5 91.5q0 64 69.5 134.5t243.5 199.5q-115 -47 -254 -47
q-250 0 -398 143t-148 391v768q0 58 -27 80t-82 31l-55 8v33h604v-33l-62 -8q-60 -9 -89 -31t-29 -80v-782q0 -210 101 -326.5t286 -116.5q181 0 280 117.5t99 323.5v784q0 58 -32 80t-97 31z" />
    <glyph glyph-name="uogonek" unicode="&#x173;" horiz-adv-x="1253" 
d="M791 -336q44 0 92 31l4 -4q-36 -58 -92 -91.5t-121 -33.5q-72 0 -114 35t-42 92q0 72 77.5 141t250.5 178v178q-145 -210 -365 -210q-153 0 -236 95t-83 259v608q0 58 -23 75t-71 17l-50 -2l-6 33l387 70v-809q0 -104 50 -164t141 -60q132 0 256 136v704q0 58 -23 75
t-71 17l-50 -2l-6 33l385 70v-963q0 -58 23 -75t72 -17l49 2l6 -33l-385 -69v2q-84 -96 -115 -145t-31 -85q0 -39 24 -63.5t67 -24.5z" />
    <glyph glyph-name="Wcircumflex" unicode="&#x174;" horiz-adv-x="2058" 
d="M1663 1401v33h420v-33l-47 -8q-31 -6 -50.5 -14t-40.5 -31t-32 -62l-369 -1286h-178l-387 1182l-301 -1182h-182l-387 1286q-17 55 -38.5 76.5t-52.5 30.5l-28 8v33h545v-33l-62 -8q-59 -9 -82 -30.5t-6 -76.5l293 -1075l315 1223h183l380 -1233l308 1085q16 55 -15 76.5
t-106 30.5zM1407 1528l-303 135l-303 -135l-6 6l307 332h4l307 -330z" />
    <glyph glyph-name="wcircumflex" unicode="&#x175;" horiz-adv-x="1673" 
d="M1337 1081v33h351v-33l-39 -8q-19 -5 -31 -10t-27.5 -16t-27 -31t-19.5 -49l-297 -967h-133l-307 895l-225 -895h-142l-336 969q-10 29 -21 48.5t-24.5 30t-23.5 15.5t-25 10l-28 8v33h452v-33l-37 -8q-24 -6 -34 -14t-15 -30t10 -60l232 -725l219 870h176l281 -878
l225 731q16 57 -7 77t-85 29zM1198 1217l-303 135l-303 -135l-6 6l307 331h4l307 -329z" />
    <glyph glyph-name="Ycircumflex" unicode="&#x176;" horiz-adv-x="1325" 
d="M938 1401v33h410v-33l-41 -8q-55 -12 -86 -33.5t-54 -63.5l-364 -661v-483q0 -58 33 -80t100 -31l65 -8v-33h-653v33l68 8q65 9 98 31t33 80v473l-426 675q-46 71 -117 93l-29 8v33h566v-33l-62 -8q-29 -4 -44.5 -8.5t-26 -14.5t-7.5 -27t19 -43l371 -591l325 587
q28 51 2 69.5t-102 27.5zM1036 1528l-303 135l-303 -135l-6 6l307 332h4l307 -330z" />
    <glyph glyph-name="ycircumflex" unicode="&#x177;" horiz-adv-x="1067" 
d="M739 1081v33h348v-33l-34 -8q-26 -6 -42 -13.5t-36 -30.5t-35 -60l-350 -940q-15 -39 -25 -64.5t-30.5 -71.5t-39 -78t-46 -70.5t-55 -62t-62.5 -39.5t-72 -16q-73 0 -123.5 43t-50.5 115q0 53 29 109q106 -55 162 -78t92 -23q53 0 84.5 46t72.5 165l-424 969
q-15 35 -34.5 57.5t-32.5 29t-33 13.5l-29 8v33h529v-33l-62 -8q-24 -3 -37.5 -6.5t-27 -10.5t-18 -17.5t-3.5 -27t11 -40.5l272 -676l248 674q9 23 9.5 40.5t-4.5 28t-19.5 17.5t-30 11t-39.5 7zM903 1217l-301 135l-303 -135l-6 6l307 331h4l305 -329z" />
    <glyph glyph-name="Ydieresis" unicode="&#x178;" horiz-adv-x="1325" 
d="M938 1401v33h410v-33l-41 -8q-55 -12 -86 -33.5t-54 -63.5l-364 -661v-483q0 -58 33 -80t100 -31l65 -8v-33h-653v33l68 8q65 9 98 31t33 80v473l-426 675q-46 71 -117 93l-29 8v33h566v-33l-62 -8q-29 -4 -44.5 -8.5t-26 -14.5t-7.5 -27t19 -43l371 -591l325 587
q28 51 2 69.5t-102 27.5zM524 1591q-57 0 -96 37t-39 94q0 59 38.5 96t96.5 37t95.5 -37t37.5 -96q0 -57 -38 -94t-95 -37zM944 1591q-57 0 -96 37t-39 94q0 59 38.5 96t96.5 37t95.5 -37t37.5 -96q0 -57 -38 -94t-95 -37z" />
    <glyph glyph-name="Zacute" unicode="&#x179;" horiz-adv-x="1253" 
d="M1178 518h20l-88 -518h-1081v25l856 1368h-320q-155 0 -262.5 -95t-204.5 -323l-20 2l67 457h1043v-25l-844 -1368h318q136 0 231 50.5t160 151.5t125 275zM1040 1849v-4l-405 -321h-10l108 325h307z" />
    <glyph glyph-name="zacute" unicode="&#x17a;" horiz-adv-x="1001" 
d="M111 1114h839v-24l-635 -1051h260q140 0 213 80t123 282h21l-41 -401h-856v25l633 1048h-252q-120 0 -192 -74t-130 -249l-20 2zM879 1536v-4l-406 -322h-10l108 326h308z" />
    <glyph glyph-name="Zdotaccent" unicode="&#x17b;" horiz-adv-x="1253" 
d="M1178 518h20l-88 -518h-1081v25l856 1368h-320q-155 0 -262.5 -95t-204.5 -323l-20 2l67 457h1043v-25l-844 -1368h318q136 0 231 50.5t160 151.5t125 275zM662 1589q-61 0 -101.5 39.5t-40.5 97.5q0 60 40.5 100t101.5 40q60 0 99.5 -40t39.5 -100q0 -58 -39.5 -97.5
t-99.5 -39.5z" />
    <glyph glyph-name="zdotaccent" unicode="&#x17c;" horiz-adv-x="1001" 
d="M111 1114h839v-24l-635 -1051h260q140 0 213 80t123 282h21l-41 -401h-856v25l633 1048h-252q-120 0 -192 -74t-130 -249l-20 2zM500 1253q-61 0 -101.5 40t-40.5 98q0 60 40.5 99.5t101.5 39.5q60 0 99.5 -39.5t39.5 -99.5q0 -58 -40 -98t-99 -40z" />
    <glyph glyph-name="Zcaron" unicode="&#x17d;" horiz-adv-x="1253" 
d="M1178 518h20l-88 -518h-1081v25l856 1368h-320q-155 0 -262.5 -95t-204.5 -323l-20 2l67 457h1043v-25l-844 -1368h318q136 0 231 50.5t160 151.5t125 275zM969 1862l-305 -330h-5l-307 332l6 6l304 -135l301 135z" />
    <glyph glyph-name="zcaron" unicode="&#x17e;" horiz-adv-x="1001" 
d="M111 1114h839v-24l-635 -1051h260q140 0 213 80t123 282h21l-41 -401h-856v25l633 1048h-252q-120 0 -192 -74t-130 -249l-20 2zM807 1542l-305 -330h-4l-308 332l7 6l303 -135l301 135z" />
    <glyph glyph-name="florin" unicode="&#x192;" horiz-adv-x="1181" 
d="M985 1454q84 0 131 -43t39 -107.5t-72 -121.5q-48 83 -120 137.5t-127 54.5q-25 0 -41 -73.5t-39 -253t-41 -285.5h313v-41h-321q-15 -83 -32 -154.5t-42 -149t-54 -139.5t-68.5 -119t-85 -95.5t-104.5 -61t-126 -22.5q-82 0 -125 40q-52 43 -45.5 108.5t71.5 123.5
q49 -81 121.5 -137t126.5 -56q26 0 42 85.5t38 268t47 308.5h-285v41h293q24 113 51 205t70.5 186t95.5 157.5t126.5 103.5t162.5 40z" />
    <glyph glyph-name="Ohorn" unicode="&#x1a0;" horiz-adv-x="1507" 
d="M754 12q189 0 297 182.5t108 522.5t-108 522t-297 182q-188 0 -297 -182t-109 -522t109 -522.5t297 -182.5zM754 1454q283 0 473 -190q92 63 92 133q0 40 -34.5 77t-94.5 62q0 50 34.5 84.5t82.5 34.5q56 0 91.5 -41t35.5 -101q0 -79 -48.5 -151.5t-138.5 -120.5
q96 -102 142.5 -238t46.5 -286t-47.5 -283.5t-133 -234.5t-215.5 -160t-286 -59q-203 0 -360 99.5t-239.5 266.5t-82.5 371q0 149 47.5 282.5t133.5 234.5t216 160.5t285 59.5z" />
    <glyph glyph-name="ohorn" unicode="&#x1a1;" horiz-adv-x="1179" 
d="M588 12q127 0 195.5 142t68.5 405q0 260 -68.5 401.5t-195.5 141.5q-124 0 -192 -141.5t-68 -401.5q0 -262 67.5 -404.5t192.5 -142.5zM588 1135q231 0 383 -168q78 59 78 123q0 40 -34.5 77t-94.5 62q0 50 34 84.5t82 34.5q56 0 91.5 -41t35.5 -101q0 -75 -44.5 -145.5
t-127.5 -118.5q123 -155 123 -383q0 -252 -148 -415.5t-378 -163.5q-112 0 -209.5 43.5t-167 119.5t-109 184t-39.5 232q0 251 148.5 413.5t376.5 162.5z" />
    <glyph glyph-name="Uhorn" unicode="&#x1af;" horiz-adv-x="1468" 
d="M743 -20q-250 0 -398 143t-148 391v768q0 58 -27 80t-82 31l-55 8v33h604v-33l-62 -8q-60 -9 -89 -31t-29 -80v-782q0 -210 101 -326.5t286 -116.5q181 0 280 117.5t99 323.5v784q0 58 -32 80t-97 31l-66 8v33h297v-33q-39 -12 -47 -29.5t-8 -74.5v-15v-49
q72 33 111.5 75t39.5 89q0 40 -34.5 77t-94.5 62q0 50 34.5 84.5t82.5 34.5q56 0 91.5 -41t35.5 -101q0 -96 -70 -180.5t-196 -124.5v-710q0 -242 -140.5 -380t-386.5 -138z" />
    <glyph glyph-name="uhorn" unicode="&#x1b0;" horiz-adv-x="1253" 
d="M1225 82l6 -33l-385 -69v210q-145 -210 -365 -210q-153 0 -236 95t-83 259v608q0 58 -23 75t-71 17l-50 -2l-6 33l387 70v-809q0 -104 50 -164t141 -60q132 0 256 136v704q0 58 -23 75t-71 17l-50 -2l-6 33l385 70v-209q152 70 152 164q0 40 -34.5 77t-94.5 62
q0 50 34.5 84.5t82.5 34.5q56 0 91.5 -41t35.5 -101q0 -96 -70.5 -180.5t-196.5 -124.5v-729q0 -58 23 -75t72 -17z" />
    <glyph glyph-name="uni01CD" unicode="&#x1cd;" horiz-adv-x="1384" 
d="M827 565l-252 686l-231 -686h483zM1389 41l47 -8v-33h-584v33l55 8q62 11 77 32t-3 72l-139 379h-512l-127 -379q-17 -51 6 -72.5t108 -31.5l76 -8v-33h-416v33l46 8q59 10 86.5 32t44.5 72l430 1289h184l489 -1291q19 -47 47 -68.5t85 -33.5zM983 1870l6 -8l-307 -330
h-4l-307 332l6 6l303 -135z" />
    <glyph glyph-name="uni01CE" unicode="&#x1ce;" horiz-adv-x="1040" 
d="M408 100q64 0 124.5 39t106.5 105v207q-78 12 -111 12q-110 0 -184 -58t-74 -157q0 -69 36 -108.5t102 -39.5zM1053 131l6 -8q-26 -60 -91 -101.5t-134 -41.5q-92 0 -143.5 50t-51.5 138v31q-66 -101 -158 -160t-200 -59q-109 0 -175.5 60t-66.5 157q0 135 145.5 214
t454.5 103v295q0 80 -36 132.5t-88 72.5t-118 20q-43 0 -70 -20.5t-41.5 -65.5t-19 -105t-2.5 -151q-84 -7 -133 26t-49 87q0 62 81 139.5t212 134t256 56.5q246 0 243 -308l-2 -649q0 -69 64 -69q34 0 117 22zM801 1550l6 -8l-305 -330h-4l-308 332l7 6l303 -135z" />
    <glyph glyph-name="uni0218" unicode="&#x218;" horiz-adv-x="1138" 
d="M555 -20q-113 0 -234 30t-206 84l-39 328h20q80 -173 220 -291.5t286 -118.5q121 0 196.5 77t75.5 200q0 67 -26.5 119t-71 86.5t-102 62t-121.5 50t-128 46.5t-121.5 56t-102 73t-71 103.5t-26.5 142.5q0 188 144 307t362 119q203 0 369 -84l22 -330h-20
q-144 381 -408 381q-124 0 -202 -72.5t-78 -183.5q0 -80 39.5 -133.5t113.5 -91.5q47 -24 124 -52.5t138.5 -49t131 -57t116.5 -78.5t78 -111.5t31 -157.5q0 -201 -145 -327.5t-365 -126.5zM532 -115q63 0 102.5 -43.5t39.5 -109.5q0 -96 -68.5 -161t-197.5 -95l-7 16
q67 21 99 62.5t26.5 82t-39.5 74.5t-88 41q0 58 40 95.5t93 37.5z" />
    <glyph glyph-name="uni0219" unicode="&#x219;" horiz-adv-x="942" 
d="M455 -20q-95 0 -196.5 31t-176.5 89l-4 283h20q57 -158 167 -259t239 -101q86 0 142 57.5t56 148.5q0 50 -25.5 89.5t-67.5 64.5t-96 50t-110 45t-110 50t-96 64t-67.5 88t-25.5 121q0 148 116.5 241t291.5 93q164 0 299 -72l2 -291h-20q-56 161 -140 242.5t-186 81.5
q-81 0 -133.5 -52.5t-52.5 -132.5q0 -43 20 -77.5t54.5 -58t79 -44t93 -39t97.5 -39t93.5 -48t79 -62t54.5 -85.5t20 -114q0 -159 -117.5 -261.5t-299.5 -102.5zM442 -115q61 0 100.5 -43.5t39.5 -109.5q0 -96 -69 -161t-198 -95l-6 16q67 21 99 62.5t26.5 82t-39.5 74.5
t-88 41q0 58 41 95.5t94 37.5z" />
    <glyph glyph-name="uni021A" unicode="&#x21a;" horiz-adv-x="1378" 
d="M96 1434h1186l66 -459l-23 -2q-136 420 -405 420h-101v-1241q0 -58 42 -80t126 -31l84 -8v-33h-764v33l86 8q84 9 126 31t42 80v1241h-102q-272 0 -406 -420l-22 2zM686 -115q62 0 101.5 -43t39.5 -110q0 -96 -68.5 -161t-197.5 -95l-6 16q67 21 99 62.5t26.5 82
t-39.5 74.5t-88 41q0 58 40 95.5t93 37.5z" />
    <glyph glyph-name="uni021B" unicode="&#x21b;" horiz-adv-x="704" 
d="M705 137l8 -12q-46 -66 -116.5 -105.5t-152.5 -39.5q-128 0 -201 72t-73 220v801h-172v21l383 239h27v-219h268v-41h-268v-807q0 -87 40.5 -125.5t104.5 -38.5q86 0 152 35zM379 -115q62 0 101.5 -43t39.5 -110q0 -96 -68.5 -161t-197.5 -95l-6 16q67 21 99 62.5t26.5 82
t-39.5 74.5t-88 41q0 58 40 95.5t93 37.5z" />
    <glyph glyph-name="uni0237" unicode="&#x237;" horiz-adv-x="536" 
d="M-45 -389q-76 0 -116.5 40.5t-31.5 101.5t64 116q108 -156 197 -156q51 0 75.5 50t24.5 178v964l-145 105v4l378 121h5v-957q0 -78 -41.5 -177.5t-104.5 -185.5t-146 -145t-159 -59z" />
    <glyph glyph-name="circumflex" unicode="&#x2c6;" 
d="M614 1352l-303 -135l-6 6l307 331h4l306 -329l-7 -8z" />
    <glyph glyph-name="caron" unicode="&#x2c7;" 
d="M305 1544l6 6l303 -135l301 135l7 -8l-306 -330h-4z" />
    <glyph glyph-name="breve" unicode="&#x2d8;" 
d="M614 1241q-122 0 -201 86.5t-87 224.5h4q67 -149 284 -149q218 0 287 153h4q-6 -139 -84.5 -227t-206.5 -88z" />
    <glyph glyph-name="dotaccent" unicode="&#x2d9;" 
d="M614 1253q-59 0 -99 40t-40 98q0 60 39.5 99.5t99.5 39.5q61 0 100.5 -39.5t39.5 -99.5q0 -58 -39.5 -98t-100.5 -40z" />
    <glyph glyph-name="ring" unicode="&#x2da;" 
d="M616 1229q-87 0 -141.5 53t-54.5 137q0 85 55 139t141 54t141.5 -54t55.5 -139q0 -84 -55 -137t-142 -53zM616 1280q62 0 103 39t41 100t-41 101.5t-103 40.5q-63 0 -102 -40t-39 -102t39 -100.5t102 -38.5z" />
    <glyph glyph-name="ogonek" unicode="&#x2db;" 
d="M426 -434q-72 0 -113 35t-41 92q0 72 80 143t258 182l4 -18q-91 -105 -125 -158t-34 -90q0 -40 22.5 -64t65.5 -24q47 0 94 31l2 -4q-32 -57 -89.5 -91t-123.5 -34z" />
    <glyph glyph-name="tilde" unicode="&#x2dc;" 
d="M745 1243q-44 0 -92.5 20.5t-83.5 45t-77 45t-74 20.5q-74 0 -113 -84l-14 2q25 109 74 173.5t124 64.5q42 0 89.5 -21t83.5 -46.5t80.5 -46.5t80.5 -21q40 0 66.5 22.5t46.5 67.5l12 -2q-20 -105 -72.5 -172.5t-130.5 -67.5z" />
    <glyph glyph-name="hungarumlaut" unicode="&#x2dd;" 
d="M461 1210h-10l104 326h258v-4zM764 1210h-10l104 326h258v-4z" />
    <glyph glyph-name="gravecomb" unicode="&#x300;" 
d="M236 1532v4h307l108 -326h-10z" />
    <glyph glyph-name="acutecomb" unicode="&#x301;" 
d="M686 1536h307v-4l-405 -322h-10z" />
    <glyph glyph-name="uni0302" unicode="&#x302;" 
d="M614 1352l-303 -135l-6 6l307 331h4l306 -329l-7 -8z" />
    <glyph glyph-name="tildecomb" unicode="&#x303;" 
d="M745 1243q-44 0 -92.5 20.5t-83.5 45t-77 45t-74 20.5q-74 0 -113 -84l-14 2q25 109 74 173.5t124 64.5q42 0 89.5 -21t83.5 -46.5t80.5 -46.5t80.5 -21q40 0 66.5 22.5t46.5 67.5l12 -2q-20 -105 -72.5 -172.5t-130.5 -67.5z" />
    <glyph glyph-name="uni0306" unicode="&#x306;" 
d="M614 1241q-122 0 -201 86.5t-87 224.5h4q67 -149 284 -149q218 0 287 153h4q-6 -139 -84.5 -227t-206.5 -88z" />
    <glyph glyph-name="hookabovecomb" unicode="&#x309;" horiz-adv-x="718" 
d="M301 1704q114 0 179 -53t65 -133q0 -69 -64 -132.5t-182 -91.5l-12 -75h-13l-26 184q110 27 157.5 75.5t47.5 106.5q0 23 -17.5 41.5t-50.5 18.5q-40 0 -98 -26.5t-113 -70.5q-20 38 -20 72q0 39 38 61.5t109 22.5z" />
    <glyph glyph-name="uni031B" unicode="&#x31b;" horiz-adv-x="602" 
d="M199 901l-4 23q74 33 115.5 76t41.5 90q0 40 -34.5 77t-94.5 62q0 50 34.5 84.5t82.5 34.5q56 0 91.5 -41t35.5 -101q0 -96 -70.5 -180.5t-197.5 -124.5z" />
    <glyph glyph-name="dotbelowcomb" unicode="&#x323;" horiz-adv-x="673" 
d="M322 -424q-58 0 -97 38.5t-39 94.5q0 57 39 95t97 38t96.5 -38t38.5 -95q0 -56 -38.5 -94.5t-96.5 -38.5z" />
    <glyph glyph-name="Wgrave" unicode="&#x1e80;" horiz-adv-x="2058" 
d="M1663 1401v33h420v-33l-47 -8q-31 -6 -50.5 -14t-40.5 -31t-32 -62l-369 -1286h-178l-387 1182l-301 -1182h-182l-387 1286q-17 55 -38.5 76.5t-52.5 30.5l-28 8v33h545v-33l-62 -8q-59 -9 -82 -30.5t-6 -76.5l293 -1075l315 1223h183l380 -1233l308 1085q16 55 -15 76.5
t-106 30.5zM1071 1847l107 -325h-9l-405 321v4h307z" />
    <glyph glyph-name="wgrave" unicode="&#x1e81;" horiz-adv-x="1673" 
d="M1337 1081v33h351v-33l-39 -8q-19 -5 -31 -10t-27.5 -16t-27 -31t-19.5 -49l-297 -967h-133l-307 895l-225 -895h-142l-336 969q-10 29 -21 48.5t-24.5 30t-23.5 15.5t-25 10l-28 8v33h452v-33l-37 -8q-24 -6 -34 -14t-15 -30t10 -60l232 -725l219 870h176l281 -878
l225 731q16 57 -7 77t-85 29zM823 1536l109 -326h-10l-406 322v4h307z" />
    <glyph glyph-name="Wacute" unicode="&#x1e82;" horiz-adv-x="2058" 
d="M1663 1401v33h420v-33l-47 -8q-31 -6 -50.5 -14t-40.5 -31t-32 -62l-369 -1286h-178l-387 1182l-301 -1182h-182l-387 1286q-17 55 -38.5 76.5t-52.5 30.5l-28 8v33h545v-33l-62 -8q-59 -9 -82 -30.5t-6 -76.5l293 -1075l315 1223h183l380 -1233l308 1085q16 55 -15 76.5
t-106 30.5zM1485 1849v-4l-408 -321h-8l109 325h307z" />
    <glyph glyph-name="wacute" unicode="&#x1e83;" horiz-adv-x="1673" 
d="M1337 1081v33h351v-33l-39 -8q-19 -5 -31 -10t-27.5 -16t-27 -31t-19.5 -49l-297 -967h-133l-307 895l-225 -895h-142l-336 969q-10 29 -21 48.5t-24.5 30t-23.5 15.5t-25 10l-28 8v33h452v-33l-37 -8q-24 -6 -34 -14t-15 -30t10 -60l232 -725l219 870h176l281 -878
l225 731q16 57 -7 77t-85 29zM1276 1536v-4l-408 -322h-8l109 326h307z" />
    <glyph glyph-name="Wdieresis" unicode="&#x1e84;" horiz-adv-x="2058" 
d="M1663 1401v33h420v-33l-47 -8q-31 -6 -50.5 -14t-40.5 -31t-32 -62l-369 -1286h-178l-387 1182l-301 -1182h-182l-387 1286q-17 55 -38.5 76.5t-52.5 30.5l-28 8v33h545v-33l-62 -8q-59 -9 -82 -30.5t-6 -76.5l293 -1075l315 1223h183l380 -1233l308 1085q16 55 -15 76.5
t-106 30.5zM1315 1591q-57 0 -96 37t-39 94q0 59 38.5 96t96.5 37t95.5 -37t37.5 -96q0 -57 -38 -94t-95 -37zM895 1591q-57 0 -95 37t-38 94q0 59 37.5 96t95.5 37q60 0 96.5 -36.5t36.5 -96.5q0 -58 -37 -94.5t-96 -36.5z" />
    <glyph glyph-name="wdieresis" unicode="&#x1e85;" horiz-adv-x="1673" 
d="M1337 1081v33h351v-33l-39 -8q-19 -5 -31 -10t-27.5 -16t-27 -31t-19.5 -49l-297 -967h-133l-307 895l-225 -895h-142l-336 969q-10 29 -21 48.5t-24.5 30t-23.5 15.5t-25 10l-28 8v33h452v-33l-37 -8q-24 -6 -34 -14t-15 -30t10 -60l232 -725l219 870h176l281 -878
l225 731q16 57 -7 77t-85 29zM1106 1260q-57 0 -96 37t-39 94q0 59 38.5 96t96.5 37t95.5 -37t37.5 -96q0 -57 -38 -94t-95 -37zM686 1260q-57 0 -95 37t-38 94q0 59 37.5 96t95.5 37q60 0 96.5 -36.5t36.5 -96.5q0 -57 -36.5 -94t-96.5 -37z" />
    <glyph glyph-name="Germandbls" unicode="&#x1e9e;" horiz-adv-x="1501" 
d="M1116 975q0 -55 18.5 -103t48 -84.5t65 -71.5t71 -71t65 -74.5t48 -91.5t18.5 -114q0 -164 -118.5 -274.5t-301.5 -110.5q-160 0 -354 67l-21 234h21q166 -271 358 -271q97 0 159 59t62 152q0 60 -31.5 114.5t-76.5 99t-89.5 90.5t-76 110t-31.5 137q0 213 215 420
q-206 221 -397 221q-145 0 -235.5 -120.5t-90.5 -313.5v-827q0 -57 26 -79.5t77 -31.5l55 -8v-33h-571v33l51 8q52 9 78 31t26 80v661q0 285 180.5 463t466.5 178q260 0 476 -149l8 -13q-80 -67 -139.5 -156t-59.5 -161z" />
    <glyph glyph-name="uni1EA0" unicode="&#x1ea0;" horiz-adv-x="1384" 
d="M827 565l-252 686l-231 -686h483zM1389 41l47 -8v-33h-584v33l55 8q62 11 77 32t-3 72l-139 379h-512l-127 -379q-17 -51 6 -72.5t108 -31.5l76 -8v-33h-416v33l46 8q59 10 86.5 32t44.5 72l430 1289h184l489 -1291q19 -47 47 -68.5t85 -33.5zM610 -403q-58 0 -96.5 38.5
t-38.5 94.5q0 57 38.5 95t96.5 38t96.5 -38t38.5 -95q0 -56 -38.5 -94.5t-96.5 -38.5z" />
    <glyph glyph-name="uni1EA1" unicode="&#x1ea1;" horiz-adv-x="1040" 
d="M408 100q64 0 124.5 39t106.5 105v207q-78 12 -111 12q-110 0 -184 -58t-74 -157q0 -69 36 -108.5t102 -39.5zM1053 131l6 -8q-26 -60 -91 -101.5t-134 -41.5q-92 0 -143.5 50t-51.5 138v31q-66 -101 -158 -160t-200 -59q-109 0 -175.5 60t-66.5 157q0 135 145.5 214
t454.5 103v295q0 80 -36 132.5t-88 72.5t-118 20q-43 0 -70 -20.5t-41.5 -65.5t-19 -105t-2.5 -151q-84 -7 -133 26t-49 87q0 62 81 139.5t212 134t256 56.5q246 0 243 -308l-2 -649q0 -69 64 -69q34 0 117 22zM487 -403q-58 0 -96.5 38.5t-38.5 94.5q0 57 38.5 95t96.5 38
t97 -38t39 -95q0 -56 -39 -94.5t-97 -38.5z" />
    <glyph glyph-name="uni1EA2" unicode="&#x1ea2;" horiz-adv-x="1384" 
d="M827 565l-252 686l-231 -686h483zM1389 41l47 -8v-33h-584v33l55 8q62 11 77 32t-3 72l-139 379h-512l-127 -379q-17 -51 6 -72.5t108 -31.5l76 -8v-33h-416v33l46 8q59 10 86.5 32t44.5 72l430 1289h184l489 -1291q19 -47 47 -68.5t85 -33.5zM696 2013q114 0 179 -53
t65 -133q0 -69 -64 -132t-182 -91l-12 -76h-12l-27 184q110 27 157.5 75.5t47.5 106.5q0 23 -17.5 41.5t-50.5 18.5q-40 0 -98 -26t-113 -70q-20 38 -20 71q0 39 38 61.5t109 22.5z" />
    <glyph glyph-name="uni1EA3" unicode="&#x1ea3;" horiz-adv-x="1040" 
d="M408 100q64 0 124.5 39t106.5 105v207q-78 12 -111 12q-110 0 -184 -58t-74 -157q0 -69 36 -108.5t102 -39.5zM1053 131l6 -8q-26 -60 -91 -101.5t-134 -41.5q-92 0 -143.5 50t-51.5 138v31q-66 -101 -158 -160t-200 -59q-109 0 -175.5 60t-66.5 157q0 135 145.5 214
t454.5 103v295q0 80 -36 132.5t-88 72.5t-118 20q-43 0 -70 -20.5t-41.5 -65.5t-19 -105t-2.5 -151q-84 -7 -133 26t-49 87q0 62 81 139.5t212 134t256 56.5q246 0 243 -308l-2 -649q0 -69 64 -69q34 0 117 22zM569 1704q114 0 179 -53t65 -133q0 -69 -64 -132.5t-182 -91.5
l-12 -75h-12l-27 184q110 27 157.5 75.5t47.5 106.5q0 23 -17.5 41.5t-50.5 18.5q-40 0 -98 -26.5t-113 -70.5q-20 38 -20 72q0 39 38 61.5t109 22.5z" />
    <glyph glyph-name="uni1EA4" unicode="&#x1ea4;" horiz-adv-x="1384" 
d="M827 565l-252 686l-231 -686h483zM1389 41l47 -8v-33h-584v33l55 8q62 11 77 32t-3 72l-139 379h-512l-127 -379q-17 -51 6 -72.5t108 -31.5l76 -8v-33h-416v33l46 8q59 10 86.5 32t44.5 72l430 1289h184l489 -1291q19 -47 47 -68.5t85 -33.5zM989 1536l-6 -8l-303 135
l-303 -135l-6 6l307 332h4zM924 1710l108 326h307v-4l-405 -322h-10z" />
    <glyph glyph-name="uni1EA5" unicode="&#x1ea5;" horiz-adv-x="1040" 
d="M408 100q64 0 124.5 39t106.5 105v207q-78 12 -111 12q-110 0 -184 -58t-74 -157q0 -69 36 -108.5t102 -39.5zM1053 131l6 -8q-26 -60 -91 -101.5t-134 -41.5q-92 0 -143.5 50t-51.5 138v31q-66 -101 -158 -160t-200 -59q-109 0 -175.5 60t-66.5 157q0 135 145.5 214
t454.5 103v295q0 80 -36 132.5t-88 72.5t-118 20q-43 0 -70 -20.5t-41.5 -65.5t-19 -105t-2.5 -151q-84 -7 -133 26t-49 87q0 62 81 139.5t212 134t256 56.5q246 0 243 -308l-2 -649q0 -69 64 -69q34 0 117 22zM807 1225l-6 -8l-301 135l-303 -135l-7 6l308 331h4zM743 1399
l109 325h307v-4l-405 -321h-11z" />
    <glyph glyph-name="uni1EA6" unicode="&#x1ea6;" horiz-adv-x="1384" 
d="M827 565l-252 686l-231 -686h483zM1389 41l47 -8v-33h-584v33l55 8q62 11 77 32t-3 72l-139 379h-512l-127 -379q-17 -51 6 -72.5t108 -31.5l76 -8v-33h-416v33l46 8q59 10 86.5 32t44.5 72l430 1289h184l489 -1291q19 -47 47 -68.5t85 -33.5zM989 1536l-6 -8l-303 135
l-303 -135l-6 6l307 332h4zM653 2032v4h308l108 -326h-10z" />
    <glyph glyph-name="uni1EA7" unicode="&#x1ea7;" horiz-adv-x="1040" 
d="M408 100q64 0 124.5 39t106.5 105v207q-78 12 -111 12q-110 0 -184 -58t-74 -157q0 -69 36 -108.5t102 -39.5zM1053 131l6 -8q-26 -60 -91 -101.5t-134 -41.5q-92 0 -143.5 50t-51.5 138v31q-66 -101 -158 -160t-200 -59q-109 0 -175.5 60t-66.5 157q0 135 145.5 214
t454.5 103v295q0 80 -36 132.5t-88 72.5t-118 20q-43 0 -70 -20.5t-41.5 -65.5t-19 -105t-2.5 -151q-84 -7 -133 26t-49 87q0 62 81 139.5t212 134t256 56.5q246 0 243 -308l-2 -649q0 -69 64 -69q34 0 117 22zM807 1225l-6 -8l-301 135l-303 -135l-7 6l308 331h4zM473 1720
v4h307l109 -325h-10z" />
    <glyph glyph-name="uni1EA8" unicode="&#x1ea8;" horiz-adv-x="1384" 
d="M827 565l-252 686l-231 -686h483zM1389 41l47 -8v-33h-584v33l55 8q62 11 77 32t-3 72l-139 379h-512l-127 -379q-17 -51 6 -72.5t108 -31.5l76 -8v-33h-416v33l46 8q59 10 86.5 32t44.5 72l430 1289h184l489 -1291q19 -47 47 -68.5t85 -33.5zM989 1536l-6 -8l-303 135
l-303 -135l-6 6l307 332h4zM983 2195q114 0 179 -53t65 -133q0 -69 -64 -132t-182 -91l-12 -76h-13l-26 184q110 27 157.5 76t47.5 107q0 23 -17.5 41t-50.5 18q-40 0 -98 -26t-113 -70q-20 38 -20 71q0 39 38 61.5t109 22.5z" />
    <glyph glyph-name="uni1EA9" unicode="&#x1ea9;" horiz-adv-x="1040" 
d="M408 100q64 0 124.5 39t106.5 105v207q-78 12 -111 12q-110 0 -184 -58t-74 -157q0 -69 36 -108.5t102 -39.5zM1053 131l6 -8q-26 -60 -91 -101.5t-134 -41.5q-92 0 -143.5 50t-51.5 138v31q-66 -101 -158 -160t-200 -59q-109 0 -175.5 60t-66.5 157q0 135 145.5 214
t454.5 103v295q0 80 -36 132.5t-88 72.5t-118 20q-43 0 -70 -20.5t-41.5 -65.5t-19 -105t-2.5 -151q-84 -7 -133 26t-49 87q0 62 81 139.5t212 134t256 56.5q246 0 243 -308l-2 -649q0 -69 64 -69q34 0 117 22zM807 1225l-6 -8l-301 135l-303 -135l-7 6l308 331h4zM803 1884
q114 0 179 -53t65 -133q0 -69 -64 -132t-182 -91l-13 -76h-12l-26 184q110 27 157 75.5t47 106.5q0 23 -17 41.5t-50 18.5q-40 0 -98 -26t-113 -70q-21 40 -21 71q0 39 38.5 61.5t109.5 22.5z" />
    <glyph glyph-name="uni1EAA" unicode="&#x1eaa;" horiz-adv-x="1384" 
d="M827 565l-252 686l-231 -686h483zM1389 41l47 -8v-33h-584v33l55 8q62 11 77 32t-3 72l-139 379h-512l-127 -379q-17 -51 6 -72.5t108 -31.5l76 -8v-33h-416v33l46 8q59 10 86.5 32t44.5 72l430 1289h184l489 -1291q19 -47 47 -68.5t85 -33.5zM989 1536l-6 -8l-303 135
l-303 -135l-6 6l307 332h4zM514 2038q-70 0 -113 -84l-12 2q22 106 72.5 171.5t124.5 65.5q42 0 90.5 -21t84.5 -46.5t80.5 -46.5t78.5 -21q40 0 66 22.5t46 67.5l12 -2q-18 -104 -71 -171.5t-129 -67.5q-44 0 -93 20.5t-84.5 45t-78 45t-74.5 20.5z" />
    <glyph glyph-name="uni1EAB" unicode="&#x1eab;" horiz-adv-x="1040" 
d="M408 100q64 0 124.5 39t106.5 105v207q-78 12 -111 12q-110 0 -184 -58t-74 -157q0 -69 36 -108.5t102 -39.5zM1053 131l6 -8q-26 -60 -91 -101.5t-134 -41.5q-92 0 -143.5 50t-51.5 138v31q-66 -101 -158 -160t-200 -59q-109 0 -175.5 60t-66.5 157q0 135 145.5 214
t454.5 103v295q0 80 -36 132.5t-88 72.5t-118 20q-43 0 -70 -20.5t-41.5 -65.5t-19 -105t-2.5 -151q-84 -7 -133 26t-49 87q0 62 81 139.5t212 134t256 56.5q246 0 243 -308l-2 -649q0 -69 64 -69q34 0 117 22zM807 1225l-6 -8l-301 135l-303 -135l-7 6l308 331h4zM334 1726
q-70 0 -113 -84l-12 3q22 106 72.5 171.5t124.5 65.5q53 0 114.5 -34t118.5 -67.5t100 -33.5q40 0 66.5 22.5t46.5 67.5l12 -2q-18 -104 -71 -172t-129 -68q-44 0 -93 20.5t-84.5 45t-78 45t-74.5 20.5z" />
    <glyph glyph-name="uni1EAC" unicode="&#x1eac;" horiz-adv-x="1384" 
d="M827 565l-252 686l-231 -686h483zM1389 41l47 -8v-33h-584v33l55 8q62 11 77 32t-3 72l-139 379h-512l-127 -379q-17 -51 6 -72.5t108 -31.5l76 -8v-33h-416v33l46 8q59 10 86.5 32t44.5 72l430 1289h184l489 -1291q19 -47 47 -68.5t85 -33.5zM989 1536l-6 -8l-303 135
l-303 -135l-6 6l307 332h4zM610 -403q-58 0 -96.5 38.5t-38.5 94.5q0 57 38.5 95t96.5 38t96.5 -38t38.5 -95q0 -56 -38.5 -94.5t-96.5 -38.5z" />
    <glyph glyph-name="uni1EAD" unicode="&#x1ead;" horiz-adv-x="1040" 
d="M408 100q64 0 124.5 39t106.5 105v207q-78 12 -111 12q-110 0 -184 -58t-74 -157q0 -69 36 -108.5t102 -39.5zM1053 131l6 -8q-26 -60 -91 -101.5t-134 -41.5q-92 0 -143.5 50t-51.5 138v31q-66 -101 -158 -160t-200 -59q-109 0 -175.5 60t-66.5 157q0 135 145.5 214
t454.5 103v295q0 80 -36 132.5t-88 72.5t-118 20q-43 0 -70 -20.5t-41.5 -65.5t-19 -105t-2.5 -151q-84 -7 -133 26t-49 87q0 62 81 139.5t212 134t256 56.5q246 0 243 -308l-2 -649q0 -69 64 -69q34 0 117 22zM807 1225l-6 -8l-301 135l-303 -135l-7 6l308 331h4zM487 -403
q-58 0 -96.5 38.5t-38.5 94.5q0 57 38.5 95t96.5 38t97 -38t39 -95q0 -56 -39 -94.5t-97 -38.5z" />
    <glyph glyph-name="uni1EAE" unicode="&#x1eae;" horiz-adv-x="1384" 
d="M827 565l-252 686l-231 -686h483zM1389 41l47 -8v-33h-584v33l55 8q62 11 77 32t-3 72l-139 379h-512l-127 -379q-17 -51 6 -72.5t108 -31.5l76 -8v-33h-416v33l46 8q59 10 86.5 32t44.5 72l430 1289h184l489 -1291q19 -47 47 -68.5t85 -33.5zM678 1540q-122 0 -201.5 87
t-87.5 224h6q64 -149 283 -149q218 0 287 153h6q-6 -139 -85.5 -227t-207.5 -88zM600 1815l109 325h307v-4l-406 -321h-10z" />
    <glyph glyph-name="uni1EAF" unicode="&#x1eaf;" horiz-adv-x="1040" 
d="M408 100q64 0 124.5 39t106.5 105v207q-78 12 -111 12q-110 0 -184 -58t-74 -157q0 -69 36 -108.5t102 -39.5zM1053 131l6 -8q-26 -60 -91 -101.5t-134 -41.5q-92 0 -143.5 50t-51.5 138v31q-66 -101 -158 -160t-200 -59q-109 0 -175.5 60t-66.5 157q0 135 145.5 214
t454.5 103v295q0 80 -36 132.5t-88 72.5t-118 20q-43 0 -70 -20.5t-41.5 -65.5t-19 -105t-2.5 -151q-84 -7 -133 26t-49 87q0 62 81 139.5t212 134t256 56.5q246 0 243 -308l-2 -649q0 -69 64 -69q34 0 117 22zM500 1241q-122 0 -201 86.5t-90 224.5h6q64 -149 285 -149
q215 0 284 153h7q-6 -139 -84.5 -227t-206.5 -88zM420 1516l108 325h308v-4l-406 -321h-10z" />
    <glyph glyph-name="uni1EB0" unicode="&#x1eb0;" horiz-adv-x="1384" 
d="M827 565l-252 686l-231 -686h483zM1389 41l47 -8v-33h-584v33l55 8q62 11 77 32t-3 72l-139 379h-512l-127 -379q-17 -51 6 -72.5t108 -31.5l76 -8v-33h-416v33l46 8q59 10 86.5 32t44.5 72l430 1289h184l489 -1291q19 -47 47 -68.5t85 -33.5zM322 2136v4h307l108 -325
h-10zM678 1540q-122 0 -201.5 87t-87.5 224h6q64 -149 283 -149q218 0 287 153h6q-6 -139 -85.5 -227t-207.5 -88z" />
    <glyph glyph-name="uni1EB1" unicode="&#x1eb1;" horiz-adv-x="1040" 
d="M408 100q64 0 124.5 39t106.5 105v207q-78 12 -111 12q-110 0 -184 -58t-74 -157q0 -69 36 -108.5t102 -39.5zM1053 131l6 -8q-26 -60 -91 -101.5t-134 -41.5q-92 0 -143.5 50t-51.5 138v31q-66 -101 -158 -160t-200 -59q-109 0 -175.5 60t-66.5 157q0 135 145.5 214
t454.5 103v295q0 80 -36 132.5t-88 72.5t-118 20q-43 0 -70 -20.5t-41.5 -65.5t-19 -105t-2.5 -151q-84 -7 -133 26t-49 87q0 62 81 139.5t212 134t256 56.5q246 0 243 -308l-2 -649q0 -69 64 -69q34 0 117 22zM143 1837v4h308l108 -325h-10zM500 1241q-122 0 -201 86.5
t-90 224.5h6q64 -149 285 -149q215 0 284 153h7q-6 -139 -84.5 -227t-206.5 -88z" />
    <glyph glyph-name="uni1EB2" unicode="&#x1eb2;" horiz-adv-x="1384" 
d="M827 565l-252 686l-231 -686h483zM1389 41l47 -8v-33h-584v33l55 8q62 11 77 32t-3 72l-139 379h-512l-127 -379q-17 -51 6 -72.5t108 -31.5l76 -8v-33h-416v33l46 8q59 10 86.5 32t44.5 72l430 1289h184l489 -1291q19 -47 47 -68.5t85 -33.5zM678 1540q-122 0 -201.5 87
t-87.5 224h6q64 -149 283 -149q218 0 287 153h6q-6 -139 -85.5 -227t-207.5 -88zM696 2300q114 0 179 -53t65 -133q0 -69 -64 -132.5t-182 -91.5l-12 -75h-12l-27 184q110 27 157.5 75.5t47.5 106.5q0 23 -17.5 41.5t-50.5 18.5q-40 0 -98 -26.5t-113 -70.5q-20 38 -20 72
q0 39 38 61.5t109 22.5z" />
    <glyph glyph-name="uni1EB3" unicode="&#x1eb3;" horiz-adv-x="1040" 
d="M408 100q64 0 124.5 39t106.5 105v207q-78 12 -111 12q-110 0 -184 -58t-74 -157q0 -69 36 -108.5t102 -39.5zM1053 131l6 -8q-26 -60 -91 -101.5t-134 -41.5q-92 0 -143.5 50t-51.5 138v31q-66 -101 -158 -160t-200 -59q-109 0 -175.5 60t-66.5 157q0 135 145.5 214
t454.5 103v295q0 80 -36 132.5t-88 72.5t-118 20q-43 0 -70 -20.5t-41.5 -65.5t-19 -105t-2.5 -151q-84 -7 -133 26t-49 87q0 62 81 139.5t212 134t256 56.5q246 0 243 -308l-2 -649q0 -69 64 -69q34 0 117 22zM500 1241q-122 0 -201 86.5t-90 224.5h6q64 -149 285 -149
q215 0 284 153h7q-6 -139 -84.5 -227t-206.5 -88zM516 2001q114 0 179 -53t65 -133q0 -69 -64 -132.5t-182 -91.5l-12 -75h-13l-26 184q110 27 157.5 75.5t47.5 106.5q0 23 -17.5 41.5t-50.5 18.5q-40 0 -98 -26.5t-113 -70.5q-20 38 -20 72q0 39 38 61.5t109 22.5z" />
    <glyph glyph-name="uni1EB4" unicode="&#x1eb4;" horiz-adv-x="1384" 
d="M827 565l-252 686l-231 -686h483zM1389 41l47 -8v-33h-584v33l55 8q62 11 77 32t-3 72l-139 379h-512l-127 -379q-17 -51 6 -72.5t108 -31.5l76 -8v-33h-416v33l46 8q59 10 86.5 32t44.5 72l430 1289h184l489 -1291q19 -47 47 -68.5t85 -33.5zM678 1540q-122 0 -201.5 87
t-87.5 224h6q64 -149 283 -149q218 0 287 153h6q-6 -139 -85.5 -227t-207.5 -88zM823 1894q-44 0 -92.5 20.5t-83.5 45t-77 45t-74 20.5q-74 0 -113 -83l-14 2q25 108 74 172.5t124 64.5q42 0 89.5 -21t83.5 -46.5t80.5 -46.5t80.5 -21q40 0 66.5 22.5t46.5 67.5l12 -2
q-20 -105 -72.5 -172.5t-130.5 -67.5z" />
    <glyph glyph-name="uni1EB5" unicode="&#x1eb5;" horiz-adv-x="1040" 
d="M408 100q64 0 124.5 39t106.5 105v207q-78 12 -111 12q-110 0 -184 -58t-74 -157q0 -69 36 -108.5t102 -39.5zM1053 131l6 -8q-26 -60 -91 -101.5t-134 -41.5q-92 0 -143.5 50t-51.5 138v31q-66 -101 -158 -160t-200 -59q-109 0 -175.5 60t-66.5 157q0 135 145.5 214
t454.5 103v295q0 80 -36 132.5t-88 72.5t-118 20q-43 0 -70 -20.5t-41.5 -65.5t-19 -105t-2.5 -151q-84 -7 -133 26t-49 87q0 62 81 139.5t212 134t256 56.5q246 0 243 -308l-2 -649q0 -69 64 -69q34 0 117 22zM500 1241q-122 0 -201 86.5t-90 224.5h6q64 -149 285 -149
q215 0 284 153h7q-6 -139 -84.5 -227t-206.5 -88zM643 1595q-44 0 -92.5 20.5t-84 45t-77.5 45t-74 20.5q-73 0 -112 -84l-15 3q25 108 74.5 172.5t124.5 64.5q42 0 89.5 -21t83.5 -46.5t80.5 -46.5t80.5 -21q40 0 66.5 22.5t46.5 67.5l12 -2q-20 -105 -72.5 -172.5
t-130.5 -67.5z" />
    <glyph glyph-name="uni1EB6" unicode="&#x1eb6;" horiz-adv-x="1384" 
d="M827 565l-252 686l-231 -686h483zM1389 41l47 -8v-33h-584v33l55 8q62 11 77 32t-3 72l-139 379h-512l-127 -379q-17 -51 6 -72.5t108 -31.5l76 -8v-33h-416v33l46 8q59 10 86.5 32t44.5 72l430 1289h184l489 -1291q19 -47 47 -68.5t85 -33.5zM678 1540q-122 0 -201.5 87
t-87.5 224h6q64 -149 283 -149q218 0 287 153h6q-6 -139 -85.5 -227t-207.5 -88zM610 -403q-58 0 -96.5 38.5t-38.5 94.5q0 57 38.5 95t96.5 38t96.5 -38t38.5 -95q0 -56 -38.5 -94.5t-96.5 -38.5z" />
    <glyph glyph-name="uni1EB7" unicode="&#x1eb7;" horiz-adv-x="1040" 
d="M408 100q64 0 124.5 39t106.5 105v207q-78 12 -111 12q-110 0 -184 -58t-74 -157q0 -69 36 -108.5t102 -39.5zM1053 131l6 -8q-26 -60 -91 -101.5t-134 -41.5q-92 0 -143.5 50t-51.5 138v31q-66 -101 -158 -160t-200 -59q-109 0 -175.5 60t-66.5 157q0 135 145.5 214
t454.5 103v295q0 80 -36 132.5t-88 72.5t-118 20q-43 0 -70 -20.5t-41.5 -65.5t-19 -105t-2.5 -151q-84 -7 -133 26t-49 87q0 62 81 139.5t212 134t256 56.5q246 0 243 -308l-2 -649q0 -69 64 -69q34 0 117 22zM500 1241q-122 0 -201 86.5t-90 224.5h6q64 -149 285 -149
q215 0 284 153h7q-6 -139 -84.5 -227t-206.5 -88zM487 -403q-58 0 -96.5 38.5t-38.5 94.5q0 57 38.5 95t96.5 38t97 -38t39 -95q0 -56 -39 -94.5t-97 -38.5z" />
    <glyph glyph-name="uni1EB8" unicode="&#x1eb8;" horiz-adv-x="1275" 
d="M692 -403q-58 0 -96.5 38.5t-38.5 94.5q0 57 38.5 95t96.5 38t96.5 -38t38.5 -95q0 -56 -38.5 -94.5t-96.5 -38.5zM1204 465h23l-66 -465h-1114v33l62 8q60 9 90 31t30 80v1130q0 58 -30 80t-90 31l-62 8v33h1034l68 -443l-23 -6q-27 89 -65 161t-89.5 128.5t-120.5 87.5
t-149 31h-217v-641h162q87 0 128 53t65 205h20v-557h-20q-18 154 -58.5 206t-134.5 52h-162v-670h242q96 0 167.5 20t132 67.5t104 130.5t73.5 206z" />
    <glyph glyph-name="uni1EB9" unicode="&#x1eb9;" horiz-adv-x="1038" 
d="M571 1100q-102 0 -165.5 -95t-81.5 -251h450q-9 346 -203 346zM983 274l12 -8q-54 -131 -169 -208.5t-257 -77.5q-221 0 -363.5 155.5t-142.5 407.5q0 113 35.5 218.5t99.5 189t163.5 134t218.5 50.5q98 0 175 -33t125 -91t72.5 -133.5t24.5 -164.5h-658q-2 -14 -2 -39
v-41q0 -245 104.5 -376.5t272.5 -131.5q80 0 159 40.5t130 108.5zM569 -424q-58 0 -96.5 38.5t-38.5 94.5q0 57 38.5 95t96.5 38t97 -38t39 -95q0 -56 -39 -94.5t-97 -38.5z" />
    <glyph glyph-name="uni1EBA" unicode="&#x1eba;" horiz-adv-x="1275" 
d="M717 2013q114 0 179 -53t65 -133q0 -69 -64 -132t-182 -91l-13 -76h-12l-26 184q110 27 157 75.5t47 106.5q0 23 -17 41.5t-50 18.5q-40 0 -98 -26t-113 -70q-21 40 -21 71q0 39 38.5 61.5t109.5 22.5zM1204 465h23l-66 -465h-1114v33l62 8q60 9 90 31t30 80v1130
q0 58 -30 80t-90 31l-62 8v33h1034l68 -443l-23 -6q-27 89 -65 161t-89.5 128.5t-120.5 87.5t-149 31h-217v-641h162q87 0 128 53t65 205h20v-557h-20q-18 154 -58.5 206t-134.5 52h-162v-670h242q96 0 167.5 20t132 67.5t104 130.5t73.5 206z" />
    <glyph glyph-name="uni1EBB" unicode="&#x1ebb;" horiz-adv-x="1038" 
d="M571 1100q-102 0 -165.5 -95t-81.5 -251h450q-9 346 -203 346zM983 274l12 -8q-54 -131 -169 -208.5t-257 -77.5q-221 0 -363.5 155.5t-142.5 407.5q0 113 35.5 218.5t99.5 189t163.5 134t218.5 50.5q98 0 175 -33t125 -91t72.5 -133.5t24.5 -164.5h-658q-2 -14 -2 -39
v-41q0 -245 104.5 -376.5t272.5 -131.5q80 0 159 40.5t130 108.5zM625 1704q114 0 178.5 -53t64.5 -133q0 -70 -63.5 -133t-181.5 -91l-13 -75h-12l-27 184q110 27 157.5 75.5t47.5 106.5q0 23 -17 41.5t-50 18.5q-40 0 -98 -26.5t-113 -70.5q-21 40 -21 72q0 39 38.5 61.5
t109.5 22.5z" />
    <glyph glyph-name="uni1EBC" unicode="&#x1ebc;" horiz-adv-x="1275" 
d="M483 1653q-69 0 -112 -84l-13 2q22 106 72.5 171.5t124.5 65.5q42 0 90.5 -21t84.5 -46.5t80.5 -46.5t78.5 -21q40 0 66 22.5t46 67.5l13 -2q-18 -104 -71.5 -171.5t-129.5 -67.5q-44 0 -93 20.5t-84.5 45t-78 45t-74.5 20.5zM1204 465h23l-66 -465h-1114v33l62 8
q60 9 90 31t30 80v1130q0 58 -30 80t-90 31l-62 8v33h1034l68 -443l-23 -6q-27 89 -65 161t-89.5 128.5t-120.5 87.5t-149 31h-217v-641h162q87 0 128 53t65 205h20v-557h-20q-18 154 -58.5 206t-134.5 52h-162v-670h242q96 0 167.5 20t132 67.5t104 130.5t73.5 206z" />
    <glyph glyph-name="uni1EBD" unicode="&#x1ebd;" horiz-adv-x="1038" 
d="M571 1100q-102 0 -165.5 -95t-81.5 -251h450q-9 346 -203 346zM983 274l12 -8q-54 -131 -169 -208.5t-257 -77.5q-221 0 -363.5 155.5t-142.5 407.5q0 113 35.5 218.5t99.5 189t163.5 134t218.5 50.5q98 0 175 -33t125 -91t72.5 -133.5t24.5 -164.5h-658q-2 -14 -2 -39
v-41q0 -245 104.5 -376.5t272.5 -131.5q80 0 159 40.5t130 108.5zM696 1243q-44 0 -92.5 20.5t-83.5 45t-77 45t-74 20.5q-74 0 -113 -84l-14 2q25 109 74 173.5t124 64.5q42 0 89.5 -21t83.5 -46.5t80.5 -46.5t80.5 -21q40 0 66.5 22.5t46.5 67.5l12 -2
q-20 -105 -72.5 -172.5t-130.5 -67.5z" />
    <glyph glyph-name="uni1EBE" unicode="&#x1ebe;" horiz-adv-x="1275" 
d="M997 2036h308v-4l-406 -322h-10zM1204 465h23l-66 -465h-1114v33l62 8q60 9 90 31t30 80v1130q0 58 -30 80t-90 31l-62 8v33h1034l68 -443l-23 -6q-27 89 -65 161t-89.5 128.5t-120.5 87.5t-149 31h-217v-641h162q87 0 128 53t65 205h20v-557h-20q-18 154 -58.5 206
t-134.5 52h-162v-670h242q96 0 167.5 20t132 67.5t104 130.5t73.5 206zM948 1528l-303 135l-303 -135l-6 6l307 332h4l307 -330z" />
    <glyph glyph-name="uni1EBF" unicode="&#x1ebf;" horiz-adv-x="1038" 
d="M571 1100q-102 0 -165.5 -95t-81.5 -251h450q-9 346 -203 346zM983 274l12 -8q-54 -131 -169 -208.5t-257 -77.5q-221 0 -363.5 155.5t-142.5 407.5q0 113 35.5 218.5t99.5 189t163.5 134t218.5 50.5q98 0 175 -33t125 -91t72.5 -133.5t24.5 -164.5h-658q-2 -14 -2 -39
v-41q0 -245 104.5 -376.5t272.5 -131.5q80 0 159 40.5t130 108.5zM879 1225l-7 -8l-303 135l-303 -135l-6 6l307 331h4zM813 1399l109 325h307v-4l-406 -321h-10z" />
    <glyph glyph-name="uni1EC0" unicode="&#x1ec0;" horiz-adv-x="1275" 
d="M618 2036h308l108 -326h-10l-406 322v4zM1204 465h23l-66 -465h-1114v33l62 8q60 9 90 31t30 80v1130q0 58 -30 80t-90 31l-62 8v33h1034l68 -443l-23 -6q-27 89 -65 161t-89.5 128.5t-120.5 87.5t-149 31h-217v-641h162q87 0 128 53t65 205h20v-557h-20
q-18 154 -58.5 206t-134.5 52h-162v-670h242q96 0 167.5 20t132 67.5t104 130.5t73.5 206zM948 1528l-303 135l-303 -135l-6 6l307 332h4l307 -330z" />
    <glyph glyph-name="uni1EC1" unicode="&#x1ec1;" horiz-adv-x="1038" 
d="M571 1100q-102 0 -165.5 -95t-81.5 -251h450q-9 346 -203 346zM983 274l12 -8q-54 -131 -169 -208.5t-257 -77.5q-221 0 -363.5 155.5t-142.5 407.5q0 113 35.5 218.5t99.5 189t163.5 134t218.5 50.5q98 0 175 -33t125 -91t72.5 -133.5t24.5 -164.5h-658q-2 -14 -2 -39
v-41q0 -245 104.5 -376.5t272.5 -131.5q80 0 159 40.5t130 108.5zM879 1225l-7 -8l-303 135l-303 -135l-6 6l307 331h4zM543 1720v4h307l108 -325h-10z" />
    <glyph glyph-name="uni1EC2" unicode="&#x1ec2;" horiz-adv-x="1275" 
d="M948 2195q114 0 179 -53t65 -133q0 -69 -64 -132t-182 -91l-12 -76h-12l-27 184q110 27 157.5 76t47.5 107q0 23 -17.5 41t-50.5 18q-40 0 -98 -26t-113 -70q-20 38 -20 71q0 39 38 61.5t109 22.5zM1204 465h23l-66 -465h-1114v33l62 8q60 9 90 31t30 80v1130
q0 58 -30 80t-90 31l-62 8v33h1034l68 -443l-23 -6q-27 89 -65 161t-89.5 128.5t-120.5 87.5t-149 31h-217v-641h162q87 0 128 53t65 205h20v-557h-20q-18 154 -58.5 206t-134.5 52h-162v-670h242q96 0 167.5 20t132 67.5t104 130.5t73.5 206zM948 1528l-303 135l-303 -135
l-6 6l307 332h4l307 -330z" />
    <glyph glyph-name="uni1EC3" unicode="&#x1ec3;" horiz-adv-x="1038" 
d="M571 1100q-102 0 -165.5 -95t-81.5 -251h450q-9 346 -203 346zM983 274l12 -8q-54 -131 -169 -208.5t-257 -77.5q-221 0 -363.5 155.5t-142.5 407.5q0 113 35.5 218.5t99.5 189t163.5 134t218.5 50.5q98 0 175 -33t125 -91t72.5 -133.5t24.5 -164.5h-658q-2 -14 -2 -39
v-41q0 -245 104.5 -376.5t272.5 -131.5q80 0 159 40.5t130 108.5zM879 1225l-7 -8l-303 135l-303 -135l-6 6l307 331h4zM872 1884q114 0 179 -53t65 -133q0 -69 -64 -132t-182 -91l-12 -76h-12l-27 184q110 27 157.5 75.5t47.5 106.5q0 23 -17.5 41.5t-50.5 18.5
q-40 0 -98 -26t-113 -70q-20 38 -20 71q0 39 38 61.5t109 22.5z" />
    <glyph glyph-name="uni1EC4" unicode="&#x1ec4;" horiz-adv-x="1275" 
d="M479 2038q-69 0 -112 -84l-13 2q22 106 72.5 171.5t124.5 65.5q42 0 90.5 -21t84.5 -46.5t80.5 -46.5t78.5 -21q40 0 66 22.5t46 67.5l13 -2q-18 -104 -71.5 -171.5t-129.5 -67.5q-44 0 -93 20.5t-84.5 45t-78 45t-74.5 20.5zM1204 465h23l-66 -465h-1114v33l62 8
q60 9 90 31t30 80v1130q0 58 -30 80t-90 31l-62 8v33h1034l68 -443l-23 -6q-27 89 -65 161t-89.5 128.5t-120.5 87.5t-149 31h-217v-641h162q87 0 128 53t65 205h20v-557h-20q-18 154 -58.5 206t-134.5 52h-162v-670h242q96 0 167.5 20t132 67.5t104 130.5t73.5 206z
M948 1528l-303 135l-303 -135l-6 6l307 332h4l307 -330z" />
    <glyph glyph-name="uni1EC5" unicode="&#x1ec5;" horiz-adv-x="1038" 
d="M571 1100q-102 0 -165.5 -95t-81.5 -251h450q-9 346 -203 346zM983 274l12 -8q-54 -131 -169 -208.5t-257 -77.5q-221 0 -363.5 155.5t-142.5 407.5q0 113 35.5 218.5t99.5 189t163.5 134t218.5 50.5q98 0 175 -33t125 -91t72.5 -133.5t24.5 -164.5h-658q-2 -14 -2 -39
v-41q0 -245 104.5 -376.5t272.5 -131.5q80 0 159 40.5t130 108.5zM879 1225l-7 -8l-303 135l-303 -135l-6 6l307 331h4zM403 1726q-69 0 -112 -84l-12 3q22 106 72 171.5t124 65.5q42 0 90.5 -21t84.5 -46.5t80.5 -46.5t78.5 -21q40 0 66.5 22.5t46.5 67.5l12 -2
q-18 -104 -71.5 -172t-129.5 -68q-44 0 -93 20.5t-84.5 45t-78 45t-74.5 20.5z" />
    <glyph glyph-name="uni1EC6" unicode="&#x1ec6;" horiz-adv-x="1275" 
d="M692 -403q-58 0 -96.5 38.5t-38.5 94.5q0 57 38.5 95t96.5 38t96.5 -38t38.5 -95q0 -56 -38.5 -94.5t-96.5 -38.5zM1204 465h23l-66 -465h-1114v33l62 8q60 9 90 31t30 80v1130q0 58 -30 80t-90 31l-62 8v33h1034l68 -443l-23 -6q-27 89 -65 161t-89.5 128.5t-120.5 87.5
t-149 31h-217v-641h162q87 0 128 53t65 205h20v-557h-20q-18 154 -58.5 206t-134.5 52h-162v-670h242q96 0 167.5 20t132 67.5t104 130.5t73.5 206zM948 1528l-303 135l-303 -135l-6 6l307 332h4l307 -330z" />
    <glyph glyph-name="uni1EC7" unicode="&#x1ec7;" horiz-adv-x="1038" 
d="M571 1100q-102 0 -165.5 -95t-81.5 -251h450q-9 346 -203 346zM983 274l12 -8q-54 -131 -169 -208.5t-257 -77.5q-221 0 -363.5 155.5t-142.5 407.5q0 113 35.5 218.5t99.5 189t163.5 134t218.5 50.5q98 0 175 -33t125 -91t72.5 -133.5t24.5 -164.5h-658q-2 -14 -2 -39
v-41q0 -245 104.5 -376.5t272.5 -131.5q80 0 159 40.5t130 108.5zM879 1225l-7 -8l-303 135l-303 -135l-6 6l307 331h4zM569 -424q-58 0 -96.5 38.5t-38.5 94.5q0 57 38.5 95t96.5 38t97 -38t39 -95q0 -56 -39 -94.5t-97 -38.5z" />
    <glyph glyph-name="uni1EC8" unicode="&#x1ec8;" horiz-adv-x="714" 
d="M375 2013q114 0 178.5 -53t64.5 -133q0 -69 -63.5 -132t-181.5 -91l-13 -76h-12l-26 184q110 27 157 75.5t47 106.5q0 23 -17 41.5t-50 18.5q-40 0 -98 -26t-113 -70q-21 40 -21 71q0 39 38.5 61.5t109.5 22.5zM666 0h-619v33l62 8q60 9 90 31t30 80v1130q0 58 -30 80
t-90 31l-62 8v33h619v-33l-62 -8q-60 -9 -89.5 -31t-29.5 -80v-1130q0 -58 29.5 -80t89.5 -31l62 -8v-33z" />
    <glyph glyph-name="uni1EC9" unicode="&#x1ec9;" horiz-adv-x="589" 
d="M340 1704q114 0 179 -53t65 -133q0 -69 -64 -132.5t-182 -91.5l-12 -75h-13l-26 184q110 27 157.5 75.5t47.5 106.5q0 23 -17.5 41.5t-50.5 18.5q-40 0 -98 -26.5t-113 -70.5q-20 38 -20 72q0 39 38 61.5t109 22.5zM563 0h-526v33l49 8q48 9 72 31t24 80v753l-145 105v4
l377 121h4v-983q0 -58 24 -80t72 -31l49 -8v-33z" />
    <glyph glyph-name="uni1ECA" unicode="&#x1eca;" horiz-adv-x="714" 
d="M356 -403q-58 0 -96.5 38.5t-38.5 94.5q0 57 38.5 95t96.5 38t97 -38t39 -95q0 -56 -39 -94.5t-97 -38.5zM666 0h-619v33l62 8q60 9 90 31t30 80v1130q0 58 -30 80t-90 31l-62 8v33h619v-33l-62 -8q-60 -9 -89.5 -31t-29.5 -80v-1130q0 -58 29.5 -80t89.5 -31l62 -8v-33z
" />
    <glyph glyph-name="uni1ECB" unicode="&#x1ecb;" horiz-adv-x="589" 
d="M299 -403q-58 0 -96.5 38.5t-38.5 94.5q0 57 38.5 95t96.5 38t96.5 -38t38.5 -95q0 -56 -38.5 -94.5t-96.5 -38.5zM563 0h-526v33l49 8q48 9 72 31t24 80v753l-145 105v4l377 121h4v-983q0 -58 24 -80t72 -31l49 -8v-33zM301 1253q-61 0 -101 40t-40 98q0 60 40 99.5
t101 39.5q60 0 99.5 -39.5t39.5 -99.5q0 -58 -40 -98t-99 -40z" />
    <glyph glyph-name="uni1ECC" unicode="&#x1ecc;" horiz-adv-x="1507" 
d="M754 12q189 0 297 182.5t108 522.5t-108 522t-297 182q-188 0 -297 -182t-109 -522t109 -522.5t297 -182.5zM754 1454q156 0 286.5 -59t216 -160t132.5 -234.5t47 -283.5t-47.5 -283.5t-133 -234.5t-215.5 -160t-286 -59q-203 0 -360 99.5t-239.5 266.5t-82.5 371
q0 149 47.5 282.5t133.5 234.5t216 160.5t285 59.5zM754 -424q-58 0 -97 38.5t-39 94.5q0 57 39 95t97 38t96.5 -38t38.5 -95q0 -56 -38.5 -94.5t-96.5 -38.5z" />
    <glyph glyph-name="uni1ECD" unicode="&#x1ecd;" horiz-adv-x="1179" 
d="M588 -424q-58 0 -96.5 38.5t-38.5 94.5q0 57 38.5 95t96.5 38t96.5 -38t38.5 -95q0 -56 -38.5 -94.5t-96.5 -38.5zM588 1135q230 0 378 -162t148 -414t-148 -415.5t-378 -163.5q-112 0 -209.5 43.5t-167 119.5t-109 184t-39.5 232q0 251 148.5 413.5t376.5 162.5zM588 12
q127 0 195.5 142t68.5 405q0 260 -68.5 401.5t-195.5 141.5q-124 0 -192 -141.5t-68 -401.5q0 -262 67.5 -404.5t192.5 -142.5z" />
    <glyph glyph-name="uni1ECE" unicode="&#x1ece;" horiz-adv-x="1507" 
d="M754 12q189 0 297 182.5t108 522.5t-108 522t-297 182q-188 0 -297 -182t-109 -522t109 -522.5t297 -182.5zM754 1454q156 0 286.5 -59t216 -160t132.5 -234.5t47 -283.5t-47.5 -283.5t-133 -234.5t-215.5 -160t-286 -59q-203 0 -360 99.5t-239.5 266.5t-82.5 371
q0 149 47.5 282.5t133.5 234.5t216 160.5t285 59.5zM772 2013q114 0 179 -53t65 -133q0 -69 -64 -132t-182 -91l-12 -76h-13l-26 184q110 27 157.5 75.5t47.5 106.5q0 23 -17.5 41.5t-50.5 18.5q-40 0 -98 -26t-113 -70q-20 38 -20 71q0 39 38 61.5t109 22.5z" />
    <glyph glyph-name="uni1ECF" unicode="&#x1ecf;" horiz-adv-x="1179" 
d="M588 12q127 0 195.5 142t68.5 405q0 260 -68.5 401.5t-195.5 141.5q-124 0 -192 -141.5t-68 -401.5q0 -262 67.5 -404.5t192.5 -142.5zM588 1135q230 0 378 -162t148 -414t-148 -415.5t-378 -163.5q-112 0 -209.5 43.5t-167 119.5t-109 184t-39.5 232q0 251 148.5 413.5
t376.5 162.5zM608 1704q114 0 179 -53t65 -133q0 -69 -64 -132.5t-182 -91.5l-12 -75h-12l-27 184q110 27 157.5 75.5t47.5 106.5q0 23 -17.5 41.5t-50.5 18.5q-40 0 -98 -26.5t-113 -70.5q-20 38 -20 72q0 39 38 61.5t109 22.5z" />
    <glyph glyph-name="uni1ED0" unicode="&#x1ed0;" horiz-adv-x="1507" 
d="M754 12q189 0 297 182.5t108 522.5t-108 522t-297 182q-188 0 -297 -182t-109 -522t109 -522.5t297 -182.5zM754 1454q156 0 286.5 -59t216 -160t132.5 -234.5t47 -283.5t-47.5 -283.5t-133 -234.5t-215.5 -160t-286 -59q-203 0 -360 99.5t-239.5 266.5t-82.5 371
q0 149 47.5 282.5t133.5 234.5t216 160.5t285 59.5zM1055 1528l-301 135l-303 -135l-7 6l308 332h4l305 -330zM997 1710l109 326h307v-4l-405 -322h-11z" />
    <glyph glyph-name="uni1ED1" unicode="&#x1ed1;" horiz-adv-x="1179" 
d="M588 12q127 0 195.5 142t68.5 405q0 260 -68.5 401.5t-195.5 141.5q-124 0 -192 -141.5t-68 -401.5q0 -262 67.5 -404.5t192.5 -142.5zM588 1135q230 0 378 -162t148 -414t-148 -415.5t-378 -163.5q-112 0 -209.5 43.5t-167 119.5t-109 184t-39.5 232q0 251 148.5 413.5
t376.5 162.5zM893 1217l-303 135l-303 -135l-6 6l307 331h4l307 -329zM834 1399l108 325h307v-4l-405 -321h-10z" />
    <glyph glyph-name="uni1ED2" unicode="&#x1ed2;" horiz-adv-x="1507" 
d="M754 12q189 0 297 182.5t108 522.5t-108 522t-297 182q-188 0 -297 -182t-109 -522t109 -522.5t297 -182.5zM754 1454q156 0 286.5 -59t216 -160t132.5 -234.5t47 -283.5t-47.5 -283.5t-133 -234.5t-215.5 -160t-286 -59q-203 0 -360 99.5t-239.5 266.5t-82.5 371
q0 149 47.5 282.5t133.5 234.5t216 160.5t285 59.5zM1055 1528l-301 135l-303 -135l-7 6l308 332h4l305 -330zM727 2032v4h307l109 -326h-10z" />
    <glyph glyph-name="uni1ED3" unicode="&#x1ed3;" horiz-adv-x="1179" 
d="M588 12q127 0 195.5 142t68.5 405q0 260 -68.5 401.5t-195.5 141.5q-124 0 -192 -141.5t-68 -401.5q0 -262 67.5 -404.5t192.5 -142.5zM588 1135q230 0 378 -162t148 -414t-148 -415.5t-378 -163.5q-112 0 -209.5 43.5t-167 119.5t-109 184t-39.5 232q0 251 148.5 413.5
t376.5 162.5zM893 1217l-303 135l-303 -135l-6 6l307 331h4l307 -329zM563 1720v4h307l109 -325h-10z" />
    <glyph glyph-name="uni1ED4" unicode="&#x1ed4;" horiz-adv-x="1507" 
d="M754 12q189 0 297 182.5t108 522.5t-108 522t-297 182q-188 0 -297 -182t-109 -522t109 -522.5t297 -182.5zM754 1454q156 0 286.5 -59t216 -160t132.5 -234.5t47 -283.5t-47.5 -283.5t-133 -234.5t-215.5 -160t-286 -59q-203 0 -360 99.5t-239.5 266.5t-82.5 371
q0 149 47.5 282.5t133.5 234.5t216 160.5t285 59.5zM1055 1528l-301 135l-303 -135l-7 6l308 332h4l305 -330zM1057 2195q114 0 178.5 -53t64.5 -133q0 -69 -63.5 -132t-181.5 -91l-13 -76h-12l-26 184q110 27 157 76t47 107q0 23 -17 41t-50 18q-40 0 -98 -26t-113 -70
q-21 40 -21 71q0 39 38.5 61.5t109.5 22.5z" />
    <glyph glyph-name="uni1ED5" unicode="&#x1ed5;" horiz-adv-x="1179" 
d="M588 12q127 0 195.5 142t68.5 405q0 260 -68.5 401.5t-195.5 141.5q-124 0 -192 -141.5t-68 -401.5q0 -262 67.5 -404.5t192.5 -142.5zM588 1135q230 0 378 -162t148 -414t-148 -415.5t-378 -163.5q-112 0 -209.5 43.5t-167 119.5t-109 184t-39.5 232q0 251 148.5 413.5
t376.5 162.5zM893 1217l-303 135l-303 -135l-6 6l307 331h4l307 -329zM893 1884q114 0 179 -53t65 -133q0 -69 -64 -132t-182 -91l-12 -76h-13l-26 184q110 27 157 75.5t47 106.5q0 23 -17 41.5t-50 18.5q-40 0 -98 -26t-113 -70q-21 40 -21 71q0 39 38.5 61.5t109.5 22.5z
" />
    <glyph glyph-name="uni1ED6" unicode="&#x1ed6;" horiz-adv-x="1507" 
d="M754 12q189 0 297 182.5t108 522.5t-108 522t-297 182q-188 0 -297 -182t-109 -522t109 -522.5t297 -182.5zM754 1454q156 0 286.5 -59t216 -160t132.5 -234.5t47 -283.5t-47.5 -283.5t-133 -234.5t-215.5 -160t-286 -59q-203 0 -360 99.5t-239.5 266.5t-82.5 371
q0 149 47.5 282.5t133.5 234.5t216 160.5t285 59.5zM1055 1528l-301 135l-303 -135l-7 6l308 332h4l305 -330zM588 2038q-70 0 -113 -84l-12 2q22 106 72 171.5t124 65.5q42 0 90.5 -21t84.5 -46.5t80.5 -46.5t78.5 -21q40 0 66.5 22.5t46.5 67.5l12 -2q-18 -104 -71 -171.5
t-129 -67.5q-44 0 -93 20.5t-84.5 45t-78 45t-74.5 20.5z" />
    <glyph glyph-name="uni1ED7" unicode="&#x1ed7;" horiz-adv-x="1179" 
d="M588 12q127 0 195.5 142t68.5 405q0 260 -68.5 401.5t-195.5 141.5q-124 0 -192 -141.5t-68 -401.5q0 -262 67.5 -404.5t192.5 -142.5zM588 1135q230 0 378 -162t148 -414t-148 -415.5t-378 -163.5q-112 0 -209.5 43.5t-167 119.5t-109 184t-39.5 232q0 251 148.5 413.5
t376.5 162.5zM893 1217l-303 135l-303 -135l-6 6l307 331h4l307 -329zM424 1726q-70 0 -113 -84l-12 3q22 106 72.5 171.5t124.5 65.5q53 0 114.5 -34t118.5 -67.5t100 -33.5q40 0 66.5 22.5t46.5 67.5l12 -2q-18 -104 -71 -172t-129 -68q-44 0 -93 20.5t-84.5 45t-78 45
t-74.5 20.5z" />
    <glyph glyph-name="uni1ED8" unicode="&#x1ed8;" horiz-adv-x="1507" 
d="M754 12q189 0 297 182.5t108 522.5t-108 522t-297 182q-188 0 -297 -182t-109 -522t109 -522.5t297 -182.5zM754 1454q156 0 286.5 -59t216 -160t132.5 -234.5t47 -283.5t-47.5 -283.5t-133 -234.5t-215.5 -160t-286 -59q-203 0 -360 99.5t-239.5 266.5t-82.5 371
q0 149 47.5 282.5t133.5 234.5t216 160.5t285 59.5zM1055 1528l-301 135l-303 -135l-7 6l308 332h4l305 -330zM754 -424q-58 0 -97 38.5t-39 94.5q0 57 39 95t97 38t96.5 -38t38.5 -95q0 -56 -38.5 -94.5t-96.5 -38.5z" />
    <glyph glyph-name="uni1ED9" unicode="&#x1ed9;" horiz-adv-x="1179" 
d="M588 12q127 0 195.5 142t68.5 405q0 260 -68.5 401.5t-195.5 141.5q-124 0 -192 -141.5t-68 -401.5q0 -262 67.5 -404.5t192.5 -142.5zM588 1135q230 0 378 -162t148 -414t-148 -415.5t-378 -163.5q-112 0 -209.5 43.5t-167 119.5t-109 184t-39.5 232q0 251 148.5 413.5
t376.5 162.5zM893 1217l-303 135l-303 -135l-6 6l307 331h4l307 -329zM588 -424q-58 0 -96.5 38.5t-38.5 94.5q0 57 38.5 95t96.5 38t96.5 -38t38.5 -95q0 -56 -38.5 -94.5t-96.5 -38.5z" />
    <glyph glyph-name="uni1EDA" unicode="&#x1eda;" horiz-adv-x="1507" 
d="M754 12q189 0 297 182.5t108 522.5t-108 522t-297 182q-188 0 -297 -182t-109 -522t109 -522.5t297 -182.5zM754 1454q283 0 473 -190q92 63 92 133q0 40 -34.5 77t-94.5 62q0 50 34.5 84.5t82.5 34.5q56 0 91.5 -41t35.5 -101q0 -79 -48.5 -151.5t-138.5 -120.5
q96 -102 142.5 -238t46.5 -286t-47.5 -283.5t-133 -234.5t-215.5 -160t-286 -59q-203 0 -360 99.5t-239.5 266.5t-82.5 371q0 149 47.5 282.5t133.5 234.5t216 160.5t285 59.5zM717 1524l108 325h308v-4l-406 -321h-10z" />
    <glyph glyph-name="uni1EDB" unicode="&#x1edb;" horiz-adv-x="1179" 
d="M588 12q127 0 195.5 142t68.5 405q0 260 -68.5 401.5t-195.5 141.5q-124 0 -192 -141.5t-68 -401.5q0 -262 67.5 -404.5t192.5 -142.5zM588 1135q231 0 383 -168q78 59 78 123q0 40 -34.5 77t-94.5 62q0 50 34 84.5t82 34.5q56 0 91.5 -41t35.5 -101q0 -75 -44.5 -145.5
t-127.5 -118.5q123 -155 123 -383q0 -252 -148 -415.5t-378 -163.5q-112 0 -209.5 43.5t-167 119.5t-109 184t-39.5 232q0 251 148.5 413.5t376.5 162.5zM535 1210l106 326h307v-4l-405 -322h-8z" />
    <glyph glyph-name="uni1EDC" unicode="&#x1edc;" horiz-adv-x="1507" 
d="M754 12q189 0 297 182.5t108 522.5t-108 522t-297 182q-188 0 -297 -182t-109 -522t109 -522.5t297 -182.5zM754 1454q283 0 473 -190q92 63 92 133q0 40 -34.5 77t-94.5 62q0 50 34.5 84.5t82.5 34.5q56 0 91.5 -41t35.5 -101q0 -79 -48.5 -151.5t-138.5 -120.5
q96 -102 142.5 -238t46.5 -286t-47.5 -283.5t-133 -234.5t-215.5 -160t-286 -59q-203 0 -360 99.5t-239.5 266.5t-82.5 371q0 149 47.5 282.5t133.5 234.5t216 160.5t285 59.5zM817 1522l-405 321v4h307l108 -325h-10z" />
    <glyph glyph-name="uni1EDD" unicode="&#x1edd;" horiz-adv-x="1179" 
d="M588 12q127 0 195.5 142t68.5 405q0 260 -68.5 401.5t-195.5 141.5q-124 0 -192 -141.5t-68 -401.5q0 -262 67.5 -404.5t192.5 -142.5zM588 1135q231 0 383 -168q78 59 78 123q0 40 -34.5 77t-94.5 62q0 50 34 84.5t82 34.5q56 0 91.5 -41t35.5 -101q0 -75 -44.5 -145.5
t-127.5 -118.5q123 -155 123 -383q0 -252 -148 -415.5t-378 -163.5q-112 0 -209.5 43.5t-167 119.5t-109 184t-39.5 232q0 251 148.5 413.5t376.5 162.5zM637 1210l-406 322v4h308l108 -326h-10z" />
    <glyph glyph-name="uni1EDE" unicode="&#x1ede;" horiz-adv-x="1507" 
d="M754 12q189 0 297 182.5t108 522.5t-108 522t-297 182q-188 0 -297 -182t-109 -522t109 -522.5t297 -182.5zM754 1454q283 0 473 -190q92 63 92 133q0 40 -34.5 77t-94.5 62q0 50 34.5 84.5t82.5 34.5q56 0 91.5 -41t35.5 -101q0 -79 -48.5 -151.5t-138.5 -120.5
q96 -102 142.5 -238t46.5 -286t-47.5 -283.5t-133 -234.5t-215.5 -160t-286 -59q-203 0 -360 99.5t-239.5 266.5t-82.5 371q0 149 47.5 282.5t133.5 234.5t216 160.5t285 59.5zM772 2013q114 0 179 -53t65 -133q0 -69 -64 -132t-182 -91l-12 -76h-13l-26 184
q110 27 157.5 75.5t47.5 106.5q0 23 -17.5 41.5t-50.5 18.5q-40 0 -98 -26t-113 -70q-20 38 -20 71q0 39 38 61.5t109 22.5z" />
    <glyph glyph-name="uni1EDF" unicode="&#x1edf;" horiz-adv-x="1179" 
d="M588 12q127 0 195.5 142t68.5 405q0 260 -68.5 401.5t-195.5 141.5q-124 0 -192 -141.5t-68 -401.5q0 -262 67.5 -404.5t192.5 -142.5zM588 1135q231 0 383 -168q78 59 78 123q0 40 -34.5 77t-94.5 62q0 50 34 84.5t82 34.5q56 0 91.5 -41t35.5 -101q0 -75 -44.5 -145.5
t-127.5 -118.5q123 -155 123 -383q0 -252 -148 -415.5t-378 -163.5q-112 0 -209.5 43.5t-167 119.5t-109 184t-39.5 232q0 251 148.5 413.5t376.5 162.5zM608 1704q114 0 179 -53t65 -133q0 -69 -64 -132.5t-182 -91.5l-12 -75h-12l-27 184q110 27 157.5 75.5t47.5 106.5
q0 23 -17.5 41.5t-50.5 18.5q-40 0 -98 -26.5t-113 -70.5q-20 38 -20 72q0 39 38 61.5t109 22.5z" />
    <glyph glyph-name="uni1EE0" unicode="&#x1ee0;" horiz-adv-x="1507" 
d="M754 12q189 0 297 182.5t108 522.5t-108 522t-297 182q-188 0 -297 -182t-109 -522t109 -522.5t297 -182.5zM754 1454q283 0 473 -190q92 63 92 133q0 40 -34.5 77t-94.5 62q0 50 34.5 84.5t82.5 34.5q56 0 91.5 -41t35.5 -101q0 -79 -48.5 -151.5t-138.5 -120.5
q96 -102 142.5 -238t46.5 -286t-47.5 -283.5t-133 -234.5t-215.5 -160t-286 -59q-203 0 -360 99.5t-239.5 266.5t-82.5 371q0 149 47.5 282.5t133.5 234.5t216 160.5t285 59.5zM883 1522q-44 0 -92.5 20.5t-84 45t-77.5 45t-74 20.5q-74 0 -113 -84l-14 2q25 108 74.5 172.5
t124.5 64.5q42 0 89.5 -21t83.5 -46.5t80.5 -46.5t80.5 -21q40 0 66 22.5t46 67.5l12 -2q-20 -105 -72 -172t-130 -67z" />
    <glyph glyph-name="uni1EE1" unicode="&#x1ee1;" horiz-adv-x="1179" 
d="M588 12q127 0 195.5 142t68.5 405q0 260 -68.5 401.5t-195.5 141.5q-124 0 -192 -141.5t-68 -401.5q0 -262 67.5 -404.5t192.5 -142.5zM588 1135q231 0 383 -168q78 59 78 123q0 40 -34.5 77t-94.5 62q0 50 34 84.5t82 34.5q56 0 91.5 -41t35.5 -101q0 -75 -44.5 -145.5
t-127.5 -118.5q123 -155 123 -383q0 -252 -148 -415.5t-378 -163.5q-112 0 -209.5 43.5t-167 119.5t-109 184t-39.5 232q0 251 148.5 413.5t376.5 162.5zM723 1264q-44 0 -93 20.5t-84.5 45t-78 45t-74.5 20.5q-69 0 -112 -84l-13 2q22 106 72.5 171.5t124.5 65.5
q42 0 90.5 -21t84.5 -46.5t80.5 -46.5t78.5 -21q40 0 66 22.5t46 67.5l13 -2q-18 -104 -71.5 -171.5t-129.5 -67.5z" />
    <glyph glyph-name="uni1EE2" unicode="&#x1ee2;" horiz-adv-x="1507" 
d="M754 12q189 0 297 182.5t108 522.5t-108 522t-297 182q-188 0 -297 -182t-109 -522t109 -522.5t297 -182.5zM754 1454q283 0 473 -190q92 63 92 133q0 40 -34.5 77t-94.5 62q0 50 34.5 84.5t82.5 34.5q56 0 91.5 -41t35.5 -101q0 -79 -48.5 -151.5t-138.5 -120.5
q96 -102 142.5 -238t46.5 -286t-47.5 -283.5t-133 -234.5t-215.5 -160t-286 -59q-203 0 -360 99.5t-239.5 266.5t-82.5 371q0 149 47.5 282.5t133.5 234.5t216 160.5t285 59.5zM754 -424q-58 0 -97 38.5t-39 94.5q0 57 39 95t97 38t96.5 -38t38.5 -95q0 -56 -38.5 -94.5
t-96.5 -38.5z" />
    <glyph glyph-name="uni1EE3" unicode="&#x1ee3;" horiz-adv-x="1179" 
d="M588 12q127 0 195.5 142t68.5 405q0 260 -68.5 401.5t-195.5 141.5q-124 0 -192 -141.5t-68 -401.5q0 -262 67.5 -404.5t192.5 -142.5zM588 1135q231 0 383 -168q78 59 78 123q0 40 -34.5 77t-94.5 62q0 50 34 84.5t82 34.5q56 0 91.5 -41t35.5 -101q0 -75 -44.5 -145.5
t-127.5 -118.5q123 -155 123 -383q0 -252 -148 -415.5t-378 -163.5q-112 0 -209.5 43.5t-167 119.5t-109 184t-39.5 232q0 251 148.5 413.5t376.5 162.5zM588 -424q-58 0 -96.5 38.5t-38.5 94.5q0 57 38.5 95t96.5 38t96.5 -38t38.5 -95q0 -56 -38.5 -94.5t-96.5 -38.5z" />
    <glyph glyph-name="uni1EE4" unicode="&#x1ee4;" horiz-adv-x="1468" 
d="M754 -424q-58 0 -97 38.5t-39 94.5q0 57 39 95t97 38t96.5 -38t38.5 -95q0 -56 -38.5 -94.5t-96.5 -38.5zM743 -20q-250 0 -398 143t-148 391v768q0 58 -27 80t-82 31l-55 8v33h604v-33l-62 -8q-60 -9 -89 -31t-29 -80v-782q0 -210 101 -326.5t286 -116.5
q181 0 280 117.5t99 323.5v784q0 58 -32 80t-97 31l-66 8v33h440v-33l-65 -8q-67 -9 -100 -31t-33 -80v-784q0 -242 -140.5 -380t-386.5 -138z" />
    <glyph glyph-name="uni1EE5" unicode="&#x1ee5;" horiz-adv-x="1253" 
d="M651 -424q-58 0 -96.5 38.5t-38.5 94.5q0 57 38.5 95t96.5 38t96.5 -38t38.5 -95q0 -56 -38.5 -94.5t-96.5 -38.5zM1225 82l6 -33l-385 -69v210q-145 -210 -365 -210q-153 0 -236 95t-83 259v608q0 58 -23 75t-71 17l-50 -2l-6 33l387 70v-809q0 -104 50 -164t141 -60
q132 0 256 136v704q0 58 -23 75t-71 17l-50 -2l-6 33l385 70v-963q0 -58 23 -75t72 -17z" />
    <glyph glyph-name="uni1EE6" unicode="&#x1ee6;" horiz-adv-x="1468" 
d="M834 2013q114 0 178.5 -53t64.5 -133q0 -69 -64 -132t-182 -91l-12 -76h-12l-27 184q110 27 157.5 75.5t47.5 106.5q0 23 -17 41.5t-50 18.5q-40 0 -98 -26t-113 -70q-21 40 -21 71q0 39 38.5 61.5t109.5 22.5zM743 -20q-250 0 -398 143t-148 391v768q0 58 -27 80t-82 31
l-55 8v33h604v-33l-62 -8q-60 -9 -89 -31t-29 -80v-782q0 -210 101 -326.5t286 -116.5q181 0 280 117.5t99 323.5v784q0 58 -32 80t-97 31l-66 8v33h440v-33l-65 -8q-67 -9 -100 -31t-33 -80v-784q0 -242 -140.5 -380t-386.5 -138z" />
    <glyph glyph-name="uni1EE7" unicode="&#x1ee7;" horiz-adv-x="1253" 
d="M649 1704q114 0 179 -53t65 -133q0 -69 -64 -132.5t-182 -91.5l-12 -75h-12l-27 184q110 27 157.5 75.5t47.5 106.5q0 23 -17.5 41.5t-50.5 18.5q-40 0 -98 -26.5t-113 -70.5q-20 38 -20 72q0 39 38 61.5t109 22.5zM1225 82l6 -33l-385 -69v210q-145 -210 -365 -210
q-153 0 -236 95t-83 259v608q0 58 -23 75t-71 17l-50 -2l-6 33l387 70v-809q0 -104 50 -164t141 -60q132 0 256 136v704q0 58 -23 75t-71 17l-50 -2l-6 33l385 70v-963q0 -58 23 -75t72 -17z" />
    <glyph glyph-name="uni1EE8" unicode="&#x1ee8;" horiz-adv-x="1468" 
d="M860 1849h307v-4l-405 -321h-10zM743 -20q-250 0 -398 143t-148 391v768q0 58 -27 80t-82 31l-55 8v33h604v-33l-62 -8q-60 -9 -89 -31t-29 -80v-782q0 -210 101 -326.5t286 -116.5q181 0 280 117.5t99 323.5v784q0 58 -32 80t-97 31l-66 8v33h297v-33q-39 -12 -47 -29.5
t-8 -74.5v-15v-49q72 33 111.5 75t39.5 89q0 40 -34.5 77t-94.5 62q0 50 34.5 84.5t82.5 34.5q56 0 91.5 -41t35.5 -101q0 -96 -70 -180.5t-196 -124.5v-710q0 -242 -140.5 -380t-386.5 -138z" />
    <glyph glyph-name="uni1EE9" unicode="&#x1ee9;" horiz-adv-x="1253" 
d="M987 1536v-4l-405 -322h-11l109 326h307zM1225 82l6 -33l-385 -69v210q-145 -210 -365 -210q-153 0 -236 95t-83 259v608q0 58 -23 75t-71 17l-50 -2l-6 33l387 70v-809q0 -104 50 -164t141 -60q132 0 256 136v704q0 58 -23 75t-71 17l-50 -2l-6 33l385 70v-209
q152 70 152 164q0 40 -34.5 77t-94.5 62q0 50 34.5 84.5t82.5 34.5q56 0 91.5 -41t35.5 -101q0 -96 -70.5 -180.5t-196.5 -124.5v-729q0 -58 23 -75t72 -17z" />
    <glyph glyph-name="uni1EEA" unicode="&#x1eea;" horiz-adv-x="1468" 
d="M467 1843v4h307l109 -325h-11zM743 -20q-250 0 -398 143t-148 391v768q0 58 -27 80t-82 31l-55 8v33h604v-33l-62 -8q-60 -9 -89 -31t-29 -80v-782q0 -210 101 -326.5t286 -116.5q181 0 280 117.5t99 323.5v784q0 58 -32 80t-97 31l-66 8v33h297v-33q-39 -12 -47 -29.5
t-8 -74.5v-15v-49q72 33 111.5 75t39.5 89q0 40 -34.5 77t-94.5 62q0 50 34.5 84.5t82.5 34.5q56 0 91.5 -41t35.5 -101q0 -96 -70 -180.5t-196 -124.5v-710q0 -242 -140.5 -380t-386.5 -138z" />
    <glyph glyph-name="uni1EEB" unicode="&#x1eeb;" horiz-adv-x="1253" 
d="M575 1536l109 -326h-8l-408 322v4h307zM1225 82l6 -33l-385 -69v210q-145 -210 -365 -210q-153 0 -236 95t-83 259v608q0 58 -23 75t-71 17l-50 -2l-6 33l387 70v-809q0 -104 50 -164t141 -60q132 0 256 136v704q0 58 -23 75t-71 17l-50 -2l-6 33l385 70v-209
q152 70 152 164q0 40 -34.5 77t-94.5 62q0 50 34.5 84.5t82.5 34.5q56 0 91.5 -41t35.5 -101q0 -96 -70.5 -180.5t-196.5 -124.5v-729q0 -58 23 -75t72 -17z" />
    <glyph glyph-name="uni1EEC" unicode="&#x1eec;" horiz-adv-x="1468" 
d="M834 2013q114 0 178.5 -53t64.5 -133q0 -69 -64 -132t-182 -91l-12 -76h-12l-27 184q110 27 157.5 75.5t47.5 106.5q0 23 -17 41.5t-50 18.5q-40 0 -98 -26t-113 -70q-21 40 -21 71q0 39 38.5 61.5t109.5 22.5zM743 -20q-250 0 -398 143t-148 391v768q0 58 -27 80t-82 31
l-55 8v33h604v-33l-62 -8q-60 -9 -89 -31t-29 -80v-782q0 -210 101 -326.5t286 -116.5q181 0 280 117.5t99 323.5v784q0 58 -32 80t-97 31l-66 8v33h297v-33q-39 -12 -47 -29.5t-8 -74.5v-15v-49q72 33 111.5 75t39.5 89q0 40 -34.5 77t-94.5 62q0 50 34.5 84.5t82.5 34.5
q56 0 91.5 -41t35.5 -101q0 -96 -70 -180.5t-196 -124.5v-710q0 -242 -140.5 -380t-386.5 -138z" />
    <glyph glyph-name="uni1EED" unicode="&#x1eed;" horiz-adv-x="1253" 
d="M649 1704q114 0 179 -53t65 -133q0 -69 -64 -132.5t-182 -91.5l-12 -75h-12l-27 184q110 27 157.5 75.5t47.5 106.5q0 23 -17.5 41.5t-50.5 18.5q-40 0 -98 -26.5t-113 -70.5q-20 38 -20 72q0 39 38 61.5t109 22.5zM1225 82l6 -33l-385 -69v210q-145 -210 -365 -210
q-153 0 -236 95t-83 259v608q0 58 -23 75t-71 17l-50 -2l-6 33l387 70v-809q0 -104 50 -164t141 -60q132 0 256 136v704q0 58 -23 75t-71 17l-50 -2l-6 33l385 70v-209q152 70 152 164q0 40 -34.5 77t-94.5 62q0 50 34.5 84.5t82.5 34.5q56 0 91.5 -41t35.5 -101
q0 -96 -70.5 -180.5t-196.5 -124.5v-729q0 -58 23 -75t72 -17z" />
    <glyph glyph-name="uni1EEE" unicode="&#x1eee;" horiz-adv-x="1468" 
d="M565 1653q-69 0 -112 -84l-13 2q22 106 72.5 171.5t124.5 65.5q42 0 90.5 -21t84.5 -46.5t80.5 -46.5t78.5 -21q40 0 66 22.5t46 67.5l13 -2q-18 -104 -71.5 -171.5t-129.5 -67.5q-44 0 -93 20.5t-84.5 45t-78 45t-74.5 20.5zM743 -20q-250 0 -398 143t-148 391v768
q0 58 -27 80t-82 31l-55 8v33h604v-33l-62 -8q-60 -9 -89 -31t-29 -80v-782q0 -210 101 -326.5t286 -116.5q181 0 280 117.5t99 323.5v784q0 58 -32 80t-97 31l-66 8v33h297v-33q-39 -12 -47 -29.5t-8 -74.5v-15v-49q72 33 111.5 75t39.5 89q0 40 -34.5 77t-94.5 62
q0 50 34.5 84.5t82.5 34.5q56 0 91.5 -41t35.5 -101q0 -96 -70 -180.5t-196 -124.5v-710q0 -242 -140.5 -380t-386.5 -138z" />
    <glyph glyph-name="uni1EEF" unicode="&#x1eef;" horiz-adv-x="1253" 
d="M1225 82l6 -33l-385 -69v210q-145 -210 -365 -210q-153 0 -236 95t-83 259v608q0 58 -23 75t-71 17l-50 -2l-6 33l387 70v-809q0 -104 50 -164t141 -60q132 0 256 136v704q0 58 -23 75t-71 17l-50 -2l-6 33l385 70v-209q152 70 152 164q0 40 -34.5 77t-94.5 62
q0 50 34.5 84.5t82.5 34.5q56 0 91.5 -41t35.5 -101q0 -96 -70.5 -180.5t-196.5 -124.5v-729q0 -58 23 -75t72 -17zM752 1243q-44 0 -92.5 20.5t-84 45t-77.5 45t-74 20.5q-74 0 -113 -84l-14 2q25 108 74.5 173t124.5 65q42 0 89.5 -21t83 -46.5t80 -46.5t80.5 -21
q40 0 66.5 22.5t46.5 67.5l12 -2q-20 -105 -72 -172.5t-130 -67.5z" />
    <glyph glyph-name="uni1EF0" unicode="&#x1ef0;" horiz-adv-x="1468" 
d="M754 -424q-58 0 -97 38.5t-39 94.5q0 57 39 95t97 38t96.5 -38t38.5 -95q0 -56 -38.5 -94.5t-96.5 -38.5zM743 -20q-250 0 -398 143t-148 391v768q0 58 -27 80t-82 31l-55 8v33h604v-33l-62 -8q-60 -9 -89 -31t-29 -80v-782q0 -210 101 -326.5t286 -116.5
q181 0 280 117.5t99 323.5v784q0 58 -32 80t-97 31l-66 8v33h297v-33q-39 -12 -47 -29.5t-8 -74.5v-15v-49q72 33 111.5 75t39.5 89q0 40 -34.5 77t-94.5 62q0 50 34.5 84.5t82.5 34.5q56 0 91.5 -41t35.5 -101q0 -96 -70 -180.5t-196 -124.5v-710q0 -242 -140.5 -380
t-386.5 -138z" />
    <glyph glyph-name="uni1EF1" unicode="&#x1ef1;" horiz-adv-x="1253" 
d="M651 -424q-58 0 -96.5 38.5t-38.5 94.5q0 57 38.5 95t96.5 38t96.5 -38t38.5 -95q0 -56 -38.5 -94.5t-96.5 -38.5zM1225 82l6 -33l-385 -69v210q-145 -210 -365 -210q-153 0 -236 95t-83 259v608q0 58 -23 75t-71 17l-50 -2l-6 33l387 70v-809q0 -104 50 -164t141 -60
q132 0 256 136v704q0 58 -23 75t-71 17l-50 -2l-6 33l385 70v-209q152 70 152 164q0 40 -34.5 77t-94.5 62q0 50 34.5 84.5t82.5 34.5q56 0 91.5 -41t35.5 -101q0 -96 -70.5 -180.5t-196.5 -124.5v-729q0 -58 23 -75t72 -17z" />
    <glyph glyph-name="Ygrave" unicode="&#x1ef2;" horiz-adv-x="1325" 
d="M938 1401v33h410v-33l-41 -8q-55 -12 -86 -33.5t-54 -63.5l-364 -661v-483q0 -58 33 -80t100 -31l65 -8v-33h-653v33l68 8q65 9 98 31t33 80v473l-426 675q-46 71 -117 93l-29 8v33h566v-33l-62 -8q-29 -4 -44.5 -8.5t-26 -14.5t-7.5 -27t19 -43l371 -591l325 587
q28 51 2 69.5t-102 27.5zM698 1847l109 -325h-8l-408 321v4h307z" />
    <glyph glyph-name="ygrave" unicode="&#x1ef3;" horiz-adv-x="1067" 
d="M739 1081v33h348v-33l-34 -8q-26 -6 -42 -13.5t-36 -30.5t-35 -60l-350 -940q-15 -39 -25 -64.5t-30.5 -71.5t-39 -78t-46 -70.5t-55 -62t-62.5 -39.5t-72 -16q-73 0 -123.5 43t-50.5 115q0 53 29 109q106 -55 162 -78t92 -23q53 0 84.5 46t72.5 165l-424 969
q-15 35 -34.5 57.5t-32.5 29t-33 13.5l-29 8v33h529v-33l-62 -8q-24 -3 -37.5 -6.5t-27 -10.5t-18 -17.5t-3.5 -27t11 -40.5l272 -676l248 674q9 23 9.5 40.5t-4.5 28t-19.5 17.5t-30 11t-39.5 7zM530 1536l107 -326h-8l-406 322v4h307z" />
    <glyph glyph-name="uni1EF4" unicode="&#x1ef4;" horiz-adv-x="1325" 
d="M674 -403q-58 0 -96.5 38.5t-38.5 94.5q0 57 38.5 95t96.5 38t96.5 -38t38.5 -95q0 -56 -38.5 -94.5t-96.5 -38.5zM938 1401v33h410v-33l-41 -8q-55 -12 -86 -33.5t-54 -63.5l-364 -661v-483q0 -58 33 -80t100 -31l65 -8v-33h-653v33l68 8q65 9 98 31t33 80v473l-426 675
q-46 71 -117 93l-29 8v33h566v-33l-62 -8q-29 -4 -44.5 -8.5t-26 -14.5t-7.5 -27t19 -43l371 -591l325 587q28 51 2 69.5t-102 27.5z" />
    <glyph glyph-name="uni1EF5" unicode="&#x1ef5;" horiz-adv-x="1067" 
d="M762 -424q-58 0 -96.5 38.5t-38.5 94.5q0 57 38.5 95t96.5 38t96.5 -38t38.5 -95q0 -56 -38.5 -94.5t-96.5 -38.5zM739 1081v33h348v-33l-34 -8q-26 -6 -42 -13.5t-36 -30.5t-35 -60l-350 -940q-15 -39 -25 -64.5t-30.5 -71.5t-39 -78t-46 -70.5t-55 -62t-62.5 -39.5
t-72 -16q-73 0 -123.5 43t-50.5 115q0 53 29 109q106 -55 162 -78t92 -23q53 0 84.5 46t72.5 165l-424 969q-15 35 -34.5 57.5t-32.5 29t-33 13.5l-29 8v33h529v-33l-62 -8q-24 -3 -37.5 -6.5t-27 -10.5t-18 -17.5t-3.5 -27t11 -40.5l272 -676l248 674q9 23 9.5 40.5
t-4.5 28t-19.5 17.5t-30 11t-39.5 7z" />
    <glyph glyph-name="uni1EF6" unicode="&#x1ef6;" horiz-adv-x="1325" 
d="M754 2013q114 0 178.5 -53t64.5 -133q0 -69 -63.5 -132t-181.5 -91l-13 -76h-12l-27 184q110 27 157.5 75.5t47.5 106.5q0 23 -17 41.5t-50 18.5q-40 0 -98 -26t-113 -70q-21 40 -21 71q0 39 38.5 61.5t109.5 22.5zM938 1401v33h410v-33l-41 -8q-55 -12 -86 -33.5
t-54 -63.5l-364 -661v-483q0 -58 33 -80t100 -31l65 -8v-33h-653v33l68 8q65 9 98 31t33 80v473l-426 675q-46 71 -117 93l-29 8v33h566v-33l-62 -8q-29 -4 -44.5 -8.5t-26 -14.5t-7.5 -27t19 -43l371 -591l325 587q28 51 2 69.5t-102 27.5z" />
    <glyph glyph-name="uni1EF7" unicode="&#x1ef7;" horiz-adv-x="1067" 
d="M606 1704q114 0 179 -53t65 -133q0 -69 -64 -132.5t-182 -91.5l-12 -75h-12l-27 184q110 27 157.5 75.5t47.5 106.5q0 23 -17.5 41.5t-50.5 18.5q-40 0 -98 -26.5t-113 -70.5q-20 38 -20 72q0 39 38 61.5t109 22.5zM739 1081v33h348v-33l-34 -8q-26 -6 -42 -13.5
t-36 -30.5t-35 -60l-350 -940q-15 -39 -25 -64.5t-30.5 -71.5t-39 -78t-46 -70.5t-55 -62t-62.5 -39.5t-72 -16q-73 0 -123.5 43t-50.5 115q0 53 29 109q106 -55 162 -78t92 -23q53 0 84.5 46t72.5 165l-424 969q-15 35 -34.5 57.5t-32.5 29t-33 13.5l-29 8v33h529v-33
l-62 -8q-24 -3 -37.5 -6.5t-27 -10.5t-18 -17.5t-3.5 -27t11 -40.5l272 -676l248 674q9 23 9.5 40.5t-4.5 28t-19.5 17.5t-30 11t-39.5 7z" />
    <glyph glyph-name="uni1EF8" unicode="&#x1ef8;" horiz-adv-x="1325" 
d="M489 1653q-69 0 -112 -84l-12 2q22 106 72 171.5t124 65.5q42 0 90.5 -21t84.5 -46.5t80.5 -46.5t78.5 -21q40 0 66.5 22.5t46.5 67.5l12 -2q-18 -104 -71.5 -171.5t-129.5 -67.5q-44 0 -93 20.5t-84.5 45t-78 45t-74.5 20.5zM938 1401v33h410v-33l-41 -8
q-55 -12 -86 -33.5t-54 -63.5l-364 -661v-483q0 -58 33 -80t100 -31l65 -8v-33h-653v33l68 8q65 9 98 31t33 80v473l-426 675q-46 71 -117 93l-29 8v33h566v-33l-62 -8q-29 -4 -44.5 -8.5t-26 -14.5t-7.5 -27t19 -43l371 -591l325 587q28 51 2 69.5t-102 27.5z" />
    <glyph glyph-name="uni1EF9" unicode="&#x1ef9;" horiz-adv-x="1067" 
d="M739 1081v33h348v-33l-34 -8q-26 -6 -42 -13.5t-36 -30.5t-35 -60l-350 -940q-15 -39 -25 -64.5t-30.5 -71.5t-39 -78t-46 -70.5t-55 -62t-62.5 -39.5t-72 -16q-73 0 -123.5 43t-50.5 115q0 53 29 109q106 -55 162 -78t92 -23q53 0 84.5 46t72.5 165l-424 969
q-15 35 -34.5 57.5t-32.5 29t-33 13.5l-29 8v33h529v-33l-62 -8q-24 -3 -37.5 -6.5t-27 -10.5t-18 -17.5t-3.5 -27t11 -40.5l272 -676l248 674q9 23 9.5 40.5t-4.5 28t-19.5 17.5t-30 11t-39.5 7zM696 1243q-44 0 -92.5 20.5t-83.5 45t-77 45t-74 20.5q-74 0 -113 -84l-14 2
q25 109 74 173.5t124 64.5q42 0 89.5 -21t83.5 -46.5t80.5 -46.5t80.5 -21q40 0 66.5 22.5t46.5 67.5l12 -2q-20 -105 -72.5 -172.5t-130.5 -67.5z" />
    <glyph glyph-name="uni2007" unicode="&#x2007;" 
 />
    <glyph glyph-name="uni2008" unicode="&#x2008;" horiz-adv-x="423" 
 />
    <glyph glyph-name="uni2009" unicode="&#x2009;" horiz-adv-x="256" 
 />
    <glyph glyph-name="uni200A" unicode="&#x200a;" horiz-adv-x="86" 
 />
    <glyph glyph-name="uni200B" unicode="&#x200b;" horiz-adv-x="0" 
 />
    <glyph glyph-name="endash" unicode="&#x2013;" horiz-adv-x="1187" 
d="M1085 551h-983v147h983v-147z" />
    <glyph glyph-name="emdash" unicode="&#x2014;" horiz-adv-x="2048" 
d="M1946 698v-147h-1844v147h1844z" />
    <glyph glyph-name="quoteleft" unicode="&#x2018;" horiz-adv-x="415" 
d="M377 1638l4 -12q-90 -39 -140.5 -90.5t-50.5 -110.5q0 -50 42 -95.5t116 -74.5q0 -61 -43 -102t-100 -41q-68 0 -112 50t-44 120q0 118 85 212.5t243 143.5z" />
    <glyph glyph-name="quoteright" unicode="&#x2019;" horiz-adv-x="430" 
d="M63 1112l-4 12q91 38 141 91t50 110q0 50 -42 95.5t-116 74.5q0 61 43.5 102t100.5 41q68 0 110.5 -49.5t42.5 -122.5q0 -116 -84.5 -211t-241.5 -143z" />
    <glyph glyph-name="quotesinglbase" unicode="&#x201a;" horiz-adv-x="432" 
d="M35 -254l-4 12q90 38 140 91t50 110q0 50 -42 95.5t-116 74.5q0 61 43.5 102t100.5 41q68 0 110.5 -49.5t42.5 -122.5q0 -116 -84 -211t-241 -143z" />
    <glyph glyph-name="quotedblleft" unicode="&#x201c;" horiz-adv-x="782" 
d="M377 1638l4 -12q-90 -39 -140.5 -90.5t-50.5 -110.5q0 -50 42 -95.5t116 -74.5q0 -61 -43 -102t-100 -41q-68 0 -112 50.5t-44 121.5q0 115 85 210.5t243 143.5zM741 1638l7 -12q-91 -40 -142 -91.5t-51 -109.5q0 -50 42.5 -95.5t117.5 -74.5q0 -61 -43.5 -102
t-100.5 -41q-67 0 -111 50.5t-44 121.5q0 115 84.5 210.5t240.5 143.5z" />
    <glyph glyph-name="quotedblright" unicode="&#x201d;" horiz-adv-x="796" 
d="M430 1112l-4 12q89 39 139.5 92t50.5 109q0 50 -42 95.5t-115 74.5q0 62 42.5 102.5t100.5 40.5q68 0 111 -49.5t43 -122.5q0 -115 -85 -210.5t-241 -143.5zM63 1112l-4 12q91 38 141 91t50 110q0 50 -42 95.5t-116 74.5q0 61 43.5 102t100.5 41q68 0 110.5 -49.5
t42.5 -122.5q0 -116 -84.5 -211t-241.5 -143z" />
    <glyph glyph-name="quotedblbase" unicode="&#x201e;" horiz-adv-x="798" 
d="M401 -254l-4 12q89 39 140 92t51 109q0 50 -42.5 95.5t-115.5 74.5q0 62 42.5 102.5t100.5 40.5q68 0 111 -49.5t43 -122.5q0 -115 -85 -210.5t-241 -143.5zM35 -254l-4 12q90 38 140 91t50 110q0 50 -42 95.5t-116 74.5q0 61 43.5 102t100.5 41q68 0 110.5 -49.5
t42.5 -122.5q0 -116 -84 -211t-241 -143z" />
    <glyph glyph-name="dagger" unicode="&#x2020;" horiz-adv-x="716" 
d="M379 1348h311v-41h-311v-600h-41v600h-311v41h311v270h41v-270z" />
    <glyph glyph-name="daggerdbl" unicode="&#x2021;" horiz-adv-x="808" 
d="M737 1348v-41h-311v-289h311v-41h-311v-270h-43v270h-309v41h309v289h-309v41h309v270h43v-270h311z" />
    <glyph glyph-name="bullet" unicode="&#x2022;" horiz-adv-x="612" 
d="M305 541q-88 0 -147.5 59t-59.5 145q0 88 60 149.5t147 61.5q90 0 149.5 -61t59.5 -150q0 -87 -59.5 -145.5t-149.5 -58.5z" />
    <glyph glyph-name="ellipsis" unicode="&#x2026;" horiz-adv-x="1409" 
d="M211 -12q-59 0 -100 41t-41 98q0 62 40.5 103.5t100.5 41.5q61 0 102 -41.5t41 -103.5q0 -58 -41 -98.5t-102 -40.5zM702 -12q-60 0 -100.5 41t-40.5 98q0 62 40.5 103.5t100.5 41.5q61 0 102.5 -41.5t41.5 -103.5q0 -58 -41.5 -98.5t-102.5 -40.5zM1196 -12
q-60 0 -100.5 41t-40.5 98q0 62 40.5 103.5t100.5 41.5q61 0 102 -41.5t41 -103.5q0 -58 -41 -98.5t-102 -40.5z" />
    <glyph glyph-name="perthousand" unicode="&#x2030;" horiz-adv-x="2621" 
d="M274 1081q0 -82 16.5 -144.5t56 -103t97.5 -40.5q87 0 129.5 80.5t42.5 207.5q0 128 -42.5 208.5t-129.5 80.5q-86 0 -128 -80.5t-42 -208.5zM379 -39l921 1518h132l-922 -1518h-131zM80 1081q0 173 106 275t258 102t259.5 -102t107.5 -275t-107.5 -274.5t-259.5 -101.5
t-258 101.5t-106 274.5zM1538 358q0 82 -16.5 145t-56 103.5t-97.5 40.5q-87 0 -129.5 -81t-42.5 -208q0 -128 42.5 -208t129.5 -80q86 0 128 80t42 208zM1733 358q0 -116 -52 -203t-134 -130t-179 -43q-153 0 -260 101.5t-107 274.5q0 172 107 274.5t260 102.5
q150 0 257.5 -103t107.5 -274zM2347 358q0 82 -16.5 145t-56 103.5t-97.5 40.5q-87 0 -129.5 -81t-42.5 -208q0 -128 42.5 -208t129.5 -80q86 0 128 80t42 208zM2542 358q0 -173 -106.5 -274.5t-258.5 -101.5t-259.5 101.5t-107.5 274.5q0 115 52 202.5t134.5 131
t180.5 43.5t180 -43.5t133.5 -131t51.5 -202.5z" />
    <glyph glyph-name="guilsinglleft" unicode="&#x2039;" horiz-adv-x="579" 
d="M467 137l-2 -2l-381 416v4l381 416l2 -2l-148 -416z" />
    <glyph glyph-name="guilsinglright" unicode="&#x203a;" horiz-adv-x="579" 
d="M498 551l-381 -416l-2 2l147 416l-147 416l2 2l381 -416v-4z" />
    <glyph glyph-name="fraction" unicode="&#x2044;" horiz-adv-x="256" 
d="M584 1434l-877 -1457l-35 23l879 1456z" />
    <glyph glyph-name="uni2070" unicode="&#x2070;" horiz-adv-x="845" 
d="M422 561q-96 0 -181 57t-137.5 160t-52.5 226q0 189 111 315.5t260 126.5q151 0 262 -126.5t111 -315.5q0 -187 -111 -315t-262 -128zM422 592q149 0 149 412q0 411 -149 411q-150 0 -150 -411q0 -412 150 -412z" />
    <glyph glyph-name="uni2074" unicode="&#x2074;" horiz-adv-x="731" 
d="M690 831v-36h-115v-133q0 -25 13.5 -36t40.5 -16l47 -4v-33h-400v33l46 4q55 3 55 52v133h-354l-15 30l352 609h191v-13l-496 -590h322v283l198 55v-338h115z" />
    <glyph glyph-name="uni2075" unicode="&#x2075;" horiz-adv-x="673" 
d="M180 1260l-20 -136q452 -3 452 -262q0 -125 -93.5 -213t-262.5 -88q-102 0 -166.5 37t-64.5 90t63 98q39 -75 103.5 -128.5t134.5 -53.5q57 0 94 40.5t37 103.5q0 81 -89.5 134t-273.5 54l78 498h315q108 0 129 43h17l-31 -217h-422z" />
    <glyph glyph-name="uni2076" unicode="&#x2076;" horiz-adv-x="749" 
d="M385 596q54 0 87.5 61.5t33.5 165.5q0 98 -36.5 153.5t-102.5 55.5q-60 0 -109 -43q-4 -62 -4 -100q0 -293 131 -293zM477 1106q105 0 170.5 -66t65.5 -174q0 -131 -93.5 -218t-232.5 -87q-148 0 -243 100t-95 257q0 119 54 218.5t143 164.5t200.5 102t229.5 41v-19
q-174 -18 -280 -115t-134 -292q91 88 215 88z" />
    <glyph glyph-name="uni2077" unicode="&#x2077;" horiz-adv-x="653" 
d="M20 1155l37 279h576v-9l-90 -165l-244 -687h-227v11l442 676h-317q-63 0 -98.5 -24t-55.5 -81h-23z" />
    <glyph glyph-name="uni2078" unicode="&#x2078;" horiz-adv-x="741" 
d="M385 594q67 0 111.5 36.5t44.5 92.5q0 29 -12 53.5t-29 41t-47 34t-54 28l-64 28t-63 28.5q-79 -58 -79 -154q0 -84 54.5 -136t137.5 -52zM375 1413q-63 0 -102.5 -34.5t-39.5 -88.5q0 -32 15 -59t45.5 -48.5t59.5 -37.5t74 -37q17 -8 26 -12q82 58 82 157
q0 69 -45.5 114.5t-114.5 45.5zM471 1087q50 -23 84.5 -44t68 -52t51 -71.5t17.5 -90.5q0 -117 -93.5 -191.5t-244.5 -74.5q-132 0 -220.5 54t-88.5 139q0 127 201 194q-73 41 -115.5 94.5t-42.5 133.5q0 118 83.5 192t219.5 74q113 0 187.5 -49.5t74.5 -126.5
q0 -118 -182 -181z" />
    <glyph glyph-name="uni2079" unicode="&#x2079;" horiz-adv-x="751" 
d="M385 975q60 0 111 45q4 62 4 98q0 293 -133 293q-55 0 -87 -61.5t-32 -165.5q0 -99 35.5 -154t101.5 -55zM367 1446q148 0 241.5 -98.5t93.5 -257.5q0 -119 -53.5 -218.5t-142 -164.5t-199.5 -102.5t-229 -41.5v19q366 39 414 409q-96 -90 -218 -90q-105 0 -169 66
t-64 174q0 131 93.5 218t232.5 87z" />
    <glyph glyph-name="uni2080" unicode="&#x2080;" horiz-adv-x="845" 
d="M422 -217q-149 0 -260 126.5t-111 315.5t111 316t260 127q151 0 262 -127t111 -316t-111 -315.5t-262 -126.5zM422 -186q149 0 149 411q0 412 -149 412q-150 0 -150 -412q0 -411 150 -411z" />
    <glyph glyph-name="uni2081" unicode="&#x2081;" horiz-adv-x="516" 
d="M481 -205h-450v33l59 4q66 3 66 51v588q0 30 -11.5 39.5t-44.5 9.5h-84v27l320 119h18v-783q0 -25 16.5 -35.5t51.5 -15.5l59 -4v-33z" />
    <glyph glyph-name="uni2082" unicode="&#x2082;" horiz-adv-x="696" 
d="M580 -205h-576v29q217 217 297 345.5t80 225.5q0 75 -38.5 113.5t-98.5 38.5q-58 0 -109 -33.5t-80 -95.5l-18 10q40 113 137.5 175.5t200.5 62.5q97 0 161 -55t64 -150q0 -117 -106 -234t-312 -254v-4h228q151 0 213 115h24z" />
    <glyph glyph-name="uni2083" unicode="&#x2083;" horiz-adv-x="681" 
d="M268 -217q-104 0 -172.5 39t-68.5 94q0 49 53 96q43 -76 113 -132t131 -56q51 0 80.5 38t29.5 101q0 100 -82 156.5t-217 50.5l-8 25q235 128 235 258q0 52 -30.5 79t-79.5 27q-57 0 -110.5 -37.5t-82.5 -97.5l-16 10q36 100 136 167t208 67q77 0 125.5 -38.5
t48.5 -109.5q0 -76 -65.5 -132.5t-190.5 -108.5l2 -5q151 0 235.5 -61.5t84.5 -151.5q0 -108 -99.5 -193t-259.5 -85z" />
    <glyph glyph-name="uni2084" unicode="&#x2084;" horiz-adv-x="731" 
d="M690 53v-37h-115v-133q0 -24 13 -35t41 -16l47 -4v-33h-400v33l46 4q55 3 55 51v133h-354l-15 31l352 608h191v-12l-496 -590h322v283l198 55v-338h115z" />
    <glyph glyph-name="uni2085" unicode="&#x2085;" horiz-adv-x="673" 
d="M180 481l-20 -135q452 -3 452 -262q0 -125 -93.5 -213t-262.5 -88q-102 0 -166.5 37t-64.5 90t63 98q39 -75 103.5 -128.5t134.5 -53.5q57 0 94 40t37 103q0 81 -89.5 134.5t-273.5 54.5l78 497h315q108 0 129 43h17l-31 -217h-422z" />
    <glyph glyph-name="uni2086" unicode="&#x2086;" horiz-adv-x="749" 
d="M385 -182q54 0 87.5 61.5t33.5 165.5q0 98 -36.5 153.5t-102.5 55.5q-60 0 -109 -43q-4 -62 -4 -100q0 -293 131 -293zM477 328q105 0 170.5 -66t65.5 -174q0 -131 -93.5 -218t-232.5 -87q-148 0 -243 100t-95 256q0 95 35.5 179t96 145.5t140.5 106.5t170.5 69t184.5 27
v-19q-174 -18 -280 -115t-134 -292q91 88 215 88z" />
    <glyph glyph-name="uni2087" unicode="&#x2087;" horiz-adv-x="653" 
d="M20 377l37 278h576v-8l-90 -166l-244 -686h-227v10l442 676h-317q-63 0 -98.5 -23.5t-55.5 -80.5h-23z" />
    <glyph glyph-name="uni2088" unicode="&#x2088;" horiz-adv-x="741" 
d="M375 635q-63 0 -102.5 -34.5t-39.5 -88.5q0 -33 15.5 -60t45.5 -48.5t60.5 -38t74.5 -37.5q16 -7 24 -11q82 58 82 158q0 69 -45.5 114.5t-114.5 45.5zM385 -184q67 0 111.5 36.5t44.5 92.5q0 29 -12 53.5t-29 41t-47 34t-54 28l-64 28t-63 28.5q-79 -58 -79 -154
q0 -84 54.5 -136t137.5 -52zM471 309q50 -23 84.5 -44t68 -52t51 -71.5t17.5 -90.5q0 -117 -93.5 -191.5t-244.5 -74.5q-132 0 -220.5 53.5t-88.5 138.5q0 128 201 195q-74 41 -116 94t-42 133q0 118 83.5 192.5t219.5 74.5q113 0 187.5 -49.5t74.5 -127.5q0 -117 -182 -180
z" />
    <glyph glyph-name="uni2089" unicode="&#x2089;" horiz-adv-x="751" 
d="M385 197q60 0 111 45q4 62 4 98q0 293 -133 293q-55 0 -87 -61.5t-32 -165.5q0 -99 35.5 -154t101.5 -55zM367 668q148 0 241.5 -99t93.5 -258q0 -119 -53.5 -218.5t-142 -164.5t-199.5 -102t-229 -41v18q366 39 414 410q-96 -90 -218 -90q-105 0 -169 65.5t-64 173.5
q0 131 93.5 218.5t232.5 87.5z" />
    <glyph glyph-name="Euro" unicode="&#x20ac;" horiz-adv-x="1425" 
d="M909 1413q-154 0 -256.5 -138.5t-124.5 -412.5h602v-41h-606q-2 -16 -2 -49v-106q0 -34 2 -50h606v-41h-602q22 -278 123.5 -416.5t257.5 -138.5q139 0 243 110t142 294h21v-344q-85 -43 -199.5 -71.5t-216.5 -28.5q-247 0 -423.5 163t-219.5 432h-170v41h166
q-11 98 -2 205h-164v41h170q42 266 224 429t446 163q187 0 389 -90v-354h-21q-45 187 -145.5 295t-239.5 108z" />
    <glyph glyph-name="uni20B9" unicode="&#x20b9;" horiz-adv-x="1185" 
d="M68 1434h1077v-41h-481q131 -42 203.5 -130.5t80.5 -207.5h197v-45h-197q-9 -172 -158 -282t-391 -110h-4l633 -606v-12h-356l-604 618v41h278q153 0 237 91.5t89 259.5h-604v45h604q-6 160 -93.5 249t-242.5 89h-268v41z" />
    <glyph glyph-name="uni20BA" unicode="&#x20ba;" horiz-adv-x="1249" 
d="M1188 518h20v-403q-90 -51 -223 -83t-246 -32h-614v33l61 8q60 9 90.5 31t30.5 80v383l-231 -95v45l231 95v188l-231 -94v45l231 94v469q0 58 -30.5 80t-90.5 31l-61 8v33h633v-33l-66 -8q-67 -9 -100 -31t-33 -80v-364l299 122v-45l-299 -123v-188l299 123v-45
l-299 -123v-598h105q411 0 524 477z" />
    <glyph glyph-name="uni2116" unicode="&#x2116;" horiz-adv-x="2496" 
d="M1782 987q0 -440 188 -440q93 0 141 112t48 328q0 215 -48 326.5t-141 111.5q-188 0 -188 -438zM1143 1393l-68 8v33h445v-33l-66 -8q-66 -9 -98.5 -31t-32.5 -80v-1282h-188l-840 1255v-1103q0 -58 33 -80t98 -31l68 -8v-33h-445v33l66 8q66 9 98.5 31t32.5 80v1130
q0 58 -28.5 80t-86.5 31l-59 8v33h403l799 -1155v1003q0 58 -33 80t-98 31zM2322 397v-41h-639v41h639zM2402 987q0 -205 -122 -336t-310 -131t-310 131t-122 336q0 202 122 332.5t310 130.5t310 -130.5t122 -332.5z" />
    <glyph glyph-name="uni2117" unicode="&#x2117;" horiz-adv-x="1816" 
d="M907 -59q223 0 400 96.5t278 274.5t101 407q0 230 -101 408.5t-278 275t-400 96.5t-399.5 -96.5t-276.5 -274.5t-100 -409q0 -172 58.5 -317.5t161 -246.5t246 -157.5t310.5 -56.5zM836 1126v-460h106q93 0 147 59.5t54 175.5q0 113 -55.5 169t-153.5 56h-98zM907 1530
q236 0 421.5 -101t290.5 -286t105 -424q0 -242 -105 -428t-290.5 -286.5t-421.5 -100.5q-233 0 -418 100t-291 286.5t-106 428.5q0 179 61.5 331t169.5 257t259 164t325 59zM565 1135v20h387q166 0 263.5 -68t97.5 -186q0 -122 -98.5 -194t-268.5 -72h-110v-258
q0 -41 25 -57t75 -21l49 -6v-25h-420v25l39 6q36 5 55 21.5t19 56.5v674q0 39 -19 54.5t-55 20.5z" />
    <glyph glyph-name="trademark" unicode="&#x2122;" horiz-adv-x="1929" 
d="M1833 705l37 -7v-24h-408v24l37 7q37 7 53.5 22.5t12.5 56.5l-62 539l-188 -649h-125l-180 643l-56 -518q-6 -47 10.5 -65t53.5 -25l37 -9v-26h-264v24l36 7q38 7 58.5 23t25.5 56l58 539q4 41 -13 58t-53 22l-37 6v25h301l158 -557l168 557h297v-25l-35 -6
q-36 -5 -51.5 -22t-11.5 -58l59 -539q4 -40 24.5 -56t57.5 -23zM86 1434h672l37 -248l-29 -2q-25 104 -86.5 161.5t-132.5 57.5h-35v-617q0 -40 22.5 -57t65.5 -24l43 -7v-24h-444v24l45 7q43 7 65.5 24t22.5 57v617h-39q-70 0 -129.5 -56.5t-87.5 -162.5l-27 2z" />
    <glyph glyph-name="estimated" unicode="&#x212e;" horiz-adv-x="1564" 
d="M334 1063v-309h907v301q0 70 -25 128.5t-67 98.5t-98 68.5t-117.5 41.5t-126.5 13q-81 0 -161 -20.5t-151.5 -60t-116 -107.5t-44.5 -154zM807 1454q141 0 267 -59t216 -159t142.5 -236t52.5 -285v-8h-1153v-336q0 -82 47 -149.5t121 -108t159 -62.5t168 -22
q202 0 365 111t219 286h55q-58 -199 -236 -322.5t-403 -123.5q-141 0 -276 59t-236.5 157t-163 235t-61.5 284q0 119 36.5 231.5t103 203.5t155 159.5t197.5 106.5t225 38z" />
    <glyph glyph-name="onethird" unicode="&#x2153;" horiz-adv-x="1597" 
d="M1186 -12q-106 0 -174 39t-68 94q0 49 53 96q43 -76 113 -132t131 -56q50 0 80.5 38t30.5 101q0 99 -82.5 156t-216.5 51l-11 24q236 128 236 258q0 52 -31 79.5t-80 27.5q-57 0 -109 -37.5t-81 -97.5l-19 10q26 69 82.5 123t125.5 82t137 28q77 0 126.5 -38t49.5 -109
q0 -77 -66 -133.5t-192 -108.5l2 -4q151 0 236 -61.5t85 -151.5q0 -108 -99 -193t-259 -85zM481 606v-33h-450v33l59 4q66 3 66 52v587q0 30 -11.5 39.5t-44.5 9.5h-84v27l320 119h18v-782q0 -25 16.5 -36t51.5 -16zM1182 1456l32 -22l-876 -1457l-35 23z" />
    <glyph glyph-name="twothirds" unicode="&#x2154;" horiz-adv-x="1726" 
d="M647 862l-67 -289h-576v29q216 216 296.5 345t80.5 227q0 74 -38.5 112.5t-98.5 38.5q-58 0 -109 -33.5t-80 -95.5l-18 10q40 113 137.5 175.5t200.5 62.5q97 0 161 -55t64 -150q0 -117 -105.5 -233.5t-312.5 -253.5v-4h228q151 0 213 114h24zM1311 1456l32 -22
l-876 -1457l-35 23zM1313 -12q-104 0 -173 39t-69 94q0 49 53 96q43 -76 113 -132t131 -56q51 0 81 38t30 101q0 100 -82 156.5t-217 50.5l-9 24q236 128 236 258q0 52 -31 79.5t-80 27.5q-57 0 -110 -37.5t-82 -97.5l-17 10q36 100 136 166.5t209 66.5q77 0 125.5 -38
t48.5 -109q0 -76 -65.5 -133t-190.5 -109l2 -4q151 0 235 -61.5t84 -151.5q0 -108 -99 -193t-259 -85z" />
    <glyph glyph-name="uni2155" unicode="&#x2155;" horiz-adv-x="1568" 
d="M1497 686h-422l-20 -135q229 -1 340.5 -69t111.5 -193t-93.5 -213t-262.5 -88q-102 0 -166.5 37t-64.5 90t63 98q39 -74 104.5 -128t135.5 -54q56 0 92.5 40t36.5 103q0 81 -89.5 134t-273.5 54l78 498h315q108 0 129 43h19zM31 573v33l59 4q66 3 66 52v587
q0 30 -11.5 39.5t-44.5 9.5h-84v27l320 119h18v-782q0 -25 16.5 -36t51.5 -16l59 -4v-33h-450zM338 -23l-35 23l879 1456l32 -22z" />
    <glyph glyph-name="uni2156" unicode="&#x2156;" horiz-adv-x="1693" 
d="M1622 686h-422l-20 -135q452 -3 452 -262q0 -125 -93.5 -213t-262.5 -88q-102 0 -167 37.5t-65 89.5t64 98q39 -75 103.5 -128.5t134.5 -53.5q57 0 94 40t37 103q0 81 -89.5 134t-273.5 54l78 498h315q108 0 129 43h17zM623 862h24l-67 -289h-576v29q216 216 296.5 345
t80.5 227q0 74 -38.5 112.5t-98.5 38.5q-58 0 -109 -33.5t-80 -95.5l-18 10q40 113 137.5 175.5t200.5 62.5q97 0 161 -55t64 -150q0 -117 -105.5 -233.5t-312.5 -253.5v-4h228q151 0 213 114zM467 -23l-35 23l879 1456l32 -22z" />
    <glyph glyph-name="uni2157" unicode="&#x2157;" horiz-adv-x="1665" 
d="M1593 686h-422l-20 -135q229 -1 341 -69t112 -193t-93.5 -213t-263.5 -88q-102 0 -166.5 37t-64.5 90t63 98q39 -74 104.5 -128t135.5 -54q56 0 92.5 40t36.5 103q0 81 -89.5 134t-273.5 54l78 498h316q108 0 129 43h18zM627 838q0 -111 -99 -195t-260 -84
q-104 0 -172.5 39t-68.5 94q0 47 53 94q40 -69 109 -127.5t135 -58.5q51 0 80.5 38t29.5 101q0 100 -82 156.5t-217 50.5l-8 23q235 128 235 260q0 52 -30.5 79t-79.5 27q-57 0 -110.5 -37.5t-82.5 -97.5l-16 10q36 100 136 167t208 67q77 0 125.5 -38.5t48.5 -109.5
q0 -76 -65.5 -132.5t-190.5 -108.5l2 -6q151 1 235.5 -60t84.5 -151zM438 -23l-35 23l879 1456l33 -22z" />
    </font>
</defs>
</svg>
