<?xml version="1.0" standalone="no"?>
<!DOCTYPE svg PUBLIC "-//W3C//DTD SVG 1.1//EN" "http://www.w3.org/Graphics/SVG/1.1/DTD/svg11.dtd" >
<svg xmlns="http://www.w3.org/2000/svg" xmlns:xlink="http://www.w3.org/1999/xlink" version="1.1">
<metadata>
Created by FontForge 20201107 at Fri Feb 21 06:45:00 2025
 By 
Copyright (c) 2022 by Rene Bieder. All rights reserved. Viet hoa boi STYLEno.1 Fonts
</metadata>
<defs>
<font id="SVN-RBVitruvDisplay-Regular" horiz-adv-x="1228" >
  <font-face 
    font-family="SVN-RB Vitruv Display"
    font-weight="400"
    font-stretch="semi-condensed"
    units-per-em="2048"
    panose-1="0 0 5 6 0 0 0 0 0 0"
    ascent="1638"
    descent="-410"
    x-height="1106"
    cap-height="1434"
    bbox="-328 -768 2486 2257"
    underline-thickness="102"
    underline-position="-204"
    unicode-range="U+000D-2715"
  />
<missing-glyph horiz-adv-x="1751" 
d="M1094 248q75 0 121.5 48.5t46.5 127.5v104q0 23 -23 23h-725q-22 0 -22 -23v-41q0 -22 22 -22h389q23 0 23 -23v-18q0 -79 46.5 -127.5t121.5 -48.5zM453 760l26 -27q15 -19 31 0l100 101q18 15 33 0l100 -101q17 -17 33 0l27 27q15 16 0 31l-101 100q-16 17 0 33
l101 100q15 18 0 33l-27 26q-16 17 -33 0l-100 -100q-15 -18 -33 0l-100 100q-16 15 -31 0l-26 -26q-17 -17 0 -33l100 -100q12 -16 0 -31l-100 -102q-15 -15 0 -31zM948 760l27 -27q17 -17 33 0l100 101q15 15 33 0l100 -101q15 -19 31 0l26 27q19 16 0 31l-100 100
q-16 17 0 33l100 100q16 16 0 33l-26 26q-16 15 -31 0l-100 -100q-18 -18 -33 0l-100 100q-16 17 -33 0l-27 -26q-15 -15 0 -33l101 -100q15 -16 0 -31l-101 -102q-16 -15 0 -31zM874 1497q350 0 564.5 -215.5t214.5 -568.5q0 -350 -214.5 -564.5t-564.5 -214.5
q-229 0 -405.5 97t-273.5 274t-97 408q0 171 55 316t154.5 248.5t245.5 161.5t321 58zM1094 344q-70 0 -70 82v39h139v-39q0 -41 -15 -61.5t-54 -20.5z" />
    <glyph glyph-name="f_b" unicode="fb" horiz-adv-x="1857" 
d="M1239 8q151 0 243.5 156.5t92.5 408.5q0 441 -297 441q-133 0 -266 -111v-788q101 -107 227 -107zM385 1106h434v410q-89 65 -184 65q-89 0 -160 -53q-76 -57 -100.5 -159t10.5 -263zM1370 1126q174 0 295 -138t121 -374q0 -297 -156 -465.5t-405 -168.5q-195 0 -406 102
v983h-430v-911q0 -31 9 -53t27 -33t32 -16t35 -9l65 -12v-31h-512v31l53 10q50 9 74.5 31t24.5 82v911h-162v41l162 18q14 255 206 402q84 64 179.5 97.5t183.5 33.5q104 0 164 -45l80 26h2v-688q79 88 172.5 132t185.5 44z" />
    <glyph glyph-name="f_f" unicode="ff" horiz-adv-x="1253" 
d="M385 1106h422q3 184 96 321q-118 154 -268 154q-92 0 -160.5 -53t-98.5 -158.5t9 -263.5zM1272 1638q89 0 131.5 -34.5t42.5 -83.5q0 -37 -21 -68.5t-51 -38.5q-30 64 -98.5 101.5t-145.5 37.5q-70 0 -107 -41t-46.5 -140t20.5 -265h244v-41h-242v-911q0 -32 9 -53
t28.5 -33t38 -17.5t47.5 -9.5l66 -10v-31h-533v31l54 10q50 9 74 31t24 82v911h-418v-911q0 -31 9 -53t27 -33t32 -16t35 -9l65 -12v-31h-512v31l53 10q50 9 74.5 31t24.5 82v911h-162v41l162 18q7 104 46.5 193.5t98.5 150.5t132.5 104.5t147 64t142.5 20.5q89 0 150 -34.5
t71 -98.5q132 114 287 114z" />
    <glyph glyph-name="f_f_b" unicode="ffb" horiz-adv-x="2463" 
d="M1845 8q151 0 243.5 156.5t92.5 408.5q0 441 -297 441q-133 0 -266 -111v-788q101 -107 227 -107zM635 1581q-92 0 -160.5 -53t-98.5 -158.5t9 -263.5h418q8 179 106 315q-121 160 -274 160zM991 1106h434v410q-89 65 -184 65q-89 0 -160 -53q-77 -56 -101 -159t11 -263z
M1976 1126q174 0 295 -138t121 -374q0 -297 -156 -465.5t-405 -168.5q-195 0 -406 102v983h-430v-911q0 -31 9 -53t27 -33t32 -16t35 -9l65 -12v-31h-512v31l54 10q50 9 74 31t24 82v911h-414v-911q0 -31 9 -53t27 -33t32 -16t35 -9l65 -12v-31h-512v31l53 10q50 9 74.5 31
t24.5 82v911h-162v41l162 18q7 104 46.5 193.5t98.5 150.5t132.5 104.5t147 64t142.5 20.5q94 0 156.5 -39.5t66.5 -110.5q84 73 185.5 111.5t195.5 38.5q108 0 168 -45l80 26h2v-688q79 88 172.5 132t185.5 44z" />
    <glyph glyph-name="f_f_h" unicode="ffh" horiz-adv-x="2478" 
d="M635 1581q-92 0 -160.5 -53t-98.5 -158.5t9 -263.5h418q8 179 106 315q-121 160 -274 160zM991 1106h436v407q-86 68 -186 68q-89 0 -160 -53q-77 -56 -101 -159t11 -263zM2404 41l54 -10v-31h-488v31l51 10q22 5 36 10t28.5 17t21.5 33t7 53v628q0 112 -54 177t-155 65
q-76 0 -151 -39.5t-134 -112.5v-718q0 -60 23.5 -82t68.5 -31l51 -10v-31h-487v31l53 10q50 9 74 31t24 82v911h-432v-911q0 -31 9 -53t27 -33t32 -16t35 -9l65 -12v-31h-512v31l54 10q50 9 74 31t24 82v911h-414v-911q0 -31 9 -53t27 -33t32 -16t35 -9l65 -12v-31h-512v31
l53 10q50 9 74.5 31t24.5 82v911h-162v41l162 18q7 104 46.5 193.5t98.5 150.5t132.5 104.5t147 64t142.5 20.5q94 0 156.5 -39.5t66.5 -110.5q84 73 185.5 111.5t195.5 38.5q108 0 168 -45l82 26h2v-712q66 97 161 148.5t208 51.5q151 0 234 -93.5t83 -254.5v-624
q0 -59 25 -81.5t73 -31.5z" />
    <glyph glyph-name="f_f_i" unicode="ffi" horiz-adv-x="1835" 
d="M635 1581q-92 0 -160.5 -53t-98.5 -158.5t9 -263.5h444q9 174 93 299q-126 176 -287 176zM1753 41l53 -10v-31h-495v31l53 10q50 9 74 31t24 82v911h-440v-911q0 -31 9 -53t26.5 -33t31.5 -16t35 -9l66 -12v-31h-512v31l53 10q50 9 74 31t24 82v911h-440v-911
q0 -31 9 -53t27 -33t32 -16t35 -9l65 -12v-31h-512v31l53 10q50 9 74.5 31t24.5 82v911h-162v41l162 18q9 139 65 236q80 142 222.5 219.5t279.5 77.5q98 0 160.5 -42t62.5 -116v-14q83 83 195 128.5t227 45.5q119 0 173 -39.5t54 -99.5q0 -44 -26 -84.5t-70 -63.5
q-39 88 -112 139.5t-164 51.5q-73 0 -125 -23.5t-87.5 -77.5t-42 -141t10.5 -215h635v-952q0 -59 25 -81.5t73 -31.5z" />
    <glyph glyph-name="f_f_j" unicode="ffj" horiz-adv-x="1736" 
d="M635 1581q-92 0 -160.5 -53t-98.5 -158.5t9 -263.5h444q9 174 93 299q-126 176 -287 176zM1264 1563q-73 0 -125 -23.5t-87.5 -77.5t-42 -141t10.5 -215h577v-942q0 -70 -39 -166t-97.5 -181.5t-136 -145.5t-146.5 -60q-68 0 -104 35.5t-30.5 92t52.5 114.5
q111 -132 196 -132q55 0 84 56.5t29 197.5v1090h-383v-911q0 -31 9 -53t26.5 -33t31.5 -16t35 -9l66 -12v-31h-512v31l53 10q50 9 74 31t24 82v911h-440v-911q0 -31 9 -53t27 -33t32 -16t35 -9l65 -12v-31h-512v31l53 10q50 9 74.5 31t24.5 82v911h-162v41l162 18
q9 139 65 236q80 142 222.5 219.5t279.5 77.5q98 0 160.5 -42t62.5 -116v-14q83 83 195 128.5t227 45.5q119 0 173 -39.5t54 -99.5q0 -44 -26 -84.5t-70 -63.5q-39 88 -112 139.5t-164 51.5z" />
    <glyph glyph-name="f_f_k" unicode="ffk" horiz-adv-x="2365" 
d="M635 1581q-92 0 -160.5 -53t-98.5 -158.5t9 -263.5h418q8 179 106 315q-121 160 -274 160zM991 1106h436v407q-86 68 -186 68q-89 0 -160 -53q-77 -56 -101 -159t11 -263zM1618 1638h2v-1484q0 -59 25 -81.5t73 -31.5l54 -10v-31h-496v31l53 10q50 9 74 31t24 82v911
h-432v-911q0 -31 9 -53t27 -33t32 -16t35 -9l65 -12v-31h-512v31l54 10q50 9 74 31t24 82v911h-414v-911q0 -31 9 -53t27 -33t32 -16t35 -9l65 -12v-31h-512v31l53 10q50 9 74.5 31t24.5 82v911h-162v41l162 18q7 104 46.5 193.5t98.5 150.5t132.5 104.5t147 64t142.5 20.5
q94 0 156.5 -39.5t66.5 -110.5q84 73 185.5 111.5t195.5 38.5q108 0 168 -45zM2136 965l-281 -281l537 -674v-10h-244l-454 590l407 397q37 35 28.5 53t-69.5 25l-65 10v31h364v-31l-41 -10q-102 -21 -182 -100z" />
    <glyph glyph-name="f_f_l" unicode="ffl" horiz-adv-x="1800" 
d="M635 1581q-92 0 -160.5 -53t-98.5 -158.5t9 -263.5h418q8 179 106 315q-121 160 -274 160zM991 1106h436v407q-86 68 -186 68q-89 0 -160 -53q-77 -56 -101 -159t11 -263zM1718 41l54 -10v-31h-496v31l53 10q50 9 74 31t24 82v911h-432v-911q0 -31 9 -53t27 -33t32 -16
t35 -9l65 -12v-31h-512v31l54 10q50 9 74 31t24 82v911h-414v-911q0 -31 9 -53t27 -33t32 -16t35 -9l65 -12v-31h-512v31l53 10q50 9 74.5 31t24.5 82v911h-162v41l162 18q7 104 46.5 193.5t98.5 150.5t132.5 104.5t147 64t142.5 20.5q94 0 156.5 -39.5t66.5 -110.5
q84 73 185.5 111.5t195.5 38.5q108 0 168 -45l82 26h2v-1484q0 -59 25 -81.5t73 -31.5z" />
    <glyph glyph-name="f_h" unicode="fh" horiz-adv-x="1871" 
d="M385 1106h436v407q-86 68 -186 68q-89 0 -160 -53q-76 -57 -100.5 -159t10.5 -263zM1798 41l53 -10v-31h-487v31l51 10q45 9 68.5 31t23.5 82v628q0 112 -54 177t-155 65q-76 0 -150 -39.5t-134 -112.5v-718q0 -60 23.5 -82t68.5 -31l51 -10v-31h-487v31l53 10
q50 9 74 31t24 82v911h-432v-911q0 -31 9 -53t27 -33t32 -16t35 -9l65 -12v-31h-512v31l53 10q50 9 74.5 31t24.5 82v911h-162v41l162 18q14 255 206 402q84 64 179.5 97.5t183.5 33.5q104 0 164 -45l82 26h2v-712q66 97 161 148.5t207 51.5q152 0 235 -93.5t83 -254.5v-624
q0 -59 25 -81.5t73 -31.5z" />
    <glyph glyph-name="f_i" unicode="fi" horiz-adv-x="1202" 
d="M1120 41l54 -10v-31h-496v31l53 10q50 9 74 31t24 82v911h-440v-911q0 -31 9 -53t27 -33t32 -16t35 -9l65 -12v-31h-512v31l53 10q50 9 74.5 31t24.5 82v911h-162v41l162 18q9 153 88.5 275.5t208.5 191t282 68.5q119 0 173.5 -39.5t54.5 -99.5q0 -44 -26.5 -84.5
t-70.5 -63.5q-39 88 -112 139.5t-164 51.5q-73 0 -125 -23.5t-87.5 -77.5t-42 -141t10.5 -215h635v-952q0 -59 25 -81.5t73 -31.5z" />
    <glyph glyph-name="f_j" unicode="fj" horiz-adv-x="1103" 
d="M631 1563q-73 0 -125 -23.5t-87.5 -77.5t-42 -141t10.5 -215h578v-942q0 -70 -39 -166t-98 -181.5t-136.5 -145.5t-146.5 -60q-68 0 -104 35.5t-30.5 92t52.5 114.5q111 -132 196 -132q55 0 84 56.5t29 197.5v1090h-383v-911q0 -31 9 -53t27 -33t32 -16t35 -9l65 -12v-31
h-512v31l53 10q50 9 74.5 31t24.5 82v911h-162v41l162 18q9 153 88.5 275.5t208.5 191t282 68.5q119 0 173.5 -39.5t54.5 -99.5q0 -44 -26.5 -84.5t-70.5 -63.5q-39 88 -112 139.5t-164 51.5z" />
    <glyph glyph-name="f_k" unicode="fk" horiz-adv-x="1759" 
d="M385 1106h436v407q-86 68 -186 68q-89 0 -160 -53q-76 -57 -100.5 -159t10.5 -263zM1012 1638h2v-1484q0 -59 25 -81.5t73 -31.5l53 -10v-31h-495v31l53 10q50 9 74 31t24 82v911h-432v-911q0 -31 9 -53t27 -33t32 -16t35 -9l65 -12v-31h-512v31l53 10q50 9 74.5 31
t24.5 82v911h-162v41l162 18q14 255 206 402q84 64 179.5 97.5t183.5 33.5q104 0 164 -45zM1530 965l-281 -281l537 -674v-10h-244l-455 590l408 397q37 35 28.5 53t-69.5 25l-65 10v31h364v-31l-41 -10q-103 -21 -182 -100z" />
    <glyph glyph-name="f_l" unicode="fl" horiz-adv-x="1193" 
d="M385 1106h436v407q-86 68 -186 68q-89 0 -160 -53q-76 -57 -100.5 -159t10.5 -263zM1112 41l53 -10v-31h-495v31l53 10q50 9 74 31t24 82v911h-432v-911q0 -31 9 -53t27 -33t32 -16t35 -9l65 -12v-31h-512v31l53 10q50 9 74.5 31t24.5 82v911h-162v41l162 18
q14 255 206 402q84 64 179.5 97.5t183.5 33.5q104 0 164 -45l82 26h2v-1484q0 -59 25 -81.5t73 -31.5z" />
    <glyph glyph-name=".notdef" horiz-adv-x="1751" 
d="M1094 248q75 0 121.5 48.5t46.5 127.5v104q0 23 -23 23h-725q-22 0 -22 -23v-41q0 -22 22 -22h389q23 0 23 -23v-18q0 -79 46.5 -127.5t121.5 -48.5zM453 760l26 -27q15 -19 31 0l100 101q18 15 33 0l100 -101q17 -17 33 0l27 27q15 16 0 31l-101 100q-16 17 0 33
l101 100q15 18 0 33l-27 26q-16 17 -33 0l-100 -100q-15 -18 -33 0l-100 100q-16 15 -31 0l-26 -26q-17 -17 0 -33l100 -100q12 -16 0 -31l-100 -102q-15 -15 0 -31zM948 760l27 -27q17 -17 33 0l100 101q15 15 33 0l100 -101q15 -19 31 0l26 27q19 16 0 31l-100 100
q-16 17 0 33l100 100q16 16 0 33l-26 26q-16 15 -31 0l-100 -100q-18 -18 -33 0l-100 100q-16 17 -33 0l-27 -26q-15 -15 0 -33l101 -100q15 -16 0 -31l-101 -102q-16 -15 0 -31zM874 1497q350 0 564.5 -215.5t214.5 -568.5q0 -350 -214.5 -564.5t-564.5 -214.5
q-229 0 -405.5 97t-273.5 274t-97 408q0 171 55 316t154.5 248.5t245.5 161.5t321 58zM1094 344q-70 0 -70 82v39h139v-39q0 -41 -15 -61.5t-54 -20.5z" />
    <glyph glyph-name="uni0000" horiz-adv-x="0" 
 />
    <glyph glyph-name="uni0000" horiz-adv-x="0" 
 />
    <glyph glyph-name="uni000D" unicode="&#xd;" horiz-adv-x="512" 
 />
    <glyph glyph-name="space" unicode=" " horiz-adv-x="438" 
 />
    <glyph glyph-name="exclam" unicode="!" horiz-adv-x="512" 
d="M270 471h-24l-109 795q-12 86 19.5 137t97.5 51t97 -50.5t20 -137.5zM256 -12q-51 0 -87 36t-36 87q0 54 36 90.5t87 36.5q54 0 89.5 -36.5t35.5 -90.5q0 -51 -35.5 -87t-89.5 -36z" />
    <glyph glyph-name="quotedbl" unicode="&#x22;" horiz-adv-x="604" 
d="M160 1122h-4l-90 357q-19 78 11 118.5t81 40.5q54 0 84 -40.5t8 -118.5zM449 1122h-5l-90 357q-19 78 11 118.5t81 40.5q54 0 84 -40.5t9 -118.5z" />
    <glyph glyph-name="numbersign" unicode="#" horiz-adv-x="1196" 
d="M786 901h-262l-114 -362h260zM989 539v-109h-237l-144 -450l-104 36l131 414h-260l-144 -450l-104 36l131 414h-197v109h232l117 362h-203v109h237l144 450l104 -37l-133 -413h262l144 450l104 -37l-133 -413h199v-109h-234l-115 -362h203z" />
    <glyph glyph-name="dollar" unicode="$" horiz-adv-x="1110" 
d="M596 614v-604q125 2 207 87.5t82 215.5q0 63 -22 113t-65 84.5t-89.5 58t-112.5 45.5zM252 1141q0 -48 17.5 -87t42 -66t68.5 -52t80.5 -40t94.5 -36v563q-130 0 -216.5 -80t-86.5 -202zM1038 424q0 -180 -123.5 -301.5t-318.5 -140.5v-283h-41v281h-12q-111 0 -232 30.5
t-202 85.5l-41 320h20q68 -156 195 -271t272 -133v617q-14 5 -42 14q-81 27 -122.5 42.5t-106.5 50.5t-97.5 71.5t-58.5 97t-26 135.5q0 172 127 287.5t326 124.5v283h41v-281q197 0 354 -80l21 -325h-21q-128 345 -354 372v-573q167 -57 230 -89q156 -80 196 -216
q16 -54 16 -119z" />
    <glyph glyph-name="percent" unicode="%" horiz-adv-x="1771" 
d="M248 1085q0 -59 10.5 -109.5t32 -91.5t59.5 -64t88 -23q67 0 112 41.5t63 104t18 142.5q0 81 -18 143.5t-63 104t-112 41.5q-66 0 -110 -41.5t-62 -104t-18 -143.5zM365 -39l921 1518h121l-922 -1518h-120zM82 1085q0 167 105 270t251 103q147 0 253 -103t106 -270
t-106 -269.5t-253 -102.5q-146 0 -251 102.5t-105 269.5zM1524 354q0 80 -18 143t-62.5 104.5t-110.5 41.5q-51 0 -89 -23.5t-60 -64.5t-32.5 -91.5t-10.5 -109.5t10.5 -109.5t32.5 -91.5t60 -64t89 -23q66 0 110.5 41.5t62.5 104t18 142.5zM1690 354q0 -167 -105.5 -269.5
t-251.5 -102.5q-147 0 -252.5 102.5t-105.5 269.5t105.5 270t252.5 103q146 0 251.5 -103t105.5 -270z" />
    <glyph glyph-name="ampersand" unicode="&#x26;" horiz-adv-x="1550" 
d="M616 92q217 0 369 168l-463 475q-3 3 -9 10.5t-9 10.5l-19 18q-107 -87 -159 -176t-52 -195q0 -144 91 -227.5t251 -83.5zM625 1427q-81 0 -133 -58.5t-52 -154.5q0 -73 40 -146.5t138 -176.5q99 74 137 146.5t38 160.5q0 109 -44.5 169t-123.5 60zM1155 807l-49 8v27
h444v-27l-53 -14q-58 -15 -108 -64t-144 -180l-123 -174l357 -358v-25h-240l-229 233q-104 -129 -226 -191t-280 -62q-193 0 -306.5 88t-113.5 247q0 139 92 251.5t289 228.5q-104 112 -145 187t-41 151q0 135 94 228t256 93q136 0 217.5 -65.5t81.5 -174.5
q0 -97 -66.5 -173.5t-224.5 -168.5l459 -462l90 149q61 109 47.5 174.5t-78.5 73.5z" />
    <glyph glyph-name="quotesingle" unicode="'" horiz-adv-x="315" 
d="M160 1122h-4l-90 357q-19 78 11 118.5t81 40.5q54 0 84 -40.5t8 -118.5z" />
    <glyph glyph-name="parenleft" unicode="(" horiz-adv-x="692" 
d="M123 643q0 263 105 513.5t300 420.5h103q-185 -198 -261.5 -430t-76.5 -504q0 -271 76.5 -502.5t261.5 -429.5h-103q-196 170 -300.5 419.5t-104.5 512.5z" />
    <glyph glyph-name="parenright" unicode=")" horiz-adv-x="692" 
d="M569 643q0 -263 -104.5 -512.5t-300.5 -419.5h-103q185 198 260.5 429t75.5 503q0 177 -28 328.5t-105 311t-203 294.5h103q195 -170 300 -420.5t105 -513.5z" />
    <glyph glyph-name="asterisk" unicode="*" horiz-adv-x="1015" 
d="M961 1290q11 -39 -13.5 -72.5t-77.5 -46.5q-46 -12 -108 -13.5t-113.5 2t-118.5 -0.5q33 -31 87 -73t96.5 -79t70.5 -77q31 -43 29 -85t-37 -65q-22 -16 -47 -16q-55 0 -96 59q-36 52 -74 167t-51 145q-12 -28 -51 -144t-76 -168q-41 -59 -94 -59q-23 0 -49 16
q-35 23 -37.5 65t28.5 85q36 51 130.5 125.5t123.5 103.5q-65 4 -116.5 0.5t-114.5 -2t-109 13.5q-51 13 -76 46.5t-14 72.5q7 32 32.5 49t61.5 17q22 0 46 -6q46 -12 94 -38t106 -63t96 -57q-6 30 -40.5 146.5t-34.5 179.5q0 54 26 87t68 33q41 0 66.5 -33t25.5 -87
q0 -63 -35 -179t-41 -147q37 19 95.5 56.5t107 63.5t94.5 38q24 6 47 6q36 0 61 -17t32 -49z" />
    <glyph glyph-name="plus" unicode="+" horiz-adv-x="1155" 
d="M514 1208h125v-385h387v-127h-387v-385h-125v385h-385v127h385v385z" />
    <glyph glyph-name="comma" unicode="," horiz-adv-x="419" 
d="M31 -254l-4 12q87 36 138.5 86.5t51.5 106.5q0 99 -143 160q0 54 38 90.5t89 36.5q62 0 100.5 -45.5t38.5 -112.5q0 -109 -79.5 -198.5t-229.5 -135.5z" />
    <glyph glyph-name="hyphen" unicode="-" horiz-adv-x="737" 
d="M635 547h-533v155h533v-155z" />
    <glyph glyph-name="period" unicode="." horiz-adv-x="407" 
d="M203 -12q-51 0 -87 36t-36 87q0 54 36 90.5t87 36.5q54 0 89.5 -36.5t35.5 -90.5q0 -51 -36 -87t-89 -36z" />
    <glyph glyph-name="slash" unicode="/" horiz-adv-x="813" 
d="M735 1577l-567 -1866h-127l567 1866h127z" />
    <glyph glyph-name="zero" unicode="0" horiz-adv-x="1294" 
d="M647 18q169 0 253.5 178t84.5 521t-84.5 520.5t-253.5 177.5q-170 0 -256 -178t-86 -520q0 -343 86 -521t256 -178zM647 -20q-161 0 -289 96q-129 95 -200.5 261.5t-71.5 379.5t74 381q73 167 200 261.5t287 94.5q162 0 290 -94t199.5 -262.5t71.5 -380.5t-71.5 -380.5
t-199.5 -262.5t-290 -94z" />
    <glyph glyph-name="one" unicode="1" horiz-adv-x="739" 
d="M715 0h-647v31l77 10q36 4 58 9.5t45 17.5t34 33t11 53v1003q0 67 -21 90t-86 23h-159v20l446 164h16v-1300q0 -32 11.5 -53t35 -33t45 -17t56.5 -10l78 -10v-31z" />
    <glyph glyph-name="two" unicode="2" horiz-adv-x="1062" 
d="M913 0h-901v20q423 377 578 629q123 197 123 375q0 141 -79 218t-200 77q-107 0 -203 -59t-137 -160l-14 8q43 112 123.5 191t171.5 115t186 36q157 0 260 -95t103 -249q0 -70 -21.5 -141t-67 -145.5t-101 -146t-139.5 -157t-166 -162t-196 -176.5l3 -4h464q53 0 94 15
t74.5 48t58 69.5t54.5 94.5h20z" />
    <glyph glyph-name="three" unicode="3" horiz-adv-x="1083" 
d="M498 -20q-106 0 -205 29.5t-162 80.5q-65 52 -63 119.5t73 132.5q64 -121 187 -218t241 -97q112 0 183 86t71 211q0 79 -33 142t-84.5 102t-121.5 65t-138 36.5t-141 12.5l-10 23q218 122 306.5 211t88.5 202q0 100 -60 157.5t-153 57.5q-106 0 -212.5 -72t-149.5 -171
l-15 6q56 158 188.5 258t291.5 100q131 0 210.5 -68t79.5 -188q0 -106 -76 -187t-262 -188l3 -4q225 -23 351 -131t126 -274q0 -183 -146 -308.5t-368 -125.5z" />
    <glyph glyph-name="four" unicode="4" horiz-adv-x="1132" 
d="M1112 410v-41h-244v-215q0 -32 9 -53t28.5 -33t38 -17.5t47.5 -9.5l66 -10v-31h-572v31l66 10q29 4 47.5 9.5t38 17.5t28.5 33t9 53v215h-629l-22 34l606 1031h213v-4l-768 -1020h600v530l194 59v-589h244z" />
    <glyph glyph-name="five" unicode="5" horiz-adv-x="1060" 
d="M299 1255l-55 -333q193 -7 335.5 -44.5t227 -99t124.5 -139t40 -172.5q0 -137 -68.5 -249t-188 -175t-265.5 -63q-107 0 -204.5 29t-156.5 79q-63 49 -61.5 116.5t73.5 137.5q58 -114 189.5 -209.5t249.5 -95.5q49 0 94.5 19t83 56t60 98t22.5 138q0 59 -17.5 110.5
t-62 101.5t-114 87t-180 61t-253.5 29l117 697h489q165 0 203 71h16l-43 -250h-655z" />
    <glyph glyph-name="six" unicode="6" horiz-adv-x="1146" 
d="M610 14q122 0 192 101t70 272q0 181 -77 289t-217 108q-73 0 -147.5 -32.5t-131.5 -96.5q-4 -66 -4 -104q0 -138 25.5 -243.5t69.5 -168.5t99.5 -94t120.5 -31zM707 877q166 0 273 -115.5t107 -296.5q0 -210 -138.5 -347.5t-352.5 -137.5q-151 0 -269 75.5t-182.5 210.5
t-64.5 307q0 181 72 342t196.5 276.5t298 185t369.5 75.5v-16q-320 -17 -502 -212t-213 -530q82 84 189 133.5t217 49.5z" />
    <glyph glyph-name="seven" unicode="7" horiz-adv-x="991" 
d="M37 1075l61 359h885v-9l-94 -168l-520 -1257h-222v4l709 1251h-508q-137 0 -198.5 -38t-92.5 -142h-20z" />
    <glyph glyph-name="eight" unicode="8" horiz-adv-x="1181" 
d="M600 18q147 0 243.5 74t96.5 195q0 54 -22.5 98.5t-55.5 74.5t-88.5 60.5t-102 49t-116.5 46.5t-113 48q-99 -57 -152.5 -142t-53.5 -184q0 -141 102 -230.5t262 -89.5zM311 1147q0 -166 189 -258q48 -26 176 -82q225 108 225 319q0 133 -78.5 211t-212.5 78
q-131 0 -215 -75t-84 -193zM698 799q48 -20 76 -32t71.5 -32.5t69.5 -37.5t59.5 -42t53.5 -51t38.5 -58.5t27 -70.5t8.5 -82q0 -183 -150 -297t-385 -114q-215 0 -354 93t-139 242q0 113 87.5 207t248.5 154q-58 29 -100.5 60.5t-80.5 74t-57.5 99t-19.5 124.5
q0 182 130.5 299t338.5 117q180 0 297.5 -85.5t117.5 -229.5q0 -224 -338 -338z" />
    <glyph glyph-name="nine" unicode="9" horiz-adv-x="1142" 
d="M565 649q164 0 279 129q4 66 4 105q0 140 -25.5 245.5t-70 167.5t-100 92.5t-120.5 30.5q-122 0 -192 -100.5t-70 -271.5q0 -178 78 -288t217 -110zM547 1454q232 0 374 -164.5t142 -429.5q0 -242 -123 -440.5t-337 -314t-476 -123.5v16q321 17 502.5 212t212.5 529
q-82 -84 -188 -133t-218 -49q-166 0 -273.5 116.5t-107.5 295.5q0 212 139.5 348.5t352.5 136.5z" />
    <glyph glyph-name="colon" unicode=":" horiz-adv-x="477" 
d="M238 -12q-51 0 -87 36t-36 87q0 54 36 90.5t87 36.5q54 0 89 -36.5t35 -90.5q0 -52 -35.5 -87.5t-88.5 -35.5zM238 1118q53 0 88.5 -35.5t35.5 -87.5q0 -54 -35 -90.5t-89 -36.5q-51 0 -87 36.5t-36 90.5q0 51 36 87t87 36z" />
    <glyph glyph-name="semicolon" unicode=";" horiz-adv-x="501" 
d="M74 -254l-4 12q87 36 138.5 86.5t51.5 106.5q0 99 -143 160q0 54 38 90.5t89 36.5q62 0 100.5 -45.5t38.5 -112.5q0 -109 -79.5 -198.5t-229.5 -135.5zM256 1118q54 0 89.5 -36t35.5 -87q0 -54 -35.5 -90.5t-89.5 -36.5q-51 0 -87 36.5t-36 90.5q0 51 36 87t87 36z" />
    <glyph glyph-name="less" unicode="&#x3c;" horiz-adv-x="845" 
d="M82 745v21l635 387v-156l-408 -239l408 -244v-156z" />
    <glyph glyph-name="equal" unicode="=" horiz-adv-x="1175" 
d="M139 555v125h897v-125h-897zM139 838v127h897v-127h-897z" />
    <glyph glyph-name="greater" unicode="&#x3e;" horiz-adv-x="845" 
d="M764 766v-21l-635 -387v156l410 244l-410 239v156z" />
    <glyph glyph-name="question" unicode="?" horiz-adv-x="774" 
d="M307 1454q109 0 206 -34t163.5 -108t66.5 -173q0 -122 -111 -231t-319 -175l-28 -256h-21l-31 418q100 31 178 76t122.5 92.5t67 92t22.5 83.5q0 58 -43.5 100.5t-118.5 42.5q-84 0 -187.5 -48t-179.5 -128q-43 58 -43 109q0 65 65.5 102t190.5 37zM276 238
q54 0 89.5 -36.5t35.5 -90.5q0 -51 -35.5 -87t-89.5 -36q-51 0 -86.5 36t-35.5 87q0 54 35.5 90.5t86.5 36.5z" />
    <glyph glyph-name="at" unicode="@" horiz-adv-x="2129" 
d="M821 123q54 0 120 52.5t138.5 154.5t150.5 272.5t146 386.5q-90 101 -188 101q-67 0 -138.5 -54.5t-131.5 -143.5t-109 -194t-76.5 -213.5t-27.5 -195.5q0 -166 116 -166zM2062 846q0 -161 -56.5 -298.5t-168.5 -248.5t-292.5 -188.5t-416.5 -110.5l224 817h-2
q-155 -425 -323.5 -631t-330.5 -206q-101 0 -148.5 69t-47.5 191q0 120 37 246.5t106 240t158.5 203.5t203 143t230.5 53q109 0 229 -57l154 57h4l-264 -993q111 12 199.5 44t152.5 83t109 115.5t72 147.5t39 173.5t12 198.5q0 285 -197.5 456t-511.5 171q-188 0 -354 -59
t-291.5 -164.5t-216.5 -247t-138 -311.5t-47 -353q0 -389 207 -598t598 -209q190 0 374 51.5t331 149.5l18 -29q-145 -99 -336 -153t-389 -54q-199 0 -365.5 53.5t-292 156.5t-195.5 266.5t-70 371.5q0 242 91 457.5t246.5 370t371.5 245t458 90.5q134 0 256 -28.5
t226.5 -87t181.5 -141.5t121 -199.5t44 -253.5z" />
    <glyph glyph-name="A" unicode="A" horiz-adv-x="1378" 
d="M858 588l-258 706l-246 -706h504zM1378 41l52 -10v-31h-547v31l61 10q63 10 79 32.5t-3 73.5l-146 400h-534l-137 -400q-17 -51 6.5 -73.5t109.5 -32.5l82 -10v-31h-430v31l49 10q62 12 89.5 33.5t44.5 72.5l442 1287h162l487 -1289q19 -50 46 -71t87 -33z" />
    <glyph glyph-name="B" unicode="B" horiz-adv-x="1323" 
d="M449 719v-678h206q185 0 278 92.5t93 263.5q0 166 -87.5 244t-266.5 78h-223zM961 1085q0 308 -326 308h-186v-633h182q163 0 246.5 84t83.5 241zM793 743q223 -14 342.5 -102.5t119.5 -245.5q0 -175 -147.5 -285t-400.5 -110h-656v31l66 10q29 4 47.5 9.5t38 17.5
t28.5 33t9 53v1126q0 32 -9 53t-28.5 33t-38 17.5t-47.5 9.5l-66 10v31h611q247 0 383.5 -87.5t136.5 -250.5q0 -141 -102.5 -238t-286.5 -115z" />
    <glyph glyph-name="C" unicode="C" horiz-adv-x="1417" 
d="M846 -20q-352 0 -560 200.5t-208 536.5q0 158 56 294.5t155 234t241 153t308 55.5q252 0 473 -111l20 -342h-20q-64 196 -194.5 309t-307.5 113q-144 0 -258 -90.5t-178 -252t-64 -363.5q0 -323 137 -515t367 -192q180 0 318.5 116.5t181.5 305.5h18v-334
q-233 -118 -485 -118z" />
    <glyph glyph-name="D" unicode="D" horiz-adv-x="1515" 
d="M453 1393v-1352h219q238 0 387 185.5t149 490.5t-149 490.5t-387 185.5h-219zM51 1403v31h615q163 0 305 -51.5t245.5 -143t163.5 -227t60 -295.5t-60 -295.5t-163.5 -227t-245.5 -143t-305 -51.5h-615v31l66 10q29 4 47.5 9.5t38 17.5t28.5 33t9 53v1126q0 32 -9 53
t-28.5 33t-38 17.5t-47.5 9.5z" />
    <glyph glyph-name="E" unicode="E" horiz-adv-x="1267" 
d="M1188 461h22l-65 -461h-1094v31l66 10q29 4 47.5 9.5t38 17.5t28.5 33t9 53v1126q0 32 -9 53t-28.5 33t-38 17.5t-47.5 9.5l-66 10v31h1016l66 -441l-21 -6q-120 406 -397 406h-266v-637h198q56 0 85.5 18t49.5 70t37 160h21v-537h-21q-13 110 -31.5 162t-49 69t-91.5 17
h-198v-674h301q88 0 152.5 19t119.5 66t95.5 129.5t70.5 205.5z" />
    <glyph glyph-name="F" unicode="F" horiz-adv-x="1161" 
d="M51 1434h1014l65 -441l-20 -6q-123 406 -387 406h-274v-650h202q56 0 86.5 18t51.5 70.5t38 159.5h21v-536h-21q-10 84 -21 130.5t-32.5 74t-48 35t-74.5 7.5h-202v-548q0 -32 11.5 -53t34.5 -33t45 -17t56 -10l78 -10v-31h-623v31l66 10q29 4 47.5 9.5t38 17.5t28.5 33
t9 53v1126q0 32 -9 53t-28.5 33t-38 17.5t-47.5 9.5l-66 10v31z" />
    <glyph glyph-name="G" unicode="G" horiz-adv-x="1517" 
d="M950 631v31h551v-31l-59 -10q-26 -4 -42.5 -9.5t-34 -17.5t-26 -33t-8.5 -53v-410q-233 -118 -485 -118q-352 0 -560 200.5t-208 536.5q0 158 56 294.5t155 234t241 153t308 55.5q252 0 473 -111l20 -342h-20q-64 196 -194.5 309t-307.5 113q-144 0 -258 -90.5t-178 -252
t-64 -363.5q0 -323 137 -515t367 -192q180 0 326 123v375q0 32 -9 53t-28.5 33t-38 17.5t-47.5 9.5z" />
    <glyph glyph-name="H" unicode="H" horiz-adv-x="1613" 
d="M1563 1403l-66 -10q-29 -4 -47.5 -9.5t-38 -17.5t-28.5 -33t-9 -53v-1126q0 -32 9 -53t28.5 -33t38 -17.5t47.5 -9.5l66 -10v-31h-588v31l65 10q29 4 47.5 9.5t38 17.5t28.5 33t9 53v571h-714v-571q0 -32 9 -53t28 -33t37.5 -17.5t47.5 -9.5l66 -10v-31h-586v31l66 10
q29 4 47.5 9.5t38 17.5t28.5 33t9 53v1126q0 32 -9 53t-28.5 33t-38 17.5t-47.5 9.5l-66 10v31h586v-31l-66 -10q-29 -4 -47.5 -9.5t-37.5 -17.5t-28 -33t-9 -53v-514h714v514q0 32 -9 53t-28.5 33t-38 17.5t-47.5 9.5l-65 10v31h588v-31z" />
    <glyph glyph-name="I" unicode="I" horiz-adv-x="688" 
d="M637 0h-586v31l66 10q29 4 47.5 9.5t38 17.5t28.5 33t9 53v1126q0 32 -9 53t-28.5 33t-38 17.5t-47.5 9.5l-66 10v31h586v-31l-66 -10q-29 -4 -47.5 -9.5t-37.5 -17.5t-28 -33t-9 -53v-1126q0 -32 9 -53t28 -33t37.5 -17.5t47.5 -9.5l66 -10v-31z" />
    <glyph glyph-name="J" unicode="J" horiz-adv-x="663" 
d="M-27 -389q-73 0 -117 41.5t-44 103.5q0 72 61 133q131 -174 242 -174q46 0 79 38.5t33 109.5v1417q0 32 -9 53t-28.5 33t-38 17.5t-47.5 9.5l-65 10v31h588v-31l-66 -10q-29 -4 -47.5 -9.5t-38 -17.5t-28.5 -33t-9 -53v-1128q0 -82 -42 -178.5t-106.5 -176t-150.5 -133
t-166 -53.5z" />
    <glyph glyph-name="K" unicode="K" horiz-adv-x="1427" 
d="M449 1280v-1126q0 -32 9 -53t28 -33t37.5 -17.5t47.5 -9.5l66 -10v-31h-586v31l66 10q29 4 47.5 9.5t38 17.5t28.5 33t9 53v1126q0 32 -9 53t-28.5 33t-38 17.5t-47.5 9.5l-66 10v31h586v-31l-66 -10q-29 -4 -47.5 -9.5t-37.5 -17.5t-28 -33t-9 -53zM1425 1403l-63 -10
q-64 -11 -119 -33.5t-78 -48.5l-438 -469l684 -832v-10h-262l-592 733l553 580q26 29 8 50.5t-74 29.5l-77 10v31h458v-31z" />
    <glyph glyph-name="L" unicode="L" horiz-adv-x="1179" 
d="M1128 481l21 -4l-66 -477h-1032v31l66 10q29 4 47.5 9.5t38 17.5t28.5 33t9 53v1126q0 32 -9 53t-28.5 33t-38 17.5t-47.5 9.5l-66 10v31h586v-31l-66 -10q-29 -4 -47.5 -9.5t-37.5 -17.5t-28 -33t-9 -53v-1239h313q144 0 225.5 102.5t140.5 337.5z" />
    <glyph glyph-name="M" unicode="M" horiz-adv-x="1835" 
d="M1782 41l65 -10v-31h-585v31l65 10q60 9 88 31t23 82l-125 1126l-412 -1280h-127l-405 1255l-115 -1101q-4 -32 4 -53t27.5 -33t39.5 -17.5t52 -9.5l72 -10v-31h-465v31l71 10q32 5 53 10t43.5 17t35 33t16.5 53l119 1126q4 32 -4 53t-27.5 33t-39.5 17.5t-52 9.5l-72 10
v31h397l396 -1219l395 1219h389v-31l-66 -10q-60 -9 -88.5 -31t-21.5 -82l119 -1126q7 -60 40.5 -82t94.5 -31z" />
    <glyph glyph-name="N" unicode="N" horiz-adv-x="1556" 
d="M1065 1403v31h461v-31l-72 -10q-32 -4 -52 -9.5t-41.5 -17.5t-31.5 -33t-10 -53v-1280h-156l-872 1272v-1118q0 -32 10 -53t31.5 -33t41.5 -17.5t52 -9.5l72 -10v-31h-461v31l72 10q32 4 52 9.5t41.5 17.5t31.5 33t10 53v1126q0 32 -9 53t-27.5 33t-36.5 17.5t-46 9.5
l-64 10v31h365l846 -1203v1049q0 32 -10 53t-31.5 33t-41.5 17.5t-52 9.5z" />
    <glyph glyph-name="O" unicode="O" horiz-adv-x="1495" 
d="M748 10q205 0 323.5 183.5t118.5 523.5t-118.5 523t-323.5 183q-203 0 -323 -183.5t-120 -522.5t120 -523t323 -184zM748 1454q152 0 279.5 -58.5t212 -159t131 -234.5t46.5 -285q0 -148 -45.5 -281t-129 -234.5t-211.5 -161.5t-283 -60q-151 0 -278.5 59t-212.5 159.5
t-132 234.5t-47 284q0 147 46 280t130 235t212 162t282 60z" />
    <glyph glyph-name="P" unicode="P" horiz-adv-x="1241" 
d="M985 1026q0 182 -96.5 276.5t-265.5 94.5h-174v-760h186q160 0 255 103.5t95 285.5zM641 600h-192v-446q0 -32 12 -53t37.5 -33t50 -17.5t63.5 -9.5l86 -10v-31h-647v31l66 10q29 4 47.5 9.5t38 17.5t28.5 33t9 53v1126q0 32 -9 53t-28.5 33t-38 17.5t-47.5 9.5l-66 10
v31h598q256 0 407.5 -109.5t151.5 -298.5q0 -192 -154 -309t-413 -117z" />
    <glyph glyph-name="Q" unicode="Q" horiz-adv-x="1497" 
d="M305 717q0 -339 120 -523t323 -184q205 0 323.5 183.5t118.5 523.5t-118.5 523t-323.5 183q-203 0 -323 -183.5t-120 -522.5zM2017 -211l11 -14q-213 -162 -590 -162q-157 0 -321 39.5t-314 110t-283 173t-230.5 222t-154.5 264.5t-57 295q0 147 46 280t130 235t212 162
t282 60q152 0 279.5 -58.5t212 -159t131 -234.5t46.5 -285q0 -303 -165.5 -505t-430.5 -230q98 -130 308.5 -214.5t459.5 -84.5q275 0 428 106z" />
    <glyph glyph-name="R" unicode="R" horiz-adv-x="1376" 
d="M449 1393v-736h178q173 0 266.5 100.5t93.5 270.5q0 174 -98.5 269.5t-280.5 95.5h-159zM868 647l531 -637v-10h-238l-491 616h-221v-462q0 -32 9 -53t28 -33t37.5 -17.5t47.5 -9.5l66 -10v-31h-586v31l66 10q29 4 47.5 9.5t38 17.5t28.5 33t9 53v1126q0 32 -9 53
t-28.5 33t-38 17.5t-47.5 9.5l-66 10v31h557q276 0 439 -109t163 -291q0 -132 -90 -236t-252 -151z" />
    <glyph glyph-name="S" unicode="S" horiz-adv-x="1126" 
d="M553 -20q-111 0 -232 30.5t-202 85.5l-41 320h20q72 -166 212.5 -286t293.5 -120q127 0 209 86t82 217q0 75 -32 131.5t-85.5 91t-120 61t-140.5 50.5t-141 50t-126.5 68.5t-93.5 98.5q-43 70 -43 176q0 181 139 297.5t354 116.5q198 0 355 -80l20 -325h-20
q-138 374 -394 374q-128 0 -216.5 -78t-88.5 -204q0 -62 27 -109.5t72.5 -78t104.5 -55t124.5 -45t130.5 -42.5t124 -54.5t104.5 -74.5t72.5 -108t27 -150q0 -193 -140.5 -318.5t-355.5 -125.5z" />
    <glyph glyph-name="T" unicode="T" horiz-adv-x="1361" 
d="M100 1434h1162l65 -455h-20q-72 224 -168.5 319t-229.5 95h-123v-1239q0 -32 13 -53t40 -33t52.5 -17.5t66.5 -9.5l93 -10v-31h-740v31l92 10q41 4 66.5 9.5t52.5 17.5t40 33t13 53v1239h-122q-132 0 -227 -94.5t-171 -319.5h-20z" />
    <glyph glyph-name="U" unicode="U" horiz-adv-x="1476" 
d="M745 -20q-247 0 -392.5 142t-145.5 390v768q0 60 -28 82t-85 31l-59 10v31h571v-31l-65 -10q-29 -4 -47.5 -9.5t-38 -17.5t-28.5 -33t-9 -53v-780q0 -211 107 -331t298 -120t295.5 120.5t104.5 332.5v778q0 32 -10 53t-30.5 33t-40.5 17.5t-52 9.5l-70 10v31h457v-31
l-72 -10q-32 -4 -52 -9.5t-41.5 -17.5t-31.5 -33t-10 -53v-778q0 -244 -140 -383t-385 -139z" />
    <glyph glyph-name="V" unicode="V" horiz-adv-x="1327" 
d="M965 1403v31h397v-31l-37 -10q-24 -7 -38.5 -13.5t-36.5 -30t-36 -61.5l-477 -1288h-123l-522 1288q-15 38 -34.5 61.5t-32 30t-33.5 13.5l-33 10v31h512v-31l-65 -10q-60 -9 -82 -29t0 -76l434 -1100l407 1100q8 20 8.5 35.5t-6.5 26t-16.5 18t-27.5 12.5t-34 7.5
t-40 5.5z" />
    <glyph glyph-name="W" unicode="W" horiz-adv-x="2035" 
d="M1659 1403v31h432v-31l-49 -10q-25 -5 -39 -9.5t-33.5 -15.5t-32.5 -32t-22 -52l-369 -1284h-164l-401 1214l-330 -1214h-162l-374 1284q-9 31 -19.5 52t-24 32t-22 15.5t-24.5 9.5l-31 10v31h510v-31l-66 -10q-60 -9 -84.5 -30.5t-7.5 -78.5l299 -1122l346 1272h150
l405 -1282l322 1132q17 57 -16 78.5t-109 30.5z" />
    <glyph glyph-name="X" unicode="X" horiz-adv-x="1425" 
d="M1403 41l47 -10v-31h-578v31l66 10q30 5 45 9t27 13.5t8.5 27t-21.5 44.5l-350 524l-381 -528q-39 -52 12 -71q23 -9 101 -19l96 -10v-31h-483v31l53 10q116 21 164 90l412 569l-400 598q-43 69 -153 95l-48 10v31h578v-31l-66 -10q-29 -4 -44.5 -8.5t-27.5 -14.5
t-8.5 -27.5t21.5 -44.5l295 -440l324 445q40 52 2 67q-37 14 -109 23l-94 10v31h483v-31l-55 -10q-111 -14 -172 -90l-352 -486l454 -682q42 -68 154 -94z" />
    <glyph glyph-name="Y" unicode="Y" horiz-adv-x="1290" 
d="M899 1403v31h418v-31l-43 -10q-53 -12 -82.5 -33.5t-54.5 -65.5l-375 -661v-479q0 -32 10 -53t31.5 -33t41.5 -17.5t52 -9.5l72 -10v-31h-623v31l72 10q32 4 52 9.5t41.5 17.5t31.5 33t10 53v469l-428 675q-47 72 -119 95l-31 10v31h521v-31l-66 -10q-29 -4 -44.5 -8.5
t-27.5 -14.5t-9 -27.5t20 -44.5l381 -602l337 598q13 23 13.5 40t-5.5 26.5t-25.5 16.5t-37 9.5t-49.5 6.5z" />
    <glyph glyph-name="Z" unicode="Z" horiz-adv-x="1253" 
d="M1174 518h20l-92 -518h-1065v25l885 1368h-381q-142 0 -239 -90.5t-200 -325.5h-20l68 457h1030v-25l-879 -1368h381q180 0 286.5 104t205.5 373z" />
    <glyph glyph-name="bracketleft" unicode="[" horiz-adv-x="638" 
d="M315 1389v-1489q0 -26 5 -45t19.5 -32t29 -20.5t46 -12.5t57.5 -7.5t75 -5.5v-66h-373v1866h373v-66q-60 -4 -88.5 -6.5t-62.5 -10t-48 -20t-23.5 -33t-9.5 -52.5z" />
    <glyph glyph-name="backslash" unicode="\" horiz-adv-x="813" 
d="M647 -289l-569 1866h127l569 -1866h-127z" />
    <glyph glyph-name="bracketright" unicode="]" horiz-adv-x="638" 
d="M324 -100v1489q0 32 -9.5 52.5t-23.5 33t-48 20t-62.5 10t-88.5 6.5v66h373v-1866h-373v66q49 3 75 5.5t57.5 7.5t46 12.5t29 20.5t19.5 32t5 45z" />
    <glyph glyph-name="asciicircum" unicode="^" horiz-adv-x="946" 
d="M399 1577h148l317 -594h-137l-254 481l-254 -481h-137z" />
    <glyph glyph-name="underscore" unicode="_" horiz-adv-x="901" 
d="M860 -246h-819v111h819v-111z" />
    <glyph glyph-name="grave" unicode="`" 
d="M272 1509v4h248l127 -315h-10z" />
    <glyph glyph-name="a" unicode="a" horiz-adv-x="1024" 
d="M387 80q76 0 145.5 48t122.5 130v184q-81 15 -131 15q-123 0 -204.5 -60.5t-81.5 -165.5q0 -70 39 -110.5t110 -40.5zM1034 121l6 -8q-22 -51 -81.5 -92t-124.5 -41q-86 0 -132.5 47.5t-46.5 132.5v45q-66 -103 -162.5 -164t-209.5 -61q-106 0 -172 57.5t-66 150.5
q0 138 147.5 218t462.5 106v307q0 109 -72 161t-184 52q-83 0 -111.5 -74t-33.5 -251q-79 -7 -121.5 21.5t-42.5 80.5q0 43 47 98t119.5 103.5t171.5 82t193 33.5q227 0 227 -288v-664q0 -40 15 -59t52 -19q36 0 119 25z" />
    <glyph glyph-name="b" unicode="b" horiz-adv-x="1179" 
d="M561 8q151 0 243.5 156.5t92.5 408.5q0 441 -297 441q-133 0 -266 -111v-788q101 -107 227 -107zM692 1126q174 0 295 -138t121 -374q0 -297 -156 -465.5t-405 -168.5q-195 0 -406 102v1356l-151 100v4l340 117h4v-709q79 88 172.5 132t185.5 44z" />
    <glyph glyph-name="c" unicode="c" horiz-adv-x="997" 
d="M537 -20q-140 0 -247.5 69t-163.5 186t-56 263q0 140 43 258.5t117.5 199t176.5 125.5t218 45q144 0 226.5 -66.5t82.5 -150.5q0 -52 -37 -91.5t-106 -51.5q-67 313 -222 313q-121 0 -211 -138.5t-90 -367.5q0 -129 41.5 -234t125 -170t196.5 -65q205 0 317 187l10 -6
q-54 -154 -162 -229.5t-259 -75.5z" />
    <glyph glyph-name="d" unicode="d" horiz-adv-x="1212" 
d="M580 92q133 0 266 111v788q-101 107 -228 107q-151 0 -243 -155.5t-92 -410.5q0 -440 297 -440zM1135 82l53 2l6 -31l-348 -73v176q-159 -176 -359 -176q-82 0 -156.5 34.5t-132.5 98t-92 162t-34 217.5q0 179 61.5 320.5t189.5 227.5t306 86q108 0 217 -28v340l-152 100
v4l340 117h4v-1485q0 -32 7 -51.5t23 -28t29.5 -10.5t37.5 -2z" />
    <glyph glyph-name="e" unicode="e" horiz-adv-x="1028" 
d="M561 1096q-114 0 -183.5 -94t-90.5 -250h499q-5 168 -61 256t-164 88zM965 258l12 -8q-56 -125 -165.5 -197.5t-244.5 -72.5q-216 0 -356.5 154t-140.5 405q0 111 34.5 215.5t96.5 187.5t159.5 133.5t214.5 50.5q98 0 173.5 -33t121 -90.5t68.5 -131t23 -160.5h-678
q-4 -62 -4 -93q0 -252 107 -387t280 -135q85 0 166.5 44t132.5 118z" />
    <glyph glyph-name="f" unicode="f" horiz-adv-x="643" 
d="M662 1638q89 0 131.5 -34.5t42.5 -83.5q0 -37 -21 -68.5t-51 -38.5q-30 64 -98.5 101.5t-145.5 37.5q-70 0 -107 -41t-46.5 -140t20.5 -265h244v-41h-242v-911q0 -32 9 -53t28.5 -33t38 -17.5t47.5 -9.5l66 -10v-31h-533v31l53 10q50 9 74.5 31t24.5 82v911h-162v41
l162 18q6 117 49 216t108.5 163t145.5 99.5t162 35.5z" />
    <glyph glyph-name="g" unicode="g" horiz-adv-x="1052" 
d="M518 1098q-101 0 -163 -75.5t-62 -213.5q0 -140 62.5 -219.5t162.5 -79.5q99 0 161 79.5t62 219.5q0 138 -61.5 213.5t-161.5 75.5zM489 -348q181 0 294.5 79.5t113.5 196.5q0 150 -205 150h-315q-49 0 -101 10q-116 -66 -116 -192q0 -114 89 -179t240 -65zM414 266h305
q147 0 225 -63.5t78 -184.5q0 -177 -156.5 -292t-406.5 -115q-207 0 -336 67t-129 189q0 163 250 231q-69 24 -108.5 70t-39.5 106q0 72 57 135.5t158 108.5q-94 38 -147 111.5t-53 177.5q0 150 113.5 234.5t293.5 84.5q98 0 174 -24q85 215 221 215q45 0 74 -26t29 -70
q0 -27 -10 -54t-27 -39q-105 54 -154 54q-28 0 -57 -21.5t-51 -66.5q99 -36 154 -109.5t55 -177.5q0 -153 -112.5 -239.5t-295.5 -86.5q-102 0 -178 27q-123 -66 -123 -152q0 -49 50 -69.5t147 -20.5z" />
    <glyph glyph-name="h" unicode="h" horiz-adv-x="1230" 
d="M1157 41l53 -10v-31h-487v31l51 10q45 9 68.5 31t23.5 82v628q0 112 -54 177t-155 65q-76 0 -150 -39.5t-134 -112.5v-718q0 -60 23.5 -82t68.5 -31l51 -10v-31h-487v31l53 10q50 9 74 31t24 82v1284l-151 100v4l340 117h4v-733q66 97 161 148.5t207 51.5
q152 0 235 -93.5t83 -254.5v-624q0 -59 25 -81.5t73 -31.5z" />
    <glyph glyph-name="i" unicode="i" horiz-adv-x="565" 
d="M537 0h-496v31l53 10q50 9 74.5 31t24.5 82v751l-152 101v4l340 116h4v-972q0 -59 25 -81.5t73 -31.5l54 -10v-31zM289 1257q-51 0 -86 35t-35 86q0 53 34.5 87t86.5 34q54 0 87.5 -33.5t33.5 -87.5q0 -52 -34 -86.5t-87 -34.5z" />
    <glyph glyph-name="j" unicode="j" horiz-adv-x="509" 
d="M-49 -389q-68 0 -104 35.5t-30.5 92t52.5 114.5q54 -64 106 -98t91 -34q55 0 83.5 56.5t28.5 197.5v930l-151 101v4l340 116h4v-962q0 -70 -39 -166t-98 -181.5t-136.5 -145.5t-146.5 -60zM287 1257q-51 0 -86 35t-35 86q0 53 34.5 87t86.5 34q54 0 87.5 -33.5
t33.5 -87.5q0 -52 -34 -86.5t-87 -34.5z" />
    <glyph glyph-name="k" unicode="k" horiz-adv-x="1103" 
d="M373 1659v-1505q0 -59 25 -81.5t73 -31.5l53 -10v-31h-495v31l53 10q50 9 74 31t24 82v1284l-151 100v4l340 117h4zM874 965l-280 -281l536 -674v-10h-243l-455 590l408 397q37 35 28.5 53t-69.5 25l-66 10v31h365v-31l-41 -10q-104 -21 -183 -100z" />
    <glyph glyph-name="l" unicode="l" horiz-adv-x="552" 
d="M524 0h-495v31l53 10q50 9 74 31t24 82v1284l-151 100v4l340 117h4v-1505q0 -59 25 -81.5t73 -31.5l53 -10v-31z" />
    <glyph glyph-name="m" unicode="m" horiz-adv-x="1929" 
d="M1855 41l54 -10v-31h-488v31l52 10q45 9 68.5 31t23.5 82v628q0 112 -54 177t-155 65q-154 0 -291 -166q6 -41 6 -80v-624q0 -59 25 -81.5t73 -31.5l54 -10v-31h-488v31l51 10q22 5 36 10t28.5 17t21.5 33t7 53v628q0 112 -54 177t-155 65q-150 0 -285 -160v-710
q0 -60 23.5 -82t68.5 -31l51 -10v-31h-487v31l53 10q50 9 74.5 31t24.5 82v751l-152 101v4l340 116h4v-211q155 211 367 211q121 0 199.5 -60.5t105.5 -168.5q158 229 381 229q153 0 236 -93.5t83 -254.5v-624q0 -59 25 -81.5t73 -31.5z" />
    <glyph glyph-name="n" unicode="n" horiz-adv-x="1243" 
d="M1169 41l54 -10v-31h-488v31l51 10q22 5 36 10t28.5 17t21.5 33t7 53v628q0 112 -54 177t-155 65q-76 0 -151 -39.5t-134 -112.5v-718q0 -60 23.5 -82t68.5 -31l51 -10v-31h-487v31l53 10q50 9 74.5 31t24.5 82v751l-152 101v4l340 116h4v-200q66 97 161 148.5t208 51.5
q151 0 234 -93.5t83 -254.5v-624q0 -59 25 -81.5t73 -31.5z" />
    <glyph glyph-name="o" unicode="o" horiz-adv-x="1157" 
d="M578 1126q221 0 365 -161t144 -410t-144 -412t-365 -163t-364.5 163t-143.5 412t143.5 410t364.5 161zM578 10q139 0 215.5 145t76.5 400q0 254 -76.5 397.5t-215.5 143.5q-136 0 -213.5 -144.5t-77.5 -396.5q0 -254 77.5 -399.5t213.5 -145.5z" />
    <glyph glyph-name="p" unicode="p" horiz-adv-x="1216" 
d="M598 8q151 0 243.5 156.5t92.5 408.5q0 441 -297 441q-133 0 -266 -111v-788q101 -107 227 -107zM729 1126q174 0 295 -138t121 -374q0 -179 -61.5 -320.5t-189.5 -227.5t-306 -86q-108 0 -217 28v-223q0 -32 10 -53t31.5 -33t41.5 -17.5t52 -9.5l72 -10v-31h-551v31
l53 10q50 9 74 31t24 82v1120l-151 101v4l340 116h4v-176q79 88 172.5 132t185.5 44z" />
    <glyph glyph-name="q" unicode="q" horiz-adv-x="1185" 
d="M580 92q133 0 266 111v788q-101 107 -228 107q-151 0 -243 -155.5t-92 -410.5q0 -440 297 -440zM1124 -328l45 -10v-31h-512v31l66 10q29 4 47.5 9.5t38 17.5t28.5 33t9 53v371q-159 -176 -359 -176q-82 0 -156.5 34.5t-132.5 98t-92 162t-34 217.5q0 134 36 248.5
t104.5 201t176 135.5t242.5 49q127 0 276 -47l105 47h26v-1341q0 -31 7 -52.5t20.5 -33.5t26 -17t32.5 -10z" />
    <glyph glyph-name="r" unicode="r" horiz-adv-x="821" 
d="M690 1124q64 0 93.5 -29t29.5 -75q0 -32 -14 -65.5t-33 -47.5q-131 70 -205 70q-49 0 -95.5 -76t-80.5 -199v-548q0 -32 10 -53t31.5 -33t41.5 -17.5t52 -9.5l72 -10v-31h-551v31l53 10q50 9 74.5 31t24.5 82v751l-152 101v4l340 116h4v-321q112 319 305 319z" />
    <glyph glyph-name="s" unicode="s" horiz-adv-x="929" 
d="M453 -20q-95 0 -195.5 32.5t-175.5 93.5v277h20q50 -161 161.5 -262t242.5 -101q91 0 150 64t59 162q0 51 -26 91.5t-68 65.5t-96 50t-110 44t-110 47.5t-96 61t-68 85t-26 118.5q0 138 109 227.5t278 89.5q166 0 291 -73v-285h-21q-110 319 -321 319q-85 0 -140 -54.5
t-55 -139.5q0 -27 9 -51.5t21 -42.5t37 -36t43.5 -29.5t55 -27t57.5 -23.5t64 -23q9 -3 14 -5q52 -18 91 -36.5t80 -46.5t67.5 -60t43.5 -77.5t17 -100.5q0 -154 -114 -254t-289 -100z" />
    <glyph glyph-name="t" unicode="t" horiz-adv-x="692" 
d="M690 123l6 -12q-46 -60 -111.5 -95.5t-140.5 -35.5q-121 0 -192.5 69t-71.5 219v797h-186v20l356 236h25v-215h287v-41h-287v-799q0 -176 153 -176q90 0 162 33z" />
    <glyph glyph-name="u" unicode="u" horiz-adv-x="1226" 
d="M1196 84l6 -31l-348 -73v206q-153 -206 -365 -206q-152 0 -235.5 94.5t-83.5 253.5v604q0 32 -6.5 51.5t-21.5 28t-29 10.5t-39 2l-54 -2l-6 31l348 73v-802q0 -112 55 -177t154 -65q149 0 283 158v692q0 32 -6.5 51.5t-21.5 28t-29 10.5t-39 2l-53 -2l-7 31l349 73v-952
q0 -32 7 -51.5t22.5 -28t29.5 -10.5t37 -2z" />
    <glyph glyph-name="v" unicode="v" horiz-adv-x="1048" 
d="M721 1075v31h340v-31l-37 -10q-23 -7 -37 -13.5t-34.5 -30.5t-34.5 -63l-318 -958h-117l-381 961q-15 38 -34.5 61t-32 29.5t-33.5 13.5l-31 10v31h496v-31l-66 -10q-68 -11 -84 -30.5t2 -73.5l291 -785l258 782q9 23 9.5 40.5t-5 28.5t-19.5 19t-29.5 12t-39.5 7z" />
    <glyph glyph-name="w" unicode="w" horiz-adv-x="1648" 
d="M1319 1075v31h348v-31l-39 -10q-18 -5 -28 -9.5t-26 -15.5t-27.5 -32t-20.5 -52l-295 -956h-117l-319 909l-234 -909h-121l-334 958q-10 30 -21.5 50.5t-26 31.5t-23.5 15.5t-25 9.5l-30 10v31h415v-31l-39 -10q-17 -4 -26.5 -9t-17.5 -16t-6.5 -31.5t11.5 -50.5
l244 -747l230 895h145l301 -909l233 759q17 60 -5.5 80t-82.5 29z" />
    <glyph glyph-name="x" unicode="x" horiz-adv-x="1105" 
d="M1083 41l45 -10v-31h-544v31l65 10q33 6 50 11t26.5 15.5t5.5 26t-20 41.5l-217 348l-240 -350q-21 -33 -22 -51.5t14.5 -27t50.5 -13.5l57 -10v-31h-362v31l51 10q111 21 158 92l266 393l-279 445q-52 73 -135 94l-39 10v31h490v-31l-53 -10q-50 -8 -58.5 -29t21.5 -65
l198 -318l207 318q23 32 25 51.5t-13.5 28.5t-50.5 14l-53 10v31h332v-31l-45 -10q-103 -24 -146 -94l-231 -355l303 -481q20 -31 60 -57.5t83 -36.5z" />
    <glyph glyph-name="y" unicode="y" horiz-adv-x="1038" 
d="M711 1075v31h348v-31l-37 -10q-24 -7 -38.5 -13.5t-36.5 -30.5t-36 -63l-336 -907q-17 -45 -30.5 -78.5t-38.5 -88.5t-51 -94t-59 -78.5t-72 -60t-80 -20.5q-18 0 -38 4t-43.5 15t-41.5 27.5t-30.5 44.5t-12.5 63q0 52 22 100q182 -92 244 -92q56 0 88.5 48.5t77.5 178.5
l-404 943q-16 37 -36 59.5t-32.5 29t-33.5 13.5l-31 10v31h498v-31l-65 -10q-60 -9 -82 -28.5t0 -75.5l278 -703l254 700q21 57 -1 77.5t-81 29.5z" />
    <glyph glyph-name="z" unicode="z" horiz-adv-x="978" 
d="M117 1106h803v-25l-648 -1042h316q117 0 184 80.5t111 273.5h20l-37 -393h-829v25l645 1040h-295q-106 0 -171 -71.5t-116 -233.5h-20z" />
    <glyph glyph-name="braceleft" unicode="{" horiz-adv-x="698" 
d="M102 629v33q80 16 125 64t45 140v449q0 120 93 191t241 71v-55q-82 -10 -134 -58t-52 -143v-447q0 -102 -40.5 -149.5t-146.5 -79.5q106 -32 146.5 -79.5t40.5 -149.5v-447q0 -95 52 -142.5t134 -57.5v-56q-148 0 -241 71t-93 191v449q0 170 -170 205z" />
    <glyph glyph-name="bar" unicode="|" horiz-adv-x="526" 
d="M322 1577v-1866h-117v1866h117z" />
    <glyph glyph-name="braceright" unicode="}" horiz-adv-x="698" 
d="M596 662v-33q-170 -35 -170 -205v-449q0 -120 -93 -191t-241 -71v56q82 10 134.5 57.5t52.5 142.5v447q0 102 40.5 149.5t145.5 79.5q-105 32 -145.5 79.5t-40.5 149.5v447q0 95 -52.5 143t-134.5 58v55q148 0 241 -71t93 -191v-449q0 -92 45 -140t125 -64z" />
    <glyph glyph-name="asciitilde" unicode="~" horiz-adv-x="1093" 
d="M754 539q-48 0 -94.5 19t-83 46.5t-71.5 55t-74.5 46.5t-76.5 19q-51 0 -91 -19.5t-66.5 -49t-57.5 -78.5l-33 24q95 164 248 164q47 0 92 -19t81 -46.5t71 -55t75.5 -46.5t80.5 -19q65 0 113 37t96 112l30 -27q-95 -163 -239 -163z" />
    <glyph glyph-name="uni00A0" unicode="&#xa0;" horiz-adv-x="438" 
 />
    <glyph glyph-name="exclamdown" unicode="&#xa1;" horiz-adv-x="481" 
d="M123 -160l108 795h25l100 -795q11 -87 -20 -137.5t-96 -50.5q-66 0 -97.5 51t-19.5 137zM242 1118q54 0 89.5 -36t35.5 -87q0 -54 -35.5 -90.5t-89.5 -36.5q-51 0 -87 36.5t-36 90.5q0 51 36 87t87 36z" />
    <glyph glyph-name="cent" unicode="&#xa2;" horiz-adv-x="1036" 
d="M291 745q0 -174 74 -300.5t208 -159.5v966q-116 -9 -199 -147t-83 -359zM971 463l10 -6q-99 -278 -367 -303v-293h-41v291h-14q-212 0 -339.5 146.5t-127.5 371.5q0 258 135 427t346 197v305h41v-301h33q144 0 226.5 -66.5t82.5 -150.5q0 -52 -37 -91.5t-106 -51.5
q-62 290 -199 311v-970q9 -3 21 -3h18q206 0 318 187z" />
    <glyph glyph-name="sterling" unicode="&#xa3;" horiz-adv-x="1292" 
d="M1231 401h20l-129 -401h-962v20q126 64 217.5 158.5t91.5 196.5q0 71 -55 172h-324v41h299q-74 116 -102 176h-197v41h180q-37 95 -37 201q0 196 143.5 322t362.5 126q198 0 373 -88v-340h-20q-26 78 -65 145.5t-92 122t-122.5 86t-148.5 31.5q-119 0 -188.5 -79
t-69.5 -204q0 -40 8 -79.5t30 -88.5t33.5 -71.5t44.5 -83.5h502v-41h-479q56 -104 76 -176h403v-41h-393q6 -34 6 -72q0 -160 -213 -301h496q202 0 311 227z" />
    <glyph glyph-name="currency" unicode="&#xa4;" horiz-adv-x="1134" 
d="M258 719q0 -136 85 -220.5t222 -84.5q139 0 223 84t82 221q0 137 -84 221t-221 84t-222 -84.5t-85 -220.5zM911 719q0 -145 -82 -236l238 -235l-31 -29l-235 236q-91 -82 -236 -82q-141 0 -233 80l-234 -234l-30 29l233 231q-84 104 -84 240q0 141 84 237l-233 232l30 29
l232 -232q92 80 235 80t238 -82l233 234l31 -29l-236 -234q80 -92 80 -235z" />
    <glyph glyph-name="yen" unicode="&#xa5;" horiz-adv-x="1341" 
d="M874 1403v31h437v-31l-49 -10q-26 -5 -40 -9t-36.5 -14.5t-39.5 -30t-32 -47.5l-323 -624h387v-41h-404v-226h404v-41h-404v-206q0 -32 10 -53t31.5 -33t41.5 -17.5t52 -9.5l72 -10v-31h-623v31l72 10q32 4 52 9.5t41.5 17.5t31.5 33t10 53v206h-403v41h403v226h-403v41
h381l-369 628q-17 31 -50 59t-65 38l-30 10v31h516v-31l-66 -10q-29 -4 -44.5 -8.5t-28 -15t-10.5 -28t18 -45.5l344 -596l307 592q12 23 12.5 40t-6.5 27t-26 17t-37.5 10t-49.5 7z" />
    <glyph glyph-name="brokenbar" unicode="&#xa6;" horiz-adv-x="432" 
d="M240 -240h-47v744h47v-744zM240 854h-47v743h47v-743z" />
    <glyph glyph-name="section" unicode="&#xa7;" horiz-adv-x="1341" 
d="M979 -29q151 113 151 234q0 43 -21.5 89t-51 85t-83.5 89.5t-96.5 85.5t-111.5 89q-87 66 -141.5 111t-118.5 107t-99.5 119.5t-44.5 113.5q-151 -113 -151 -234q0 -43 21 -89t52 -86t83 -88.5t97 -85.5t111 -87q74 -57 113.5 -88.5t100.5 -86t93.5 -93.5t61 -89
t35.5 -96zM1280 336q0 -105 -85 -215t-214 -182v-2q0 -77 -53 -154q-56 -78 -150 -125t-211 -47q-100 0 -146 35t-46 84q0 35 25 67t59 45q34 -79 84.5 -125.5t130.5 -46.5q72 0 110.5 38.5t38.5 107.5q0 55 -42 117t-109 122.5t-148.5 124.5t-163 131t-148.5 133.5
t-109 140.5t-42 144q0 105 86 216.5t213 180.5v2q0 80 53 155t149.5 123t211.5 48q100 0 146.5 -35t46.5 -84q0 -36 -24 -68t-60 -44q-35 80 -83.5 126t-131.5 46q-69 0 -109.5 -38.5t-40.5 -107.5q0 -114 197 -278q43 -37 120 -98t129.5 -103.5t117 -102.5t104 -109
t67 -108t27.5 -114z" />
    <glyph glyph-name="dieresis" unicode="&#xa8;" 
d="M412 1257q-50 0 -82.5 33t-32.5 84t32.5 84t82.5 33q51 0 83.5 -33t32.5 -84t-32.5 -84t-83.5 -33zM815 1257q-50 0 -82.5 33t-32.5 84t32.5 84t82.5 33q51 0 84 -33t33 -84t-33 -84t-84 -33z" />
    <glyph glyph-name="copyright" unicode="&#xa9;" horiz-adv-x="1828" 
d="M913 -55q223 0 400 96.5t278 274.5t101 407q0 230 -101 408.5t-278 275t-400 96.5t-399.5 -96.5t-276.5 -274.5t-100 -409q0 -172 58.5 -317.5t161 -246.5t246 -157.5t310.5 -56.5zM956 281q-132 0 -240 52.5t-173.5 154.5t-65.5 235t65.5 235t175 154.5t245.5 52.5
q156 0 278 -65l10 -219h-16q-30 111 -104 182.5t-166 71.5q-118 0 -185 -110t-67 -300q0 -192 70 -303t194 -111q97 0 169.5 70.5t92.5 183.5h14v-217q-146 -67 -297 -67zM913 -92q-233 0 -418 100t-291 286.5t-106 428.5q0 179 61.5 331t169.5 257t259 164t325 59
q236 0 422 -101t291 -286t105 -424q0 -182 -61.5 -334.5t-169.5 -258t-259 -164t-328 -58.5z" />
    <glyph glyph-name="ordfeminine" unicode="&#xaa;" horiz-adv-x="843" 
d="M332 629q49 0 97 30t87 82v156q-44 8 -90 8q-90 0 -147.5 -43t-57.5 -119q0 -114 111 -114zM848 649l6 -16q-21 -43 -74.5 -75t-109.5 -32q-73 0 -113.5 41t-40.5 113v25q-52 -82 -126 -130.5t-161 -48.5t-139.5 49t-52.5 125q0 225 479 256v232q0 90 -54 134t-134 44
q-67 0 -90 -61t-17 -209q-70 -7 -109.5 19.5t-39.5 72.5q0 54 65 115.5t168 104t201 42.5q199 0 199 -242v-528q-3 -47 38 -47q36 0 105 16z" />
    <glyph glyph-name="guillemotleft" unicode="&#xab;" horiz-adv-x="925" 
d="M457 145l-2 -2l-363 408v4l363 408l2 -2l-156 -408zM805 145l-2 -2l-363 408v4l363 408l2 -2l-156 -408z" />
    <glyph glyph-name="uni00AD" unicode="&#xad;" horiz-adv-x="692" 
d="M612 696h-532v41h532v-41z" />
    <glyph glyph-name="registered" unicode="&#xae;" horiz-adv-x="1126" 
d="M563 592q185 0 310.5 121t125.5 311t-126.5 310t-311.5 120q-119 0 -217.5 -53t-157.5 -152t-59 -225q0 -190 125.5 -311t310.5 -121zM516 1233v-199h37q86 0 86 103q0 96 -90 96h-33zM563 1485q200 0 334.5 -127.5t134.5 -333.5t-134.5 -334.5t-334.5 -128.5
q-198 0 -333.5 129t-135.5 334q0 136 63.5 242.5t170 162.5t235.5 56zM750 1141q0 -77 -91 -115l138 -180v-21h-117l-117 185h-47v-129q0 -30 35 -33l18 -2v-21h-211v21l17 2q37 4 37 33v319q0 29 -37 33l-17 2v20h191q94 0 147.5 -30t53.5 -84z" />
    <glyph glyph-name="macron" unicode="&#xaf;" 
d="M930 1292h-629v41h629v-41z" />
    <glyph glyph-name="degree" unicode="&#xb0;" horiz-adv-x="724" 
d="M362 909q-108 0 -188 76t-80 193q0 122 79.5 199t188.5 77q111 0 190 -77t79 -199q0 -117 -79.5 -193t-189.5 -76zM362 950q90 0 158 64t68 164q0 103 -68 169t-158 66t-157.5 -66t-67.5 -169q0 -100 67.5 -164t157.5 -64z" />
    <glyph glyph-name="plusminus" unicode="&#xb1;" horiz-adv-x="1097" 
d="M567 397h-41v326h-405v41h405v330h41v-330h412v-41h-412v-326zM98 156v41h901v-41h-901z" />
    <glyph glyph-name="twosuperior" unicode="&#xb2;" horiz-adv-x="690" 
d="M573 573h-567v27q297 292 361 447q32 89 28 150.5t-41 96.5q-42 39 -106 39q-58 0 -111 -34t-80 -93l-16 11q40 109 132.5 168t193.5 59q95 0 159 -55.5t64 -149.5q0 -61 -28 -122t-86 -124.5t-129.5 -124t-174.5 -135.5l2 -4h238q138 0 200 121h25z" />
    <glyph glyph-name="threesuperior" unicode="&#xb3;" horiz-adv-x="679" 
d="M276 561q-105 0 -176 41q-64 37 -69 87t51 99q43 -75 112.5 -131.5t133.5 -56.5q55 0 89 42t34 108q0 101 -82.5 156t-218.5 50l-11 23q124 68 181 128.5t57 127.5q0 52 -33 81.5t-82 29.5q-60 0 -114.5 -39.5t-84.5 -98.5l-16 11q39 101 133.5 164t196.5 63
q78 0 127 -39.5t49 -110.5q0 -73 -60.5 -126.5t-183.5 -110.5l2 -4q146 -1 229 -64t83 -155q0 -110 -97 -192.5t-250 -82.5z" />
    <glyph glyph-name="acute" unicode="&#xb4;" 
d="M709 1513h247v-4l-364 -311h-10z" />
    <glyph glyph-name="paragraph" unicode="&#xb6;" horiz-adv-x="1345" 
d="M715 1434h588v-41h-205v-1762h-41v1762h-293v-1762h-41v820h-8q-313 0 -497.5 136.5t-184.5 366.5q0 219 184.5 349.5t497.5 130.5z" />
    <glyph glyph-name="periodcentered" unicode="&#xb7;" horiz-adv-x="440" 
d="M219 590q-51 0 -87 36t-36 87q0 54 36 90.5t87 36.5q54 0 89.5 -36.5t35.5 -90.5q0 -51 -36 -87t-89 -36z" />
    <glyph glyph-name="cedilla" unicode="&#xb8;" 
d="M653 6l-47 -94q193 -55 193 -178q0 -45 -26.5 -83t-69 -62.5t-97 -41.5t-108.5 -24.5t-105 -7.5l-18 71q79 -20 143 -20q74 0 117 28t43 82q0 96 -195 134l115 196h55z" />
    <glyph glyph-name="onesuperior" unicode="&#xb9;" horiz-adv-x="509" 
d="M473 573h-438v31l61 4q35 5 51.5 16t16.5 38v593q0 31 -10 41.5t-45 10.5h-91v24l306 113h18v-782q0 -25 16.5 -36t51.5 -16l63 -6v-31z" />
    <glyph glyph-name="ordmasculine" unicode="&#xba;" horiz-adv-x="944" 
d="M471 1450q185 0 303.5 -129.5t118.5 -331.5t-120 -332.5t-302 -130.5t-301 130.5t-119 332.5t119 331.5t301 129.5zM471 551q102 0 156.5 114t54.5 324q0 208 -54.5 322t-156.5 114q-100 0 -154.5 -114.5t-54.5 -321.5q0 -209 54.5 -323.5t154.5 -114.5z" />
    <glyph glyph-name="guillemotright" unicode="&#xbb;" horiz-adv-x="925" 
d="M485 551l-362 -408l-2 2l155 408l-155 408l2 2l362 -408v-4zM834 551l-363 -408l-2 2l156 408l-156 408l2 2l363 -408v-4z" />
    <glyph glyph-name="onequarter" unicode="&#xbc;" horiz-adv-x="1570" 
d="M1407 258h123v-37h-123v-133q0 -19 8 -30.5t18 -15t29 -7.5l49 -4v-31h-387v31l50 4q28 5 41.5 16.5t13.5 36.5v133h-359l-16 31l358 608h172v-12l-483 -590h328v287l178 49v-336zM35 573v31l61 4q35 5 51.5 16t16.5 38v593q0 31 -10 41.5t-45 10.5h-91v24l306 113h18
v-782q0 -25 16.5 -36t51.5 -16l63 -6v-31h-438zM336 -23l-35 23l879 1456l32 -22z" />
    <glyph glyph-name="onehalf" unicode="&#xbd;" horiz-adv-x="1605" 
d="M1552 276l-63 -276h-567v27q296 291 360 446q66 173 -12 248q-42 39 -107 39q-58 0 -110.5 -33.5t-79.5 -93.5l-17 10q40 109 132.5 168t193.5 59q96 0 159.5 -55t63.5 -149q0 -61 -28 -122t-86 -124.5t-129.5 -124t-174.5 -135.5l3 -4h237q139 0 201 120h24zM473 604
v-31h-438v31l61 4q35 5 51.5 16t16.5 38v593q0 31 -10 41.5t-45 10.5h-91v24l306 113h18v-782q0 -25 16.5 -36t51.5 -16zM1180 1456l32 -22l-876 -1457l-35 23z" />
    <glyph glyph-name="threequarters" unicode="&#xbe;" horiz-adv-x="1699" 
d="M623 834q0 -110 -97 -192.5t-250 -82.5q-105 0 -176 41q-64 37 -69 87t51 99q43 -75 112.5 -131.5t133.5 -56.5q55 0 89 42t34 108q0 101 -82.5 156t-218.5 50l-11 23q124 68 181 128.5t57 127.5q0 52 -32.5 81t-82.5 29q-60 0 -114.5 -39t-84.5 -98l-16 11
q39 101 133.5 164t196.5 63q78 0 127 -39.5t49 -110.5q0 -73 -60.5 -126.5t-183.5 -110.5l2 -4q146 -1 229 -64t83 -155zM465 -23l-35 23l879 1456l32 -22zM1536 258h123v-37h-123v-133q0 -19 8 -30.5t18 -15t29 -7.5l49 -4v-31h-387v31l50 4q28 5 41.5 16.5t13.5 36.5v133
h-359l-16 31l358 608h172v-12l-483 -590h328v287l178 49v-336z" />
    <glyph glyph-name="questiondown" unicode="&#xbf;" horiz-adv-x="763" 
d="M678 -100q43 -52 43 -109q0 -65 -65.5 -102t-190.5 -37q-108 0 -205.5 35t-164 108.5t-66.5 171.5q0 122 112 231t318 175l28 256h21l31 -418q-100 -31 -177.5 -75t-122 -91.5t-67 -92.5t-22.5 -85q0 -58 43 -100.5t118 -42.5q85 0 189.5 48.5t177.5 127.5zM496 868
q-54 0 -89.5 36.5t-35.5 90.5q0 51 35.5 87t89.5 36q53 0 87.5 -35.5t34.5 -87.5q0 -55 -34 -91t-88 -36z" />
    <glyph glyph-name="Agrave" unicode="&#xc0;" horiz-adv-x="1378" 
d="M858 588l-258 706l-246 -706h504zM1378 41l52 -10v-31h-547v31l61 10q63 10 79 32.5t-3 73.5l-146 400h-534l-137 -400q-17 -51 6.5 -73.5t109.5 -32.5l82 -10v-31h-430v31l49 10q62 12 89.5 33.5t44.5 72.5l442 1287h162l487 -1289q19 -50 46 -71t87 -33zM383 1841h248
l127 -315h-10l-365 311v4z" />
    <glyph glyph-name="Aacute" unicode="&#xc1;" horiz-adv-x="1378" 
d="M858 588l-258 706l-246 -706h504zM1378 41l52 -10v-31h-547v31l61 10q63 10 79 32.5t-3 73.5l-146 400h-534l-137 -400q-17 -51 6.5 -73.5t109.5 -32.5l82 -10v-31h-430v31l49 10q62 12 89.5 33.5t44.5 72.5l442 1287h162l487 -1289q19 -50 46 -71t87 -33zM752 1843h247
v-4l-364 -311h-10z" />
    <glyph glyph-name="Acircumflex" unicode="&#xc2;" horiz-adv-x="1378" 
d="M858 588l-258 706l-246 -706h504zM1378 41l52 -10v-31h-547v31l61 10q63 10 79 32.5t-3 73.5l-146 400h-534l-137 -400q-17 -51 6.5 -73.5t109.5 -32.5l82 -10v-31h-430v31l49 10q62 12 89.5 33.5t44.5 72.5l442 1287h162l487 -1289q19 -50 46 -71t87 -33zM973 1544
l-6 -8l-289 143l-291 -143l-6 6l295 318h4z" />
    <glyph glyph-name="Atilde" unicode="&#xc3;" horiz-adv-x="1378" 
d="M858 588l-258 706l-246 -706h504zM1378 41l52 -10v-31h-547v31l61 10q63 10 79 32.5t-3 73.5l-146 400h-534l-137 -400q-17 -51 6.5 -73.5t109.5 -32.5l82 -10v-31h-430v31l49 10q62 12 89.5 33.5t44.5 72.5l442 1287h162l487 -1289q19 -50 46 -71t87 -33zM489 1661
q-72 0 -110 -90l-14 2q25 97 72 157t112 60q42 0 87 -22.5t77.5 -49t74.5 -49t78 -22.5q39 0 64 24.5t45 75.5l14 -2q-22 -98 -70.5 -160.5t-117.5 -62.5q-44 0 -90 21.5t-78.5 48t-72 48t-71.5 21.5z" />
    <glyph glyph-name="Adieresis" unicode="&#xc4;" horiz-adv-x="1378" 
d="M858 588l-258 706l-246 -706h504zM1378 41l52 -10v-31h-547v31l61 10q63 10 79 32.5t-3 73.5l-146 400h-534l-137 -400q-17 -51 6.5 -73.5t109.5 -32.5l82 -10v-31h-430v31l49 10q62 12 89.5 33.5t44.5 72.5l442 1287h162l487 -1289q19 -50 46 -71t87 -33zM475 1606
q-50 0 -82.5 32.5t-32.5 83.5t32.5 84t82.5 33q51 0 84 -33t33 -84t-33 -83.5t-84 -32.5zM879 1606q-50 0 -82.5 32.5t-32.5 83.5t32.5 84t82.5 33q51 0 83.5 -33t32.5 -84t-32.5 -83.5t-83.5 -32.5z" />
    <glyph glyph-name="Aring" unicode="&#xc5;" horiz-adv-x="1378" 
d="M858 588l-258 706l-246 -706h504zM680 1845q-58 0 -95.5 -37.5t-37.5 -97.5q0 -57 38 -94t95 -37q60 0 97.5 37t37.5 94q0 60 -37.5 97.5t-97.5 37.5zM1378 41l52 -10v-31h-547v31l61 10q63 10 79 32.5t-3 73.5l-146 400h-534l-137 -400q-17 -51 6.5 -73.5t109.5 -32.5
l82 -10v-31h-430v31l49 10q62 12 89.5 33.5t44.5 72.5l442 1287h162l487 -1289q19 -50 46 -71t87 -33zM680 1528q-82 0 -135 51.5t-53 130.5q0 82 53 134t135 52q84 0 137 -52t53 -134q0 -80 -53 -131t-137 -51z" />
    <glyph glyph-name="AE" unicode="&#xc6;" horiz-adv-x="1994" 
d="M963 1319l-357 -563h361v524q0 19 -4 39zM1915 461h22l-65 -461h-1094v31l66 10q29 4 47.5 9.5t38 17.5t28.5 33t9 53v561h-387l-367 -580q-29 -44 -10 -64t104 -30l82 -10v-31h-438v31l51 10q65 12 97.5 31.5t58.5 62.5l780 1225q-11 11 -28 18t-28 9t-38 6l-66 10v31
h1016l66 -441l-21 -6q-120 406 -397 406h-266v-637h198q56 0 85.5 18t49.5 70t37 160h21v-537h-21q-13 110 -31.5 162t-49 69t-91.5 17h-198v-674h301q88 0 152.5 19t119.5 66t95.5 129.5t70.5 205.5z" />
    <glyph glyph-name="Ccedilla" unicode="&#xc7;" horiz-adv-x="1417" 
d="M813 10q180 0 318.5 116.5t181.5 305.5h18v-334q-233 -118 -485 -118h-37l-35 -68q193 -55 193 -178q0 -45 -26.5 -83t-69 -62.5t-97 -41.5t-108.5 -24.5t-105 -7.5l-18 71q79 -20 143 -20q74 0 117 28t43 82q0 96 -195 134l103 174q-314 28 -495 224t-181 509
q0 158 56 294.5t155 234t241 153t308 55.5q252 0 473 -111l20 -342h-20q-64 196 -194.5 309t-307.5 113q-144 0 -258 -90.5t-178 -252t-64 -363.5q0 -323 137 -515t367 -192z" />
    <glyph glyph-name="Egrave" unicode="&#xc8;" horiz-adv-x="1267" 
d="M1188 461h22l-65 -461h-1094v31l66 10q29 4 47.5 9.5t38 17.5t28.5 33t9 53v1126q0 32 -9 53t-28.5 33t-38 17.5t-47.5 9.5l-66 10v31h1016l66 -441l-21 -6q-120 406 -397 406h-266v-637h198q56 0 85.5 18t49.5 70t37 160h21v-537h-21q-13 110 -31.5 162t-49 69t-91.5 17
h-198v-674h301q88 0 152.5 19t119.5 66t95.5 129.5t70.5 205.5zM592 1841l127 -315h-10l-365 311v4h248z" />
    <glyph glyph-name="Eacute" unicode="&#xc9;" horiz-adv-x="1267" 
d="M1188 461h22l-65 -461h-1094v31l66 10q29 4 47.5 9.5t38 17.5t28.5 33t9 53v1126q0 32 -9 53t-28.5 33t-38 17.5t-47.5 9.5l-66 10v31h1016l66 -441l-21 -6q-120 406 -397 406h-266v-637h198q56 0 85.5 18t49.5 70t37 160h21v-537h-21q-13 110 -31.5 162t-49 69t-91.5 17
h-198v-674h301q88 0 152.5 19t119.5 66t95.5 129.5t70.5 205.5zM961 1843v-4l-365 -311h-10l127 315h248z" />
    <glyph glyph-name="Ecircumflex" unicode="&#xca;" horiz-adv-x="1267" 
d="M1188 461h22l-65 -461h-1094v31l66 10q29 4 47.5 9.5t38 17.5t28.5 33t9 53v1126q0 32 -9 53t-28.5 33t-38 17.5t-47.5 9.5l-66 10v31h1016l66 -441l-21 -6q-120 406 -397 406h-266v-637h198q56 0 85.5 18t49.5 70t37 160h21v-537h-21q-13 110 -31.5 162t-49 69t-91.5 17
h-198v-674h301q88 0 152.5 19t119.5 66t95.5 129.5t70.5 205.5zM928 1536l-289 143l-291 -143l-6 6l295 318h4l293 -316z" />
    <glyph glyph-name="Edieresis" unicode="&#xcb;" horiz-adv-x="1267" 
d="M1188 461h22l-65 -461h-1094v31l66 10q29 4 47.5 9.5t38 17.5t28.5 33t9 53v1126q0 32 -9 53t-28.5 33t-38 17.5t-47.5 9.5l-66 10v31h1016l66 -441l-21 -6q-120 406 -397 406h-266v-637h198q56 0 85.5 18t49.5 70t37 160h21v-537h-21q-13 110 -31.5 162t-49 69t-91.5 17
h-198v-674h301q88 0 152.5 19t119.5 66t95.5 129.5t70.5 205.5zM436 1606q-50 0 -82 32.5t-32 83.5t32 84t82 33q51 0 84 -33t33 -84t-33 -83.5t-84 -32.5zM840 1606q-50 0 -82.5 32.5t-32.5 83.5t32.5 84t82.5 33q51 0 83.5 -33t32.5 -84t-32.5 -83.5t-83.5 -32.5z" />
    <glyph glyph-name="Igrave" unicode="&#xcc;" horiz-adv-x="688" 
d="M637 0h-586v31l66 10q29 4 47.5 9.5t38 17.5t28.5 33t9 53v1126q0 32 -9 53t-28.5 33t-38 17.5t-47.5 9.5l-66 10v31h586v-31l-66 -10q-29 -4 -47.5 -9.5t-37.5 -17.5t-28 -33t-9 -53v-1126q0 -32 9 -53t28 -33t37.5 -17.5t47.5 -9.5l66 -10v-31zM51 1837v4h248l127 -315
h-10z" />
    <glyph glyph-name="Iacute" unicode="&#xcd;" horiz-adv-x="688" 
d="M637 0h-586v31l66 10q29 4 47.5 9.5t38 17.5t28.5 33t9 53v1126q0 32 -9 53t-28.5 33t-38 17.5t-47.5 9.5l-66 10v31h586v-31l-66 -10q-29 -4 -47.5 -9.5t-37.5 -17.5t-28 -33t-9 -53v-1126q0 -32 9 -53t28 -33t37.5 -17.5t47.5 -9.5l66 -10v-31zM420 1843h248v-4
l-365 -311h-10z" />
    <glyph glyph-name="Icircumflex" unicode="&#xce;" horiz-adv-x="688" 
d="M637 0h-586v31l66 10q29 4 47.5 9.5t38 17.5t28.5 33t9 53v1126q0 32 -9 53t-28.5 33t-38 17.5t-47.5 9.5l-66 10v31h586v-31l-66 -10q-29 -4 -47.5 -9.5t-37.5 -17.5t-28 -33t-9 -53v-1126q0 -32 9 -53t28 -33t37.5 -17.5t47.5 -9.5l66 -10v-31zM346 1679l-291 -143
l-6 6l295 318h4l293 -316l-6 -8z" />
    <glyph glyph-name="Idieresis" unicode="&#xcf;" horiz-adv-x="688" 
d="M637 0h-586v31l66 10q29 4 47.5 9.5t38 17.5t28.5 33t9 53v1126q0 32 -9 53t-28.5 33t-38 17.5t-47.5 9.5l-66 10v31h586v-31l-66 -10q-29 -4 -47.5 -9.5t-37.5 -17.5t-28 -33t-9 -53v-1126q0 -32 9 -53t28 -33t37.5 -17.5t47.5 -9.5l66 -10v-31zM143 1606
q-50 0 -82 32.5t-32 83.5t32 84t82 33q51 0 84 -33t33 -84t-33 -83.5t-84 -32.5zM547 1606q-50 0 -82.5 32.5t-32.5 83.5t32.5 84t82.5 33q51 0 84 -33t33 -84t-33 -83.5t-84 -32.5z" />
    <glyph glyph-name="Eth" unicode="&#xd0;" horiz-adv-x="1517" 
d="M455 696v-655h219q238 0 387 185.5t149 490.5t-149 490.5t-387 185.5h-219v-656h323v-41h-323zM53 1403v31h615q163 0 305 -51.5t245.5 -143t163.5 -227t60 -295.5t-60 -295.5t-163.5 -227t-245.5 -143t-305 -51.5h-615v31l66 10q29 4 47.5 9.5t38 17.5t28.5 33t9 53v542
h-168v41h168v543q0 32 -9 53t-28.5 33t-38 17.5t-47.5 9.5z" />
    <glyph glyph-name="Ntilde" unicode="&#xd1;" horiz-adv-x="1556" 
d="M1065 1403v31h461v-31l-72 -10q-32 -4 -52 -9.5t-41.5 -17.5t-31.5 -33t-10 -53v-1280h-156l-872 1272v-1118q0 -32 10 -53t31.5 -33t41.5 -17.5t52 -9.5l72 -10v-31h-461v31l72 10q32 4 52 9.5t41.5 17.5t31.5 33t10 53v1126q0 32 -9 53t-27.5 33t-36.5 17.5t-46 9.5
l-64 10v31h365l846 -1203v1049q0 32 -10 53t-31.5 33t-41.5 17.5t-52 9.5zM621 1661q-73 0 -111 -90l-14 2q25 97 72 157t112 60q42 0 87 -22.5t77.5 -49t74.5 -49t78 -22.5q39 0 64 24.5t45 75.5l14 -2q-22 -98 -70.5 -160.5t-117.5 -62.5q-44 0 -90 21.5t-78 48t-71.5 48
t-71.5 21.5z" />
    <glyph glyph-name="Ograve" unicode="&#xd2;" horiz-adv-x="1495" 
d="M748 10q205 0 323.5 183.5t118.5 523.5t-118.5 523t-323.5 183q-203 0 -323 -183.5t-120 -522.5t120 -523t323 -184zM748 1454q152 0 279.5 -58.5t212 -159t131 -234.5t46.5 -285q0 -148 -45.5 -281t-129 -234.5t-211.5 -161.5t-283 -60q-151 0 -278.5 59t-212.5 159.5
t-132 234.5t-47 284q0 147 46 280t130 235t212 162t282 60zM817 1526l-364 311v4h247l127 -315h-10z" />
    <glyph glyph-name="Oacute" unicode="&#xd3;" horiz-adv-x="1495" 
d="M748 10q205 0 323.5 183.5t118.5 523.5t-118.5 523t-323.5 183q-203 0 -323 -183.5t-120 -522.5t120 -523t323 -184zM748 1454q152 0 279.5 -58.5t212 -159t131 -234.5t46.5 -285q0 -148 -45.5 -281t-129 -234.5t-211.5 -161.5t-283 -60q-151 0 -278.5 59t-212.5 159.5
t-132 234.5t-47 284q0 147 46 280t130 235t212 162t282 60zM694 1528l127 315h248v-4l-364 -311h-11z" />
    <glyph glyph-name="Ocircumflex" unicode="&#xd4;" horiz-adv-x="1495" 
d="M748 10q205 0 323.5 183.5t118.5 523.5t-118.5 523t-323.5 183q-203 0 -323 -183.5t-120 -522.5t120 -523t323 -184zM748 1454q152 0 279.5 -58.5t212 -159t131 -234.5t46.5 -285q0 -148 -45.5 -281t-129 -234.5t-211.5 -161.5t-283 -60q-151 0 -278.5 59t-212.5 159.5
t-132 234.5t-47 284q0 147 46 280t130 235t212 162t282 60zM1036 1536l-288 143l-291 -143l-6 6l294 318h5l292 -316z" />
    <glyph glyph-name="Otilde" unicode="&#xd5;" horiz-adv-x="1495" 
d="M748 10q205 0 323.5 183.5t118.5 523.5t-118.5 523t-323.5 183q-203 0 -323 -183.5t-120 -522.5t120 -523t323 -184zM748 1454q152 0 279.5 -58.5t212 -159t131 -234.5t46.5 -285q0 -148 -45.5 -281t-129 -234.5t-211.5 -161.5t-283 -60q-151 0 -278.5 59t-212.5 159.5
t-132 234.5t-47 284q0 147 46 280t130 235t212 162t282 60zM870 1522q-44 0 -90 21.5t-78 48t-71.5 48t-71.5 21.5q-72 0 -110 -90l-15 2q25 97 72 157t112 60q42 0 87 -22.5t78 -49t75 -49t78 -22.5q39 0 63.5 24.5t44.5 75.5l15 -2q-21 -98 -70.5 -160.5t-118.5 -62.5z
" />
    <glyph glyph-name="Odieresis" unicode="&#xd6;" horiz-adv-x="1495" 
d="M748 10q205 0 323.5 183.5t118.5 523.5t-118.5 523t-323.5 183q-203 0 -323 -183.5t-120 -522.5t120 -523t323 -184zM748 1454q152 0 279.5 -58.5t212 -159t131 -234.5t46.5 -285q0 -148 -45.5 -281t-129 -234.5t-211.5 -161.5t-283 -60q-151 0 -278.5 59t-212.5 159.5
t-132 234.5t-47 284q0 147 46 280t130 235t212 162t282 60zM545 1606q-50 0 -82.5 32.5t-32.5 83.5t32.5 84t82.5 33q51 0 84 -33t33 -84t-33 -83.5t-84 -32.5zM948 1606q-50 0 -82 32.5t-32 83.5t32 84t82 33q51 0 84 -33t33 -84t-33 -83.5t-84 -32.5z" />
    <glyph glyph-name="multiply" unicode="&#xd7;" horiz-adv-x="974" 
d="M520 664l375 -375l-33 -33l-375 375l-374 -377l-31 35l373 375l-373 372l33 35l374 -375l373 375l31 -35z" />
    <glyph glyph-name="Oslash" unicode="&#xd8;" horiz-adv-x="1560" 
d="M338 717q0 -208 47 -363l774 774q-55 145 -152.5 220t-226.5 75q-203 0 -322.5 -183.5t-119.5 -522.5zM1223 717q0 218 -49 366l-773 -774q55 -147 152.5 -223t226.5 -76q205 0 324 183.5t119 523.5zM1268 1239l192 193l31 -31l-197 -197q156 -199 156 -487
q0 -148 -46 -281t-129.5 -234.5t-211.5 -161.5t-283 -60q-147 0 -272 57t-217 162l-195 -195l-28 31l196 196q-153 201 -153 486q0 147 46 280t129.5 235t211.5 162t282 60q147 0 273.5 -56t214.5 -159z" />
    <glyph glyph-name="Ugrave" unicode="&#xd9;" horiz-adv-x="1476" 
d="M745 -20q-247 0 -392.5 142t-145.5 390v768q0 60 -28 82t-85 31l-59 10v31h571v-31l-65 -10q-29 -4 -47.5 -9.5t-38 -17.5t-28.5 -33t-9 -53v-780q0 -211 107 -331t298 -120t295.5 120.5t104.5 332.5v778q0 32 -10 53t-30.5 33t-40.5 17.5t-52 9.5l-70 10v31h457v-31
l-72 -10q-32 -4 -52 -9.5t-41.5 -17.5t-31.5 -33t-10 -53v-778q0 -244 -140 -383t-385 -139zM500 1837v4h248l126 -315h-10z" />
    <glyph glyph-name="Uacute" unicode="&#xda;" horiz-adv-x="1476" 
d="M745 -20q-247 0 -392.5 142t-145.5 390v768q0 60 -28 82t-85 31l-59 10v31h571v-31l-65 -10q-29 -4 -47.5 -9.5t-38 -17.5t-28.5 -33t-9 -53v-780q0 -211 107 -331t298 -120t295.5 120.5t104.5 332.5v778q0 32 -10 53t-30.5 33t-40.5 17.5t-52 9.5l-70 10v31h457v-31
l-72 -10q-32 -4 -52 -9.5t-41.5 -17.5t-31.5 -33t-10 -53v-778q0 -244 -140 -383t-385 -139zM868 1843h248v-4l-364 -311h-11z" />
    <glyph glyph-name="Ucircumflex" unicode="&#xdb;" horiz-adv-x="1476" 
d="M745 -20q-247 0 -392.5 142t-145.5 390v768q0 60 -28 82t-85 31l-59 10v31h571v-31l-65 -10q-29 -4 -47.5 -9.5t-38 -17.5t-28.5 -33t-9 -53v-780q0 -211 107 -331t298 -120t295.5 120.5t104.5 332.5v778q0 32 -10 53t-30.5 33t-40.5 17.5t-52 9.5l-70 10v31h457v-31
l-72 -10q-32 -4 -52 -9.5t-41.5 -17.5t-31.5 -33t-10 -53v-778q0 -244 -140 -383t-385 -139zM795 1679l-291 -143l-6 6l295 318h4l293 -316l-7 -8z" />
    <glyph glyph-name="Udieresis" unicode="&#xdc;" horiz-adv-x="1476" 
d="M745 -20q-247 0 -392.5 142t-145.5 390v768q0 60 -28 82t-85 31l-59 10v31h571v-31l-65 -10q-29 -4 -47.5 -9.5t-38 -17.5t-28.5 -33t-9 -53v-780q0 -211 107 -331t298 -120t295.5 120.5t104.5 332.5v778q0 32 -10 53t-30.5 33t-40.5 17.5t-52 9.5l-70 10v31h457v-31
l-72 -10q-32 -4 -52 -9.5t-41.5 -17.5t-31.5 -33t-10 -53v-778q0 -244 -140 -383t-385 -139zM592 1606q-50 0 -82.5 32.5t-32.5 83.5t32.5 84t82.5 33q51 0 84 -33t33 -84t-33 -83.5t-84 -32.5zM995 1606q-50 0 -82 32.5t-32 83.5t32 84t82 33q51 0 84 -33t33 -84t-33 -83.5
t-84 -32.5z" />
    <glyph glyph-name="Yacute" unicode="&#xdd;" horiz-adv-x="1290" 
d="M899 1403v31h418v-31l-43 -10q-53 -12 -82.5 -33.5t-54.5 -65.5l-375 -661v-479q0 -32 10 -53t31.5 -33t41.5 -17.5t52 -9.5l72 -10v-31h-623v31l72 10q32 4 52 9.5t41.5 17.5t31.5 33t10 53v469l-428 675q-47 72 -119 95l-31 10v31h521v-31l-66 -10q-29 -4 -44.5 -8.5
t-27.5 -14.5t-9 -27.5t20 -44.5l381 -602l337 598q13 23 13.5 40t-5.5 26.5t-25.5 16.5t-37 9.5t-49.5 6.5zM1014 1843v-4l-365 -311h-10l127 315h248z" />
    <glyph glyph-name="Thorn" unicode="&#xde;" horiz-adv-x="1269" 
d="M623 1098h-174v-760h186q160 0 255 104.5t95 286.5q0 184 -96 276.5t-266 92.5zM641 301h-192v-147q0 -32 12 -53t37.5 -33t50 -17.5t63.5 -9.5l86 -10v-31h-647v31l66 10q29 4 47.5 9.5t38 17.5t28.5 33t9 53v1126q0 32 -9 53t-28.5 33t-38 17.5t-47.5 9.5l-66 10v31
h647v-31l-86 -10q-39 -4 -63.5 -9.5t-50 -17.5t-37.5 -33t-12 -53v-145h200q258 0 408.5 -107t150.5 -295q0 -193 -154.5 -312.5t-412.5 -119.5z" />
    <glyph glyph-name="germandbls" unicode="&#xdf;" horiz-adv-x="1376" 
d="M958 956q0 -54 38 -114.5t92 -116t107.5 -113t91.5 -127t38 -137.5q0 -160 -114.5 -264t-292.5 -104q-132 0 -199.5 41.5t-67.5 103.5q0 77 88 135q30 -53 55 -90.5t56 -74.5t64 -56t67 -19q75 0 129.5 64.5t54.5 169.5q0 54 -37.5 111.5t-90.5 109.5t-106 106
t-90.5 121.5t-37.5 137.5q0 129 246 284q-38 231 -137.5 352t-221.5 121q-135 0 -213 -127t-78 -348v-968q0 -59 25.5 -81.5t73.5 -31.5l53 -10v-31h-533v31l66 10q29 4 47.5 9.5t38 17.5t28.5 33t9 53v911h-170v41l170 14q9 239 148.5 378.5t355.5 139.5
q196 0 329.5 -120.5t171.5 -333.5q-131 -64 -192.5 -118.5t-61.5 -109.5z" />
    <glyph glyph-name="agrave" unicode="&#xe0;" horiz-adv-x="1024" 
d="M387 80q76 0 145.5 48t122.5 130v184q-81 15 -131 15q-123 0 -204.5 -60.5t-81.5 -165.5q0 -70 39 -110.5t110 -40.5zM1034 121l6 -8q-22 -51 -81.5 -92t-124.5 -41q-86 0 -132.5 47.5t-46.5 132.5v45q-66 -103 -162.5 -164t-209.5 -61q-106 0 -172 57.5t-66 150.5
q0 138 147.5 218t462.5 106v307q0 109 -72 161t-184 52q-83 0 -111.5 -74t-33.5 -251q-79 -7 -121.5 21.5t-42.5 80.5q0 43 47 98t119.5 103.5t171.5 82t193 33.5q227 0 227 -288v-664q0 -40 15 -59t52 -19q36 0 119 25zM248 1513h248l127 -315h-11l-364 311v4z" />
    <glyph glyph-name="aacute" unicode="&#xe1;" horiz-adv-x="1024" 
d="M387 80q76 0 145.5 48t122.5 130v184q-81 15 -131 15q-123 0 -204.5 -60.5t-81.5 -165.5q0 -70 39 -110.5t110 -40.5zM1034 121l6 -8q-22 -51 -81.5 -92t-124.5 -41q-86 0 -132.5 47.5t-46.5 132.5v45q-66 -103 -162.5 -164t-209.5 -61q-106 0 -172 57.5t-66 150.5
q0 138 147.5 218t462.5 106v307q0 109 -72 161t-184 52q-83 0 -111.5 -74t-33.5 -251q-79 -7 -121.5 21.5t-42.5 80.5q0 43 47 98t119.5 103.5t171.5 82t193 33.5q227 0 227 -288v-664q0 -40 15 -59t52 -19q36 0 119 25zM582 1513h247v-4l-364 -311h-10z" />
    <glyph glyph-name="acircumflex" unicode="&#xe2;" horiz-adv-x="1024" 
d="M387 80q76 0 145.5 48t122.5 130v184q-81 15 -131 15q-123 0 -204.5 -60.5t-81.5 -165.5q0 -70 39 -110.5t110 -40.5zM1034 121l6 -8q-22 -51 -81.5 -92t-124.5 -41q-86 0 -132.5 47.5t-46.5 132.5v45q-66 -103 -162.5 -164t-209.5 -61q-106 0 -172 57.5t-66 150.5
q0 138 147.5 218t462.5 106v307q0 109 -72 161t-184 52q-83 0 -111.5 -74t-33.5 -251q-79 -7 -121.5 21.5t-42.5 80.5q0 43 47 98t119.5 103.5t171.5 82t193 33.5q227 0 227 -288v-664q0 -40 15 -59t52 -19q36 0 119 25zM782 1217l-6 -9l-289 144l-290 -144l-7 6l295 318h4z
" />
    <glyph glyph-name="atilde" unicode="&#xe3;" horiz-adv-x="1024" 
d="M387 80q76 0 145.5 48t122.5 130v184q-81 15 -131 15q-123 0 -204.5 -60.5t-81.5 -165.5q0 -70 39 -110.5t110 -40.5zM1034 121l6 -8q-22 -51 -81.5 -92t-124.5 -41q-86 0 -132.5 47.5t-46.5 132.5v45q-66 -103 -162.5 -164t-209.5 -61q-106 0 -172 57.5t-66 150.5
q0 138 147.5 218t462.5 106v307q0 109 -72 161t-184 52q-83 0 -111.5 -74t-33.5 -251q-79 -7 -121.5 21.5t-42.5 80.5q0 43 47 98t119.5 103.5t171.5 82t193 33.5q227 0 227 -288v-664q0 -40 15 -59t52 -19q36 0 119 25zM342 1374q-73 0 -111 -90l-14 2q25 97 72 157t112 60
q42 0 87 -22.5t78 -49t75 -49t78 -22.5q39 0 63.5 24.5t44.5 75.5l15 -2q-21 -98 -70.5 -160.5t-118.5 -62.5q-44 0 -90 21.5t-78 48t-71.5 48t-71.5 21.5z" />
    <glyph glyph-name="adieresis" unicode="&#xe4;" horiz-adv-x="1024" 
d="M387 80q76 0 145.5 48t122.5 130v184q-81 15 -131 15q-123 0 -204.5 -60.5t-81.5 -165.5q0 -70 39 -110.5t110 -40.5zM1034 121l6 -8q-22 -51 -81.5 -92t-124.5 -41q-86 0 -132.5 47.5t-46.5 132.5v45q-66 -103 -162.5 -164t-209.5 -61q-106 0 -172 57.5t-66 150.5
q0 138 147.5 218t462.5 106v307q0 109 -72 161t-184 52q-83 0 -111.5 -74t-33.5 -251q-79 -7 -121.5 21.5t-42.5 80.5q0 43 47 98t119.5 103.5t171.5 82t193 33.5q227 0 227 -288v-664q0 -40 15 -59t52 -19q36 0 119 25zM285 1257q-50 0 -82.5 33t-32.5 84t32.5 84t82.5 33
q51 0 83.5 -33t32.5 -84t-32.5 -84t-83.5 -33zM688 1257q-50 0 -82.5 33t-32.5 84t32.5 84t82.5 33q51 0 84 -33t33 -84t-33 -84t-84 -33z" />
    <glyph glyph-name="aring" unicode="&#xe5;" horiz-adv-x="1024" 
d="M387 80q76 0 145.5 48t122.5 130v184q-81 15 -131 15q-123 0 -204.5 -60.5t-81.5 -165.5q0 -70 39 -110.5t110 -40.5zM489 1538q-57 0 -95 -38t-38 -97q0 -57 38 -94t95 -37q60 0 98 37t38 94q0 60 -38 97.5t-98 37.5zM1034 121l6 -8q-22 -51 -81.5 -92t-124.5 -41
q-86 0 -132.5 47.5t-46.5 132.5v45q-66 -103 -162.5 -164t-209.5 -61q-106 0 -172 57.5t-66 150.5q0 138 147.5 218t462.5 106v307q0 109 -72 161t-184 52q-83 0 -111.5 -74t-33.5 -251q-79 -7 -121.5 21.5t-42.5 80.5q0 43 47 98t119.5 103.5t171.5 82t193 33.5
q227 0 227 -288v-664q0 -40 15 -59t52 -19q36 0 119 25zM489 1221q-82 0 -135 51.5t-53 130.5q0 82 53 134t135 52q85 0 138 -52t53 -134q0 -80 -53.5 -131t-137.5 -51z" />
    <glyph glyph-name="ae" unicode="&#xe6;" horiz-adv-x="1617" 
d="M387 80q83 0 173.5 57t144.5 152q-27 72 -39 151q-104 19 -146 19q-107 0 -194.5 -59.5t-87.5 -159.5q0 -160 149 -160zM1151 1096q-114 0 -183.5 -94t-90.5 -250h499q-5 168 -61 256t-164 88zM1554 258l13 -8q-56 -125 -165.5 -197.5t-244.5 -72.5q-146 0 -261 72.5
t-177 201.5q-74 -124 -193 -199t-245 -75q-106 0 -171 56.5t-65 149.5q0 141 147 220.5t463 105.5v307q0 109 -72 161t-184 52q-83 0 -111.5 -74t-33.5 -251q-79 -7 -121.5 21.5t-42.5 80.5q0 43 47 98t119.5 103.5t171.5 82t193 33.5q162 0 208 -143q140 143 336 143
q98 0 173.5 -33t121 -90.5t68 -131t22.5 -160.5h-678q-4 -62 -4 -93q0 -252 107 -387t280 -135q85 0 166.5 44t132.5 118z" />
    <glyph glyph-name="ccedilla" unicode="&#xe7;" horiz-adv-x="997" 
d="M948 291l10 -6q-107 -305 -419 -305l-35 -68q192 -55 192 -178q0 -56 -39.5 -100.5t-102 -69t-130 -37t-133.5 -12.5l-19 71q79 -20 144 -20q74 0 116.5 28t42.5 82q0 96 -194 134l100 172q-188 21 -299.5 164.5t-111.5 351.5q0 140 43 258.5t117.5 199t176.5 125.5
t218 45q144 0 226.5 -66.5t82.5 -150.5q0 -52 -37 -91.5t-106 -51.5q-67 313 -222 313q-121 0 -211 -138.5t-90 -367.5q0 -129 41.5 -234t125 -170t196.5 -65q205 0 317 187z" />
    <glyph glyph-name="egrave" unicode="&#xe8;" horiz-adv-x="1028" 
d="M561 1096q-114 0 -183.5 -94t-90.5 -250h499q-5 168 -61 256t-164 88zM965 258l12 -8q-56 -125 -165.5 -197.5t-244.5 -72.5q-216 0 -356.5 154t-140.5 405q0 111 34.5 215.5t96.5 187.5t159.5 133.5t214.5 50.5q98 0 173.5 -33t121 -90.5t68.5 -131t23 -160.5h-678
q-4 -62 -4 -93q0 -252 107 -387t280 -135q85 0 166.5 44t132.5 118zM262 1513h248l127 -315h-10l-365 311v4z" />
    <glyph glyph-name="eacute" unicode="&#xe9;" horiz-adv-x="1028" 
d="M561 1096q-114 0 -183.5 -94t-90.5 -250h499q-5 168 -61 256t-164 88zM965 258l12 -8q-56 -125 -165.5 -197.5t-244.5 -72.5q-216 0 -356.5 154t-140.5 405q0 111 34.5 215.5t96.5 187.5t159.5 133.5t214.5 50.5q98 0 173.5 -33t121 -90.5t68.5 -131t23 -160.5h-678
q-4 -62 -4 -93q0 -252 107 -387t280 -135q85 0 166.5 44t132.5 118zM657 1513h248v-4l-364 -311h-11z" />
    <glyph glyph-name="ecircumflex" unicode="&#xea;" horiz-adv-x="1028" 
d="M561 1096q-114 0 -183.5 -94t-90.5 -250h499q-5 168 -61 256t-164 88zM965 258l12 -8q-56 -125 -165.5 -197.5t-244.5 -72.5q-216 0 -356.5 154t-140.5 405q0 111 34.5 215.5t96.5 187.5t159.5 133.5t214.5 50.5q98 0 173.5 -33t121 -90.5t68.5 -131t23 -160.5h-678
q-4 -62 -4 -93q0 -252 107 -387t280 -135q85 0 166.5 44t132.5 118zM858 1217l-6 -9l-289 144l-291 -144l-6 6l295 318h4z" />
    <glyph glyph-name="edieresis" unicode="&#xeb;" horiz-adv-x="1028" 
d="M561 1096q-114 0 -183.5 -94t-90.5 -250h499q-5 168 -61 256t-164 88zM965 258l12 -8q-56 -125 -165.5 -197.5t-244.5 -72.5q-216 0 -356.5 154t-140.5 405q0 111 34.5 215.5t96.5 187.5t159.5 133.5t214.5 50.5q98 0 173.5 -33t121 -90.5t68.5 -131t23 -160.5h-678
q-4 -62 -4 -93q0 -252 107 -387t280 -135q85 0 166.5 44t132.5 118zM360 1257q-50 0 -82 33t-32 84t32 84t82 33q51 0 84 -33t33 -84t-33 -84t-84 -33zM764 1257q-50 0 -82.5 33t-32.5 84t32.5 84t82.5 33q51 0 84 -33t33 -84t-33 -84t-84 -33z" />
    <glyph glyph-name="igrave" unicode="&#xec;" horiz-adv-x="565" 
d="M537 0h-496v31l53 10q50 9 74.5 31t24.5 82v751l-152 101v4l340 116h4v-972q0 -59 25 -81.5t73 -31.5l54 -10v-31zM-12 1509v4h248l126 -315h-10z" />
    <glyph glyph-name="iacute" unicode="&#xed;" horiz-adv-x="565" 
d="M537 0h-496v31l53 10q50 9 74.5 31t24.5 82v751l-152 101v4l340 116h4v-972q0 -59 25 -81.5t73 -31.5l54 -10v-31zM342 1513h248v-4l-365 -311h-10z" />
    <glyph glyph-name="icircumflex" unicode="&#xee;" horiz-adv-x="565" 
d="M537 0h-496v31l53 10q50 9 74.5 31t24.5 82v751l-152 101v4l340 116h4v-972q0 -59 25 -81.5t73 -31.5l54 -10v-31zM289 1352l-291 -144l-6 6l295 318h4l293 -315l-6 -9z" />
    <glyph glyph-name="idieresis" unicode="&#xef;" horiz-adv-x="565" 
d="M537 0h-496v31l53 10q50 9 74.5 31t24.5 82v751l-152 101v4l340 116h4v-972q0 -59 25 -81.5t73 -31.5l54 -10v-31zM489 1257q-50 0 -82 33t-32 84t32 84t82 33q51 0 84 -33t33 -84t-33 -84t-84 -33zM86 1257q-50 0 -82.5 33t-32.5 84t32.5 84t82.5 33q51 0 84 -33t33 -84
t-33 -84t-84 -33z" />
    <glyph glyph-name="eth" unicode="&#xf0;" horiz-adv-x="1161" 
d="M580 14q139 0 215.5 141.5t76.5 399.5q0 257 -76.5 397t-215.5 140q-137 0 -214 -141t-77 -396q0 -257 77 -399t214 -142zM864 1573l17 -33l-258 -125q221 -159 344 -372t123 -445q0 -176 -65.5 -317t-182.5 -221t-262 -80q-226 0 -367 156.5t-141 418.5q0 261 140.5 416
t367.5 155q124 0 231 -65q-86 198 -240 328l-321 -156l-17 33l306 149q-117 94 -342 199l8 16q206 -70 385 -190z" />
    <glyph glyph-name="ntilde" unicode="&#xf1;" horiz-adv-x="1243" 
d="M1169 41l54 -10v-31h-488v31l51 10q22 5 36 10t28.5 17t21.5 33t7 53v628q0 112 -54 177t-155 65q-76 0 -151 -39.5t-134 -112.5v-718q0 -60 23.5 -82t68.5 -31l51 -10v-31h-487v31l53 10q50 9 74.5 31t24.5 82v751l-152 101v4l340 116h4v-200q66 97 161 148.5t208 51.5
q151 0 234 -93.5t83 -254.5v-624q0 -59 25 -81.5t73 -31.5zM465 1374q-73 0 -111 -90l-14 2q25 97 72 157t112 60q42 0 87 -22.5t78 -49t75 -49t78 -22.5q39 0 63.5 24.5t44.5 75.5l15 -2q-21 -98 -70.5 -160.5t-118.5 -62.5q-44 0 -90 21.5t-78 48t-71.5 48t-71.5 21.5z
" />
    <glyph glyph-name="ograve" unicode="&#xf2;" horiz-adv-x="1157" 
d="M578 10q139 0 215.5 145t76.5 400q0 254 -76.5 397.5t-215.5 143.5q-136 0 -213.5 -144.5t-77.5 -396.5q0 -254 77.5 -399.5t213.5 -145.5zM578 1126q221 0 365 -161t144 -410t-144 -412t-365 -163t-364.5 163t-143.5 412t143.5 410t364.5 161zM643 1198l-364 311v4h247
l127 -315h-10z" />
    <glyph glyph-name="oacute" unicode="&#xf3;" horiz-adv-x="1157" 
d="M578 10q139 0 215.5 145t76.5 400q0 254 -76.5 397.5t-215.5 143.5q-136 0 -213.5 -144.5t-77.5 -396.5q0 -254 77.5 -399.5t213.5 -145.5zM578 1126q221 0 365 -161t144 -410t-144 -412t-365 -163t-364.5 163t-143.5 412t143.5 410t364.5 161zM506 1198l127 315h248v-4
l-365 -311h-10z" />
    <glyph glyph-name="ocircumflex" unicode="&#xf4;" horiz-adv-x="1157" 
d="M578 10q139 0 215.5 145t76.5 400q0 254 -76.5 397.5t-215.5 143.5q-136 0 -213.5 -144.5t-77.5 -396.5q0 -254 77.5 -399.5t213.5 -145.5zM578 1126q221 0 365 -161t144 -410t-144 -412t-365 -163t-364.5 163t-143.5 412t143.5 410t364.5 161zM868 1208l-288 144
l-291 -144l-6 6l295 318h4l292 -315z" />
    <glyph glyph-name="otilde" unicode="&#xf5;" horiz-adv-x="1157" 
d="M578 10q139 0 215.5 145t76.5 400q0 254 -76.5 397.5t-215.5 143.5q-136 0 -213.5 -144.5t-77.5 -396.5q0 -254 77.5 -399.5t213.5 -145.5zM578 1126q221 0 365 -161t144 -410t-144 -412t-365 -163t-364.5 163t-143.5 412t143.5 410t364.5 161zM705 1235q-44 0 -90 21.5
t-78.5 48t-72 48t-71.5 21.5q-72 0 -110 -90l-15 2q25 97 72 157t113 60q42 0 87 -22.5t77.5 -49t74.5 -49t78 -22.5q39 0 64 24.5t45 75.5l14 -2q-22 -98 -70.5 -160.5t-117.5 -62.5z" />
    <glyph glyph-name="odieresis" unicode="&#xf6;" horiz-adv-x="1157" 
d="M578 1126q221 0 365 -161t144 -410t-144 -412t-365 -163t-364.5 163t-143.5 412t143.5 410t364.5 161zM578 10q139 0 215.5 145t76.5 400q0 254 -76.5 397.5t-215.5 143.5q-136 0 -213.5 -144.5t-77.5 -396.5q0 -254 77.5 -399.5t213.5 -145.5zM377 1257q-50 0 -82.5 33
t-32.5 84t32.5 84t82.5 33q51 0 84 -33t33 -84t-33 -84t-84 -33zM780 1257q-50 0 -82 33t-32 84t32 84t82 33q51 0 84 -33t33 -84t-33 -84t-84 -33z" />
    <glyph glyph-name="divide" unicode="&#xf7;" horiz-adv-x="1097" 
d="M549 186q-51 0 -87 36t-36 87q0 54 36 90.5t87 36.5q54 0 89.5 -36.5t35.5 -90.5q0 -51 -36 -87t-89 -36zM549 889q-51 0 -87 36t-36 87q0 54 36 90.5t87 36.5q54 0 89.5 -36.5t35.5 -90.5q0 -52 -36 -87.5t-89 -35.5zM999 641h-901v41h901v-41z" />
    <glyph glyph-name="oslash" unicode="&#xf8;" horiz-adv-x="1232" 
d="M328 555q0 -127 22 -240l527 531q-35 122 -101 186t-158 64q-136 0 -213 -144t-77 -397zM911 555q0 129 -22 242l-529 -531q36 -124 101.5 -190t156.5 -66q139 0 216 145t77 400zM989 958l176 179l31 -31l-180 -180q112 -152 112 -371q0 -249 -144.5 -412t-365.5 -163
q-112 0 -208 45t-164 127l-180 -183l-29 31l184 184q-110 159 -110 371q0 249 143 410t364 161q111 0 207 -44t164 -124z" />
    <glyph glyph-name="ugrave" unicode="&#xf9;" horiz-adv-x="1226" 
d="M1196 84l6 -31l-348 -73v206q-153 -206 -365 -206q-152 0 -235.5 94.5t-83.5 253.5v604q0 32 -6.5 51.5t-21.5 28t-29 10.5t-39 2l-54 -2l-6 31l348 73v-802q0 -112 55 -177t154 -65q149 0 283 158v692q0 32 -6.5 51.5t-21.5 28t-29 10.5t-39 2l-53 -2l-7 31l349 73v-952
q0 -32 7 -51.5t22.5 -28t29.5 -10.5t37 -2zM535 1513l127 -315h-11l-364 311v4h248z" />
    <glyph glyph-name="uacute" unicode="&#xfa;" horiz-adv-x="1226" 
d="M1196 84l6 -31l-348 -73v206q-153 -206 -365 -206q-152 0 -235.5 94.5t-83.5 253.5v604q0 32 -6.5 51.5t-21.5 28t-29 10.5t-39 2l-54 -2l-6 31l348 73v-802q0 -112 55 -177t154 -65q149 0 283 158v692q0 32 -6.5 51.5t-21.5 28t-29 10.5t-39 2l-53 -2l-7 31l349 73v-952
q0 -32 7 -51.5t22.5 -28t29.5 -10.5t37 -2zM889 1513v-4l-365 -311h-10l127 315h248z" />
    <glyph glyph-name="ucircumflex" unicode="&#xfb;" horiz-adv-x="1226" 
d="M1196 84l6 -31l-348 -73v206q-153 -206 -365 -206q-152 0 -235.5 94.5t-83.5 253.5v604q0 32 -6.5 51.5t-21.5 28t-29 10.5t-39 2l-54 -2l-6 31l348 73v-802q0 -112 55 -177t154 -65q149 0 283 158v692q0 32 -6.5 51.5t-21.5 28t-29 10.5t-39 2l-53 -2l-7 31l349 73v-952
q0 -32 7 -51.5t22.5 -28t29.5 -10.5t37 -2zM877 1208l-289 144l-291 -144l-6 6l295 318h4l293 -315z" />
    <glyph glyph-name="udieresis" unicode="&#xfc;" horiz-adv-x="1226" 
d="M1196 84l6 -31l-348 -73v206q-153 -206 -365 -206q-152 0 -235.5 94.5t-83.5 253.5v604q0 32 -6.5 51.5t-21.5 28t-29 10.5t-39 2l-54 -2l-6 31l348 73v-802q0 -112 55 -177t154 -65q149 0 283 158v692q0 32 -6.5 51.5t-21.5 28t-29 10.5t-39 2l-53 -2l-7 31l349 73v-952
q0 -32 7 -51.5t22.5 -28t29.5 -10.5t37 -2zM385 1257q-50 0 -82.5 33t-32.5 84t32.5 84t82.5 33q51 0 84 -33t33 -84t-33 -84t-84 -33zM788 1257q-50 0 -82 33t-32 84t32 84t82 33q51 0 84 -33t33 -84t-33 -84t-84 -33z" />
    <glyph glyph-name="yacute" unicode="&#xfd;" horiz-adv-x="1038" 
d="M711 1075v31h348v-31l-37 -10q-24 -7 -38.5 -13.5t-36.5 -30.5t-36 -63l-336 -907q-17 -45 -30.5 -78.5t-38.5 -88.5t-51 -94t-59 -78.5t-72 -60t-80 -20.5q-18 0 -38 4t-43.5 15t-41.5 27.5t-30.5 44.5t-12.5 63q0 52 22 100q182 -92 244 -92q56 0 88.5 48.5t77.5 178.5
l-404 943q-16 37 -36 59.5t-32.5 29t-33.5 13.5l-31 10v31h498v-31l-65 -10q-60 -9 -82 -28.5t0 -75.5l278 -703l254 700q21 57 -1 77.5t-81 29.5zM879 1513v-4l-365 -311h-10l127 315h248z" />
    <glyph glyph-name="thorn" unicode="&#xfe;" horiz-adv-x="1185" 
d="M567 8q151 0 243.5 156.5t92.5 408.5q0 441 -297 441q-133 0 -266 -111v-788q101 -107 227 -107zM698 1126q174 0 295 -138t121 -374q0 -179 -61.5 -320.5t-189.5 -227.5t-306 -86q-108 0 -217 28v-223q0 -32 10 -53t31.5 -33t41.5 -17.5t52 -9.5l72 -10v-31h-551v31
l53 10q50 9 74 31t24 82v1653l-151 100v4l340 117h4v-709q79 88 172.5 132t185.5 44z" />
    <glyph glyph-name="ydieresis" unicode="&#xff;" horiz-adv-x="1038" 
d="M711 1075v31h348v-31l-37 -10q-24 -7 -38.5 -13.5t-36.5 -30.5t-36 -63l-336 -907q-17 -45 -30.5 -78.5t-38.5 -88.5t-51 -94t-59 -78.5t-72 -60t-80 -20.5q-18 0 -38 4t-43.5 15t-41.5 27.5t-30.5 44.5t-12.5 63q0 52 22 100q182 -92 244 -92q56 0 88.5 48.5t77.5 178.5
l-404 943q-16 37 -36 59.5t-32.5 29t-33.5 13.5l-31 10v31h498v-31l-65 -10q-60 -9 -82 -28.5t0 -75.5l278 -703l254 700q21 57 -1 77.5t-81 29.5zM375 1257q-50 0 -82.5 33t-32.5 84t32.5 84t82.5 33q51 0 84 -33t33 -84t-33 -84t-84 -33zM778 1257q-50 0 -82 33t-32 84
t32 84t82 33q51 0 84 -33t33 -84t-33 -84t-84 -33z" />
    <glyph glyph-name="Amacron" unicode="&#x100;" horiz-adv-x="1378" 
d="M858 588l-258 706l-246 -706h504zM1378 41l52 -10v-31h-547v31l61 10q63 10 79 32.5t-3 73.5l-146 400h-534l-137 -400q-17 -51 6.5 -73.5t109.5 -32.5l82 -10v-31h-430v31l49 10q62 12 89.5 33.5t44.5 72.5l442 1287h162l487 -1289q19 -50 46 -71t87 -33zM365 1599v41
h628v-41h-628z" />
    <glyph glyph-name="amacron" unicode="&#x101;" horiz-adv-x="1024" 
d="M387 80q76 0 145.5 48t122.5 130v184q-81 15 -131 15q-123 0 -204.5 -60.5t-81.5 -165.5q0 -70 39 -110.5t110 -40.5zM1034 121l6 -8q-22 -51 -81.5 -92t-124.5 -41q-86 0 -132.5 47.5t-46.5 132.5v45q-66 -103 -162.5 -164t-209.5 -61q-106 0 -172 57.5t-66 150.5
q0 138 147.5 218t462.5 106v307q0 109 -72 161t-184 52q-83 0 -111.5 -74t-33.5 -251q-79 -7 -121.5 21.5t-42.5 80.5q0 43 47 98t119.5 103.5t171.5 82t193 33.5q227 0 227 -288v-664q0 -40 15 -59t52 -19q36 0 119 25zM174 1292v41h629v-41h-629z" />
    <glyph glyph-name="Abreve" unicode="&#x102;" horiz-adv-x="1378" 
d="M858 588l-258 706l-246 -706h504zM1378 41l52 -10v-31h-547v31l61 10q63 10 79 32.5t-3 73.5l-146 400h-534l-137 -400q-17 -51 6.5 -73.5t109.5 -32.5l82 -10v-31h-430v31l49 10q62 12 89.5 33.5t44.5 72.5l442 1287h162l487 -1289q19 -50 46 -71t87 -33zM676 1540
q-117 0 -194 85.5t-85 217.5h6q59 -164 273 -164q216 0 274 168h6q-6 -137 -81.5 -222t-198.5 -85z" />
    <glyph glyph-name="abreve" unicode="&#x103;" horiz-adv-x="1024" 
d="M387 80q76 0 145.5 48t122.5 130v184q-81 15 -131 15q-123 0 -204.5 -60.5t-81.5 -165.5q0 -70 39 -110.5t110 -40.5zM1034 121l6 -8q-22 -51 -81.5 -92t-124.5 -41q-86 0 -132.5 47.5t-46.5 132.5v45q-66 -103 -162.5 -164t-209.5 -61q-106 0 -172 57.5t-66 150.5
q0 138 147.5 218t462.5 106v307q0 109 -72 161t-184 52q-83 0 -111.5 -74t-33.5 -251q-79 -7 -121.5 21.5t-42.5 80.5q0 43 47 98t119.5 103.5t171.5 82t193 33.5q227 0 227 -288v-664q0 -40 15 -59t52 -19q36 0 119 25zM487 1233q-117 0 -193.5 85.5t-84.5 217.5h6
q59 -164 272 -164q217 0 275 168h6q-6 -137 -82 -222t-199 -85z" />
    <glyph glyph-name="Aogonek" unicode="&#x104;" horiz-adv-x="1378" 
d="M858 588l-258 706l-246 -706h504zM1378 41l52 -10v-31h-365q-102 -118 -137 -169.5t-35 -86.5q0 -37 22.5 -60.5t65.5 -23.5q52 0 96 33l4 -4q-31 -52 -84 -84.5t-112 -32.5q-68 0 -108 35t-40 90q0 66 72 134t225 169h-151v31l61 10q63 10 79 32.5t-3 73.5l-146 400
h-534l-137 -400q-17 -51 6.5 -73.5t109.5 -32.5l82 -10v-31h-430v31l49 10q62 12 89.5 33.5t44.5 72.5l442 1287h162l487 -1289q19 -50 46 -71t87 -33z" />
    <glyph glyph-name="aogonek" unicode="&#x105;" horiz-adv-x="1024" 
d="M387 80q76 0 145.5 48t122.5 130v184q-81 15 -131 15q-123 0 -204.5 -60.5t-81.5 -165.5q0 -70 39 -110.5t110 -40.5zM934 -340q52 0 96 33l4 -4q-31 -52 -84 -84.5t-112 -32.5q-68 0 -108 35t-40 90q0 58 63 139t162 160q-43 -16 -81 -16q-86 0 -132.5 47.5t-46.5 132.5
v47q-66 -104 -162.5 -165.5t-209.5 -61.5q-106 0 -172 57.5t-66 150.5q0 138 147.5 218t462.5 106v307q0 109 -72 161t-184 52q-83 0 -111.5 -74t-33.5 -251q-79 -7 -121.5 21.5t-42.5 80.5q0 43 47 98t119.5 103.5t171.5 82t193 33.5q227 0 227 -288v-664q0 -40 15 -59
t52 -19q36 0 119 25l6 -8q-57 -69 -125.5 -185t-68.5 -184q0 -37 22.5 -60.5t65.5 -23.5z" />
    <glyph glyph-name="Cacute" unicode="&#x106;" horiz-adv-x="1417" 
d="M846 -20q-352 0 -560 200.5t-208 536.5q0 158 56 294.5t155 234t241 153t308 55.5q252 0 473 -111l20 -342h-20q-64 196 -194.5 309t-307.5 113q-144 0 -258 -90.5t-178 -252t-64 -363.5q0 -323 137 -515t367 -192q180 0 318.5 116.5t181.5 305.5h18v-334
q-233 -118 -485 -118zM901 1843h248v-4l-365 -311h-10z" />
    <glyph glyph-name="cacute" unicode="&#x107;" horiz-adv-x="997" 
d="M537 -20q-140 0 -247.5 69t-163.5 186t-56 263q0 140 43 258.5t117.5 199t176.5 125.5t218 45q144 0 226.5 -66.5t82.5 -150.5q0 -52 -37 -91.5t-106 -51.5q-67 313 -222 313q-121 0 -211 -138.5t-90 -367.5q0 -129 41.5 -234t125 -170t196.5 -65q205 0 317 187l10 -6
q-54 -154 -162 -229.5t-259 -75.5zM692 1513h248v-4l-365 -311h-10z" />
    <glyph glyph-name="Cdotaccent" unicode="&#x10a;" horiz-adv-x="1417" 
d="M846 -20q-352 0 -560 200.5t-208 536.5q0 158 56 294.5t155 234t241 153t308 55.5q252 0 473 -111l20 -342h-20q-64 196 -194.5 309t-307.5 113q-144 0 -258 -90.5t-178 -252t-64 -363.5q0 -323 137 -515t367 -192q180 0 318.5 116.5t181.5 305.5h18v-334
q-233 -118 -485 -118zM807 1606q-51 0 -86 34.5t-35 85.5q0 53 34.5 87t86.5 34q54 0 87.5 -33.5t33.5 -87.5q0 -52 -34 -86t-87 -34z" />
    <glyph glyph-name="cdotaccent" unicode="&#x10b;" horiz-adv-x="997" 
d="M537 -20q-140 0 -247.5 69t-163.5 186t-56 263q0 140 43 258.5t117.5 199t176.5 125.5t218 45q144 0 226.5 -66.5t82.5 -150.5q0 -52 -37 -91.5t-106 -51.5q-67 313 -222 313q-121 0 -211 -138.5t-90 -367.5q0 -129 41.5 -234t125 -170t196.5 -65q205 0 317 187l10 -6
q-54 -154 -162 -229.5t-259 -75.5zM598 1257q-51 0 -86 35t-35 86q0 53 34.5 87t86.5 34q54 0 87.5 -33.5t33.5 -87.5q0 -52 -34 -86.5t-87 -34.5z" />
    <glyph glyph-name="Ccaron" unicode="&#x10c;" horiz-adv-x="1417" 
d="M846 -20q-352 0 -560 200.5t-208 536.5q0 158 56 294.5t155 234t241 153t308 55.5q252 0 473 -111l20 -342h-20q-64 196 -194.5 309t-307.5 113q-144 0 -258 -90.5t-178 -252t-64 -363.5q0 -323 137 -515t367 -192q180 0 318.5 116.5t181.5 305.5h18v-334
q-233 -118 -485 -118zM510 1860l6 6l291 -144l289 144l6 -8l-293 -316h-4z" />
    <glyph glyph-name="ccaron" unicode="&#x10d;" horiz-adv-x="997" 
d="M537 -20q-140 0 -247.5 69t-163.5 186t-56 263q0 140 43 258.5t117.5 199t176.5 125.5t218 45q144 0 226.5 -66.5t82.5 -150.5q0 -52 -37 -91.5t-106 -51.5q-67 313 -222 313q-121 0 -211 -138.5t-90 -367.5q0 -129 41.5 -234t125 -170t196.5 -65q205 0 317 187l10 -6
q-54 -154 -162 -229.5t-259 -75.5zM301 1522l6 6l291 -144l289 144l6 -8l-293 -316h-4z" />
    <glyph glyph-name="Dcaron" unicode="&#x10e;" horiz-adv-x="1515" 
d="M453 1393v-1352h219q238 0 387 185.5t149 490.5t-149 490.5t-387 185.5h-219zM51 1403v31h615q163 0 305 -51.5t245.5 -143t163.5 -227t60 -295.5t-60 -295.5t-163.5 -227t-245.5 -143t-305 -51.5h-615v31l66 10q29 4 47.5 9.5t38 17.5t28.5 33t9 53v1126q0 32 -9 53
t-28.5 33t-38 17.5t-47.5 9.5zM989 1866l6 -8l-293 -316h-4l-295 318l7 6l290 -144z" />
    <glyph glyph-name="dcaron" unicode="&#x10f;" horiz-adv-x="1218" 
d="M580 92q133 0 266 111v788q-101 107 -228 107q-151 0 -243 -155.5t-92 -410.5q0 -440 297 -440zM1135 82l53 2l6 -31l-348 -73v176q-159 -176 -359 -176q-82 0 -156.5 34.5t-132.5 98t-92 162t-34 217.5q0 179 61.5 320.5t189.5 227.5t306 86q108 0 217 -28v340l-152 100
v4l340 117h4v-1485q0 -32 7 -51.5t23 -28t29.5 -10.5t37.5 -2zM1192 1221h-12v397h182v-19z" />
    <glyph glyph-name="Dcroat" unicode="&#x110;" horiz-adv-x="1517" 
d="M455 696v-655h219q238 0 387 185.5t149 490.5t-149 490.5t-387 185.5h-219v-656h323v-41h-323zM53 1403v31h615q163 0 305 -51.5t245.5 -143t163.5 -227t60 -295.5t-60 -295.5t-163.5 -227t-245.5 -143t-305 -51.5h-615v31l66 10q29 4 47.5 9.5t38 17.5t28.5 33t9 53v542
h-168v41h168v543q0 32 -9 53t-28.5 33t-38 17.5t-47.5 9.5z" />
    <glyph glyph-name="dcroat" unicode="&#x111;" horiz-adv-x="1212" 
d="M580 92q133 0 266 111v788q-101 107 -228 107q-151 0 -243 -155.5t-92 -410.5q0 -440 297 -440zM1135 82l53 2l6 -31l-348 -73v176q-159 -176 -359 -176q-82 0 -156.5 34.5t-132.5 98t-92 162t-34 217.5q0 179 61.5 320.5t189.5 227.5t306 86q108 0 217 -28v200h-291v41
h291v99l-152 100v4l340 117h4v-320h148v-41h-148v-1124q0 -32 7 -51.5t23 -28t29.5 -10.5t37.5 -2z" />
    <glyph glyph-name="Emacron" unicode="&#x112;" horiz-adv-x="1267" 
d="M1188 461h22l-65 -461h-1094v31l66 10q29 4 47.5 9.5t38 17.5t28.5 33t9 53v1126q0 32 -9 53t-28.5 33t-38 17.5t-47.5 9.5l-66 10v31h1016l66 -441l-21 -6q-120 406 -397 406h-266v-637h198q56 0 85.5 18t49.5 70t37 160h21v-537h-21q-13 110 -31.5 162t-49 69t-91.5 17
h-198v-674h301q88 0 152.5 19t119.5 66t95.5 129.5t70.5 205.5zM326 1640h628v-41h-628v41z" />
    <glyph glyph-name="emacron" unicode="&#x113;" horiz-adv-x="1028" 
d="M561 1096q-114 0 -183.5 -94t-90.5 -250h499q-5 168 -61 256t-164 88zM965 258l12 -8q-56 -125 -165.5 -197.5t-244.5 -72.5q-216 0 -356.5 154t-140.5 405q0 111 34.5 215.5t96.5 187.5t159.5 133.5t214.5 50.5q98 0 173.5 -33t121 -90.5t68.5 -131t23 -160.5h-678
q-4 -62 -4 -93q0 -252 107 -387t280 -135q85 0 166.5 44t132.5 118zM250 1292v41h629v-41h-629z" />
    <glyph glyph-name="Edotaccent" unicode="&#x116;" horiz-adv-x="1267" 
d="M1188 461h22l-65 -461h-1094v31l66 10q29 4 47.5 9.5t38 17.5t28.5 33t9 53v1126q0 32 -9 53t-28.5 33t-38 17.5t-47.5 9.5l-66 10v31h1016l66 -441l-21 -6q-120 406 -397 406h-266v-637h198q56 0 85.5 18t49.5 70t37 160h21v-537h-21q-13 110 -31.5 162t-49 69t-91.5 17
h-198v-674h301q88 0 152.5 19t119.5 66t95.5 129.5t70.5 205.5zM639 1606q-51 0 -86 34.5t-35 85.5q0 53 34.5 87t86.5 34q54 0 87.5 -33.5t33.5 -87.5q0 -52 -34 -86t-87 -34z" />
    <glyph glyph-name="edotaccent" unicode="&#x117;" horiz-adv-x="1028" 
d="M561 1096q-114 0 -183.5 -94t-90.5 -250h499q-5 168 -61 256t-164 88zM965 258l12 -8q-56 -125 -165.5 -197.5t-244.5 -72.5q-216 0 -356.5 154t-140.5 405q0 111 34.5 215.5t96.5 187.5t159.5 133.5t214.5 50.5q98 0 173.5 -33t121 -90.5t68.5 -131t23 -160.5h-678
q-4 -62 -4 -93q0 -252 107 -387t280 -135q85 0 166.5 44t132.5 118zM563 1257q-51 0 -86 35t-35 86q0 53 34.5 87t86.5 34q54 0 87.5 -33.5t33.5 -87.5q0 -52 -34 -86.5t-87 -34.5z" />
    <glyph glyph-name="Eogonek" unicode="&#x118;" horiz-adv-x="1267" 
d="M1061 -340q52 0 96 33l4 -4q-31 -52 -84 -84.5t-112 -32.5q-68 0 -108 35t-40 90q0 66 72 134t225 169h-1063v31l66 10q29 4 47.5 9.5t38 17.5t28.5 33t9 53v1126q0 32 -9 53t-28.5 33t-38 17.5t-47.5 9.5l-66 10v31h1016l66 -441l-21 -6q-120 406 -397 406h-266v-637
h198q56 0 85.5 18t49.5 70t37 160h21v-537h-21q-13 110 -31.5 162t-49 69t-91.5 17h-198v-674h301q88 0 152.5 19t119.5 66t95.5 129.5t70.5 205.5h22l-65 -461q-102 -118 -137 -169.5t-35 -86.5q0 -37 22.5 -60.5t65.5 -23.5z" />
    <glyph glyph-name="eogonek" unicode="&#x119;" horiz-adv-x="1028" 
d="M561 1096q-114 0 -183.5 -94t-90.5 -250h499q-12 344 -225 344zM825 -340q55 0 99 33l2 -2q-30 -52 -83.5 -85.5t-113.5 -33.5q-67 0 -107 35t-40 92q0 69 44 141t160 197q-92 -57 -239 -57q-98 0 -185 40t-151.5 111.5t-102.5 177t-38 230.5q0 111 34.5 215.5
t96.5 187.5t159.5 133.5t214.5 50.5q98 0 173.5 -33t121 -90.5t68.5 -131t23 -160.5h-678q-4 -62 -4 -93q0 -252 107 -387t280 -135q85 0 166.5 44t132.5 118l12 -8q-21 -48 -65 -116t-80.5 -120.5t-65.5 -119.5t-29 -123q0 -50 24.5 -80.5t63.5 -30.5z" />
    <glyph glyph-name="Ecaron" unicode="&#x11a;" horiz-adv-x="1267" 
d="M1188 461h22l-65 -461h-1094v31l66 10q29 4 47.5 9.5t38 17.5t28.5 33t9 53v1126q0 32 -9 53t-28.5 33t-38 17.5t-47.5 9.5l-66 10v31h1016l66 -441l-21 -6q-120 406 -397 406h-266v-637h198q56 0 85.5 18t49.5 70t37 160h21v-537h-21q-13 110 -31.5 162t-49 69t-91.5 17
h-198v-674h301q88 0 152.5 19t119.5 66t95.5 129.5t70.5 205.5zM934 1858l-293 -316h-4l-295 318l6 6l291 -144l289 144z" />
    <glyph glyph-name="ecaron" unicode="&#x11b;" horiz-adv-x="1028" 
d="M561 1096q-114 0 -183.5 -94t-90.5 -250h499q-5 168 -61 256t-164 88zM965 258l12 -8q-56 -125 -165.5 -197.5t-244.5 -72.5q-216 0 -356.5 154t-140.5 405q0 111 34.5 215.5t96.5 187.5t159.5 133.5t214.5 50.5q98 0 173.5 -33t121 -90.5t68.5 -131t23 -160.5h-678
q-4 -62 -4 -93q0 -252 107 -387t280 -135q85 0 166.5 44t132.5 118zM852 1528l6 -8l-293 -316h-4l-295 318l6 6l291 -144z" />
    <glyph glyph-name="Gbreve" unicode="&#x11e;" horiz-adv-x="1517" 
d="M950 631v31h551v-31l-59 -10q-26 -4 -42.5 -9.5t-34 -17.5t-26 -33t-8.5 -53v-410q-233 -118 -485 -118q-352 0 -560 200.5t-208 536.5q0 158 56 294.5t155 234t241 153t308 55.5q252 0 473 -111l20 -342h-20q-64 196 -194.5 309t-307.5 113q-144 0 -258 -90.5t-178 -252
t-64 -363.5q0 -323 137 -515t367 -192q180 0 326 123v375q0 32 -9 53t-28.5 33t-38 17.5t-47.5 9.5zM797 1540q-117 0 -194 85.5t-85 217.5h6q59 -164 273 -164q216 0 274 168h6q-6 -137 -81.5 -222t-198.5 -85z" />
    <glyph glyph-name="gbreve" unicode="&#x11f;" horiz-adv-x="1052" 
d="M518 1098q-101 0 -163 -75.5t-62 -213.5q0 -140 62.5 -219.5t162.5 -79.5q99 0 161 79.5t62 219.5q0 138 -61.5 213.5t-161.5 75.5zM489 -348q181 0 294.5 79.5t113.5 196.5q0 150 -205 150h-315q-49 0 -101 10q-116 -66 -116 -192q0 -114 89 -179t240 -65zM414 266h305
q147 0 225 -63.5t78 -184.5q0 -177 -156.5 -292t-406.5 -115q-207 0 -336 67t-129 189q0 163 250 231q-69 24 -108.5 70t-39.5 106q0 72 57 135.5t158 108.5q-94 38 -147 111.5t-53 177.5q0 150 113.5 234.5t293.5 84.5q98 0 174 -24q85 215 221 215q45 0 74 -26t29 -70
q0 -27 -10 -54t-27 -39q-105 54 -154 54q-28 0 -57 -21.5t-51 -66.5q99 -36 154 -109.5t55 -177.5q0 -153 -112.5 -239.5t-295.5 -86.5q-102 0 -178 27q-123 -66 -123 -152q0 -49 50 -69.5t147 -20.5zM549 1233q-117 0 -194 85.5t-85 217.5h6q59 -164 273 -164
q216 0 274 168h6q-6 -137 -81.5 -222t-198.5 -85z" />
    <glyph glyph-name="Gdotaccent" unicode="&#x120;" horiz-adv-x="1517" 
d="M950 631v31h551v-31l-59 -10q-26 -4 -42.5 -9.5t-34 -17.5t-26 -33t-8.5 -53v-410q-233 -118 -485 -118q-352 0 -560 200.5t-208 536.5q0 158 56 294.5t155 234t241 153t308 55.5q252 0 473 -111l20 -342h-20q-64 196 -194.5 309t-307.5 113q-144 0 -258 -90.5t-178 -252
t-64 -363.5q0 -323 137 -515t367 -192q180 0 326 123v375q0 32 -9 53t-28.5 33t-38 17.5t-47.5 9.5zM799 1606q-51 0 -86 34.5t-35 85.5q0 53 34.5 87t86.5 34q54 0 87.5 -33.5t33.5 -87.5q0 -52 -34 -86t-87 -34z" />
    <glyph glyph-name="gdotaccent" unicode="&#x121;" horiz-adv-x="1052" 
d="M518 1098q-101 0 -163 -75.5t-62 -213.5q0 -140 62.5 -219.5t162.5 -79.5q99 0 161 79.5t62 219.5q0 138 -61.5 213.5t-161.5 75.5zM489 -348q181 0 294.5 79.5t113.5 196.5q0 150 -205 150h-315q-49 0 -101 10q-116 -66 -116 -192q0 -114 89 -179t240 -65zM414 266h305
q147 0 225 -63.5t78 -184.5q0 -177 -156.5 -292t-406.5 -115q-207 0 -336 67t-129 189q0 163 250 231q-69 24 -108.5 70t-39.5 106q0 72 57 135.5t158 108.5q-94 38 -147 111.5t-53 177.5q0 150 113.5 234.5t293.5 84.5q98 0 174 -24q85 215 221 215q45 0 74 -26t29 -70
q0 -27 -10 -54t-27 -39q-105 54 -154 54q-28 0 -57 -21.5t-51 -66.5q99 -36 154 -109.5t55 -177.5q0 -153 -112.5 -239.5t-295.5 -86.5q-102 0 -178 27q-123 -66 -123 -152q0 -49 50 -69.5t147 -20.5zM528 1257q-51 0 -85.5 35t-34.5 86q0 53 34 87t86 34q54 0 87.5 -33.5
t33.5 -87.5q0 -52 -34 -86.5t-87 -34.5z" />
    <glyph glyph-name="uni0122" unicode="&#x122;" horiz-adv-x="1517" 
d="M950 631v31h551v-31l-59 -10q-26 -4 -42.5 -9.5t-34 -17.5t-26 -33t-8.5 -53v-410q-233 -118 -485 -118q-352 0 -560 200.5t-208 536.5q0 158 56 294.5t155 234t241 153t308 55.5q252 0 473 -111l20 -342h-20q-64 196 -194.5 309t-307.5 113q-144 0 -258 -90.5t-178 -252
t-64 -363.5q0 -323 137 -515t367 -192q180 0 326 123v375q0 32 -9 53t-28.5 33t-38 17.5t-47.5 9.5zM764 -121q59 0 95 -41.5t36 -105.5q0 -189 -256 -246l-6 18q64 16 97.5 52t33.5 77q0 44 -32.5 78.5t-90.5 46.5q0 52 38 86.5t85 34.5z" />
    <glyph glyph-name="uni0123" unicode="&#x123;" horiz-adv-x="1052" 
d="M518 1098q-101 0 -163 -75.5t-62 -213.5q0 -140 62.5 -219.5t162.5 -79.5q99 0 161 79.5t62 219.5q0 138 -61.5 213.5t-161.5 75.5zM489 -348q181 0 294.5 79.5t113.5 196.5q0 150 -205 150h-315q-49 0 -101 10q-116 -66 -116 -192q0 -114 89 -179t240 -65zM414 266h305
q147 0 225 -63.5t78 -184.5q0 -177 -156.5 -292t-406.5 -115q-207 0 -336 67t-129 189q0 163 250 231q-69 24 -108.5 70t-39.5 106q0 72 57 135.5t158 108.5q-94 38 -147 111.5t-53 177.5q0 150 113.5 234.5t293.5 84.5q98 0 174 -24q85 215 221 215q45 0 74 -26t29 -70
q0 -27 -10 -54t-27 -39q-105 54 -154 54q-28 0 -57 -21.5t-51 -66.5q99 -36 154 -109.5t55 -177.5q0 -153 -112.5 -239.5t-295.5 -86.5q-102 0 -178 27q-123 -66 -123 -152q0 -49 50 -69.5t147 -20.5zM553 1227q-57 0 -94 42t-37 105q0 93 64 156.5t192 89.5l6 -18
q-65 -17 -98 -51.5t-33 -77.5q0 -44 33.5 -78.5t89.5 -46.5q0 -52 -37 -86.5t-86 -34.5z" />
    <glyph glyph-name="Hbar" unicode="&#x126;" horiz-adv-x="1613" 
d="M449 1044v-278h714v278h-714zM1563 1434v-31l-66 -10q-29 -4 -47.5 -9.5t-38 -17.5t-28.5 -33t-9 -53v-195h166v-41h-166v-890q0 -32 9 -53t28.5 -33t38 -17.5t47.5 -9.5l66 -10v-31h-588v31l65 10q29 4 47.5 9.5t38 17.5t28.5 33t9 53v571h-714v-571q0 -32 9 -53t28 -33
t37.5 -17.5t47.5 -9.5l66 -10v-31h-586v31l66 10q29 4 47.5 9.5t38 17.5t28.5 33t9 53v890h-162v41h162v195q0 32 -9 53t-28.5 33t-38 17.5t-47.5 9.5l-66 10v31h586v-31l-66 -10q-29 -4 -47.5 -9.5t-37.5 -17.5t-28 -33t-9 -53v-195h714v195q0 32 -9 53t-28.5 33t-38 17.5
t-47.5 9.5l-65 10v31h588z" />
    <glyph glyph-name="hbar" unicode="&#x127;" horiz-adv-x="1230" 
d="M1157 41l53 -10v-31h-487v31l51 10q45 9 68.5 31t23.5 82v628q0 112 -54 177t-155 65q-76 0 -150 -39.5t-134 -112.5v-718q0 -60 23.5 -82t68.5 -31l51 -10v-31h-487v31l53 10q50 9 74 31t24 82v1144h-149v41h149v99l-151 100v4l340 117h4v-320h289v-41h-289v-372
q66 97 161 148.5t207 51.5q152 0 235 -93.5t83 -254.5v-624q0 -59 25 -81.5t73 -31.5z" />
    <glyph glyph-name="Itilde" unicode="&#x128;" horiz-adv-x="688" 
d="M637 0h-586v31l66 10q29 4 47.5 9.5t38 17.5t28.5 33t9 53v1126q0 32 -9 53t-28.5 33t-38 17.5t-47.5 9.5l-66 10v31h586v-31l-66 -10q-29 -4 -47.5 -9.5t-37.5 -17.5t-28 -33t-9 -53v-1126q0 -32 9 -53t28 -33t37.5 -17.5t47.5 -9.5l66 -10v-31zM469 1563
q-44 0 -90 21.5t-78 48t-71.5 48t-71.5 21.5q-73 0 -111 -90l-14 2q25 97 72 157t112 60q42 0 87 -22.5t78 -49t75 -49t78 -22.5q39 0 63.5 24.5t44.5 75.5l14 -2q-22 -98 -70.5 -160.5t-117.5 -62.5z" />
    <glyph glyph-name="itilde" unicode="&#x129;" horiz-adv-x="565" 
d="M537 0h-496v31l53 10q50 9 74.5 31t24.5 82v751l-152 101v4l340 116h4v-972q0 -59 25 -81.5t73 -31.5l54 -10v-31zM408 1235q-44 0 -90 21.5t-78.5 48t-72 48t-71.5 21.5q-72 0 -110 -90l-15 2q25 97 72 157t113 60q42 0 87 -22.5t77.5 -49t74.5 -49t78 -22.5
q39 0 64 24.5t45 75.5l14 -2q-22 -98 -70.5 -160.5t-117.5 -62.5z" />
    <glyph glyph-name="Imacron" unicode="&#x12a;" horiz-adv-x="688" 
d="M637 0h-586v31l66 10q29 4 47.5 9.5t38 17.5t28.5 33t9 53v1126q0 32 -9 53t-28.5 33t-38 17.5t-47.5 9.5l-66 10v31h586v-31l-66 -10q-29 -4 -47.5 -9.5t-37.5 -17.5t-28 -33t-9 -53v-1126q0 -32 9 -53t28 -33t37.5 -17.5t47.5 -9.5l66 -10v-31zM662 1599h-629v41h629
v-41z" />
    <glyph glyph-name="imacron" unicode="&#x12b;" horiz-adv-x="565" 
d="M537 0h-496v31l53 10q50 9 74.5 31t24.5 82v751l-152 101v4l340 116h4v-972q0 -59 25 -81.5t73 -31.5l54 -10v-31zM604 1292h-629v41h629v-41z" />
    <glyph glyph-name="Iogonek" unicode="&#x12e;" horiz-adv-x="688" 
d="M637 1403l-66 -10q-29 -4 -47.5 -9.5t-37.5 -17.5t-28 -33t-9 -53v-1126q0 -32 9 -53t28 -33t37.5 -17.5t47.5 -9.5l66 -10v-31h-197q-102 -118 -137 -169.5t-35 -86.5q0 -37 22.5 -60.5t65.5 -23.5q53 0 97 33l4 -4q-31 -52 -84.5 -84.5t-112.5 -32.5q-68 0 -107.5 35
t-39.5 90q0 66 72 134t225 169h-359v31l66 10q29 4 47.5 9.5t38 17.5t28.5 33t9 53v1126q0 32 -9 53t-28.5 33t-38 17.5t-47.5 9.5l-66 10v31h586v-31z" />
    <glyph glyph-name="iogonek" unicode="&#x12f;" horiz-adv-x="565" 
d="M537 31v-31h-154q-102 -118 -137 -169.5t-35 -86.5q0 -37 22.5 -60.5t65.5 -23.5q52 0 96 33l4 -4q-31 -52 -84 -84.5t-112 -32.5q-68 0 -108 35t-40 90q0 66 72 134t225 169h-311v31l53 10q50 9 74.5 31t24.5 82v751l-152 101v4l340 116h4v-972q0 -59 25 -81.5t73 -31.5
zM289 1257q-51 0 -86 35t-35 86q0 53 34.5 87t86.5 34q54 0 87.5 -33.5t33.5 -87.5q0 -52 -34 -86.5t-87 -34.5z" />
    <glyph glyph-name="Idotaccent" unicode="&#x130;" horiz-adv-x="688" 
d="M637 0h-586v31l66 10q29 4 47.5 9.5t38 17.5t28.5 33t9 53v1126q0 32 -9 53t-28.5 33t-38 17.5t-47.5 9.5l-66 10v31h586v-31l-66 -10q-29 -4 -47.5 -9.5t-37.5 -17.5t-28 -33t-9 -53v-1126q0 -32 9 -53t28 -33t37.5 -17.5t47.5 -9.5l66 -10v-31zM346 1606
q-51 0 -86 34.5t-35 85.5q0 53 34.5 87t86.5 34q54 0 87.5 -33.5t33.5 -87.5q0 -52 -34 -86t-87 -34z" />
    <glyph glyph-name="dotlessi" unicode="&#x131;" horiz-adv-x="565" 
d="M537 0h-496v31l53 10q50 9 74.5 31t24.5 82v751l-152 101v4l340 116h4v-972q0 -59 25 -81.5t73 -31.5l54 -10v-31z" />
    <glyph glyph-name="uni0136" unicode="&#x136;" horiz-adv-x="1427" 
d="M449 1280v-1126q0 -32 9 -53t28 -33t37.5 -17.5t47.5 -9.5l66 -10v-31h-586v31l66 10q29 4 47.5 9.5t38 17.5t28.5 33t9 53v1126q0 32 -9 53t-28.5 33t-38 17.5t-47.5 9.5l-66 10v31h586v-31l-66 -10q-29 -4 -47.5 -9.5t-37.5 -17.5t-28 -33t-9 -53zM1425 1403l-63 -10
q-64 -11 -119 -33.5t-78 -48.5l-438 -469l684 -832v-10h-262l-592 733l553 580q26 29 8 50.5t-74 29.5l-77 10v31h458v-31zM784 -121q59 0 95 -41.5t36 -105.5q0 -189 -256 -246l-6 18q64 16 97.5 52t33.5 77q0 44 -32 78.5t-90 46.5q0 52 37.5 86.5t84.5 34.5z" />
    <glyph glyph-name="uni0137" unicode="&#x137;" horiz-adv-x="1103" 
d="M471 41l53 -10v-31h-495v31l53 10q50 9 74 31t24 82v1284l-151 100v4l340 117h4v-1505q0 -59 25 -81.5t73 -31.5zM874 965l-280 -281l536 -674v-10h-243l-455 590l408 397q37 35 28.5 53t-69.5 25l-66 10v31h365v-31l-41 -10q-104 -21 -183 -100zM641 -121q59 0 95 -41.5
t36 -105.5q0 -189 -256 -246l-6 18q64 16 97.5 52t33.5 77q0 44 -32.5 78.5t-90.5 46.5q0 52 38 86.5t85 34.5z" />
    <glyph glyph-name="Lacute" unicode="&#x139;" horiz-adv-x="1179" 
d="M1128 481l21 -4l-66 -477h-1032v31l66 10q29 4 47.5 9.5t38 17.5t28.5 33t9 53v1126q0 32 -9 53t-28.5 33t-38 17.5t-47.5 9.5l-66 10v31h586v-31l-66 -10q-29 -4 -47.5 -9.5t-37.5 -17.5t-28 -33t-9 -53v-1239h313q144 0 225.5 102.5t140.5 337.5zM680 1843v-4
l-365 -311h-10l127 315h248z" />
    <glyph glyph-name="lacute" unicode="&#x13a;" horiz-adv-x="552" 
d="M524 0h-495v31l53 10q50 9 74 31t24 82v1284l-151 100v4l340 117h4v-1505q0 -59 25 -81.5t73 -31.5l53 -10v-31zM371 2028h247v-5l-364 -311h-10z" />
    <glyph glyph-name="uni013B" unicode="&#x13b;" horiz-adv-x="1179" 
d="M1128 481l21 -4l-66 -477h-1032v31l66 10q29 4 47.5 9.5t38 17.5t28.5 33t9 53v1126q0 32 -9 53t-28.5 33t-38 17.5t-47.5 9.5l-66 10v31h586v-31l-66 -10q-29 -4 -47.5 -9.5t-37.5 -17.5t-28 -33t-9 -53v-1239h313q144 0 225.5 102.5t140.5 337.5zM588 -121
q59 0 95 -41.5t36 -105.5q0 -189 -256 -246l-6 18q64 16 97.5 52t33.5 77q0 44 -32.5 78.5t-90.5 46.5q0 52 38 86.5t85 34.5z" />
    <glyph glyph-name="uni013C" unicode="&#x13c;" horiz-adv-x="552" 
d="M524 0h-495v31l53 10q50 9 74 31t24 82v1284l-151 100v4l340 117h4v-1505q0 -59 25 -81.5t73 -31.5l53 -10v-31zM272 -121q59 0 95 -41.5t36 -105.5q0 -189 -256 -246l-6 18q64 16 97.5 52t33.5 77q0 44 -32 78.5t-90 46.5q0 52 37.5 86.5t84.5 34.5z" />
    <glyph glyph-name="Lcaron" unicode="&#x13d;" horiz-adv-x="1181" 
d="M1128 481l21 -4l-66 -477h-1032v31l66 10q29 4 47.5 9.5t38 17.5t28.5 33t9 53v1126q0 32 -9 53t-28.5 33t-38 17.5t-47.5 9.5l-66 10v31h586v-31l-66 -10q-29 -4 -47.5 -9.5t-37.5 -17.5t-28 -33t-9 -53v-1239h313q144 0 225.5 102.5t140.5 337.5zM983 1434v-19
l-170 -379h-12v398h182z" />
    <glyph glyph-name="lcaron" unicode="&#x13e;" horiz-adv-x="552" 
d="M524 0h-495v31l53 10q50 9 74 31t24 82v1284l-151 100v4l340 117h4v-1505q0 -59 25 -81.5t73 -31.5l53 -10v-31zM528 1221h-12v397h182v-19z" />
    <glyph glyph-name="Lslash" unicode="&#x141;" horiz-adv-x="1196" 
d="M1145 481l20 -4l-65 -477h-1032v31l65 10q29 4 47.5 9.5t38 17.5t28.5 33t9 53v346l-172 -88l-18 37l190 98v733q0 32 -9 53t-28.5 33t-38 17.5t-47.5 9.5l-65 10v31h585v-31l-65 -10q-29 -4 -47.5 -9.5t-38 -17.5t-28.5 -33t-9 -53v-625l371 191l18 -41l-389 -199v-565
h313q144 0 226 102.5t141 337.5z" />
    <glyph glyph-name="lslash" unicode="&#x142;" horiz-adv-x="645" 
d="M428 801v-647q0 -59 25 -81.5t73 -31.5l54 -10v-31h-496v31l53 10q50 9 74.5 31t24.5 82v522l-203 -131l-25 35l228 149v709l-152 100v4l340 117h4v-803l188 125l25 -41z" />
    <glyph glyph-name="Nacute" unicode="&#x143;" horiz-adv-x="1556" 
d="M1065 1403v31h461v-31l-72 -10q-32 -4 -52 -9.5t-41.5 -17.5t-31.5 -33t-10 -53v-1280h-156l-872 1272v-1118q0 -32 10 -53t31.5 -33t41.5 -17.5t52 -9.5l72 -10v-31h-461v31l72 10q32 4 52 9.5t41.5 17.5t31.5 33t10 53v1126q0 32 -9 53t-27.5 33t-36.5 17.5t-46 9.5
l-64 10v31h365l846 -1203v1049q0 32 -10 53t-31.5 33t-41.5 17.5t-52 9.5zM1151 1843v-4l-365 -311h-10l127 315h248z" />
    <glyph glyph-name="nacute" unicode="&#x144;" horiz-adv-x="1243" 
d="M1169 41l54 -10v-31h-488v31l51 10q22 5 36 10t28.5 17t21.5 33t7 53v628q0 112 -54 177t-155 65q-76 0 -151 -39.5t-134 -112.5v-718q0 -60 23.5 -82t68.5 -31l51 -10v-31h-487v31l53 10q50 9 74.5 31t24.5 82v751l-152 101v4l340 116h4v-200q66 97 161 148.5t208 51.5
q151 0 234 -93.5t83 -254.5v-624q0 -59 25 -81.5t73 -31.5zM954 1513v-4l-364 -311h-10l127 315h247z" />
    <glyph glyph-name="uni0145" unicode="&#x145;" horiz-adv-x="1556" 
d="M1065 1403v31h461v-31l-72 -10q-32 -4 -52 -9.5t-41.5 -17.5t-31.5 -33t-10 -53v-1280h-156l-872 1272v-1118q0 -32 10 -53t31.5 -33t41.5 -17.5t52 -9.5l72 -10v-31h-461v31l72 10q32 4 52 9.5t41.5 17.5t31.5 33t10 53v1126q0 32 -9 53t-27.5 33t-36.5 17.5t-46 9.5
l-64 10v31h365l846 -1203v1049q0 32 -10 53t-31.5 33t-41.5 17.5t-52 9.5zM805 -121q59 0 95 -41.5t36 -105.5q0 -189 -256 -246l-6 18q64 16 97.5 52t33.5 77q0 44 -32.5 78.5t-90.5 46.5q0 52 38 86.5t85 34.5z" />
    <glyph glyph-name="uni0146" unicode="&#x146;" horiz-adv-x="1243" 
d="M1169 41l54 -10v-31h-488v31l51 10q22 5 36 10t28.5 17t21.5 33t7 53v628q0 112 -54 177t-155 65q-76 0 -151 -39.5t-134 -112.5v-718q0 -60 23.5 -82t68.5 -31l51 -10v-31h-487v31l53 10q50 9 74.5 31t24.5 82v751l-152 101v4l340 116h4v-200q66 97 161 148.5t208 51.5
q151 0 234 -93.5t83 -254.5v-624q0 -59 25 -81.5t73 -31.5zM608 -121q59 0 95 -41.5t36 -105.5q0 -189 -256 -246l-6 18q64 16 97.5 52t33.5 77q0 44 -32.5 78.5t-90.5 46.5q0 52 38 86.5t85 34.5z" />
    <glyph glyph-name="Ncaron" unicode="&#x147;" horiz-adv-x="1556" 
d="M1065 1403v31h461v-31l-72 -10q-32 -4 -52 -9.5t-41.5 -17.5t-31.5 -33t-10 -53v-1280h-156l-872 1272v-1118q0 -32 10 -53t31.5 -33t41.5 -17.5t52 -9.5l72 -10v-31h-461v31l72 10q32 4 52 9.5t41.5 17.5t31.5 33t10 53v1126q0 32 -9 53t-27.5 33t-36.5 17.5t-46 9.5
l-64 10v31h365l846 -1203v1049q0 32 -10 53t-31.5 33t-41.5 17.5t-52 9.5zM1104 1858l-293 -316h-4l-295 318l6 6l291 -144l289 144z" />
    <glyph glyph-name="ncaron" unicode="&#x148;" horiz-adv-x="1243" 
d="M1169 41l54 -10v-31h-488v31l51 10q22 5 36 10t28.5 17t21.5 33t7 53v628q0 112 -54 177t-155 65q-76 0 -151 -39.5t-134 -112.5v-718q0 -60 23.5 -82t68.5 -31l51 -10v-31h-487v31l53 10q50 9 74.5 31t24.5 82v751l-152 101v4l340 116h4v-200q66 97 161 148.5t208 51.5
q151 0 234 -93.5t83 -254.5v-624q0 -59 25 -81.5t73 -31.5zM907 1520l-293 -316h-4l-295 318l7 6l290 -144l289 144z" />
    <glyph glyph-name="Eng" unicode="&#x14a;" horiz-adv-x="1556" 
d="M1065 1403v31h461v-31l-72 -10q-32 -4 -52 -9.5t-41.5 -17.5t-31.5 -33t-10 -53v-1116q0 -124 -41 -230t-108 -174.5t-149 -106.5t-167 -38q-89 0 -131.5 35t-42.5 84q0 37 20.5 68t51.5 38q30 -62 98.5 -100.5t144.5 -38.5q68 0 118 56t50 141q0 107 -73 208l-799 1168
v-1120q0 -32 10 -53t31.5 -33t41.5 -17.5t52 -9.5l72 -10v-31h-461v31l72 10q32 4 52 9.5t41.5 17.5t31.5 33t10 53v1126q0 32 -9 53t-27.5 33t-36.5 17.5t-46 9.5l-64 10v31h365l846 -1203v1049q0 32 -10 53t-31.5 33t-41.5 17.5t-52 9.5z" />
    <glyph glyph-name="eng" unicode="&#x14b;" horiz-adv-x="1198" 
d="M752 1126q153 0 236 -93.5t83 -254.5v-614q0 -70 -39 -166t-98 -181.5t-136.5 -145.5t-146.5 -60q-68 0 -104 35.5t-30.5 92t52.5 114.5q54 -64 106 -98t91 -34q55 0 84 56.5t29 197.5v807q0 112 -54 177t-155 65q-76 0 -151 -39.5t-134 -112.5v-718q0 -60 23.5 -82
t68.5 -31l51 -10v-31h-487v31l53 10q50 9 74.5 31t24.5 82v751l-152 101v4l340 116h4v-200q66 96 161 148t206 52z" />
    <glyph glyph-name="Omacron" unicode="&#x14c;" horiz-adv-x="1495" 
d="M748 10q205 0 323.5 183.5t118.5 523.5t-118.5 523t-323.5 183q-203 0 -323 -183.5t-120 -522.5t120 -523t323 -184zM748 1454q152 0 279.5 -58.5t212 -159t131 -234.5t46.5 -285q0 -148 -45.5 -281t-129 -234.5t-211.5 -161.5t-283 -60q-151 0 -278.5 59t-212.5 159.5
t-132 234.5t-47 284q0 147 46 280t130 235t212 162t282 60zM1063 1640v-41h-629v41h629z" />
    <glyph glyph-name="omacron" unicode="&#x14d;" horiz-adv-x="1157" 
d="M578 1126q221 0 365 -161t144 -410t-144 -412t-365 -163t-364.5 163t-143.5 412t143.5 410t364.5 161zM578 10q139 0 215.5 145t76.5 400q0 254 -76.5 397.5t-215.5 143.5q-136 0 -213.5 -144.5t-77.5 -396.5q0 -254 77.5 -399.5t213.5 -145.5zM895 1292h-629v41h629v-41
z" />
    <glyph glyph-name="Ohungarumlaut" unicode="&#x150;" horiz-adv-x="1495" 
d="M748 10q205 0 323.5 183.5t118.5 523.5t-118.5 523t-323.5 183q-203 0 -323 -183.5t-120 -522.5t120 -523t323 -184zM748 1454q152 0 279.5 -58.5t212 -159t131 -234.5t46.5 -285q0 -148 -45.5 -281t-129 -234.5t-211.5 -161.5t-283 -60q-151 0 -278.5 59t-212.5 159.5
t-132 234.5t-47 284q0 147 46 280t130 235t212 162t282 60zM946 1837l-344 -311h-10l127 315h227v-4zM1233 1837l-344 -311h-10l127 315h227v-4z" />
    <glyph glyph-name="ohungarumlaut" unicode="&#x151;" horiz-adv-x="1157" 
d="M578 10q139 0 215.5 145t76.5 400q0 254 -76.5 397.5t-215.5 143.5q-136 0 -213.5 -144.5t-77.5 -396.5q0 -254 77.5 -399.5t213.5 -145.5zM578 1126q221 0 365 -161t144 -410t-144 -412t-365 -163t-364.5 163t-143.5 412t143.5 410t364.5 161zM778 1509l-344 -311h-10
l127 315h227v-4zM1065 1509l-344 -311h-10l127 315h227v-4z" />
    <glyph glyph-name="OE" unicode="&#x152;" horiz-adv-x="2052" 
d="M1024 207v1020q0 97 -51 130.5t-197 33.5q-226 0 -346.5 -181.5t-120.5 -492.5t120.5 -492.5t346.5 -181.5q145 0 196.5 34.5t51.5 129.5zM1972 461h23l-66 -461h-1161q-200 0 -358.5 94t-245 257.5t-86.5 365.5q0 158 53.5 293t145.5 227.5t219 144.5t272 52h1083
l66 -441l-21 -6q-120 406 -397 406h-266v-637h199q56 0 85.5 18t49.5 70t37 160h20v-537h-20q-13 110 -31.5 162t-49 69t-91.5 17h-199v-674h301q96 0 164 19t123.5 66.5t91.5 129t59 205.5z" />
    <glyph glyph-name="oe" unicode="&#x153;" horiz-adv-x="1843" 
d="M578 10q139 0 215.5 145t76.5 400q0 254 -76.5 397.5t-215.5 143.5q-136 0 -213.5 -144.5t-77.5 -396.5q0 -254 77.5 -399.5t213.5 -145.5zM1376 1096q-114 0 -183.5 -94t-90.5 -250h500q-5 167 -61.5 255.5t-164.5 88.5zM1780 258l12 -8q-56 -125 -165.5 -197.5
t-244.5 -72.5q-124 0 -229.5 55t-171.5 155q-68 -100 -172.5 -155t-230.5 -55q-221 0 -364.5 163t-143.5 412t143.5 410t364.5 161q129 0 236 -58.5t175 -162.5q68 104 173.5 162.5t228.5 58.5q98 0 173.5 -33t121 -90.5t68 -131t22.5 -160.5h-678q-4 -62 -4 -93
q0 -252 107 -387t280 -135q85 0 166.5 44t132.5 118z" />
    <glyph glyph-name="Racute" unicode="&#x154;" horiz-adv-x="1376" 
d="M449 1393v-736h178q173 0 266.5 100.5t93.5 270.5q0 174 -98.5 269.5t-280.5 95.5h-159zM868 647l531 -637v-10h-238l-491 616h-221v-462q0 -32 9 -53t28 -33t37.5 -17.5t47.5 -9.5l66 -10v-31h-586v31l66 10q29 4 47.5 9.5t38 17.5t28.5 33t9 53v1126q0 32 -9 53
t-28.5 33t-38 17.5t-47.5 9.5l-66 10v31h557q276 0 439 -109t163 -291q0 -132 -90 -236t-252 -151zM745 1843h248v-4l-364 -311h-11z" />
    <glyph glyph-name="racute" unicode="&#x155;" horiz-adv-x="821" 
d="M690 1124q64 0 93.5 -29t29.5 -75q0 -32 -14 -65.5t-33 -47.5q-131 70 -205 70q-49 0 -95.5 -76t-80.5 -199v-548q0 -32 10 -53t31.5 -33t41.5 -17.5t52 -9.5l72 -10v-31h-551v31l53 10q50 9 74.5 31t24.5 82v751l-152 101v4l340 116h4v-321q112 319 305 319zM764 1513
v-4l-365 -311h-10l127 315h248z" />
    <glyph glyph-name="uni0156" unicode="&#x156;" horiz-adv-x="1376" 
d="M449 1393v-736h178q173 0 266.5 100.5t93.5 270.5q0 174 -98.5 269.5t-280.5 95.5h-159zM868 647l531 -637v-10h-238l-491 616h-221v-462q0 -32 9 -53t28 -33t37.5 -17.5t47.5 -9.5l66 -10v-31h-586v31l66 10q29 4 47.5 9.5t38 17.5t28.5 33t9 53v1126q0 32 -9 53
t-28.5 33t-38 17.5t-47.5 9.5l-66 10v31h557q276 0 439 -109t163 -291q0 -132 -90 -236t-252 -151zM770 -121q59 0 95 -41.5t36 -105.5q0 -189 -256 -246l-6 18q64 16 97.5 52t33.5 77q0 44 -32.5 78.5t-90.5 46.5q0 52 38 86.5t85 34.5z" />
    <glyph glyph-name="uni0157" unicode="&#x157;" horiz-adv-x="821" 
d="M690 1124q64 0 93.5 -29t29.5 -75q0 -32 -14 -65.5t-33 -47.5q-131 70 -205 70q-49 0 -95.5 -76t-80.5 -199v-548q0 -32 10 -53t31.5 -33t41.5 -17.5t52 -9.5l72 -10v-31h-551v31l53 10q50 9 74.5 31t24.5 82v751l-152 101v4l340 116h4v-321q112 319 305 319zM285 -121
q59 0 95 -41.5t36 -105.5q0 -189 -256 -246l-6 18q64 16 97.5 52t33.5 77q0 44 -32.5 78.5t-90.5 46.5q0 52 38 86.5t85 34.5z" />
    <glyph glyph-name="Rcaron" unicode="&#x158;" horiz-adv-x="1376" 
d="M449 1393v-736h178q173 0 266.5 100.5t93.5 270.5q0 174 -98.5 269.5t-280.5 95.5h-159zM868 647l531 -637v-10h-238l-491 616h-221v-462q0 -32 9 -53t28 -33t37.5 -17.5t47.5 -9.5l66 -10v-31h-586v31l66 10q29 4 47.5 9.5t38 17.5t28.5 33t9 53v1126q0 32 -9 53
t-28.5 33t-38 17.5t-47.5 9.5l-66 10v31h557q276 0 439 -109t163 -291q0 -132 -90 -236t-252 -151zM940 1866l6 -8l-293 -316h-4l-295 318l6 6l291 -144z" />
    <glyph glyph-name="rcaron" unicode="&#x159;" horiz-adv-x="821" 
d="M690 1124q64 0 93.5 -29t29.5 -75q0 -32 -14 -65.5t-33 -47.5q-131 70 -205 70q-49 0 -95.5 -76t-80.5 -199v-548q0 -32 10 -53t31.5 -33t41.5 -17.5t52 -9.5l72 -10v-31h-551v31l53 10q50 9 74.5 31t24.5 82v751l-152 101v4l340 116h4v-321q112 319 305 319zM717 1520
l-293 -316h-4l-295 318l6 6l291 -144l289 144z" />
    <glyph glyph-name="Sacute" unicode="&#x15a;" horiz-adv-x="1126" 
d="M553 -20q-111 0 -232 30.5t-202 85.5l-41 320h20q72 -166 212.5 -286t293.5 -120q127 0 209 86t82 217q0 75 -32 131.5t-85.5 91t-120 61t-140.5 50.5t-141 50t-126.5 68.5t-93.5 98.5q-43 70 -43 176q0 181 139 297.5t354 116.5q198 0 355 -80l20 -325h-20
q-138 374 -394 374q-128 0 -216.5 -78t-88.5 -204q0 -62 27 -109.5t72.5 -78t104.5 -55t124.5 -45t130.5 -42.5t124 -54.5t104.5 -74.5t72.5 -108t27 -150q0 -193 -140.5 -318.5t-355.5 -125.5zM674 1843h248v-4l-365 -311h-10z" />
    <glyph glyph-name="sacute" unicode="&#x15b;" horiz-adv-x="929" 
d="M453 -20q-95 0 -195.5 32.5t-175.5 93.5v277h20q50 -161 161.5 -262t242.5 -101q91 0 150 64t59 162q0 51 -26 91.5t-68 65.5t-96 50t-110 44t-110 47.5t-96 61t-68 85t-26 118.5q0 138 109 227.5t278 89.5q166 0 291 -73v-285h-21q-110 319 -321 319q-85 0 -140 -54.5
t-55 -139.5q0 -27 9 -51.5t21 -42.5t37 -36t43.5 -29.5t55 -27t57.5 -23.5t64 -23q9 -3 14 -5q52 -18 91 -36.5t80 -46.5t67.5 -60t43.5 -77.5t17 -100.5q0 -154 -114 -254t-289 -100zM578 1513h247v-4l-364 -311h-10z" />
    <glyph glyph-name="Scedilla" unicode="&#x15e;" horiz-adv-x="1126" 
d="M553 -20l-35 -68q193 -55 193 -178q0 -45 -26.5 -83t-69 -62.5t-97 -41.5t-108.5 -24.5t-105 -7.5l-18 71q79 -20 143 -20q74 0 117 28t43 82q0 96 -195 134l101 172q-103 8 -205 37.5t-172 76.5l-41 320h20q72 -166 212.5 -286t293.5 -120q127 0 209 86t82 217
q0 75 -32 131.5t-85.5 91t-120 61t-140.5 50.5t-141 50t-126.5 68.5t-93.5 98.5q-43 70 -43 176q0 181 139 297.5t354 116.5q198 0 355 -80l20 -325h-20q-138 374 -394 374q-128 0 -216.5 -78t-88.5 -204q0 -62 27 -109.5t72.5 -78t104.5 -55t124.5 -45t130.5 -42.5
t124 -54.5t104.5 -74.5t72.5 -108t27 -150q0 -193 -140.5 -318.5t-355.5 -125.5z" />
    <glyph glyph-name="scedilla" unicode="&#x15f;" horiz-adv-x="929" 
d="M856 334q0 -150 -108 -249t-277 -105l-35 -68q193 -55 193 -178q0 -45 -26.5 -83t-69 -62.5t-97 -41.5t-108.5 -24.5t-105 -7.5l-18 71q79 -20 143 -20q74 0 117 28t43 82q0 96 -195 134l101 172q-89 6 -177.5 37.5t-154.5 86.5v277h20q50 -161 161.5 -262t242.5 -101
q91 0 150 64t59 162q0 51 -26 91.5t-68 65.5t-96 50t-110 44t-110 47.5t-96 61t-68 85t-26 118.5q0 138 109 227.5t278 89.5q166 0 291 -73v-285h-21q-110 319 -321 319q-85 0 -140 -54.5t-55 -139.5q0 -27 9 -51.5t21 -42.5t37 -36t43.5 -29.5t55 -27t57.5 -23.5t64 -23
q9 -3 14 -5q52 -18 91 -36.5t80 -46.5t67.5 -60t43.5 -77.5t17 -100.5z" />
    <glyph glyph-name="Scaron" unicode="&#x160;" horiz-adv-x="1126" 
d="M553 -20q-111 0 -232 30.5t-202 85.5l-41 320h20q72 -166 212.5 -286t293.5 -120q127 0 209 86t82 217q0 75 -32 131.5t-85.5 91t-120 61t-140.5 50.5t-141 50t-126.5 68.5t-93.5 98.5q-43 70 -43 176q0 181 139 297.5t354 116.5q198 0 355 -80l20 -325h-20
q-138 374 -394 374q-128 0 -216.5 -78t-88.5 -204q0 -62 27 -109.5t72.5 -78t104.5 -55t124.5 -45t130.5 -42.5t124 -54.5t104.5 -74.5t72.5 -108t27 -150q0 -193 -140.5 -318.5t-355.5 -125.5zM283 1860l6 6l291 -144l288 144l6 -8l-292 -316h-4z" />
    <glyph glyph-name="scaron" unicode="&#x161;" horiz-adv-x="929" 
d="M453 -20q-95 0 -195.5 32.5t-175.5 93.5v277h20q50 -161 161.5 -262t242.5 -101q91 0 150 64t59 162q0 51 -26 91.5t-68 65.5t-96 50t-110 44t-110 47.5t-96 61t-68 85t-26 118.5q0 138 109 227.5t278 89.5q166 0 291 -73v-285h-21q-110 319 -321 319q-85 0 -140 -54.5
t-55 -139.5q0 -27 9 -51.5t21 -42.5t37 -36t43.5 -29.5t55 -27t57.5 -23.5t64 -23q9 -3 14 -5q52 -18 91 -36.5t80 -46.5t67.5 -60t43.5 -77.5t17 -100.5q0 -154 -114 -254t-289 -100zM186 1522l7 6l290 -144l289 144l6 -8l-293 -316h-4z" />
    <glyph glyph-name="uni0162" unicode="&#x162;" horiz-adv-x="1361" 
d="M100 1434h1162l65 -455h-20q-72 224 -168.5 319t-229.5 95h-123v-1239q0 -32 13 -53t40 -33t52.5 -17.5t66.5 -9.5l93 -10v-31h-332l-45 -88q192 -55 192 -178q0 -56 -39.5 -100.5t-102 -69t-130 -37t-133.5 -12.5l-19 71q79 -20 144 -20q74 0 116.5 28t42.5 82
q0 96 -194 134l111 190h-351v31l92 10q41 4 66.5 9.5t52.5 17.5t40 33t13 53v1239h-122q-132 0 -227 -94.5t-171 -319.5h-20z" />
    <glyph glyph-name="uni0163" unicode="&#x163;" horiz-adv-x="692" 
d="M444 -20h-20q-15 0 -21 2l-34 -70q192 -55 192 -178q0 -56 -39.5 -100.5t-102 -69t-130 -37t-133.5 -12.5l-19 71q79 -20 144 -20q74 0 116.5 28t42.5 82q0 96 -194 134l106 182q-172 53 -172 276v797h-186v20l356 236h25v-215h287v-41h-287v-799q0 -176 153 -176
q90 0 162 33l6 -12q-46 -60 -111.5 -95.5t-140.5 -35.5z" />
    <glyph glyph-name="Tcaron" unicode="&#x164;" horiz-adv-x="1361" 
d="M100 1434h1162l65 -455h-20q-72 224 -168.5 319t-229.5 95h-123v-1239q0 -32 13 -53t40 -33t52.5 -17.5t66.5 -9.5l93 -10v-31h-740v31l92 10q41 4 66.5 9.5t52.5 17.5t40 33t13 53v1239h-122q-132 0 -227 -94.5t-171 -319.5h-20zM977 1858l-293 -316h-4l-295 318l6 6
l291 -144l289 144z" />
    <glyph glyph-name="tcaron" unicode="&#x165;" horiz-adv-x="692" 
d="M690 123l6 -12q-46 -60 -111.5 -95.5t-140.5 -35.5q-121 0 -192.5 69t-71.5 219v797h-186v20l356 236h25v-215h287v-41h-287v-799q0 -176 153 -176q90 0 162 33zM670 1434v-13l-170 -252h-13v265h183z" />
    <glyph glyph-name="Tbar" unicode="&#x166;" horiz-adv-x="1345" 
d="M92 1434h1161l66 -455h-21q-73 224 -168.5 319t-228.5 95h-123v-656h289v-41h-289v-542q0 -32 13 -53t40 -33t52.5 -17.5t66.5 -9.5l92 -10v-31h-739v31l92 10q41 4 66.5 9.5t52.5 17.5t40 33t13 53v542h-288v41h288v656h-123q-132 0 -226.5 -94.5t-170.5 -319.5h-20z
" />
    <glyph glyph-name="tbar" unicode="&#x167;" horiz-adv-x="688" 
d="M692 123l6 -12q-46 -60 -111.5 -95.5t-140.5 -35.5q-121 0 -192.5 69t-71.5 219v469h-139v41h139v287h-186v20l356 236h25v-215h287v-41h-287v-287h241v-41h-241v-471q0 -176 153 -176q90 0 162 33z" />
    <glyph glyph-name="Utilde" unicode="&#x168;" horiz-adv-x="1476" 
d="M745 -20q-247 0 -392.5 142t-145.5 390v768q0 60 -28 82t-85 31l-59 10v31h571v-31l-65 -10q-29 -4 -47.5 -9.5t-38 -17.5t-28.5 -33t-9 -53v-780q0 -211 107 -331t298 -120t295.5 120.5t104.5 332.5v778q0 32 -10 53t-30.5 33t-40.5 17.5t-52 9.5l-70 10v31h457v-31
l-72 -10q-32 -4 -52 -9.5t-41.5 -17.5t-31.5 -33t-10 -53v-778q0 -244 -140 -383t-385 -139zM862 1563q-44 0 -90 21.5t-78 48t-71.5 48t-71.5 21.5q-73 0 -111 -90l-14 2q25 97 72 157t112 60q42 0 87 -22.5t78 -49t75 -49t78 -22.5q39 0 63.5 24.5t44.5 75.5l15 -2
q-21 -98 -70.5 -160.5t-118.5 -62.5z" />
    <glyph glyph-name="utilde" unicode="&#x169;" horiz-adv-x="1226" 
d="M1196 84l6 -31l-348 -73v206q-153 -206 -365 -206q-152 0 -235.5 94.5t-83.5 253.5v604q0 32 -6.5 51.5t-21.5 28t-29 10.5t-39 2l-54 -2l-6 31l348 73v-802q0 -112 55 -177t154 -65q149 0 283 158v692q0 32 -6.5 51.5t-21.5 28t-29 10.5t-39 2l-53 -2l-7 31l349 73v-952
q0 -32 7 -51.5t22.5 -28t29.5 -10.5t37 -2zM737 1235q-44 0 -90 21.5t-78 48t-71.5 48t-71.5 21.5q-73 0 -111 -90l-14 2q25 97 72 157t112 60q42 0 87 -22.5t78 -49t75 -49t78 -22.5q39 0 63.5 24.5t44.5 75.5l15 -2q-21 -98 -70.5 -160.5t-118.5 -62.5z" />
    <glyph glyph-name="Umacron" unicode="&#x16a;" horiz-adv-x="1476" 
d="M745 -20q-247 0 -392.5 142t-145.5 390v768q0 60 -28 82t-85 31l-59 10v31h571v-31l-65 -10q-29 -4 -47.5 -9.5t-38 -17.5t-28.5 -33t-9 -53v-780q0 -211 107 -331t298 -120t295.5 120.5t104.5 332.5v778q0 32 -10 53t-30.5 33t-40.5 17.5t-52 9.5l-70 10v31h457v-31
l-72 -10q-32 -4 -52 -9.5t-41.5 -17.5t-31.5 -33t-10 -53v-778q0 -244 -140 -383t-385 -139zM1110 1599h-629v41h629v-41z" />
    <glyph glyph-name="umacron" unicode="&#x16b;" horiz-adv-x="1226" 
d="M1196 84l6 -31l-348 -73v206q-153 -206 -365 -206q-152 0 -235.5 94.5t-83.5 253.5v604q0 32 -6.5 51.5t-21.5 28t-29 10.5t-39 2l-54 -2l-6 31l348 73v-802q0 -112 55 -177t154 -65q149 0 283 158v692q0 32 -6.5 51.5t-21.5 28t-29 10.5t-39 2l-53 -2l-7 31l349 73v-952
q0 -32 7 -51.5t22.5 -28t29.5 -10.5t37 -2zM274 1333h629v-41h-629v41z" />
    <glyph glyph-name="Uring" unicode="&#x16e;" horiz-adv-x="1476" 
d="M797 1579q60 0 97.5 37t37.5 94q0 60 -37.5 97.5t-97.5 37.5q-57 0 -95 -37.5t-38 -97.5q0 -57 38 -94t95 -37zM745 -20q-247 0 -392.5 142t-145.5 390v768q0 60 -28 82t-85 31l-59 10v31h571v-31l-65 -10q-29 -4 -47.5 -9.5t-38 -17.5t-28.5 -33t-9 -53v-780
q0 -211 107 -331t298 -120t295.5 120.5t104.5 332.5v778q0 32 -10 53t-30.5 33t-40.5 17.5t-52 9.5l-70 10v31h457v-31l-72 -10q-32 -4 -52 -9.5t-41.5 -17.5t-31.5 -33t-10 -53v-778q0 -244 -140 -383t-385 -139zM797 1528q-82 0 -135.5 51.5t-53.5 130.5q0 81 53.5 133.5
t135.5 52.5q84 0 137 -52t53 -134q0 -80 -53 -131t-137 -51z" />
    <glyph glyph-name="uring" unicode="&#x16f;" horiz-adv-x="1226" 
d="M590 1538q-58 0 -95.5 -38t-37.5 -97q0 -57 38 -94t95 -37q60 0 97.5 37t37.5 94q0 60 -37.5 97.5t-97.5 37.5zM1143 82l53 2l6 -31l-348 -73v206q-153 -206 -365 -206q-152 0 -235.5 94.5t-83.5 253.5v604q0 32 -6.5 51.5t-21.5 28t-29 10.5t-39 2l-54 -2l-6 31l348 73
v-802q0 -112 55 -177t154 -65q149 0 283 158v692q0 32 -6.5 51.5t-21.5 28t-29 10.5t-39 2l-53 -2l-7 31l349 73v-952q0 -32 7 -51.5t22.5 -28t29.5 -10.5t37 -2zM590 1221q-82 0 -135.5 51.5t-53.5 130.5q0 81 53.5 133.5t135.5 52.5q84 0 137 -52t53 -134q0 -80 -53 -131
t-137 -51z" />
    <glyph glyph-name="Uhungarumlaut" unicode="&#x170;" horiz-adv-x="1476" 
d="M745 -20q-247 0 -392.5 142t-145.5 390v768q0 60 -28 82t-85 31l-59 10v31h571v-31l-65 -10q-29 -4 -47.5 -9.5t-38 -17.5t-28.5 -33t-9 -53v-780q0 -211 107 -331t298 -120t295.5 120.5t104.5 332.5v778q0 32 -10 53t-30.5 33t-40.5 17.5t-52 9.5l-70 10v31h457v-31
l-72 -10q-32 -4 -52 -9.5t-41.5 -17.5t-31.5 -33t-10 -53v-778q0 -244 -140 -383t-385 -139zM649 1526h-10l127 315h227v-4zM936 1526h-10l127 315h227v-4z" />
    <glyph glyph-name="uhungarumlaut" unicode="&#x171;" horiz-adv-x="1226" 
d="M1196 84l6 -31l-348 -73v206q-153 -206 -365 -206q-152 0 -235.5 94.5t-83.5 253.5v604q0 32 -6.5 51.5t-21.5 28t-29 10.5t-39 2l-54 -2l-6 31l348 73v-802q0 -112 55 -177t154 -65q149 0 283 158v692q0 32 -6.5 51.5t-21.5 28t-29 10.5t-39 2l-53 -2l-7 31l349 73v-952
q0 -32 7 -51.5t22.5 -28t29.5 -10.5t37 -2zM786 1513v-4l-344 -311h-10l127 315h227zM1073 1509l-344 -311h-10l127 315h227v-4z" />
    <glyph glyph-name="Uogonek" unicode="&#x172;" horiz-adv-x="1480" 
d="M1020 1403v31h457v-31l-72 -10q-32 -4 -52 -9.5t-41.5 -17.5t-31.5 -33t-10 -53v-778q0 -238 -146 -387q-118 -123 -182.5 -203t-79 -111t-14.5 -57q0 -37 22.5 -60.5t65.5 -23.5q52 0 96 33l4 -4q-31 -52 -84 -84.5t-112 -32.5q-68 0 -108 35t-40 90q0 61 66 129
t237 201q-112 -47 -250 -47q-247 0 -392.5 142t-145.5 390v768q0 60 -28 82t-85 31l-59 10v31h571v-31l-65 -10q-29 -4 -47.5 -9.5t-38 -17.5t-28.5 -33t-9 -53v-780q0 -211 107 -331t298 -120t295.5 120.5t104.5 332.5v778q0 32 -10 53t-30.5 33t-40.5 17.5t-52 9.5z" />
    <glyph glyph-name="uogonek" unicode="&#x173;" horiz-adv-x="1226" 
d="M786 -340q53 0 97 33l4 -4q-31 -52 -84.5 -84.5t-112.5 -32.5q-68 0 -107.5 35t-39.5 90q0 67 73 134.5t238 178.5v176q-153 -206 -365 -206q-152 0 -235.5 94.5t-83.5 253.5v604q0 32 -6.5 51.5t-21.5 28t-29 10.5t-39 2l-54 -2l-6 31l348 73v-802q0 -112 55 -177
t154 -65q149 0 283 158v692q0 32 -6.5 51.5t-21.5 28t-29 10.5t-39 2l-53 -2l-7 31l349 73v-952q0 -32 7 -51.5t22.5 -28t29.5 -10.5t37 -2l53 2l6 -31l-348 -73v2q-92 -105 -124 -154t-32 -84q0 -37 22.5 -60.5t65.5 -23.5z" />
    <glyph glyph-name="Wcircumflex" unicode="&#x174;" horiz-adv-x="2035" 
d="M1659 1403v31h432v-31l-49 -10q-25 -5 -39 -9.5t-33.5 -15.5t-32.5 -32t-22 -52l-369 -1284h-164l-401 1214l-330 -1214h-162l-374 1284q-9 31 -19.5 52t-24 32t-22 15.5t-24.5 9.5l-31 10v31h510v-31l-66 -10q-60 -9 -84.5 -30.5t-7.5 -78.5l299 -1122l346 1272h150
l405 -1282l322 1132q17 57 -16 78.5t-109 30.5zM1356 1536l-289 143l-291 -143l-6 6l295 318h4l293 -316z" />
    <glyph glyph-name="wcircumflex" unicode="&#x175;" horiz-adv-x="1648" 
d="M1319 1075v31h348v-31l-39 -10q-18 -5 -28 -9.5t-26 -15.5t-27.5 -32t-20.5 -52l-295 -956h-117l-319 909l-234 -909h-121l-334 958q-10 30 -21.5 50.5t-26 31.5t-23.5 15.5t-25 9.5l-30 10v31h415v-31l-39 -10q-17 -4 -26.5 -9t-17.5 -16t-6.5 -31.5t11.5 -50.5
l244 -747l230 895h145l301 -909l233 759q17 60 -5.5 80t-82.5 29zM1153 1208l-289 144l-291 -144l-6 6l295 318h4l293 -315z" />
    <glyph glyph-name="Ycircumflex" unicode="&#x176;" horiz-adv-x="1290" 
d="M899 1403v31h418v-31l-43 -10q-53 -12 -82.5 -33.5t-54.5 -65.5l-375 -661v-479q0 -32 10 -53t31.5 -33t41.5 -17.5t52 -9.5l72 -10v-31h-623v31l72 10q32 4 52 9.5t41.5 17.5t31.5 33t10 53v469l-428 675q-47 72 -119 95l-31 10v31h521v-31l-66 -10q-29 -4 -44.5 -8.5
t-27.5 -14.5t-9 -27.5t20 -44.5l381 -602l337 598q13 23 13.5 40t-5.5 26.5t-25.5 16.5t-37 9.5t-49.5 6.5zM981 1536l-289 143l-291 -143l-6 6l295 318h4l293 -316z" />
    <glyph glyph-name="ycircumflex" unicode="&#x177;" horiz-adv-x="1038" 
d="M711 1075v31h348v-31l-37 -10q-24 -7 -38.5 -13.5t-36.5 -30.5t-36 -63l-336 -907q-17 -45 -30.5 -78.5t-38.5 -88.5t-51 -94t-59 -78.5t-72 -60t-80 -20.5q-18 0 -38 4t-43.5 15t-41.5 27.5t-30.5 44.5t-12.5 63q0 52 22 100q182 -92 244 -92q56 0 88.5 48.5t77.5 178.5
l-404 943q-16 37 -36 59.5t-32.5 29t-33.5 13.5l-31 10v31h498v-31l-65 -10q-60 -9 -82 -28.5t0 -75.5l278 -703l254 700q21 57 -1 77.5t-81 29.5zM866 1208l-288 144l-291 -144l-6 6l294 318h5l292 -315z" />
    <glyph glyph-name="Ydieresis" unicode="&#x178;" horiz-adv-x="1290" 
d="M899 1403v31h418v-31l-43 -10q-53 -12 -82.5 -33.5t-54.5 -65.5l-375 -661v-479q0 -32 10 -53t31.5 -33t41.5 -17.5t52 -9.5l72 -10v-31h-623v31l72 10q32 4 52 9.5t41.5 17.5t31.5 33t10 53v469l-428 675q-47 72 -119 95l-31 10v31h521v-31l-66 -10q-29 -4 -44.5 -8.5
t-27.5 -14.5t-9 -27.5t20 -44.5l381 -602l337 598q13 23 13.5 40t-5.5 26.5t-25.5 16.5t-37 9.5t-49.5 6.5zM489 1606q-50 0 -82 32.5t-32 83.5t32 84t82 33q51 0 84 -33t33 -84t-33 -83.5t-84 -32.5zM893 1606q-50 0 -82.5 32.5t-32.5 83.5t32.5 84t82.5 33q51 0 84 -33
t33 -84t-33 -83.5t-84 -32.5z" />
    <glyph glyph-name="Zacute" unicode="&#x179;" horiz-adv-x="1253" 
d="M1174 518h20l-92 -518h-1065v25l885 1368h-381q-142 0 -239 -90.5t-200 -325.5h-20l68 457h1030v-25l-879 -1368h381q180 0 286.5 104t205.5 373zM1004 1843v-4l-365 -311h-10l127 315h248z" />
    <glyph glyph-name="zacute" unicode="&#x17a;" horiz-adv-x="978" 
d="M117 1106h803v-25l-648 -1042h316q117 0 184 80.5t111 273.5h20l-37 -393h-829v25l645 1040h-295q-106 0 -171 -71.5t-116 -233.5h-20zM821 1513v-4l-364 -311h-11l127 315h248z" />
    <glyph glyph-name="Zdotaccent" unicode="&#x17b;" horiz-adv-x="1253" 
d="M1174 518h20l-92 -518h-1065v25l885 1368h-381q-142 0 -239 -90.5t-200 -325.5h-20l68 457h1030v-25l-879 -1368h381q180 0 286.5 104t205.5 373zM662 1606q-51 0 -86 34.5t-35 85.5q0 53 34.5 87t86.5 34q54 0 87 -33.5t33 -87.5q0 -52 -33.5 -86t-86.5 -34z" />
    <glyph glyph-name="zdotaccent" unicode="&#x17c;" horiz-adv-x="978" 
d="M117 1106h803v-25l-648 -1042h316q117 0 184 80.5t111 273.5h20l-37 -393h-829v25l645 1040h-295q-106 0 -171 -71.5t-116 -233.5h-20zM479 1257q-51 0 -86 35t-35 86q0 53 34.5 87t86.5 34q54 0 87.5 -33.5t33.5 -87.5q0 -52 -34 -86.5t-87 -34.5z" />
    <glyph glyph-name="Zcaron" unicode="&#x17d;" horiz-adv-x="1253" 
d="M1174 518h20l-92 -518h-1065v25l885 1368h-381q-142 0 -239 -90.5t-200 -325.5h-20l68 457h1030v-25l-879 -1368h381q180 0 286.5 104t205.5 373zM956 1858l-292 -316h-5l-294 318l6 6l291 -144l288 144z" />
    <glyph glyph-name="zcaron" unicode="&#x17e;" horiz-adv-x="978" 
d="M117 1106h803v-25l-648 -1042h316q117 0 184 80.5t111 273.5h20l-37 -393h-829v25l645 1040h-295q-106 0 -171 -71.5t-116 -233.5h-20zM774 1520l-293 -316h-4l-295 318l6 6l291 -144l289 144z" />
    <glyph glyph-name="florin" unicode="&#x192;" horiz-adv-x="1161" 
d="M831 1372q-25 0 -44 -72t-49.5 -254.5t-51.5 -283.5h320v-41h-330q-25 -119 -53 -216.5t-72 -198.5t-95 -170t-122.5 -112.5t-155.5 -43.5q-77 0 -118 39.5t-33 99t63 114.5q47 -75 114 -123.5t124 -48.5q26 0 46.5 82.5t51 272t55.5 305.5h-288v41h299q14 63 28 115
t38.5 127t50.5 133t65.5 120t82.5 103t101 67.5t123 26.5q70 0 111 -34t41 -87q0 -69 -64 -133q-44 74 -112 123t-126 49z" />
    <glyph glyph-name="Ohorn" unicode="&#x1a0;" horiz-adv-x="1495" 
d="M748 10q205 0 323.5 183.5t118.5 523.5t-118.5 523t-323.5 183q-203 0 -323 -183.5t-120 -522.5t120 -523t323 -184zM748 1454q274 0 466 -192q99 59 99 124q0 84 -123 134q0 46 32.5 77t75.5 31q52 0 84.5 -38.5t32.5 -94.5q0 -77 -47 -143t-137 -109q186 -205 186 -526
q0 -148 -45.5 -281t-129 -234.5t-211.5 -161.5t-283 -60q-151 0 -278.5 59t-212.5 159.5t-132 234.5t-47 284q0 147 46 280t130 235t212 162t282 60z" />
    <glyph glyph-name="ohorn" unicode="&#x1a1;" horiz-adv-x="1157" 
d="M578 10q139 0 215.5 145t76.5 400q0 254 -76.5 397.5t-215.5 143.5q-136 0 -213.5 -144.5t-77.5 -396.5q0 -254 77.5 -399.5t213.5 -145.5zM578 1126q222 0 364 -161q96 57 96 122q0 85 -123 134q0 46 33 77t76 31q52 0 84.5 -38.5t32.5 -94.5q0 -77 -47 -142.5
t-136 -107.5q129 -161 129 -391q0 -249 -144 -412t-365 -163t-364.5 163t-143.5 412t143.5 410t364.5 161z" />
    <glyph glyph-name="Uhorn" unicode="&#x1af;" horiz-adv-x="1476" 
d="M1270 1214v-712q0 -244 -140 -383t-385 -139q-247 0 -392.5 142t-145.5 390v768q0 60 -28 82t-85 31l-59 10v31h571v-31l-65 -10q-29 -4 -47.5 -9.5t-38 -17.5t-28.5 -33t-9 -53v-780q0 -211 107 -331t298 -120t295.5 120.5t104.5 332.5v778q0 32 -10 53t-30.5 33
t-40.5 17.5t-52 9.5l-70 10v31h313v-31q-44 -15 -53.5 -34.5t-9.5 -88.5v-45q157 67 157 151q0 85 -122 134q0 46 32.5 77t75.5 31q52 0 84.5 -38.5t32.5 -94.5q0 -92 -67 -167t-193 -114z" />
    <glyph glyph-name="uhorn" unicode="&#x1b0;" horiz-adv-x="1226" 
d="M1196 84l6 -31l-348 -73v206q-153 -206 -365 -206q-152 0 -235.5 94.5t-83.5 253.5v604q0 32 -6.5 51.5t-21.5 28t-29 10.5t-39 2l-54 -2l-6 31l348 73v-802q0 -112 55 -177t154 -65q149 0 283 158v692q0 32 -6.5 51.5t-21.5 28t-29 10.5t-39 2l-53 -2l-7 31l349 73v-184
q141 65 141 145q0 85 -123 134q0 46 33 77t76 31q52 0 84 -38t32 -95q0 -89 -62.5 -162.5t-180.5 -113.5v-746q0 -32 7 -51.5t22.5 -28t29.5 -10.5t37 -2z" />
    <glyph glyph-name="uni01CD" unicode="&#x1cd;" horiz-adv-x="1378" 
d="M858 588l-258 706l-246 -706h504zM1378 41l52 -10v-31h-547v31l61 10q63 10 79 32.5t-3 73.5l-146 400h-534l-137 -400q-17 -51 6.5 -73.5t109.5 -32.5l82 -10v-31h-430v31l49 10q62 12 89.5 33.5t44.5 72.5l442 1287h162l487 -1289q19 -50 46 -71t87 -33zM967 1866l6 -8
l-293 -316h-4l-295 318l6 6l291 -144z" />
    <glyph glyph-name="uni01CE" unicode="&#x1ce;" horiz-adv-x="1024" 
d="M387 80q76 0 145.5 48t122.5 130v184q-81 15 -131 15q-123 0 -204.5 -60.5t-81.5 -165.5q0 -70 39 -110.5t110 -40.5zM1034 121l6 -8q-22 -51 -81.5 -92t-124.5 -41q-86 0 -132.5 47.5t-46.5 132.5v45q-66 -103 -162.5 -164t-209.5 -61q-106 0 -172 57.5t-66 150.5
q0 138 147.5 218t462.5 106v307q0 109 -72 161t-184 52q-83 0 -111.5 -74t-33.5 -251q-79 -7 -121.5 21.5t-42.5 80.5q0 43 47 98t119.5 103.5t171.5 82t193 33.5q227 0 227 -288v-664q0 -40 15 -59t52 -19q36 0 119 25zM776 1528l6 -8l-293 -316h-4l-295 318l7 6l290 -144z
" />
    <glyph glyph-name="uni0218" unicode="&#x218;" horiz-adv-x="1126" 
d="M553 -20q-111 0 -232 30.5t-202 85.5l-41 320h20q72 -166 212.5 -286t293.5 -120q127 0 209 86t82 217q0 75 -32 131.5t-85.5 91t-120 61t-140.5 50.5t-141 50t-126.5 68.5t-93.5 98.5q-43 70 -43 176q0 181 139 297.5t354 116.5q198 0 355 -80l20 -325h-20
q-138 374 -394 374q-128 0 -216.5 -78t-88.5 -204q0 -62 27 -109.5t72.5 -78t104.5 -55t124.5 -45t130.5 -42.5t124 -54.5t104.5 -74.5t72.5 -108t27 -150q0 -193 -140.5 -318.5t-355.5 -125.5zM522 -121q59 0 95 -41.5t36 -105.5q0 -189 -256 -246l-6 18q64 16 97.5 52
t33.5 77q0 44 -32.5 78.5t-90.5 46.5q0 52 38 86.5t85 34.5z" />
    <glyph glyph-name="uni0219" unicode="&#x219;" horiz-adv-x="929" 
d="M453 -20q-95 0 -195.5 32.5t-175.5 93.5v277h20q50 -161 161.5 -262t242.5 -101q91 0 150 64t59 162q0 51 -26 91.5t-68 65.5t-96 50t-110 44t-110 47.5t-96 61t-68 85t-26 118.5q0 138 109 227.5t278 89.5q166 0 291 -73v-285h-21q-110 319 -321 319q-85 0 -140 -54.5
t-55 -139.5q0 -27 9 -51.5t21 -42.5t37 -36t43.5 -29.5t55 -27t57.5 -23.5t64 -23q9 -3 14 -5q52 -18 91 -36.5t80 -46.5t67.5 -60t43.5 -77.5t17 -100.5q0 -154 -114 -254t-289 -100zM440 -121q59 0 95 -41.5t36 -105.5q0 -189 -256 -246l-6 18q64 16 97.5 52t33.5 77
q0 44 -32.5 78.5t-90.5 46.5q0 52 38 86.5t85 34.5z" />
    <glyph glyph-name="uni021A" unicode="&#x21a;" horiz-adv-x="1361" 
d="M100 1434h1162l65 -455h-20q-72 224 -168.5 319t-229.5 95h-123v-1239q0 -32 13 -53t40 -33t52.5 -17.5t66.5 -9.5l93 -10v-31h-740v31l92 10q41 4 66.5 9.5t52.5 17.5t40 33t13 53v1239h-122q-132 0 -227 -94.5t-171 -319.5h-20zM678 -121q59 0 95 -41.5t36 -105.5
q0 -189 -256 -246l-6 18q64 16 97.5 52t33.5 77q0 44 -32.5 78.5t-90.5 46.5q0 52 38 86.5t85 34.5z" />
    <glyph glyph-name="uni021B" unicode="&#x21b;" horiz-adv-x="692" 
d="M690 123l6 -12q-46 -60 -111.5 -95.5t-140.5 -35.5q-121 0 -192.5 69t-71.5 219v797h-186v20l356 236h25v-215h287v-41h-287v-799q0 -176 153 -176q90 0 162 33zM373 -121q59 0 95 -41.5t36 -105.5q0 -189 -256 -246l-6 18q64 16 97.5 52t33.5 77q0 44 -32.5 78.5
t-90.5 46.5q0 52 38 86.5t85 34.5z" />
    <glyph glyph-name="uni0237" unicode="&#x237;" horiz-adv-x="509" 
d="M-49 -389q-68 0 -104 35.5t-30.5 92t52.5 114.5q54 -64 106 -98t91 -34q55 0 83.5 56.5t28.5 197.5v930l-151 101v4l340 116h4v-962q0 -70 -39 -166t-98 -181.5t-136.5 -145.5t-146.5 -60z" />
    <glyph glyph-name="circumflex" unicode="&#x2c6;" 
d="M614 1352l-290 -144l-7 6l295 318h4l293 -315l-6 -9z" />
    <glyph glyph-name="caron" unicode="&#x2c7;" 
d="M317 1522l7 6l290 -144l289 144l6 -8l-293 -316h-4z" />
    <glyph glyph-name="breve" unicode="&#x2d8;" 
d="M614 1233q-117 0 -193.5 85.5t-84.5 217.5h6q59 -164 272 -164q217 0 275 168h6q-6 -137 -82 -222t-199 -85z" />
    <glyph glyph-name="dotaccent" unicode="&#x2d9;" 
d="M614 1257q-51 0 -85.5 35t-34.5 86q0 53 34 87t86 34q54 0 87.5 -33.5t33.5 -87.5q0 -52 -34 -86.5t-87 -34.5z" />
    <glyph glyph-name="ring" unicode="&#x2da;" 
d="M616 1221q-82 0 -135 51.5t-53 130.5q0 82 53 134t135 52q85 0 138 -52t53 -134q0 -80 -53.5 -131t-137.5 -51zM616 1272q60 0 98 37t38 94q0 60 -38 97.5t-98 37.5q-58 0 -95.5 -38t-37.5 -97q0 -57 38 -94t95 -37z" />
    <glyph glyph-name="ogonek" unicode="&#x2db;" 
d="M434 -428q-68 0 -107.5 35t-39.5 90q0 29 17 60.5t40 57.5t72 64t86 64.5t108 74.5l4 -18q-102 -118 -137 -169.5t-35 -86.5q0 -37 22.5 -60.5t65.5 -23.5q53 0 97 33l4 -4q-31 -52 -84.5 -84.5t-112.5 -32.5z" />
    <glyph glyph-name="tilde" unicode="&#x2dc;" 
d="M739 1235q-44 0 -90 21.5t-78 48t-71.5 48t-71.5 21.5q-73 0 -111 -90l-14 2q25 97 72 157t112 60q42 0 87 -22.5t78 -49t75 -49t78 -22.5q39 0 63.5 24.5t44.5 75.5l15 -2q-21 -98 -70.5 -160.5t-118.5 -62.5z" />
    <glyph glyph-name="hungarumlaut" unicode="&#x2dd;" 
d="M469 1198h-10l127 315h227v-4zM756 1198h-11l127 315h228v-4z" />
    <glyph glyph-name="gravecomb" unicode="&#x300;" 
d="M272 1509v4h248l127 -315h-10z" />
    <glyph glyph-name="acutecomb" unicode="&#x301;" 
d="M709 1513h247v-4l-364 -311h-10z" />
    <glyph glyph-name="uni0302" unicode="&#x302;" 
d="M614 1352l-290 -144l-7 6l295 318h4l293 -315l-6 -9z" />
    <glyph glyph-name="tildecomb" unicode="&#x303;" 
d="M739 1235q-44 0 -90 21.5t-78 48t-71.5 48t-71.5 21.5q-73 0 -111 -90l-14 2q25 97 72 157t112 60q42 0 87 -22.5t78 -49t75 -49t78 -22.5q39 0 63.5 24.5t44.5 75.5l15 -2q-21 -98 -70.5 -160.5t-118.5 -62.5z" />
    <glyph glyph-name="uni0306" unicode="&#x306;" 
d="M614 1233q-117 0 -193.5 85.5t-84.5 217.5h6q59 -164 272 -164q217 0 275 168h6q-6 -137 -82 -222t-199 -85z" />
    <glyph glyph-name="hookabovecomb" unicode="&#x309;" horiz-adv-x="657" 
d="M268 1659q107 0 167.5 -50t60.5 -126q0 -64 -59.5 -121t-170.5 -88l-8 -76h-14l-23 170q100 26 146.5 75t46.5 103q0 22 -18 40t-48 18q-39 0 -94 -23.5t-104 -64.5q-17 28 -17 65t35 57.5t100 20.5z" />
    <glyph glyph-name="uni031B" unicode="&#x31b;" horiz-adv-x="636" 
d="M190 915l-4 19q162 67 162 153q0 85 -123 134q0 46 33 77t76 31q52 0 84.5 -38.5t32.5 -94.5q0 -92 -67.5 -167t-193.5 -114z" />
    <glyph glyph-name="dotbelowcomb" unicode="&#x323;" horiz-adv-x="675" 
d="M332 -399q-51 0 -86 34.5t-35 85.5q0 53 34.5 87t86.5 34q54 0 87.5 -33.5t33.5 -87.5q0 -52 -34 -86t-87 -34z" />
    <glyph glyph-name="Wgrave" unicode="&#x1e80;" horiz-adv-x="2035" 
d="M1659 1403v31h432v-31l-49 -10q-25 -5 -39 -9.5t-33.5 -15.5t-32.5 -32t-22 -52l-369 -1284h-164l-401 1214l-330 -1214h-162l-374 1284q-9 31 -19.5 52t-24 32t-22 15.5t-24.5 9.5l-31 10v31h510v-31l-66 -10q-60 -9 -84.5 -30.5t-7.5 -78.5l299 -1122l346 1272h150
l405 -1282l322 1132q17 57 -16 78.5t-109 30.5zM1020 1841l127 -315h-10l-365 311v4h248z" />
    <glyph glyph-name="wgrave" unicode="&#x1e81;" horiz-adv-x="1648" 
d="M1319 1075v31h348v-31l-39 -10q-18 -5 -28 -9.5t-26 -15.5t-27.5 -32t-20.5 -52l-295 -956h-117l-319 909l-234 -909h-121l-334 958q-10 30 -21.5 50.5t-26 31.5t-23.5 15.5t-25 9.5l-30 10v31h415v-31l-39 -10q-17 -4 -26.5 -9t-17.5 -16t-6.5 -31.5t11.5 -50.5
l244 -747l230 895h145l301 -909l233 759q17 60 -5.5 80t-82.5 29zM770 1513l127 -315h-10l-365 311v4h248z" />
    <glyph glyph-name="Wacute" unicode="&#x1e82;" horiz-adv-x="2035" 
d="M1659 1403v31h432v-31l-49 -10q-25 -5 -39 -9.5t-33.5 -15.5t-32.5 -32t-22 -52l-369 -1284h-164l-401 1214l-330 -1214h-162l-374 1284q-9 31 -19.5 52t-24 32t-22 15.5t-24.5 9.5l-31 10v31h510v-31l-66 -10q-60 -9 -84.5 -30.5t-7.5 -78.5l299 -1122l346 1272h150
l405 -1282l322 1132q17 57 -16 78.5t-109 30.5zM1409 1843v-4l-365 -311h-10l127 315h248z" />
    <glyph glyph-name="wacute" unicode="&#x1e83;" horiz-adv-x="1648" 
d="M1319 1075v31h348v-31l-39 -10q-18 -5 -28 -9.5t-26 -15.5t-27.5 -32t-20.5 -52l-295 -956h-117l-319 909l-234 -909h-121l-334 958q-10 30 -21.5 50.5t-26 31.5t-23.5 15.5t-25 9.5l-30 10v31h415v-31l-39 -10q-17 -4 -26.5 -9t-17.5 -16t-6.5 -31.5t11.5 -50.5
l244 -747l230 895h145l301 -909l233 759q17 60 -5.5 80t-82.5 29zM1206 1513v-4l-364 -311h-11l127 315h248z" />
    <glyph glyph-name="Wdieresis" unicode="&#x1e84;" horiz-adv-x="2035" 
d="M1659 1403v31h432v-31l-49 -10q-25 -5 -39 -9.5t-33.5 -15.5t-32.5 -32t-22 -52l-369 -1284h-164l-401 1214l-330 -1214h-162l-374 1284q-9 31 -19.5 52t-24 32t-22 15.5t-24.5 9.5l-31 10v31h510v-31l-66 -10q-60 -9 -84.5 -30.5t-7.5 -78.5l299 -1122l346 1272h150
l405 -1282l322 1132q17 57 -16 78.5t-109 30.5zM864 1606q-50 0 -82 32.5t-32 83.5t32 84t82 33q51 0 84 -33t33 -84t-33 -83.5t-84 -32.5zM1268 1606q-50 0 -82.5 32.5t-32.5 83.5t32.5 84t82.5 33q51 0 83.5 -33t32.5 -84t-32.5 -83.5t-83.5 -32.5z" />
    <glyph glyph-name="wdieresis" unicode="&#x1e85;" horiz-adv-x="1648" 
d="M1319 1075v31h348v-31l-39 -10q-18 -5 -28 -9.5t-26 -15.5t-27.5 -32t-20.5 -52l-295 -956h-117l-319 909l-234 -909h-121l-334 958q-10 30 -21.5 50.5t-26 31.5t-23.5 15.5t-25 9.5l-30 10v31h415v-31l-39 -10q-17 -4 -26.5 -9t-17.5 -16t-6.5 -31.5t11.5 -50.5
l244 -747l230 895h145l301 -909l233 759q17 60 -5.5 80t-82.5 29zM662 1257q-50 0 -82.5 33t-32.5 84t32.5 84t82.5 33q51 0 83.5 -33t32.5 -84t-32.5 -84t-83.5 -33zM1065 1257q-50 0 -82.5 33t-32.5 84t32.5 84t82.5 33q51 0 84 -33t33 -84t-33 -84t-84 -33z" />
    <glyph glyph-name="Germandbls" unicode="&#x1e9e;" horiz-adv-x="1474" 
d="M1090 969q0 -55 18 -103t46.5 -85t63 -71.5t69.5 -70.5t63.5 -75t46.5 -92t18 -114q0 -163 -118.5 -270.5t-299.5 -107.5q-156 0 -346 69l-20 217h20q87 -131 172 -193.5t185 -62.5q108 0 177.5 67.5t69.5 172.5q0 39 -10 73t-33.5 68t-41 54.5t-54.5 58.5t-51 53
q-104 111 -104 246q0 220 196 405q-207 207 -391 207q-159 0 -258.5 -129.5t-99.5 -335.5v-796q0 -60 28 -82t82 -31l62 -10v-31h-547v31l57 10q26 5 42 10t33 17t25.5 33t8.5 53v675q0 279 170 452t444 173q258 0 465 -149l8 -13q-76 -67 -136 -160.5t-60 -162.5z" />
    <glyph glyph-name="uni1EA0" unicode="&#x1ea0;" horiz-adv-x="1378" 
d="M858 588l-258 706l-246 -706h504zM1378 41l52 -10v-31h-547v31l61 10q63 10 79 32.5t-3 73.5l-146 400h-534l-137 -400q-17 -51 6.5 -73.5t109.5 -32.5l82 -10v-31h-430v31l49 10q62 12 89.5 33.5t44.5 72.5l442 1287h162l487 -1289q19 -50 46 -71t87 -33zM631 -379
q-51 0 -86 35t-35 86q0 53 34.5 87t86.5 34q54 0 87.5 -33.5t33.5 -87.5q0 -52 -34 -86.5t-87 -34.5z" />
    <glyph glyph-name="uni1EA1" unicode="&#x1ea1;" horiz-adv-x="1024" 
d="M387 80q76 0 145.5 48t122.5 130v184q-81 15 -131 15q-123 0 -204.5 -60.5t-81.5 -165.5q0 -70 39 -110.5t110 -40.5zM1034 121l6 -8q-22 -51 -81.5 -92t-124.5 -41q-86 0 -132.5 47.5t-46.5 132.5v45q-66 -103 -162.5 -164t-209.5 -61q-106 0 -172 57.5t-66 150.5
q0 138 147.5 218t462.5 106v307q0 109 -72 161t-184 52q-83 0 -111.5 -74t-33.5 -251q-79 -7 -121.5 21.5t-42.5 80.5q0 43 47 98t119.5 103.5t171.5 82t193 33.5q227 0 227 -288v-664q0 -40 15 -59t52 -19q36 0 119 25zM475 -379q-51 0 -86 35t-35 86q0 53 34.5 87t86.5 34
q54 0 87.5 -33.5t33.5 -87.5q0 -52 -34 -86.5t-87 -34.5z" />
    <glyph glyph-name="uni1EA2" unicode="&#x1ea2;" horiz-adv-x="1378" 
d="M858 588l-258 706l-246 -706h504zM1378 41l52 -10v-31h-547v31l61 10q63 10 79 32.5t-3 73.5l-146 400h-534l-137 -400q-17 -51 6.5 -73.5t109.5 -32.5l82 -10v-31h-430v31l49 10q62 12 89.5 33.5t44.5 72.5l442 1287h162l487 -1289q19 -50 46 -71t87 -33zM694 1989
q107 0 167.5 -50.5t60.5 -126.5q0 -64 -59 -120.5t-171 -87.5l-8 -76h-14l-23 170q100 26 146.5 75t46.5 103q0 22 -18 39.5t-48 17.5q-39 0 -94.5 -23.5t-104.5 -64.5q-16 27 -16 66q0 37 35 57.5t100 20.5z" />
    <glyph glyph-name="uni1EA3" unicode="&#x1ea3;" horiz-adv-x="1024" 
d="M387 80q76 0 145.5 48t122.5 130v184q-81 15 -131 15q-123 0 -204.5 -60.5t-81.5 -165.5q0 -70 39 -110.5t110 -40.5zM1034 121l6 -8q-22 -51 -81.5 -92t-124.5 -41q-86 0 -132.5 47.5t-46.5 132.5v45q-66 -103 -162.5 -164t-209.5 -61q-106 0 -172 57.5t-66 150.5
q0 138 147.5 218t462.5 106v307q0 109 -72 161t-184 52q-83 0 -111.5 -74t-33.5 -251q-79 -7 -121.5 21.5t-42.5 80.5q0 43 47 98t119.5 103.5t171.5 82t193 33.5q227 0 227 -288v-664q0 -40 15 -59t52 -19q36 0 119 25zM537 1659q107 0 167 -50t60 -126q0 -64 -59 -121
t-170 -88l-9 -76h-14l-23 170q100 26 146.5 75t46.5 103q0 22 -18 40t-48 18q-39 0 -94 -23.5t-104 -64.5q-17 28 -17 65t35 57.5t101 20.5z" />
    <glyph glyph-name="uni1EA4" unicode="&#x1ea4;" horiz-adv-x="1378" 
d="M858 588l-258 706l-246 -706h504zM1378 41l52 -10v-31h-547v31l61 10q63 10 79 32.5t-3 73.5l-146 400h-534l-137 -400q-17 -51 6.5 -73.5t109.5 -32.5l82 -10v-31h-430v31l49 10q62 12 89.5 33.5t44.5 72.5l442 1287h162l487 -1289q19 -50 46 -71t87 -33zM973 1544
l-6 -8l-289 143l-291 -143l-6 6l295 318h4zM907 1718l127 316h248v-4l-364 -312h-11z" />
    <glyph glyph-name="uni1EA5" unicode="&#x1ea5;" horiz-adv-x="1024" 
d="M387 80q76 0 145.5 48t122.5 130v184q-81 15 -131 15q-123 0 -204.5 -60.5t-81.5 -165.5q0 -70 39 -110.5t110 -40.5zM1034 121l6 -8q-22 -51 -81.5 -92t-124.5 -41q-86 0 -132.5 47.5t-46.5 132.5v45q-66 -103 -162.5 -164t-209.5 -61q-106 0 -172 57.5t-66 150.5
q0 138 147.5 218t462.5 106v307q0 109 -72 161t-184 52q-83 0 -111.5 -74t-33.5 -251q-79 -7 -121.5 21.5t-42.5 80.5q0 43 47 98t119.5 103.5t171.5 82t193 33.5q227 0 227 -288v-664q0 -40 15 -59t52 -19q36 0 119 25zM782 1217l-6 -9l-289 144l-290 -144l-7 6l295 318h4z
M717 1391l127 315h248v-4l-365 -311h-10z" />
    <glyph glyph-name="uni1EA6" unicode="&#x1ea6;" horiz-adv-x="1378" 
d="M858 588l-258 706l-246 -706h504zM1378 41l52 -10v-31h-547v31l61 10q63 10 79 32.5t-3 73.5l-146 400h-534l-137 -400q-17 -51 6.5 -73.5t109.5 -32.5l82 -10v-31h-430v31l49 10q62 12 89.5 33.5t44.5 72.5l442 1287h162l487 -1289q19 -50 46 -71t87 -33zM973 1544
l-6 -8l-289 143l-291 -143l-6 6l295 318h4zM666 2030v4h247l127 -316h-10z" />
    <glyph glyph-name="uni1EA7" unicode="&#x1ea7;" horiz-adv-x="1024" 
d="M387 80q76 0 145.5 48t122.5 130v184q-81 15 -131 15q-123 0 -204.5 -60.5t-81.5 -165.5q0 -70 39 -110.5t110 -40.5zM1034 121l6 -8q-22 -51 -81.5 -92t-124.5 -41q-86 0 -132.5 47.5t-46.5 132.5v45q-66 -103 -162.5 -164t-209.5 -61q-106 0 -172 57.5t-66 150.5
q0 138 147.5 218t462.5 106v307q0 109 -72 161t-184 52q-83 0 -111.5 -74t-33.5 -251q-79 -7 -121.5 21.5t-42.5 80.5q0 43 47 98t119.5 103.5t171.5 82t193 33.5q227 0 227 -288v-664q0 -40 15 -59t52 -19q36 0 119 25zM782 1217l-6 -9l-289 144l-290 -144l-7 6l295 318h4z
M475 1702v4h248l127 -315h-10z" />
    <glyph glyph-name="uni1EA8" unicode="&#x1ea8;" horiz-adv-x="1378" 
d="M858 588l-258 706l-246 -706h504zM1378 41l52 -10v-31h-547v31l61 10q63 10 79 32.5t-3 73.5l-146 400h-534l-137 -400q-17 -51 6.5 -73.5t109.5 -32.5l82 -10v-31h-430v31l49 10q62 12 89.5 33.5t44.5 72.5l442 1287h162l487 -1289q19 -50 46 -71t87 -33zM973 1544
l-6 -8l-289 143l-291 -143l-6 6l295 318h4zM963 2179q107 0 167 -50t60 -126q0 -64 -59 -121t-170 -88l-9 -76h-14l-23 170q100 26 146.5 75t46.5 103q0 22 -18 40t-48 18q-39 0 -94 -23.5t-104 -64.5q-17 28 -17 65t35 57.5t101 20.5z" />
    <glyph glyph-name="uni1EA9" unicode="&#x1ea9;" horiz-adv-x="1024" 
d="M387 80q76 0 145.5 48t122.5 130v184q-81 15 -131 15q-123 0 -204.5 -60.5t-81.5 -165.5q0 -70 39 -110.5t110 -40.5zM1034 121l6 -8q-22 -51 -81.5 -92t-124.5 -41q-86 0 -132.5 47.5t-46.5 132.5v45q-66 -103 -162.5 -164t-209.5 -61q-106 0 -172 57.5t-66 150.5
q0 138 147.5 218t462.5 106v307q0 109 -72 161t-184 52q-83 0 -111.5 -74t-33.5 -251q-79 -7 -121.5 21.5t-42.5 80.5q0 43 47 98t119.5 103.5t171.5 82t193 33.5q227 0 227 -288v-664q0 -40 15 -59t52 -19q36 0 119 25zM782 1217l-6 -9l-289 144l-290 -144l-7 6l295 318h4z
M772 1851q107 0 167 -50t60 -126q0 -64 -59 -121t-170 -88l-8 -75h-14l-23 170q100 26 146.5 75t46.5 103q0 22 -18 39.5t-48 17.5q-39 0 -94.5 -23.5t-104.5 -64.5q-16 27 -16 66q0 37 34.5 57t100.5 20z" />
    <glyph glyph-name="uni1EAA" unicode="&#x1eaa;" horiz-adv-x="1378" 
d="M858 588l-258 706l-246 -706h504zM1378 41l52 -10v-31h-547v31l61 10q63 10 79 32.5t-3 73.5l-146 400h-534l-137 -400q-17 -51 6.5 -73.5t109.5 -32.5l82 -10v-31h-430v31l49 10q62 12 89.5 33.5t44.5 72.5l442 1287h162l487 -1289q19 -50 46 -71t87 -33zM973 1544
l-6 -8l-289 143l-291 -143l-6 6l295 318h4zM829 1915q-44 0 -90 21.5t-78 48t-71.5 48t-71.5 21.5q-72 0 -110 -90l-15 2q25 97 72 157t113 60q42 0 87 -22.5t77.5 -49t74.5 -49t78 -22.5q39 0 64 24.5t45 75.5l14 -2q-21 -98 -70.5 -160.5t-118.5 -62.5z" />
    <glyph glyph-name="uni1EAB" unicode="&#x1eab;" horiz-adv-x="1024" 
d="M387 80q76 0 145.5 48t122.5 130v184q-81 15 -131 15q-123 0 -204.5 -60.5t-81.5 -165.5q0 -70 39 -110.5t110 -40.5zM1034 121l6 -8q-22 -51 -81.5 -92t-124.5 -41q-86 0 -132.5 47.5t-46.5 132.5v45q-66 -103 -162.5 -164t-209.5 -61q-106 0 -172 57.5t-66 150.5
q0 138 147.5 218t462.5 106v307q0 109 -72 161t-184 52q-83 0 -111.5 -74t-33.5 -251q-79 -7 -121.5 21.5t-42.5 80.5q0 43 47 98t119.5 103.5t171.5 82t193 33.5q227 0 227 -288v-664q0 -40 15 -59t52 -19q36 0 119 25zM782 1217l-6 -9l-289 144l-290 -144l-7 6l295 318h4z
M639 1587q-44 0 -90 21.5t-78 48t-71.5 48t-71.5 21.5q-73 0 -111 -90l-14 2q25 97 72 157t112 60q42 0 87 -22.5t78 -49t75 -49t78 -22.5q39 0 63.5 24.5t44.5 75.5l14 -2q-22 -98 -70.5 -160.5t-117.5 -62.5z" />
    <glyph glyph-name="uni1EAC" unicode="&#x1eac;" horiz-adv-x="1378" 
d="M858 588l-258 706l-246 -706h504zM1378 41l52 -10v-31h-547v31l61 10q63 10 79 32.5t-3 73.5l-146 400h-534l-137 -400q-17 -51 6.5 -73.5t109.5 -32.5l82 -10v-31h-430v31l49 10q62 12 89.5 33.5t44.5 72.5l442 1287h162l487 -1289q19 -50 46 -71t87 -33zM973 1544
l-6 -8l-289 143l-291 -143l-6 6l295 318h4zM631 -379q-51 0 -86 35t-35 86q0 53 34.5 87t86.5 34q54 0 87.5 -33.5t33.5 -87.5q0 -52 -34 -86.5t-87 -34.5z" />
    <glyph glyph-name="uni1EAD" unicode="&#x1ead;" horiz-adv-x="1024" 
d="M387 80q76 0 145.5 48t122.5 130v184q-81 15 -131 15q-123 0 -204.5 -60.5t-81.5 -165.5q0 -70 39 -110.5t110 -40.5zM1034 121l6 -8q-22 -51 -81.5 -92t-124.5 -41q-86 0 -132.5 47.5t-46.5 132.5v45q-66 -103 -162.5 -164t-209.5 -61q-106 0 -172 57.5t-66 150.5
q0 138 147.5 218t462.5 106v307q0 109 -72 161t-184 52q-83 0 -111.5 -74t-33.5 -251q-79 -7 -121.5 21.5t-42.5 80.5q0 43 47 98t119.5 103.5t171.5 82t193 33.5q227 0 227 -288v-664q0 -40 15 -59t52 -19q36 0 119 25zM782 1217l-6 -9l-289 144l-290 -144l-7 6l295 318h4z
M475 -379q-51 0 -86 35t-35 86q0 53 34.5 87t86.5 34q54 0 87.5 -33.5t33.5 -87.5q0 -52 -34 -86.5t-87 -34.5z" />
    <glyph glyph-name="uni1EAE" unicode="&#x1eae;" horiz-adv-x="1378" 
d="M858 588l-258 706l-246 -706h504zM1378 41l52 -10v-31h-547v31l61 10q63 10 79 32.5t-3 73.5l-146 400h-534l-137 -400q-17 -51 6.5 -73.5t109.5 -32.5l82 -10v-31h-430v31l49 10q62 12 89.5 33.5t44.5 72.5l442 1287h162l487 -1289q19 -50 46 -71t87 -33zM676 1540
q-117 0 -194 85.5t-85 217.5h6q59 -164 273 -164q216 0 274 168h6q-6 -137 -81.5 -222t-198.5 -85zM610 1802l127 316h248v-4l-364 -312h-11z" />
    <glyph glyph-name="uni1EAF" unicode="&#x1eaf;" horiz-adv-x="1024" 
d="M387 80q76 0 145.5 48t122.5 130v184q-81 15 -131 15q-123 0 -204.5 -60.5t-81.5 -165.5q0 -70 39 -110.5t110 -40.5zM1034 121l6 -8q-22 -51 -81.5 -92t-124.5 -41q-86 0 -132.5 47.5t-46.5 132.5v45q-66 -103 -162.5 -164t-209.5 -61q-106 0 -172 57.5t-66 150.5
q0 138 147.5 218t462.5 106v307q0 109 -72 161t-184 52q-83 0 -111.5 -74t-33.5 -251q-79 -7 -121.5 21.5t-42.5 80.5q0 43 47 98t119.5 103.5t171.5 82t193 33.5q227 0 227 -288v-664q0 -40 15 -59t52 -19q36 0 119 25zM487 1233q-117 0 -193.5 85.5t-84.5 217.5h6
q59 -164 272 -164q217 0 275 168h6q-6 -137 -82 -222t-199 -85zM422 1495l127 315h248v-4l-365 -311h-10z" />
    <glyph glyph-name="uni1EB0" unicode="&#x1eb0;" horiz-adv-x="1378" 
d="M858 588l-258 706l-246 -706h504zM1378 41l52 -10v-31h-547v31l61 10q63 10 79 32.5t-3 73.5l-146 400h-534l-137 -400q-17 -51 6.5 -73.5t109.5 -32.5l82 -10v-31h-430v31l49 10q62 12 89.5 33.5t44.5 72.5l442 1287h162l487 -1289q19 -50 46 -71t87 -33zM367 2114v4
h247l127 -316h-10zM676 1540q-117 0 -194 85.5t-85 217.5h6q59 -164 273 -164q216 0 274 168h6q-6 -137 -81.5 -222t-198.5 -85z" />
    <glyph glyph-name="uni1EB1" unicode="&#x1eb1;" horiz-adv-x="1024" 
d="M387 80q76 0 145.5 48t122.5 130v184q-81 15 -131 15q-123 0 -204.5 -60.5t-81.5 -165.5q0 -70 39 -110.5t110 -40.5zM1034 121l6 -8q-22 -51 -81.5 -92t-124.5 -41q-86 0 -132.5 47.5t-46.5 132.5v45q-66 -103 -162.5 -164t-209.5 -61q-106 0 -172 57.5t-66 150.5
q0 138 147.5 218t462.5 106v307q0 109 -72 161t-184 52q-83 0 -111.5 -74t-33.5 -251q-79 -7 -121.5 21.5t-42.5 80.5q0 43 47 98t119.5 103.5t171.5 82t193 33.5q227 0 227 -288v-664q0 -40 15 -59t52 -19q36 0 119 25zM178 1806v4h248l127 -315h-10zM487 1233
q-117 0 -193.5 85.5t-84.5 217.5h6q59 -164 272 -164q217 0 275 168h6q-6 -137 -82 -222t-199 -85z" />
    <glyph glyph-name="uni1EB2" unicode="&#x1eb2;" horiz-adv-x="1378" 
d="M858 588l-258 706l-246 -706h504zM1378 41l52 -10v-31h-547v31l61 10q63 10 79 32.5t-3 73.5l-146 400h-534l-137 -400q-17 -51 6.5 -73.5t109.5 -32.5l82 -10v-31h-430v31l49 10q62 12 89.5 33.5t44.5 72.5l442 1287h162l487 -1289q19 -50 46 -71t87 -33zM676 1540
q-117 0 -194 85.5t-85 217.5h6q59 -164 273 -164q216 0 274 168h6q-6 -137 -81.5 -222t-198.5 -85zM694 2257q107 0 167.5 -50t60.5 -126q0 -64 -59.5 -121t-170.5 -88l-8 -76h-14l-23 170q100 26 146.5 75t46.5 103q0 22 -18 40t-48 18q-39 0 -94.5 -23.5t-104.5 -64.5
q-16 27 -16 65q0 37 35 57.5t100 20.5z" />
    <glyph glyph-name="uni1EB3" unicode="&#x1eb3;" horiz-adv-x="1024" 
d="M387 80q76 0 145.5 48t122.5 130v184q-81 15 -131 15q-123 0 -204.5 -60.5t-81.5 -165.5q0 -70 39 -110.5t110 -40.5zM1034 121l6 -8q-22 -51 -81.5 -92t-124.5 -41q-86 0 -132.5 47.5t-46.5 132.5v45q-66 -103 -162.5 -164t-209.5 -61q-106 0 -172 57.5t-66 150.5
q0 138 147.5 218t462.5 106v307q0 109 -72 161t-184 52q-83 0 -111.5 -74t-33.5 -251q-79 -7 -121.5 21.5t-42.5 80.5q0 43 47 98t119.5 103.5t171.5 82t193 33.5q227 0 227 -288v-664q0 -40 15 -59t52 -19q36 0 119 25zM487 1233q-117 0 -193.5 85.5t-84.5 217.5h6
q59 -164 272 -164q217 0 275 168h6q-6 -137 -82 -222t-199 -85zM506 1950q107 0 167 -50t60 -126q0 -64 -59 -121t-170 -88l-8 -76h-15l-22 170q100 26 146 75t46 103q0 22 -17.5 39.5t-47.5 17.5q-39 0 -94.5 -23.5t-104.5 -64.5q-16 27 -16 66q0 37 35 57.5t100 20.5z" />
    <glyph glyph-name="uni1EB4" unicode="&#x1eb4;" horiz-adv-x="1378" 
d="M858 588l-258 706l-246 -706h504zM1378 41l52 -10v-31h-547v31l61 10q63 10 79 32.5t-3 73.5l-146 400h-534l-137 -400q-17 -51 6.5 -73.5t109.5 -32.5l82 -10v-31h-430v31l49 10q62 12 89.5 33.5t44.5 72.5l442 1287h162l487 -1289q19 -50 46 -71t87 -33zM676 1540
q-117 0 -194 85.5t-85 217.5h6q59 -164 273 -164q216 0 274 168h6q-6 -137 -81.5 -222t-198.5 -85zM829 1884q-44 0 -90 21.5t-78 48t-71.5 48t-71.5 21.5q-72 0 -110 -90l-15 2q25 97 72 157t113 60q42 0 87 -22.5t77.5 -49t74.5 -49t78 -22.5q39 0 64 24.5t45 75.5l14 -2
q-21 -98 -70.5 -160.5t-118.5 -62.5z" />
    <glyph glyph-name="uni1EB5" unicode="&#x1eb5;" horiz-adv-x="1024" 
d="M387 80q76 0 145.5 48t122.5 130v184q-81 15 -131 15q-123 0 -204.5 -60.5t-81.5 -165.5q0 -70 39 -110.5t110 -40.5zM1034 121l6 -8q-22 -51 -81.5 -92t-124.5 -41q-86 0 -132.5 47.5t-46.5 132.5v45q-66 -103 -162.5 -164t-209.5 -61q-106 0 -172 57.5t-66 150.5
q0 138 147.5 218t462.5 106v307q0 109 -72 161t-184 52q-83 0 -111.5 -74t-33.5 -251q-79 -7 -121.5 21.5t-42.5 80.5q0 43 47 98t119.5 103.5t171.5 82t193 33.5q227 0 227 -288v-664q0 -40 15 -59t52 -19q36 0 119 25zM487 1233q-117 0 -193.5 85.5t-84.5 217.5h6
q59 -164 272 -164q217 0 275 168h6q-6 -137 -82 -222t-199 -85zM641 1577q-44 0 -90 21.5t-78 48t-71.5 48t-71.5 21.5q-73 0 -111 -90l-14 2q25 97 72 157t112 60q42 0 87 -22.5t78 -49t75 -49t78 -22.5q39 0 63.5 24.5t44.5 75.5l14 -2q-22 -98 -70.5 -160.5t-117.5 -62.5
z" />
    <glyph glyph-name="uni1EB6" unicode="&#x1eb6;" horiz-adv-x="1378" 
d="M858 588l-258 706l-246 -706h504zM1378 41l52 -10v-31h-547v31l61 10q63 10 79 32.5t-3 73.5l-146 400h-534l-137 -400q-17 -51 6.5 -73.5t109.5 -32.5l82 -10v-31h-430v31l49 10q62 12 89.5 33.5t44.5 72.5l442 1287h162l487 -1289q19 -50 46 -71t87 -33zM676 1540
q-117 0 -194 85.5t-85 217.5h6q59 -164 273 -164q216 0 274 168h6q-6 -137 -81.5 -222t-198.5 -85zM631 -379q-51 0 -86 35t-35 86q0 53 34.5 87t86.5 34q54 0 87.5 -33.5t33.5 -87.5q0 -52 -34 -86.5t-87 -34.5z" />
    <glyph glyph-name="uni1EB7" unicode="&#x1eb7;" horiz-adv-x="1024" 
d="M387 80q76 0 145.5 48t122.5 130v184q-81 15 -131 15q-123 0 -204.5 -60.5t-81.5 -165.5q0 -70 39 -110.5t110 -40.5zM1034 121l6 -8q-22 -51 -81.5 -92t-124.5 -41q-86 0 -132.5 47.5t-46.5 132.5v45q-66 -103 -162.5 -164t-209.5 -61q-106 0 -172 57.5t-66 150.5
q0 138 147.5 218t462.5 106v307q0 109 -72 161t-184 52q-83 0 -111.5 -74t-33.5 -251q-79 -7 -121.5 21.5t-42.5 80.5q0 43 47 98t119.5 103.5t171.5 82t193 33.5q227 0 227 -288v-664q0 -40 15 -59t52 -19q36 0 119 25zM487 1233q-117 0 -193.5 85.5t-84.5 217.5h6
q59 -164 272 -164q217 0 275 168h6q-6 -137 -82 -222t-199 -85zM475 -379q-51 0 -86 35t-35 86q0 53 34.5 87t86.5 34q54 0 87.5 -33.5t33.5 -87.5q0 -52 -34 -86.5t-87 -34.5z" />
    <glyph glyph-name="uni1EB8" unicode="&#x1eb8;" horiz-adv-x="1267" 
d="M713 -379q-51 0 -86 35t-35 86q0 53 34.5 87t86.5 34q54 0 87.5 -33.5t33.5 -87.5q0 -52 -34 -86.5t-87 -34.5zM1188 461h22l-65 -461h-1094v31l66 10q29 4 47.5 9.5t38 17.5t28.5 33t9 53v1126q0 32 -9 53t-28.5 33t-38 17.5t-47.5 9.5l-66 10v31h1016l66 -441l-21 -6
q-120 406 -397 406h-266v-637h198q56 0 85.5 18t49.5 70t37 160h21v-537h-21q-13 110 -31.5 162t-49 69t-91.5 17h-198v-674h301q88 0 152.5 19t119.5 66t95.5 129.5t70.5 205.5z" />
    <glyph glyph-name="uni1EB9" unicode="&#x1eb9;" horiz-adv-x="1028" 
d="M561 1096q-114 0 -183.5 -94t-90.5 -250h499q-5 168 -61 256t-164 88zM965 258l12 -8q-56 -125 -165.5 -197.5t-244.5 -72.5q-216 0 -356.5 154t-140.5 405q0 111 34.5 215.5t96.5 187.5t159.5 133.5t214.5 50.5q98 0 173.5 -33t121 -90.5t68.5 -131t23 -160.5h-678
q-4 -62 -4 -93q0 -252 107 -387t280 -135q85 0 166.5 44t132.5 118zM557 -399q-51 0 -86 34.5t-35 85.5q0 53 34.5 87t86.5 34q54 0 87.5 -33.5t33.5 -87.5q0 -52 -34 -86t-87 -34z" />
    <glyph glyph-name="uni1EBA" unicode="&#x1eba;" horiz-adv-x="1267" 
d="M694 1989q107 0 167.5 -50.5t60.5 -126.5q0 -64 -59 -120.5t-171 -87.5l-8 -76h-14l-23 170q100 26 146.5 75t46.5 103q0 22 -18 39.5t-48 17.5q-39 0 -94.5 -23.5t-104.5 -64.5q-16 27 -16 66q0 37 35 57.5t100 20.5zM1188 461h22l-65 -461h-1094v31l66 10
q29 4 47.5 9.5t38 17.5t28.5 33t9 53v1126q0 32 -9 53t-28.5 33t-38 17.5t-47.5 9.5l-66 10v31h1016l66 -441l-21 -6q-120 406 -397 406h-266v-637h198q56 0 85.5 18t49.5 70t37 160h21v-537h-21q-13 110 -31.5 162t-49 69t-91.5 17h-198v-674h301q88 0 152.5 19t119.5 66
t95.5 129.5t70.5 205.5z" />
    <glyph glyph-name="uni1EBB" unicode="&#x1ebb;" horiz-adv-x="1028" 
d="M561 1096q-114 0 -183.5 -94t-90.5 -250h499q-5 168 -61 256t-164 88zM965 258l12 -8q-56 -125 -165.5 -197.5t-244.5 -72.5q-216 0 -356.5 154t-140.5 405q0 111 34.5 215.5t96.5 187.5t159.5 133.5t214.5 50.5q98 0 173.5 -33t121 -90.5t68.5 -131t23 -160.5h-678
q-4 -62 -4 -93q0 -252 107 -387t280 -135q85 0 166.5 44t132.5 118zM598 1659q107 0 167 -50t60 -126q0 -64 -59 -121t-170 -88l-8 -76h-15l-22 170q100 26 146 75t46 103q0 22 -17.5 40t-47.5 18q-39 0 -94.5 -23.5t-104.5 -64.5q-16 27 -16 65q0 37 35 57.5t100 20.5z" />
    <glyph glyph-name="uni1EBC" unicode="&#x1ebc;" horiz-adv-x="1267" 
d="M1188 461h22l-65 -461h-1094v31l66 10q29 4 47.5 9.5t38 17.5t28.5 33t9 53v1126q0 32 -9 53t-28.5 33t-38 17.5t-47.5 9.5l-66 10v31h1016l66 -441l-21 -6q-120 406 -397 406h-266v-637h198q56 0 85.5 18t49.5 70t37 160h21v-537h-21q-13 110 -31.5 162t-49 69t-91.5 17
h-198v-674h301q88 0 152.5 19t119.5 66t95.5 129.5t70.5 205.5zM799 1563q-44 0 -90 21.5t-78.5 48t-72 48t-71.5 21.5q-72 0 -110 -90l-15 2q25 97 72 157t113 60q42 0 87 -22.5t77.5 -49t74.5 -49t78 -22.5q39 0 64 24.5t45 75.5l14 -2q-22 -98 -70.5 -160.5t-117.5 -62.5
z" />
    <glyph glyph-name="uni1EBD" unicode="&#x1ebd;" horiz-adv-x="1028" 
d="M561 1096q-114 0 -183.5 -94t-90.5 -250h499q-5 168 -61 256t-164 88zM965 258l12 -8q-56 -125 -165.5 -197.5t-244.5 -72.5q-216 0 -356.5 154t-140.5 405q0 111 34.5 215.5t96.5 187.5t159.5 133.5t214.5 50.5q98 0 173.5 -33t121 -90.5t68.5 -131t23 -160.5h-678
q-4 -62 -4 -93q0 -252 107 -387t280 -135q85 0 166.5 44t132.5 118zM700 1235q-44 0 -90 21.5t-78 48t-71.5 48t-71.5 21.5q-72 0 -110 -90l-15 2q25 97 72 157t113 60q42 0 87 -22.5t77.5 -49t74.5 -49t78 -22.5q39 0 63.5 24.5t44.5 75.5l15 -2q-21 -98 -70.5 -160.5
t-118.5 -62.5z" />
    <glyph glyph-name="uni1EBE" unicode="&#x1ebe;" horiz-adv-x="1267" 
d="M995 2034h248v-4l-364 -312h-11zM1188 461h22l-65 -461h-1094v31l66 10q29 4 47.5 9.5t38 17.5t28.5 33t9 53v1126q0 32 -9 53t-28.5 33t-38 17.5t-47.5 9.5l-66 10v31h1016l66 -441l-21 -6q-120 406 -397 406h-266v-637h198q56 0 85.5 18t49.5 70t37 160h21v-537h-21
q-13 110 -31.5 162t-49 69t-91.5 17h-198v-674h301q88 0 152.5 19t119.5 66t95.5 129.5t70.5 205.5zM928 1536l-289 143l-291 -143l-6 6l295 318h4l293 -316z" />
    <glyph glyph-name="uni1EBF" unicode="&#x1ebf;" horiz-adv-x="1028" 
d="M561 1096q-114 0 -183.5 -94t-90.5 -250h499q-5 168 -61 256t-164 88zM965 258l12 -8q-56 -125 -165.5 -197.5t-244.5 -72.5q-216 0 -356.5 154t-140.5 405q0 111 34.5 215.5t96.5 187.5t159.5 133.5t214.5 50.5q98 0 173.5 -33t121 -90.5t68.5 -131t23 -160.5h-678
q-4 -62 -4 -93q0 -252 107 -387t280 -135q85 0 166.5 44t132.5 118zM858 1217l-6 -9l-289 144l-291 -144l-6 6l295 318h4zM793 1391l127 315h247v-4l-364 -311h-10z" />
    <glyph glyph-name="uni1EC0" unicode="&#x1ec0;" horiz-adv-x="1267" 
d="M627 2034h247l127 -316h-10l-364 312v4zM1188 461h22l-65 -461h-1094v31l66 10q29 4 47.5 9.5t38 17.5t28.5 33t9 53v1126q0 32 -9 53t-28.5 33t-38 17.5t-47.5 9.5l-66 10v31h1016l66 -441l-21 -6q-120 406 -397 406h-266v-637h198q56 0 85.5 18t49.5 70t37 160h21v-537
h-21q-13 110 -31.5 162t-49 69t-91.5 17h-198v-674h301q88 0 152.5 19t119.5 66t95.5 129.5t70.5 205.5zM928 1536l-289 143l-291 -143l-6 6l295 318h4l293 -316z" />
    <glyph glyph-name="uni1EC1" unicode="&#x1ec1;" horiz-adv-x="1028" 
d="M561 1096q-114 0 -183.5 -94t-90.5 -250h499q-5 168 -61 256t-164 88zM965 258l12 -8q-56 -125 -165.5 -197.5t-244.5 -72.5q-216 0 -356.5 154t-140.5 405q0 111 34.5 215.5t96.5 187.5t159.5 133.5t214.5 50.5q98 0 173.5 -33t121 -90.5t68.5 -131t23 -160.5h-678
q-4 -62 -4 -93q0 -252 107 -387t280 -135q85 0 166.5 44t132.5 118zM858 1217l-6 -9l-289 144l-291 -144l-6 6l295 318h4zM551 1702v4h248l127 -315h-11z" />
    <glyph glyph-name="uni1EC2" unicode="&#x1ec2;" horiz-adv-x="1267" 
d="M924 2179q107 0 167 -50t60 -126q0 -64 -59 -121t-170 -88l-9 -76h-14l-22 170q100 26 146 75t46 103q0 22 -17.5 40t-47.5 18q-39 0 -94.5 -23.5t-104.5 -64.5q-17 28 -17 65t35 57.5t101 20.5zM1188 461h22l-65 -461h-1094v31l66 10q29 4 47.5 9.5t38 17.5t28.5 33
t9 53v1126q0 32 -9 53t-28.5 33t-38 17.5t-47.5 9.5l-66 10v31h1016l66 -441l-21 -6q-120 406 -397 406h-266v-637h198q56 0 85.5 18t49.5 70t37 160h21v-537h-21q-13 110 -31.5 162t-49 69t-91.5 17h-198v-674h301q88 0 152.5 19t119.5 66t95.5 129.5t70.5 205.5zM928 1536
l-289 143l-291 -143l-6 6l295 318h4l293 -316z" />
    <glyph glyph-name="uni1EC3" unicode="&#x1ec3;" horiz-adv-x="1028" 
d="M561 1096q-114 0 -183.5 -94t-90.5 -250h499q-5 168 -61 256t-164 88zM965 258l12 -8q-56 -125 -165.5 -197.5t-244.5 -72.5q-216 0 -356.5 154t-140.5 405q0 111 34.5 215.5t96.5 187.5t159.5 133.5t214.5 50.5q98 0 173.5 -33t121 -90.5t68.5 -131t23 -160.5h-678
q-4 -62 -4 -93q0 -252 107 -387t280 -135q85 0 166.5 44t132.5 118zM858 1217l-6 -9l-289 144l-291 -144l-6 6l295 318h4zM848 1851q107 0 167 -50t60 -126q0 -64 -59 -121t-170 -88l-8 -75h-15l-22 170q100 26 146 75t46 103q0 22 -17.5 39.5t-47.5 17.5q-39 0 -94.5 -23.5
t-104.5 -64.5q-16 27 -16 66q0 37 34.5 57t100.5 20z" />
    <glyph glyph-name="uni1EC4" unicode="&#x1ec4;" horiz-adv-x="1267" 
d="M791 1915q-44 0 -90 21.5t-78.5 48t-72 48t-71.5 21.5q-72 0 -110 -90l-15 2q25 97 72 157t113 60q42 0 87 -22.5t77.5 -49t74.5 -49t78 -22.5q39 0 64 24.5t45 75.5l14 -2q-22 -98 -70.5 -160.5t-117.5 -62.5zM1188 461h22l-65 -461h-1094v31l66 10q29 4 47.5 9.5
t38 17.5t28.5 33t9 53v1126q0 32 -9 53t-28.5 33t-38 17.5t-47.5 9.5l-66 10v31h1016l66 -441l-21 -6q-120 406 -397 406h-266v-637h198q56 0 85.5 18t49.5 70t37 160h21v-537h-21q-13 110 -31.5 162t-49 69t-91.5 17h-198v-674h301q88 0 152.5 19t119.5 66t95.5 129.5
t70.5 205.5zM928 1536l-289 143l-291 -143l-6 6l295 318h4l293 -316z" />
    <glyph glyph-name="uni1EC5" unicode="&#x1ec5;" horiz-adv-x="1028" 
d="M561 1096q-114 0 -183.5 -94t-90.5 -250h499q-5 168 -61 256t-164 88zM965 258l12 -8q-56 -125 -165.5 -197.5t-244.5 -72.5q-216 0 -356.5 154t-140.5 405q0 111 34.5 215.5t96.5 187.5t159.5 133.5t214.5 50.5q98 0 173.5 -33t121 -90.5t68.5 -131t23 -160.5h-678
q-4 -62 -4 -93q0 -252 107 -387t280 -135q85 0 166.5 44t132.5 118zM858 1217l-6 -9l-289 144l-291 -144l-6 6l295 318h4zM715 1587q-44 0 -90 21.5t-78.5 48t-72 48t-71.5 21.5q-72 0 -110 -90l-14 2q25 97 72 157t112 60q42 0 87 -22.5t77.5 -49t74.5 -49t78 -22.5
q39 0 64 24.5t45 75.5l14 -2q-22 -98 -70.5 -160.5t-117.5 -62.5z" />
    <glyph glyph-name="uni1EC6" unicode="&#x1ec6;" horiz-adv-x="1267" 
d="M713 -379q-51 0 -86 35t-35 86q0 53 34.5 87t86.5 34q54 0 87.5 -33.5t33.5 -87.5q0 -52 -34 -86.5t-87 -34.5zM1188 461h22l-65 -461h-1094v31l66 10q29 4 47.5 9.5t38 17.5t28.5 33t9 53v1126q0 32 -9 53t-28.5 33t-38 17.5t-47.5 9.5l-66 10v31h1016l66 -441l-21 -6
q-120 406 -397 406h-266v-637h198q56 0 85.5 18t49.5 70t37 160h21v-537h-21q-13 110 -31.5 162t-49 69t-91.5 17h-198v-674h301q88 0 152.5 19t119.5 66t95.5 129.5t70.5 205.5zM928 1536l-289 143l-291 -143l-6 6l295 318h4l293 -316z" />
    <glyph glyph-name="uni1EC7" unicode="&#x1ec7;" horiz-adv-x="1028" 
d="M561 1096q-114 0 -183.5 -94t-90.5 -250h499q-5 168 -61 256t-164 88zM965 258l12 -8q-56 -125 -165.5 -197.5t-244.5 -72.5q-216 0 -356.5 154t-140.5 405q0 111 34.5 215.5t96.5 187.5t159.5 133.5t214.5 50.5q98 0 173.5 -33t121 -90.5t68.5 -131t23 -160.5h-678
q-4 -62 -4 -93q0 -252 107 -387t280 -135q85 0 166.5 44t132.5 118zM858 1217l-6 -9l-289 144l-291 -144l-6 6l295 318h4zM557 -399q-51 0 -86 34.5t-35 85.5q0 53 34.5 87t86.5 34q54 0 87.5 -33.5t33.5 -87.5q0 -52 -34 -86t-87 -34z" />
    <glyph glyph-name="uni1EC8" unicode="&#x1ec8;" horiz-adv-x="688" 
d="M360 1989q107 0 167.5 -50.5t60.5 -126.5q0 -64 -59 -120.5t-171 -87.5l-8 -76h-14l-23 170q100 26 146.5 75t46.5 103q0 22 -18 39.5t-48 17.5q-39 0 -94 -23.5t-104 -64.5q-17 28 -17 66q0 37 35 57.5t100 20.5zM637 0h-586v31l66 10q29 4 47.5 9.5t38 17.5t28.5 33
t9 53v1126q0 32 -9 53t-28.5 33t-38 17.5t-47.5 9.5l-66 10v31h586v-31l-66 -10q-29 -4 -47.5 -9.5t-37.5 -17.5t-28 -33t-9 -53v-1126q0 -32 9 -53t28 -33t37.5 -17.5t47.5 -9.5l66 -10v-31z" />
    <glyph glyph-name="uni1EC9" unicode="&#x1ec9;" horiz-adv-x="565" 
d="M311 1659q107 0 167.5 -50t60.5 -126q0 -64 -59.5 -121t-170.5 -88l-8 -76h-14l-23 170q100 26 146.5 75t46.5 103q0 22 -18 40t-48 18q-39 0 -94 -23.5t-104 -64.5q-17 28 -17 65t35 57.5t100 20.5zM537 0h-496v31l53 10q50 9 74.5 31t24.5 82v751l-152 101v4l340 116h4
v-972q0 -59 25 -81.5t73 -31.5l54 -10v-31z" />
    <glyph glyph-name="uni1ECA" unicode="&#x1eca;" horiz-adv-x="688" 
d="M344 -379q-51 0 -86 35t-35 86q0 53 34.5 87t86.5 34q54 0 87.5 -33.5t33.5 -87.5q0 -52 -34 -86.5t-87 -34.5zM637 0h-586v31l66 10q29 4 47.5 9.5t38 17.5t28.5 33t9 53v1126q0 32 -9 53t-28.5 33t-38 17.5t-47.5 9.5l-66 10v31h586v-31l-66 -10q-29 -4 -47.5 -9.5
t-37.5 -17.5t-28 -33t-9 -53v-1126q0 -32 9 -53t28 -33t37.5 -17.5t47.5 -9.5l66 -10v-31z" />
    <glyph glyph-name="uni1ECB" unicode="&#x1ecb;" horiz-adv-x="565" 
d="M289 -379q-51 0 -86 35t-35 86q0 53 34.5 87t86.5 34q54 0 87.5 -33.5t33.5 -87.5q0 -52 -34 -86.5t-87 -34.5zM537 0h-496v31l53 10q50 9 74.5 31t24.5 82v751l-152 101v4l340 116h4v-972q0 -59 25 -81.5t73 -31.5l54 -10v-31zM289 1257q-51 0 -86 35t-35 86
q0 53 34.5 87t86.5 34q54 0 87.5 -33.5t33.5 -87.5q0 -52 -34 -86.5t-87 -34.5z" />
    <glyph glyph-name="uni1ECC" unicode="&#x1ecc;" horiz-adv-x="1495" 
d="M748 10q205 0 323.5 183.5t118.5 523.5t-118.5 523t-323.5 183q-203 0 -323 -183.5t-120 -522.5t120 -523t323 -184zM748 1454q152 0 279.5 -58.5t212 -159t131 -234.5t46.5 -285q0 -148 -45.5 -281t-129 -234.5t-211.5 -161.5t-283 -60q-151 0 -278.5 59t-212.5 159.5
t-132 234.5t-47 284q0 147 46 280t130 235t212 162t282 60zM748 -399q-51 0 -86 34.5t-35 85.5q0 53 34.5 87t86.5 34q54 0 87 -33.5t33 -87.5q0 -52 -33.5 -86t-86.5 -34z" />
    <glyph glyph-name="uni1ECD" unicode="&#x1ecd;" horiz-adv-x="1157" 
d="M578 -399q-51 0 -86 34.5t-35 85.5q0 53 34.5 87t86.5 34q54 0 87 -33.5t33 -87.5q0 -52 -33.5 -86t-86.5 -34zM578 1126q221 0 365 -161t144 -410t-144 -412t-365 -163t-364.5 163t-143.5 412t143.5 410t364.5 161zM578 10q139 0 215.5 145t76.5 400q0 254 -76.5 397.5
t-215.5 143.5q-136 0 -213.5 -144.5t-77.5 -396.5q0 -254 77.5 -399.5t213.5 -145.5z" />
    <glyph glyph-name="uni1ECE" unicode="&#x1ece;" horiz-adv-x="1495" 
d="M748 10q205 0 323.5 183.5t118.5 523.5t-118.5 523t-323.5 183q-203 0 -323 -183.5t-120 -522.5t120 -523t323 -184zM748 1454q152 0 279.5 -58.5t212 -159t131 -234.5t46.5 -285q0 -148 -45.5 -281t-129 -234.5t-211.5 -161.5t-283 -60q-151 0 -278.5 59t-212.5 159.5
t-132 234.5t-47 284q0 147 46 280t130 235t212 162t282 60zM766 1989q107 0 167 -50t60 -127q0 -64 -59 -120.5t-170 -87.5l-8 -76h-15l-22 170q100 26 146 75t46 103q0 22 -17.5 39.5t-47.5 17.5q-39 0 -94.5 -23.5t-104.5 -64.5q-16 27 -16 66q0 37 35 57.5t100 20.5z" />
    <glyph glyph-name="uni1ECF" unicode="&#x1ecf;" horiz-adv-x="1157" 
d="M578 10q139 0 215.5 145t76.5 400q0 254 -76.5 397.5t-215.5 143.5q-136 0 -213.5 -144.5t-77.5 -396.5q0 -254 77.5 -399.5t213.5 -145.5zM578 1126q221 0 365 -161t144 -410t-144 -412t-365 -163t-364.5 163t-143.5 412t143.5 410t364.5 161zM596 1659q107 0 167 -50
t60 -126q0 -64 -59 -121t-170 -88l-8 -76h-15l-22 170q100 26 146 75t46 103q0 22 -17.5 40t-47.5 18q-39 0 -94.5 -23.5t-104.5 -64.5q-16 27 -16 65q0 37 35 57.5t100 20.5z" />
    <glyph glyph-name="uni1ED0" unicode="&#x1ed0;" horiz-adv-x="1495" 
d="M748 10q205 0 323.5 183.5t118.5 523.5t-118.5 523t-323.5 183q-203 0 -323 -183.5t-120 -522.5t120 -523t323 -184zM748 1454q152 0 279.5 -58.5t212 -159t131 -234.5t46.5 -285q0 -148 -45.5 -281t-129 -234.5t-211.5 -161.5t-283 -60q-151 0 -278.5 59t-212.5 159.5
t-132 234.5t-47 284q0 147 46 280t130 235t212 162t282 60zM1036 1536l-288 143l-291 -143l-6 6l294 318h5l292 -316zM977 1718l127 316h248v-4l-365 -312h-10z" />
    <glyph glyph-name="uni1ED1" unicode="&#x1ed1;" horiz-adv-x="1157" 
d="M578 10q139 0 215.5 145t76.5 400q0 254 -76.5 397.5t-215.5 143.5q-136 0 -213.5 -144.5t-77.5 -396.5q0 -254 77.5 -399.5t213.5 -145.5zM578 1126q221 0 365 -161t144 -410t-144 -412t-365 -163t-364.5 163t-143.5 412t143.5 410t364.5 161zM868 1208l-288 144
l-291 -144l-6 6l295 318h4l292 -315zM809 1391l127 315h248v-4l-365 -311h-10z" />
    <glyph glyph-name="uni1ED2" unicode="&#x1ed2;" horiz-adv-x="1495" 
d="M748 10q205 0 323.5 183.5t118.5 523.5t-118.5 523t-323.5 183q-203 0 -323 -183.5t-120 -522.5t120 -523t323 -184zM748 1454q152 0 279.5 -58.5t212 -159t131 -234.5t46.5 -285q0 -148 -45.5 -281t-129 -234.5t-211.5 -161.5t-283 -60q-151 0 -278.5 59t-212.5 159.5
t-132 234.5t-47 284q0 147 46 280t130 235t212 162t282 60zM1036 1536l-288 143l-291 -143l-6 6l294 318h5l292 -316zM735 2030v4h248l127 -316h-10z" />
    <glyph glyph-name="uni1ED3" unicode="&#x1ed3;" horiz-adv-x="1157" 
d="M578 10q139 0 215.5 145t76.5 400q0 254 -76.5 397.5t-215.5 143.5q-136 0 -213.5 -144.5t-77.5 -396.5q0 -254 77.5 -399.5t213.5 -145.5zM578 1126q221 0 365 -161t144 -410t-144 -412t-365 -163t-364.5 163t-143.5 412t143.5 410t364.5 161zM868 1208l-288 144
l-291 -144l-6 6l295 318h4l292 -315zM567 1702v4h248l127 -315h-10z" />
    <glyph glyph-name="uni1ED4" unicode="&#x1ed4;" horiz-adv-x="1495" 
d="M748 10q205 0 323.5 183.5t118.5 523.5t-118.5 523t-323.5 183q-203 0 -323 -183.5t-120 -522.5t120 -523t323 -184zM748 1454q152 0 279.5 -58.5t212 -159t131 -234.5t46.5 -285q0 -148 -45.5 -281t-129 -234.5t-211.5 -161.5t-283 -60q-151 0 -278.5 59t-212.5 159.5
t-132 234.5t-47 284q0 147 46 280t130 235t212 162t282 60zM1036 1536l-288 143l-291 -143l-6 6l294 318h5l292 -316zM1032 2179q107 0 167.5 -50t60.5 -126q0 -64 -59.5 -121t-170.5 -88l-8 -76h-14l-23 170q100 26 146.5 75t46.5 103q0 22 -18 40t-48 18
q-39 0 -94.5 -23.5t-104.5 -64.5q-16 27 -16 65q0 37 35 57.5t100 20.5z" />
    <glyph glyph-name="uni1ED5" unicode="&#x1ed5;" horiz-adv-x="1157" 
d="M578 10q139 0 215.5 145t76.5 400q0 254 -76.5 397.5t-215.5 143.5q-136 0 -213.5 -144.5t-77.5 -396.5q0 -254 77.5 -399.5t213.5 -145.5zM578 1126q221 0 365 -161t144 -410t-144 -412t-365 -163t-364.5 163t-143.5 412t143.5 410t364.5 161zM868 1208l-288 144
l-291 -144l-6 6l295 318h4l292 -315zM864 1851q107 0 167.5 -50t60.5 -126q0 -64 -59.5 -121t-170.5 -88l-8 -75h-14l-23 170q100 26 146.5 75t46.5 103q0 22 -18 39.5t-48 17.5q-39 0 -94.5 -23.5t-104.5 -64.5q-16 27 -16 66q0 37 34.5 57t100.5 20z" />
    <glyph glyph-name="uni1ED6" unicode="&#x1ed6;" horiz-adv-x="1495" 
d="M748 10q205 0 323.5 183.5t118.5 523.5t-118.5 523t-323.5 183q-203 0 -323 -183.5t-120 -522.5t120 -523t323 -184zM748 1454q152 0 279.5 -58.5t212 -159t131 -234.5t46.5 -285q0 -148 -45.5 -281t-129 -234.5t-211.5 -161.5t-283 -60q-151 0 -278.5 59t-212.5 159.5
t-132 234.5t-47 284q0 147 46 280t130 235t212 162t282 60zM1036 1536l-288 143l-291 -143l-6 6l294 318h5l292 -316zM899 1915q-44 0 -90 21.5t-78 48t-71.5 48t-71.5 21.5q-73 0 -111 -90l-14 2q25 97 72 157t112 60q42 0 87 -22.5t78 -49t75 -49t78 -22.5q39 0 63.5 24.5
t44.5 75.5l14 -2q-22 -98 -70.5 -160.5t-117.5 -62.5z" />
    <glyph glyph-name="uni1ED7" unicode="&#x1ed7;" horiz-adv-x="1157" 
d="M578 10q139 0 215.5 145t76.5 400q0 254 -76.5 397.5t-215.5 143.5q-136 0 -213.5 -144.5t-77.5 -396.5q0 -254 77.5 -399.5t213.5 -145.5zM578 1126q221 0 365 -161t144 -410t-144 -412t-365 -163t-364.5 163t-143.5 412t143.5 410t364.5 161zM868 1208l-288 144
l-291 -144l-6 6l295 318h4l292 -315zM731 1587q-44 0 -90 21.5t-78 48t-71.5 48t-71.5 21.5q-73 0 -111 -90l-14 2q25 97 72 157t112 60q42 0 87 -22.5t78 -49t75 -49t78 -22.5q39 0 63.5 24.5t44.5 75.5l15 -2q-21 -98 -70.5 -160.5t-118.5 -62.5z" />
    <glyph glyph-name="uni1ED8" unicode="&#x1ed8;" horiz-adv-x="1495" 
d="M748 10q205 0 323.5 183.5t118.5 523.5t-118.5 523t-323.5 183q-203 0 -323 -183.5t-120 -522.5t120 -523t323 -184zM748 1454q152 0 279.5 -58.5t212 -159t131 -234.5t46.5 -285q0 -148 -45.5 -281t-129 -234.5t-211.5 -161.5t-283 -60q-151 0 -278.5 59t-212.5 159.5
t-132 234.5t-47 284q0 147 46 280t130 235t212 162t282 60zM1036 1536l-288 143l-291 -143l-6 6l294 318h5l292 -316zM748 -399q-51 0 -86 34.5t-35 85.5q0 53 34.5 87t86.5 34q54 0 87 -33.5t33 -87.5q0 -52 -33.5 -86t-86.5 -34z" />
    <glyph glyph-name="uni1ED9" unicode="&#x1ed9;" horiz-adv-x="1157" 
d="M578 10q139 0 215.5 145t76.5 400q0 254 -76.5 397.5t-215.5 143.5q-136 0 -213.5 -144.5t-77.5 -396.5q0 -254 77.5 -399.5t213.5 -145.5zM578 1126q221 0 365 -161t144 -410t-144 -412t-365 -163t-364.5 163t-143.5 412t143.5 410t364.5 161zM868 1208l-288 144
l-291 -144l-6 6l295 318h4l292 -315zM578 -399q-51 0 -86 34.5t-35 85.5q0 53 34.5 87t86.5 34q54 0 87 -33.5t33 -87.5q0 -52 -33.5 -86t-86.5 -34z" />
    <glyph glyph-name="uni1EDA" unicode="&#x1eda;" horiz-adv-x="1495" 
d="M748 10q205 0 323.5 183.5t118.5 523.5t-118.5 523t-323.5 183q-203 0 -323 -183.5t-120 -522.5t120 -523t323 -184zM748 1454q274 0 466 -192q99 59 99 124q0 84 -123 134q0 46 32.5 77t75.5 31q52 0 84.5 -38.5t32.5 -94.5q0 -77 -47 -143t-137 -109q186 -205 186 -526
q0 -148 -45.5 -281t-129 -234.5t-211.5 -161.5t-283 -60q-151 0 -278.5 59t-212.5 159.5t-132 234.5t-47 284q0 147 46 280t130 235t212 162t282 60zM694 1528l127 315h248v-4l-364 -311h-11z" />
    <glyph glyph-name="uni1EDB" unicode="&#x1edb;" horiz-adv-x="1157" 
d="M578 10q139 0 215.5 145t76.5 400q0 254 -76.5 397.5t-215.5 143.5q-136 0 -213.5 -144.5t-77.5 -396.5q0 -254 77.5 -399.5t213.5 -145.5zM578 1126q222 0 364 -161q96 57 96 122q0 85 -123 134q0 46 33 77t76 31q52 0 84.5 -38.5t32.5 -94.5q0 -77 -47 -142.5
t-136 -107.5q129 -161 129 -391q0 -249 -144 -412t-365 -163t-364.5 163t-143.5 412t143.5 410t364.5 161zM506 1198l127 315h248v-4l-365 -311h-10z" />
    <glyph glyph-name="uni1EDC" unicode="&#x1edc;" horiz-adv-x="1495" 
d="M748 10q205 0 323.5 183.5t118.5 523.5t-118.5 523t-323.5 183q-203 0 -323 -183.5t-120 -522.5t120 -523t323 -184zM748 1454q274 0 466 -192q99 59 99 124q0 84 -123 134q0 46 32.5 77t75.5 31q52 0 84.5 -38.5t32.5 -94.5q0 -77 -47 -143t-137 -109q186 -205 186 -526
q0 -148 -45.5 -281t-129 -234.5t-211.5 -161.5t-283 -60q-151 0 -278.5 59t-212.5 159.5t-132 234.5t-47 284q0 147 46 280t130 235t212 162t282 60zM817 1526l-364 311v4h247l127 -315h-10z" />
    <glyph glyph-name="uni1EDD" unicode="&#x1edd;" horiz-adv-x="1157" 
d="M578 10q139 0 215.5 145t76.5 400q0 254 -76.5 397.5t-215.5 143.5q-136 0 -213.5 -144.5t-77.5 -396.5q0 -254 77.5 -399.5t213.5 -145.5zM578 1126q222 0 364 -161q96 57 96 122q0 85 -123 134q0 46 33 77t76 31q52 0 84.5 -38.5t32.5 -94.5q0 -77 -47 -142.5
t-136 -107.5q129 -161 129 -391q0 -249 -144 -412t-365 -163t-364.5 163t-143.5 412t143.5 410t364.5 161zM643 1198l-364 311v4h247l127 -315h-10z" />
    <glyph glyph-name="uni1EDE" unicode="&#x1ede;" horiz-adv-x="1495" 
d="M748 10q205 0 323.5 183.5t118.5 523.5t-118.5 523t-323.5 183q-203 0 -323 -183.5t-120 -522.5t120 -523t323 -184zM748 1454q274 0 466 -192q99 59 99 124q0 84 -123 134q0 46 32.5 77t75.5 31q52 0 84.5 -38.5t32.5 -94.5q0 -77 -47 -143t-137 -109q186 -205 186 -526
q0 -148 -45.5 -281t-129 -234.5t-211.5 -161.5t-283 -60q-151 0 -278.5 59t-212.5 159.5t-132 234.5t-47 284q0 147 46 280t130 235t212 162t282 60zM766 1989q107 0 167 -50t60 -127q0 -64 -59 -120.5t-170 -87.5l-8 -76h-15l-22 170q100 26 146 75t46 103q0 22 -17.5 39.5
t-47.5 17.5q-39 0 -94.5 -23.5t-104.5 -64.5q-16 27 -16 66q0 37 35 57.5t100 20.5z" />
    <glyph glyph-name="uni1EDF" unicode="&#x1edf;" horiz-adv-x="1157" 
d="M578 10q139 0 215.5 145t76.5 400q0 254 -76.5 397.5t-215.5 143.5q-136 0 -213.5 -144.5t-77.5 -396.5q0 -254 77.5 -399.5t213.5 -145.5zM578 1126q222 0 364 -161q96 57 96 122q0 85 -123 134q0 46 33 77t76 31q52 0 84.5 -38.5t32.5 -94.5q0 -77 -47 -142.5
t-136 -107.5q129 -161 129 -391q0 -249 -144 -412t-365 -163t-364.5 163t-143.5 412t143.5 410t364.5 161zM596 1659q107 0 167 -50t60 -126q0 -64 -59 -121t-170 -88l-8 -76h-15l-22 170q100 26 146 75t46 103q0 22 -17.5 40t-47.5 18q-39 0 -94.5 -23.5t-104.5 -64.5
q-16 27 -16 65q0 37 35 57.5t100 20.5z" />
    <glyph glyph-name="uni1EE0" unicode="&#x1ee0;" horiz-adv-x="1495" 
d="M748 10q205 0 323.5 183.5t118.5 523.5t-118.5 523t-323.5 183q-203 0 -323 -183.5t-120 -522.5t120 -523t323 -184zM748 1454q274 0 466 -192q99 59 99 124q0 84 -123 134q0 46 32.5 77t75.5 31q52 0 84.5 -38.5t32.5 -94.5q0 -77 -47 -143t-137 -109q186 -205 186 -526
q0 -148 -45.5 -281t-129 -234.5t-211.5 -161.5t-283 -60q-151 0 -278.5 59t-212.5 159.5t-132 234.5t-47 284q0 147 46 280t130 235t212 162t282 60zM870 1522q-44 0 -90 21.5t-78 48t-71.5 48t-71.5 21.5q-72 0 -110 -90l-15 2q25 97 72 157t112 60q42 0 87 -22.5t78 -49
t75 -49t78 -22.5q39 0 63.5 24.5t44.5 75.5l15 -2q-21 -98 -70.5 -160.5t-118.5 -62.5z" />
    <glyph glyph-name="uni1EE1" unicode="&#x1ee1;" horiz-adv-x="1157" 
d="M578 10q139 0 215.5 145t76.5 400q0 254 -76.5 397.5t-215.5 143.5q-136 0 -213.5 -144.5t-77.5 -396.5q0 -254 77.5 -399.5t213.5 -145.5zM578 1126q222 0 364 -161q96 57 96 122q0 85 -123 134q0 46 33 77t76 31q52 0 84.5 -38.5t32.5 -94.5q0 -77 -47 -142.5
t-136 -107.5q129 -161 129 -391q0 -249 -144 -412t-365 -163t-364.5 163t-143.5 412t143.5 410t364.5 161zM705 1235q-44 0 -90 21.5t-78.5 48t-72 48t-71.5 21.5q-72 0 -110 -90l-15 2q25 97 72 157t113 60q42 0 87 -22.5t77.5 -49t74.5 -49t78 -22.5q39 0 64 24.5t45 75.5
l14 -2q-22 -98 -70.5 -160.5t-117.5 -62.5z" />
    <glyph glyph-name="uni1EE2" unicode="&#x1ee2;" horiz-adv-x="1495" 
d="M748 10q205 0 323.5 183.5t118.5 523.5t-118.5 523t-323.5 183q-203 0 -323 -183.5t-120 -522.5t120 -523t323 -184zM748 1454q274 0 466 -192q99 59 99 124q0 84 -123 134q0 46 32.5 77t75.5 31q52 0 84.5 -38.5t32.5 -94.5q0 -77 -47 -143t-137 -109q186 -205 186 -526
q0 -148 -45.5 -281t-129 -234.5t-211.5 -161.5t-283 -60q-151 0 -278.5 59t-212.5 159.5t-132 234.5t-47 284q0 147 46 280t130 235t212 162t282 60zM748 -399q-51 0 -86 34.5t-35 85.5q0 53 34.5 87t86.5 34q54 0 87 -33.5t33 -87.5q0 -52 -33.5 -86t-86.5 -34z" />
    <glyph glyph-name="uni1EE3" unicode="&#x1ee3;" horiz-adv-x="1157" 
d="M578 10q139 0 215.5 145t76.5 400q0 254 -76.5 397.5t-215.5 143.5q-136 0 -213.5 -144.5t-77.5 -396.5q0 -254 77.5 -399.5t213.5 -145.5zM578 1126q222 0 364 -161q96 57 96 122q0 85 -123 134q0 46 33 77t76 31q52 0 84.5 -38.5t32.5 -94.5q0 -77 -47 -142.5
t-136 -107.5q129 -161 129 -391q0 -249 -144 -412t-365 -163t-364.5 163t-143.5 412t143.5 410t364.5 161zM578 -399q-51 0 -86 34.5t-35 85.5q0 53 34.5 87t86.5 34q54 0 87 -33.5t33 -87.5q0 -52 -33.5 -86t-86.5 -34z" />
    <glyph glyph-name="uni1EE4" unicode="&#x1ee4;" horiz-adv-x="1476" 
d="M762 -399q-51 0 -86 34.5t-35 85.5q0 53 34.5 87t86.5 34q54 0 87.5 -33.5t33.5 -87.5q0 -52 -34 -86t-87 -34zM745 -20q-247 0 -392.5 142t-145.5 390v768q0 60 -28 82t-85 31l-59 10v31h571v-31l-65 -10q-29 -4 -47.5 -9.5t-38 -17.5t-28.5 -33t-9 -53v-780
q0 -211 107 -331t298 -120t295.5 120.5t104.5 332.5v778q0 32 -10 53t-30.5 33t-40.5 17.5t-52 9.5l-70 10v31h457v-31l-72 -10q-32 -4 -52 -9.5t-41.5 -17.5t-31.5 -33t-10 -53v-778q0 -244 -140 -383t-385 -139z" />
    <glyph glyph-name="uni1EE5" unicode="&#x1ee5;" horiz-adv-x="1226" 
d="M618 -399q-51 0 -85.5 34.5t-34.5 85.5q0 53 34 87t86 34q54 0 87.5 -33.5t33.5 -87.5q0 -52 -34 -86t-87 -34zM1196 84l6 -31l-348 -73v206q-153 -206 -365 -206q-152 0 -235.5 94.5t-83.5 253.5v604q0 32 -6.5 51.5t-21.5 28t-29 10.5t-39 2l-54 -2l-6 31l348 73v-802
q0 -112 55 -177t154 -65q149 0 283 158v692q0 32 -6.5 51.5t-21.5 28t-29 10.5t-39 2l-53 -2l-7 31l349 73v-952q0 -32 7 -51.5t22.5 -28t29.5 -10.5t37 -2z" />
    <glyph glyph-name="uni1EE6" unicode="&#x1ee6;" horiz-adv-x="1476" 
d="M827 1989q107 0 167.5 -50.5t60.5 -126.5q0 -64 -59 -120.5t-171 -87.5l-8 -76h-14l-23 170q100 26 146.5 75t46.5 103q0 22 -18 39.5t-48 17.5q-39 0 -94 -23.5t-104 -64.5q-17 28 -17 66q0 37 35 57.5t100 20.5zM745 -20q-247 0 -392.5 142t-145.5 390v768q0 60 -28 82
t-85 31l-59 10v31h571v-31l-65 -10q-29 -4 -47.5 -9.5t-38 -17.5t-28.5 -33t-9 -53v-780q0 -211 107 -331t298 -120t295.5 120.5t104.5 332.5v778q0 32 -10 53t-30.5 33t-40.5 17.5t-52 9.5l-70 10v31h457v-31l-72 -10q-32 -4 -52 -9.5t-41.5 -17.5t-31.5 -33t-10 -53v-778
q0 -244 -140 -383t-385 -139z" />
    <glyph glyph-name="uni1EE7" unicode="&#x1ee7;" horiz-adv-x="1226" 
d="M616 1659q107 0 167.5 -50t60.5 -126q0 -64 -59.5 -121t-170.5 -88l-8 -76h-14l-23 170q100 26 146.5 75t46.5 103q0 22 -18 40t-48 18q-39 0 -94 -23.5t-104 -64.5q-17 28 -17 65t35 57.5t100 20.5zM1196 84l6 -31l-348 -73v206q-153 -206 -365 -206q-152 0 -235.5 94.5
t-83.5 253.5v604q0 32 -6.5 51.5t-21.5 28t-29 10.5t-39 2l-54 -2l-6 31l348 73v-802q0 -112 55 -177t154 -65q149 0 283 158v692q0 32 -6.5 51.5t-21.5 28t-29 10.5t-39 2l-53 -2l-7 31l349 73v-952q0 -32 7 -51.5t22.5 -28t29.5 -10.5t37 -2z" />
    <glyph glyph-name="uni1EE8" unicode="&#x1ee8;" horiz-adv-x="1476" 
d="M868 1843h248v-4l-364 -311h-11zM1270 1214v-712q0 -244 -140 -383t-385 -139q-247 0 -392.5 142t-145.5 390v768q0 60 -28 82t-85 31l-59 10v31h571v-31l-65 -10q-29 -4 -47.5 -9.5t-38 -17.5t-28.5 -33t-9 -53v-780q0 -211 107 -331t298 -120t295.5 120.5t104.5 332.5
v778q0 32 -10 53t-30.5 33t-40.5 17.5t-52 9.5l-70 10v31h313v-31q-44 -15 -53.5 -34.5t-9.5 -88.5v-45q157 67 157 151q0 85 -122 134q0 46 32.5 77t75.5 31q52 0 84.5 -38.5t32.5 -94.5q0 -92 -67 -167t-193 -114z" />
    <glyph glyph-name="uni1EE9" unicode="&#x1ee9;" horiz-adv-x="1226" 
d="M889 1513v-4l-365 -311h-10l127 315h248zM1196 84l6 -31l-348 -73v206q-153 -206 -365 -206q-152 0 -235.5 94.5t-83.5 253.5v604q0 32 -6.5 51.5t-21.5 28t-29 10.5t-39 2l-54 -2l-6 31l348 73v-802q0 -112 55 -177t154 -65q149 0 283 158v692q0 32 -6.5 51.5t-21.5 28
t-29 10.5t-39 2l-53 -2l-7 31l349 73v-184q141 65 141 145q0 85 -123 134q0 46 33 77t76 31q52 0 84 -38t32 -95q0 -89 -62.5 -162.5t-180.5 -113.5v-746q0 -32 7 -51.5t22.5 -28t29.5 -10.5t37 -2z" />
    <glyph glyph-name="uni1EEA" unicode="&#x1eea;" horiz-adv-x="1476" 
d="M500 1837v4h248l126 -315h-10zM1270 1214v-712q0 -244 -140 -383t-385 -139q-247 0 -392.5 142t-145.5 390v768q0 60 -28 82t-85 31l-59 10v31h571v-31l-65 -10q-29 -4 -47.5 -9.5t-38 -17.5t-28.5 -33t-9 -53v-780q0 -211 107 -331t298 -120t295.5 120.5t104.5 332.5
v778q0 32 -10 53t-30.5 33t-40.5 17.5t-52 9.5l-70 10v31h313v-31q-44 -15 -53.5 -34.5t-9.5 -88.5v-45q157 67 157 151q0 85 -122 134q0 46 32.5 77t75.5 31q52 0 84.5 -38.5t32.5 -94.5q0 -92 -67 -167t-193 -114z" />
    <glyph glyph-name="uni1EEB" unicode="&#x1eeb;" horiz-adv-x="1226" 
d="M535 1513l127 -315h-11l-364 311v4h248zM1196 84l6 -31l-348 -73v206q-153 -206 -365 -206q-152 0 -235.5 94.5t-83.5 253.5v604q0 32 -6.5 51.5t-21.5 28t-29 10.5t-39 2l-54 -2l-6 31l348 73v-802q0 -112 55 -177t154 -65q149 0 283 158v692q0 32 -6.5 51.5t-21.5 28
t-29 10.5t-39 2l-53 -2l-7 31l349 73v-184q141 65 141 145q0 85 -123 134q0 46 33 77t76 31q52 0 84 -38t32 -95q0 -89 -62.5 -162.5t-180.5 -113.5v-746q0 -32 7 -51.5t22.5 -28t29.5 -10.5t37 -2z" />
    <glyph glyph-name="uni1EEC" unicode="&#x1eec;" horiz-adv-x="1476" 
d="M827 1989q107 0 167.5 -50.5t60.5 -126.5q0 -64 -59 -120.5t-171 -87.5l-8 -76h-14l-23 170q100 26 146.5 75t46.5 103q0 22 -18 39.5t-48 17.5q-39 0 -94 -23.5t-104 -64.5q-17 28 -17 66q0 37 35 57.5t100 20.5zM1270 1214v-712q0 -244 -140 -383t-385 -139
q-247 0 -392.5 142t-145.5 390v768q0 60 -28 82t-85 31l-59 10v31h571v-31l-65 -10q-29 -4 -47.5 -9.5t-38 -17.5t-28.5 -33t-9 -53v-780q0 -211 107 -331t298 -120t295.5 120.5t104.5 332.5v778q0 32 -10 53t-30.5 33t-40.5 17.5t-52 9.5l-70 10v31h313v-31
q-44 -15 -53.5 -34.5t-9.5 -88.5v-45q157 67 157 151q0 85 -122 134q0 46 32.5 77t75.5 31q52 0 84.5 -38.5t32.5 -94.5q0 -92 -67 -167t-193 -114z" />
    <glyph glyph-name="uni1EED" unicode="&#x1eed;" horiz-adv-x="1226" 
d="M616 1659q107 0 167.5 -50t60.5 -126q0 -64 -59.5 -121t-170.5 -88l-8 -76h-14l-23 170q100 26 146.5 75t46.5 103q0 22 -18 40t-48 18q-39 0 -94 -23.5t-104 -64.5q-17 28 -17 65t35 57.5t100 20.5zM1196 84l6 -31l-348 -73v206q-153 -206 -365 -206q-152 0 -235.5 94.5
t-83.5 253.5v604q0 32 -6.5 51.5t-21.5 28t-29 10.5t-39 2l-54 -2l-6 31l348 73v-802q0 -112 55 -177t154 -65q149 0 283 158v692q0 32 -6.5 51.5t-21.5 28t-29 10.5t-39 2l-53 -2l-7 31l349 73v-184q141 65 141 145q0 85 -123 134q0 46 33 77t76 31q52 0 84 -38t32 -95
q0 -89 -62.5 -162.5t-180.5 -113.5v-746q0 -32 7 -51.5t22.5 -28t29.5 -10.5t37 -2z" />
    <glyph glyph-name="uni1EEE" unicode="&#x1eee;" horiz-adv-x="1476" 
d="M1270 1214v-712q0 -244 -140 -383t-385 -139q-247 0 -392.5 142t-145.5 390v768q0 60 -28 82t-85 31l-59 10v31h571v-31l-65 -10q-29 -4 -47.5 -9.5t-38 -17.5t-28.5 -33t-9 -53v-780q0 -211 107 -331t298 -120t295.5 120.5t104.5 332.5v778q0 32 -10 53t-30.5 33
t-40.5 17.5t-52 9.5l-70 10v31h313v-31q-44 -15 -53.5 -34.5t-9.5 -88.5v-45q157 67 157 151q0 85 -122 134q0 46 32.5 77t75.5 31q52 0 84.5 -38.5t32.5 -94.5q0 -92 -67 -167t-193 -114zM862 1563q-44 0 -90 21.5t-78 48t-71.5 48t-71.5 21.5q-73 0 -111 -90l-14 2
q25 97 72 157t112 60q42 0 87 -22.5t78 -49t75 -49t78 -22.5q39 0 63.5 24.5t44.5 75.5l15 -2q-21 -98 -70.5 -160.5t-118.5 -62.5z" />
    <glyph glyph-name="uni1EEF" unicode="&#x1eef;" horiz-adv-x="1226" 
d="M1196 84l6 -31l-348 -73v206q-153 -206 -365 -206q-152 0 -235.5 94.5t-83.5 253.5v604q0 32 -6.5 51.5t-21.5 28t-29 10.5t-39 2l-54 -2l-6 31l348 73v-802q0 -112 55 -177t154 -65q149 0 283 158v692q0 32 -6.5 51.5t-21.5 28t-29 10.5t-39 2l-53 -2l-7 31l349 73v-184
q141 65 141 145q0 85 -123 134q0 46 33 77t76 31q52 0 84 -38t32 -95q0 -89 -62.5 -162.5t-180.5 -113.5v-746q0 -32 7 -51.5t22.5 -28t29.5 -10.5t37 -2zM737 1235q-44 0 -90 21.5t-78 48t-71.5 48t-71.5 21.5q-73 0 -111 -90l-14 2q25 97 72 157t112 60q42 0 87 -22.5
t78 -49t75 -49t78 -22.5q39 0 63.5 24.5t44.5 75.5l15 -2q-21 -98 -70.5 -160.5t-118.5 -62.5z" />
    <glyph glyph-name="uni1EF0" unicode="&#x1ef0;" horiz-adv-x="1476" 
d="M762 -399q-51 0 -86 34.5t-35 85.5q0 53 34.5 87t86.5 34q54 0 87.5 -33.5t33.5 -87.5q0 -52 -34 -86t-87 -34zM1270 1214v-712q0 -244 -140 -383t-385 -139q-247 0 -392.5 142t-145.5 390v768q0 60 -28 82t-85 31l-59 10v31h571v-31l-65 -10q-29 -4 -47.5 -9.5
t-38 -17.5t-28.5 -33t-9 -53v-780q0 -211 107 -331t298 -120t295.5 120.5t104.5 332.5v778q0 32 -10 53t-30.5 33t-40.5 17.5t-52 9.5l-70 10v31h313v-31q-44 -15 -53.5 -34.5t-9.5 -88.5v-45q157 67 157 151q0 85 -122 134q0 46 32.5 77t75.5 31q52 0 84.5 -38.5
t32.5 -94.5q0 -92 -67 -167t-193 -114z" />
    <glyph glyph-name="uni1EF1" unicode="&#x1ef1;" horiz-adv-x="1226" 
d="M618 -399q-51 0 -85.5 34.5t-34.5 85.5q0 53 34 87t86 34q54 0 87.5 -33.5t33.5 -87.5q0 -52 -34 -86t-87 -34zM1196 84l6 -31l-348 -73v206q-153 -206 -365 -206q-152 0 -235.5 94.5t-83.5 253.5v604q0 32 -6.5 51.5t-21.5 28t-29 10.5t-39 2l-54 -2l-6 31l348 73v-802
q0 -112 55 -177t154 -65q149 0 283 158v692q0 32 -6.5 51.5t-21.5 28t-29 10.5t-39 2l-53 -2l-7 31l349 73v-184q141 65 141 145q0 85 -123 134q0 46 33 77t76 31q52 0 84 -38t32 -95q0 -89 -62.5 -162.5t-180.5 -113.5v-746q0 -32 7 -51.5t22.5 -28t29.5 -10.5t37 -2z" />
    <glyph glyph-name="Ygrave" unicode="&#x1ef2;" horiz-adv-x="1290" 
d="M899 1403v31h418v-31l-43 -10q-53 -12 -82.5 -33.5t-54.5 -65.5l-375 -661v-479q0 -32 10 -53t31.5 -33t41.5 -17.5t52 -9.5l72 -10v-31h-623v31l72 10q32 4 52 9.5t41.5 17.5t31.5 33t10 53v469l-428 675q-47 72 -119 95l-31 10v31h521v-31l-66 -10q-29 -4 -44.5 -8.5
t-27.5 -14.5t-9 -27.5t20 -44.5l381 -602l337 598q13 23 13.5 40t-5.5 26.5t-25.5 16.5t-37 9.5t-49.5 6.5zM645 1841l127 -315h-10l-365 311v4h248z" />
    <glyph glyph-name="ygrave" unicode="&#x1ef3;" horiz-adv-x="1038" 
d="M711 1075v31h348v-31l-37 -10q-24 -7 -38.5 -13.5t-36.5 -30.5t-36 -63l-336 -907q-17 -45 -30.5 -78.5t-38.5 -88.5t-51 -94t-59 -78.5t-72 -60t-80 -20.5q-18 0 -38 4t-43.5 15t-41.5 27.5t-30.5 44.5t-12.5 63q0 52 22 100q182 -92 244 -92q56 0 88.5 48.5t77.5 178.5
l-404 943q-16 37 -36 59.5t-32.5 29t-33.5 13.5l-31 10v31h498v-31l-65 -10q-60 -9 -82 -28.5t0 -75.5l278 -703l254 700q21 57 -1 77.5t-81 29.5zM504 1513l127 -315h-10l-365 311v4h248z" />
    <glyph glyph-name="uni1EF4" unicode="&#x1ef4;" horiz-adv-x="1290" 
d="M657 -379q-51 0 -85.5 35t-34.5 86q0 53 34 87t86 34q54 0 87.5 -33.5t33.5 -87.5q0 -52 -34 -86.5t-87 -34.5zM899 1403v31h418v-31l-43 -10q-53 -12 -82.5 -33.5t-54.5 -65.5l-375 -661v-479q0 -32 10 -53t31.5 -33t41.5 -17.5t52 -9.5l72 -10v-31h-623v31l72 10
q32 4 52 9.5t41.5 17.5t31.5 33t10 53v469l-428 675q-47 72 -119 95l-31 10v31h521v-31l-66 -10q-29 -4 -44.5 -8.5t-27.5 -14.5t-9 -27.5t20 -44.5l381 -602l337 598q13 23 13.5 40t-5.5 26.5t-25.5 16.5t-37 9.5t-49.5 6.5z" />
    <glyph glyph-name="uni1EF5" unicode="&#x1ef5;" horiz-adv-x="1038" 
d="M721 -399q-51 0 -86 34.5t-35 85.5q0 53 34.5 87t86.5 34q54 0 87.5 -33.5t33.5 -87.5q0 -52 -34 -86t-87 -34zM711 1075v31h348v-31l-37 -10q-24 -7 -38.5 -13.5t-36.5 -30.5t-36 -63l-336 -907q-17 -45 -30.5 -78.5t-38.5 -88.5t-51 -94t-59 -78.5t-72 -60t-80 -20.5
q-18 0 -38 4t-43.5 15t-41.5 27.5t-30.5 44.5t-12.5 63q0 52 22 100q182 -92 244 -92q56 0 88.5 48.5t77.5 178.5l-404 943q-16 37 -36 59.5t-32.5 29t-33.5 13.5l-31 10v31h498v-31l-65 -10q-60 -9 -82 -28.5t0 -75.5l278 -703l254 700q21 57 -1 77.5t-81 29.5z" />
    <glyph glyph-name="uni1EF6" unicode="&#x1ef6;" horiz-adv-x="1290" 
d="M727 1989q107 0 167 -50t60 -127q0 -64 -59 -120.5t-170 -87.5l-8 -76h-15l-22 170q100 26 146 75t46 103q0 22 -17.5 39.5t-47.5 17.5q-39 0 -94.5 -23.5t-104.5 -64.5q-16 27 -16 66q0 37 35 57.5t100 20.5zM899 1403v31h418v-31l-43 -10q-53 -12 -82.5 -33.5
t-54.5 -65.5l-375 -661v-479q0 -32 10 -53t31.5 -33t41.5 -17.5t52 -9.5l72 -10v-31h-623v31l72 10q32 4 52 9.5t41.5 17.5t31.5 33t10 53v469l-428 675q-47 72 -119 95l-31 10v31h521v-31l-66 -10q-29 -4 -44.5 -8.5t-27.5 -14.5t-9 -27.5t20 -44.5l381 -602l337 598
q13 23 13.5 40t-5.5 26.5t-25.5 16.5t-37 9.5t-49.5 6.5z" />
    <glyph glyph-name="uni1EF7" unicode="&#x1ef7;" horiz-adv-x="1038" 
d="M596 1659q107 0 167 -50t60 -126q0 -64 -59 -121t-170 -88l-8 -76h-15l-22 170q100 26 146 75t46 103q0 22 -17.5 40t-47.5 18q-39 0 -94.5 -23.5t-104.5 -64.5q-16 27 -16 65q0 37 35 57.5t100 20.5zM711 1075v31h348v-31l-37 -10q-24 -7 -38.5 -13.5t-36.5 -30.5
t-36 -63l-336 -907q-17 -45 -30.5 -78.5t-38.5 -88.5t-51 -94t-59 -78.5t-72 -60t-80 -20.5q-18 0 -38 4t-43.5 15t-41.5 27.5t-30.5 44.5t-12.5 63q0 52 22 100q182 -92 244 -92q56 0 88.5 48.5t77.5 178.5l-404 943q-16 37 -36 59.5t-32.5 29t-33.5 13.5l-31 10v31h498
v-31l-65 -10q-60 -9 -82 -28.5t0 -75.5l278 -703l254 700q21 57 -1 77.5t-81 29.5z" />
    <glyph glyph-name="uni1EF8" unicode="&#x1ef8;" horiz-adv-x="1290" 
d="M899 1403v31h418v-31l-43 -10q-53 -12 -82.5 -33.5t-54.5 -65.5l-375 -661v-479q0 -32 10 -53t31.5 -33t41.5 -17.5t52 -9.5l72 -10v-31h-623v31l72 10q32 4 52 9.5t41.5 17.5t31.5 33t10 53v469l-428 675q-47 72 -119 95l-31 10v31h521v-31l-66 -10q-29 -4 -44.5 -8.5
t-27.5 -14.5t-9 -27.5t20 -44.5l381 -602l337 598q13 23 13.5 40t-5.5 26.5t-25.5 16.5t-37 9.5t-49.5 6.5zM768 1563q-44 0 -90 21.5t-78 48t-71.5 48t-71.5 21.5q-73 0 -111 -90l-14 2q25 97 72 157t112 60q42 0 87 -22.5t78 -49t75 -49t78 -22.5q39 0 63.5 24.5
t44.5 75.5l14 -2q-22 -98 -70.5 -160.5t-117.5 -62.5z" />
    <glyph glyph-name="uni1EF9" unicode="&#x1ef9;" horiz-adv-x="1038" 
d="M711 1075v31h348v-31l-37 -10q-24 -7 -38.5 -13.5t-36.5 -30.5t-36 -63l-336 -907q-17 -45 -30.5 -78.5t-38.5 -88.5t-51 -94t-59 -78.5t-72 -60t-80 -20.5q-18 0 -38 4t-43.5 15t-41.5 27.5t-30.5 44.5t-12.5 63q0 52 22 100q182 -92 244 -92q56 0 88.5 48.5t77.5 178.5
l-404 943q-16 37 -36 59.5t-32.5 29t-33.5 13.5l-31 10v31h498v-31l-65 -10q-60 -9 -82 -28.5t0 -75.5l278 -703l254 700q21 57 -1 77.5t-81 29.5zM643 1235q-44 0 -90 21.5t-78 48t-71.5 48t-71.5 21.5q-73 0 -111 -90l-14 2q25 97 72 157t112 60q42 0 87 -22.5t78 -49
t75 -49t78 -22.5q39 0 63.5 24.5t44.5 75.5l14 -2q-22 -98 -70.5 -160.5t-117.5 -62.5z" />
    <glyph glyph-name="uni2007" unicode="&#x2007;" 
 />
    <glyph glyph-name="uni2008" unicode="&#x2008;" horiz-adv-x="407" 
 />
    <glyph glyph-name="uni2009" unicode="&#x2009;" horiz-adv-x="256" 
 />
    <glyph glyph-name="uni200A" unicode="&#x200a;" horiz-adv-x="86" 
 />
    <glyph glyph-name="uni200B" unicode="&#x200b;" horiz-adv-x="0" 
 />
    <glyph glyph-name="endash" unicode="&#x2013;" horiz-adv-x="1187" 
d="M1085 557h-983v135h983v-135z" />
    <glyph glyph-name="emdash" unicode="&#x2014;" horiz-adv-x="2048" 
d="M1946 692v-135h-1844v135h1844z" />
    <glyph glyph-name="quoteleft" unicode="&#x2018;" horiz-adv-x="405" 
d="M367 1638l4 -12q-191 -79 -191 -192q0 -98 144 -160q0 -54 -38 -90.5t-89 -36.5q-61 0 -100.5 46.5t-39.5 111.5q0 109 80 198t230 135z" />
    <glyph glyph-name="quoteright" unicode="&#x2019;" horiz-adv-x="421" 
d="M66 1147l-5 12q88 36 139.5 87t51.5 106q0 98 -143 159q0 54 38 90.5t89 36.5q62 0 100.5 -45t38.5 -112q0 -109 -79.5 -198.5t-229.5 -135.5z" />
    <glyph glyph-name="quotesinglbase" unicode="&#x201a;" horiz-adv-x="419" 
d="M31 -254l-4 12q87 36 138.5 86.5t51.5 106.5q0 99 -143 160q0 54 38 90.5t89 36.5q62 0 100.5 -45.5t38.5 -112.5q0 -109 -79.5 -198.5t-229.5 -135.5z" />
    <glyph glyph-name="quotedblleft" unicode="&#x201c;" horiz-adv-x="745" 
d="M367 1638l4 -12q-191 -79 -191 -192q0 -98 144 -160q0 -54 -38 -90.5t-89 -36.5q-61 0 -100.5 46.5t-39.5 111.5q0 109 80 198t230 135zM707 1638l4 -12q-191 -79 -191 -192q0 -98 144 -160q0 -54 -38 -90.5t-89 -36.5q-61 0 -100.5 46.5t-39.5 111.5q0 109 80 198
t230 135z" />
    <glyph glyph-name="quotedblright" unicode="&#x201d;" horiz-adv-x="761" 
d="M66 1147l-5 12q88 36 139.5 87t51.5 106q0 98 -143 159q0 54 38 90.5t89 36.5q62 0 100.5 -45t38.5 -112q0 -109 -79.5 -198.5t-229.5 -135.5zM406 1147l-5 12q88 36 139.5 87t51.5 106q0 98 -143 159q0 54 37.5 90.5t88.5 36.5q62 0 101 -45t39 -112
q0 -109 -79.5 -198.5t-229.5 -135.5z" />
    <glyph glyph-name="quotedblbase" unicode="&#x201e;" horiz-adv-x="759" 
d="M31 -254l-4 12q87 36 138.5 86.5t51.5 106.5q0 99 -143 160q0 54 38 90.5t89 36.5q62 0 100.5 -45.5t38.5 -112.5q0 -109 -79.5 -198.5t-229.5 -135.5zM371 -254l-4 12q87 36 138.5 86.5t51.5 106.5q0 99 -143 160q0 54 38 90.5t89 36.5q62 0 100.5 -45.5t38.5 -112.5
q0 -109 -79.5 -198.5t-229.5 -135.5z" />
    <glyph glyph-name="dagger" unicode="&#x2020;" horiz-adv-x="720" 
d="M381 1348h311v-41h-311v-600h-41v600h-311v41h311v270h41v-270z" />
    <glyph glyph-name="daggerdbl" unicode="&#x2021;" horiz-adv-x="819" 
d="M741 1348v-41h-311v-289h311v-41h-311v-270h-41v270h-311v41h311v289h-311v41h311v270h41v-270h311z" />
    <glyph glyph-name="bullet" unicode="&#x2022;" horiz-adv-x="587" 
d="M291 551q-75 0 -127.5 53.5t-52.5 128.5q0 78 52.5 132.5t127.5 54.5q79 0 132.5 -54.5t53.5 -132.5q0 -76 -53.5 -129t-132.5 -53z" />
    <glyph glyph-name="ellipsis" unicode="&#x2026;" horiz-adv-x="1368" 
d="M203 -12q-51 0 -87 36t-36 87q0 54 36 90.5t87 36.5q54 0 89.5 -36.5t35.5 -90.5q0 -51 -36 -87t-89 -36zM682 -12q-51 0 -87 36t-36 87q0 54 36 90.5t87 36.5q54 0 89.5 -36.5t35.5 -90.5q0 -51 -35.5 -87t-89.5 -36zM1163 -12q-51 0 -87 36t-36 87q0 54 36 90.5
t87 36.5q54 0 89.5 -36.5t35.5 -90.5q0 -51 -36 -87t-89 -36z" />
    <glyph glyph-name="perthousand" unicode="&#x2030;" horiz-adv-x="2568" 
d="M248 1085q0 -59 10.5 -109.5t32 -91.5t59.5 -64t88 -23q67 0 112 41.5t63 104t18 142.5q0 81 -18 143.5t-63 104t-112 41.5q-66 0 -110 -41.5t-62 -104t-18 -143.5zM365 -39l921 1518h121l-922 -1518h-120zM82 1085q0 167 105 270t251 103q147 0 253 -103t106 -270
t-106 -269.5t-253 -102.5q-146 0 -251 102.5t-105 269.5zM1524 354q0 80 -18 143t-62.5 104.5t-110.5 41.5q-51 0 -89 -23.5t-60 -64.5t-32.5 -91.5t-10.5 -109.5t10.5 -109.5t32.5 -91.5t60 -64t89 -23q66 0 110.5 41.5t62.5 104t18 142.5zM1690 354q0 -167 -105.5 -269.5
t-251.5 -102.5q-147 0 -252.5 102.5t-105.5 269.5t105.5 270t252.5 103q146 0 251.5 -103t105.5 -270zM2320 354q0 81 -18 143.5t-62 104t-110 41.5q-67 0 -112 -41.5t-63 -104t-18 -143.5q0 -80 18 -142.5t63 -104t112 -41.5q50 0 88 23t59.5 64t32 91.5t10.5 109.5z
M2486 354q0 -167 -105 -269.5t-251 -102.5q-147 0 -252.5 102.5t-105.5 269.5t105.5 270t252.5 103q146 0 251 -103t105 -270z" />
    <glyph glyph-name="guilsinglleft" unicode="&#x2039;" horiz-adv-x="577" 
d="M457 145l-2 -2l-363 408v4l363 408l2 -2l-156 -408z" />
    <glyph glyph-name="guilsinglright" unicode="&#x203a;" horiz-adv-x="577" 
d="M485 551l-362 -408l-2 2l155 408l-155 408l2 2l362 -408v-4z" />
    <glyph glyph-name="fraction" unicode="&#x2044;" horiz-adv-x="256" 
d="M584 1434l-877 -1457l-35 23l879 1456z" />
    <glyph glyph-name="uni2070" unicode="&#x2070;" horiz-adv-x="835" 
d="M418 561q-147 0 -255 128t-108 315q0 190 107.5 316t255.5 126t255 -126t107 -316q0 -187 -107.5 -315t-254.5 -128zM418 592q162 0 162 412q0 411 -162 411q-166 0 -166 -411q0 -412 166 -412z" />
    <glyph glyph-name="uni2074" unicode="&#x2074;" horiz-adv-x="727" 
d="M686 831v-36h-123v-133q0 -28 13.5 -38.5t41.5 -15.5l50 -4v-31h-387v31l49 4q28 5 41.5 17t13.5 37v133h-358l-17 30l359 609h172v-13l-484 -590h328v287l178 49v-336h123z" />
    <glyph glyph-name="uni2075" unicode="&#x2075;" horiz-adv-x="669" 
d="M182 1276l-24 -152q230 -4 339 -73t109 -191q0 -126 -92.5 -212.5t-251.5 -86.5q-102 0 -169.5 37.5t-67.5 91.5q0 49 59 96q38 -72 105 -127t139 -55q59 0 98 42t39 112q0 86 -89 141.5t-278 56.5l74 478h309q108 0 129 43h17l-31 -201h-414z" />
    <glyph glyph-name="uni2076" unicode="&#x2076;" horiz-adv-x="741" 
d="M383 594q60 0 95.5 61t35.5 164q0 101 -38 158t-109 57q-68 0 -125 -51q-4 -54 -4 -90q0 -150 38 -224.5t107 -74.5zM467 1104q103 0 168 -67t65 -175q0 -129 -91 -215t-226 -86q-150 0 -240 102.5t-90 254.5q0 117 51.5 216t137.5 164.5t195 103.5t227 42v-19
q-176 -14 -285.5 -115t-134.5 -300q100 94 223 94z" />
    <glyph glyph-name="uni2077" unicode="&#x2077;" horiz-adv-x="649" 
d="M20 1169l37 265h568v-9l-82 -147l-262 -705h-203v11l438 692h-315q-64 0 -99.5 -23.5t-58.5 -83.5h-23z" />
    <glyph glyph-name="uni2078" unicode="&#x2078;" horiz-adv-x="741" 
d="M383 594q72 0 120 38.5t48 98.5q0 35 -14.5 62.5t-46.5 49.5t-58.5 35.5t-77 34.5t-75.5 33q-95 -65 -95 -164q0 -84 56 -136t143 -52zM377 1413q-68 0 -110 -36.5t-42 -94.5q0 -15 3.5 -29t8 -25t15.5 -23.5t17.5 -20.5t23.5 -19t25 -16.5t30 -17t30 -15.5t33.5 -16
t32.5 -15q95 59 95 166q0 72 -45 117t-117 45zM465 1077q49 -21 84 -41.5t69.5 -50t52 -70t17.5 -90.5q0 -116 -92.5 -189t-241.5 -73q-132 0 -218.5 55t-86.5 142q0 66 52.5 116.5t148.5 81.5q-74 41 -116 93.5t-42 132.5q0 116 82 188t215 72q112 0 186 -50t74 -130
q0 -120 -184 -187z" />
    <glyph glyph-name="uni2079" unicode="&#x2079;" horiz-adv-x="745" 
d="M379 973q68 0 125 51q4 62 4 90q0 151 -39 225t-109 74q-59 0 -94 -62t-35 -163q0 -100 39.5 -157.5t108.5 -57.5zM362 1446q151 0 240.5 -101t89.5 -255q0 -117 -51.5 -216t-137 -165t-194.5 -104t-227 -42v19q372 38 420 415q-94 -94 -223 -94q-103 0 -168.5 67
t-65.5 175q0 129 91 215t226 86z" />
    <glyph glyph-name="uni2080" unicode="&#x2080;" horiz-adv-x="835" 
d="M418 -217q-148 0 -255.5 126t-107.5 316t107.5 316.5t255.5 126.5t255 -126.5t107 -316.5t-107 -316t-255 -126zM418 -186q162 0 162 411q0 412 -162 412q-166 0 -166 -412q0 -411 166 -411z" />
    <glyph glyph-name="uni2081" unicode="&#x2081;" horiz-adv-x="509" 
d="M473 -205h-438v31l61 4q35 5 51.5 15.5t16.5 37.5v594q0 31 -10 41t-45 10h-91v25l306 113h18v-783q0 -25 16.5 -35.5t51.5 -15.5l63 -6v-31z" />
    <glyph glyph-name="uni2082" unicode="&#x2082;" horiz-adv-x="690" 
d="M573 -205h-567v27q298 293 361 446q32 89 28 151t-41 97q-42 39 -106 39q-58 0 -111 -34t-80 -93l-16 10q41 109 133 168.5t193 59.5q95 0 159 -55.5t64 -149.5q0 -61 -28 -122t-86 -124.5t-129.5 -124t-174.5 -135.5l2 -4h238q138 0 200 121h25z" />
    <glyph glyph-name="uni2083" unicode="&#x2083;" horiz-adv-x="679" 
d="M276 -217q-105 0 -176 41q-64 37 -69 87t51 99q43 -75 112.5 -131.5t133.5 -56.5q55 0 89 41.5t34 107.5q0 101 -82.5 156.5t-218.5 50.5l-11 23q124 68 181 128.5t57 127.5q0 52 -32.5 81t-82.5 29q-60 0 -114.5 -39t-84.5 -98l-16 10q39 101 134 164.5t196 63.5
q78 0 127 -39.5t49 -110.5q0 -73 -60.5 -126.5t-183.5 -110.5l2 -5q146 -1 229 -64t83 -155q0 -110 -96.5 -192t-250.5 -82z" />
    <glyph glyph-name="uni2084" unicode="&#x2084;" horiz-adv-x="727" 
d="M686 53v-37h-123v-133q0 -19 8 -30.5t18 -15t29 -7.5l50 -4v-31h-387v31l49 4q28 5 41.5 16.5t13.5 36.5v133h-358l-17 31l359 608h172v-12l-484 -590h328v287l178 49v-336h123z" />
    <glyph glyph-name="uni2085" unicode="&#x2085;" horiz-adv-x="669" 
d="M182 498l-24 -152q230 -4 339 -73t109 -191q0 -126 -92.5 -212.5t-251.5 -86.5q-102 0 -169.5 37.5t-67.5 91.5q0 49 59 96q38 -72 105 -127t139 -55q59 0 98 42t39 112q0 86 -89 141.5t-278 56.5l74 477h309q108 0 129 43h17l-31 -200h-414z" />
    <glyph glyph-name="uni2086" unicode="&#x2086;" horiz-adv-x="741" 
d="M383 -184q60 0 95.5 61t35.5 164q0 101 -38 158t-109 57q-68 0 -125 -51q-4 -54 -4 -90q0 -150 38 -224.5t107 -74.5zM467 326q103 0 168 -67t65 -175q0 -129 -91 -215t-226 -86q-150 0 -240 102t-90 254q0 117 51.5 216t137.5 165t195 104t227 42v-19
q-175 -14 -285 -115.5t-135 -300.5q101 95 223 95z" />
    <glyph glyph-name="uni2087" unicode="&#x2087;" horiz-adv-x="649" 
d="M20 391l37 264h568v-8l-82 -147l-262 -705h-203v10l438 693h-315q-64 0 -99.5 -23.5t-58.5 -83.5h-23z" />
    </font>
</defs>
</svg>
