<svg width="1350" height="190" viewBox="0 0 1350 190" fill="none" xmlns="http://www.w3.org/2000/svg">
<path d="M0.766958 187V3.16133H60.7304C80.1425 3.16133 97.0046 7.10955 111.317 15.006C125.794 22.7379 136.98 33.5132 144.877 47.332C152.773 60.9862 156.721 76.8613 156.721 94.9573C156.721 112.889 152.773 128.846 144.877 142.829C136.98 156.648 125.794 167.506 111.317 175.402C97.0046 183.134 80.1425 187 60.7304 187H0.766958ZM34.3268 157.388H61.4707C73.9734 157.388 84.7487 154.839 93.7967 149.739C103.009 144.474 110.165 137.236 115.265 128.024C120.365 118.647 122.915 107.624 122.915 94.9573C122.915 82.1256 120.365 71.1035 115.265 61.891C110.165 52.6785 103.009 45.5224 93.7967 40.4226C84.7487 35.3228 73.9734 32.7729 61.4707 32.7729H34.3268V157.388ZM246.354 189.961C233.194 189.961 221.184 186.918 210.327 180.831C199.634 174.744 191.079 166.436 184.663 155.908C178.412 145.379 175.286 133.37 175.286 119.88C175.286 106.391 178.412 94.3815 184.663 83.8529C191.079 73.3244 199.634 65.0167 210.327 58.9298C221.02 52.843 233.029 49.7996 246.354 49.7996C259.515 49.7996 271.442 52.843 282.135 58.9298C292.828 65.0167 301.3 73.3244 307.552 83.8529C313.967 94.217 317.175 106.226 317.175 119.88C317.175 133.37 313.967 145.379 307.552 155.908C301.136 166.436 292.581 174.744 281.888 180.831C271.195 186.918 259.35 189.961 246.354 189.961ZM246.354 160.35C253.593 160.35 259.926 158.622 265.355 155.168C270.948 151.713 275.308 146.942 278.434 140.855C281.724 134.604 283.369 127.612 283.369 119.88C283.369 111.984 281.724 105.075 278.434 99.1523C275.308 93.0654 270.948 88.2947 265.355 84.84C259.926 81.2208 253.593 79.4112 246.354 79.4112C238.951 79.4112 232.453 81.2208 226.86 84.84C221.267 88.2947 216.825 93.0654 213.535 99.1523C210.409 105.075 208.846 111.984 208.846 119.88C208.846 127.612 210.409 134.604 213.535 140.855C216.825 146.942 221.267 151.713 226.86 155.168C232.453 158.622 238.951 160.35 246.354 160.35ZM446.745 188.481C431.611 188.481 419.848 184.368 411.458 176.142C403.233 167.752 399.12 155.99 399.12 140.855V81.6321H375.924V52.7608H378.392C384.972 52.7608 390.072 51.0334 393.691 47.5787C397.31 44.1241 399.12 39.1065 399.12 32.5262V22.1621H431.446V52.7608H462.291V81.6321H431.446V139.128C431.446 143.57 432.186 147.353 433.667 150.479C435.312 153.605 437.78 155.99 441.07 157.635C444.524 159.28 448.884 160.103 454.148 160.103C455.3 160.103 456.616 160.021 458.096 159.856C459.742 159.692 461.304 159.527 462.785 159.363V187C460.482 187.329 457.85 187.658 454.889 187.987C451.927 188.316 449.213 188.481 446.745 188.481ZM487.482 187V0.200182H519.808V79.1644L515.367 74.4759C518.492 66.415 523.592 60.3282 530.666 56.2154C537.904 51.9382 546.294 49.7996 555.836 49.7996C565.706 49.7996 574.425 51.9382 581.993 56.2154C589.725 60.4927 595.729 66.4973 600.007 74.2292C604.284 81.7966 606.422 90.5978 606.422 100.633V187H574.096V108.283C574.096 102.36 572.945 97.2604 570.642 92.9832C568.339 88.706 565.131 85.4158 561.018 83.1126C557.07 80.645 552.381 79.4112 546.952 79.4112C541.688 79.4112 537 80.645 532.887 83.1126C528.774 85.4158 525.566 88.706 523.263 92.9832C520.96 97.2604 519.808 102.36 519.808 108.283V187H487.482ZM697.422 189.961C683.603 189.961 671.512 186.835 661.148 180.584C650.784 174.333 642.723 165.861 636.965 155.168C631.207 144.474 628.328 132.63 628.328 119.634C628.328 106.144 631.207 94.217 636.965 83.8529C642.887 73.3244 650.866 65.0167 660.901 58.9298C671.101 52.843 682.452 49.7996 694.955 49.7996C705.483 49.7996 714.696 51.5269 722.592 54.9816C730.653 58.4363 737.48 63.2071 743.073 69.2939C748.667 75.3807 752.944 82.3724 755.905 90.2688C758.866 98.0007 760.347 106.391 760.347 115.439C760.347 117.742 760.182 120.127 759.853 122.595C759.689 125.062 759.277 127.201 758.619 129.011H654.979V104.334H740.359L725.06 115.932C726.54 108.365 726.129 101.62 723.826 95.6976C721.687 89.7753 718.068 85.0868 712.968 81.6321C708.033 78.1774 702.028 76.45 694.955 76.45C688.21 76.45 682.205 78.1774 676.941 81.6321C671.677 84.9223 667.646 89.8575 664.849 96.4379C662.217 102.854 661.23 110.668 661.888 119.88C661.23 128.106 662.3 135.426 665.096 141.842C668.057 148.094 672.335 152.947 677.928 156.401C683.686 159.856 690.266 161.583 697.669 161.583C705.072 161.583 711.323 160.021 716.423 156.895C721.687 153.769 725.8 149.574 728.761 144.31L754.918 157.142C752.286 163.557 748.173 169.233 742.58 174.168C736.987 179.104 730.324 182.97 722.592 185.766C715.025 188.563 706.635 189.961 697.422 189.961ZM901.999 189.961C892.293 189.961 883.327 188.069 875.101 184.286C867.04 180.337 860.625 174.744 855.854 167.506L859.062 161.09V187H828.71V0.200182H861.036V79.4112L856.101 72.7486C860.707 65.5102 866.958 59.9169 874.855 55.9687C882.751 51.856 891.881 49.7996 902.245 49.7996C914.912 49.7996 926.346 52.9253 936.545 59.1766C946.745 65.4279 954.806 73.8179 960.728 84.3465C966.815 94.875 969.858 106.72 969.858 119.88C969.858 132.877 966.897 144.721 960.975 155.414C955.053 166.107 946.992 174.58 936.792 180.831C926.593 186.918 914.995 189.961 901.999 189.961ZM898.297 160.35C905.7 160.35 912.28 158.622 918.038 155.168C923.796 151.713 928.238 146.942 931.363 140.855C934.654 134.768 936.299 127.777 936.299 119.88C936.299 111.984 934.654 105.075 931.363 99.1523C928.238 93.0654 923.796 88.2947 918.038 84.84C912.28 81.2208 905.7 79.4112 898.297 79.4112C891.223 79.4112 884.807 81.1385 879.05 84.5932C873.456 88.0479 869.015 92.9009 865.724 99.1523C862.599 105.239 861.036 112.148 861.036 119.88C861.036 127.777 862.599 134.768 865.724 140.855C869.015 146.942 873.456 151.713 879.05 155.168C884.807 158.622 891.223 160.35 898.297 160.35ZM1058.17 189.961C1044.35 189.961 1032.26 186.835 1021.89 180.584C1011.53 174.333 1003.47 165.861 997.712 155.168C991.954 144.474 989.075 132.63 989.075 119.634C989.075 106.144 991.954 94.217 997.712 83.8529C1003.63 73.3244 1011.61 65.0167 1021.65 58.9298C1031.85 52.843 1043.2 49.7996 1055.7 49.7996C1066.23 49.7996 1075.44 51.5269 1083.34 54.9816C1091.4 58.4363 1098.23 63.2071 1103.82 69.2939C1109.41 75.3807 1113.69 82.3724 1116.65 90.2688C1119.61 98.0007 1121.09 106.391 1121.09 115.439C1121.09 117.742 1120.93 120.127 1120.6 122.595C1120.44 125.062 1120.02 127.201 1119.37 129.011H1015.73V104.334H1101.11L1085.81 115.932C1087.29 108.365 1086.88 101.62 1084.57 95.6976C1082.43 89.7753 1078.81 85.0868 1073.71 81.6321C1068.78 78.1774 1062.78 76.45 1055.7 76.45C1048.96 76.45 1042.95 78.1774 1037.69 81.6321C1032.42 84.9223 1028.39 89.8575 1025.6 96.4379C1022.96 102.854 1021.98 110.668 1022.63 119.88C1021.98 128.106 1023.05 135.426 1025.84 141.842C1028.8 148.094 1033.08 152.947 1038.67 156.401C1044.43 159.856 1051.01 161.583 1058.42 161.583C1065.82 161.583 1072.07 160.021 1077.17 156.895C1082.43 153.769 1086.55 149.574 1089.51 144.31L1115.66 157.142C1113.03 163.557 1108.92 169.233 1103.33 174.168C1097.73 179.104 1091.07 182.97 1083.34 185.766C1075.77 188.563 1067.38 189.961 1058.17 189.961ZM1196.68 189.961C1182.37 189.961 1169.86 186.589 1159.17 179.844C1148.64 172.934 1141.4 163.64 1137.46 151.96L1161.64 140.362C1165.09 147.929 1169.86 153.851 1175.95 158.129C1182.2 162.406 1189.11 164.545 1196.68 164.545C1202.6 164.545 1207.29 163.228 1210.74 160.596C1214.2 157.964 1215.93 154.509 1215.93 150.232C1215.93 147.6 1215.19 145.462 1213.7 143.816C1212.39 142.007 1210.5 140.526 1208.03 139.375C1205.73 138.059 1203.18 136.989 1200.38 136.167L1178.42 129.998C1167.07 126.707 1158.43 121.69 1152.51 114.945C1146.75 108.2 1143.87 100.222 1143.87 91.0091C1143.87 82.7836 1145.93 75.6275 1150.04 69.5407C1154.32 63.2893 1160.16 58.4363 1167.56 54.9816C1175.13 51.5269 1183.76 49.7996 1193.47 49.7996C1206.14 49.7996 1217.32 52.843 1227.03 58.9298C1236.74 65.0167 1243.65 73.5711 1247.76 84.5932L1223.08 96.1911C1220.78 90.1043 1216.91 85.2513 1211.48 81.6321C1206.06 78.0129 1199.97 76.2033 1193.22 76.2033C1187.79 76.2033 1183.52 77.4371 1180.39 79.9047C1177.27 82.3724 1175.7 85.5803 1175.7 89.5285C1175.7 91.9961 1176.36 94.1347 1177.68 95.9443C1178.99 97.7539 1180.8 99.2345 1183.11 100.386C1185.57 101.538 1188.37 102.607 1191.5 103.594L1212.96 110.01C1223.99 113.3 1232.46 118.235 1238.38 124.816C1244.47 131.396 1247.51 139.457 1247.51 148.998C1247.51 157.059 1245.37 164.216 1241.1 170.467C1236.82 176.554 1230.9 181.324 1223.33 184.779C1215.76 188.234 1206.88 189.961 1196.68 189.961ZM1333.55 188.481C1318.42 188.481 1306.65 184.368 1298.26 176.142C1290.04 167.752 1285.93 155.99 1285.93 140.855V81.6321H1262.73V52.7608H1265.2C1271.78 52.7608 1276.88 51.0334 1280.5 47.5787C1284.12 44.1241 1285.93 39.1065 1285.93 32.5262V22.1621H1318.25V52.7608H1349.1V81.6321H1318.25V139.128C1318.25 143.57 1318.99 147.353 1320.47 150.479C1322.12 153.605 1324.59 155.99 1327.88 157.635C1331.33 159.28 1335.69 160.103 1340.95 160.103C1342.11 160.103 1343.42 160.021 1344.9 159.856C1346.55 159.692 1348.11 159.527 1349.59 159.363V187C1347.29 187.329 1344.66 187.658 1341.69 187.987C1338.73 188.316 1336.02 188.481 1333.55 188.481Z" fill="white"/>
</svg>
