<svg width="138" height="28" viewBox="0 0 138 28" fill="none" xmlns="http://www.w3.org/2000/svg">
<g clip-path="url(#clip0_78_633)">
<path d="M8.35649 25.3965C7.91323 24.6964 7.84324 23.1888 7.80591 21.6065C7.80591 20.7617 7.76858 19.5809 7.76858 18.218V15.6229V0.402344H0.331065V0.771072C1.65619 0.953102 2.39341 1.06512 3.12597 1.83992C3.71388 2.42801 3.7512 4.63572 3.7512 6.36734V15.6836C3.7512 17.8539 3.67655 20.1363 3.67655 21.1678C3.67655 22.7127 3.45725 24.5937 3.01398 25.1445C2.31409 25.9193 1.21293 26.358 -0.00488281 26.5447V26.9134H11.7766V26.5447C9.75161 26.4327 8.79509 26.1013 8.35183 25.4012L8.35649 25.3965Z" fill="white"/>
<path d="M20.7957 0.402344H9.04688V0.995109C9.76076 0.962437 10.6893 0.915763 11.3379 0.915763C14.2447 0.915763 16.5637 1.20981 17.4082 1.61588C19.1393 2.46069 20.903 4.26699 22.9281 6.76874L23.2967 6.58671L20.7957 0.402344Z" fill="white"/>
<path d="M12.5137 12.7703C11.6598 12.9524 10.148 13.0364 9.04688 13.0597V13.6572H9.53213C14.2074 13.6572 15.6399 15.1321 16.783 19.5475H17.2263V7.6875H16.783C16.3771 10.1192 16.0458 11.9956 12.5137 12.7703Z" fill="white"/>
<path d="M31.6629 21.5645C31.6629 21.5645 31.6629 21.5459 31.6629 21.5365C31.6629 19.8796 31.6255 18.5914 31.6255 17.3032V10.6007C31.6255 8.35567 31.6628 6.58671 31.7375 4.01028C31.8495 1.35917 34.2758 0.953102 35.6009 0.771072V0.402344H23.8614V0.771072C25.1492 0.92043 26.3623 1.32183 27.0622 2.1713C27.5055 2.65205 27.6128 3.82825 27.6128 5.11646V15.6836C27.6128 17.8539 27.5382 20.1363 27.5382 21.1678C27.5382 22.7127 27.3189 24.5937 26.8383 25.1445C26.1384 25.9193 24.8132 26.358 23.6001 26.5447V26.9134H31.6629V21.5692V21.5645Z" fill="white"/>
<path d="M48.2219 19.2117C47.0461 22.1569 45.8656 24.7333 42.0022 25.8021C40.3084 26.2829 37.4389 26.3529 36.627 26.3529C35.2739 26.3529 33.8321 26.1055 32.9409 25.7928V26.9036H47.228L48.5905 19.319L48.2219 19.207V19.2117Z" fill="white"/>
<path d="M89.2085 0.704985C92.3253 1.33976 94.4204 4.36426 95.4702 7.24407H95.8761V0.43894H95.4702C95.0643 1.02704 94.5137 1.76449 94.3644 1.76449C94.2291 1.76449 92.7639 0.317587 89.2085 0.046875V0.704985Z" fill="white"/>
<path d="M87.0433 26.6274C83.2125 26.3333 80.5436 22.9914 79.3818 19.5469H79.0132L79.1252 26.8748H79.4564C79.8624 26.324 80.4503 25.5865 80.5996 25.5865C80.8469 25.5865 82.6526 27.0381 87.0433 27.1595V26.6321V26.6274Z" fill="white"/>
<path d="M91.9704 12.6208C90.0947 11.9207 88.6576 11.5519 86.7072 10.7818C84.2063 9.86231 82.4752 8.3874 82.4752 5.77363C82.4752 2.49242 84.7568 0.700117 87.7104 0.592765V0C83.1378 0.107351 79.1997 2.54376 79.1997 7.68728C79.1997 10.8145 81.5187 13.3582 84.057 14.3524C86.3013 15.2345 87.0758 15.3466 89.4648 16.266C91.8211 17.1482 93.6968 18.3291 93.6968 21.1249C93.6968 24.21 91.6484 26.2497 88.5363 26.5904V27.1365C93.6501 26.8518 97.2289 24.1727 97.2289 19.6546C97.2289 16.1587 95.3159 13.839 91.9657 12.6208H91.9704Z" fill="white"/>
<path d="M62.9854 26.5036C57.2789 26.0462 54.3907 20.1232 54.3907 13.7241C54.3907 7.32504 57.0083 1.08467 62.9854 0.673935V0.0625C55.7578 0.510575 49.8228 5.56542 49.8228 13.6121C49.8228 21.6588 55.7298 26.8023 62.9854 27.073V26.5036Z" fill="white"/>
<path d="M64.2637 0.0359174V0.684692C70.0588 1.16077 72.8583 7.7232 72.8583 13.5015C72.8583 19.2798 70.0261 26.1036 64.2637 26.5143V27.0698C71.4912 26.7244 77.4263 21.1281 77.4263 13.4642C77.4263 6.46299 72.4757 0.152604 64.2637 0.03125V0.0359174Z" fill="white"/>
<path d="M101.956 27.4063C103.358 27.4063 104.494 26.2695 104.494 24.8672C104.494 23.4649 103.358 22.3281 101.956 22.3281C100.554 22.3281 99.4175 23.4649 99.4175 24.8672C99.4175 26.2695 100.554 27.4063 101.956 27.4063Z" fill="black"/>
<path d="M109.37 13.7241C109.37 7.59576 111.992 1.08467 117.964 0.673935V0.0625C110.737 0.510575 104.802 5.56542 104.802 13.6121C104.802 21.6588 110.709 26.8023 117.964 27.073V26.5036C112.258 26.0462 109.37 20.1232 109.37 13.7241Z" fill="white"/>
<path d="M134.762 25.6649C133.101 26.0569 131.258 25.3708 129.844 24.4327C129.307 24.0779 128.813 23.6532 128.332 23.2051C130.838 20.792 132.406 17.4035 132.406 13.4642C132.406 6.46299 127.455 0.152604 119.243 0.03125V0.684692C125.038 1.16077 127.838 7.7232 127.838 13.5015C127.838 16.1479 127.278 18.9297 126.149 21.2401C125.234 20.638 124.096 20.232 122.938 20.1479C120.251 19.9472 117.713 21.6462 115.981 24.1759C117.419 22.687 119.626 21.8842 121.87 22.407C122.733 22.603 123.648 23.1398 124.492 23.7839C123.148 25.3288 121.399 26.3603 119.238 26.5143V27.0698C121.679 26.9531 123.974 26.2343 125.943 25.0394C126.102 25.1934 126.256 25.3521 126.396 25.5015C127.572 26.7477 129.597 27.9519 131.771 27.9939C134.972 28.0359 136.997 25.9449 137.991 23.3311C137.216 24.5773 136.115 25.3801 134.753 25.6602L134.762 25.6649Z" fill="white"/>
</g>
<defs>
<clipPath id="clip0_78_633">
<rect width="138" height="28" fill="white"/>
</clipPath>
</defs>
</svg>
