<svg width="10" height="8" viewBox="0 0 10 8" fill="none" xmlns="http://www.w3.org/2000/svg">
<path fill-rule="evenodd" clip-rule="evenodd" d="M9.02289 0.0983771C8.90079 -0.0327923 8.70201 -0.0327923 8.58075 0.0983771L3.92136 5.0468C3.79926 5.17886 3.60007 5.17886 3.4788 5.0468L1.43728 2.82848C1.37685 2.76267 1.29768 2.73021 1.21808 2.72977C1.13765 2.72932 1.05598 2.76178 0.994718 2.82848L0.0925125 3.69375C0.0325044 3.75956 0 3.84182 0 3.92763C0 4.0139 0.0325044 4.10416 0.0929293 4.16952L2.15154 6.47455C2.27322 6.60616 2.47283 6.81959 2.5941 6.95031L3.47922 7.90229C3.6009 8.03257 3.79968 8.03257 3.92178 7.90229L9.90843 1.52612C10.0305 1.3954 10.0305 1.18064 9.90843 1.04991L9.02289 0.0983771Z" fill="white"/>
</svg>
