<svg width="16" height="16" viewBox="0 0 16 16" fill="none" xmlns="http://www.w3.org/2000/svg">
  <path fill-rule="evenodd" clip-rule="evenodd" d="M9.56005 0C10.4729 0 11.3362 0.415659 11.9054 1.12934L14.3453 4.18841C14.7692 4.71979 15 5.37936 15 6.05907V13C15 14.6569 13.6569 16 12 16H4C2.34315 16 1 14.6569 1 13V3C1 1.34315 2.34315 0 4 0H9.56005ZM10 10.7366H6C5.72386 10.7366 5.5 10.9604 5.5 11.2366C5.5 11.5127 5.72386 11.7366 6 11.7366H10C10.2761 11.7366 10.5 11.5127 10.5 11.2366C10.5 10.9604 10.2761 10.7366 10 10.7366ZM8.04208 4.5H7.95792C7.83997 4.50693 7.724 4.55546 7.63388 4.64558L5.51256 6.7669C5.3173 6.96216 5.3173 7.27875 5.51256 7.47401C5.70783 7.66927 6.02441 7.66927 6.21967 7.47401L7.50038 6.19407L7.5 9.23657C7.5 9.51271 7.72386 9.73657 8 9.73657C8.27614 9.73657 8.5 9.51271 8.5 9.23657L8.50038 6.19407L9.78033 7.47401C9.97559 7.66927 10.2922 7.66927 10.4874 7.47401C10.6827 7.27875 10.6827 6.96216 10.4874 6.7669L8.36612 4.64558C8.276 4.55546 8.16003 4.50693 8.04208 4.5Z" fill="#202327"/>
  </svg>