<svg width="119" height="24" viewBox="0 0 119 24" fill="none" xmlns="http://www.w3.org/2000/svg">
<circle cx="87.4142" cy="21.4035" r="2.20037" fill="#E82C2A"/>
<g clip-path="url(#clip0_331_429)">
<path d="M7.1648 21.7654C6.78474 21.1653 6.72473 19.8731 6.69272 18.5168C6.69272 17.7927 6.66072 16.7805 6.66072 15.6123V13.388V0.341797H0.283653V0.65785C1.41984 0.813875 2.05195 0.909891 2.68005 1.574C3.18414 2.07809 3.21614 3.9704 3.21614 5.45465V13.44C3.21614 15.3003 3.15213 17.2566 3.15213 18.1408C3.15213 19.465 2.9641 21.0773 2.58404 21.5493C1.98394 22.2134 1.03978 22.5895 -0.00439453 22.7495V23.0656H10.0973V22.7495C8.361 22.6535 7.54086 22.3695 7.1608 21.7694L7.1648 21.7654Z" fill="black"/>
<path d="M17.8305 0.341797H7.75684V0.849882C8.36894 0.821877 9.16507 0.78187 9.72116 0.78187C12.2136 0.78187 14.2019 1.03391 14.926 1.38197C16.4103 2.10609 17.9225 3.65435 19.6588 5.79871L19.9749 5.64268L17.8305 0.341797Z" fill="black"/>
<path d="M10.7293 10.9427C9.99721 11.0987 8.70099 11.1707 7.75684 11.1907V11.7028H8.17291C12.1816 11.7028 13.4098 12.967 14.3899 16.7516H14.77V6.58594H14.3899C14.0419 8.67028 13.7578 10.2786 10.7293 10.9427Z" fill="black"/>
<path d="M27.1485 18.4808C27.1485 18.4808 27.1485 18.4648 27.1485 18.4568C27.1485 17.0366 27.1165 15.9324 27.1165 14.8282V9.08325C27.1165 7.15893 27.1485 5.64268 27.2125 3.43431C27.3085 1.16193 29.3889 0.813875 30.5251 0.65785V0.341797H20.4594V0.65785C21.5636 0.785871 22.6037 1.12993 23.2038 1.85805C23.5839 2.27012 23.6759 3.27829 23.6759 4.38247V13.44C23.6759 15.3003 23.6119 17.2566 23.6119 18.1408C23.6119 19.465 23.4239 21.0773 23.0118 21.5493C22.4117 22.2134 21.2755 22.5895 20.2354 22.7495V23.0656H27.1485V18.4848V18.4808Z" fill="black"/>
<path d="M41.3468 16.4669C40.3386 18.9913 39.3265 21.1997 36.0139 22.1158C34.5617 22.5279 32.1013 22.5879 31.4052 22.5879C30.245 22.5879 29.0088 22.3759 28.2446 22.1078V23.06H40.4947L41.6629 16.5589L41.3468 16.4629V16.4669Z" fill="black"/>
<path d="M76.4873 0.60511C79.1597 1.1492 80.956 3.74163 81.8562 6.21004H82.2043V0.377072H81.8562C81.5081 0.881156 81.0361 1.51326 80.908 1.51326C80.792 1.51326 79.5358 0.273054 76.4873 0.0410156V0.60511Z" fill="black"/>
<path d="M74.6312 22.8249C71.3467 22.5728 69.0583 19.7084 68.0621 16.7559H67.7461L67.8421 23.0369H68.1262C68.4742 22.5648 68.9783 21.9327 69.1063 21.9327C69.3184 21.9327 70.8666 23.1769 74.6312 23.2809V22.8289V22.8249Z" fill="black"/>
<path d="M78.8551 10.8198C77.2468 10.2197 76.0146 9.9036 74.3423 9.24349C72.198 8.45536 70.7137 7.19115 70.7137 4.95078C70.7137 2.13831 72.6701 0.602053 75.2025 0.510038V0.00195312C71.2818 0.0939685 67.9053 2.18232 67.9053 6.59105C67.9053 9.2715 69.8936 11.4519 72.07 12.304C73.9943 13.0601 74.6584 13.1561 76.7067 13.9443C78.7271 14.7004 80.3353 15.7126 80.3353 18.109C80.3353 20.7534 78.5791 22.5017 75.9106 22.7938V23.2618C80.2953 23.0178 83.3638 20.7214 83.3638 16.8488C83.3638 13.8523 81.7236 11.8639 78.8511 10.8198H78.8551Z" fill="black"/>
<path d="M54.0051 22.7204C49.1123 22.3284 46.6359 17.2515 46.6359 11.7666C46.6359 6.28168 48.8803 0.932787 54.0051 0.580728V0.0566406C47.8081 0.440705 42.7192 4.77343 42.7192 11.6706C42.7192 18.5677 47.7841 22.9765 54.0051 23.2085V22.7204Z" fill="black"/>
<path d="M55.1011 0.0293913V0.585484C60.0699 0.993552 62.4703 6.61849 62.4703 11.5713C62.4703 16.5241 60.0419 22.3731 55.1011 22.7252V23.2013C61.2981 22.9052 66.387 18.1084 66.387 11.5393C66.387 5.53831 62.1422 0.129408 55.1011 0.0253906V0.0293913Z" fill="black"/>
<path d="M93.7755 11.7666C93.7755 6.51372 96.0239 0.932787 101.145 0.580728V0.0566406C94.9477 0.440705 89.8589 4.77343 89.8589 11.6706C89.8589 18.5677 94.9237 22.9765 101.145 23.2085V22.7204C96.252 22.3284 93.7755 17.2515 93.7755 11.7666Z" fill="black"/>
<path d="M115.547 21.9971C114.123 22.3331 112.543 21.745 111.33 20.9409C110.87 20.6368 110.446 20.2728 110.034 19.8887C112.182 17.8204 113.527 14.9159 113.527 11.5393C113.527 5.53831 109.282 0.129408 102.241 0.0253906V0.585484C107.21 0.993552 109.61 6.61849 109.61 11.5713C109.61 13.8397 109.13 16.2241 108.162 18.2044C107.378 17.6883 106.401 17.3403 105.409 17.2683C103.105 17.0962 100.929 18.5525 99.4443 20.7208C100.677 19.4446 102.569 18.7565 104.493 19.2046C105.233 19.3726 106.017 19.8327 106.742 20.3848C105.589 21.709 104.089 22.5932 102.237 22.7252V23.2013C104.329 23.1012 106.297 22.4851 107.986 21.461C108.122 21.593 108.254 21.729 108.374 21.857C109.382 22.9252 111.118 23.9574 112.983 23.9934C115.727 24.0294 117.463 22.2371 118.315 19.9967C117.651 21.0649 116.707 21.753 115.539 21.993L115.547 21.9971Z" fill="black"/>
</g>
<defs>
<clipPath id="clip0_331_429">
<rect width="118.324" height="24" fill="white"/>
</clipPath>
</defs>
</svg>
