<svg width="296" height="60" viewBox="0 0 296 60" fill="none" xmlns="http://www.w3.org/2000/svg">
<g clip-path="url(#clip0_445_268)">
<path d="M17.9102 54.4094C16.9602 52.9094 16.8102 49.6794 16.7302 46.2894C16.7302 44.4794 16.6502 41.9494 16.6502 39.0294V33.4694V0.859375H0.710234V1.64937C3.55023 2.03937 5.13023 2.27937 6.70023 3.93937C7.96023 5.19937 8.04023 9.92938 8.04023 13.6394V33.5994C8.04023 38.2494 7.88023 43.1394 7.88023 45.3494C7.88023 48.6594 7.41023 52.6894 6.46023 53.8694C4.96023 55.5294 2.60023 56.4694 -0.00976562 56.8694V57.6594H25.2402V56.8694C20.9002 56.6294 18.8502 55.9194 17.9002 54.4194L17.9102 54.4094Z" fill="black"/>
<path d="M44.5701 0.859375H19.3901V2.12938C20.9201 2.05938 22.9101 1.95938 24.3001 1.95938C30.5301 1.95938 35.5001 2.58937 37.3101 3.45937C41.0201 5.26937 44.8001 9.13938 49.1401 14.4994L49.9301 14.1094L44.5701 0.859375Z" fill="black"/>
<path d="M26.8201 27.3588C24.9901 27.7488 21.7501 27.9288 19.3901 27.9788V29.2588H20.4301C30.4501 29.2588 33.5201 32.4188 35.9701 41.8788H36.9201V16.4688H35.9701C35.1001 21.6788 34.3901 25.6988 26.8201 27.3588Z" fill="black"/>
<path d="M67.8601 46.1994C67.8601 46.1994 67.8601 46.1594 67.8601 46.1394C67.8601 42.5894 67.7801 39.8294 67.7801 37.0694V22.7094C67.7801 17.8994 67.8601 14.1094 68.0201 8.58938C68.2601 2.90938 73.4601 2.03937 76.3001 1.64937V0.859375H51.1401V1.64937C53.9001 1.96937 56.5001 2.82937 58.0001 4.64937C58.9501 5.67937 59.1801 8.19938 59.1801 10.9594V33.5994C59.1801 38.2494 59.0201 43.1394 59.0201 45.3494C59.0201 48.6594 58.5501 52.6894 57.5201 53.8694C56.0201 55.5294 53.1801 56.4694 50.5801 56.8694V57.6594H67.8601V46.2094V46.1994Z" fill="black"/>
<path d="M103.35 41.1584C100.83 47.4684 98.3001 52.9884 90.0201 55.2784C86.3901 56.3084 80.2401 56.4584 78.5001 56.4584C75.6001 56.4584 72.5101 55.9284 70.6001 55.2584V57.6384H101.22L104.14 41.3884L103.35 41.1484V41.1584Z" fill="black"/>
<path d="M191.19 1.50961C197.87 2.86961 202.36 9.34961 204.61 15.5196H205.48V0.939609H204.61C203.74 2.19961 202.56 3.77961 202.24 3.77961C201.95 3.77961 198.81 0.679609 191.19 0.0996094V1.50961Z" fill="black"/>
<path d="M186.55 57.0509C178.34 56.4209 172.62 49.2609 170.13 41.8809H169.34L169.58 57.5809H170.29C171.16 56.4009 172.42 54.8209 172.74 54.8209C173.27 54.8209 177.14 57.9309 186.55 58.1909V57.0609V57.0509Z" fill="black"/>
<path d="M197.11 27.04C193.09 25.54 190.01 24.75 185.83 23.1C180.47 21.13 176.76 17.97 176.76 12.37C176.76 5.34 181.65 1.5 187.98 1.27V0C178.18 0.23 169.74 5.45 169.74 16.47C169.74 23.17 174.71 28.62 180.15 30.75C184.96 32.64 186.62 32.88 191.74 34.85C196.79 36.74 200.81 39.27 200.81 45.26C200.81 51.87 196.42 56.24 189.75 56.97V58.14C200.71 57.53 208.38 51.79 208.38 42.11C208.38 34.62 204.28 29.65 197.1 27.04H197.11Z" fill="black"/>
<path d="M134.99 56.7906C122.76 55.8106 116.57 43.1206 116.57 29.4106C116.57 15.7006 122.18 2.33063 134.99 1.45063V0.140625C119.5 1.10062 106.78 11.9306 106.78 29.1706C106.78 46.4106 119.44 57.4306 134.99 58.0106V56.7906Z" fill="black"/>
<path d="M137.73 0.0803125V1.47031C150.15 2.49031 156.15 16.5503 156.15 28.9303C156.15 41.3103 150.08 55.9303 137.73 56.8103V58.0003C153.22 57.2603 165.94 45.2703 165.94 28.8503C165.94 13.8503 155.33 0.330312 137.73 0.0703125V0.0803125Z" fill="black"/>
<path d="M234.4 29.4106C234.4 16.2806 240.02 2.33063 252.82 1.45063V0.140625C237.33 1.10062 224.61 11.9306 224.61 29.1706C224.61 46.4106 237.27 57.4306 252.82 58.0106V56.7906C240.59 55.8106 234.4 43.1206 234.4 29.4106Z" fill="black"/>
<path d="M288.82 54.9903C285.26 55.8303 281.31 54.3603 278.28 52.3503C277.13 51.5903 276.07 50.6803 275.04 49.7203C280.41 44.5503 283.77 37.2903 283.77 28.8503C283.77 13.8503 273.16 0.330312 255.56 0.0703125V1.47031C267.98 2.49031 273.98 16.5503 273.98 28.9303C273.98 34.6003 272.78 40.5603 270.36 45.5103C268.4 44.2203 265.96 43.3503 263.48 43.1703C257.72 42.7403 252.28 46.3803 248.57 51.8003C251.65 48.6103 256.38 46.8903 261.19 48.0103C263.04 48.4303 265 49.5803 266.81 50.9603C263.93 54.2703 260.18 56.4803 255.55 56.8103V58.0003C260.78 57.7503 265.7 56.2103 269.92 53.6503C270.26 53.9803 270.59 54.3203 270.89 54.6403C273.41 57.3103 277.75 59.8903 282.41 59.9803C289.27 60.0703 293.61 55.5903 295.74 49.9903C294.08 52.6603 291.72 54.3803 288.8 54.9803L288.82 54.9903Z" fill="black"/>
</g>
<defs>
<clipPath id="clip0_445_268">
<rect width="295.76" height="59.99" fill="white"/>
</clipPath>
</defs>
</svg>
