<svg width="32" height="32" viewBox="0 0 32 32" fill="none" xmlns="http://www.w3.org/2000/svg">
<g clip-path="url(#clip0_292_260)">
<path d="M31.7903 1.1522C31.6072 0.983196 31.3445 0.932821 31.1137 1.02188L0.419659 12.777C0.198346 12.8618 0.0405339 13.0592 0.00672137 13.2935C-0.0270911 13.5279 0.0682839 13.762 0.256409 13.9058L9.76435 21.2024C9.7641 21.2097 9.72841 21.2164 9.72841 21.2238V26.4483C9.72841 26.689 9.89485 26.9104 10.1072 27.0241C10.2035 27.0758 10.3266 27.1014 10.4322 27.1014C10.5588 27.1014 10.6935 27.0643 10.8028 26.9916L14.3103 24.6562L22.4584 30.8855C22.5739 30.9738 22.7146 31.0198 22.8562 31.0198C22.9242 31.0198 22.9928 31.0093 23.0592 30.9876C23.2636 30.9209 23.4224 30.7581 23.4833 30.5517L31.9732 1.81676C32.0436 1.57857 31.9727 1.32088 31.7903 1.1522ZM10.6566 20.0934C10.6325 20.1159 10.6128 20.1411 10.5929 20.1661L1.97866 13.5786L28.5328 3.40895L10.6566 20.0934ZM11.0345 25.2279V22.1996L13.1502 23.8175L11.0345 25.2279ZM22.4997 29.2713L14.8978 23.458C14.8189 23.3474 14.7119 23.2687 14.5927 23.2247L11.637 20.9645L30.0245 3.80288L22.4997 29.2713Z" fill="white"/>
</g>
<defs>
<clipPath id="clip0_292_260">
<rect width="32" height="32" fill="white"/>
</clipPath>
</defs>
</svg>
